<?xml version="1.0" encoding="utf-8"?>
<!-- Generator: Adobe Illustrator 21.1.0, SVG Export Plug-In . SVG Version: 6.00 Build 0)  -->
<svg version="1.1" id="Layer_1" xmlns="http://www.w3.org/2000/svg" xmlns:xlink="http://www.w3.org/1999/xlink" x="0px" y="0px"
	 width="990px" height="570px" viewBox="0 0 990 570" style="enable-background:new 0 0 990 570;" xml:space="preserve">
<style type="text/css">
	.st0{opacity:0.6;}
	.st1{opacity:0.5;fill:#EFF7FE;enable-background:new    ;}
	.st2{opacity:0.15;fill:#DFE6EA;enable-background:new    ;}
	.st3{opacity:0.45;fill:#E1F5FB;enable-background:new    ;}
	.st4{opacity:0.3;fill:#D1F0EF;enable-background:new    ;}
	.st5{opacity:0.5;fill:#D1F0EF;enable-background:new    ;}
	.st6{opacity:0.5;fill:#DCE8EF;enable-background:new    ;}
	.st7{opacity:0.2;fill:#FCC8CE;enable-background:new    ;}
	.st8{opacity:0.6;fill:#D5F1F1;enable-background:new    ;}
	.st9{opacity:0.6;fill:#BBE9F9;enable-background:new    ;}
	.st10{fill:#F1FAFA;}
	.st11{opacity:0.2;fill:#FCB9C6;enable-background:new    ;}
	.st12{fill:#FCFDFF;}
	.st13{opacity:0.1;fill:#1DD4FF;enable-background:new    ;}
	.st14{opacity:0.2;fill:#A2EAE0;enable-background:new    ;}
	.st15{fill:none;stroke:#347EC0;stroke-width:3;stroke-linecap:round;stroke-miterlimit:10;}
	.st16{fill:none;stroke:#347EC0;stroke-width:1.5;stroke-linecap:round;stroke-miterlimit:10;stroke-dasharray:4;}
	.st17{fill:none;stroke:#24AAA3;stroke-width:3;stroke-linecap:round;stroke-miterlimit:10;}
	.st18{fill:none;stroke:#24AAA3;stroke-width:3;stroke-linecap:round;stroke-linejoin:round;stroke-miterlimit:10;}
</style>
<g id="bg">
	<g id="Layer_2_1_">
		<g class="st0">
			<ellipse class="st1" cx="317.4" cy="300.7" rx="280.8" ry="218.4"/>
			<ellipse class="st2" cx="582.6" cy="179.3" rx="199.5" ry="155.2"/>
			<ellipse class="st3" cx="687" cy="311.5" rx="274.2" ry="213.3"/>
			<path class="st4" d="M300.7,370.8c4.2-2.7,14,0.2,26.4,3.9c8.9,2.7,13.3,5.2,22.3,5.7c4.7,0.3,11.9,0.7,14.1-2.1
				c4.4-5.5-12.7-20-12.3-20.2c0.5-0.3,19.2,22,28.2,19.5c2.2-0.6,3.8-3.1,6.8-8.1c4.1-6.8,3-8.4,5.9-10.6c4.8-3.7,9.8-0.4,18.2-3.2
				c8.5-2.8,7.4-7.4,16.9-12.8c6.1-3.5,11.9-4.4,21-6c18.6-3.2,21.3,0.7,30.5-2.8c10.3-3.9,7.8-9.1,21-16.7
				c7.2-4.1,13.6-5.8,24.1-8.5c10.6-2.8,18.3-3.7,31.9-5.3c27.5-3.3,34.2-1.6,37.8-0.4c6.3,2.1,6.2,3.8,12.3,6.4
				c14,5.9,25.9,2.1,41.9,1.8c22.6-0.5,40.1,6.2,59.2,13.5c10,3.8,5,2.9,36.4,17.4c20.9,9.7,24.9,10.9,32.8,16.3
				c8.8,6.1,18.5,12.7,24.1,23.7c3.5,6.9,3,10.5,9.1,21.3c4.9,8.6,8.1,11.3,10.9,13.1c5.7,3.6,8.9,2.9,12.3,6.4
				c5,5.2,5,13.9,0.5,15.9c-2.9,1.3-7.3-0.3-9.1-1.1c-5.9-2.3-5.4-5.1-10.9-8.1c-1-0.6-8.4-4.5-16.4-2.8c-0.9,0.2-8,1.7-8.7,4.6
				c-1.4,7,36.5,10.1,43.3,27.3c2.5,6.4,0.4,14.2-4.1,19.5c-8.1,9.3-21.7,8.1-26,16.7c-3.1,6.3,1.2,12.9,2.3,14.5
				c8.8,13.5,37.4,20.6,56.5,14.2c11.5-3.9,22.8-14,34.6-24.4c5.3-4.7,8.6-8.2,14.6-8.9c9.6-1.1,21.5,5.5,24.1,13.1
				c4.4,12.5-16.4,27.4-31.4,34.4c-16.7,7.8-37.2,8-77.4,8.1c-33.1,0.1-49.9,0.1-61.5-6.4c-13.1-7.3-25.4-21.5-31-28
				c-9.4-10.9-12.8-17.8-22.3-19.5c-10-1.8-20.9,3.2-23.2,4.3c-6.9,3.1-6.3,5-12.3,8.1c-15,7.9-30.9,2.9-33.3,7.8
				c-1.5,3,3.6,7.5,8.7,12c6.7,5.9,10.5,6.3,10.9,9.2c0.7,4.9-9.1,12.2-19.1,12.4c-12.4,0.2-15.1-10.8-30.1-13.5
				c-3-0.5-8.9-1.2-31.9,6.4c-30.9,10.1-29.7,14.4-45.1,17c-17.2,2.9-32.5,0-47.8-2.8c-20.7-3.9-21-7.4-36.4-8.9
				c-21.4-2-23.8,4.5-43.3,2.8c-13.3-1.1-25-6.2-48.3-16.3c-19.3-8.4-20.7-10.5-29.2-13.8c-27-10.7-45.5-2.3-89.3-1.8
				c-32.1,0.4-79.8,1-95.7-19.5c-8-10.4-8.1-26.5,1.8-35.4c11.2-10.1,27.9-4.7,83.4-8.5c45.2-3.1,57.2-8.3,64.7-15.2
				c10.2-9.3,11.8-21.4,12.3-25.2C309.6,389.5,293.8,375.3,300.7,370.8z"/>
			<path class="st5" d="M339,460.6c4.2,2.7,14-0.2,26.4-3.9c8.8-2.7,13.3-5.2,22.3-5.7c4.7-0.3,11.9-0.7,14.1,2.1
				c4.4,5.5-12.7,20-12.3,20.2c0.5,0.3,19.1-22,28.2-19.5c2.2,0.6,3.8,3.1,6.9,8.1c4.2,6.8,3.1,8.4,5.9,10.6
				c4.8,3.7,9.8,0.4,18.2,3.2c8.5,2.8,7.4,7.4,16.9,12.7c6.2,3.5,11.9,4.4,21,6c18.6,3.2,21.3-0.7,30.5,2.8
				c10.3,3.9,7.8,9.1,21,16.6c7.2,4.1,13.6,5.7,24.2,8.5c10.7,2.8,18.3,3.7,31.9,5.3c27.5,3.3,34.2,1.5,37.8,0.3
				c6.3-2.1,6.1-3.8,12.3-6.4c14-5.9,25.9-2.2,41.9-1.8c22.6,0.5,40-6.2,59.2-13.5c10-3.8,5-2.9,36.4-17.4
				c20.9-9.7,24.9-10.9,32.8-16.3c8.8-6.1,18.4-12.7,24.1-23.8c3.5-6.9,3-10.5,9.1-21.3c4.9-8.6,8.1-11.3,10.9-13.1
				c5.7-3.6,8.9-2.9,12.3-6.4c5-5.2,4.9-13.9,0.4-15.9c-2.9-1.3-7.3,0.4-9.1,1.1c-5.9,2.3-5.4,5.1-10.9,8.2c-1,0.6-8.4,4.5-16.4,2.9
				c-0.9-0.2-8-1.6-8.7-4.6c-1.5-7,36.5-10.2,43.2-27.3c2.5-6.4,0.4-14.2-4.1-19.5c-8.1-9.3-21.7-8.1-26-16.6
				c-3.1-6.3,1.2-12.9,2.2-14.5c8.8-13.5,37.4-20.7,56.5-14.2c11.5,3.9,22.8,13.9,34.7,24.4c5.3,4.7,8.6,8.2,14.6,8.8
				c9.6,1.1,21.5-5.6,24.1-13.1c4.4-12.5-16.4-27.4-31.5-34.3c-16.8-7.7-37.2-7.9-77.5-8c-33.1-0.1-49.9,0-61.5,6.5
				c-13.1,7.3-25.4,21.6-30.9,28c-9.4,10.9-12.7,17.8-22.3,19.5c-10,1.8-20.9-3.2-23.2-4.2c-6.9-3.1-6.3-4.9-12.3-8.1
				c-15.1-7.9-30.9-2.9-33.3-7.8c-1.5-3,3.6-7.5,8.6-12.1c6.7-6,10.5-6.3,10.9-9.2c0.7-4.9-9.2-12.2-19.2-12.4
				c-12.4-0.2-15,10.8-30,13.5c-3,0.5-8.9,1.2-31.9-6.3c-30.9-10.1-29.8-14.3-45.1-16.9c-17.2-2.9-32.5,0-47.8,2.9
				c-20.7,3.9-20.9,7.4-36.4,8.9c-21.4,2-23.8-4.5-43.3-2.8c-13.3,1.2-25,6.2-48.3,16.4c-19.3,8.4-20.6,10.5-29.1,13.9
				c-27,10.7-45.5,2.4-89.3,1.9c-32.1-0.4-79.8-0.9-95.6,19.6c-8,10.4-8,26.5,1.9,35.4c11.2,10.1,27.9,4.6,83.4,8.4
				c45.2,3.1,57.2,8.3,64.7,15.1c10.2,9.3,11.8,21.4,12.4,25.1C347.8,441.9,332.1,456.1,339,460.6z"/>
			<path class="st6" d="M125.6,100.9c-3.6-1.2-3-6.9-8.7-8.3c-4.4-1.1-8.3,1.4-10,0c-2-1.7,2.6-5.3,0.3-8.5c-1.5-2.2-5.2-2.8-6.8-3
				c-6.1-1-9.3,1.8-11.6,0.5c-2.8-1.7,1.6-6.3-1.6-11c-1.5-2.3-4.8-4.6-8.7-4.8c-4.4-0.2-8.2,2.3-10,4.8c-2.5,3.5,0.4,5.4-1.6,10.5
				c-1.6,4.1-4,4.3-5.8,8.3c-1.9,4.2-0.8,7.7-0.3,10.5c2.4,12.6-2,27.2-5.8,27.5c-2.3,0.2-5.3-4.8-6.8-7.3c-2.7-4.5-2.8-7.6-4.5-7.8
				c-1.8-0.2-3.9,2.9-4.8,4.8c-2.3,4.6-2,11.6,3.2,15.3c4,2.8,7.6,1.5,8.7,3.5c1.8,3.3-7.6,7-10.9,16.8c-1.1,3.2-1.4,6.8,0,7.3
				c2.1,0.7,6.4-5.8,10.3-5c2.3,0.5,1.7,3,4.8,5c4.1,2.6,8.3,0.1,12.6,2c3.9,1.7,3.1,5,6.1,11.8c1.7,3.8,4.7,7.5,10.6,15
				c8,10,8.9,9.1,11.3,13.8c3.3,6.6,1.8,9.5,6.1,12.8c4.4,3.4,8.4,2.3,10.9,5.5c2.7,3.5,0.9,8.6-1.3,11.5c-2.7,3.6-8.2,5.5-19.3,9.3
				c-12.3,4.1-16.5,4.3-18.3,4.3c-3.5,0-9.3,0-13.5-3c-3.2-2.2-2.5-4-6.1-11c-3.2-6.3-4.9-9.4-8.4-11.3c-5-2.7-12.8-2.6-18.3-0.3
				c-8.6,3.6-10.2,12.4-13.2,30c-1.6,9-0.7,10.6,0.6,11.5c2.9,2,8.1,0.8,33.2-3c4.9-0.7,8-1.2,11.3,0c6.9,2.5,9,9.8,9.7,12
				c1.2,4,0.2,5.2,0.6,12.5c0.4,5.7,0.6,8.7,1.6,11.5c3.2,8.4,11.9,8.2,24.8,19.3c5.8,5,11.3,9.7,13.5,17.3
				c2.4,8.1-0.2,15.9-1.6,19.3c-3.6,8.6-8.5,10.2-7.1,14c2.5,6.7,21.2,10.4,26.7,6c2.7-2.2,0.3-4.9,3.2-7.8
				c4.2-4.2,15.6-5.2,22.2-1.5c2.2,1.2,4.4,3.3,9,21c3.1,12.1,3.3,15.6,7.7,18.3c4.7,2.8,11.1,2.6,15.8,2.5
				c7.3-0.2,9.1-1.9,17.7-3.3c10.3-1.6,12.3,0,20.6-1s9.1-3,23.8-8.5c21.9-8.2,24.5-5.4,35.7-11.8c2.7-1.5,8.2-4.9,16.7-8.5
				c5.2-2.2,8.2-3.1,9.7-3.5c2.6-0.7,8.3-2.3,15.8-2.8c9.2-0.5,11.4,1.2,14.2-0.5c4.2-2.6,0.6-7.2,5.2-11c3.4-2.8,9-3.5,12.9-3
				c4.1,0.5,4.8,2,13.8,6.5c6.5,3.2,9.7,4.8,12.9,5.3c5.9,0.8,8.5-1,13.5,0.8c3.7,1.3,3.1,2.6,6.4,3.5c3.8,1,5.9-0.3,13.5-1.3
				c8.2-1,8,0.3,10.6-0.8c5.8-2.4,3.8-7.8,10.3-13.5c4.4-3.9,6.3-2.3,9.3-5.3c7.8-7.6-5.2-18,1.3-31c2.6-5.3,7.4-8.8,10.3-11
				c9.8-7.3,16.7-6.4,20.9-12.5c2.9-4.2,3.5-10.4,0.3-15c-4.2-6-12.4-5.7-14.2-11.3c-1.3-4.2,2.5-6.7,0.3-8.8
				c-3.1-3-13.7-0.1-15.1,0.3c-11.6,3.2-14.9,9.5-19.6,8.3c-4.5-1.1-5.1-7.7-5.2-8c-0.4-4.7,2.7-7.1,7.1-13.8c2-3.1,6.6-10.2,8-18.8
				c0.9-5.4,2-11.9-2.6-15c-4.8-3.3-10.6,0.4-16.1-2.8c-4.9-2.8-2.1-6.9-6.4-16.3c-4-8.7-10.8-14.7-13.5-17
				c-6.4-5.5-7.7-4.4-10.3-7.8c-2.5-3.3-3.4-7.3,0-24.8c2.7-13.9,4.2-16.4,1.6-18.8c-2.4-2.2-5.9-1.9-27.7-1.3
				c-18.6,0.6-24.7,0.6-29.9-2.8c-4.7-3.1-6.2-7.3-6.4-8c-2.7-8.3,5.8-12.6,2.9-19.3c-2-4.5-8.6-8.6-13.8-8
				c-6.7,0.7-6.5,8.3-17.4,14c-6.1,3.2-13.8,4.9-15.5,3.3c-2.6-2.6,12.7-12.3,9.3-17c-2.5-3.5-14-1.9-15.1-1.8
				c-14.5,2.1-16.6,9.9-28.3,14.3c-18.4,6.8-41.5-1.8-50.9-5.3c-20.2-7.5-20.5-14.9-31.2-14.8C149.8,74.4,134.5,103.9,125.6,100.9z"
				/>
			<path class="st7" d="M788.9,53.1c4.5-1.5,3.7-8.4,10.7-10.1c5.4-1.3,10.1,1.8,12.3,0c2.4-2-3.1-6.6-0.4-10.5
				c1.9-2.6,6.4-3.4,8.3-3.7c7.5-1.2,11.5,2.3,14.2,0.6c3.4-2-1.9-7.7,2-13.5c1.9-2.8,5.8-5.6,10.7-5.8c5.4-0.2,10.1,2.8,12.3,5.8
				c3.1,4.4-0.5,6.6,2,12.9c2,5,4.9,5.3,7.1,10.1c2.3,5.2,1,9.5,0.4,12.9c-2.9,15.4,2.4,33.4,7.1,33.8c2.9,0.3,6.5-5.9,8.3-8.9
				c3.3-5.6,3.4-9.3,5.5-9.5c2.3-0.2,4.8,3.6,5.9,5.8c2.8,5.7,2.5,14.2-4,18.7c-4.9,3.4-9.3,1.8-10.7,4.3
				c-2.2,4.1,9.3,8.7,13.4,20.6c1.4,4,1.8,8.3,0,8.9c-2.6,0.9-7.9-7.1-12.6-6.1c-2.9,0.6-2.1,3.7-5.9,6.1c-5,3.2-10.2,0.1-15.4,2.5
				c-4.8,2.1-3.8,6.2-7.5,14.4c-2.1,4.7-5.7,9.3-13,18.4c-9.8,12.3-11,11.2-13.8,16.9c-4.1,8.2-2.2,11.6-7.5,15.7
				c-5.4,4.2-10.3,2.8-13.4,6.8c-3.4,4.3-1.1,10.5,1.6,14.1c3.3,4.4,10.1,6.8,23.7,11.4c15,5.1,20.2,5.2,22.5,5.2
				c4.3,0,11.4,0,16.6-3.7c3.9-2.7,3.1-4.9,7.5-13.5c4-7.7,6-11.6,10.3-13.8c6.1-3.3,15.7-3.2,22.5-0.3
				c10.6,4.5,12.5,15.3,16.2,36.9c1.9,11,0.9,13-0.8,14.1c-3.6,2.5-10,1-40.7-3.7c-6.1-0.9-9.8-1.4-13.8,0c-8.5,3-11.1,12-11.9,14.8
				c-1.4,5-0.2,6.3-0.8,15.4c-0.4,6.9-0.7,10.7-2,14.1c-3.9,10.4-14.6,10-30.4,23.7c-7.1,6.1-13.9,12-16.6,21.2
				c-2.9,10,0.3,19.6,2,23.7c4.4,10.6,10.4,12.6,8.7,17.2c-3.1,8.3-26.1,12.8-32.8,7.4c-3.3-2.7-0.4-6-4-9.5
				c-5.1-5.1-19.2-6.3-27.3-1.8c-2.7,1.5-5.4,4.1-11.1,25.8c-3.8,14.8-4,19.2-9.5,22.4c-5.8,3.5-13.6,3.2-19.4,3.1
				c-8.9-0.3-11.2-2.3-21.7-4c-12.6-2-15.1,0-25.3-1.2c-10.2-1.3-11.1-3.7-29.2-10.5c-26.9-10-30.1-6.6-43.9-14.4
				c-3.3-1.9-10.1-6-20.5-10.5c-6.3-2.7-10.1-3.8-11.9-4.3c-3.2-0.9-10.2-2.8-19.4-3.4c-11.4-0.7-14,1.5-17.4-0.6
				c-5.1-3.1-0.7-8.8-6.3-13.5c-4.1-3.5-11-4.2-15.8-3.7c-5.1,0.6-5.9,2.5-17,8c-8,4-11.9,5.9-15.8,6.5c-7.3,1-10.5-1.3-16.6,0.9
				c-4.5,1.6-3.9,3.2-7.9,4.3c-4.7,1.3-7.2-0.4-16.6-1.5c-10-1.2-9.9,0.4-13-0.9c-7.1-2.9-4.6-9.5-12.6-16.6
				c-5.4-4.8-7.8-2.9-11.5-6.5c-9.5-9.3,6.4-22.1-1.6-38.1c-3.2-6.5-9.1-10.8-12.6-13.5c-12-9-20.5-7.8-25.7-15.4
				c-3.5-5.2-4.3-12.8-0.4-18.4c5.1-7.3,15.2-6.9,17.4-13.8c1.6-5.1-3-8.2-0.4-10.8c3.8-3.7,16.8-0.2,18.6,0.3
				c14.3,4,18.3,11.6,24.1,10.1c5.5-1.4,6.3-9.5,6.3-9.8c0.5-5.8-3.4-8.7-8.7-16.9c-2.5-3.8-8.1-12.6-9.9-23.1
				c-1.1-6.6-2.5-14.6,3.2-18.4c5.8-4,13,0.5,19.8-3.4c6.1-3.5,2.6-8.4,7.9-20c4.9-10.7,13.3-18,16.6-20.9c7.8-6.8,9.5-5.4,12.6-9.5
				c3.1-4.1,4.1-9,0-30.4c-3.3-17.1-5.1-20.2-2-23.1c3-2.7,7.3-2.4,34-1.5c22.8,0.7,30.3,0.8,36.7-3.4c5.8-3.8,7.6-9,7.9-9.8
				c3.4-10.2-7.1-15.5-3.6-23.7c2.4-5.5,10.5-10.5,17-9.8c8.2,0.9,8,10.2,21.3,17.2c7.4,3.9,17,6,19,4c3.2-3.2-15.6-15.1-11.5-20.9
				c3.1-4.3,17.2-2.4,18.6-2.2c17.8,2.6,20.3,12.2,34.8,17.5c22.5,8.3,51-2.2,62.4-6.5c24.8-9.2,25.2-18.3,38.3-18.1
				C759.2,20.6,778,56.8,788.9,53.1z"/>
			<path class="st8" d="M192.6,197.9c-3,0.5-1.2,7-7.5,16.4c-3.4,5-4.9,4.6-7,8.4c-4,7-0.5,11.8,0.5,22.2c1,10.8-1.2,24.1-5.6,24.7
				c-3.8,0.5-8.7-10.5-9.8-10.2c-1.4,0.4,10.2,14.7,4.7,27.6c-3.9,9.2-14.7,13.6-12.6,16.4c2,2.6,11.2-1.6,20.6,2.5
				c3.1,1.4,5.1,3.4,8.9,7.3c5.7,5.9,7.6,9.6,11.7,15.3c2.8,3.8,2.2,2.5,14,16c7.7,8.8,11.6,13.3,15,17.8c7.3,10,11,15,10.3,19.6
				c-1.4,9.2-13.4,14.9-19.6,17.8c-6.1,2.9-12.7,6-20.1,4.7c-5.8-1-7.5-4-13.6-4c-6.4,0-9,3.4-11.7,2.2c-3.4-1.6,0.7-7.3-3.3-13.8
				c-0.2-0.4-4.2-6.6-11.7-7.6c-6.9-0.9-12.8,3.2-15,4.7c-10.3,7.2-9,16.1-14,38.2c-4.9,21.9-10.1,30.6-5.1,33.1
				c4,2,12.5-1.2,17.3-5.1c8.3-6.7,3.4-13.4,11.7-22.2c1-1,9.2-9.7,17.8-8.4c7.4,1.1,13.2,9.4,11.7,16c-1.9,8.3-14.2,8.3-18.7,18.5
				c-0.4,0.9-3.9,9.3,1.9,16c4.8,5.6,13.3,6.7,20.1,7.6c6.5,0.9,17.3,2.3,22.4-2.2c3.1-2.7,1.2-5,4.7-16.4c1.6-5.1,2.8-9,4.7-9.1
				c2.2-0.1,4.7,5.1,5.6,9.5c1.4,7-1.8,9.8,0.9,12.4c3,2.8,10,2.3,14.5,0.7c0.9-0.3,8.2-2.9,8.4-8c0.2-3.5-3.1-6.6-6.5-8
				c-5.6-2.2-10.4,0.6-12.6-1.5c-2.2-2,0-6.6,2.8-9.5c3.2-3.2,5.6-2.4,7.9-5.1c2-2.3,1.6-4.4,1.4-12.7c-0.1-5.7-0.2-8.5,0-9.5
				c1.1-6,6.5-9.2,16.4-16.4c11.6-8.5,3.5-3.7,24.8-19.6c12.6-9.4,18.8-14.1,21.5-15.3c11.2-4.8,18.4-3.1,43-4
				c24.4-0.9,36.6-1.3,47.7-4.7c23-7,20.2-16.9,40.2-22.5c29.1-8.3,60.7,5.3,63.6,6.5c22.1,9.8,21.5,20.4,41.1,24.4
				c17.3,3.5,22-3.9,39.7-0.7c26.5,4.8,39.5,25.7,42.5,24c2.7-1.5-9.3-18-12.6-22.5c-11-15.1-16.8-19.6-26.6-32.7
				c-9.4-12.6-14.2-18.9-16.4-25.8c-7.5-23.7,9.3-38.3-1.4-46.5c-5.3-4.1-13.9-3.9-28-3.6c-16.8,0.3-19.8,4.1-31.3,2.5
				c-9.9-1.3-23.9-6.3-25.2-13.4c-1.2-6.9,10.4-10.5,10.3-21.4c0-2.7-0.1-6.8-3.3-8.4c-2.3-1.1-6.6-1.1-34.1,10.9
				c-7.9,3.5-11.7,5.3-15,4c-4.1-1.6-2.9-6.2-9.3-12.4c-2.8-2.7-4.6-4.4-7.5-4.7c-6.1-0.7-8.5,6-18.2,10.2c-7.9,3.4-16,3-25.7,2.5
				c-15.3-0.7-14.9-4.1-24.3-4c-17.4,0.2-21.9,11.8-50,17.8c-7.6,1.6-12.4,1.9-16.4,0c-7.3-3.5-1.4-12.4-7.5-16.7
				c-9.1-6.5-29.7,7-40.7,0.4c-7.9-4.8-4.6-16.4-10.8-17.4c-3.9-0.6-5.7,4-10.8,4C203.4,214.7,197.6,197,192.6,197.9z"/>
			<ellipse class="st9" cx="212.2" cy="232.1" rx="15.9" ry="12.3"/>
			<ellipse class="st10" cx="497" cy="124.8" rx="15.9" ry="12.3"/>
			<ellipse class="st10" cx="859.1" cy="237.5" rx="15.9" ry="12.3"/>
			<ellipse class="st11" cx="754.9" cy="101.7" rx="15.9" ry="12.3"/>
			<ellipse class="st12" cx="150.7" cy="137.2" rx="15.9" ry="12.3"/>
			<ellipse class="st10" cx="253.2" cy="272.2" rx="8.9" ry="6.9"/>
			<ellipse class="st10" cx="298.9" cy="240.9" rx="8.9" ry="6.9"/>
			<ellipse class="st10" cx="334.1" cy="287.6" rx="8.4" ry="6.2"/>
			<ellipse class="st7" cx="448.7" cy="279.1" rx="16.9" ry="10"/>
			<ellipse class="st10" cx="515.1" cy="368.2" rx="6" ry="5.8"/>
			<ellipse class="st10" cx="260.2" cy="488.6" rx="6" ry="5.8"/>
			<ellipse class="st10" cx="647.1" cy="478.6" rx="6" ry="5.8"/>
			<ellipse class="st10" cx="905" cy="328.9" rx="6" ry="5.8"/>
			<ellipse class="st10" cx="904" cy="219.3" rx="6" ry="5.8"/>
			<ellipse class="st10" cx="553.8" cy="324.3" rx="7.9" ry="5.8"/>
			<ellipse class="st10" cx="553.8" cy="274.1" rx="5" ry="5"/>
			<ellipse class="st10" cx="636.7" cy="250.2" rx="7.4" ry="5"/>
			<ellipse class="st10" cx="678.8" cy="208.1" rx="6" ry="5.4"/>
			<ellipse class="st10" cx="460.6" cy="209.7" rx="6" ry="5.4"/>
			<ellipse class="st10" cx="554.3" cy="192.7" rx="5.5" ry="3.1"/>
			<ellipse class="st10" cx="614.3" cy="419.2" rx="6" ry="3.5"/>
			<ellipse class="st13" cx="716.5" cy="405.7" rx="13.2" ry="12.3"/>
			<ellipse class="st14" cx="339.1" cy="449.3" rx="14.4" ry="10.4"/>
			<ellipse class="st5" cx="146.1" cy="358.2" rx="12.9" ry="9.6"/>
			<ellipse class="st10" cx="70.7" cy="279.9" rx="13.9" ry="13.1"/>
		</g>
	</g>
</g>
<g id="globe">
	<g>
		<path class="st15" d="M699.7,131c37.6,44.6,60.3,102.2,60.3,165c0,141.4-114.6,256-256,256S248,437.4,248,296"/>
		<path class="st15" d="M314.2,124.2C361.1,72.5,428.7,40,504,40c39,0,75.9,8.7,109,24.3"/>
	</g>
	<g>
		<path class="st16" d="M267,258c1.5,13.1-0.3,27,25,42.7c8.9,5.5,16.2,6.3,28,8c10.1,1.5,68.3,10,72.7,30c3.3,15-25,30.4-19.3,49.3
			c0.7,2.2,2.1,5.5,3.3,8c6.2,12.5,11.7,13.6,14,20.7c3,9.2-4.5,13.3-3.3,22.7c1.5,12,15.4,14.9,24,24c8.3,8.8,27,34.3,2.3,70.7"/>
		<path class="st16" d="M336.7,105c9.5,4.7,25,3.3,26.7,23c0.6,6.8-4,9.4-4,17.3c-0.1,12.4,10.9,23.1,19.3,28
			c11.8,7,30.8,9.9,41.3,0.7c18.2-15.9-0.9-56.9-2.7-60.7c-9.7-20.8-27.7-35-36-40.7"/>
		<path class="st16" d="M400,65c13.6-2.6,33.8-1.9,42,7.7c2.4,2.8,3.1,5.4,4,8c7.6,22.4,19.6,25.8,30,48c5,10.6,13.3,28.6,6,38.7
			c-6.2,8.5-18.5,4.5-24,14c-4.6,7.9,1.8,14.3-1.3,23.3c-4,11.6-19.2,14.1-32.7,19.3c-39.9,15.6-64.1,55.8-59.3,62.7
			c2.3,3.2,9.8-2.7,20,1.3c11.7,4.6,14.7,17.4,20.7,28c6.1,10.7,18.2,24.4,45.3,34.7"/>
		<path class="st16" d="M652,152c-2.7,16.1-7.7,36.4-22.3,41.5c-2.8,1-8.3,3-8.4,2.5c-0.4-1.1,24.7-5.3,45.3-14
			c9-3.8,22.1-7.3,38.7,7.3c8,7,26.4,2.2,32,3"/>
		<path class="st16" d="M754.7,250.7c-23.1-2.8-45.7-12.8-55.7-19.2c-8.4-5.4-11.2-9-18-10c-20.4-2.9-39.1,22.8-43,28.5
			c-15.7,22.8-23.9,58.9-9.5,71c8.2,6.9,23.4,5.8,27,5.5c14-1,21.2-7.4,26-3.5c3.5,2.8,2.2,8.2,2.5,18c0.4,12.4,3.4,21.5,5.5,29.5
			c3.4,12.5,6.7,17.5,9,24c3.9,11.1,14.8,36.2-23.5,88.5"/>
		<path class="st16" d="M543,391.5c1.8,1.6,8.5,7.7,9.5,17.5c1,10.6-5.3,18.4-7,20.5c-4.3,5.3-6.2,4-8.5,8c-4,7.1,1,12.9,1,26.5
			c0,6.8,0,12.8-3,18c-6.5,11.1-21.3,8.6-36.5,15c-9.7,4.1-35.2,12-35.2,50.7"/>
		<path class="st16" d="M476,41c0.7,9.1,2.7,29.1,8.5,44.5c4.6,12.2,8.7,22.9,19,33c5.4,5.2,21.1,18.7,40.5,17
			c4.1-0.4,13.8-1.2,18.5-8c3.1-4.4,1.1-7.2,4.5-12.5c5.1-7.9,12.6-6.4,14.5-12c2.2-6.5-7.1-11-7-19.5c0.1-4.6,11.4-15,25.5-23.2"/>
	</g>
</g>
<g id="pins">
	<g>
		<circle class="st17" cx="673" cy="54.7" r="18.2"/>
		<path class="st18" d="M705.2,82.1c6.3-7.4,10.1-17,10.1-27.5c0-23.4-19-42.3-42.3-42.3s-42.3,19-42.3,42.3
			c0,10.7,4,20.5,10.5,27.9l30.8,50.1L705.2,82.1z"/>
	</g>
	<g>
		<circle class="st17" cx="503" cy="325.7" r="18.2"/>
		<path class="st18" d="M535.2,353.1c6.3-7.4,10.1-17,10.1-27.5c0-23.4-19-42.3-42.3-42.3s-42.3,19-42.3,42.3
			c0,10.7,4,20.5,10.5,27.9l30.8,50.1L535.2,353.1z"/>
	</g>
	<g>
		<circle class="st17" cx="268" cy="156.7" r="18.2"/>
		<path class="st18" d="M300.2,184.1c6.3-7.4,10.1-17,10.1-27.5c0-23.4-19-42.3-42.3-42.3s-42.3,19-42.3,42.3
			c0,10.7,4,20.5,10.5,27.9l30.8,50.1L300.2,184.1z"/>
	</g>
</g>
</svg>
