<?xml version="1.0" encoding="utf-8"?>
<!-- Generator: Adobe Illustrator 21.1.0, SVG Export Plug-In . SVG Version: 6.00 Build 0)  -->
<svg version="1.1" id="Layer_1" xmlns="http://www.w3.org/2000/svg" xmlns:xlink="http://www.w3.org/1999/xlink" x="0px" y="0px"
	 width="991.2px" height="570px" viewBox="0 0 991.2 570" style="enable-background:new 0 0 991.2 570;" xml:space="preserve">
<style type="text/css">
	.st0{opacity:0.6;}
	.st1{opacity:0.5;fill:#EFF7FE;enable-background:new    ;}
	.st2{opacity:0.15;fill:#DFE6EA;enable-background:new    ;}
	.st3{opacity:0.45;fill:#E1F5FB;enable-background:new    ;}
	.st4{opacity:0.3;fill:#D1F0EF;enable-background:new    ;}
	.st5{opacity:0.5;fill:#D1F0EF;enable-background:new    ;}
	.st6{opacity:0.5;fill:#DCE8EF;enable-background:new    ;}
	.st7{opacity:0.2;fill:#FCC8CE;enable-background:new    ;}
	.st8{opacity:0.6;fill:#D5F1F1;enable-background:new    ;}
	.st9{opacity:0.6;fill:#BBE9F9;enable-background:new    ;}
	.st10{fill:#F1FAFA;}
	.st11{opacity:0.2;fill:#FCB9C6;enable-background:new    ;}
	.st12{fill:#FCFDFF;}
	.st13{opacity:0.1;fill:#1DD4FF;enable-background:new    ;}
	.st14{opacity:0.2;fill:#A2EAE0;enable-background:new    ;}
	.st15{fill:none;stroke:#C0D6DD;stroke-width:0.5;stroke-linecap:round;stroke-linejoin:round;}
	.st16{fill:none;stroke:#347EC0;stroke-width:0.5;stroke-linecap:round;stroke-linejoin:round;}
	
		.st17{opacity:0.5;fill:none;stroke:#C0D6DD;stroke-width:0.5;stroke-linecap:round;stroke-linejoin:round;enable-background:new    ;}
	.st18{fill:#E6F7F6;stroke:#24AAA3;stroke-width:1.5;stroke-miterlimit:10;}
	.st19{fill:#24AAA3;stroke:#24AAA3;stroke-width:0.5;stroke-miterlimit:10;}
	.st20{fill:#FFFFFF;stroke:#24AAA3;stroke-width:1.5;stroke-miterlimit:10;}
	.st21{fill:none;stroke:#24AAA3;stroke-linecap:round;stroke-linejoin:round;}
	.st22{opacity:0.3;fill:#D2D9E3;enable-background:new    ;}
	.st23{fill:none;}
	.st24{fill:none;stroke:#C0D6DD;stroke-width:1.5;stroke-linecap:round;stroke-linejoin:round;}
	.st25{opacity:0.56;fill:#D2D9E3;enable-background:new    ;}
	.st26{fill:#BBDEF4;stroke:#347EC0;stroke-width:1.5;stroke-miterlimit:10;}
	.st27{display:none;fill:#347EC0;}
	.st28{fill:#BBDEF4;}
	.st29{fill:#C7EAE4;stroke:#24AAA3;stroke-width:1.5;stroke-miterlimit:10;}
	.st30{fill:#E6F7F6;}
	.st31{fill:#FFFFFB;stroke:#24AAA3;stroke-width:0.5;stroke-linecap:round;stroke-linejoin:round;}
	.st32{opacity:0.17;fill:#4B4F54;enable-background:new    ;}
	.st33{fill:#BBDEF4;stroke:#347EC0;stroke-width:1.5;stroke-linecap:round;stroke-linejoin:round;}
	.st34{fill:none;stroke:#347EC0;stroke-width:2;stroke-linecap:round;stroke-linejoin:round;}
	.st35{fill:#24AAA3;}
	.st36{fill:#C0D6DD;}
	.st37{display:none;fill:#C0D6DD;}
	.st38{fill-rule:evenodd;clip-rule:evenodd;fill:#FFFFFF;}
</style>
<g id="Layer_1_1_">
	<g id="Layer_2">
		<g class="st0">
			<ellipse class="st1" cx="330.1" cy="304.2" rx="272.5" ry="212"/>
			<ellipse class="st2" cx="587.4" cy="186.5" rx="193.6" ry="150.6"/>
			<ellipse class="st3" cx="688.8" cy="314.8" rx="266.1" ry="207"/>
			<path class="st4" d="M313.9,372.3c4.1-2.7,13.6,0.2,25.6,3.8c8.6,2.6,12.9,5,21.7,5.5c4.6,0.3,11.5,0.7,13.7-2.1
				c4.3-5.3-12.3-19.4-11.9-19.6c0.5-0.3,18.6,21.4,27.4,18.9c2.2-0.6,3.6-3,6.6-7.9c4-6.6,3-8.2,5.7-10.3c4.7-3.6,9.5-0.4,17.7-3.1
				s7.2-7.2,16.4-12.4c6-3.4,11.5-4.3,20.3-5.8c18-3.1,20.7,0.7,29.6-2.8c10-3.8,7.6-8.9,20.3-16.2c7-4,13.2-5.6,23.4-8.3
				c10.3-2.7,17.8-3.6,30.9-5.2c26.7-3.2,33.2-1.5,36.7-0.3c6.1,2.1,6,3.7,11.9,6.2c13.6,5.8,25.1,2.1,40.7,1.7
				c21.9-0.5,38.9,6,57.5,13.1c9.7,3.7,4.9,2.8,35.4,16.9c20.3,9.4,24.2,10.6,31.8,15.8c8.6,5.9,17.9,12.3,23.4,23
				c3.4,6.6,2.9,10.2,8.8,20.6c4.8,8.3,7.9,11,10.6,12.7c5.5,3.5,8.6,2.8,11.9,6.2c4.9,5,4.8,13.5,0.4,15.5c-2.8,1.3-7-0.3-8.8-1
				c-5.7-2.2-5.2-4.9-10.6-7.9c-1-0.5-8.1-4.4-15.9-2.8c-0.9,0.2-7.8,1.6-8.4,4.5c-1.4,6.8,35.5,9.8,42,26.5
				c2.4,6.2,0.4,13.8-4,18.9c-7.8,9-21.1,7.9-25.2,16.2c-3,6.1,1.2,12.5,2.2,14.1c8.6,13.1,36.3,20,54.8,13.8
				c11.2-3.8,22.1-13.5,33.6-23.7c5.1-4.6,8.4-7.9,14.1-8.6c9.3-1.1,20.8,5.4,23.4,12.7c4.3,12.1-15.9,26.6-30.5,33.4
				c-16.2,7.5-36.1,7.8-75.1,7.9c-32.1,0.1-48.4,0.1-59.7-6.2c-12.7-7.1-24.7-20.9-30.1-27.2c-9.1-10.6-12.4-17.3-21.7-18.9
				c-9.7-1.7-20.3,3.1-22.5,4.1c-6.7,3.1-6.1,4.8-11.9,7.9c-14.6,7.7-30,2.8-32.3,7.6c-1.4,3,3.5,7.3,8.4,11.7
				c6.5,5.8,10.2,6.1,10.6,8.9c0.7,4.8-8.9,11.9-18.6,12c-12.1,0.2-14.6-10.5-29.2-13.1c-2.9-0.5-8.7-1.1-30.9,6.2
				c-30,9.8-28.8,14-43.8,16.5c-16.7,2.8-31.6,0-46.4-2.8c-20.1-3.8-20.3-7.2-35.4-8.6c-20.8-1.9-23.1,4.4-42,2.8
				c-12.9-1.1-24.2-6-46.9-15.8c-18.7-8.1-20.1-10.1-28.3-13.4c-26.2-10.4-44.1-2.3-86.6-1.7c-31.2,0.4-77.4,1-92.8-18.9
				c-7.8-10.1-7.9-25.7,1.8-34.4c10.9-9.8,27.1-4.5,80.9-8.3c43.9-3,55.5-8.1,62.8-14.8c9.9-9.1,11.4-20.8,11.9-24.4
				C322.5,390.4,307.2,376.6,313.9,372.3z"/>
			<path class="st5" d="M351.1,459.4c4.1,2.7,13.6-0.2,25.6-3.8c8.6-2.6,12.9-5,21.6-5.5c4.6-0.3,11.5-0.7,13.7,2
				c4.3,5.3-12.3,19.4-11.9,19.6c0.5,0.3,18.6-21.4,27.4-18.9c2.2,0.6,3.7,3,6.6,7.9c4,6.6,3,8.2,5.8,10.3c4.7,3.5,9.5,0.4,17.7,3.1
				s7.2,7.2,16.4,12.4c6,3.3,11.5,4.3,20.3,5.8c18,3.1,20.7-0.7,29.6,2.7c10,3.8,7.6,8.9,20.4,16.1c7,4,13.2,5.6,23.4,8.2
				c10.3,2.7,17.8,3.6,31,5.1c26.7,3.2,33.2,1.5,36.7,0.3c6.1-2.1,6-3.7,11.9-6.2c13.6-5.8,25.1-2.1,40.7-1.8
				c21.9,0.5,38.9-6,57.4-13.1c9.7-3.7,4.9-2.8,35.3-16.9c20.3-9.4,24.2-10.6,31.8-15.9c8.6-5.9,17.9-12.4,23.4-23.1
				c3.4-6.7,2.9-10.2,8.8-20.6c4.7-8.4,7.9-11,10.6-12.7c5.5-3.5,8.6-2.8,11.9-6.2c4.9-5,4.8-13.5,0.4-15.5c-2.8-1.3-7,0.3-8.8,1
				c-5.7,2.2-5.2,4.9-10.6,7.9c-1,0.6-8.1,4.4-15.9,2.8c-0.9-0.2-7.8-1.6-8.4-4.5c-1.4-6.8,35.4-9.9,41.9-26.5
				c2.4-6.2,0.4-13.8-4-18.9c-7.8-9-21.1-7.8-25.2-16.1c-3-6.1,1.2-12.5,2.2-14.1c8.5-13.2,36.3-20.1,54.8-13.8
				c11.2,3.8,22.2,13.5,33.6,23.7c5.2,4.6,8.4,7.9,14.2,8.6c9.3,1,20.8-5.4,23.4-12.8c4.2-12.1-15.9-26.6-30.6-33.3
				c-16.3-7.5-36.1-7.7-75.2-7.8c-32.1-0.1-48.4,0-59.7,6.3c-12.7,7.1-24.6,20.9-30,27.2c-9.1,10.6-12.4,17.3-21.6,18.9
				c-9.7,1.7-20.3-3.1-22.6-4.1c-6.7-3-6.1-4.8-12-7.9c-14.6-7.7-30-2.8-32.3-7.5c-1.4-3,3.5-7.3,8.4-11.7c6.5-5.8,10.2-6.1,10.6-9
				c0.7-4.8-8.9-11.9-18.6-12c-12.1-0.2-14.6,10.5-29.1,13.1c-2.9,0.5-8.6,1.1-31-6.1c-30-9.8-28.9-13.9-43.8-16.4
				c-16.7-2.8-31.6,0-46.4,2.8c-20.1,3.8-20.3,7.2-35.3,8.6c-20.8,2-23.1-4.3-42-2.7c-12.9,1.1-24.2,6-46.8,15.9
				c-18.7,8.1-20,10.2-28.3,13.4c-26.2,10.4-44.1,2.3-86.6,1.8c-31.2-0.4-77.4-0.9-92.8,19c-7.8,10.1-7.8,25.7,1.8,34.4
				c10.9,9.8,27.1,4.5,80.9,8.1c43.9,3,55.5,8,62.8,14.7c9.9,9.1,11.5,20.8,12,24.4C359.6,441.3,344.4,455.1,351.1,459.4z"/>
			<path class="st6" d="M144.1,110.3c-3.5-1.2-2.9-6.7-8.4-8c-4.3-1.1-8,1.4-9.7,0c-1.9-1.6,2.5-5.2,0.3-8.3c-1.5-2.1-5-2.7-6.6-2.9
				c-6-1-9.1,1.8-11.2,0.5c-2.7-1.6,1.5-6.1-1.6-10.7c-1.5-2.2-4.6-4.4-8.4-4.6c-4.3-0.2-8,2.2-9.7,4.6c-2.5,3.4,0.4,5.2-1.6,10.2
				c-1.6,4-3.9,4.2-5.6,8c-1.8,4.1-0.8,7.5-0.3,10.2c2.3,12.2-1.9,26.4-5.6,26.7c-2.3,0.2-5.2-4.7-6.6-7c-2.6-4.4-2.7-7.4-4.4-7.5
				c-1.8-0.2-3.8,2.9-4.7,4.6c-2.2,4.5-2,11.2,3.1,14.8c3.8,2.7,7.4,1.4,8.4,3.4c1.7,3.2-7.4,6.8-10.6,16.3c-1.1,3.2-1.4,6.6,0,7
				c2.1,0.7,6.2-5.6,10-4.9c2.3,0.5,1.6,3,4.7,4.9c4,2.5,8.1,0.1,12.2,1.9c3.8,1.7,3,4.9,5.9,11.4c1.7,3.7,4.5,7.3,10.3,14.6
				c7.7,9.7,8.7,8.8,10.9,13.4c3.2,6.4,1.8,9.2,5.9,12.4c4.3,3.3,8.2,2.2,10.6,5.3c2.7,3.4,0.9,8.3-1.2,11.2c-2.6,3.5-8,5.4-18.7,9
				c-11.9,4-16,4.1-17.8,4.1c-3.4,0-9,0-13.1-2.9c-3.1-2.2-2.4-3.9-5.9-10.7c-3.2-6.1-4.7-9.1-8.1-10.9c-4.8-2.6-12.4-2.5-17.8-0.2
				c-8.4,3.5-9.9,12.1-12.8,29.2c-1.5,8.7-0.7,10.3,0.6,11.2c2.8,2,7.9,0.8,32.2-2.9c4.8-0.7,7.7-1.1,10.9,0
				c6.7,2.4,8.7,9.5,9.4,11.7c1.1,3.9,0.2,5,0.6,12.1c0.3,5.5,0.5,8.5,1.6,11.2c3.1,8.2,11.5,7.9,24,18.7c5.6,4.8,11,9.5,13.1,16.8
				c2.3,7.9-0.2,15.5-1.6,18.7c-3.5,8.4-8.2,9.9-6.9,13.6c2.4,6.5,20.6,10.1,25.9,5.8c2.6-2.1,0.3-4.7,3.1-7.5
				c4-4.1,15.2-5,21.6-1.5c2.2,1.2,4.3,3.2,8.7,20.4c3,11.7,3.2,15.2,7.5,17.7c4.6,2.7,10.7,2.6,15.3,2.4c7.1-0.2,8.9-1.8,17.2-3.2
				c9.9-1.6,11.9,0,20-1c8-1,8.8-2.9,23.1-8.3c21.3-7.9,23.8-5.2,34.7-11.4c2.6-1.5,8-4.8,16.2-8.3c5-2.1,8-3,9.4-3.4
				c2.5-0.7,8-2.2,15.3-2.7c9-0.5,11,1.2,13.7-0.5c4-2.5,0.6-7,5-10.7c3.3-2.8,8.7-3.4,12.5-2.9c4,0.5,4.6,1.9,13.4,6.3
				c6.3,3.1,9.4,4.7,12.5,5.1c5.8,0.8,8.3-1,13.1,0.7c3.6,1.3,3.1,2.5,6.2,3.4c3.7,1,5.7-0.3,13.1-1.2c7.9-0.9,7.8,0.3,10.3-0.7
				c5.6-2.3,3.7-7.5,10-13.1c4.3-3.8,6.2-2.3,9.1-5.1c7.5-7.3-5.1-17.5,1.2-30.1c2.6-5.1,7.2-8.6,10-10.7
				c9.5-7.1,16.2-6.2,20.3-12.1c2.8-4.1,3.4-10.1,0.3-14.6c-4-5.8-12-5.5-13.7-10.9c-1.3-4,2.4-6.5,0.3-8.5
				c-3-2.9-13.3-0.1-14.7,0.2c-11.3,3.1-14.5,9.2-19.1,8c-4.3-1.1-5-7.5-5-7.8c-0.4-4.6,2.6-6.9,6.9-13.4c1.9-3,6.4-9.9,7.8-18.2
				c0.9-5.2,2-11.5-2.5-14.6c-4.6-3.2-10.3,0.4-15.6-2.7c-4.8-2.8-2-6.7-6.2-15.8c-3.9-8.5-10.5-14.3-13.1-16.5
				c-6.2-5.4-7.5-4.2-10-7.5c-2.4-3.2-3.3-7.1,0-24.1c2.6-13.5,4.1-15.9,1.6-18.2c-2.4-2.2-5.8-1.9-26.9-1.2c-18,0.6-24,0.6-29-2.7
				c-4.6-3-6-7.1-6.2-7.8c-2.7-8,5.6-12.3,2.8-18.7c-1.9-4.4-8.3-8.3-13.4-7.8c-6.5,0.7-6.3,8.1-16.9,13.6c-5.9,3.1-13.4,4.7-15,3.2
				c-2.6-2.6,12.3-12,9.1-16.5c-2.4-3.4-13.6-1.9-14.7-1.7c-14.1,2.1-16.1,9.6-27.5,13.9c-17.8,6.6-40.3-1.8-49.4-5.1
				c-19.6-7.3-19.9-14.5-30.3-14.3C167.6,84.6,152.7,113.3,144.1,110.3z"/>
			<path class="st7" d="M787.7,64c4.3-1.5,3.6-8.2,10.4-9.8c5.3-1.3,9.8,1.7,11.9,0c2.3-2-3-6.4-0.4-10.1c1.8-2.6,6.2-3.3,8.1-3.6
				c7.3-1.2,11.1,2.2,13.8,0.6c3.3-2-1.9-7.5,1.9-13.1c1.8-2.7,5.7-5.5,10.4-5.7c5.2-0.2,9.8,2.7,11.9,5.7c3,4.2-0.5,6.4,1.9,12.5
				c1.9,4.9,4.8,5.1,6.9,9.8c2.2,5,1,9.2,0.4,12.5c-2.8,15,2.4,32.4,6.9,32.8c2.8,0.2,6.3-5.7,8.1-8.7c3.2-5.4,3.3-9,5.4-9.2
				c2.2-0.2,4.7,3.5,5.8,5.7c2.7,5.5,2.4,13.8-3.8,18.2c-4.7,3.3-9,1.7-10.4,4.2c-2.1,4,9,8.4,13,20c1.3,3.9,1.7,8.1,0,8.7
				c-2.5,0.9-7.7-6.9-12.3-6c-2.8,0.6-2,3.6-5.8,6c-4.9,3.1-9.9,0.1-15,2.4c-4.6,2.1-3.7,6-7.3,14c-2,4.5-5.6,9-12.7,17.9
				c-9.5,11.9-10.6,10.8-13.4,16.4c-3.9,7.9-2.2,11.3-7.3,15.2c-5.3,4.1-10,2.7-13,6.6c-3.3,4.2-1.1,10.2,1.5,13.7
				c3.2,4.3,9.8,6.6,23,11c14.6,4.9,19.6,5.1,21.9,5.1c4.2,0,11.1,0,16.1-3.6c3.8-2.7,3-4.8,7.3-13.1c3.9-7.5,5.8-11.2,10-13.4
				c5.9-3.2,15.3-3.1,21.9-0.3c10.3,4.3,12.1,14.8,15.7,35.8c1.8,10.7,0.8,12.6-0.8,13.7c-3.5,2.4-9.7,0.9-39.5-3.6
				c-5.9-0.9-9.5-1.4-13.4,0c-8.2,2.9-10.7,11.7-11.5,14.3c-1.4,4.8-0.2,6.1-0.8,14.9c-0.4,6.7-0.7,10.4-1.9,13.7
				c-3.8,10-14.1,9.7-29.5,23c-6.9,5.9-13.5,11.6-16.1,20.6c-2.8,9.7,0.3,19,1.9,23c4.3,10.3,10.1,12.2,8.4,16.7
				c-3,8-25.3,12.4-31.8,7.2c-3.2-2.6-0.4-5.8-3.8-9.2c-5-5-18.6-6.1-26.5-1.8c-2.7,1.5-5.3,3.9-10.7,25.1
				c-3.7,14.4-3.9,18.6-9.2,21.8c-5.6,3.4-13.2,3.1-18.8,3c-8.7-0.2-10.9-2.3-21.1-3.9c-12.2-1.9-14.6,0-24.5-1.2
				s-10.8-3.6-28.4-10.1c-26.1-9.7-29.2-6.4-42.6-14c-3.2-1.8-9.8-5.9-19.9-10.1c-6.1-2.6-9.8-3.7-11.5-4.2
				c-3.1-0.9-9.9-2.8-18.8-3.3c-11-0.6-13.5,1.5-16.9-0.6c-4.9-3.1-0.7-8.5-6.1-13.1c-4-3.4-10.7-4.1-15.3-3.6
				c-4.9,0.6-5.7,2.4-16.5,7.8c-7.7,3.8-11.6,5.8-15.3,6.3c-7.1,0.9-10.2-1.2-16.1,0.9c-4.4,1.6-3.8,3.1-7.7,4.2
				c-4.5,1.2-7-0.4-16.1-1.5c-9.7-1.2-9.6,0.4-12.7-0.9c-6.9-2.8-4.5-9.3-12.3-16.1c-5.2-4.6-7.6-2.8-11.1-6.3
				c-9.2-9,6.2-21.4-1.5-37c-3.1-6.3-8.8-10.5-12.3-13.1c-11.7-8.7-19.9-7.6-24.9-14.9c-3.4-5-4.2-12.4-0.4-17.9
				c5-7.1,14.8-6.7,16.9-13.4c1.5-4.9-2.9-8-0.4-10.4c3.7-3.6,16.3-0.2,18,0.3c13.8,3.8,17.8,11.3,23.4,9.8c5.3-1.4,6.1-9.2,6.1-9.5
				c0.5-5.6-3.3-8.4-8.4-16.4c-2.4-3.7-7.8-12.2-9.6-22.4c-1.1-6.4-2.4-14.1,3.1-17.9c5.7-3.9,12.6,0.5,19.2-3.3
				c5.9-3.4,2.5-8.2,7.7-19.4c4.8-10.4,12.9-17.5,16.1-20.3c7.6-6.6,9.2-5.2,12.3-9.2c3-4,4-8.7,0-29.5c-3.2-16.6-5-19.6-1.9-22.4
				c2.9-2.6,7.1-2.3,33-1.5c22.1,0.7,29.4,0.8,35.7-3.3c5.6-3.7,7.4-8.7,7.7-9.5c3.3-9.9-6.9-15-3.5-23c2.3-5.4,10.2-10.2,16.5-9.5
				c8,0.8,7.7,9.9,20.7,16.7c7.2,3.8,16.5,5.8,18.4,3.9c3.1-3.2-15.1-14.7-11.1-20.3c3-4.2,16.7-2.3,18-2.1
				c17.3,2.5,19.7,11.8,33.7,17c21.9,8.1,49.5-2.2,60.6-6.3c24.1-8.9,24.5-17.8,37.2-17.6C758.9,32.5,777.1,67.6,787.7,64z"/>
			<path class="st8" d="M209.1,204.5c-2.9,0.5-1.2,6.8-7.3,15.9c-3.3,4.9-4.8,4.5-6.8,8.1c-3.8,6.8-0.4,11.4,0.5,21.5
				c0.9,10.5-1.2,23.4-5.4,24c-3.7,0.5-8.4-10.2-9.5-9.9c-1.3,0.4,9.9,14.2,4.5,26.8c-3.8,8.9-14.3,13.2-12.2,15.9
				c1.9,2.5,10.9-1.5,20,2.5c3,1.3,4.9,3.3,8.6,7.1c5.6,5.7,7.4,9.3,11.3,14.8c2.7,3.7,2.2,2.5,13.6,15.5
				c7.5,8.5,11.3,12.9,14.5,17.3c7.1,9.7,10.7,14.5,10,19c-1.4,8.9-13,14.4-19,17.3c-5.9,2.8-12.4,5.9-19.5,4.6
				c-5.6-1-7.3-3.9-13.2-3.9c-6.2,0-8.8,3.3-11.3,2.1c-3.3-1.5,0.7-7.1-3.2-13.4c-0.2-0.4-4.1-6.5-11.3-7.4
				c-6.7-0.9-12.5,3.1-14.5,4.6c-10,7-8.8,15.6-13.6,37c-4.8,21.3-9.8,29.7-5,32.1c3.9,2,12.1-1.1,16.8-4.9
				c8.1-6.5,3.3-13,11.3-21.5c1-1,8.9-9.4,17.2-8.1c7.2,1.1,12.8,9.1,11.3,15.5c-1.8,8.1-13.8,8-18.1,18c-0.4,0.9-3.8,9,1.8,15.5
				c4.7,5.4,12.9,6.5,19.5,7.4c6.3,0.8,16.8,2.2,21.8-2.1c3-2.6,1.2-4.9,4.5-15.9c1.5-5,2.7-8.8,4.5-8.8c2.1-0.1,4.6,5,5.4,9.2
				c1.4,6.8-1.7,9.5,0.9,12c2.9,2.7,9.7,2.2,14.1,0.7c0.9-0.3,7.9-2.8,8.2-7.8c0.2-3.4-3-6.4-6.3-7.8c-5.4-2.2-10,0.6-12.2-1.4
				c-2.1-1.9,0-6.5,2.7-9.2c3.1-3.1,5.4-2.3,7.7-4.9c2-2.3,1.5-4.2,1.4-12.3c-0.1-5.5-0.2-8.3,0-9.2c1.1-5.9,6.3-8.9,15.9-15.9
				c11.3-8.2,3.4-3.6,24-19c12.2-9.1,18.3-13.7,20.9-14.8c10.9-4.6,17.8-3,41.7-3.9c23.7-0.9,35.5-1.3,46.3-4.6
				c22.3-6.8,19.6-16.4,39-21.9c28.2-8,58.9,5.1,61.7,6.4c21.5,9.5,20.9,19.8,39.9,23.6c16.8,3.4,21.4-3.8,38.5-0.7
				c25.7,4.7,38.3,24.9,41.3,23.3c2.7-1.5-9-17.5-12.2-21.9c-10.7-14.6-16.3-19.1-25.8-31.8c-9.2-12.2-13.8-18.4-15.9-25
				c-7.3-23,9-37.2-1.4-45.2c-5.1-3.9-13.5-3.8-27.2-3.5c-16.3,0.3-19.2,4-30.4,2.5c-9.6-1.3-23.2-6.1-24.5-13.1
				c-1.2-6.7,10.1-10.2,10-20.8c0-2.6-0.1-6.6-3.2-8.1c-2.2-1.1-6.4-1.1-33.1,10.6c-7.7,3.4-11.3,5.1-14.5,3.9c-4-1.5-2.8-6-9.1-12
				c-2.7-2.6-4.5-4.3-7.3-4.6c-5.9-0.7-8.3,5.8-17.7,9.9c-7.7,3.3-15.5,2.9-24.9,2.5c-14.8-0.7-14.5-4-23.6-3.9
				c-16.9,0.2-21.3,11.4-48.5,17.3c-7.4,1.6-12,1.8-15.9,0c-7.1-3.4-1.4-12.1-7.3-16.2c-8.8-6.3-28.8,6.8-39.5,0.4
				c-7.7-4.7-4.5-16-10.4-16.9c-3.8-0.6-5.6,3.8-10.4,3.9C219.5,220.8,213.9,203.6,209.1,204.5z"/>
			<ellipse class="st9" cx="228.1" cy="237.7" rx="15.4" ry="12"/>
			<ellipse class="st10" cx="504.4" cy="133.6" rx="15.4" ry="12"/>
			<ellipse class="st10" cx="855.7" cy="242.9" rx="15.4" ry="12"/>
			<ellipse class="st11" cx="754.6" cy="111.1" rx="15.4" ry="12"/>
			<ellipse class="st12" cx="168.4" cy="145.5" rx="15.4" ry="12"/>
			<ellipse class="st10" cx="267.9" cy="276.6" rx="8.7" ry="6.7"/>
			<ellipse class="st10" cx="312.2" cy="246.3" rx="8.7" ry="6.7"/>
			<ellipse class="st10" cx="346.3" cy="291.6" rx="8.2" ry="6"/>
			<ellipse class="st7" cx="457.5" cy="283.3" rx="16.4" ry="9.7"/>
			<ellipse class="st10" cx="522" cy="369.8" rx="5.8" ry="5.6"/>
			<ellipse class="st10" cx="274.6" cy="486.7" rx="5.8" ry="5.6"/>
			<ellipse class="st10" cx="650" cy="476.9" rx="5.8" ry="5.6"/>
			<ellipse class="st10" cx="900.3" cy="331.6" rx="5.8" ry="5.6"/>
			<ellipse class="st10" cx="899.4" cy="225.3" rx="5.8" ry="5.6"/>
			<ellipse class="st10" cx="559.6" cy="327.1" rx="7.7" ry="5.6"/>
			<ellipse class="st10" cx="559.6" cy="278.5" rx="4.8" ry="4.9"/>
			<ellipse class="st10" cx="639.9" cy="255.3" rx="7.2" ry="4.9"/>
			<ellipse class="st10" cx="680.8" cy="214.4" rx="5.8" ry="5.2"/>
			<ellipse class="st10" cx="469.1" cy="215.9" rx="5.8" ry="5.2"/>
			<ellipse class="st10" cx="560" cy="199.5" rx="5.3" ry="3"/>
			<ellipse class="st10" cx="618.3" cy="419.3" rx="5.8" ry="3.4"/>
			<ellipse class="st13" cx="717.4" cy="406.2" rx="12.8" ry="12"/>
			<ellipse class="st14" cx="351.2" cy="448.5" rx="14" ry="10.1"/>
			<ellipse class="st5" cx="163.9" cy="360.1" rx="12.5" ry="9.4"/>
			<ellipse class="st10" cx="90.8" cy="284.1" rx="13.5" ry="12.7"/>
		</g>
	</g>
</g>
<g id="Layer_2_1_">
	<g id="Layer_2_2_">
		<g id="Layer_1-2">
			<g id="contact">
				<path class="st15" d="M570.9,77.1c16.3,0,29.6-13.2,29.6-29.6S587.2,18,570.9,18s-29.6,13.2-29.6,29.6l0,0
					C541.4,63.9,554.6,77.1,570.9,77.1z"/>
				<line class="st16" x1="558.7" y1="47.5" x2="583.1" y2="47.5"/>
				<line class="st16" x1="570.9" y1="59.7" x2="570.9" y2="35.4"/>
				<path class="st15" d="M318,344.7c16.3,0,29.6-13.2,29.6-29.6c0-16.3-13.2-29.6-29.6-29.6c-16.3,0-29.6,13.2-29.6,29.6l0,0
					C288.4,331.4,301.7,344.7,318,344.7z"/>
				<line class="st16" x1="305.8" y1="315.1" x2="330.2" y2="315.1"/>
				<line class="st16" x1="318" y1="327.3" x2="318" y2="302.9"/>
				<path class="st15" d="M717.3,559c16.3,0,29.6-13.2,29.6-29.6c0-16.3-13.2-29.6-29.6-29.6c-16.3,0-29.6,13.2-29.6,29.6l0,0
					C687.8,545.7,701,559,717.3,559z"/>
				<line class="st16" x1="705.2" y1="529.4" x2="729.5" y2="529.4"/>
				<line class="st16" x1="717.3" y1="541.6" x2="717.3" y2="517.2"/>
				<circle class="st15" cx="644" cy="250.2" r="8"/>
				<circle class="st17" cx="697.3" cy="304.8" r="12.8"/>
				<circle class="st17" cx="178.1" cy="346.1" r="8"/>
				<circle class="st17" cx="204.7" cy="440.6" r="12.8"/>
				<circle class="st15" cx="390.2" cy="62.2" r="12.8"/>
				<path class="st18" d="M488.2,355.5L488.2,355.5c21,0,41.1,9,55.1,24.7l99.9,112c7.6,8.6,6.9,21.7-1.7,29.4
					c-3.8,3.4-8.7,5.3-13.8,5.3H340.8c-11.5,0-20.8-9.3-20.8-20.8c0-5.4,2.1-10.6,5.8-14.5c32.8-34,81.4-84.3,109.1-113.3
					C448.8,363.8,468.1,355.5,488.2,355.5z"/>
				<path class="st19" d="M468.7,369.5c0.4,8.2,20.3,29.7,20.3,29.7s14.6-24.4,14.9-31.3c0.5-3.7-1.9-7.2-5.5-8.2h-23.9
					C470.6,361.5,468.4,365.4,468.7,369.5z"/>
				<path class="st20" d="M472.3,341.8V369c0,7.9,6.4,14.3,14.3,14.3l0,0l0,0c7.9,0,14.3-6.4,14.3-14.3l0,0v-27.6L472.3,341.8z"/>
				<path class="st20" d="M421,158.9h106.7c16.8,0,30.5,13.6,30.5,30.5l0,0v93.4c0,33.5-27.2,60.7-60.7,60.7h-21.6
					c-33.5,0-60.7-27.2-60.7-60.7v-118C415.1,161.5,417.7,158.9,421,158.9z"/>
				<path class="st18" d="M563.1,149.2c2.2,2.5,3.8,5.5,4.6,8.7c4.1,14.4-10.3,87.1-10.3,87.1s0-70.2-5.4-74
					C557.1,164.8,563.1,149.2,563.1,149.2z"/>
				<path class="st18" d="M417.1,165.2l-1.2,65c-9.9-21-13.8-44.3-11.4-67.4C405.4,161.1,417.1,165.2,417.1,165.2z"/>
				<path class="st18" d="M404.6,162.9c9.4-40.7,50.1-43.3,50.1-43.3h112.8c0,0,3.1,72.6-63.7,72.6S429.1,160.8,404.6,162.9z"/>
				<path class="st21" d="M473.1,249.4v15.8c0,5.8,3.6,10.5,8,10.5h12.1c4.4,0,8-4.7,8-10.5v-15"/>
				<path class="st21" d="M428.9,212.2c0,0,13.7-11,34.1,0"/>
				<path class="st21" d="M510.7,212.2c0,0,13.7-11,34.1,0"/>
				<path class="st21" d="M536.6,235.4c0,0-8.2-12.6-19.2,0.3"/>
				<path class="st21" d="M455.9,235.4c0,0-8.2-12.6-19.2,0.3"/>
				<path class="st20" d="M558.1,239.2c0,0,18-0.8,18,20.4s-18.2,20.2-18.2,20.2"/>
				<path class="st22" d="M558.4,270.9c2.3,0,4.4-0.9,6.1-2.3c2-2.5,3-5.7,2.7-9c0.3-3.3-0.7-6.6-2.7-9.1c-1.7-1.5-3.9-2.3-6.2-2.4
					l0,0"/>
				<path class="st20" d="M414.8,280.3c0,0-16.1,0.8-16.1-20.4s16.1-20.8,16.1-20.8"/>
				<path class="st22" d="M414.5,248.1c-2.5,0.1-7,1.7-7,11.9c-0.3,3.5,0.7,7,2.8,9.8c1.1,1,2.5,1.6,3.9,1.7l0,0"/>
				<path class="st21" d="M467.2,296.4c0,0-1.6,8.2,18,8.2s17.6-8.2,17.6-8.2"/>
				<line class="st21" x1="491" y1="313.2" x2="479.1" y2="313.2"/>
				<path class="st23" d="M500.9,369.1c-0.8,5.9-5.5,10-15.3,9.7c-5.9-0.3-11.1-3.9-13.5-9.2"/>
				<path class="st24" d="M823.7,481.6c54.8,0,99.2-44.4,99.2-99.2s-44.4-99.2-99.2-99.2s-99.2,44.4-99.2,99.2l0,0
					C724.6,437.1,768.9,481.5,823.7,481.6z"/>
				<path class="st24" d="M197,300.3c67.4,0,122-54.6,122-122s-54.6-122-122-122s-122,54.6-122,122l0,0
					C75.2,245.6,129.8,300.2,197,300.3z"/>
				<circle class="st25" cx="445.6" cy="254.6" r="8.6"/>
				<circle class="st25" cx="529.4" cy="254.6" r="8.6"/>
				<path class="st20" d="M339.1,525.5c-9.5,0-17.2-7.7-17.2-17.3c0-8,5.5-15,13.3-16.8L445.1,466h93.4l96.1,23.6
					c9.3,2.2,14.9,11.6,12.7,20.8c-2.2,9.3-11.6,14.9-20.8,12.7h-0.1l-92.1-22.6H449l-106,24.6C341.8,525.4,340.5,525.5,339.1,525.5
					z"/>
				<path class="st26" d="M390.8,388.8h190.8c8,0,14.5,6.5,14.5,14.5v108.9c0,8-6.5,14.5-14.5,14.5H390.8c-8,0-14.5-6.5-14.5-14.5
					V403.3C376.4,395.3,382.8,388.8,390.8,388.8z"/>
				<circle class="st27" cx="486.2" cy="457.8" r="13.7"/>
				<circle class="st28" cx="486.2" cy="457.8" r="5.8"/>
				<g>
					<polygon class="st29" points="877.2,419.9 876,419.9 770.2,419.9 770.2,344.9 877.2,344.9 					"/>
					<g>
						<polygon class="st30" points="826,385.3 820.3,385.3 771.2,419 876.3,419 						"/>
						<polygon class="st31" points="877.2,344.9 823.1,388.3 770.2,344.9 						"/>
					</g>
					<polygon class="st32" points="877.2,344.9 823,389.8 770.2,344.9 823.1,388.3 					"/>
				</g>
				<g>
					<path class="st33" d="M217.1,108.3c28.9,0,52.4,23.5,52.4,52.4c0,19.6-11,37.5-28.3,46.6c3.2,3.4,6.7,6.5,10.6,9
						c-9.2,1.3-18.7,0-27.2-3.7l0,0c-28.7,4.2-55.2-15.6-59.5-44.3c-4.2-28.7,15.6-55.2,44.3-59.5
						C212,108.5,214.5,108.3,217.1,108.3L217.1,108.3z"/>
					<line class="st34" x1="186.5" y1="141.5" x2="245.9" y2="141.5"/>
					<line class="st34" x1="246.4" y1="161.1" x2="185.4" y2="161.1"/>
					<line class="st34" x1="217.5" y1="180" x2="188.6" y2="180"/>
					<path class="st18" d="M165.2,164.3c-22.4,0-40.6,18.2-40.6,40.6c0,15.2,8.5,29.2,22,36.1c-2.5,2.7-5.2,5-8.3,7
						c7.1,0.9,14.4,0,21-2.8l0,0c22.2,3.3,42.8-12,46.2-34.2c3.3-22.2-12-42.8-34.2-46.2C169.2,164.4,167.2,164.3,165.2,164.3
						L165.2,164.3z"/>
					<circle class="st35" cx="147.8" cy="205.3" r="7"/>
					<circle class="st35" cx="165.5" cy="205.3" r="7"/>
					<circle class="st35" cx="183.2" cy="205.3" r="7"/>
				</g>
				<path class="st36" d="M793.6,136.7c-33.6,0-61-27.3-61-61c0-9.3,2-18.2,6.1-26.5l2,1c-3.9,8-5.8,16.6-5.8,25.5
					c0,32.4,26.3,58.7,58.7,58.7s58.7-26.3,58.7-58.7S826,17,793.6,17c-15.4,0-30,6-41.1,16.8l-2.8,2.7h19.4c0.7,0,1.2,0.5,1.2,1.1
					s-0.5,1.1-1.1,1.1h-22.9V15.9c0-0.6,0.4-1,0.9-1.2l0.2-0.1h0.1c0.6,0,1.1,0.5,1.1,1.2v18.9l2.7-2.6
					c11.5-11.2,26.5-17.3,42.4-17.3c33.6,0,61,27.3,61,61S827.2,136.7,793.6,136.7z M793.6,128.6c-0.6,0-1.1-0.5-1.1-1.1
					s0.5-1.1,1.1-1.1s1.1,0.5,1.1,1.1C794.7,128.1,794.2,128.6,793.6,128.6z M819.4,121.7c-0.6,0-1.1-0.5-1.1-1.1s0.5-1.1,1.1-1.1
					s1.1,0.5,1.1,1.1S820,121.7,819.4,121.7z M767.7,121.7c-0.6,0-1.1-0.5-1.1-1.1s0.5-1.1,1.1-1.1s1.1,0.5,1.1,1.1
					S768.3,121.7,767.7,121.7z M838.4,102.7c-0.6,0-1.1-0.5-1.1-1.1s0.5-1.1,1.1-1.1s1.1,0.5,1.1,1.1S839,102.7,838.4,102.7z
					 M748.8,102.7c-0.6,0-1.1-0.5-1.1-1.1s0.5-1.1,1.1-1.1s1.1,0.5,1.1,1.1C749.9,102.2,749.4,102.7,748.8,102.7z M845.3,76.9
					c-0.6,0-1.1-0.5-1.1-1.1s0.5-1.1,1.1-1.1s1.1,0.5,1.1,1.1C846.4,76.4,845.9,76.9,845.3,76.9z M741.9,76.9
					c-0.6,0-1.1-0.5-1.1-1.1s0.5-1.1,1.1-1.1s1.1,0.5,1.1,1.1S742.5,76.9,741.9,76.9z M838.4,51c-0.6,0-1.1-0.5-1.1-1.1
					s0.5-1.1,1.1-1.1s1.1,0.5,1.1,1.1S839,51,838.4,51z M819.4,32.1c-0.6,0-1.1-0.5-1.1-1.1s0.5-1.1,1.1-1.1s1.1,0.5,1.1,1.1
					C820.5,31.6,820,32.1,819.4,32.1z M793.6,25.2c-0.6,0-1.1-0.5-1.1-1.1s0.5-1.1,1.1-1.1s1.1,0.5,1.1,1.1S794.2,25.2,793.6,25.2z"
					/>
				<path class="st37" d="M197.3,292.4c-40.3,0-77.1-20.3-98.4-54.4c-16.4-26.2-21.6-57.3-14.6-87.4c7-30.2,25.2-55.8,51.4-72.2
					c18.4-11.5,39.6-17.6,61.2-17.6c40.3,0,77.1,20.4,98.4,54.4c9.3,14.8,14.9,31.2,16.8,48.5l-3.7,0.3
					c-1.9-16.8-7.3-32.5-16.3-46.9c-20.6-33-56.2-52.7-95.1-52.7c-21,0-41.5,5.9-59.4,17.1c-25.4,15.9-43.1,40.7-49.9,69.9
					C81,180.6,86,210.6,101.9,236c20.6,33,56.2,52.7,95.1,52.7l0,0c21,0,41.5-5.9,59.4-17.1c25-15.6,42.6-40,49.5-68.7l1.9-7.9
					l-31.9,19.9c-0.4,0.2-0.7,0.3-1,0.3c-0.7,0-1.3-0.3-1.6-0.9c-0.3-0.4-0.3-0.9-0.2-1.4c0.1-0.5,0.4-0.9,0.8-1.1l36.8-23
					l22.9,36.7c0.5,0.8,0.4,1.8-0.2,2.4l-0.1,0.1c0,0-0.1,0.2-0.2,0.2c0,0-0.1,0-0.1,0.1c-0.3,0.2-0.6,0.2-0.9,0.2l0,0
					c-0.7,0-1.3-0.4-1.6-0.9l-19.4-31.1l-1.9,7.7c-7.3,29.5-25.3,54.6-50.9,70.6C240.1,286.3,218.9,292.4,197.3,292.4z M200.6,276.8
					c-0.6,0-1.2-0.3-1.6-0.9c-0.3-0.4-0.3-0.9-0.2-1.4s0.4-0.9,0.8-1.2c0.3-0.2,0.6-0.3,1-0.3c0.6,0,1.2,0.3,1.6,0.9
					c0.3,0.4,0.3,0.9,0.2,1.4s-0.4,0.9-0.8,1.2C201.3,276.7,200.9,276.8,200.6,276.8L200.6,276.8z M150.8,265.3
					c-0.6,0-1.2-0.3-1.6-0.9c-0.3-0.4-0.3-0.9-0.2-1.4s0.4-0.9,0.8-1.2c0.3-0.2,0.6-0.3,1-0.3c0.6,0,1.2,0.3,1.6,0.9
					c0.3,0.4,0.3,0.9,0.2,1.4s-0.4,0.9-0.8,1.2C151.5,265.3,151.2,265.3,150.8,265.3L150.8,265.3z M249.3,261.9
					c-0.6,0-1.2-0.3-1.6-0.9c-0.3-0.4-0.3-0.9-0.2-1.4s0.4-0.9,0.8-1.2c0.3-0.2,0.6-0.3,1-0.3c0.6,0,1.2,0.3,1.6,0.9
					c0.3,0.4,0.3,0.9,0.2,1.4s-0.4,0.9-0.8,1.2C250,261.8,249.6,261.9,249.3,261.9L249.3,261.9z M113.6,230.6
					c-0.6,0-1.2-0.3-1.6-0.9c-0.5-0.9-0.3-2,0.6-2.6c0.3-0.2,0.6-0.3,1-0.3c0.6,0,1.2,0.3,1.6,0.9c0.5,0.9,0.3,2-0.6,2.6
					C114.3,230.5,114,230.6,113.6,230.6z M98.7,181.9c-0.6,0-1.2-0.3-1.6-0.9c-0.3-0.4-0.3-0.9-0.2-1.4c0.1-0.5,0.4-0.9,0.8-1.2
					c0.3-0.2,0.6-0.3,1-0.3c0.6,0,1.2,0.3,1.6,0.9c0.5,0.9,0.3,2-0.6,2.6C99.4,181.8,99,181.9,98.7,181.9z M110.2,132.1
					c-0.6,0-1.2-0.3-1.6-0.9c-0.3-0.4-0.3-0.9-0.2-1.4c0.1-0.5,0.4-0.9,0.8-1.2c0.3-0.2,0.6-0.3,1-0.3c0.6,0,1.2,0.3,1.6,0.9
					c0.5,0.9,0.3,2-0.6,2.6C110.8,132,110.5,132.1,110.2,132.1z M280.6,126.2c-0.6,0-1.2-0.3-1.6-0.9c-0.5-0.9-0.3-2,0.6-2.6
					c0.3-0.2,0.6-0.3,1-0.3c0.6,0,1.2,0.3,1.6,0.9c0.3,0.4,0.3,0.9,0.2,1.4c-0.1,0.5-0.4,0.9-0.8,1.2
					C281.3,126.1,280.9,126.2,280.6,126.2L280.6,126.2z M145,94.9c-0.6,0-1.2-0.3-1.6-0.9c-0.5-0.9-0.3-2,0.6-2.6
					c0.3-0.2,0.6-0.3,1-0.3c0.6,0,1.2,0.3,1.6,0.9c0.5,0.9,0.3,2-0.6,2.6C145.6,94.8,145.3,94.9,145,94.9z M243.4,91.5
					c-0.6,0-1.2-0.3-1.6-0.9c-0.5-0.9-0.3-2,0.6-2.6c0.3-0.2,0.6-0.3,1-0.3c0.6,0,1.2,0.3,1.6,0.9c0.5,0.9,0.3,2-0.6,2.6
					C244.1,91.4,243.7,91.5,243.4,91.5z M193.6,80c-0.6,0-1.2-0.3-1.6-0.9c-0.3-0.4-0.3-0.9-0.2-1.4s0.4-0.9,0.8-1.2
					c0.3-0.2,0.6-0.3,1-0.3c0.6,0,1.2,0.3,1.6,0.9c0.5,0.9,0.3,2-0.6,2.6C194.3,79.9,194,80,193.6,80L193.6,80z"/>
				<path class="st37" d="M823.5,470.1c-13.5,0-26.5-3-38.7-9c-12.1-5.9-22.4-14.2-30.7-24.8l2.7-2c8,10.2,17.9,18.2,29.5,23.8
					c11.8,5.7,24.3,8.6,37.3,8.6c32.8,0,62.1-18.3,76.5-47.8c10-20.4,11.4-43.5,4-65s-22.7-38.8-43.2-48.8
					c-11.8-5.7-24.3-8.6-37.3-8.6c-32.8,0-62.1,18.3-76.5,47.8c-9.8,20.1-11.3,42.9-4.2,64.1l1.7,5.3l12.3-25.1c0.3-0.6,0.9-1,1.5-1
					c0.3,0,0.5,0.1,0.8,0.2c0.4,0.2,0.7,0.5,0.8,1c0.1,0.4,0.1,0.9-0.1,1.3L745.3,420l-29.9-14.6c-0.8-0.4-1.2-1.2-1-1.9l0.1-0.3
					c0,0,0-0.1,0.1-0.1c0.3-0.6,0.9-0.9,1.5-0.9c0.3,0,0.5,0.1,0.8,0.2l24.5,11.9l-1.7-5.1c-7.3-22.1-5.7-45.6,4.4-66.3
					c14.7-30.2,46-49.7,79.6-49.7c13.5,0,26.5,3,38.7,9c21.2,10.3,37.1,28.4,44.8,50.7c7.7,22.4,6.2,46.3-4.1,67.6
					C888.3,450.6,857.1,470.1,823.5,470.1z M828.8,458.1c-0.3,0-0.5-0.1-0.7-0.2c-0.4-0.2-0.7-0.5-0.9-1c-0.1-0.4-0.1-0.9,0.1-1.3
					c0.3-0.6,0.9-0.9,1.5-0.9c0.3,0,0.5,0.1,0.7,0.2c0.4,0.2,0.7,0.5,0.9,1c0.1,0.4,0.1,0.9-0.1,1.3
					C830,457.8,829.4,458.1,828.8,458.1L828.8,458.1z M790.7,450.7c-0.3,0-0.5-0.1-0.7-0.2c-0.4-0.2-0.7-0.5-0.9-1
					c-0.1-0.4-0.1-0.9,0.1-1.3c0.3-0.6,0.9-0.9,1.5-0.9c0.3,0,0.5,0.1,0.7,0.2c0.8,0.4,1.2,1.4,0.8,2.2
					C791.9,450.3,791.4,450.7,790.7,450.7L790.7,450.7z M865.5,445.5c-0.3,0-0.5-0.1-0.7-0.2c-0.8-0.4-1.2-1.4-0.8-2.2
					c0.3-0.6,0.9-0.9,1.5-0.9c0.3,0,0.5,0.1,0.7,0.2c0.4,0.2,0.7,0.5,0.9,1c0.1,0.4,0.1,0.9-0.1,1.3
					C866.7,445.1,866.2,445.5,865.5,445.5z M890.9,416.2c-0.3,0-0.5-0.1-0.7-0.2c-0.8-0.4-1.2-1.4-0.8-2.2c0.3-0.6,0.9-0.9,1.5-0.9
					c0.3,0,0.5,0.1,0.7,0.2c0.8,0.4,1.2,1.4,0.8,2.2C892.1,415.8,891.6,416.2,890.9,416.2L890.9,416.2z M898.4,378.1
					c-0.3,0-0.5-0.1-0.7-0.2c-0.8-0.4-1.2-1.4-0.8-2.2c0.3-0.6,0.9-0.9,1.5-0.9c0.3,0,0.5,0.1,0.7,0.2c0.4,0.2,0.7,0.5,0.9,1
					c0.1,0.4,0.1,0.9-0.1,1.3C899.6,377.8,899,378.1,898.4,378.1L898.4,378.1z M756.2,350.5c-0.3,0-0.5-0.1-0.7-0.2
					c-0.4-0.2-0.7-0.5-0.9-1c-0.1-0.4-0.1-0.9,0.1-1.3c0.3-0.6,0.9-0.9,1.5-0.9c0.3,0,0.5,0.1,0.7,0.2c0.4,0.2,0.7,0.5,0.9,1
					c0.1,0.4,0.1,0.9-0.1,1.3C757.4,350.1,756.9,350.5,756.2,350.5z M885.7,341.4c-0.3,0-0.5-0.1-0.7-0.2c-0.8-0.4-1.2-1.4-0.8-2.2
					c0.3-0.6,0.9-0.9,1.5-0.9c0.3,0,0.5,0.1,0.7,0.2c0.8,0.4,1.2,1.4,0.8,2.2C886.9,341,886.4,341.4,885.7,341.4L885.7,341.4z
					 M781.6,321.2c-0.3,0-0.5-0.1-0.7-0.2c-0.4-0.2-0.7-0.5-0.9-1c-0.1-0.4-0.1-0.9,0.1-1.3c0.3-0.6,0.9-0.9,1.5-0.9
					c0.3,0,0.5,0.1,0.7,0.2c0.8,0.4,1.2,1.4,0.8,2.2C782.8,320.8,782.3,321.2,781.6,321.2z M856.4,316c-0.3,0-0.5-0.1-0.7-0.2
					c-0.8-0.4-1.2-1.4-0.8-2.2c0.3-0.6,0.9-0.9,1.5-0.9c0.3,0,0.5,0.1,0.7,0.2c0.4,0.2,0.7,0.5,0.9,1c0.1,0.4,0.1,0.9-0.1,1.3
					C857.6,315.6,857.1,316,856.4,316L856.4,316z M818.4,308.5c-0.3,0-0.5-0.1-0.7-0.2c-0.8-0.4-1.2-1.4-0.8-2.2
					c0.3-0.6,0.9-0.9,1.5-0.9c0.3,0,0.5,0.1,0.7,0.2c0.4,0.2,0.7,0.5,0.9,1c0.1,0.4,0.1,0.9-0.1,1.3
					C819.6,308.2,819,308.5,818.4,308.5L818.4,308.5z"/>
				<path class="st26" d="M775.6,54.4c-7.7,0-13.2,5-13.2,12.2v0.1h5.7v-0.1c0-4.2,2.9-6.9,7.2-6.9c4,0,7.1,2.7,7.1,6.2
					c0,2.9-1.3,5-6.5,10.4L762.8,90v4.4h26.3V89h-17.9v-0.4l8.7-8.8c6.5-6.6,8.5-10,8.5-14.1C788.4,59.1,783,54.4,775.6,54.4z"/>
				<path class="st26" d="M820.8,81.4V55.4h-8.6c-7,10.4-12.8,19.5-16.3,25.9v5.6h19v7.5h5.8v-7.5h5.5v-5.4H820.8z M815.1,81.6
					h-13.3v-0.4c4.6-8,9.1-14.8,13-20.4h0.3V81.6z"/>
				<g>
					<path class="st38" d="M505.4,460.4c-0.4,0.6-1,1.1-1.7,1.4c-0.7,0.4-1.4,0.6-2.2,0.7c-0.8,0.1-1.5,0.2-2.2,0.2h-0.5
						c-0.1,0-0.3,0-0.4,0v0.2c0,0.4,0.1,0.8,0.2,1.1c0.1,0.3,0.3,0.5,0.5,0.7c0.2,0.2,0.4,0.3,0.7,0.4c0.3,0.1,0.5,0.1,0.7,0.1
						c0.7,0,1.3-0.2,1.8-0.5c0.5-0.3,0.9-0.7,1.3-1.2c0.9,0.5,1.3,1,1.3,1.7c0,0.4-0.1,0.7-0.3,0.9c-0.2,0.3-0.4,0.5-0.7,0.7
						c-0.4,0.3-0.9,0.5-1.5,0.7c-0.6,0.2-1.4,0.3-2.4,0.3c-1,0-1.8-0.1-2.4-0.4c-0.6-0.3-1.2-0.7-1.6-1.2c-0.4-0.5-0.7-1-0.9-1.7
						c-0.2-0.6-0.3-1.3-0.3-2c0-1.1,0.2-2.1,0.5-3.1c0.3-1,0.8-1.8,1.4-2.5c0.6-0.7,1.4-1.3,2.3-1.7c0.9-0.4,1.9-0.6,3-0.6
						c0.6,0,1.2,0.1,1.6,0.3c0.5,0.2,0.9,0.4,1.2,0.7c0.3,0.3,0.6,0.6,0.7,1.1c0.2,0.4,0.2,0.8,0.2,1.3
						C506.1,459,505.8,459.8,505.4,460.4 M502.6,457.6c-0.2-0.2-0.5-0.3-0.9-0.3c-0.8,0-1.4,0.3-1.9,0.9c-0.5,0.6-0.9,1.4-1.1,2.4
						c0.2,0,0.3,0,0.4,0h0.4c0.4,0,0.8,0,1.2-0.1c0.4-0.1,0.8-0.2,1.1-0.4c0.3-0.2,0.6-0.4,0.8-0.7c0.2-0.3,0.3-0.6,0.3-1
						C502.9,458.1,502.8,457.9,502.6,457.6 M494.6,465.7c0.4,0.8,0.8,1.5,1.3,1.8c-0.6,0-2.2,0-2.3,0c-0.8,0-1.6,0-2.3-0.9
						c-0.4-0.6-2.6-4.9-2.8-5.3l-1,5.8c0,0.2-0.2,0.4-0.4,0.4h-2.8c-0.2,0-0.4-0.2-0.4-0.4l3-18.2c0.2,0,1.2-0.1,1.3-0.1
						c0.7,0,1.2,0.2,1.5,0.5c0.3,0.3,0.4,0.7,0.4,1.2c0,0.1,0,0.6-0.1,0.7l-1.5,8.8c0.1-0.2,3.7-4.4,3.7-4.4
						c0.3-0.3,0.6-0.6,0.9-0.7c0.3-0.1,0.7-0.2,1.1-0.2c0.5,0,0.8,0.1,1.1,0.3c0.3,0.2,0.6,0.4,0.9,0.7l-4.5,5
						C491.8,460.7,494.1,464.9,494.6,465.7 M483,452.9c-0.6,0-1-0.2-1.3-0.5c-0.3-0.4-0.4-0.8-0.4-1.2c0-0.7,0.2-1.3,0.6-1.7
						c0.4-0.4,0.9-0.6,1.5-0.6c0.6,0,1,0.2,1.3,0.5c0.3,0.4,0.4,0.8,0.4,1.3c0,0.7-0.2,1.2-0.6,1.6C484,452.7,483.5,452.9,483,452.9
						 M482.1,454.9c0.7,0,1.2,0.2,1.5,0.5c0.3,0.3,0.5,0.7,0.5,1.3c0,0.1-0.1,0.5-0.1,0.6l-1.6,9.8c0,0.2-0.2,0.4-0.4,0.4h-2.8
						c-0.2,0-0.4-0.2-0.4-0.4l2-12.1C481.1,455,481.9,454.9,482.1,454.9 M478.4,460.1l-1.2,7c0,0.2-0.2,0.4-0.4,0.4l-2.7,0
						c-0.2,0-0.4-0.2-0.4-0.4l1.3-7.5c0,0,0-0.1,0-0.1c0-0.2,0.1-0.4,0.1-0.5c0-0.4-0.1-0.7-0.3-1c-0.2-0.3-0.6-0.4-1.1-0.4
						c-0.6,0-1.1,0.2-1.5,0.7c-0.3,0.4-0.6,0.9-0.7,1.4l-1.3,7.4c0,0.2-0.2,0.4-0.4,0.4l-2.8,0c-0.2,0-0.4-0.2-0.4-0.4l3-18.2
						c0.2,0,1-0.1,1.2-0.1c0.7,0,1.3,0.2,1.6,0.5c0.5,0.6,0.5,1.5,0.4,1.6c0,0.1,0,0.2,0,0.3l-0.8,4.9c0.4-0.4,0.8-0.8,1.4-1
						c0.5-0.3,1.2-0.4,2-0.4c0.8,0,1.4,0.2,1.9,0.5c0.5,0.4,0.8,0.8,1,1.3c0.2,0.5,0.3,1.1,0.3,1.7c0,0.3,0,0.6-0.1,0.9
						C478.5,459.5,478.5,459.8,478.4,460.1"/>
					<path class="st38" d="M505.8,451.1c-0.3,0-0.7,0-1,0.1v0c-0.5-1.9-2.2-3.2-4.2-3.4c-2.5-0.2-3.9,2.3-3.9,2.6
						c-2.1-1.2-4.6,0.5-4.5,3.4h0.2c0.1-3.2,2.9-3.7,4.2-3c-0.2,0.5-0.3,1-0.3,1.6c0,0.2,0,0.4,0,0.6h0.1c0-0.7,0.2-1.4,0.4-2.1
						c0.1-0.1,0.1-0.3,0.2-0.4l0,0c0.7-1.3,2-2.2,3.4-2.2c1.7,0,3.2,1.3,3.8,3.1l0,0c0.1,0.2,0.1,0.5,0.2,0.7
						c0.2-0.1,0.4-0.2,0.6-0.2c0.3-0.1,0.5-0.1,0.8-0.1c2.3,0,4.2,2.4,4.2,5.4c0,2-0.8,3.8-2.1,4.7v0.2c0,0,0,0,0.1,0
						c1.6-1,2.6-2.9,2.6-5.2C510.5,453.7,508.4,451.1,505.8,451.1"/>
				</g>
			</g>
		</g>
	</g>
</g>
</svg>
