<?xml version="1.0" encoding="utf-8"?>
<!-- Generator: Adobe Illustrator 21.1.0, SVG Export Plug-In . SVG Version: 6.00 Build 0)  -->
<svg version="1.1" id="Layer_1" xmlns="http://www.w3.org/2000/svg" xmlns:xlink="http://www.w3.org/1999/xlink" x="0px" y="0px"
	 width="294px" height="317px" viewBox="0 0 294 317" style="enable-background:new 0 0 294 317;" xml:space="preserve">
<style type="text/css">
	.st0{fill:#F3F3F8;}
	.st1{fill:none;stroke:#F3F3F8;stroke-width:6;stroke-linecap:round;stroke-linejoin:round;}
	.st2{fill:#FFFFFF;stroke:#39BDB2;stroke-width:3;}
	.st3{fill:none;stroke:#39BDB2;stroke-width:3;}
	.st4{fill:none;stroke:#05203D;stroke-linecap:round;stroke-linejoin:round;}
	.st5{fill:#05203D;}
	.st6{fill:none;stroke:#05203D;stroke-linecap:round;}
	.st7{filter:url(#filter-2);}
	.st8{fill:#39BDB2;}
	.st9{fill:#FFFFFF;}
	.st10{fill:none;stroke:#05203D;}
	.st11{fill:#FF335E;}
</style>
<filter  filterUnits="objectBoundingBox" height="200%" id="filter-2" width="200%" x="-50%" y="-50%">
	<feOffset  in="SourceAlpha" result="shadowOffsetOuter1"></feOffset>
	<feGaussianBlur  in="shadowOffsetOuter1" result="shadowBlurOuter1" stdDeviation="6"></feGaussianBlur>
	<feColorMatrix  in="shadowBlurOuter1" values="0 0 0 0 0.360784314 0 0 0 0 0.176470588 0 0 0 0 0.450980392 0 0 0 0.3 0">
		</feColorMatrix>
</filter>
<title>Group 30</title>
<g id="Product">
	<g id="Artboard" transform="translate(-1114 -283)">
		<g id="Group-30" transform="translate(1116 285)">
			<g id="Group-6" transform="translate(16 58)">
				<ellipse id="Oval-15-Copy" class="st0" cx="113.5" cy="115.5" rx="97.5" ry="97.5"/>
				<path id="Oval-9-Copy" class="st1" d="M111,251.316c75.886,0,137.404-61.518,137.404-137.404
					c0-47.413-24.013-89.216-60.541-113.912"/>
				<path id="Oval-9-Copy-2" class="st1" d="M111.079,227.166C49.732,227.166,0,177.435,0,116.087C0,77.76,19.413,43.964,48.942,24"
					/>
			</g>
			<g id="Group-5" transform="translate(24)">
				<circle id="Oval-11-Copy-12" class="st2" cx="141" cy="4" r="4"/>
				<ellipse id="Oval-11-Copy-13" class="st2" cx="4" cy="278" rx="4" ry="4"/>
				<circle id="Oval-11-Copy-14" class="st2" cx="262" cy="309" r="4"/>
				<ellipse id="Oval-11-Copy-15" class="st3" cx="46" cy="226" rx="4" ry="4"/>
				<circle id="Oval-11-Copy-16" class="st2" cx="54" cy="56" r="4"/>
				<ellipse id="Oval-11-Copy-17" class="st3" cx="194" cy="141" rx="4" ry="4"/>
			</g>
			<g id="Group-14" transform="translate(0 21)">
				<g id="Group-7" transform="translate(215 184)">
					<path id="Combined-Shape" class="st4" d="M40.582,0H11.281C5.32,0,0.486,4.845,0.486,10.821v15.725 M0.486,34.742
						c0,5.976,4.833,10.823,10.795,10.823H59.89c5.957,0,10.796-4.848,10.796-10.827v-23.91C70.686,4.854,65.85,0,59.886,0h-10.65"
						/>
					<path class="st5" d="M1.5,12C1.225,12,1,11.775,1,11.5S1.225,11,1.5,11h54.6c0.275,0,0.5,0.225,0.5,0.5S56.375,12,56.1,12H1.5z
						"/>
					<path class="st5" d="M20.5,21c-0.275,0-0.5-0.225-0.5-0.5s0.225-0.5,0.5-0.5h6c0.275,0,0.5,0.225,0.5,0.5S26.775,21,26.5,21
						H20.5z"/>
					<path class="st5" d="M32.5,21c-0.275,0-0.5-0.225-0.5-0.5s0.225-0.5,0.5-0.5h37c0.275,0,0.5,0.225,0.5,0.5S69.775,21,69.5,21
						H32.5z"/>
				</g>
				<g id="Group-7-Copy" transform="rotate(-20 616.72 -508.179)">
					<path id="Combined-Shape_1_" class="st4" d="M40.582,0L11.281,0C5.32,0,0.486,4.845,0.486,10.821l0,1.488 M63.14,45.065
						c4.496-1.432,7.548-5.609,7.545-10.327v-23.91C70.686,4.854,65.85,0,59.886,0l-10.65,0"/>
					<line class="st6" x1="19.253" y1="10.92" x2="56.325" y2="10.667"/>
				</g>
				<g id="Group-8" transform="translate(156)">
					<g id="Oval-Copy-2">
						<g class="st7">
							<ellipse id="path-1_2_" cx="44" cy="44" rx="44" ry="44"/>
						</g>
						<g>
							<ellipse id="path-1_1_" class="st8" cx="44" cy="44" rx="44" ry="44"/>
						</g>
					</g>
					<g>
						<path class="st9" d="M51.822,41.759c-1.923-1.063-3.967-1.872-5.991-2.712c-1.174-0.486-2.297-1.052-3.289-1.842
							c-1.953-1.558-1.579-4.089,0.708-5.09c0.648-0.283,1.326-0.374,2.014-0.415c2.651-0.142,5.171,0.344,7.57,1.498
							c1.194,0.577,1.589,0.395,1.994-0.85c0.425-1.316,0.779-2.651,1.174-3.977c0.263-0.891-0.061-1.478-0.901-1.852
							c-1.538-0.678-3.117-1.164-4.777-1.427c-2.166-0.334-2.166-0.344-2.176-2.52c-0.01-3.066-0.01-3.066-3.087-3.066
							c-0.445,0-0.891-0.01-1.336,0c-1.437,0.04-1.68,0.293-1.72,1.741c-0.02,0.648,0,1.295-0.01,1.953
							c-0.01,1.923-0.02,1.892-1.862,2.56c-4.453,1.619-7.206,4.655-7.499,9.513c-0.263,4.301,1.984,7.206,5.515,9.321
							c2.176,1.305,4.584,2.075,6.892,3.097c0.901,0.395,1.761,0.85,2.51,1.478c2.216,1.832,1.812,4.878-0.82,6.032
							c-1.407,0.617-2.894,0.769-4.422,0.577c-2.358-0.293-4.615-0.911-6.74-2.014c-1.245-0.648-1.609-0.476-2.034,0.87
							c-0.364,1.164-0.688,2.338-1.012,3.512c-0.435,1.579-0.273,1.953,1.235,2.692c1.923,0.931,3.977,1.407,6.072,1.741
							c1.639,0.263,1.69,0.334,1.71,2.034c0.01,0.769,0.01,1.548,0.02,2.318c0.01,0.972,0.476,1.538,1.478,1.559
							c1.133,0.02,2.277,0.02,3.41-0.01c0.931-0.02,1.407-0.526,1.407-1.467c0-1.052,0.051-2.115,0.01-3.168
							c-0.051-1.073,0.415-1.619,1.447-1.903c2.378-0.648,4.402-1.923,5.961-3.825C59.604,52.85,57.954,45.149,51.822,41.759z"/>
					</g>
				</g>
				<path id="Combined-Shape_2_" class="st9" d="M192.558,162.95c-0.299-3.442-0.995-6.838-2.073-10.121
					c-1.24-3.683-2.905-7.22-5.031-10.47c-4.11-6.39-9.743-11.66-16.191-15.595c-4.641-2.815-9.672-4.945-14.88-6.425
					c-5.952-1.66-12.117-2.455-18.282-2.527c-7.51-0.073-15.021,0.938-22.249,3.104c-2.802,0.834-5.548,1.847-8.22,3.033
					c-0.611,0.295-1.225,0.584-1.842,0.866c-1.037-0.776-2.042-1.595-3.011-2.455c-1.63-1.372-3.224-2.765-4.854-4.162
					c-1.382-1.21-2.756-2.412-4.131-3.628c-0.259-0.199-0.955-0.895-2.785-0.39s-1.559,2.708-1.559,2.708l1.524,18.086
					c-4.216,4.097-7.76,8.898-11.019,13.772c-0.429,0.627-0.842,1.265-1.24,1.913c-0.496,0.758-0.956,1.516-1.417,2.274
					l-16.556,3.719c-0.22,0.072-0.432,0.18-0.623,0.324c-0.592,0.432-0.987,1.081-1.099,1.805c-0.035,0.325-0.017,0.398,0,0.722
					l2.28,19.347c0.07,0.325,0.07,0.434,0.177,0.722c0.232,0.584,0.66,1.069,1.211,1.372c0.301,0.145,0.372,0.145,0.691,0.253
					l17.183,3.61c1.382,2.563,3.047,4.91,4.854,7.184c2.09,2.635,4.287,5.137,6.59,7.592l1.63,1.732
					c0.614,0.649,1.24,1.288,1.877,1.914l3.618,18.519c0.081,0.318,0.085,0.397,0.248,0.686c0.313,0.677,0.91,1.179,1.63,1.372
					c0.311,0.108,0.389,0.1,0.708,0.108h11.337c0.312-0.025,0.39-0.011,0.673-0.098c0.693-0.18,1.282-0.637,1.63-1.263
					c0.106-0.199,0.213-0.419,0.248-0.65c0.035-0.108,0.07-0.227,0.07-0.36l0.143-6.55c2.019,0.619,4.064,1.149,6.129,1.59
					c4.849,1.012,9.785,1.543,14.738,1.587c4.5,0.037,9.035-0.288,13.463-1.083c2.112-0.379,4.204-0.857,6.271-1.433l1.488-0.433
					c0.744-0.217,0.709-0.217,1.453-0.47v6.524c0,0.325,0,0.397,0.07,0.686c0.213,0.83,0.816,1.48,1.56,1.805
					c0.212,0.108,0.425,0.144,0.673,0.18h11.656c0.319-0.036,0.39,0,0.708-0.108c0.603-0.18,1.099-0.578,1.453-1.083
					c0.142-0.21,0.25-0.442,0.319-0.686l0.07-0.36l3.685-18.845c2.102-3.038,4.064-6.17,5.881-9.386
					c1.95-3.393,3.756-6.859,5.28-10.469c1.124-2.639,2.117-5.311,2.854-8.113c0.468,0.033,0.947,0.05,1.432,0.05
					c6.075,0,8.006-2.686,8.006-6c0-3.313-1.93-6-8.006-6C192.853,162.946,192.706,162.948,192.558,162.95L192.558,162.95z"/>
				<g id="Group-2" transform="translate(69 99)">
					<path id="Combined-Shape-Copy-9" class="st4" d="M56.852,6.916c-2.802,0.834-5.548,1.847-8.22,3.033
						c-0.602,0.288-1.204,0.577-1.842,0.866c-1.037-0.776-2.042-1.595-3.011-2.455c-1.63-1.372-3.224-2.765-4.854-4.162
						c-1.382-1.21-2.756-2.412-4.131-3.628c-0.259-0.199-0.955-0.895-2.785-0.39S30.45,2.888,30.45,2.888l1.524,18.086
						c-4.216,4.097-7.76,8.898-11.019,13.772c-0.429,0.627-0.842,1.265-1.24,1.913c-0.485,0.75-0.957,1.508-1.417,2.274
						L1.742,42.652c-0.224,0.073-0.434,0.183-0.623,0.324c-0.592,0.432-0.987,1.081-1.099,1.805c-0.035,0.325-0.017,0.398,0,0.722
						L2.3,64.85c0.07,0.325,0.07,0.434,0.177,0.722c0.232,0.584,0.66,1.069,1.211,1.372c0.301,0.145,0.372,0.145,0.691,0.253
						l17.183,3.61c1.382,2.563,3.047,4.91,4.854,7.184c2.09,2.635,4.287,5.137,6.59,7.592l1.63,1.732
						c0.612,0.65,1.24,1.285,1.877,1.914l3.618,18.519c0.081,0.318,0.085,0.397,0.248,0.686c0.313,0.677,0.91,1.179,1.63,1.372
						c0.311,0.108,0.389,0.1,0.708,0.108h11.337c0.312-0.025,0.39-0.011,0.673-0.098c0.693-0.18,1.282-0.637,1.63-1.263
						c0.106-0.199,0.213-0.419,0.248-0.65c0.035-0.108,0.07-0.227,0.07-0.36l0.143-6.55c2.019,0.619,4.064,1.149,6.129,1.59
						c4.849,1.012,9.785,1.543,14.738,1.587c4.5,0.037,9.035-0.288,13.463-1.083c2.112-0.379,4.204-0.857,6.271-1.433l1.488-0.433
						c0.744-0.217,0.709-0.217,1.453-0.47v6.524c0,0.325,0,0.397,0.07,0.686c0.213,0.83,0.816,1.48,1.56,1.805
						c0.212,0.108,0.425,0.144,0.673,0.18h11.656c0.319-0.036,0.39,0,0.708-0.108c0.603-0.18,1.099-0.578,1.453-1.083
						c0.142-0.21,0.25-0.442,0.319-0.686l0.07-0.36l3.685-18.845c2.102-3.038,4.064-6.17,5.881-9.386
						c1.95-3.393,3.756-6.859,5.28-10.469c1.124-2.639,2.117-5.311,2.854-8.113c0.468,0.033,0.947,0.05,1.432,0.05
						c6.075,0,8.006-2.686,8.006-6c0-3.313-1.93-6-8.006-6c-0.148,0-0.295,0.002-0.442,0.005c-0.299-3.442-0.995-6.838-2.073-10.121
						c-1.24-3.683-2.905-7.22-5.031-10.47c-4.11-6.39-9.743-11.66-16.191-15.595c-4.641-2.815-9.672-4.945-14.88-6.425
						C91.43,4.679,85.266,3.884,79.1,3.812c-2.396-0.023-4.792,0.065-7.18,0.264"/>
					<path id="Oval-16-Copy" class="st10" d="M85.152,20.175c3.947,0.403,7.322,0.868,10.181,1.336
						c10.203,1.669,13.837,3.364,13.401,2.356c-0.558-1.289-5.136-7.575-22.885-9.441c-17.747-1.865-22.695,3.354-23.723,4.542
						C61.099,20.157,67.124,18.332,85.152,20.175z"/>
				</g>
				<path id="Oval-17" class="st4" d="M0.961,92.184C0.321,94.74-0.002,97.365,0,100c0,17.673,14.327,32,32,32
					c12.954,0,24.11-7.697,29.145-18.768 M64,100c0-17.673-14.327-32-32-32c-10.406,0-19.653,4.967-25.497,12.66"/>
				<path id="Oval-17_1_" class="st4" d="M11.442,85.25c-1.392,2.005-2.481,4.204-3.233,6.526C7.405,94.265,6.997,96.865,7,99.48
					c-0.009,6.242,2.326,12.26,6.543,16.862 M17.373,119.756c1.082,0.782,2.224,1.476,3.417,2.076 M47.588,119.027
					c3.085-2.462,5.545-5.618,7.181-9.21c0.817-1.796,1.417-3.682,1.787-5.62C56.847,102.669,57,101.092,57,99.48
					c0.009-6.536-2.55-12.813-7.126-17.48"/>
				<g id="Group-11" transform="translate(40 61)">
					<path id="Rectangle-16-Copy-8" class="st11" d="M2.266,107.933l8.345-3.371c0.768-0.31,1.642,0.061,1.953,0.829l0,0
						c0.31,0.768-0.061,1.642-0.829,1.953l-8.345,3.371c-0.768,0.31-1.642-0.061-1.953-0.829l0,0
						C1.127,109.118,1.498,108.243,2.266,107.933z"/>
					<path id="Rectangle-16-Copy-9" class="st11" d="M141.094,41.272l6.364-6.364c0.586-0.586,1.536-0.586,2.121,0l0,0
						c0.586,0.586,0.586,1.536,0,2.121l-6.364,6.364c-0.586,0.586-1.536,0.586-2.121,0l0,0
						C140.509,42.808,140.509,41.858,141.094,41.272z"/>
					<path id="Rectangle-16-Copy-10" class="st11" d="M156.169,188.637l-6.252-6.474c-0.575-0.596-0.559-1.546,0.037-2.121l0,0
						c0.596-0.575,1.546-0.559,2.121,0.037l6.252,6.474c0.575,0.596,0.559,1.546-0.037,2.121l0,0
						C157.694,189.25,156.744,189.233,156.169,188.637z"/>
					<path id="Rectangle-16-Copy-11" class="st11" d="M49.747,10.382l-5.033-7.461c-0.463-0.687-0.282-1.619,0.405-2.082l0,0
						c0.687-0.463,1.619-0.282,2.082,0.405l5.033,7.461c0.463,0.687,0.282,1.619-0.405,2.082l0,0
						C51.142,11.25,50.21,11.069,49.747,10.382z"/>
				</g>
				<circle id="Oval-5" class="st5" cx="32" cy="100" r="3"/>
				<path id="Rectangle-23" class="st10" d="M28.5,58h7c1.381,0,2.5,1.119,2.5,2.5l0,0c0,1.381-1.119,2.5-2.5,2.5h-7
					c-1.381,0-2.5-1.119-2.5-2.5l0,0C26,59.119,27.119,58,28.5,58z"/>
				<path id="Rectangle" class="st10" d="M29,63h6v5h-6V63z"/>
				<path id="Rectangle-24" class="st5" d="M32.118,75l1.918,23.007c0.092,1.1-0.719,1.993-1.842,1.993h-0.359
					c-1.109,0-1.927-0.89-1.827-1.983L32.118,75z"/>
			</g>
		</g>
	</g>
</g>
</svg>
