<?xml version="1.0" encoding="utf-8"?>
<!-- Generator: Adobe Illustrator 23.0.2, SVG Export Plug-In . SVG Version: 6.00 Build 0)  -->
<svg version="1.1" id="svg1936" xmlns:svg="http://www.w3.org/2000/svg"
	 xmlns="http://www.w3.org/2000/svg" xmlns:xlink="http://www.w3.org/1999/xlink" x="0px" y="0px" viewBox="0 0 603 182"
	 style="enable-background:new 0 0 603 182;" xml:space="preserve">
<style type="text/css">
	.st0{fill:#FF9900;}
	.st1{fill:#221F1F;}
</style>
<path id="path8" class="st0" d="M340.1,118.2c-18.6,13.7-45.6,21-68.8,21c-32.6,0-61.9-12-84.1-32.1c-1.7-1.6-0.2-3.7,1.9-2.5
	c23.9,13.9,53.5,22.3,84.1,22.3c20.6,0,43.3-4.3,64.2-13.1C340.5,112.5,343.1,115.9,340.1,118.2"/>
<path id="path10" class="st0" d="M347.8,109.4c-2.4-3-15.7-1.4-21.7-0.7c-1.8,0.2-2.1-1.4-0.5-2.5c10.6-7.5,28.1-5.3,30.1-2.8
	s-0.5,20-10.5,28.4c-1.5,1.3-3,0.6-2.3-1.1C345.1,125,350.2,112.4,347.8,109.4"/>
<path id="path12" class="st1" d="M326.5,53.3V46c0-1.1,0.8-1.8,1.8-1.8h32.6c1,0,1.9,0.8,1.9,1.8v6.2c0,1-0.9,2.4-2.5,4.6
	l-16.9,24.1c6.3-0.2,12.9,0.8,18.6,4c1.3,0.7,1.6,1.8,1.7,2.8v7.8c0,1.1-1.2,2.3-2.4,1.7c-10-5.3-23.3-5.8-34.4,0.1
	c-1.1,0.6-2.3-0.6-2.3-1.7v-7.4c0-1.2,0-3.2,1.2-5l19.6-28.1h-17C327.3,55.1,326.5,54.4,326.5,53.3"/>
<path id="path14" class="st1" d="M207.6,98.7h-9.9c-0.9-0.1-1.7-0.8-1.8-1.7V46.1c0-1,0.9-1.8,1.9-1.8h9.2c1,0,1.7,0.8,1.8,1.7v6.7
	h0.2c2.4-6.4,6.9-9.4,13-9.4c6.2,0,10.1,3,12.9,9.4c2.4-6.4,7.8-9.4,13.7-9.4c4.2,0,8.7,1.7,11.5,5.6c3.1,4.3,2.5,10.5,2.5,15.9
	v32.1c0,1-0.9,1.8-1.9,1.8h-9.9c-1-0.1-1.8-0.9-1.8-1.8v-27c0-2.1,0.2-7.5-0.3-9.5c-0.7-3.4-3-4.4-5.8-4.4c-2.4,0-4.9,1.6-5.9,4.2
	c-1,2.6-0.9,6.9-0.9,9.7v27c0,1-0.9,1.8-1.9,1.8h-9.9c-1-0.1-1.8-0.9-1.8-1.8v-27c0-5.7,0.9-14-6.1-14c-7.1,0-6.8,8.1-6.8,14v27
	C209.6,97.9,208.7,98.7,207.6,98.7"/>
<path id="path16" class="st1" d="M390.8,43.2c14.7,0,22.7,12.6,22.7,28.7c0,15.5-8.8,27.8-22.7,27.8c-14.4,0-22.3-12.6-22.3-28.4
	S376.5,43.2,390.8,43.2 M390.9,53.6c-7.3,0-7.8,10-7.8,16.2c0,6.2-0.1,19.5,7.7,19.5c7.7,0,8-10.7,8-17.2c0-4.3-0.2-9.4-1.5-13.5
	C396.3,55,394.1,53.6,390.9,53.6"/>
<path id="path18" class="st1" d="M432.6,98.7h-9.9c-1-0.1-1.8-0.9-1.8-1.8V46c0.1-0.9,0.9-1.7,1.9-1.7h9.2c0.9,0,1.6,0.6,1.8,1.4
	v7.8h0.2c2.8-7,6.7-10.3,13.5-10.3c4.4,0,8.8,1.6,11.6,6c2.6,4.1,2.6,10.9,2.6,15.8v32c-0.1,0.9-0.9,1.6-1.9,1.6h-9.9
	c-0.9-0.1-1.7-0.7-1.8-1.6V69.4c0-5.6,0.6-13.7-6.2-13.7c-2.4,0-4.6,1.6-5.7,4.1c-1.4,3.1-1.6,6.2-1.6,9.6v27.4
	C434.5,97.9,433.7,98.7,432.6,98.7"/>
<g id="use28" transform="translate(244.36719)">
	<path id="path30" class="st1" d="M55.5,74.4v-2.1c-7.2,0-14.7,1.5-14.7,10c0,4.3,2.2,7.2,6,7.2c2.8,0,5.3-1.7,6.9-4.5
		C55.6,81.5,55.5,78.2,55.5,74.4 M65.5,98.5c-0.7,0.6-1.6,0.6-2.3,0.2c-3.3-2.7-3.9-4-5.7-6.6c-5.4,5.5-9.3,7.2-16.3,7.2
		c-8.3,0-14.8-5.1-14.8-15.4c0-8,4.4-13.5,10.6-16.2c5.4-2.4,12.9-2.8,18.6-3.4V63c0-2.4,0.2-5.1-1.2-7.2c-1.2-1.8-3.5-2.6-5.6-2.6
		c-3.8,0-7.2,1.9-8,6C40.6,60.1,40,61,39.1,61l-9.6-1c-0.8-0.2-1.7-0.8-1.5-2.1c2.2-11.7,12.7-15.2,22.2-15.2
		c4.8,0,11.1,1.3,14.9,4.9c4.8,4.5,4.4,10.5,4.4,17.1v15.4c0,4.6,1.9,6.7,3.7,9.2c0.6,0.9,0.8,2,0,2.6
		C71.1,93.7,67.5,96.8,65.5,98.5L65.5,98.5"/>
</g>
<path class="st1" d="M170.6,74.4v-2.1c-7.2,0-14.7,1.5-14.7,10c0,4.3,2.2,7.2,6,7.2c2.8,0,5.3-1.7,6.9-4.5
	C170.7,81.5,170.6,78.2,170.6,74.4 M180.6,98.5c-0.7,0.6-1.6,0.6-2.3,0.2c-3.3-2.7-3.9-4-5.7-6.6c-5.4,5.5-9.3,7.2-16.3,7.2
	c-8.3,0-14.8-5.1-14.8-15.4c0-8,4.4-13.5,10.6-16.2c5.4-2.4,12.9-2.8,18.6-3.4V63c0-2.4,0.2-5.1-1.2-7.2c-1.2-1.8-3.5-2.6-5.6-2.6
	c-3.8,0-7.2,1.9-8,6c-0.2,0.9-0.8,1.8-1.7,1.8l-9.6-1c-0.8-0.2-1.7-0.8-1.5-2.1c2.2-11.7,12.7-15.2,22.2-15.2
	c4.8,0,11.1,1.3,14.9,4.9c4.8,4.5,4.4,10.5,4.4,17.1v15.4c0,4.6,1.9,6.7,3.7,9.2c0.6,0.9,0.8,2,0,2.6
	C186.2,93.7,182.6,96.8,180.6,98.5L180.6,98.5"/>
</svg>
