<?xml version="1.0" encoding="utf-8"?>
<!-- Generator: Adobe Illustrator 21.1.0, SVG Export Plug-In . SVG Version: 6.00 Build 0)  -->
<svg version="1.1" id="Layer_1" xmlns="http://www.w3.org/2000/svg" xmlns:xlink="http://www.w3.org/1999/xlink" x="0px" y="0px"
	 width="34.3px" height="40px" viewBox="0 0 34.3 40" style="enable-background:new 0 0 34.3 40;" xml:space="preserve">
<style type="text/css">
	.st0{fill:none;stroke:#FFFFFF;stroke-width:1.5;stroke-miterlimit:10;}
</style>
<path class="st0" d="M5.6,17.2v8.2c0,1.1-0.9,2-2,2c-1.1,0-2.1-0.9-2.1-2v-8.2c0-1.1,1.1-2,2.1-2C4.7,15.3,5.6,16.1,5.6,17.2z
	 M8.4,28.3c0,1.2,0.9,2.1,2.1,2.1h1.4l0,4.3c0,2.6,3.9,2.6,3.9,0v-4.3h2.6v4.3c0,2.6,3.9,2.6,3.9,0v-4.3h1.4c1.1,0,2.1-0.9,2.1-2.1
	V15.6H8.4V28.3z M26,12.5H8.3c0-3,1.8-5.7,4.5-7.1L11.5,3c-0.2-0.3,0.3-0.6,0.5-0.3l1.4,2.5c2.5-1.1,5.3-1,7.7,0l1.4-2.5
	C22.5,2.4,23,2.6,22.8,3l-1.4,2.5C24.2,6.8,26,9.5,26,12.5z M13.9,8.6c0-0.4-0.3-0.7-0.7-0.7c-0.4,0-0.7,0.3-0.7,0.7
	s0.3,0.7,0.7,0.7C13.5,9.3,13.9,9,13.9,8.6z M21.9,8.6c0-0.4-0.3-0.7-0.7-0.7c-0.4,0-0.7,0.3-0.7,0.7s0.3,0.7,0.7,0.7
	C21.6,9.3,21.9,9,21.9,8.6z M30.6,15.3c-1.1,0-2,0.9-2,2v8.2c0,1.1,0.9,2,2,2c1.1,0,2.1-0.9,2.1-2v-8.2
	C32.8,16.1,31.7,15.3,30.6,15.3z"/>
</svg>
