<?xml version="1.0" encoding="utf-8"?>
<!-- Generator: Adobe Illustrator 21.1.0, SVG Export Plug-In . SVG Version: 6.00 Build 0)  -->
<svg version="1.1" id="Layer_1" xmlns:sketch="http://www.bohemiancoding.com/sketch/ns"
	 xmlns="http://www.w3.org/2000/svg" xmlns:xlink="http://www.w3.org/1999/xlink" x="0px" y="0px" width="872px" height="626px"
	 viewBox="0 0 872 626" style="enable-background:new 0 0 872 626;" xml:space="preserve">
<style type="text/css">
	.st0{opacity:0.6;}
	.st1{opacity:0.5;fill:#EFF7FE;enable-background:new    ;}
	.st2{opacity:0.15;fill:#DFE6EA;enable-background:new    ;}
	.st3{opacity:0.45;fill:#E1F5FB;enable-background:new    ;}
	.st4{opacity:0.3;fill:#D1F0EF;enable-background:new    ;}
	.st5{opacity:0.5;fill:#D1F0EF;enable-background:new    ;}
	.st6{opacity:0.5;fill:#DCE8EF;enable-background:new    ;}
	.st7{opacity:0.2;fill:#FCC8CE;enable-background:new    ;}
	.st8{opacity:0.6;fill:#D5F1F1;enable-background:new    ;}
	.st9{opacity:0.6;fill:#BBE9F9;enable-background:new    ;}
	.st10{fill:#F1FAFA;}
	.st11{opacity:0.2;fill:#FCB9C6;enable-background:new    ;}
	.st12{fill:#FCFDFF;}
	.st13{opacity:0.1;fill:#1DD4FF;enable-background:new    ;}
	.st14{opacity:0.2;fill:#A2EAE0;enable-background:new    ;}
	.st15{fill:#FEFEFE;stroke:#8492A5;stroke-width:1.5;}
	.st16{fill:none;stroke:#8492A5;stroke-width:2;}
	.st17{fill:#FDFDFD;stroke:#8492A5;stroke-width:1.5;}
	.st18{fill:none;stroke:#8492A5;stroke-linecap:square;}
	.st19{fill:#FFFFFF;stroke:#8492A5;stroke-width:0.75;}
	.st20{fill:#FFFFFF;stroke:#8492A5;}
	.st21{fill:#E6F7F6;}
	.st22{fill:none;stroke:#347EC0;stroke-width:2;}
	.st23{fill:#2A689A;stroke:#347EC0;stroke-width:2;}
	.st24{fill:#2E6F9D;stroke:#347EC0;stroke-width:2;}
	.st25{fill:#3275A2;stroke:#347EC0;stroke-width:2;}
	.st26{fill:#32749A;stroke:#347EC0;stroke-width:2;}
	.st27{fill:#347FAA;stroke:#347EC0;stroke-width:2;}
	.st28{fill:#34789C;stroke:#347EC0;stroke-width:2;}
	.st29{fill:none;}
	.st30{fill:#FFFFFF;}
	.st31{fill:#333333;}
	.st32{fill:#FDFDFD;stroke:#7E89A3;stroke-width:2;}
	.st33{fill:#FDFDFD;stroke:#7E89A3;stroke-width:1.5;}
	.st34{fill:#FFFFFF;stroke:#7E89A3;stroke-width:0.75;}
	.st35{fill:none;stroke:#7E89A3;}
	.st36{display:none;fill:#FFFFFF;}
	.st37{fill:url(#SVGID_1_);}
	.st38{fill:url(#SVGID_2_);}
	.st39{fill:url(#SVGID_3_);}
	.st40{fill:url(#SVGID_4_);}
</style>
<g id="Layer_2">
</g>
<g class="st0">
	<ellipse class="st1" cx="279.4" cy="332.9" rx="250.8" ry="245"/>
	<ellipse class="st2" cx="516.2" cy="196.8" rx="178.2" ry="174.1"/>
	<ellipse class="st3" cx="609.5" cy="345.1" rx="244.9" ry="239.2"/>
	<path class="st4" d="M264.5,411.6c3.8-3.1,12.5,0.2,23.6,4.4c7.9,3,11.9,5.8,19.9,6.4c4.2,0.3,10.6,0.8,12.6-2.4
		c3.9-6.1-11.3-22.4-11-22.7c0.4-0.3,17.1,24.7,25.2,21.9c2-0.7,3.4-3.5,6.1-9.1c3.7-7.6,2.7-9.5,5.3-11.9c4.3-4.1,8.7-0.4,16.3-3.6
		c7.6-3.2,6.6-8.3,15.1-14.3c5.5-3.9,10.6-5,18.7-6.8c16.6-3.6,19,0.8,27.3-3.2c9.2-4.4,7-10.3,18.7-18.7c6.4-4.6,12.1-6.5,21.6-9.5
		c9.5-3.1,16.4-4.1,28.5-6c24.5-3.7,30.5-1.8,33.8-0.4c5.6,2.4,5.5,4.2,11,7.2c12.5,6.6,23.1,2.4,37.4,2
		c20.2-0.6,35.8,6.9,52.9,15.1c9,4.3,4.5,3.2,32.5,19.5c18.7,10.8,22.3,12.2,29.3,18.3c7.9,6.8,16.5,14.2,21.6,26.6
		c3.1,7.7,2.7,11.8,8.1,23.8c4.4,9.6,7.2,12.7,9.8,14.7c5.1,4,7.9,3.2,11,7.2c4.5,5.8,4.4,15.6,0.4,17.9c-2.6,1.5-6.5-0.4-8.1-1.2
		c-5.2-2.5-4.8-5.7-9.8-9.1c-0.9-0.6-7.5-5-14.6-3.2c-0.8,0.2-7.2,1.9-7.7,5.2c-1.3,7.9,32.6,11.3,38.6,30.6
		c2.2,7.2,0.4,16-3.7,21.9c-7.2,10.5-19.4,9.1-23.2,18.7c-2.8,7,1.1,14.5,2,16.3c7.9,15.2,33.4,23.2,50.4,15.9
		c10.3-4.4,20.4-15.6,30.9-27.4c4.7-5.3,7.7-9.2,13-9.9c8.6-1.2,19.2,6.2,21.6,14.7c3.9,14-14.6,30.7-28.1,38.5
		c-15,8.7-33.2,9-69.2,9.1c-29.5,0.1-44.5,0.1-54.9-7.2c-11.7-8.2-22.7-24.2-27.7-31.4c-8.4-12.2-11.4-20-19.9-21.9
		c-8.9-2-18.7,3.6-20.7,4.8c-6.2,3.5-5.6,5.6-11,9.1c-13.4,8.9-27.6,3.3-29.7,8.7c-1.3,3.4,3.2,8.4,7.7,13.5c6,6.7,9.4,7.1,9.8,10.3
		c0.6,5.5-8.2,13.7-17.1,13.9c-11.1,0.2-13.4-12.1-26.8-15.1c-2.7-0.6-8-1.3-28.5,7.2c-27.6,11.4-26.5,16.1-40.3,19.1
		c-15.3,3.3-29.1,0.1-42.7-3.2c-18.5-4.4-18.7-8.3-32.5-9.9c-19.1-2.2-21.2,5-38.6,3.2c-11.9-1.3-22.3-6.9-43.1-18.3
		c-17.2-9.4-18.5-11.7-26-15.5c-24.1-12-40.6-2.6-79.7-2c-28.7,0.5-71.3,1.2-85.4-21.9c-7.2-11.6-7.2-29.7,1.6-39.7
		c10-11.4,24.9-5.3,74.4-9.5c40.4-3.5,51.1-9.4,57.8-17.1c9.1-10.5,10.5-24,11-28.2C272.4,432.5,258.4,416.6,264.5,411.6z"/>
	<path class="st5" d="M298.7,512.3c3.8,3.1,12.5-0.2,23.6-4.4c7.9-3,11.9-5.8,19.9-6.4c4.2-0.3,10.6-0.8,12.6,2.4
		c3.9,6.1-11.3,22.4-10.9,22.7s17.1-24.7,25.2-21.9c2,0.7,3.4,3.5,6.1,9.1c3.7,7.6,2.7,9.5,5.3,11.9c4.3,4.1,8.7,0.4,16.3,3.6
		c7.6,3.1,6.6,8.3,15.1,14.3c5.5,3.9,10.6,5,18.7,6.7c16.6,3.6,19-0.8,27.3,3.1c9.2,4.4,7,10.2,18.7,18.6c6.4,4.6,12.1,6.4,21.6,9.5
		s16.4,4.1,28.5,5.9c24.5,3.7,30.5,1.7,33.8,0.3c5.6-2.4,5.5-4.2,11-7.2c12.5-6.7,23.1-2.4,37.4-2c20.2,0.5,35.8-7,52.9-15.2
		c9-4.3,4.5-3.2,32.5-19.5c18.7-10.9,22.2-12.3,29.3-18.3c7.9-6.8,16.5-14.3,21.5-26.7c3.1-7.7,2.6-11.8,8.1-23.9
		c4.4-9.6,7.2-12.7,9.7-14.7c5.1-4,7.9-3.2,11-7.2c4.5-5.8,4.4-15.6,0.4-17.9c-2.6-1.5-6.5,0.4-8.1,1.2c-5.2,2.6-4.8,5.7-9.7,9.2
		c-0.9,0.6-7.5,5-14.6,3.2c-0.8-0.2-7.2-1.8-7.7-5.2c-1.3-7.9,32.6-11.4,38.6-30.7c2.2-7.2,0.4-16-3.7-21.9
		c-7.2-10.4-19.4-9.1-23.2-18.6c-2.8-7,1.1-14.5,2-16.3c7.9-15.2,33.4-23.2,50.4-16c10.3,4.4,20.4,15.6,31,27.4
		c4.7,5.3,7.7,9.2,13,9.9c8.6,1.2,19.2-6.2,21.5-14.7c3.9-14-14.7-30.7-28.1-38.5c-15-8.7-33.2-8.9-69.2-9
		c-29.5-0.1-44.5,0-54.9,7.2c-11.7,8.2-22.7,24.2-27.6,31.4c-8.4,12.3-11.4,20-19.9,21.9c-8.9,2-18.7-3.5-20.8-4.7
		c-6.2-3.5-5.6-5.6-11-9.1c-13.4-8.9-27.6-3.2-29.7-8.7c-1.3-3.4,3.2-8.4,7.7-13.5c6-6.7,9.4-7.1,9.7-10.3
		c0.6-5.5-8.2-13.7-17.1-13.9c-11.1-0.2-13.4,12.1-26.8,15.1c-2.7,0.6-8,1.3-28.5-7.1c-27.6-11.3-26.6-16.1-40.3-19
		c-15.3-3.3-29.1,0-42.7,3.3c-18.5,4.4-18.7,8.4-32.5,10c-19.1,2.3-21.2-5-38.6-3.1c-11.9,1.3-22.3,7-43.1,18.4
		c-17.2,9.4-18.4,11.8-26,15.5c-24.1,12-40.6,2.7-79.7,2.1c-28.7-0.4-71.3-1-85.4,22c-7.1,11.7-7.2,29.7,1.7,39.7
		c10,11.4,24.9,5.2,74.5,9.4c40.4,3.4,51.1,9.3,57.8,17c9.1,10.5,10.6,24,11,28.2C306.6,491.3,292.6,507.3,298.7,512.3z"/>
	<path class="st6" d="M108.2,108.8c-3.2-1.4-2.7-7.7-7.8-9.3c-3.9-1.2-7.4,1.6-8.9,0c-1.8-1.9,2.3-6,0.3-9.5c-1.4-2.4-4.6-3.1-6-3.4
		c-5.5-1.1-8.3,2.1-10.3,0.6c-2.5-1.9,1.4-7-1.4-12.4c-1.4-2.6-4.2-5.1-7.8-5.3c-3.9-0.2-7.3,2.6-8.9,5.3c-2.3,4,0.4,6-1.4,11.8
		c-1.4,4.6-3.6,4.8-5.2,9.3c-1.7,4.7-0.8,8.7-0.3,11.8c2.1,14.1-1.8,30.5-5.2,30.9c-2.1,0.2-4.7-5.4-6-8.1c-2.4-5.1-2.5-8.5-4-8.7
		c-1.6-0.2-3.5,3.3-4.3,5.3c-2,5.2-1.8,13,2.9,17.1c3.5,3.1,6.8,1.6,7.8,3.9c1.6,3.7-6.8,7.9-9.8,18.8c-1,3.6-1.3,7.6,0,8.1
		c1.9,0.8,5.7-6.5,9.2-5.6c2.1,0.5,1.5,3.4,4.3,5.6c3.7,2.9,7.4,0.1,11.2,2.2c3.5,2,2.8,5.7,5.5,13.2c1.5,4.3,4.2,8.5,9.5,16.8
		c7.1,11.2,8,10.2,10.1,15.4c2.9,7.5,1.6,10.6,5.5,14.3c3.9,3.8,7.5,2.5,9.8,6.2c2.4,4,0.8,9.6-1.1,12.9c-2.4,4-7.4,6.2-17.2,10.4
		c-10.9,4.6-14.7,4.8-16.4,4.8c-3.1,0-8.3,0-12.1-3.4c-2.8-2.5-2.2-4.5-5.5-12.4c-2.9-7-4.4-10.6-7.5-12.6c-4.5-3-11.4-2.9-16.4-0.3
		c-7.7,4.1-9.1,13.9-11.8,33.7c-1.4,10.1-0.6,11.9,0.6,12.9c2.6,2.3,7.2,0.9,29.6-3.4c4.4-0.8,7.1-1.3,10.1,0c6.2,2.8,8,11,8.6,13.5
		c1,4.5,0.2,5.8,0.6,14c0.3,6.3,0.5,9.8,1.4,12.9c2.8,9.5,10.6,9.2,22.1,21.6c5.1,5.6,10.1,10.9,12.1,19.4
		c2.1,9.1-0.2,17.9-1.4,21.6c-3.2,9.7-7.6,11.5-6.3,15.7c2.2,7.6,19,11.7,23.9,6.7c2.4-2.4,0.3-5.4,2.9-8.7c3.7-4.7,14-5.8,19.8-1.7
		c2,1.4,4,3.7,8,23.6c2.8,13.5,2.9,17.5,6.9,20.5c4.2,3.2,9.9,3,14.1,2.8c6.5-0.2,8.1-2.1,15.8-3.7c9.2-1.8,11,0,18.4-1.1
		s8.1-3.4,21.3-9.5c19.6-9.2,21.9-6,31.9-13.2c2.4-1.7,7.3-5.5,14.9-9.5c4.6-2.4,7.4-3.5,8.6-3.9c2.3-0.8,7.4-2.6,14.1-3.1
		c8.3-0.6,10.2,1.4,12.6-0.6c3.7-2.9,0.5-8,4.6-12.4c3-3.2,8-3.9,11.5-3.4c3.7,0.5,4.3,2.2,12.4,7.3c5.8,3.6,8.7,5.4,11.5,5.9
		c5.3,0.9,7.6-1.2,12.1,0.8c3.3,1.5,2.8,2.9,5.7,3.9c3.4,1.1,5.2-0.4,12.1-1.4c7.3-1.1,7.2,0.4,9.5-0.8c5.1-2.7,3.4-8.7,9.2-15.2
		c3.9-4.3,5.7-2.6,8.3-5.9c6.9-8.5-4.7-20.2,1.1-34.8c2.4-5.9,6.6-9.9,9.2-12.4c8.8-8.2,14.9-7.1,18.7-14c2.6-4.7,3.2-11.7,0.3-16.8
		c-3.7-6.7-11.1-6.3-12.6-12.6c-1.2-4.7,2.2-7.5,0.3-9.8c-2.8-3.4-12.2-0.2-13.5,0.3c-10.4,3.6-13.3,10.6-17.5,9.3
		c-4-1.3-4.6-8.6-4.6-9c-0.4-5.3,2.4-7.9,6.3-15.4c1.8-3.4,5.9-11.5,7.2-21.1c0.8-6,1.8-13.3-2.3-16.8c-4.2-3.7-9.5,0.5-14.4-3.1
		c-4.4-3.2-1.9-7.7-5.7-18.3c-3.6-9.8-9.7-16.5-12.1-19.1c-5.7-6.2-6.9-4.9-9.2-8.7c-2.3-3.8-3-8.2,0-27.8
		c2.4-15.6,3.7-18.4,1.4-21.1c-2.2-2.5-5.3-2.2-24.7-1.4c-16.6,0.6-22.1,0.7-26.7-3.1c-4.2-3.4-5.5-8.2-5.7-9
		c-2.5-9.3,5.2-14.2,2.6-21.6c-1.8-5.1-7.6-9.6-12.4-9c-6,0.8-5.8,9.3-15.5,15.7c-5.4,3.6-12.3,5.5-13.8,3.7
		c-2.4-3,11.3-13.8,8.3-19.1c-2.3-4-12.5-2.2-13.5-2c-13,2.4-14.8,11.1-25.3,16c-16.4,7.6-37.1-2-45.4-5.9
		c-18-8.4-18.3-16.8-27.9-16.6C129.8,79.1,116.1,112.2,108.2,108.8z"/>
	<path class="st7" d="M700.5,55.3c4-1.7,3.3-9.5,9.5-11.4c4.8-1.5,9.1,2,10.9,0c2.2-2.3-2.8-7.3-0.4-11.7c1.7-3,5.7-3.8,7.4-4.1
		c6.7-1.4,10.2,2.5,12.7,0.7c3-2.3-1.7-8.6,1.8-15.2c1.7-3.1,5.2-6.3,9.5-6.5c4.8-0.3,9,3.2,10.9,6.5c2.8,4.9-0.5,7.4,1.8,14.5
		c1.8,5.6,4.4,5.9,6.4,11.4c2,5.8,0.9,10.6,0.4,14.5c-2.6,17.3,2.2,37.5,6.4,37.9c2.6,0.3,5.8-6.6,7.4-10c3-6.3,3-10.4,4.9-10.7
		c2-0.3,4.3,4.1,5.3,6.5c2.5,6.4,2.2,16-3.5,21c-4.3,3.8-8.3,2-9.5,4.8c-2,4.6,8.3,9.7,12,23.1c1.2,4.5,1.6,9.3,0,10
		c-2.3,1-7.1-8-11.3-6.9c-2.6,0.6-1.9,4.2-5.3,6.9c-4.5,3.5-9.1,0.1-13.8,2.8c-4.3,2.4-3.4,6.9-6.7,16.2
		c-1.9,5.3-5.1,10.4-11.6,20.7c-8.7,13.8-9.8,12.5-12.4,19c-3.6,9.1-2,13-6.7,17.6c-4.8,4.7-9.2,3.1-12,7.6c-3,4.9-1,11.8,1.4,15.9
		c2.9,4.9,9,7.6,21.2,12.8c13.4,5.7,18.1,5.9,20.1,5.9c3.8,0,10.2,0,14.8-4.1c3.5-3.1,2.7-5.5,6.7-15.2c3.6-8.6,5.3-13,9.2-15.5
		c5.5-3.7,14.1-3.5,20.1-0.3c9.5,5,11.1,17.1,14.5,41.4c1.7,12.4,0.8,14.6-0.7,15.9c-3.2,2.8-8.9,1.1-36.3-4.1
		c-5.4-1-8.7-1.6-12.4,0c-7.6,3.4-9.9,13.5-10.6,16.5c-1.3,5.6-0.2,7.1-0.7,17.2c-0.4,7.8-0.6,12-1.8,15.9
		c-3.5,11.6-13,11.3-27.2,26.5c-6.3,6.8-12.4,13.4-14.8,23.8c-2.6,11.2,0.2,21.9,1.8,26.5c3.9,11.9,9.3,14.1,7.8,19.3
		c-2.7,9.3-23.3,14.3-29.3,8.3c-3-3-0.4-6.7-3.5-10.7c-4.6-5.8-17.1-7.1-24.3-2.1c-2.5,1.7-4.9,4.6-9.9,29
		c-3.4,16.6-3.6,21.5-8.5,25.2c-5.2,3.9-12.1,3.6-17.3,3.4c-8-0.3-10-2.6-19.4-4.5c-11.2-2.2-13.5,0-22.6-1.4s-9.9-4.1-26.1-11.7
		c-24-11.2-26.8-7.4-39.2-16.2c-2.9-2.1-9-6.8-18.3-11.7c-5.7-3-9-4.3-10.6-4.8c-2.9-1-9.1-3.2-17.3-3.8
		c-10.1-0.7-12.5,1.7-15.5-0.7c-4.6-3.5-0.7-9.9-5.6-15.2c-3.7-3.9-9.9-4.8-14.1-4.1c-4.5,0.7-5.2,2.8-15.2,9
		c-7.1,4.4-10.7,6.7-14.1,7.2c-6.5,1.1-9.4-1.4-14.8,1c-4,1.8-3.5,3.6-7.1,4.8c-4.2,1.4-6.4-0.5-14.8-1.7c-8.9-1.3-8.8,0.4-11.6-1
		c-6.3-3.3-4.1-10.7-11.3-18.6c-4.8-5.3-7-3.2-10.2-7.2c-8.5-10.4,5.7-24.8-1.4-42.7c-2.9-7.3-8.1-12.2-11.3-15.2
		c-10.7-10.1-18.3-8.8-22.9-17.2c-3.2-5.8-3.9-14.4-0.4-20.7c4.6-8.2,13.6-7.8,15.5-15.5c1.4-5.7-2.7-9.2-0.4-12.1
		c3.4-4.1,15-0.2,16.6,0.3c12.7,4.4,16.4,13,21.5,11.4c4.9-1.6,5.6-10.6,5.6-11c0.5-6.5-3-9.8-7.8-19c-2.2-4.2-7.2-14.1-8.8-25.9
		c-1-7.4-2.2-16.3,2.8-20.7c5.2-4.5,11.6,0.6,17.6-3.8c5.4-3.9,2.3-9.5,7.1-22.4c4.4-12,11.9-20.2,14.8-23.4c7-7.6,8.5-6,11.3-10.7
		c2.8-4.6,3.7-10.1,0-34.1c-2.9-19.1-4.6-22.6-1.8-25.9c2.7-3.1,6.5-2.7,30.3-1.7c20.4,0.8,27.1,0.9,32.8-3.8
		c5.2-4.2,6.8-10.1,7.1-11c3-11.4-6.4-17.4-3.2-26.5c2.2-6.2,9.4-11.8,15.2-11c7.3,1,7.1,11.4,19.1,19.3c6.6,4.4,15.2,6.7,16.9,4.5
		c2.9-3.6-13.9-17-10.2-23.4c2.8-4.9,15.3-2.6,16.6-2.4c15.9,2.9,18.2,13.7,31.1,19.6c20.1,9.3,45.5-2.5,55.8-7.2
		c22.1-10.3,22.5-20.6,34.2-20.3C674,18.8,690.8,59.4,700.5,55.3z"/>
	<path class="st8" d="M168,217.6c-2.7,0.6-1.1,7.9-6.7,18.3c-3,5.6-4.4,5.2-6.3,9.4c-3.5,7.9-0.4,13.2,0.4,24.9
		c0.9,12.1-1.1,27-5,27.7c-3.4,0.6-7.7-11.8-8.8-11.4c-1.2,0.5,9.1,16.4,4.2,31c-3.5,10.3-13.1,15.3-11.3,18.3
		c1.7,2.9,10-1.8,18.4,2.9c2.8,1.5,4.5,3.8,7.9,8.2c5.1,6.6,6.8,10.8,10.4,17.1c2.5,4.3,2,2.8,12.5,17.9c6.9,9.9,10.4,14.9,13.4,20
		c6.6,11.2,9.8,16.8,9.2,22c-1.3,10.3-12,16.7-17.5,20c-5.4,3.2-11.4,6.8-17.9,5.3c-5.2-1.2-6.7-4.5-12.1-4.5
		c-5.7,0-8.1,3.8-10.4,2.4c-3.1-1.8,0.6-8.2-2.9-15.5c-0.2-0.4-3.8-7.5-10.4-8.6c-6.2-1-11.5,3.6-13.4,5.3
		c-9.2,8.1-8.1,18.1-12.5,42.8c-4.4,24.6-9,34.3-4.6,37.1c3.6,2.3,11.1-1.3,15.4-5.7c7.4-7.5,3-15,10.4-24.9
		c0.9-1.2,8.2-10.9,15.9-9.4c6.6,1.3,11.8,10.6,10.4,17.9c-1.7,9.3-12.7,9.3-16.7,20.8c-0.4,1-3.5,10.4,1.7,17.9
		c4.3,6.3,11.9,7.5,17.9,8.6c5.8,1,15.4,2.6,20-2.4c2.8-3.1,1.1-5.7,4.2-18.3c1.4-5.7,2.5-10.1,4.2-10.2c2-0.1,4.2,5.7,5,10.6
		c1.3,7.8-1.6,11,0.8,13.9c2.7,3.1,9,2.6,12.9,0.8c0.8-0.4,7.3-3.3,7.5-9c0.1-3.9-2.8-7.4-5.8-9c-5-2.5-9.2,0.7-11.3-1.6
		c-1.9-2.2,0-7.5,2.5-10.6c2.9-3.6,5-2.6,7.1-5.7c1.8-2.6,1.4-4.9,1.3-14.3c-0.1-6.4-0.2-9.5,0-10.6c1-6.8,5.8-10.3,14.6-18.3
		c10.4-9.5,3.2-4.2,22.1-22c11.2-10.6,16.8-15.9,19.2-17.1c10-5.3,16.4-3.5,38.4-4.5c21.8-1,32.7-1.5,42.6-5.3
		c20.6-7.9,18-18.9,35.9-25.3c26-9.3,54.2,5.9,56.8,7.3c19.8,11,19.2,22.9,36.7,27.3c15.4,3.9,19.7-4.4,35.5-0.8
		c23.6,5.4,35.3,28.8,38,26.9c2.4-1.7-8.3-20.2-11.3-25.3c-9.9-16.9-15-22-23.8-36.7c-8.4-14.1-12.7-21.2-14.6-28.9
		c-6.7-26.6,8.3-43-1.3-52.2c-4.7-4.6-12.4-4.4-25-4.1c-15,0.4-17.7,4.6-28,2.9c-8.8-1.5-21.4-7.1-22.5-15.1
		c-1.1-7.7,9.3-11.8,9.2-24.1c0-3-0.1-7.6-2.9-9.4c-2.1-1.3-5.9-1.3-30.5,12.2c-7.1,3.9-10.4,5.9-13.4,4.5c-3.6-1.8-2.6-7-8.3-13.9
		c-2.5-3-4.1-4.9-6.7-5.3c-5.4-0.8-7.6,6.8-16.3,11.4c-7.1,3.8-14.3,3.4-23,2.9c-13.7-0.8-13.3-4.6-21.7-4.5
		c-15.5,0.2-19.6,13.2-44.7,20c-6.8,1.8-11.1,2.1-14.6,0c-6.5-3.9-1.3-13.9-6.7-18.8c-8.1-7.3-26.5,7.9-36.3,0.4
		c-7.1-5.4-4.1-18.4-9.6-19.6c-3.5-0.7-5.1,4.4-9.6,4.5C177.6,236.5,172.5,216.7,168,217.6z"/>
	<ellipse class="st9" cx="185.5" cy="256" rx="14.2" ry="13.8"/>
	<ellipse class="st10" cx="439.8" cy="135.7" rx="14.2" ry="13.8"/>
	<ellipse class="st10" cx="763.1" cy="262" rx="14.2" ry="13.8"/>
	<ellipse class="st11" cx="670.1" cy="109.7" rx="14.2" ry="13.8"/>
	<ellipse class="st12" cx="130.6" cy="149.5" rx="14.2" ry="13.8"/>
	<ellipse class="st10" cx="222.2" cy="301" rx="8" ry="7.8"/>
	<ellipse class="st10" cx="262.9" cy="265.9" rx="8" ry="7.8"/>
	<ellipse class="st10" cx="294.4" cy="318.3" rx="7.5" ry="6.9"/>
	<ellipse class="st7" cx="396.7" cy="308.8" rx="15.1" ry="11.3"/>
	<ellipse class="st10" cx="456" cy="408.7" rx="5.3" ry="6.5"/>
	<ellipse class="st10" cx="228.4" cy="543.7" rx="5.3" ry="6.5"/>
	<ellipse class="st10" cx="573.9" cy="532.5" rx="5.3" ry="6.5"/>
	<ellipse class="st10" cx="804.2" cy="364.6" rx="5.3" ry="6.5"/>
	<ellipse class="st10" cx="803.3" cy="241.7" rx="5.3" ry="6.5"/>
	<ellipse class="st10" cx="490.6" cy="359.4" rx="7.1" ry="6.5"/>
	<ellipse class="st10" cx="490.6" cy="303.1" rx="4.4" ry="5.6"/>
	<ellipse class="st10" cx="564.6" cy="276.3" rx="6.6" ry="5.6"/>
	<ellipse class="st10" cx="602.2" cy="229.1" rx="5.3" ry="6.1"/>
	<ellipse class="st10" cx="407.3" cy="230.9" rx="5.3" ry="6.1"/>
	<ellipse class="st10" cx="491" cy="211.8" rx="4.9" ry="3.5"/>
	<ellipse class="st10" cx="544.6" cy="465.8" rx="5.3" ry="3.9"/>
	<ellipse class="st13" cx="635.9" cy="450.7" rx="11.8" ry="13.8"/>
	<ellipse class="st14" cx="298.8" cy="499.6" rx="12.8" ry="11.7"/>
	<ellipse class="st5" cx="126.5" cy="397.5" rx="11.5" ry="10.8"/>
	<ellipse class="st10" cx="59.1" cy="309.6" rx="12.4" ry="14.7"/>
</g>
<title>IPAD 2</title>
<desc>Created with Sketch.</desc>
<g id="Laptop" transform="translate(1.000000, 1.000000)" sketch:type="MSLayerGroup">
	<path id="bezel_1_" sketch:type="MSShapeGroup" class="st15" d="M707,152.6H211c-13.5,0-25,11.1-25,24.8v326.2h546V177.4
		C732,163.7,720.6,152.6,707,152.6z"/>
	<circle id="webcam" sketch:type="MSShapeGroup" class="st16" cx="460" cy="171.6" r="4">
	</circle>
	<g id="bottom" transform="translate(0.000000, 351.000000)" sketch:type="MSShapeGroup">
		<path id="Shape" class="st17" d="M753.9,183.6H164.4c-30.6,0-51.3-10.5-51.3-15V155c0-1.3,1.3-2.4,3-2.4h686c1.7,0,3,1.1,3,2.4
			v14.1C805.1,172.7,789.2,183.6,753.9,183.6z"/>
		<path id="Line" class="st18" d="M113.5,167.1h689.8"/>
	</g>
	<rect id="screen_1_" x="208" y="191.6" sketch:type="MSShapeGroup" class="st19" width="501.1" height="292">
	</rect>
	<path id="touchpad" sketch:type="MSShapeGroup" class="st20" d="M534,504.6v3.1c0,2.2-4.3,2.9-7.6,2.9H391.8
		c-3.5,0-7.8-0.7-7.8-2.9v-3.1"/>
</g>
<g id="Page-1_1_" sketch:type="MSPage">
	<g id="WINNER" transform="translate(0.000000, -177.000000)" sketch:type="MSArtboardGroup">
		<g id="header" transform="translate(-36.000000, -166.000000)" sketch:type="MSLayerGroup">
			<g id="backgroun" transform="translate(9.000000, 157.000000)" sketch:type="MSShapeGroup">
				<g id="graph" transform="translate(-83.000000, 3.000000)">
					<g transform="translate(110.000000, 184.000000)">
						<path id="Path-539" class="st21" d="M210,457c0,0,33.5-39.5,63.9-38c30.5,1.6,52.1,24.8,74.8,24.8s47.1-39.4,73-39.4
							s52.4,36.1,71.8,29.3c19.4-6.8,50-50.7,57.8-65.5c7.7-14.8,42.8-58.1,87.6-67.8s63.1-29.1,69.2-46.3v227.6H210V457z"/>
						<path id="Path-539_1_" class="st22" d="M210,457c0,0,33.5-39.5,63.9-38c30.5,1.6,52.1,24.8,74.8,24.8s47.1-39.4,73-39.4
							s52.4,36.1,71.8,29.3c19.4-6.8,50-50.7,57.8-65.5c7.7-14.8,42.8-58.1,87.6-67.8s63.1-28.9,69.2-46.3"/>
						<g id="graph-dots" transform="translate(167.000000, 116.000000)">
							<ellipse id="Oval-60" class="st23" cx="103.6" cy="302.7" rx="2.8" ry="2.8"/>
							<ellipse id="Oval-60_1_" class="st24" cx="182.8" cy="327.4" rx="2.8" ry="2.8"/>
							<ellipse id="Oval-60_2_" class="st25" cx="253" cy="288.1" rx="2.8" ry="2.8"/>
							<ellipse id="Oval-60_3_" class="st26" cx="321.8" cy="318.7" rx="2.8" ry="2.8"/>
							<ellipse id="Oval-60_4_" class="st27" cx="388.2" cy="245.6" rx="2.8" ry="2.8"/>
							<ellipse id="Oval-60_5_" class="st28" cx="484.7" cy="181.3" rx="2.8" ry="2.8"/>
						</g>
					</g>
				</g>
			</g>
		</g>
	</g>
</g>
<rect x="575.4" y="-9.4" class="st29" width="237.2" height="158.2"/>
<path class="st30" d="M646.4,82.4L646.4,82.4c-4.6-2.3-6.8-5.5-7.1-10c-0.3-4.7,1.5-8.1,5.6-10.7c1.5-1,2-3,1-4.5c0,0,0-0.1-0.1-0.1
	c-1.3-2.1-3.1-3.8-5.2-5.1c-3.2-2-6.9-3-10.7-3c1.3-1.5,2.3-3.2,3-5.1c1-2.5,1.4-5.2,1.2-7.9c-0.1-1.7-1.6-3-3.3-3h-0.9
	c-0.3,0-0.7,0-1,0.1c-4.5,0.9-8.4,3.3-11.2,6.9c-2.5,3-3.8,6.9-3.7,10.8l-1.8-0.6c-1.8-0.6-3.7-1-5.6-1c-3.5,0-7,1.1-9.9,3
	c-4,2.6-6.8,6.4-8.6,11.5c-1.3,4-1.3,7.9-1.1,11.3c0.1,2.5,0.6,5.1,1.3,7.5c1.6,5.9,4.3,11.5,8.1,16.4c1.4,1.9,3,3.5,4.8,5
	s4.1,2.3,6.5,2.3l0,0c1,0,2.1-0.2,3-0.5c1.5-0.5,3-1,4.1-1.4c2.3-1,5-1.1,7.4-0.2l1,0.4c0.8,0.3,1.6,0.6,2.4,0.9
	c2.4,0.9,5,1,7.4,0.2c2.2-0.7,4.2-2,5.7-3.8c3.5-3.8,6.3-8.3,8.3-13.1c0.2-0.6,0.4-1.1,0.6-1.7l0.3-0.7
	C648.5,84.9,647.9,83.2,646.4,82.4z"/>
<path class="st30" d="M725.9,60.1c-0.6-4-4.4-6.7-8.4-6c-0.3,0.1-0.6,0.1-0.9,0.2c-0.4,0.1-0.7,0.3-1.1,0.4v-0.4c0-0.2,0-0.4,0-0.6
	c-0.3-2.3-1.1-4.5-2.2-6.5c-1.4-2.5-3.4-4.6-5.8-6.2l1.3-1.8c1.3-1.7,1-4.1-0.7-5.4c-0.2-0.1-0.4-0.3-0.6-0.4l-0.8-0.5H705l-0.6,0.2
	c-0.9,0.3-1.6,1-2.2,1.8l-1.9,2.8c-1-0.3-2.1-0.5-3.1-0.6c-3.1-0.4-6.3-0.2-9.3,0.6l-1.9-2.8c-0.5-0.8-1.3-1.5-2.3-1.8l-0.5-0.2h-2
	l-0.9,0.8c-0.4,0.3-0.8,0.7-1,1.2c-0.7,1.3-0.6,3,0.3,4.1l1.3,1.9c-4.1,2.7-7,7-7.9,11.9c-0.1,0.3-0.1,0.6-0.1,0.9l-0.1,0.8
	c-1.5-0.7-3.2-0.9-4.8-0.5c-3.3,0.8-5.6,3.7-5.7,7.1c0,1.9,0,3.8,0,5.7v4.3c0,2,0,4,0,6.1c0,0.6,0.1,1.1,0.2,1.7
	c0.8,3.9,4.7,6.4,8.6,5.6c0.6-0.1,1.2-0.3,1.8-0.6v2.7c0,3.5,2.8,6.4,6.3,6.5h0.1h0.3c0,1.9,0,3.7,0,5.6c0,0.5,0.1,1.1,0.2,1.6
	c0.8,4,4.6,6.5,8.6,5.7c3.1-0.6,5.4-3.1,5.8-6.2c0,0.1,0,0.2,0.1,0.4c0.5,2.8,2.6,5,5.4,5.7c0.6,0.2,1.3,0.2,1.9,0.2
	c2.2,0,4.2-1,5.5-2.7c1.1-1.4,1.7-3.1,1.7-4.8c0-1.9,0-3.7,0-5.5h0.5c0.4,0,0.9-0.1,1.3-0.2c3-0.7,5.1-3.3,5-6.4V84
	c2.1,1,4.5,0.9,6.5-0.2c2.5-1.3,4-3.9,3.9-6.7v-9.7c0-2,0-4.1,0-6.1C726,61.1,726,60.6,725.9,60.1z"/>
<path class="st30" d="M800.7,71.3c0-0.5-0.1-1-0.4-1.5c0.2-0.5,0.3-1,0.3-1.5V42.9c0-1.8-1.5-3.3-3.3-3.3c-0.2,0-0.3,0-0.5,0
	l-28.9,4.2c-0.5,0.1-0.9,0.2-1.3,0.5c-0.2-0.1-0.5-0.1-0.7-0.1c-0.3,0-0.4,0-17.2,2.3h-0.3l-4.9,0.7c-1.6,0.2-2.8,1.6-2.8,3.2
	c0,0.9,0,6.4,0,11.2v7c0,0.4,0.1,0.7,0.2,1.1c-0.1,0.4-0.2,0.7-0.2,1.1V89c0,1.6,1.2,3,2.8,3.2l21.7,3c0.5,0.1,1,0,1.4-0.1
	c0.4,0.2,0.8,0.4,1.2,0.5l29,4c0.2,0,0.3,0,0.5,0c1.8,0,3.3-1.5,3.3-3.3l0,0L800.7,71.3z"/>
<path class="st31" d="M643.2,59c-5.1,3.2-7.6,7.7-7.2,13.6c0.4,6,3.6,10,8.9,12.7c-0.3,0.8-0.5,1.5-0.9,2.3
	c-1.8,4.5-4.4,8.6-7.6,12.1c-1.1,1.3-2.6,2.3-4.3,2.9c-1.8,0.5-3.7,0.4-5.4-0.2c-1.1-0.4-2.2-0.8-3.3-1.2c-3.1-1.2-6.6-1.1-9.7,0.2
	c-1.3,0.5-2.5,1-3.8,1.3c-2.3,0.7-4.8,0.2-6.6-1.3c-1.6-1.3-3-2.8-4.2-4.4c-3.5-4.5-6-9.7-7.5-15.2c-0.6-2.2-1-4.5-1.2-6.8
	c-0.2-3.4-0.1-6.8,1-10.1c1.2-4,3.7-7.5,7.2-9.8c2.4-1.6,5.3-2.5,8.2-2.5c1.5,0,3,0.3,4.5,0.8c1.6,0.5,3.2,1.1,4.7,1.7
	c1.2,0.5,2.5,0.5,3.7,0c1.8-0.7,3.7-1.4,5.6-1.9c4.7-1.5,9.3-0.7,13.4,1.9C640.6,55.9,642.1,57.3,643.2,59z"/>
<path class="st31" d="M631,36.3c0.2,2.2-0.1,4.4-1,6.4c-1.2,3-3.3,5.6-6,7.4c-1.8,1.1-3.9,1.7-6,1.6c-0.2,0-0.4-0.1-0.4-0.3v-0.1
	c-0.2-3.3,0.9-6.6,3-9.2c2.3-3,5.6-5,9.3-5.7c0.1,0,0.3,0,0.4,0L631,36.3L631,36.3z"/>
<path class="st31" d="M676.3,57.4H712c0.3,0,0.3,0,0.3,0.3c0,9.7,0,19.3,0,29c0.1,1.5-1,2.9-2.5,3.2c-0.2,0-0.4,0.1-0.6,0.1h-3.7
	c0,0.2,0,0.3,0,0.4c0,2.8,0,5.6,0,8.4c0,1-0.3,2-0.9,2.7c-1,1.3-2.6,1.8-4.1,1.4c-1.5-0.3-2.7-1.6-3-3.2c-0.1-0.3-0.1-0.7-0.1-1
	c0-2.8,0-5.6,0-8.5c0-0.3,0-0.3-0.3-0.3h-5.7c-0.3,0-0.3,0-0.3,0.3c0,2.9,0,5.8,0,8.8c0,2.2-1.8,4-4,4.1c-1.9,0-3.6-1.4-4-3.3
	c-0.1-0.3-0.1-0.7-0.1-1c0-2.8,0-5.7,0-8.5c0-0.3,0-0.3-0.3-0.3h-3.2c-1.7,0-3.2-1.4-3.2-3.2c0-9.7,0-19.4,0-29.1L676.3,57.4
	L676.3,57.4z"/>
<g id="Page-1" sketch:type="MSPage">
	<g id="IPAD" transform="translate(681.000000, 55.000000)" sketch:type="MSLayerGroup">
		<path id="bezel" sketch:type="MSShapeGroup" class="st32" d="M-298.2,326.7l-0.2,190.9c0,6.6-5.4,12-12,12l-292.9-0.3
			c-6.6,0-12-5.4-12-12l0.2-190.9c0-6.6,5.4-12,12-12l292.9,0.3C-303.6,314.6-298.2,320-298.2,326.7z"/>
		<path id="bezel-2" sketch:type="MSShapeGroup" class="st33" d="M-615.6,516.8l0.7-190.9c0-6.6,5.4-12,12.1-12l292.9,1.1
			c6.6,0,12,5.4,12,12.1l-0.7,190.9c0,6.6-5.4,12-12.1,12l-292.9-1.1C-610.3,528.8-615.6,523.4-615.6,516.8z"/>
		<rect id="screen" x="-583.272" y="330.433" sketch:type="MSShapeGroup" class="st34" width="252.9" height="182">
		</rect>
		<g id="Page-1_2_" sketch:type="MSPage">
			<g id="WINNER_1_" transform="translate(0.000000, -177.000000)" sketch:type="MSArtboardGroup">
				<g id="header_1_" transform="translate(-36.000000, -166.000000)" sketch:type="MSLayerGroup">
					<g id="backgroun_1_" transform="translate(9.000000, 157.000000)" sketch:type="MSShapeGroup">
						<g id="graph_1_" transform="translate(-83.000000, 3.000000)">
							<g transform="translate(110.000000, 184.000000)">
								<path id="Path-539_3_" class="st21" d="M-582.886,498.389c0,0,16.923-20.117,32.353-19.317
									c15.43,0.801,26.38,12.611,37.828,12.611s23.792-20.017,36.932-20.017c13.041,0,26.479,18.316,36.335,14.913
									c9.756-3.403,25.285-25.822,29.267-33.329c3.882-7.507,21.602-29.526,44.298-34.43c22.697-4.904,31.855-14.813,35.04-23.52
									V511h-251.953v-12.611L-582.886,498.389L-582.886,498.389z"/>
								<path id="Path-539_2_" class="st22" d="M-582.886,498.389c0,0,16.923-20.117,32.353-19.317
									c15.43,0.801,26.38,12.611,37.828,12.611s23.792-20.017,36.932-20.017c13.041,0,26.479,18.316,36.335,14.913
									c9.756-3.403,25.285-25.822,29.267-33.329c3.882-7.507,21.602-29.526,44.298-34.43c22.697-4.904,31.855-14.713,35.04-23.52"
									/>
								<g id="graph-dots_1_" transform="translate(167.000000, 116.000000)">
									<ellipse id="Oval-60_11_" class="st23" cx="-719.325" cy="362.872" rx="1.394" ry="1.401"/>
									<ellipse id="Oval-60_10_" class="st24" cx="-679.208" cy="375.483" rx="1.394" ry="1.401"/>
									<ellipse id="Oval-60_9_" class="st25" cx="-643.669" cy="355.466" rx="1.394" ry="1.401"/>
									<ellipse id="Oval-60_8_" class="st26" cx="-608.928" cy="371.079" rx="1.394" ry="1.401"/>
									<ellipse id="Oval-60_7_" class="st27" cx="-575.281" cy="333.847" rx="1.394" ry="1.401"/>
									<ellipse id="Oval-60_6_" class="st28" cx="-526.503" cy="301.119" rx="1.394" ry="1.401"/>
								</g>
							</g>
						</g>
					</g>
				</g>
			</g>
		</g>
		<circle id="lock" sketch:type="MSShapeGroup" class="st35" cx="-315.3" cy="421.6" r="8">
		</circle>
		<circle id="camera" sketch:type="MSShapeGroup" class="st35" cx="-598.3" cy="422.3" r="3">
		</circle>
	</g>
</g>
<path class="st31" d="M665.7,69.4c0-2.7,0-5.4,0-8.1c0-2.2,1.9-4,4.1-3.9c1.9,0,3.5,1.3,3.9,3.2c0.1,0.3,0.1,0.6,0.1,0.9
	c0,5.4,0,10.8,0,16.2c0,1.9-1.4,3.6-3.2,4c-2.2,0.4-4.3-0.9-4.7-3.1c-0.1-0.3-0.1-0.7-0.1-1C665.7,74.7,665.7,72.1,665.7,69.4z"/>
<path class="st31" d="M722.8,69.4c0,2.6,0,5.3,0,7.9c0.1,2.2-1.6,4.1-3.8,4.2c-2,0.1-3.8-1.3-4.2-3.3c-0.1-0.3-0.1-0.7-0.1-1
	c0-5.3,0-10.5,0-15.8c-0.1-1.8,1.1-3.5,2.9-4c2.1-0.6,4.4,0.6,5,2.7c0,0.1,0.1,0.3,0.1,0.5c0,0.3,0.1,0.6,0.1,1
	C722.8,64.2,722.8,66.8,722.8,69.4z"/>
<path class="st31" d="M712.2,54.2c-0.2-1.9-0.9-3.7-1.8-5.3c-1.7-2.9-4.2-5.2-7.3-6.6l-0.3-0.2l0.2-0.3l3.1-4.5
	c0.3-0.2,0.3-0.6,0.1-0.9c-0.1-0.1-0.2-0.2-0.3-0.2h-0.1c-0.3,0.1-0.5,0.3-0.6,0.6c-1,1.5-2.1,3-3.1,4.5c-0.1,0.2-0.3,0.3-0.5,0.2
	l0,0c-1.5-0.6-3-0.9-4.5-1.1c-1.4-0.2-2.7-0.2-4.1-0.1c-2,0.1-4,0.6-5.8,1.3c-0.1,0.1-0.3,0-0.4-0.1l0,0c-1-1.5-2.1-3-3.2-4.6
	c-0.1-0.2-0.4-0.4-0.6-0.5h-0.1c-0.1,0.1-0.3,0.2-0.4,0.4c-0.1,0.2,0,0.5,0.2,0.7l3.1,4.5l0.2,0.3l-0.2,0.1
	c-0.8,0.5-1.7,0.9-2.5,1.4c-3.5,2.3-5.9,5.8-6.6,9.9c-0.1,0.4-0.1,0.7-0.2,1.1h36l0,0C712.3,54.5,712.3,54.3,712.2,54.2z
	 M686.6,49.8c-1.1,0-2-0.9-2-2s0.9-2,2-2s2,0.9,2,2C688.7,48.8,687.8,49.7,686.6,49.8C686.7,49.8,686.6,49.8,686.6,49.8L686.6,49.8z
	 M704.1,47.9c0,0.1,0,0.2,0,0.3v0.1c0,0.1-0.1,0.3-0.2,0.4l-0.1,0.2l-0.1,0.2l-0.1,0.1l-0.1,0.1l-0.1,0.1c-0.1,0.1-0.2,0.1-0.2,0.2
	h-0.1c-0.2,0.1-0.3,0.1-0.5,0.2c-0.1,0-0.3,0-0.4,0H702c-0.6-0.1-1.2-0.4-1.5-1v-0.1c-0.1-0.2-0.2-0.4-0.2-0.7c0-0.1,0-0.2,0-0.3
	c0-0.4,0.1-0.9,0.4-1.2l0.1-0.2c0.1-0.1,0.2-0.2,0.3-0.3c0.3-0.3,0.8-0.4,1.2-0.4l0,0c1.1,0,2,0.9,2,2
	C704.2,47.8,704.1,47.8,704.1,47.9z"/>
<path class="st31" d="M797.4,68.3l-28.9,0.2V47.2l28.9-4.2V68.3L797.4,68.3z"/>
<path class="st31" d="M744.1,50.5c0.4,0,21.8-2.9,21.8-2.9s0,13.9,0,20.8c0,0.2,0,0.2-0.2,0.2l-21.6,0.1
	C744.1,68.6,744.1,52,744.1,50.5z"/>
<polygon class="st31" points="797.5,96.5 768.5,92.4 768.5,71.2 797.5,71.2 "/>
<polygon class="st31" points="765.9,92.1 744.1,89 744.1,70.9 765.9,71 "/>
<g>
	<rect x="216.9" y="184.8" class="st36" width="70.9" height="70.9"/>
	<g>
		
			<linearGradient id="SVGID_1_" gradientUnits="userSpaceOnUse" x1="223.1" y1="164.8" x2="275.9233" y2="164.8" gradientTransform="matrix(1 0 0 1 0 56)">
			<stop  offset="0" style="stop-color:#61C099"/>
			<stop  offset="0.25" style="stop-color:#31BDBE"/>
			<stop  offset="0.75" style="stop-color:#31BDBE"/>
			<stop  offset="1" style="stop-color:#2CBBED"/>
		</linearGradient>
		<path class="st37" d="M275,223.6c-0.6,0.8-1.3,1.4-2.2,1.9s-1.9,0.8-2.9,0.9c-1.1,0.2-2.1,0.2-3,0.2h-0.6c-0.2,0-0.4,0-0.6,0v0.2
			c0,0.5,0.1,1,0.3,1.4s0.4,0.7,0.7,1s0.6,0.5,0.9,0.6s0.7,0.2,1,0.2c1,0,1.8-0.2,2.5-0.7c0.7-0.4,1.3-1,1.7-1.6
			c1.2,0.6,1.8,1.3,1.8,2.2c0,0.5-0.1,0.9-0.4,1.3c-0.3,0.4-0.6,0.6-0.9,0.9c-0.5,0.4-1.2,0.7-2,1s-1.9,0.5-3.2,0.5
			s-2.4-0.2-3.2-0.6c-0.9-0.4-1.6-0.9-2.1-1.5s-0.9-1.4-1.2-2.2c-0.2-0.8-0.4-1.7-0.4-2.6c0-1.4,0.2-2.8,0.7-4.1
			c0.4-1.3,1.1-2.4,1.9-3.4s1.8-1.7,3-2.3s2.6-0.9,4.1-0.9c0.8,0,1.5,0.1,2.2,0.4c0.6,0.2,1.2,0.6,1.6,0.9c0.4,0.4,0.8,0.9,1,1.4
			s0.3,1.1,0.3,1.8C275.9,221.7,275.6,222.8,275,223.6 M271.3,220c-0.2-0.3-0.6-0.4-1.2-0.4c-1,0-1.9,0.4-2.5,1.2
			c-0.7,0.8-1.2,1.9-1.5,3.2c0.2,0,0.4,0,0.5,0h0.5c0.5,0,1.1-0.1,1.6-0.2s1-0.3,1.5-0.5c0.4-0.2,0.8-0.6,1.1-0.9
			c0.3-0.4,0.4-0.8,0.4-1.3C271.6,220.6,271.5,220.2,271.3,220 M260.5,230.7c0.6,1,1.1,2,1.7,2.4c-0.8,0-2.9,0-3.1,0
			c-1.1,0-2.2,0-3.1-1.2c-0.5-0.8-3.5-6.6-3.7-7.1l-1.3,7.8c0,0.3-0.2,0.5-0.5,0.5h-3.7c-0.3,0-0.5-0.2-0.5-0.5l4.1-24.3
			c0.3,0,1.6-0.1,1.8-0.1c0.9,0,1.6,0.2,2,0.7s0.5,0.9,0.5,1.6c0,0.1-0.1,0.8-0.1,0.9l-2,11.8c0.1-0.3,4.9-5.8,4.9-5.8
			c0.4-0.5,0.8-0.8,1.2-1s0.9-0.3,1.5-0.3s1.1,0.1,1.5,0.4c0.4,0.2,0.8,0.5,1.1,0.9l-6,6.6C256.8,224,259.8,229.6,260.5,230.7
			 M244.9,213.5c-0.8,0-1.3-0.2-1.7-0.7s-0.6-1-0.6-1.7c0-1,0.3-1.7,0.8-2.3c0.6-0.5,1.2-0.8,2-0.8c0.7,0,1.3,0.2,1.7,0.7
			s0.6,1.1,0.6,1.8c0,0.9-0.3,1.6-0.8,2.1C246.4,213.3,245.7,213.5,244.9,213.5 M243.8,216.3c1,0,1.6,0.2,2.1,0.7
			c0.4,0.5,0.7,1,0.6,1.7c0,0.1-0.1,0.7-0.1,0.8l-2.2,13.1c0,0.3-0.2,0.5-0.5,0.5H240c-0.3,0-0.5-0.2-0.5-0.5l2.7-16.1
			C242.4,216.4,243.6,216.3,243.8,216.3 M238.9,223.2l-1.6,9.4c0,0.3-0.2,0.5-0.5,0.5h-3.7c-0.3,0-0.5-0.2-0.5-0.5l1.7-10v-0.1
			c0-0.2,0.1-0.5,0.1-0.7c0-0.5-0.1-1-0.4-1.4c-0.2-0.4-0.7-0.6-1.5-0.6s-1.4,0.3-2,0.9c-0.5,0.5-0.8,1.2-1,1.9l-1.7,9.9
			c0,0.3-0.2,0.5-0.5,0.5h-3.7c-0.3,0-0.5-0.2-0.5-0.5l4.1-24.3c0.3,0,1.4-0.1,1.6-0.1c1,0,1.7,0.2,2.1,0.7c0.7,0.7,0.6,2,0.6,2.1
			s0,0.3-0.1,0.4l-1.1,6.5c0.5-0.5,1.1-1,1.9-1.4c0.7-0.4,1.6-0.6,2.7-0.6c1.1,0,1.9,0.2,2.6,0.7c0.7,0.5,1.1,1.1,1.4,1.8
			c0.2,0.7,0.4,1.4,0.4,2.3c0,0.4-0.1,0.8-0.1,1.2C239,222.4,238.9,222.8,238.9,223.2"/>
		
			<linearGradient id="SVGID_2_" gradientUnits="userSpaceOnUse" x1="257.1977" y1="160.4456" x2="281.8535" y2="160.4456" gradientTransform="matrix(1 0 0 1 0 56)">
			<stop  offset="0" style="stop-color:#61C099"/>
			<stop  offset="0.25" style="stop-color:#31BDBE"/>
			<stop  offset="0.75" style="stop-color:#31BDBE"/>
			<stop  offset="1" style="stop-color:#2CBBED"/>
		</linearGradient>
		<path class="st38" d="M275.5,211.2c-0.4,0-0.9,0.1-1.3,0.2l0,0c-0.7-2.6-3-4.3-5.7-4.5c-3.3-0.2-5.2,3.1-5.3,3.4
			c-2.9-1.6-6.1,0.7-6,4.6h0.2c0.2-4.2,3.9-5,5.6-4c-0.2,0.7-0.4,1.4-0.4,2.1c0,0.3,0,0.6,0.1,0.8h0.1c0-1,0.2-1.9,0.6-2.8
			c0.1-0.2,0.2-0.4,0.3-0.5l0,0c1-1.8,2.7-3,4.6-3c2.3,0,4.3,1.7,5.1,4.1l0,0c0.1,0.3,0.2,0.6,0.2,1c0.3-0.1,0.5-0.2,0.8-0.3
			c0.4-0.1,0.7-0.1,1.1-0.1c3.1,0,5.6,3.3,5.6,7.3c0,2.7-1.1,5-2.8,6.3v0.2c0,0,0.1,0,0.1-0.1c2.1-1.3,3.5-3.9,3.5-6.9
			C281.9,214.7,279,211.2,275.5,211.2"/>
	</g>
</g>
<g>
	<rect x="103.2" y="380.9" class="st36" width="48.2" height="48.2"/>
	<g>
		
			<linearGradient id="SVGID_3_" gradientUnits="userSpaceOnUse" x1="107.4505" y1="349.45" x2="143.3703" y2="349.45" gradientTransform="matrix(1 0 0 1 0 56)">
			<stop  offset="0" style="stop-color:#61C099"/>
			<stop  offset="0.25" style="stop-color:#31BDBE"/>
			<stop  offset="0.75" style="stop-color:#31BDBE"/>
			<stop  offset="1" style="stop-color:#2CBBED"/>
		</linearGradient>
		<path class="st39" d="M142.8,407.3c-0.4,0.6-0.9,1-1.5,1.3s-1.3,0.5-2,0.6s-1.4,0.2-2,0.2h-0.4c-0.1,0-0.3,0-0.4,0v0.1
			c0,0.4,0.1,0.7,0.2,1c0.1,0.3,0.3,0.5,0.5,0.7s0.4,0.3,0.6,0.4s0.5,0.1,0.7,0.1c0.7,0,1.2-0.2,1.7-0.5s0.9-0.7,1.2-1.1
			c0.8,0.4,1.2,0.9,1.2,1.5c0,0.3-0.1,0.6-0.3,0.9c-0.2,0.2-0.4,0.4-0.6,0.6c-0.4,0.2-0.8,0.5-1.4,0.7c-0.6,0.2-1.3,0.3-2.2,0.3
			s-1.6-0.1-2.2-0.4c-0.6-0.3-1.1-0.6-1.4-1.1c-0.4-0.4-0.6-0.9-0.8-1.5s-0.2-1.2-0.2-1.8c0-1,0.2-1.9,0.5-2.8s0.7-1.7,1.3-2.3
			c0.6-0.7,1.2-1.2,2.1-1.6c0.8-0.4,1.7-0.6,2.8-0.6c0.6,0,1.1,0.1,1.5,0.2c0.4,0.2,0.8,0.4,1.1,0.6c0.3,0.3,0.5,0.6,0.7,1
			s0.2,0.8,0.2,1.2C143.4,406,143.2,406.7,142.8,407.3 M140.2,404.8c-0.2-0.2-0.4-0.3-0.8-0.3c-0.7,0-1.3,0.3-1.7,0.8
			c-0.5,0.5-0.8,1.3-1,2.2c0.1,0,0.3,0,0.4,0h0.3c0.4,0,0.7,0,1.1-0.1c0.4-0.1,0.7-0.2,1-0.4c0.3-0.2,0.5-0.4,0.7-0.6
			s0.3-0.5,0.3-0.9C140.5,405.2,140.4,405,140.2,404.8 M132.9,412.1c0.4,0.7,0.7,1.4,1.1,1.6c-0.5,0-2,0-2.1,0c-0.7,0-1.5,0-2.1-0.8
			c-0.4-0.6-2.4-4.5-2.5-4.8l-0.9,5.3c0,0.2-0.2,0.4-0.4,0.4h-2.5c-0.2,0-0.4-0.2-0.4-0.4l2.8-16.5c0.2,0,1.1-0.1,1.2-0.1
			c0.6,0,1.1,0.2,1.4,0.5s0.4,0.6,0.4,1.1c0,0.1,0,0.5-0.1,0.6l-1.3,8c0.1-0.2,3.4-4,3.4-4c0.3-0.3,0.6-0.5,0.8-0.7
			c0.3-0.1,0.6-0.2,1-0.2s0.8,0.1,1,0.2c0.3,0.2,0.5,0.4,0.8,0.6l-4.1,4.5C130.4,407.5,132.4,411.4,132.9,412.1 M122.3,400.4
			c-0.5,0-0.9-0.2-1.2-0.5s-0.4-0.7-0.4-1.1c0-0.7,0.2-1.2,0.6-1.5c0.4-0.4,0.8-0.5,1.4-0.5c0.5,0,0.9,0.2,1.2,0.5s0.4,0.7,0.4,1.2
			c0,0.6-0.2,1.1-0.6,1.5C123.3,400.2,122.9,400.4,122.3,400.4 M121.6,402.3c0.7,0,1.1,0.2,1.4,0.5s0.5,0.7,0.4,1.2
			c0,0.1-0.1,0.5-0.1,0.6l-1.5,8.9c0,0.2-0.2,0.4-0.4,0.4h-2.5c-0.2,0-0.4-0.2-0.4-0.4l1.8-11C120.6,402.4,121.4,402.3,121.6,402.3
			 M118.2,407l-1.1,6.4c0,0.2-0.2,0.4-0.4,0.4h-2.5c-0.2,0-0.4-0.2-0.4-0.4l1.1-6.8v-0.1c0-0.2,0.1-0.3,0.1-0.5
			c0-0.4-0.1-0.7-0.3-0.9c-0.2-0.3-0.5-0.4-1-0.4s-1,0.2-1.3,0.6s-0.5,0.8-0.7,1.3l-1.1,6.8c0,0.2-0.2,0.4-0.4,0.4h-2.5
			c-0.2,0-0.4-0.2-0.4-0.4l2.8-16.5c0.2,0,0.9-0.1,1.1-0.1c0.7,0,1.1,0.2,1.4,0.5c0.5,0.5,0.4,1.4,0.4,1.4c0,0.1,0,0.2,0,0.3
			l-0.7,4.4c0.4-0.4,0.8-0.7,1.3-0.9c0.5-0.3,1.1-0.4,1.9-0.4c0.7,0,1.3,0.2,1.7,0.5s0.8,0.7,0.9,1.2c0.2,0.5,0.2,1,0.2,1.5
			c0,0.3,0,0.6-0.1,0.8C118.3,406.4,118.2,406.7,118.2,407"/>
		
			<linearGradient id="SVGID_4_" gradientUnits="userSpaceOnUse" x1="130.6732" y1="346.2438" x2="147.4391" y2="346.2438" gradientTransform="matrix(1 0 0 1 0 56)">
			<stop  offset="0" style="stop-color:#61C099"/>
			<stop  offset="0.25" style="stop-color:#31BDBE"/>
			<stop  offset="0.75" style="stop-color:#31BDBE"/>
			<stop  offset="1" style="stop-color:#2CBBED"/>
		</linearGradient>
		<path class="st40" d="M143.1,398.8c-0.3,0-0.6,0-0.9,0.1l0,0c-0.5-1.8-2-2.9-3.9-3.1c-2.2-0.2-3.6,2.1-3.6,2.3
			c-1.9-1.1-4.2,0.5-4.1,3.1h0.1c0.1-2.9,2.7-3.4,3.8-2.7c-0.2,0.5-0.3,0.9-0.3,1.4c0,0.2,0,0.4,0,0.6h0.1c0-0.7,0.2-1.3,0.4-1.9
			c0.1-0.1,0.1-0.3,0.2-0.4l0,0c0.7-1.2,1.8-2,3.1-2c1.6,0,2.9,1.2,3.5,2.8l0,0c0.1,0.2,0.1,0.4,0.2,0.7c0.2-0.1,0.4-0.1,0.6-0.2
			c0.2-0.1,0.5-0.1,0.7-0.1c2.1,0,3.8,2.2,3.8,4.9c0,1.8-0.8,3.4-1.9,4.3v0.1c0,0,0,0,0.1,0c1.4-0.9,2.4-2.7,2.4-4.7
			C147.4,401.2,145.5,398.8,143.1,398.8"/>
	</g>
</g>
</svg>
