<?xml version="1.0" encoding="utf-8"?>
<!-- Generator: Adobe Illustrator 21.1.0, SVG Export Plug-In . SVG Version: 6.00 Build 0)  -->
<svg version="1.1" id="Layer_1" xmlns="http://www.w3.org/2000/svg" xmlns:xlink="http://www.w3.org/1999/xlink" x="0px" y="0px"
	 width="33.6px" height="40px" viewBox="0 0 33.6 40" style="enable-background:new 0 0 33.6 40;" xml:space="preserve">
<style type="text/css">
	.st0{fill:#FDFFFF;}
</style>
<g>
	<path class="st0" d="M21.9,3.4c-0.6,1.7-1.9,3.4-3.1,4.1C19.2,5.7,20.3,4.4,21.9,3.4 M24.6,11.4c1.8,0,3.2,0.5,4.6,1.8
		c-0.6,0.6-1.1,1.2-1.5,1.7c-2,2.8-2.4,6.3-1.3,9.7c0.8,2.4,2.3,4.3,4.2,5.5c-1.6,3.7-4.4,7.4-6.4,7.4c-0.9,0-1.7-0.3-2.8-0.6
		c-1.2-0.4-2.6-0.9-4.2-0.9c-1.7,0-3,0.5-4.2,1c-0.9,0.3-1.6,0.6-2.2,0.6c-3.5,0-8.5-9.3-8.5-15.9c0-4.9,2.3-10.1,7.3-10.1
		c1.4,0,2.8,0.4,4.1,0.8c1.2,0.3,2.3,0.6,3.2,0.6c1.1,0,2.3-0.4,3.5-0.7C21.9,11.8,23.2,11.4,24.6,11.4 M24.1,0.5
		c-5.1,1.2-7.6,4.7-7.7,9.6c1.1-0.1,1.9-0.2,2.4-0.4C21.8,8.7,24.9,4.1,24.1,0.5L24.1,0.5z M24.6,9.4c-3.1,0-5.7,1.6-7.6,1.6
		c-1.6,0-4.5-1.4-7.4-1.4c-6.1,0-9.3,5.9-9.3,12.1c0,6.9,5.2,17.9,10.5,17.9c2.1,0,3.9-1.6,6.4-1.6c2.6,0,4.6,1.5,7,1.5
		c4,0,7.7-6.8,8.9-10.5c-4.1-1.2-7.4-7.9-3.8-13c0.6-0.8,1.4-1.7,2.7-2.8C30.1,10.9,27.9,9.4,24.6,9.4L24.6,9.4z"/>
</g>
</svg>
