<?xml version="1.0" encoding="utf-8"?>
<!-- Generator: Adobe Illustrator 21.1.0, SVG Export Plug-In . SVG Version: 6.00 Build 0)  -->
<svg version="1.1" id="Layer_2" xmlns="http://www.w3.org/2000/svg" xmlns:xlink="http://www.w3.org/1999/xlink" x="0px" y="0px"
	 width="90px" height="72px" viewBox="0 0 90 72" enable-background="new 0 0 90 72" xml:space="preserve">
<path fill="#32BDB9" d="M63.4,53.7C57.1,53.6,52,48.5,52,42.1c0-3.5,1.5-6.7,4.2-8.9l0.5-0.4l-2.2-3.5L44.1,44.2
	c-0.1,0.2-0.4,0.3-0.6,0.3h-5.6l-0.1,0.6c-1.3,5.1-5.9,8.7-11.2,8.7c-6.4,0-11.5-5.2-11.5-11.5c0-3.1,1.2-6,3.4-8.1s5.1-3.4,8.1-3.4
	l0,0c1.8,0,3.5,0.4,5.1,1.2l0.6,0.3l4.3-6.1h-6.9c-0.4,0-0.8-0.3-0.8-0.8c0-0.4,0.3-0.8,0.8-0.8h8.1c0.2,0,0.4,0.2,0.4,0.4v2.7h15.2
	L48.5,20h-6.1c-0.2,0-0.4-0.2-0.4-0.4v-0.8c0-0.2,0.2-0.4,0.4-0.4h6.5c0.3,0,0.5,0.1,0.6,0.4L57.9,32l0.6-0.3
	c1.5-0.7,3.2-1.1,4.9-1.1l0,0c3.1,0,6,1.2,8.2,3.5c2.2,2.2,3.4,5.2,3.3,8.2c0,3-1.3,5.9-3.4,8C69.4,52.6,66.5,53.7,63.4,53.7
	C63.5,53.7,63.4,53.7,63.4,53.7z M56.8,34.8c-2.2,2-3.4,4.8-3.3,7.8c0.2,5.2,4.4,9.5,9.6,9.7c0.1,0,0.3,0,0.4,0c2.7,0,5.2-1,7.1-2.9
	s2.9-4.4,2.9-7.1c0-5.5-4.5-10-10-10c-1.3,0-2.6,0.3-3.9,0.8l-0.8,0.4l5.6,8.8c0.1,0.1,0.1,0.2,0,0.3c0,0.1,0,0.2-0.2,0.2l-0.6,0.4
	c-0.1,0-0.1,0.1-0.2,0.1c-0.1,0-0.3-0.1-0.3-0.2l-5.6-8.8L56.8,34.8z M26.5,32.2c-5.5,0-10,4.5-10,10s4.5,10,10,10
	c4.2,0,8-2.7,9.4-6.7l0.4-1H25c-0.3,0-0.5-0.2-0.7-0.4c-0.1-0.3-0.1-0.6,0-0.8l7-9.9L30.4,33C29.2,32.5,27.9,32.2,26.5,32.2z
	 M33.5,33l0.5,0.5c2.6,2.2,4.1,5.4,4.1,8.8V43h5l9.7-13.8H36.2L33.5,33z M26.5,43h10.1v-0.8c0-2.8-1.2-5.5-3.3-7.4l-0.6-0.6L26.5,43
	z"/>
</svg>
