<?xml version="1.0" encoding="utf-8"?>
<!-- Generator: Adobe Illustrator 23.0.2, SVG Export Plug-In . SVG Version: 6.00 Build 0)  -->
<svg version="1.1" id="Layer_1" xmlns="http://www.w3.org/2000/svg" xmlns:xlink="http://www.w3.org/1999/xlink" x="0px" y="0px"
	 width="50px" height="40px" viewBox="0 0 50 40" style="enable-background:new 0 0 50 40;" xml:space="preserve">
<style type="text/css">
	.st0{fill:#32BDB9;}
	.st1{fill:none;stroke:#32BDB9;stroke-width:1.3;stroke-linecap:round;stroke-miterlimit:10;}
</style>
<g>
	<g>
		<path class="st0" d="M40,6.6c1.5,0,2.7,1.2,2.7,2.7v2.5c-1.9-0.9-3.9-1.4-6-1.4c-7.5,0-13.5,6.1-13.5,13.5c0,1.9,0.4,3.7,1.1,5.4
			H7.2c-1.5,0-2.7-1.2-2.7-2.7V9.3c0-1.5,1.2-2.7,2.7-2.7L40,6.6 M40,5.3H7.2c-2.2,0-4,1.8-4,4v17.4c0,2.2,1.8,4,4,4h19.2
			c-1.3-1.9-2-4.3-2-6.7c0-6.8,5.5-12.2,12.2-12.2c2.8,0,5.3,0.9,7.3,2.4V9.3C44,7.1,42.2,5.3,40,5.3L40,5.3z"/>
	</g>
	<g>
		<line class="st1" x1="4.2" y1="11" x2="36.3" y2="11"/>
	</g>
	<line class="st1" x1="4.2" y1="16.2" x2="26.3" y2="16.2"/>
	<circle class="st1" cx="36.7" cy="23.9" r="10.1"/>
	<line class="st1" x1="36.7" y1="18.6" x2="36.7" y2="24.3"/>
	<line class="st1" x1="41.2" y1="24.7" x2="37.1" y2="24.7"/>
</g>
<polygon class="st0" points="26.3,16.5 4.5,16.5 4.5,11 32.7,11 "/>
</svg>
