<?xml version="1.0" encoding="utf-8"?>
<!-- Generator: Adobe Illustrator 21.1.0, SVG Export Plug-In . SVG Version: 6.00 Build 0)  -->
<svg version="1.1" id="Layer_1" xmlns="http://www.w3.org/2000/svg" xmlns:xlink="http://www.w3.org/1999/xlink" x="0px" y="0px"
	 width="45px" height="40px" viewBox="0 0 45 40" style="enable-background:new 0 0 45 40;" xml:space="preserve">
<style type="text/css">
	.st0{fill:#32BDB9;}
</style>
<path class="st0" d="M36.3,39.8c-2.6,0-4.8-2.2-4.8-4.8c0-0.9,0.2-1.7,0.7-2.4l0.2-0.3H20.2l0.2,0.4c0.4,0.7,0.6,1.6,0.6,2.3
	c0,2.6-2.2,4.8-4.8,4.8s-4.8-2.2-4.8-4.8c0-1.2,0.5-2.4,1.3-3.2l0.1-0.1L7.3,2.3H0.9C0.5,2.3,0.2,2,0.2,1.6V0.9
	c0-0.4,0.3-0.7,0.7-0.7h6.7c0.8,0,1.4,0.5,1.7,1.3L10,5.2h33.1c0.5,0,0.9,0.2,1.3,0.6c0.4,0.4,0.5,0.9,0.4,1.4l-3.4,16.3
	c-0.1,0.7-0.8,1.3-1.6,1.3H13.6l1,5.4h23.3c0.8,0,1.5,0.5,1.6,1.3l0,0l0,0c1,1,1.5,2.2,1.5,3.4c0.1,1.3-0.3,2.5-1.2,3.4
	C38.8,39.3,37.6,39.8,36.3,39.8z M36.3,32.3c-1.5,0-2.7,1.2-2.7,2.7s1.2,2.7,2.7,2.7S39,36.5,39,35C39,33.5,37.8,32.3,36.3,32.3z
	 M16.3,32.3c-1.5,0-2.7,1.2-2.7,2.7s1.2,2.7,2.7,2.7S19,36.5,19,35C19,33.5,17.8,32.3,16.3,32.3z M39.5,22.7l3.2-15.4H10.4l2.9,15.4
	H39.5z"/>
</svg>
