<?xml version="1.0" encoding="utf-8"?>
<!-- Generator: Adobe Illustrator 23.0.2, SVG Export Plug-In . SVG Version: 6.00 Build 0)  -->
<svg version="1.1" id="Layer_1" xmlns="http://www.w3.org/2000/svg" xmlns:xlink="http://www.w3.org/1999/xlink" x="0px" y="0px"
	 width="51.4px" height="40px" viewBox="0 0 51.4 40" style="enable-background:new 0 0 51.4 40;" xml:space="preserve">
<style type="text/css">
	.st0{fill:#32BDB9;}
	.st1{fill:none;stroke:#32BDB9;stroke-width:1.3;stroke-linecap:round;stroke-miterlimit:10;}
</style>
<g>
	<g>
		<path class="st0" d="M42.1,8.6c1.5,0,2.7,1.2,2.7,2.7v17.4c0,1.5-1.2,2.7-2.7,2.7H9.3c-1.5,0-2.7-1.2-2.7-2.7V11.3
			c0-1.5,1.2-2.7,2.7-2.7H42.1 M42.1,7.3H9.3c-2.2,0-4,1.8-4,4v17.4c0,2.2,1.8,4,4,4h32.8c2.2,0,4-1.8,4-4V11.3
			C46.1,9.1,44.3,7.3,42.1,7.3L42.1,7.3z"/>
	</g>
	<g>
		<line class="st1" x1="6.2" y1="13" x2="45.4" y2="13"/>
	</g>
	<line class="st1" x1="6.2" y1="18.2" x2="45.4" y2="18.2"/>
	<rect x="7.1" y="14.1" class="st0" width="37.2" height="3"/>
</g>
</svg>
