<?xml version="1.0" encoding="utf-8"?>
<!-- Generator: Adobe Illustrator 21.1.0, SVG Export Plug-In . SVG Version: 6.00 Build 0)  -->
<svg version="1.1" id="Capa_1" xmlns="http://www.w3.org/2000/svg" xmlns:xlink="http://www.w3.org/1999/xlink" x="0px" y="0px"
	 width="40px" height="40px" viewBox="0 0 40 40" enable-background="new 0 0 40 40" xml:space="preserve">
<path fill="#32BDB9" d="M34.5,39.4c-2.2,0-4.1-1.9-4.1-4.1c0-1.6,1-3.1,2.5-3.7l0.3-0.1v-4.6H21.3v4.5l0.2,0.1
	c1.6,0.6,2.6,2.1,2.6,3.8c0,2.2-1.9,4.1-4.1,4.1s-4.1-1.9-4.1-4.1c0-1.6,1-3.1,2.5-3.7l0.3-0.1v-4.6h-12v4.5l0.2,0.1
	c1.6,0.6,2.6,2.1,2.6,3.8c0,2.2-1.9,4.1-4.1,4.1c-2.2,0-4-1.8-4-4.1c0-1.6,1-3.1,2.5-3.7l0.3-0.1v-5.3c0-1,0.8-1.8,1.8-1.8h12.7
	v-4.5H12c-3.5,0-6.4-2.9-6.4-6.4c0-3.2,2.3-5.8,5.5-6.3l0.3,0l0.1-0.3c1-3.8,4.4-6.4,8.2-6.4c4.1,0,7.7,3.1,8.3,7.1l0.1,0.3L28.3,8
	h0.1c3.3,0,6,2.7,6,6s-2.7,6-6,6h-7.2v4.5H34c1,0,1.8,0.8,1.8,1.8v5.2l0.2,0.1c1.6,0.6,2.6,2.1,2.6,3.8
	C38.6,37.6,36.8,39.4,34.5,39.4z M12,9.7c-2.2,0-3.9,1.7-3.9,3.9s1.7,3.9,3.9,3.9h16.5c2,0,3.5-1.5,3.5-3.5s-1.5-3.5-3.5-3.5
	c-0.4,0-0.8,0.1-1.2,0.2l-0.1,0l-0.3,0c-0.4,0-0.8-0.2-1.1-0.5c-0.3-0.4-0.3-0.8-0.3-1.1V8.9c0-3.3-2.6-5.9-5.9-5.9
	c-3,0-5.5,2.3-5.9,5.3c0,0.3-0.2,1.2-1.3,1.3l-0.1,0l-0.2,0.1H12z"/>
</svg>
