<?xml version="1.0" encoding="utf-8"?>
<!-- Generator: Adobe Illustrator 21.1.0, SVG Export Plug-In . SVG Version: 6.00 Build 0)  -->
<svg version="1.1" id="Layer_1" xmlns="http://www.w3.org/2000/svg" xmlns:xlink="http://www.w3.org/1999/xlink" x="0px" y="0px"
	 width="53.3px" height="40px" viewBox="0 0 53.3 40" style="enable-background:new 0 0 53.3 40;" xml:space="preserve">
<style type="text/css">
	.st0{fill:#32BDB9;}
</style>
<path class="st0" d="M1.2,39.5c-0.4,0-0.8-0.3-0.8-0.8V1.3c0-0.4,0.3-0.8,0.8-0.8h0.8c0.4,0,0.8,0.3,0.8,0.8v35.9h49.3
	c0.4,0,0.8,0.3,0.8,0.8v0.8c0,0.4-0.3,0.8-0.8,0.8H1.2z M44,29.5c-0.1,0-0.1-0.1-0.1-0.1V4c0-0.1,0.1-0.1,0.1-0.1H46
	c0.1,0,0.1,0.1,0.1,0.1v25.4c0,0.1-0.1,0.1-0.1,0.1H44z M34,29.5c-0.1,0-0.1-0.1-0.1-0.1V14c0-0.1,0.1-0.1,0.1-0.1H36
	c0.1,0,0.1,0.1,0.1,0.1v15.4c0,0.1-0.1,0.1-0.1,0.1H34z M24,29.5c-0.1,0-0.1-0.1-0.1-0.1V7.3c0-0.1,0.1-0.1,0.1-0.1H26
	c0.1,0,0.1,0.1,0.1,0.1v22.1c0,0.1-0.1,0.1-0.1,0.1H24z M14,29.5c-0.1,0-0.1-0.1-0.1-0.1v-8.8c0-0.1,0.1-0.1,0.1-0.1H16
	c0.1,0,0.1,0.1,0.1,0.1v8.8c0,0.1-0.1,0.1-0.1,0.1H14z"/>
</svg>
