<?xml version="1.0" encoding="utf-8"?>
<!-- Generator: Adobe Illustrator 21.1.0, SVG Export Plug-In . SVG Version: 6.00 Build 0)  -->
<svg version="1.1" id="Layer_1" xmlns="http://www.w3.org/2000/svg" xmlns:xlink="http://www.w3.org/1999/xlink" x="0px" y="0px"
	 width="40px" height="40px" viewBox="0 0 40 40" style="enable-background:new 0 0 40 40;" xml:space="preserve">
<style type="text/css">
	.st0{fill:#32BDB9;}
</style>
<path class="st0" d="M4.3,39.6c-2.1,0-3.9-1.7-3.9-3.9V4.3c0-2.1,1.7-3.9,3.9-3.9h31.4c2.1,0,3.9,1.7,3.9,3.9v31.4
	c0,2.1-1.7,3.9-3.9,3.9H4.3z M4.3,2.5c-1,0-1.8,0.8-1.8,1.8v31.4c0,1,0.8,1.8,1.8,1.8h31.4c1,0,1.8-0.8,1.8-1.8V4.3
	c0-1-0.8-1.8-1.8-1.8H4.3z M15.8,29c-0.2,0-0.3-0.1-0.5-0.2l-7.7-7.7c-0.1-0.1-0.2-0.3-0.2-0.5c0-0.2,0.1-0.3,0.2-0.5l0.8-0.8
	c0.1-0.1,0.3-0.2,0.5-0.2c0.2,0,0.3,0.1,0.5,0.2l6.4,6.5l14.9-14.8C30.8,11,31,11,31.1,11c0.2,0,0.3,0.1,0.5,0.2l0.8,0.8
	c0.1,0.1,0.2,0.3,0.2,0.5c0,0.2-0.1,0.3-0.2,0.5l-16.1,16C16.1,29,16,29,15.8,29z"/>
</svg>
