<?xml version="1.0" encoding="utf-8"?>
<!-- Generator: Adobe Illustrator 21.1.0, SVG Export Plug-In . SVG Version: 6.00 Build 0)  -->
<svg version="1.1" id="Layer_1" xmlns="http://www.w3.org/2000/svg" xmlns:xlink="http://www.w3.org/1999/xlink" x="0px" y="0px"
	 width="16.4px" height="16px" viewBox="0 0 16.4 16" style="enable-background:new 0 0 16.4 16;" xml:space="preserve">
<style type="text/css">
	.check-alt-st0{fill:#32BDB9;}
</style>
<path class="check-alt-st0" d="M4.9,14.2c0,0-0.2,0-0.2-0.1L0.2,9.6C0.1,9.5,0.1,9.4,0.1,9.4s0-0.2,0.1-0.2l0.4-0.4c0.1-0.1,0.2-0.1,0.2-0.1
	s0.2,0,0.2,0.1l3.8,3.8L15.4,1.9c0.1-0.1,0.2-0.1,0.2-0.1s0.2,0,0.2,0.1l0.4,0.4c0.1,0.1,0.1,0.2,0.1,0.2c0,0.1,0,0.2-0.1,0.2
	L5.1,14.1C5,14.1,5,14.2,4.9,14.2z"/>
</svg>
