<?xml version="1.0" encoding="utf-8"?>
<!-- Generator: Adobe Illustrator 21.1.0, SVG Export Plug-In . SVG Version: 6.00 Build 0)  -->
<svg version="1.1" id="Layer_1" xmlns="http://www.w3.org/2000/svg" xmlns:xlink="http://www.w3.org/1999/xlink" x="0px" y="0px"
	 width="57.6px" height="40px" viewBox="0 0 57.6 40" style="enable-background:new 0 0 57.6 40;" xml:space="preserve">
<style type="text/css">
	.st0{fill:#32BDB9;}
</style>
<path class="st0" d="M12.8,40C5.8,40,0,34.3,0,27.3c0-5.4,3.4-10.3,8.5-12l0.2-0.1V15C9.1,6.6,16,0.1,24.4,0.1
	c5.1,0,9.9,2.5,12.8,6.7l0.1,0.2l0.3-0.1c1.4-0.6,2.7-1,4.2-1c5.4,0,9.8,4.4,9.8,9.8c0,1-0.1,1.8-0.4,2.7l0.1,0.2l0.3,0.1
	c3.7,2,6,5.8,6,10C57.6,35,52.5,40,46.4,40L12.8,40L12.8,40z M11.1,16.9c-5,0.9-8.8,5.2-8.8,10.4c0,5.8,4.8,10.5,10.5,10.5h33.5
	c5,0,9.1-4.1,9.1-9.1c0-4.3-3-7.9-7.1-8.8c0.8-1.2,1.3-2.7,1.3-4.2c0-4.2-3.4-7.6-7.6-7.6c-2,0-3.8,0.7-5.2,2.1
	c-2.2-4.8-6.9-7.9-12.2-7.9c-7.4,0-13.4,6-13.4,13.4C11,16.1,11.1,16.5,11.1,16.9z M27,31.3c-0.4,0-0.7-0.3-0.7-0.7V16l-6.8,6.8
	c-0.1,0.1-0.3,0.2-0.5,0.2s-0.4-0.1-0.5-0.2l-0.5-0.5c-0.1-0.1-0.2-0.3-0.2-0.5c0-0.2,0.1-0.4,0.2-0.5l9-9c0.1-0.1,0.3-0.2,0.5-0.2
	c0.2,0,0.4,0.1,0.5,0.2l9,9c0.1,0.1,0.2,0.3,0.2,0.5c0,0.2-0.1,0.4-0.2,0.5l-0.5,0.5C36.2,22.9,36,23,35.8,23
	c-0.2,0-0.4-0.1-0.5-0.2L28.4,16v14.5c0,0.4-0.3,0.7-0.7,0.7H27z"/>
</svg>
