<?xml version="1.0" encoding="utf-8"?>
<!-- Generator: Adobe Illustrator 21.1.0, SVG Export Plug-In . SVG Version: 6.00 Build 0)  -->
<svg version="1.1" id="Layer_1" xmlns="http://www.w3.org/2000/svg" xmlns:xlink="http://www.w3.org/1999/xlink" x="0px" y="0px"
	 width="90px" height="72px" viewBox="0 0 90 72" enable-background="new 0 0 90 72" xml:space="preserve">
<g id="Layer_3" display="none">
	<g display="inline">
		<path d="M35.8,127.2c21.4,0,38.2-23.8,38.2-54.1C74,42.7,57.2,19,35.8,19S-2.4,42.8-2.4,73.1C-2.4,103.5,14.4,127.2,35.8,127.2z
			 M35.8,39C44.4,39,54,53.6,54,73.1s-9.6,34.1-18.2,34.1S17.6,92.6,17.6,73.1S27.2,39,35.8,39z"/>
		<path d="M35.8,125.2c-20.3,0-36.2-22.9-36.2-52.1S15.5,21,35.8,21S72,43.9,72,73.1S56.1,125.2,35.8,125.2z M35.8,37
			c-9.6,0-20.2,14.8-20.2,36.1s10.6,36.1,20.2,36.1S56,94.4,56,73.1S45.3,37,35.8,37z"/>
		<path d="M-13.9,189.8c-4.2,0-7.6-3.1-8-7.3L-41.2-27.6h-8c-4.4,0-8-3.6-8-8c0-21.8,17.7-39.5,39.5-39.5h62.8l35.9-53
			c1.1-1.6,2.8-2.8,4.7-3.3l52-13c0.6-0.2,1.3-0.2,2-0.2c3.7,0,6.9,2.5,7.7,6.1c0.5,2.1,0.2,4.2-0.9,6.1c-1.1,1.8-2.8,3.1-4.9,3.6
			l-49,12.3L64.5-75h24.8c21.8,0,39.5,17.7,39.5,39.5c0,4.4-3.6,8-8,8h-8L93.5,182.6c-0.4,4.1-3.8,7.3-8,7.3L-13.9,189.8
			L-13.9,189.8z M-6.6,173.8h84.7L96.6-27.5H-25.1L-6.6,173.8z M-17.7-59.1c-8.8,0-16.8,4.8-20.8,12.6l-1.5,2.9h151.7l-1.5-2.9
			c-4.1-7.8-12.1-12.6-20.8-12.6H-17.7z"/>
	</g>
</g>
<g id="Layer_2">
	<path fill="#32BDB9" d="M15.9,55.7c-0.9,0-1.4-0.5-1.6-0.8C14.1,54.5,14,54.2,14,54h56.6c0,0.2-0.1,0.5-0.3,0.9
		c-0.2,0.3-0.7,0.8-1.6,0.8H15.9z M30.3,48.9c-5.2,0-9.4-4.2-9.4-9.4V16.7c0-0.2,0.2-0.4,0.4-0.4h43.2c5.2,0,9.5,4.2,9.6,9.3
		c0,2.5-0.9,4.9-2.7,6.7c-1.8,1.8-4.2,2.8-6.7,2.8h-4.3v4.3c0,5.2-4.2,9.4-9.4,9.4L30.3,48.9L30.3,48.9z M22.6,39.4
		c0,4.3,3.5,7.7,7.7,7.7h20.6c4.3,0,7.7-3.5,7.7-7.7V18h-36C22.6,18,22.6,39.4,22.6,39.4z M60.3,33.4h4.3c4.3,0,7.7-3.5,7.7-7.7
		S68.8,18,64.6,18h-4.3V33.4z"/>
</g>
</svg>
