<?xml version="1.0" encoding="utf-8"?>
<!-- Generator: Adobe Illustrator 21.1.0, SVG Export Plug-In . SVG Version: 6.00 Build 0)  -->
<svg version="1.1" id="Layer_1" xmlns="http://www.w3.org/2000/svg" xmlns:xlink="http://www.w3.org/1999/xlink" x="0px" y="0px"
	 width="51.4px" height="40px" viewBox="0 0 51.4 40" style="enable-background:new 0 0 51.4 40;" xml:space="preserve">
<style type="text/css">
	.st0{fill:#32BDB9;}
</style>
<path class="st0" d="M48.6,39.5c-4.7,0-8.2-1.8-10.5-3.2l-0.2-0.1l-0.2,0.1c-2,0.5-4.1,0.8-6.3,0.8c-2,0-3.9-0.2-5.8-0.7
	c1.9-0.2,3.7-0.6,5.4-1.2l0.4,0c2.3,0,4.6-0.4,6.8-1c2.7,1.7,6,3.4,10.4,3.4h1.9l-1.7-0.9c-3-1.7-3.9-3.4-4.3-5.9
	c3-2.5,4.6-5.7,4.6-9.1c0-1.8-0.5-3.6-1.4-5.3c0-1.2-0.1-2.4-0.3-3.6c2.3,2.6,3.6,5.7,3.6,8.9c0,3.5-1.5,6.8-4.2,9.6l-0.2,0.2
	l0.1,0.3c0.4,1.4,1.3,2.3,3.1,3.3c0.9,0.5,1.4,1.6,1.1,2.7C50.6,38.8,49.6,39.5,48.6,39.5z M2.9,33.8c-1.1,0-2-0.7-2.3-1.8
	c-0.3-1.1,0.2-2.2,1.2-2.7c2.2-1.1,3-2.1,3.4-3.2l0.1-0.3L5,25.5c-3-2.7-4.5-6.1-4.5-9.6c0-8.5,9.4-15.5,20.9-15.5
	C33,0.5,42.4,7.4,42.4,16c0,8.5-9.4,15.5-20.9,15.5c-2.4,0-4.7-0.3-6.9-0.9l-0.2,0l-0.2,0.1C11.7,32,7.9,33.8,2.9,33.8z M7.3,25.1
	c-0.5,2.5-1.4,4.2-4.7,5.9l0.2,0.9c4.8,0,8.4-1.7,11.2-3.4c2.3,0.7,4.8,1.1,7.3,1.1c10.5,0,19.1-6.1,19.1-13.6S31.9,2.4,21.4,2.4
	S2.4,8.5,2.4,16C2.4,19.3,4.1,22.6,7.3,25.1z"/>
</svg>
