<?xml version="1.0" encoding="utf-8"?>
<!-- Generator: Adobe Illustrator 21.1.0, SVG Export Plug-In . SVG Version: 6.00 Build 0)  -->
<svg version="1.1" xmlns="http://www.w3.org/2000/svg" xmlns:xlink="http://www.w3.org/1999/xlink" x="0px" y="0px" width="976px"
	 height="563px" viewBox="0 0 976 563" enable-background="new 0 0 976 563" xml:space="preserve">
<g id="Layer_1">
	<g id="Layer_1_1_">
		<g id="Layer_3">
			<g id="BG">
				<g id="Layer_2_1_">
					<g opacity="0.6">
						<ellipse opacity="0.5" fill="#EFF7FE" enable-background="new    " cx="311.4" cy="299.2" rx="284.9" ry="221.6"/>
						<ellipse opacity="0.15" fill="#DFE6EA" enable-background="new    " cx="580.4" cy="176.1" rx="202.4" ry="157.4"/>
						<ellipse opacity="0.45" fill="#E1F5FB" enable-background="new    " cx="686.4" cy="310.3" rx="278.2" ry="216.4"/>
						<path opacity="0.3" fill="#D1F0EF" enable-background="new    " d="M294.5,370.4c4.3-2.8,14.2,0.2,26.8,4
							c9,2.7,13.5,5.2,22.6,5.7c4.8,0.3,12,0.7,14.3-2.2c4.5-5.6-12.9-20.2-12.5-20.5c0.5-0.3,19.5,22.3,28.6,19.8
							c2.3-0.6,3.8-3.2,6.9-8.3c4.2-6.9,3.1-8.6,6-10.8c4.9-3.7,9.9-0.4,18.5-3.2c8.6-2.9,7.5-7.6,17.1-12.9
							c6.2-3.5,12-4.5,21.3-6.1c18.8-3.3,21.6,0.7,31-2.9c10.5-4,7.9-9.3,21.3-16.9c7.3-4.2,13.8-5.8,24.5-8.6
							c10.8-2.8,18.6-3.7,32.3-5.4c27.9-3.3,34.7-1.6,38.4-0.4c6.4,2.2,6.2,3.8,12.5,6.5c14.2,6,26.3,2.2,42.5,1.8
							c22.9-0.5,40.6,6.3,60.1,13.7c10.2,3.9,5.1,2.9,37,17.6c21.2,9.8,25.3,11.1,33.3,16.5c9,6.2,18.7,12.9,24.5,24.1
							c3.6,7,3,10.7,9.2,21.6c5,8.7,8.2,11.5,11.1,13.3c5.8,3.7,9,2.9,12.5,6.5c5.1,5.3,5,14.1,0.5,16.2c-3,1.4-7.4-0.4-9.2-1.1
							c-5.9-2.3-5.5-5.2-11.1-8.3c-1-0.6-8.5-4.6-16.6-2.9c-0.9,0.2-8.2,1.7-8.8,4.7c-1.5,7.1,37.1,10.3,43.9,27.7
							c2.6,6.5,0.5,14.4-4.2,19.8c-8.2,9.5-22,8.2-26.3,16.9c-3.2,6.3,1.2,13.1,2.3,14.7c9,13.7,38,20.9,57.3,14.4
							c11.7-4,23.1-14.2,35.1-24.8c5.4-4.8,8.7-8.3,14.8-9c9.7-1.1,21.8,5.6,24.5,13.3c4.5,12.7-16.6,27.8-31.9,34.9
							c-17,7.9-37.7,8.1-78.6,8.3c-33.6,0.1-50.6,0.1-62.4-6.5c-13.3-7.4-25.8-21.9-31.4-28.4c-9.5-11.1-13-18.1-22.6-19.8
							c-10.1-1.8-21.2,3.2-23.6,4.3c-7,3.2-6.3,5-12.5,8.3c-15.3,8.1-31.4,3-33.7,7.9c-1.5,3.1,3.6,7.6,8.8,12.2
							c6.8,6,10.7,6.4,11.1,9.3c0.7,5-9.3,12.4-19.4,12.6c-12.6,0.2-15.3-10.9-30.5-13.7c-3.1-0.6-9-1.2-32.3,6.5
							c-31.4,10.3-30.1,14.6-45.7,17.3c-17.4,3-33,0-48.5-2.9c-21-4-21.3-7.5-37-9c-21.8-2-24.1,4.6-43.9,2.9
							c-13.5-1.2-25.3-6.3-49-16.5c-19.6-8.5-21-10.6-29.6-14c-27.4-10.9-46.1-2.4-90.6-1.8c-32.6,0.4-81,1-97-19.8
							c-8.1-10.5-8.2-26.8,1.8-35.9c11.4-10.3,28.3-4.8,84.6-8.6c45.9-3.2,58-8.5,65.6-15.5c10.3-9.5,12-21.7,12.5-25.5
							C303.5,389.3,287.5,374.9,294.5,370.4z"/>
						<path opacity="0.5" fill="#D1F0EF" enable-background="new    " d="M333.3,461.5c4.3,2.8,14.2-0.2,26.8-4
							c9-2.7,13.5-5.3,22.6-5.8c4.8-0.3,12-0.7,14.3,2.1c4.5,5.6-12.8,20.3-12.4,20.5c0.5,0.3,19.4-22.3,28.6-19.8
							c2.3,0.6,3.8,3.2,7,8.3c4.2,6.9,3.1,8.6,6,10.8c4.9,3.7,9.9,0.4,18.5,3.2c8.6,2.8,7.5,7.5,17.1,12.9c6.2,3.5,12,4.5,21.3,6.1
							c18.8,3.2,21.6-0.7,31,2.8c10.5,4,7.9,9.3,21.3,16.9c7.3,4.1,13.8,5.8,24.5,8.6c10.8,2.8,18.6,3.7,32.4,5.3
							c27.9,3.3,34.7,1.6,38.4,0.3c6.4-2.2,6.2-3.8,12.5-6.5c14.2-6,26.3-2.2,42.5-1.9c22.9,0.5,40.6-6.3,60-13.7
							c10.2-3.9,5.1-2.9,36.9-17.7c21.2-9.8,25.3-11.1,33.2-16.6c8.9-6.2,18.7-12.9,24.4-24.1c3.5-7,3-10.7,9.2-21.6
							c4.9-8.7,8.2-11.5,11.1-13.3c5.7-3.7,9-2.9,12.5-6.5c5.1-5.3,5-14.1,0.4-16.2c-3-1.4-7.4,0.4-9.2,1.1
							c-5.9,2.3-5.4,5.2-11.1,8.3c-1,0.6-8.5,4.6-16.6,2.9c-0.9-0.2-8.2-1.7-8.8-4.7c-1.5-7.1,37-10.3,43.8-27.7
							c2.5-6.5,0.4-14.4-4.2-19.8c-8.2-9.4-22-8.2-26.4-16.9c-3.2-6.3,1.2-13.1,2.3-14.7c8.9-13.7,37.9-21,57.3-14.5
							c11.7,4,23.2,14.1,35.2,24.8c5.4,4.8,8.8,8.3,14.8,9c9.7,1.1,21.8-5.6,24.5-13.3c4.4-12.7-16.7-27.8-32-34.8
							c-17-7.8-37.8-8.1-78.6-8.2c-33.6-0.1-50.6,0-62.4,6.6c-13.3,7.4-25.7,21.9-31.4,28.4c-9.5,11.1-12.9,18.1-22.6,19.8
							c-10.1,1.8-21.2-3.2-23.6-4.3c-7-3.2-6.4-5-12.5-8.3c-15.3-8-31.4-2.9-33.8-7.9c-1.5-3.1,3.6-7.6,8.8-12.2
							c6.8-6,10.7-6.4,11.1-9.4c0.7-5-9.3-12.4-19.4-12.6c-12.6-0.2-15.2,11-30.5,13.7c-3.1,0.6-9,1.2-32.4-6.4
							c-31.4-10.3-30.2-14.5-45.8-17.2c-17.4-3-33,0-48.5,2.9c-21,4-21.2,7.6-37,9c-21.7,2-24.1-4.5-43.9-2.8
							c-13.5,1.2-25.3,6.3-48.9,16.6c-19.5,8.5-20.9,10.6-29.5,14.1c-27.4,10.9-46.1,2.4-90.6,1.9c-32.6-0.4-81-0.9-97,19.9
							c-8.1,10.5-8.2,26.8,1.9,35.9c11.4,10.3,28.3,4.7,84.6,8.5c45.9,3.1,58,8.4,65.7,15.4c10.3,9.5,12,21.7,12.5,25.5
							C342.3,442.5,326.3,456.9,333.3,461.5z"/>
						<path opacity="0.5" fill="#DCE8EF" enable-background="new    " d="M116.9,96.5c-3.7-1.3-3-7-8.8-8.4c-4.5-1.1-8.4,1.5-10.1,0
							c-2-1.7,2.6-5.4,0.3-8.6c-1.5-2.2-5.3-2.8-6.9-3c-6.2-1-9.5,1.9-11.8,0.5c-2.8-1.7,1.6-6.3-1.6-11.2c-1.5-2.3-4.8-4.6-8.8-4.8
							c-4.5-0.2-8.3,2.3-10.1,4.8c-2.6,3.6,0.4,5.5-1.6,10.7c-1.6,4.1-4.1,4.3-5.9,8.4c-1.9,4.3-0.9,7.8-0.3,10.7
							c2.4,12.8-2,27.6-5.9,27.9c-2.4,0.2-5.4-4.9-6.9-7.4c-2.7-4.6-2.8-7.7-4.6-7.9c-1.9-0.2-4,3-4.9,4.8
							c-2.3,4.7-2.1,11.8,3.3,15.5c4,2.8,7.7,1.5,8.8,3.6c1.8,3.4-7.7,7.1-11.1,17c-1.1,3.3-1.4,6.9,0,7.4c2.2,0.8,6.5-5.9,10.5-5.1
							c2.4,0.5,1.7,3.1,4.9,5.1c4.2,2.6,8.4,0.1,12.7,2c3.9,1.8,3.2,5.1,6.2,11.9c1.7,3.9,4.7,7.7,10.8,15.2
							c8.1,10.2,9.1,9.2,11.4,14c3.3,6.7,1.9,9.6,6.2,13c4.5,3.4,8.5,2.3,11.1,5.6c2.8,3.6,0.9,8.7-1.3,11.7
							c-2.7,3.6-8.4,5.6-19.6,9.4c-12.4,4.2-16.7,4.3-18.6,4.3c-3.6,0-9.4,0-13.7-3c-3.2-2.3-2.5-4.1-6.2-11.2
							c-3.3-6.4-4.9-9.5-8.5-11.4c-5.1-2.7-13-2.6-18.6-0.3C8.5,221.4,7,230.3,3.9,248.2c-1.6,9.1-0.7,10.7,0.7,11.7
							c3,2.1,8.2,0.8,33.6-3c5-0.8,8.1-1.2,11.4,0c7,2.5,9.1,9.9,9.8,12.2c1.2,4.1,0.2,5.2,0.7,12.7c0.4,5.7,0.6,8.9,1.6,11.7
							c3.2,8.6,12,8.3,25.1,19.6c5.8,5,11.5,9.9,13.7,17.5c2.4,8.3-0.2,16.2-1.6,19.6c-3.6,8.8-8.6,10.4-7.2,14.2
							c2.5,6.8,21.5,10.6,27.1,6.1c2.8-2.2,0.3-4.9,3.3-7.9c4.2-4.2,15.9-5.2,22.5-1.5c2.3,1.3,4.5,3.4,9.1,21.3
							c3.2,12.2,3.3,15.9,7.8,18.5c4.8,2.9,11.2,2.7,16,2.5c7.4-0.2,9.3-1.9,18-3.3c10.4-1.7,12.5,0,20.9-1s9.2-3.1,24.2-8.6
							c22.2-8.3,24.8-5.5,36.2-11.9c2.7-1.5,8.3-5,17-8.6c5.2-2.2,8.4-3.1,9.8-3.6c2.7-0.8,8.4-2.3,16-2.8
							c9.4-0.5,11.5,1.2,14.4-0.5c4.2-2.6,0.6-7.3,5.2-11.2c3.4-2.9,9.1-3.5,13.1-3c4.2,0.5,4.8,2,14,6.6c6.6,3.3,9.9,4.9,13.1,5.3
							c6,0.8,8.7-1.1,13.7,0.8c3.7,1.3,3.2,2.7,6.5,3.6c3.9,1,6-0.3,13.7-1.3c8.3-1,8.2,0.3,10.8-0.8c5.8-2.4,3.8-7.9,10.5-13.7
							c4.5-3.9,6.4-2.4,9.5-5.3c7.9-7.7-5.3-18.3,1.3-31.5c2.7-5.4,7.5-9,10.5-11.2c9.9-7.4,17-6.5,21.2-12.7
							c2.9-4.3,3.6-10.6,0.3-15.2c-4.2-6-12.6-5.7-14.4-11.4c-1.3-4.2,2.5-6.8,0.3-8.9c-3.2-3.1-13.9-0.2-15.3,0.3
							c-11.8,3.3-15.2,9.6-19.9,8.4c-4.5-1.2-5.2-7.8-5.2-8.1c-0.4-4.8,2.8-7.2,7.2-14c2-3.1,6.7-10.4,8.2-19
							c0.9-5.5,2.1-12-2.6-15.2c-4.8-3.3-10.7,0.4-16.3-2.8c-5-2.9-2.1-7-6.5-16.5c-4.1-8.8-11-14.9-13.7-17.3
							c-6.5-5.6-7.9-4.4-10.5-7.9c-2.6-3.4-3.4-7.4,0-25.1c2.7-14.1,4.2-16.7,1.6-19c-2.5-2.2-6-2-28.1-1.3
							c-18.8,0.6-25.1,0.6-30.4-2.8c-4.8-3.1-6.3-7.4-6.5-8.1c-2.8-8.4,5.9-12.8,2.9-19.6c-2-4.6-8.7-8.7-14-8.1
							c-6.8,0.7-6.6,8.4-17.6,14.2c-6.1,3.2-14,5-15.7,3.3c-2.7-2.7,12.9-12.5,9.5-17.3c-2.6-3.6-14.2-1.9-15.3-1.8
							c-14.7,2.2-16.8,10.1-28.7,14.5c-18.6,6.9-42.1-1.8-51.6-5.3c-20.5-7.6-20.8-15.2-31.7-15C141.4,69.7,125.9,99.6,116.9,96.5z"
							/>
						<path opacity="0.2" fill="#FCC8CE" enable-background="new    " d="M789.8,48.1c4.5-1.6,3.7-8.6,10.8-10.3
							c5.5-1.3,10.3,1.8,12.4,0c2.4-2.1-3.2-6.6-0.4-10.6c1.9-2.7,6.5-3.4,8.4-3.7c7.6-1.2,11.6,2.3,14.4,0.6
							c3.5-2.1-1.9-7.8,2-13.7c1.9-2.8,5.9-5.7,10.8-5.9c5.5-0.2,10.2,2.9,12.4,5.9c3.1,4.4-0.5,6.7,2,13.1c2,5.1,5,5.3,7.2,10.3
							c2.3,5.2,1.1,9.6,0.4,13.1c-3,15.7,2.5,33.9,7.2,34.3c2.9,0.3,6.6-6,8.4-9c3.4-5.7,3.4-9.4,5.6-9.7c2.3-0.2,4.9,3.7,6,5.9
							c2.8,5.8,2.5,14.4-4,19c-4.9,3.5-9.5,1.8-10.8,4.4c-2.2,4.1,9.5,8.8,13.6,20.9c1.4,4,1.8,8.4,0,9c-2.6,0.9-8-7.2-12.8-6.2
							c-2.9,0.6-2.1,3.8-6,6.2c-5.1,3.2-10.3,0.1-15.6,2.5c-4.8,2.2-3.9,6.3-7.6,14.7c-2.1,4.8-5.8,9.4-13.2,18.7
							c-9.9,12.5-11.1,11.3-14,17.1c-4.1,8.3-2.3,11.8-7.6,15.9c-5.5,4.2-10.5,2.8-13.6,6.9c-3.4,4.4-1.1,10.6,1.6,14.3
							c3.3,4.5,10.3,6.9,24.1,11.5c15.3,5.2,20.5,5.3,22.8,5.3c4.4,0,11.6,0,16.8-3.7c3.9-2.8,3.1-5,7.6-13.7
							c4-7.8,6.1-11.7,10.4-14c6.2-3.3,16-3.2,22.8-0.3c10.8,4.5,12.7,15.5,16.4,37.4c1.9,11.2,0.9,13.2-0.8,14.3
							c-3.7,2.5-10.1,1-41.3-3.7c-6.1-0.9-9.9-1.5-14,0c-8.6,3.1-11.2,12.2-12,15c-1.5,5-0.2,6.4-0.8,15.6c-0.4,7-0.7,10.9-2,14.3
							c-4,10.5-14.8,10.2-30.9,24c-7.2,6.2-14.1,12.1-16.8,21.5c-2.9,10.1,0.3,19.8,2,24c4.5,10.8,10.6,12.7,8.8,17.5
							c-3.1,8.4-26.4,13-33.3,7.5c-3.4-2.7-0.4-6-4-9.7c-5.2-5.2-19.5-6.4-27.7-1.9c-2.8,1.5-5.5,4.1-11.2,26.2
							c-3.9,15-4.1,19.5-9.6,22.8c-5.9,3.5-13.8,3.3-19.6,3.1c-9-0.3-11.4-2.4-22-4.1c-12.8-2-15.3,0-25.7-1.2
							c-10.3-1.3-11.3-3.7-29.7-10.6c-27.3-10.2-30.5-6.7-44.5-14.7c-3.3-1.9-10.2-6.1-20.8-10.6c-6.4-2.7-10.3-3.9-12-4.4
							c-3.3-0.9-10.3-2.9-19.6-3.4c-11.5-0.7-14.2,1.5-17.6-0.6c-5.2-3.2-0.8-8.9-6.4-13.7c-4.2-3.5-11.2-4.3-16-3.7
							c-5.2,0.6-5.9,2.5-17.2,8.1c-8.1,4-12.1,6-16,6.5c-7.4,1-10.6-1.3-16.8,0.9c-4.6,1.6-3.9,3.3-8,4.4c-4.7,1.3-7.3-0.4-16.8-1.6
							c-10.2-1.2-10,0.4-13.2-0.9c-7.2-3-4.7-9.7-12.8-16.8c-5.5-4.8-7.9-2.9-11.6-6.5c-9.7-9.4,6.5-22.4-1.6-38.7
							c-3.3-6.6-9.2-11-12.8-13.7c-12.2-9.1-20.8-7.9-26.1-15.6c-3.6-5.3-4.4-13-0.4-18.7c5.2-7.4,15.5-7,17.6-14
							c1.6-5.2-3.1-8.3-0.4-10.9c3.9-3.7,17-0.2,18.8,0.3c14.5,4,18.6,11.8,24.5,10.3c5.5-1.4,6.4-9.6,6.4-10
							c0.5-5.9-3.4-8.8-8.8-17.1c-2.5-3.8-8.2-12.8-10-23.4c-1.2-6.7-2.5-14.8,3.2-18.7c5.9-4.1,13.2,0.5,20-3.4
							c6.1-3.5,2.6-8.6,8-20.3c5-10.9,13.5-18.3,16.8-21.2c8-6.9,9.6-5.4,12.8-9.7c3.1-4.2,4.2-9.1,0-30.9
							c-3.3-17.3-5.2-20.5-2-23.4c3-2.8,7.4-2.4,34.5-1.6c23.1,0.7,30.8,0.8,37.3-3.4c5.9-3.8,7.7-9.1,8-10
							c3.4-10.3-7.2-15.7-3.6-24c2.5-5.6,10.7-10.7,17.2-10c8.3,0.9,8.1,10.3,21.6,17.5c7.5,4,17.2,6.1,19.2,4.1
							c3.3-3.3-15.8-15.4-11.6-21.2c3.1-4.4,17.4-2.4,18.8-2.2c18.1,2.7,20.6,12.4,35.3,17.8c22.9,8.5,51.7-2.2,63.3-6.5
							c25.2-9.3,25.6-18.6,38.9-18.4C759.7,15.2,778.8,51.9,789.8,48.1z"/>
						<path opacity="0.6" fill="#D5F1F1" enable-background="new    " d="M184.9,195c-3.1,0.5-1.2,7.1-7.6,16.6
							c-3.4,5.1-5,4.7-7.1,8.5c-4,7.1-0.5,11.9,0.5,22.5c1,10.9-1.2,24.4-5.7,25.1c-3.9,0.5-8.8-10.7-10-10.3
							c-1.4,0.4,10.4,14.9,4.7,28c-4,9.3-14.9,13.8-12.8,16.6c2,2.6,11.4-1.6,20.9,2.6c3.2,1.4,5.1,3.4,9,7.4
							c5.8,6,7.7,9.8,11.9,15.5c2.8,3.9,2.3,2.6,14.2,16.2c7.8,8.9,11.8,13.5,15.2,18.1c7.4,10.1,11.2,15.2,10.4,19.9
							c-1.4,9.3-13.6,15.1-19.9,18.1c-6.2,2.9-12.9,6.1-20.4,4.8c-5.9-1-7.6-4.1-13.7-4.1c-6.5,0-9.2,3.4-11.9,2.2
							c-3.5-1.6,0.7-7.4-3.3-14c-0.2-0.4-4.3-6.7-11.9-7.7c-7-0.9-13,3.3-15.2,4.8c-10.4,7.3-9.2,16.3-14.2,38.7
							c-5,22.2-10.2,31-5.2,33.6c4.1,2.1,12.6-1.2,17.5-5.2c8.4-6.8,3.4-13.6,11.9-22.5c1-1.1,9.3-9.8,18-8.5
							c7.5,1.2,13.4,9.6,11.9,16.2c-1.9,8.4-14.4,8.4-19,18.8c-0.4,0.9-3.9,9.4,1.9,16.2c4.9,5.7,13.5,6.8,20.4,7.7
							c6.6,0.9,17.5,2.3,22.8-2.2c3.2-2.8,1.2-5.1,4.7-16.6c1.6-5.2,2.8-9.2,4.7-9.2c2.2-0.1,4.8,5.2,5.7,9.6
							c1.4,7.1-1.8,10,0.9,12.5c3,2.8,10.2,2.3,14.7,0.7c0.9-0.3,8.3-2.9,8.5-8.1c0.2-3.5-3.1-6.7-6.6-8.1
							c-5.7-2.3-10.5,0.7-12.8-1.5c-2.2-2,0-6.7,2.8-9.6c3.2-3.3,5.6-2.4,8.1-5.2c2.1-2.4,1.6-4.4,1.4-12.9c-0.1-5.8-0.2-8.6,0-9.6
							c1.1-6.1,6.6-9.3,16.6-16.6c11.8-8.6,3.6-3.8,25.1-19.9c12.7-9.6,19.1-14.3,21.8-15.5c11.3-4.8,18.6-3.1,43.6-4.1
							c24.8-0.9,37.1-1.4,48.4-4.8c23.4-7.1,20.5-17.1,40.8-22.9c29.5-8.4,61.5,5.3,64.5,6.6c22.4,9.9,21.8,20.7,41.7,24.7
							c17.5,3.5,22.4-4,40.3-0.7c26.8,4.9,40.1,26.1,43.1,24.3c2.8-1.6-9.5-18.3-12.8-22.9c-11.2-15.3-17.1-19.9-27-33.2
							c-9.6-12.8-14.4-19.2-16.6-26.2c-7.6-24,9.4-38.9-1.4-47.2c-5.4-4.1-14.1-4-28.4-3.7c-17.1,0.3-20.1,4.1-31.8,2.6
							c-10-1.3-24.3-6.4-25.6-13.6c-1.3-7,10.5-10.6,10.4-21.8c0-2.7-0.1-6.9-3.3-8.5c-2.3-1.1-6.7-1.2-34.6,11.1
							c-8,3.5-11.8,5.4-15.2,4.1c-4.1-1.6-2.9-6.3-9.5-12.5c-2.8-2.7-4.7-4.5-7.6-4.8c-6.2-0.7-8.6,6.1-18.5,10.3
							c-8.1,3.4-16.2,3.1-26.1,2.6c-15.5-0.7-15.2-4.1-24.7-4.1c-17.6,0.2-22.3,11.9-50.7,18.1c-7.7,1.7-12.6,1.9-16.6,0
							c-7.4-3.5-1.5-12.6-7.6-17c-9.2-6.6-30.2,7.1-41.2,0.4c-8-4.9-4.7-16.7-10.9-17.7c-4-0.7-5.8,4-10.9,4.1
							C195.7,212,189.9,194.1,184.9,195z"/>
						<ellipse opacity="0.6" fill="#BBE9F9" enable-background="new    " cx="204.8" cy="229.6" rx="16.1" ry="12.5"/>
						<ellipse fill="#F1FAFA" cx="493.6" cy="120.8" rx="16.1" ry="12.5"/>
						<ellipse fill="#F1FAFA" cx="860.9" cy="235.1" rx="16.1" ry="12.5"/>
						<ellipse opacity="0.2" fill="#FCB9C6" enable-background="new    " cx="755.3" cy="97.4" rx="16.1" ry="12.5"/>
						<ellipse fill="#FCFDFF" cx="142.4" cy="133.4" rx="16.1" ry="12.5"/>
						<ellipse fill="#F1FAFA" cx="246.4" cy="270.3" rx="9.1" ry="7"/>
						<ellipse fill="#F1FAFA" cx="292.6" cy="238.6" rx="9.1" ry="7"/>
						<ellipse fill="#F1FAFA" cx="328.4" cy="286" rx="8.6" ry="6.3"/>
						<ellipse opacity="0.2" fill="#FCC8CE" enable-background="new    " cx="444.6" cy="277.4" rx="17.1" ry="10.2"/>
						<ellipse fill="#F1FAFA" cx="512" cy="367.8" rx="6" ry="5.9"/>
						<ellipse fill="#F1FAFA" cx="253.4" cy="489.9" rx="6" ry="5.9"/>
						<ellipse fill="#F1FAFA" cx="645.9" cy="479.7" rx="6" ry="5.9"/>
						<ellipse fill="#F1FAFA" cx="907.6" cy="327.9" rx="6" ry="5.9"/>
						<ellipse fill="#F1FAFA" cx="906.6" cy="216.7" rx="6" ry="5.9"/>
						<ellipse fill="#F1FAFA" cx="551.3" cy="323.2" rx="8.1" ry="5.9"/>
						<ellipse fill="#F1FAFA" cx="551.3" cy="272.3" rx="5" ry="5.1"/>
						<ellipse fill="#F1FAFA" cx="635.3" cy="248" rx="7.5" ry="5.1"/>
						<ellipse fill="#F1FAFA" cx="678.1" cy="205.4" rx="6" ry="5.5"/>
						<ellipse fill="#F1FAFA" cx="456.7" cy="206.9" rx="6" ry="5.5"/>
						<ellipse fill="#F1FAFA" cx="551.8" cy="189.7" rx="5.5" ry="3.1"/>
						<ellipse fill="#F1FAFA" cx="612.7" cy="419.5" rx="6" ry="3.5"/>
						<ellipse opacity="0.1" fill="#1DD4FF" enable-background="new    " cx="716.3" cy="405.8" rx="13.4" ry="12.5"/>
						<ellipse opacity="0.2" fill="#A2EAE0" enable-background="new    " cx="333.4" cy="450" rx="14.6" ry="10.6"/>
						<ellipse opacity="0.5" fill="#D1F0EF" enable-background="new    " cx="137.7" cy="357.6" rx="13.1" ry="9.8"/>
						<ellipse fill="#F1FAFA" cx="61.2" cy="278.2" rx="14.1" ry="13.3"/>
					</g>
				</g>
			</g>
		</g>
	</g>
	<path fill="#347EC0" d="M558.8,528.6c-0.1,0-0.4-0.1-0.8-0.4l-65.6-60.1h-204c-30.6,0-55.5-24.5-55.5-54.6V254.7
		c0-30.5,24.9-55.3,55.5-55.3h160.8V91.1c0-30.2,25-54.8,55.8-54.8h216.2c14.7,0,28.5,5.7,38.8,16c10.3,10.3,16,24.1,16,38.8v158.8
		c0,30.4-24.6,55.1-54.7,55.1h-183c-3.7,0-6.5,0-8.7-0.1c-1.3,0-2.6,0-3.8,0c-2.1,0-3.4,0.1-4.5,0.2l-3.1,0.3l-2.6,1.7
		c-1.8,1.2-4,3.1-8.5,7.3c-0.6,0.5-1.2,1.1-1.9,1.8l-1.7,1.6L451.6,365c-0.2,0.2-0.5,0.3-0.9,0.3c-0.1,0-0.3,0-0.5-0.1
		c-0.6-0.3-0.9-0.8-0.9-1V201.6H288.5c-29.4,0-53.3,23.8-53.3,53.1v158.8c0,28.9,23.9,52.4,53.3,52.4h204.2c0.1,0.1,0.5,0.2,0.8,0.6
		l63.9,58.9V361.6c0-0.6,0.5-1.1,1.1-1.1s1.1,0.5,1.1,1.1v166.1c0,0.7-0.4,0.9-0.6,0.9c0,0,0,0,0,0
		C559.1,528.6,559,528.6,558.8,528.6z M505.1,38.6c-29.5,0-53.6,23.6-53.6,52.6v270.3l50.1-45.3c0.5-0.4,1-0.9,1.6-1.4
		c0.8-0.6,1.5-1.3,2.3-2c10.5-9.7,11.3-10.1,21-10.1c1,0,2,0,3,0c2.3,0,4.9,0.1,8.7,0.1h183c29,0,52.5-23.7,52.5-52.9V91.1
		c0-29-23.6-52.6-52.5-52.6H505.1z"/>
	<path fill="#32BDB9" d="M609.9,234.3c-1.2,0-1.4-1.2-1.4-1.9v-0.2c0-0.3,0.1-2,1.4-2c1.1,0,2,0.9,2,2
		C611.8,233.4,610.9,234.3,609.9,234.3z"/>
	<path fill="#32BDB9" d="M609.6,192.2c-0.4,0-1.1-0.2-1.1-0.9c-0.1-8.3,5.9-14,15-21.6l0.4-0.3c8-6.7,16.3-13.7,16.3-23.8
		c0-14.9-12.1-27-27-27c-14.9,0-27,12.1-27,27c0,0.6-0.5,1.1-1.1,1.1s-1.1-0.5-1.1-1.1c0-16.1,13.1-29.2,29.2-29.2
		c7.8,0,15.1,3,20.6,8.5c5.5,5.5,8.5,12.8,8.5,20.6c0,10.3-7,17-17,25.4l-0.6,0.5c-8.8,7.3-14.1,12.2-14.1,19.9c0,0.2,0,0.4-0.2,0.6
		c-0.2,0.2-0.4,0.3-0.8,0.3H609.6z"/>
</g>
<g id="Layer_2">
	<path fill="#32BDB9" d="M344.8,333.1c-1.4,0-2.5-1.1-2.5-2.5s1.1-2.5,2.5-2.5h2.7c1.4,0,2.5,1.1,2.5,2.5s-1.1,2.5-2.5,2.5H344.8z"
		/>
	<path fill="#32BDB9" d="M394.8,333.1c-1.4,0-2.5-1.1-2.5-2.5s1.1-2.5,2.5-2.5h2.7c1.4,0,2.5,1.1,2.5,2.5s-1.1,2.5-2.5,2.5H394.8z"
		/>
	<path fill="#32BDB9" d="M294.1,333.1c-1.4,0-2.5-1.1-2.5-2.5s1.1-2.5,2.5-2.5h2.7c1.4,0,2.5,1.1,2.5,2.5s-1.1,2.5-2.5,2.5H294.1z"
		/>
</g>
</svg>
