<?xml version="1.0" encoding="utf-8"?>
<!-- Generator: Adobe Illustrator 23.0.2, SVG Export Plug-In . SVG Version: 6.00 Build 0)  -->
<svg version="1.1" id="Layer_2" xmlns="http://www.w3.org/2000/svg" xmlns:xlink="http://www.w3.org/1999/xlink" x="0px" y="0px"
	 width="45.7px" height="40px" viewBox="0 0 45.7 40" style="enable-background:new 0 0 45.7 40;" xml:space="preserve">
<style type="text/css">
	.st0{fill:none;stroke:#32BDB9;stroke-width:1.3;stroke-linecap:round;stroke-linejoin:round;stroke-miterlimit:10;}
</style>
<path class="st0" d="M42.1,26.6l-4.7-7.5c0,0-1.3-2.3-2-2.6c0,0,0.3-2.7-5.1-5.8c-3.8-2.2-12.8-3.9-18.9-1.1S2.7,16.9,3,20.4
	s3.1,11.5,16.5,12.3c0,0,10.5-0.1,13.8-5.7c0,0,1.6,2.2,3.8,2.3"/>
<path class="st0" d="M35.4,16.4c-1.7-1.8-5.1-1-5.1-1s0.6-1.7-1.1-2c-1.7-0.3-4.3-0.7-4.3-0.7s-1.3-0.5-1.5,1.1
	c-0.2,1.6-0.8,4.6-0.8,4.6s-0.2,1.2,1.4,1.4s3.4,0.3,3.4,0.3s-1.6,1.3-0.3,2.3l1.1,0.9c0,0-1.5,1.4,0.3,2.3c1.8,1,1.6,0.9,1.6,0.9
	s1.5,0.9,2.9-0.3c0,0,0-1.2-0.5-1.9c-0.5-0.6-6.3-5.6-6.3-5.6s-1.9-1.4-1.1-2.6s2.5-0.3,2.5-0.3l6.2,3.5"/>
<path class="st0" d="M17.3,13.9c0,0,3.9,6.2,0,12.3"/>
<path class="st0" d="M14.7,15.4c0,0,2.9,4.4,0,9.4"/>
<path class="st0" d="M12.1,16.7c0,0,2.4,2.7,0,6.9"/>
<path class="st0" d="M9.7,18c0,0,1.6,2.1,0,4.3"/>
<line class="st0" x1="30.3" y1="15.5" x2="30" y2="17.6"/>
<path class="st0" d="M27.7,23.2l2.8,1.9c0,0,1.1,0.7,2,0"/>
</svg>
