<?xml version="1.0" encoding="utf-8"?>
<!-- Generator: Adobe Illustrator 21.1.0, SVG Export Plug-In . SVG Version: 6.00 Build 0)  -->
<svg version="1.1" id="Layer_1" xmlns="http://www.w3.org/2000/svg" xmlns:xlink="http://www.w3.org/1999/xlink" x="0px" y="0px"
	 width="51.4px" height="40px" viewBox="0 0 51.4 40" style="enable-background:new 0 0 51.4 40;" xml:space="preserve">
<style type="text/css">
	.st0{fill:#FFFFFF;}
</style>
<path class="st0" d="M4.3,39.5c-2.1,0-3.8-1.7-3.8-3.8V4.3c0-2.1,1.7-3.8,3.8-3.8h42.9c2.1,0,3.8,1.7,3.8,3.8v31.4
	c0,2.1-1.7,3.8-3.8,3.8H4.3z M2.4,35.7c0,1.1,0.9,1.9,1.9,1.9h42.9c1.1,0,1.9-0.9,1.9-1.9V16.6H2.4V35.7z M4.3,2.4
	c-1.1,0-1.9,0.9-1.9,1.9v4.8h46.7V4.3c0-1.1-0.9-1.9-1.9-1.9H4.3z M21.1,30.9c-0.3,0-0.6-0.3-0.6-0.6v-0.7c0-0.3,0.3-0.6,0.6-0.6
	h12.1c0.3,0,0.6,0.3,0.6,0.6v0.7c0,0.3-0.3,0.6-0.6,0.6H21.1z M9.6,30.9c-0.3,0-0.6-0.3-0.6-0.6v-0.7C9,29.3,9.3,29,9.6,29H16
	c0.3,0,0.6,0.3,0.6,0.6v0.7c0,0.3-0.3,0.6-0.6,0.6H9.6z"/>
</svg>
