<?xml version="1.0" encoding="utf-8"?>
<!-- Generator: Adobe Illustrator 21.1.0, SVG Export Plug-In . SVG Version: 6.00 Build 0)  -->
<svg version="1.1" xmlns="http://www.w3.org/2000/svg" xmlns:xlink="http://www.w3.org/1999/xlink" x="0px" y="0px" width="990px"
	 height="570px" viewBox="0 0 990 570" style="enable-background:new 0 0 990 570;" xml:space="preserve">
<style type="text/css">
	.st0{opacity:0.6;}
	.st1{opacity:0.5;fill:#EFF7FE;enable-background:new    ;}
	.st2{opacity:0.15;fill:#DFE6EA;enable-background:new    ;}
	.st3{opacity:0.45;fill:#E1F5FB;enable-background:new    ;}
	.st4{opacity:0.3;fill:#D1F0EF;enable-background:new    ;}
	.st5{opacity:0.5;fill:#D1F0EF;enable-background:new    ;}
	.st6{opacity:0.5;fill:#DCE8EF;enable-background:new    ;}
	.st7{opacity:0.2;fill:#FCC8CE;enable-background:new    ;}
	.st8{opacity:0.6;fill:#D5F1F1;enable-background:new    ;}
	.st9{opacity:0.6;fill:#BBE9F9;enable-background:new    ;}
	.st10{fill:#F1FAFA;}
	.st11{opacity:0.2;fill:#FCB9C6;enable-background:new    ;}
	.st12{fill:#FCFDFF;}
	.st13{opacity:0.1;fill:#1DD4FF;enable-background:new    ;}
	.st14{opacity:0.2;fill:#A2EAE0;enable-background:new    ;}
	.st15{fill:none;stroke:#347EC0;stroke-width:1.5;stroke-linejoin:round;stroke-miterlimit:10;}
	.st16{fill:#FFFFFF;stroke:#347EC0;stroke-width:1.5;stroke-miterlimit:10;}
	.st17{fill:none;stroke:#347EC0;stroke-width:1.5;stroke-linecap:round;stroke-linejoin:round;}
	.st18{fill:none;stroke:#347EC0;stroke-width:1.5;stroke-linecap:round;stroke-linejoin:round;stroke-dasharray:3.7679,3.7679;}
	.st19{fill:none;stroke:#347EC0;stroke-width:1.5;stroke-linecap:round;stroke-linejoin:round;stroke-dasharray:4.05,4.05;}
	.st20{fill:none;stroke:#347EC0;stroke-width:1.5;stroke-linecap:round;stroke-miterlimit:10;}
	.st21{display:none;fill:none;stroke:#347EC0;stroke-width:1.5;stroke-linecap:round;stroke-miterlimit:10;}
	.st22{fill:none;stroke:#24AAA3;stroke-width:1.5;stroke-linecap:round;stroke-miterlimit:10;}
	.st23{fill:none;stroke:#3690D7;stroke-width:1.5;stroke-linecap:round;stroke-miterlimit:10;}
	.st24{fill:#E6F7F6;stroke:#24AAA3;stroke-width:2;stroke-linejoin:round;stroke-miterlimit:10;}
	.st25{display:none;}
	.st26{display:inline;fill:#FFFFFF;}
	.st27{display:inline;fill:#3B434F;}
	.st28{display:inline;fill:#F5F3EF;}
	.st29{display:inline;opacity:5.882400e-02;fill:#3B434F;enable-background:new    ;}
	.st30{display:inline;opacity:0.1216;enable-background:new    ;}
	.st31{display:inline;fill:#3B444F;}
	.st32{display:inline;fill:#9EA0A4;}
	.st33{display:inline;opacity:0.2;fill:#3B434F;enable-background:new    ;}
	.st34{fill:#BBDEF4;stroke:#2C73DB;stroke-miterlimit:10;}
	.st35{fill:#BBDEF4;stroke:#2C73DB;stroke-miterlimit:10;stroke-dasharray:3.987,3.9867;}
	.st36{fill:#FFFFFF;stroke:#24AAA3;stroke-linecap:round;stroke-linejoin:round;stroke-miterlimit:10;}
	.st37{fill:none;stroke:#2C73DB;stroke-width:3;stroke-linecap:round;stroke-miterlimit:10;}
	.st38{fill:none;stroke:#2C73DB;stroke-linecap:round;stroke-miterlimit:10;}
	.st39{fill:#E6F7F6;stroke:#24AAA3;stroke-width:1.5;stroke-linecap:round;stroke-linejoin:round;stroke-miterlimit:10;}
	.st40{fill:#FFFFFF;stroke:#24AAA3;stroke-width:1.5;stroke-linecap:round;stroke-linejoin:round;stroke-miterlimit:10;}
	.st41{fill:none;stroke:#24AAA3;stroke-linecap:round;stroke-linejoin:round;stroke-miterlimit:10;}
	.st42{fill:#FDFEFF;stroke:#24AAA3;stroke-width:1.5;stroke-linecap:round;stroke-linejoin:round;stroke-miterlimit:10;}
	.st43{fill:none;stroke:#24AAA3;stroke-width:3;stroke-linecap:round;stroke-linejoin:round;stroke-miterlimit:10;}
	.st44{fill:none;stroke:#24AAA3;stroke-width:1.5;stroke-linecap:round;stroke-linejoin:round;stroke-miterlimit:10;}
	.st45{opacity:0.15;}
	.st46{fill:#D2D9E3;}
	.st47{fill:#A3BBC1;}
	.st48{fill:#FFFFFF;}
	.st49{fill:#C7DDDB;}
</style>
<g id="Layer_1">
	<g id="BG">
		<g id="Layer_2_1_">
			<g class="st0">
				<ellipse class="st1" cx="318.4" cy="300.2" rx="284.9" ry="221.6"/>
				<ellipse class="st2" cx="587.4" cy="177.1" rx="202.4" ry="157.4"/>
				<ellipse class="st3" cx="693.4" cy="311.3" rx="278.2" ry="216.4"/>
				<path class="st4" d="M301.5,371.4c4.3-2.8,14.2,0.2,26.8,4c9,2.7,13.5,5.2,22.6,5.7c4.8,0.3,12,0.7,14.3-2.2
					c4.5-5.6-12.9-20.2-12.5-20.5c0.5-0.3,19.5,22.3,28.6,19.8c2.3-0.6,3.8-3.2,6.9-8.3c4.2-6.9,3.1-8.6,6-10.8
					c4.9-3.7,9.9-0.4,18.5-3.2c8.6-2.9,7.5-7.6,17.1-12.9c6.2-3.5,12-4.5,21.3-6.1c18.8-3.3,21.6,0.7,31-2.9
					c10.5-4,7.9-9.3,21.3-16.9c7.3-4.2,13.8-5.8,24.5-8.6c10.8-2.8,18.6-3.7,32.3-5.4c27.9-3.3,34.7-1.6,38.4-0.4
					c6.4,2.2,6.2,3.8,12.5,6.5c14.2,6,26.3,2.2,42.5,1.8c22.9-0.5,40.6,6.3,60.1,13.7c10.2,3.9,5.1,2.9,37,17.6
					c21.2,9.8,25.3,11.1,33.3,16.5c9,6.2,18.7,12.9,24.5,24.1c3.6,7,3,10.7,9.2,21.6c5,8.7,8.2,11.5,11.1,13.3
					c5.8,3.7,9,2.9,12.5,6.5c5.1,5.3,5,14.1,0.5,16.2c-3,1.4-7.4-0.4-9.2-1.1c-5.9-2.3-5.5-5.2-11.1-8.3c-1-0.6-8.5-4.6-16.6-2.9
					c-0.9,0.2-8.2,1.7-8.8,4.7c-1.5,7.1,37.1,10.3,43.9,27.7c2.6,6.5,0.5,14.4-4.2,19.8c-8.2,9.5-22,8.2-26.3,16.9
					c-3.2,6.3,1.2,13.1,2.3,14.7c9,13.7,38,20.9,57.3,14.4c11.7-4,23.1-14.2,35.1-24.8c5.4-4.8,8.7-8.3,14.8-9
					c9.7-1.1,21.8,5.6,24.5,13.3c4.5,12.7-16.6,27.8-31.9,34.9c-17,7.9-37.7,8.1-78.6,8.3c-33.6,0.1-50.6,0.1-62.4-6.5
					c-13.3-7.4-25.8-21.9-31.4-28.4c-9.5-11.1-13-18.1-22.6-19.8c-10.1-1.8-21.2,3.2-23.6,4.3c-7,3.2-6.3,5-12.5,8.3
					c-15.3,8.1-31.4,3-33.7,7.9c-1.5,3.1,3.6,7.6,8.8,12.2c6.8,6,10.7,6.4,11.1,9.3c0.7,5-9.3,12.4-19.4,12.6
					c-12.6,0.2-15.3-10.9-30.5-13.7c-3.1-0.6-9-1.2-32.3,6.5c-31.4,10.3-30.1,14.6-45.7,17.3c-17.4,3-33,0-48.5-2.9
					c-21-4-21.3-7.5-37-9c-21.8-2-24.1,4.6-43.9,2.9c-13.5-1.2-25.3-6.3-49-16.5c-19.6-8.5-21-10.6-29.6-14
					c-27.4-10.9-46.1-2.4-90.6-1.8c-32.6,0.4-81,1-97-19.8c-8.1-10.5-8.2-26.8,1.8-35.9c11.4-10.3,28.3-4.8,84.6-8.6
					c45.9-3.2,58-8.5,65.6-15.5c10.3-9.5,12-21.7,12.5-25.5C310.5,390.3,294.5,375.9,301.5,371.4z"/>
				<path class="st5" d="M340.3,462.5c4.3,2.8,14.2-0.2,26.8-4c9-2.7,13.5-5.3,22.6-5.8c4.8-0.3,12-0.7,14.3,2.1
					c4.5,5.6-12.8,20.3-12.4,20.5c0.5,0.3,19.4-22.3,28.6-19.8c2.3,0.6,3.8,3.2,7,8.3c4.2,6.9,3.1,8.6,6,10.8
					c4.9,3.7,9.9,0.4,18.5,3.2c8.6,2.8,7.5,7.5,17.1,12.9c6.2,3.5,12,4.5,21.3,6.1c18.8,3.2,21.6-0.7,31,2.8
					c10.5,4,7.9,9.3,21.3,16.9c7.3,4.1,13.8,5.8,24.5,8.6c10.8,2.8,18.6,3.7,32.4,5.3c27.9,3.3,34.7,1.6,38.4,0.3
					c6.4-2.2,6.2-3.8,12.5-6.5c14.2-6,26.3-2.2,42.5-1.9c22.9,0.5,40.6-6.3,60-13.7c10.2-3.9,5.1-2.9,36.9-17.7
					c21.2-9.8,25.3-11.1,33.2-16.6c8.9-6.2,18.7-12.9,24.4-24.1c3.5-7,3-10.7,9.2-21.6c4.9-8.7,8.2-11.5,11.1-13.3
					c5.7-3.7,9-2.9,12.5-6.5c5.1-5.3,5-14.1,0.4-16.2c-3-1.4-7.4,0.4-9.2,1.1c-5.9,2.3-5.4,5.2-11.1,8.3c-1,0.6-8.5,4.6-16.6,2.9
					c-0.9-0.2-8.2-1.7-8.8-4.7c-1.5-7.1,37-10.3,43.8-27.7c2.5-6.5,0.4-14.4-4.2-19.8c-8.2-9.4-22-8.2-26.4-16.9
					c-3.2-6.3,1.2-13.1,2.3-14.7c8.9-13.7,37.9-21,57.3-14.5c11.7,4,23.2,14.1,35.2,24.8c5.4,4.8,8.8,8.3,14.8,9
					c9.7,1.1,21.8-5.6,24.5-13.3c4.4-12.7-16.7-27.8-32-34.8c-17-7.8-37.8-8.1-78.6-8.2c-33.6-0.1-50.6,0-62.4,6.6
					c-13.3,7.4-25.7,21.9-31.4,28.4c-9.5,11.1-12.9,18.1-22.6,19.8c-10.1,1.8-21.2-3.2-23.6-4.3c-7-3.2-6.4-5-12.5-8.3
					c-15.3-8-31.4-2.9-33.8-7.9c-1.5-3.1,3.6-7.6,8.8-12.2c6.8-6,10.7-6.4,11.1-9.4c0.7-5-9.3-12.4-19.4-12.6
					c-12.6-0.2-15.2,11-30.5,13.7c-3.1,0.6-9,1.2-32.4-6.4c-31.4-10.3-30.2-14.5-45.8-17.2c-17.4-3-33,0-48.5,2.9
					c-21,4-21.2,7.6-37,9c-21.7,2-24.1-4.5-43.9-2.8c-13.5,1.2-25.3,6.3-48.9,16.6c-19.5,8.5-20.9,10.6-29.5,14.1
					c-27.4,10.9-46.1,2.4-90.6,1.9c-32.6-0.4-81-0.9-97,19.9c-8.1,10.5-8.2,26.8,1.9,35.9c11.4,10.3,28.3,4.7,84.6,8.5
					c45.9,3.1,58,8.4,65.7,15.4c10.3,9.5,12,21.7,12.5,25.5C349.3,443.5,333.3,457.9,340.3,462.5z"/>
				<path class="st6" d="M123.9,97.5c-3.7-1.3-3-7-8.8-8.4c-4.5-1.1-8.4,1.5-10.1,0c-2-1.7,2.6-5.4,0.3-8.6c-1.5-2.2-5.3-2.8-6.9-3
					c-6.2-1-9.5,1.9-11.8,0.5c-2.8-1.7,1.6-6.3-1.6-11.2c-1.5-2.3-4.8-4.6-8.8-4.8c-4.5-0.2-8.3,2.3-10.1,4.8
					c-2.6,3.6,0.4,5.5-1.6,10.7c-1.6,4.1-4.1,4.3-5.9,8.4c-1.9,4.3-0.9,7.8-0.3,10.7c2.4,12.8-2,27.6-5.9,27.9
					c-2.4,0.2-5.4-4.9-6.9-7.4c-2.7-4.6-2.8-7.7-4.6-7.9c-1.9-0.2-4,3-4.9,4.8c-2.3,4.7-2.1,11.8,3.3,15.5c4,2.8,7.7,1.5,8.8,3.6
					c1.8,3.4-7.7,7.1-11.1,17c-1.1,3.3-1.4,6.9,0,7.4c2.2,0.8,6.5-5.9,10.5-5.1c2.4,0.5,1.7,3.1,4.9,5.1c4.2,2.6,8.4,0.1,12.7,2
					c3.9,1.8,3.2,5.1,6.2,11.9c1.7,3.9,4.7,7.7,10.8,15.2c8.1,10.2,9.1,9.2,11.4,14c3.3,6.7,1.9,9.6,6.2,13
					c4.5,3.4,8.5,2.3,11.1,5.6c2.8,3.6,0.9,8.7-1.3,11.7c-2.7,3.6-8.4,5.6-19.6,9.4c-12.4,4.2-16.7,4.3-18.6,4.3
					c-3.6,0-9.4,0-13.7-3c-3.2-2.3-2.5-4.1-6.2-11.2c-3.3-6.4-4.9-9.5-8.5-11.4c-5.1-2.7-13-2.6-18.6-0.3
					c-8.8,3.7-10.3,12.6-13.4,30.5c-1.6,9.1-0.7,10.7,0.7,11.7c3,2.1,8.2,0.8,33.6-3c5-0.8,8.1-1.2,11.4,0c7,2.5,9.1,9.9,9.8,12.2
					c1.2,4.1,0.2,5.2,0.7,12.7c0.4,5.7,0.6,8.9,1.6,11.7c3.2,8.6,12,8.3,25.1,19.6c5.8,5,11.5,9.9,13.7,17.5
					c2.4,8.3-0.2,16.2-1.6,19.6c-3.6,8.8-8.6,10.4-7.2,14.2c2.5,6.8,21.5,10.6,27.1,6.1c2.8-2.2,0.3-4.9,3.3-7.9
					c4.2-4.2,15.9-5.2,22.5-1.5c2.3,1.3,4.5,3.4,9.1,21.3c3.2,12.2,3.3,15.9,7.8,18.5c4.8,2.9,11.2,2.7,16,2.5
					c7.4-0.2,9.3-1.9,18-3.3c10.4-1.7,12.5,0,20.9-1c8.4-1,9.2-3.1,24.2-8.6c22.2-8.3,24.8-5.5,36.2-11.9c2.7-1.5,8.3-5,17-8.6
					c5.2-2.2,8.4-3.1,9.8-3.6c2.7-0.8,8.4-2.3,16-2.8c9.4-0.5,11.5,1.2,14.4-0.5c4.2-2.6,0.6-7.3,5.2-11.2c3.4-2.9,9.1-3.5,13.1-3
					c4.2,0.5,4.8,2,14,6.6c6.6,3.3,9.9,4.9,13.1,5.3c6,0.8,8.7-1.1,13.7,0.8c3.7,1.3,3.2,2.7,6.5,3.6c3.9,1,6-0.3,13.7-1.3
					c8.3-1,8.2,0.3,10.8-0.8c5.8-2.4,3.8-7.9,10.5-13.7c4.5-3.9,6.4-2.4,9.5-5.3c7.9-7.7-5.3-18.3,1.3-31.5c2.7-5.4,7.5-9,10.5-11.2
					c9.9-7.4,17-6.5,21.2-12.7c2.9-4.3,3.6-10.6,0.3-15.2c-4.2-6-12.6-5.7-14.4-11.4c-1.3-4.2,2.5-6.8,0.3-8.9
					c-3.2-3.1-13.9-0.2-15.3,0.3c-11.8,3.3-15.2,9.6-19.9,8.4c-4.5-1.2-5.2-7.8-5.2-8.1c-0.4-4.8,2.8-7.2,7.2-14
					c2-3.1,6.7-10.4,8.2-19c0.9-5.5,2.1-12-2.6-15.2c-4.8-3.3-10.7,0.4-16.3-2.8c-5-2.9-2.1-7-6.5-16.5c-4.1-8.8-11-14.9-13.7-17.3
					c-6.5-5.6-7.9-4.4-10.5-7.9c-2.6-3.4-3.4-7.4,0-25.1c2.7-14.1,4.2-16.7,1.6-19c-2.5-2.2-6-2-28.1-1.3
					c-18.8,0.6-25.1,0.6-30.4-2.8c-4.8-3.1-6.3-7.4-6.5-8.1c-2.8-8.4,5.9-12.8,2.9-19.6c-2-4.6-8.7-8.7-14-8.1
					c-6.8,0.7-6.6,8.4-17.6,14.2c-6.1,3.2-14,5-15.7,3.3c-2.7-2.7,12.9-12.5,9.5-17.3c-2.6-3.6-14.2-1.9-15.3-1.8
					c-14.7,2.2-16.8,10.1-28.7,14.5c-18.6,6.9-42.1-1.8-51.6-5.3c-20.5-7.6-20.8-15.2-31.7-15C148.4,70.7,132.9,100.6,123.9,97.5z"
					/>
				<path class="st7" d="M796.8,49.1c4.5-1.6,3.7-8.6,10.8-10.3c5.5-1.3,10.3,1.8,12.4,0c2.4-2.1-3.2-6.6-0.4-10.6
					c1.9-2.7,6.5-3.4,8.4-3.7c7.6-1.2,11.6,2.3,14.4,0.6c3.5-2.1-1.9-7.8,2-13.7c1.9-2.8,5.9-5.7,10.8-5.9
					c5.5-0.2,10.2,2.9,12.4,5.9c3.1,4.4-0.5,6.7,2,13.1c2,5.1,5,5.3,7.2,10.3c2.3,5.2,1.1,9.6,0.4,13.1c-3,15.7,2.5,33.9,7.2,34.3
					c2.9,0.3,6.6-6,8.4-9c3.4-5.7,3.4-9.4,5.6-9.7c2.3-0.2,4.9,3.7,6,5.9c2.8,5.8,2.5,14.4-4,19c-4.9,3.5-9.5,1.8-10.8,4.4
					c-2.2,4.1,9.5,8.8,13.6,20.9c1.4,4,1.8,8.4,0,9c-2.6,0.9-8-7.2-12.8-6.2c-2.9,0.6-2.1,3.8-6,6.2c-5.1,3.2-10.3,0.1-15.6,2.5
					c-4.8,2.2-3.9,6.3-7.6,14.7c-2.1,4.8-5.8,9.4-13.2,18.7c-9.9,12.5-11.1,11.3-14,17.1c-4.1,8.3-2.3,11.8-7.6,15.9
					c-5.5,4.2-10.5,2.8-13.6,6.9c-3.4,4.4-1.1,10.6,1.6,14.3c3.3,4.5,10.3,6.9,24.1,11.5c15.3,5.2,20.5,5.3,22.8,5.3
					c4.4,0,11.6,0,16.8-3.7c3.9-2.8,3.1-5,7.6-13.7c4-7.8,6.1-11.7,10.4-14c6.2-3.3,16-3.2,22.8-0.3c10.8,4.5,12.7,15.5,16.4,37.4
					c1.9,11.2,0.9,13.2-0.8,14.3c-3.7,2.5-10.1,1-41.3-3.7c-6.1-0.9-9.9-1.5-14,0c-8.6,3.1-11.2,12.2-12,15c-1.5,5-0.2,6.4-0.8,15.6
					c-0.4,7-0.7,10.9-2,14.3c-4,10.5-14.8,10.2-30.9,24c-7.2,6.2-14.1,12.1-16.8,21.5c-2.9,10.1,0.3,19.8,2,24
					c4.5,10.8,10.6,12.7,8.8,17.5c-3.1,8.4-26.4,13-33.3,7.5c-3.4-2.7-0.4-6-4-9.7c-5.2-5.2-19.5-6.4-27.7-1.9
					c-2.8,1.5-5.5,4.1-11.2,26.2c-3.9,15-4.1,19.5-9.6,22.8c-5.9,3.5-13.8,3.3-19.6,3.1c-9-0.3-11.4-2.4-22-4.1
					c-12.8-2-15.3,0-25.7-1.2c-10.3-1.3-11.3-3.7-29.7-10.6c-27.3-10.2-30.5-6.7-44.5-14.7c-3.3-1.9-10.2-6.1-20.8-10.6
					c-6.4-2.7-10.3-3.9-12-4.4c-3.3-0.9-10.3-2.9-19.6-3.4c-11.5-0.7-14.2,1.5-17.6-0.6c-5.2-3.2-0.8-8.9-6.4-13.7
					c-4.2-3.5-11.2-4.3-16-3.7c-5.2,0.6-5.9,2.5-17.2,8.1c-8.1,4-12.1,6-16,6.5c-7.4,1-10.6-1.3-16.8,0.9c-4.6,1.6-3.9,3.3-8,4.4
					c-4.7,1.3-7.3-0.4-16.8-1.6c-10.2-1.2-10,0.4-13.2-0.9c-7.2-3-4.7-9.7-12.8-16.8c-5.5-4.8-7.9-2.9-11.6-6.5
					c-9.7-9.4,6.5-22.4-1.6-38.7c-3.3-6.6-9.2-11-12.8-13.7c-12.2-9.1-20.8-7.9-26.1-15.6c-3.6-5.3-4.4-13-0.4-18.7
					c5.2-7.4,15.5-7,17.6-14c1.6-5.2-3.1-8.3-0.4-10.9c3.9-3.7,17-0.2,18.8,0.3c14.5,4,18.6,11.8,24.5,10.3c5.5-1.4,6.4-9.6,6.4-10
					c0.5-5.9-3.4-8.8-8.8-17.1c-2.5-3.8-8.2-12.8-10-23.4c-1.2-6.7-2.5-14.8,3.2-18.7c5.9-4.1,13.2,0.5,20-3.4
					c6.1-3.5,2.6-8.6,8-20.3c5-10.9,13.5-18.3,16.8-21.2c8-6.9,9.6-5.4,12.8-9.7c3.1-4.2,4.2-9.1,0-30.9c-3.3-17.3-5.2-20.5-2-23.4
					c3-2.8,7.4-2.4,34.5-1.6c23.1,0.7,30.8,0.8,37.3-3.4c5.9-3.8,7.7-9.1,8-10c3.4-10.3-7.2-15.7-3.6-24c2.5-5.6,10.7-10.7,17.2-10
					c8.3,0.9,8.1,10.3,21.6,17.5c7.5,4,17.2,6.1,19.2,4.1c3.3-3.3-15.8-15.4-11.6-21.2c3.1-4.4,17.4-2.4,18.8-2.2
					c18.1,2.7,20.6,12.4,35.3,17.8c22.9,8.5,51.7-2.2,63.3-6.5c25.2-9.3,25.6-18.6,38.9-18.4C766.7,16.2,785.8,52.9,796.8,49.1z"/>
				<path class="st8" d="M191.9,196c-3.1,0.5-1.2,7.1-7.6,16.6c-3.4,5.1-5,4.7-7.1,8.5c-4,7.1-0.5,11.9,0.5,22.5
					c1,10.9-1.2,24.4-5.7,25.1c-3.9,0.5-8.8-10.7-10-10.3c-1.4,0.4,10.4,14.9,4.7,28c-4,9.3-14.9,13.8-12.8,16.6
					c2,2.6,11.4-1.6,20.9,2.6c3.2,1.4,5.1,3.4,9,7.4c5.8,6,7.7,9.8,11.9,15.5c2.8,3.9,2.3,2.6,14.2,16.2
					c7.8,8.9,11.8,13.5,15.2,18.1c7.4,10.1,11.2,15.2,10.4,19.9c-1.4,9.3-13.6,15.1-19.9,18.1c-6.2,2.9-12.9,6.1-20.4,4.8
					c-5.9-1-7.6-4.1-13.7-4.1c-6.5,0-9.2,3.4-11.9,2.2c-3.5-1.6,0.7-7.4-3.3-14c-0.2-0.4-4.3-6.7-11.9-7.7c-7-0.9-13,3.3-15.2,4.8
					c-10.4,7.3-9.2,16.3-14.2,38.7c-5,22.2-10.2,31-5.2,33.6c4.1,2.1,12.6-1.2,17.5-5.2c8.4-6.8,3.4-13.6,11.9-22.5
					c1-1.1,9.3-9.8,18-8.5c7.5,1.2,13.4,9.6,11.9,16.2c-1.9,8.4-14.4,8.4-19,18.8c-0.4,0.9-3.9,9.4,1.9,16.2
					c4.9,5.7,13.5,6.8,20.4,7.7c6.6,0.9,17.5,2.3,22.8-2.2c3.2-2.8,1.2-5.1,4.7-16.6c1.6-5.2,2.8-9.2,4.7-9.2
					c2.2-0.1,4.8,5.2,5.7,9.6c1.4,7.1-1.8,10,0.9,12.5c3,2.8,10.2,2.3,14.7,0.7c0.9-0.3,8.3-2.9,8.5-8.1c0.2-3.5-3.1-6.7-6.6-8.1
					c-5.7-2.3-10.5,0.7-12.8-1.5c-2.2-2,0-6.7,2.8-9.6c3.2-3.3,5.6-2.4,8.1-5.2c2.1-2.4,1.6-4.4,1.4-12.9c-0.1-5.8-0.2-8.6,0-9.6
					c1.1-6.1,6.6-9.3,16.6-16.6c11.8-8.6,3.6-3.8,25.1-19.9c12.7-9.6,19.1-14.3,21.8-15.5c11.3-4.8,18.6-3.1,43.6-4.1
					c24.8-0.9,37.1-1.4,48.4-4.8c23.4-7.1,20.5-17.1,40.8-22.9c29.5-8.4,61.5,5.3,64.5,6.6c22.4,9.9,21.8,20.7,41.7,24.7
					c17.5,3.5,22.4-4,40.3-0.7c26.8,4.9,40.1,26.1,43.1,24.3c2.8-1.6-9.5-18.3-12.8-22.9c-11.2-15.3-17.1-19.9-27-33.2
					c-9.6-12.8-14.4-19.2-16.6-26.2c-7.6-24,9.4-38.9-1.4-47.2c-5.4-4.1-14.1-4-28.4-3.7c-17.1,0.3-20.1,4.1-31.8,2.6
					c-10-1.3-24.3-6.4-25.6-13.6c-1.3-7,10.5-10.6,10.4-21.8c0-2.7-0.1-6.9-3.3-8.5c-2.3-1.1-6.7-1.2-34.6,11.1
					c-8,3.5-11.8,5.4-15.2,4.1c-4.1-1.6-2.9-6.3-9.5-12.5c-2.8-2.7-4.7-4.5-7.6-4.8c-6.2-0.7-8.6,6.1-18.5,10.3
					c-8.1,3.4-16.2,3.1-26.1,2.6c-15.5-0.7-15.2-4.1-24.7-4.1c-17.6,0.2-22.3,11.9-50.7,18.1c-7.7,1.7-12.6,1.9-16.6,0
					c-7.4-3.5-1.5-12.6-7.6-17c-9.2-6.6-30.2,7.1-41.2,0.4c-8-4.9-4.7-16.7-10.9-17.7c-4-0.7-5.8,4-10.9,4.1
					C202.7,213,196.9,195.1,191.9,196z"/>
				<ellipse class="st9" cx="211.8" cy="230.6" rx="16.1" ry="12.5"/>
				<ellipse class="st10" cx="500.6" cy="121.8" rx="16.1" ry="12.5"/>
				<ellipse class="st10" cx="867.9" cy="236.1" rx="16.1" ry="12.5"/>
				<ellipse class="st11" cx="762.3" cy="98.4" rx="16.1" ry="12.5"/>
				<ellipse class="st12" cx="149.4" cy="134.4" rx="16.1" ry="12.5"/>
				<ellipse class="st10" cx="253.4" cy="271.3" rx="9.1" ry="7"/>
				<ellipse class="st10" cx="299.6" cy="239.6" rx="9.1" ry="7"/>
				<ellipse class="st10" cx="335.4" cy="287" rx="8.6" ry="6.3"/>
				<ellipse class="st7" cx="451.6" cy="278.4" rx="17.1" ry="10.2"/>
				<ellipse class="st10" cx="519" cy="368.8" rx="6" ry="5.9"/>
				<ellipse class="st10" cx="260.4" cy="490.9" rx="6" ry="5.9"/>
				<ellipse class="st10" cx="652.9" cy="480.7" rx="6" ry="5.9"/>
				<ellipse class="st10" cx="914.6" cy="328.9" rx="6" ry="5.9"/>
				<ellipse class="st10" cx="913.6" cy="217.7" rx="6" ry="5.9"/>
				<ellipse class="st10" cx="558.3" cy="324.2" rx="8.1" ry="5.9"/>
				<ellipse class="st10" cx="558.3" cy="273.3" rx="5" ry="5.1"/>
				<ellipse class="st10" cx="642.3" cy="249" rx="7.5" ry="5.1"/>
				<ellipse class="st10" cx="685.1" cy="206.4" rx="6" ry="5.5"/>
				<ellipse class="st10" cx="463.7" cy="207.9" rx="6" ry="5.5"/>
				<ellipse class="st10" cx="558.8" cy="190.7" rx="5.5" ry="3.1"/>
				<ellipse class="st10" cx="619.7" cy="420.5" rx="6" ry="3.5"/>
				<ellipse class="st13" cx="723.3" cy="406.8" rx="13.4" ry="12.5"/>
				<ellipse class="st14" cx="340.4" cy="451" rx="14.6" ry="10.6"/>
				<ellipse class="st5" cx="144.7" cy="358.6" rx="13.1" ry="9.8"/>
				<ellipse class="st10" cx="68.2" cy="279.2" rx="14.1" ry="13.3"/>
			</g>
		</g>
	</g>
	<g id="Icons">
		<g id="Right-side">
			<g id="Setting">
				<path class="st15" d="M779,405.5l-4.6-2.7c0.3-2.3,0.3-4.6,0-6.9l4.6-2.7c1.4-0.8,2-2.4,1.6-3.9c-1.6-5.3-4.4-10.1-8.1-14.1
					c-1.1-1.1-2.8-1.4-4.2-0.6l-4.6,2.7c-1.8-1.4-3.8-2.6-6-3.5v-5.3c0-1.6-1.1-2.9-2.6-3.3c-5.3-1.3-10.9-1.3-16.2,0
					c-1.5,0.4-2.6,1.7-2.6,3.3v5.3c-2.1,0.9-4.1,2.1-6,3.5l-4.6-2.7c-1.4-0.8-3.1-0.5-4.2,0.6c-3.7,3.9-6.5,8.7-8.1,14.1
					c-0.4,1.5,0.2,3.1,1.6,3.9l4.6,2.7c-0.3,2.3-0.3,4.6,0,6.9l-4.6,2.7c-1.4,0.8-2,2.4-1.6,3.9c1.6,5.3,4.4,10.1,8.1,14.1
					c1.1,1.1,2.8,1.4,4.2,0.6l4.6-2.7c1.8,1.4,3.8,2.6,6,3.5v5.3c0,1.6,1.1,2.9,2.6,3.3c5.3,1.3,10.9,1.3,16.2,0
					c1.5-0.4,2.6-1.7,2.6-3.3v-5.3c2.1-0.9,4.1-2.1,6-3.5l4.6,2.7c1.4,0.8,3.1,0.5,4.2-0.6c3.7-3.9,6.5-8.7,8.1-14.1
					C781,407.9,780.3,406.3,779,405.5z"/>
				<circle class="st16" cx="746.9" cy="399.4" r="11"/>
			</g>
			<g id="Chat">
				<path class="st15" d="M773.6,278.2h-15.5l-0.3,18l-18.9-18h-21.1c-3.4,0-6.2-2.8-6.2-6.2v-39.6c0-3.4,2.8-6.2,6.2-6.2h55.8
					c3.4,0,6.2,2.8,6.2,6.2V272C779.8,275.4,777,278.2,773.6,278.2z"/>
				<g>
					<g>
						<line class="st17" x1="727" y1="241.1" x2="729.5" y2="241.1"/>
						<line class="st18" x1="734.2" y1="241.1" x2="759.8" y2="241.1"/>
						<line class="st17" x1="762.2" y1="241.1" x2="764.6" y2="241.1"/>
					</g>
				</g>
				<g>
					<g>
						<line class="st17" x1="727" y1="253.5" x2="729.5" y2="253.5"/>
						<line class="st18" x1="734.2" y1="253.5" x2="759.8" y2="253.5"/>
						<line class="st17" x1="762.2" y1="253.5" x2="764.6" y2="253.5"/>
					</g>
				</g>
				<g>
					<g>
						<line class="st17" x1="727.9" y1="264.3" x2="730.4" y2="264.3"/>
						<line class="st19" x1="735.4" y1="264.3" x2="742.9" y2="264.3"/>
						<line class="st17" x1="745.4" y1="264.3" x2="747.9" y2="264.3"/>
					</g>
				</g>
			</g>
			<g id="line_chart">
				<polyline class="st20" points="701.4,88.9 701.4,158.9 791.2,158.9 				"/>
				<g>
					<line class="st21" x1="701.4" y1="89.4" x2="703.5" y2="89.4"/>
					<line class="st21" x1="701.4" y1="95.2" x2="703.5" y2="95.2"/>
					<line class="st21" x1="701.4" y1="101.1" x2="703.5" y2="101.1"/>
					<line class="st21" x1="701.4" y1="106.9" x2="703.5" y2="106.9"/>
					<line class="st21" x1="701.4" y1="112.7" x2="703.5" y2="112.7"/>
					<line class="st20" x1="701.4" y1="118.5" x2="703.5" y2="118.5"/>
					<line class="st20" x1="701.4" y1="124.4" x2="703.5" y2="124.4"/>
					<line class="st20" x1="701.4" y1="130.2" x2="703.5" y2="130.2"/>
					<line class="st20" x1="701.4" y1="136" x2="703.5" y2="136"/>
					<line class="st20" x1="701.4" y1="141.8" x2="703.5" y2="141.8"/>
					<line class="st20" x1="701.4" y1="147.7" x2="703.5" y2="147.7"/>
					<line class="st20" x1="701.4" y1="153.5" x2="703.5" y2="153.5"/>
					<line class="st20" x1="701.4" y1="95.2" x2="703.5" y2="95.2"/>
					<line class="st20" x1="701.4" y1="101" x2="703.5" y2="101"/>
					<line class="st20" x1="701.4" y1="106.8" x2="703.5" y2="106.8"/>
					<line class="st20" x1="701.4" y1="112.7" x2="703.5" y2="112.7"/>
					<line class="st20" x1="701.4" y1="118.5" x2="703.5" y2="118.5"/>
				</g>
				<polyline class="st22" points="711.1,145.2 732.2,127.8 741.8,134.6 757.9,115.4 769.3,130.2 780.7,104.9 				"/>
				<polyline class="st23" points="712.2,118.5 724,112.2 736.8,137.2 756.4,132.4 769.9,149.5 776,144 				"/>
			</g>
		</g>
		<g id="Stars">
			<path class="st24" d="M386.5,502.3l-14.2-2.1l-6-12.2c-0.3-1.4-1.6-2.4-3.1-2.4c-1.5,0-2.7,1-3.1,2.3l-6.1,12.3l-14.2,2.1
				c-2,0.3-3.1,2.3-2.5,4.1c0.2,0.8,0.7,1.5,1.4,1.9l9.6,9.4L346,531c-0.2,0.4-0.2,0.8-0.2,1.2c0,1.8,1.4,3.2,3.2,3.2
				c0.8,0,1.5-0.3,2-0.7l12.1-6.4l12.2,6.4c0.5,0.4,1.2,0.7,2,0.7c1.8,0,3.2-1.4,3.2-3.2c0-0.5-0.1-0.9-0.3-1.3l-2.3-13.3l9.6-9.3
				c0.9-0.5,1.5-1.4,1.6-2.5C389.3,504.2,388.3,502.5,386.5,502.3z"/>
			<path class="st24" d="M448.2,502.3l-14.2-2.1l-6-12.2c-0.3-1.4-1.6-2.4-3.1-2.4c-1.5,0-2.7,1-3.1,2.3l-6.1,12.3l-14.2,2.1
				c-2,0.3-3.1,2.3-2.5,4.1c0.2,0.8,0.7,1.5,1.4,1.9l9.6,9.4l-2.3,13.4c-0.2,0.4-0.2,0.8-0.2,1.2c0,1.8,1.4,3.2,3.2,3.2
				c0.8,0,1.5-0.3,2-0.7l12.1-6.4l12.2,6.4c0.5,0.4,1.2,0.7,2,0.7c1.8,0,3.2-1.4,3.2-3.2c0-0.5-0.1-0.9-0.3-1.3l-2.3-13.3l9.6-9.3
				c0.9-0.5,1.5-1.4,1.6-2.5C451.1,504.2,450,502.5,448.2,502.3z"/>
			<path class="st24" d="M509.9,502.3l-14.2-2.1l-6-12.2c-0.3-1.4-1.6-2.4-3.1-2.4c-1.5,0-2.7,1-3.1,2.3l-6.1,12.3l-14.2,2.1
				c-2,0.3-3.1,2.3-2.5,4.1c0.2,0.8,0.7,1.5,1.4,1.9l9.6,9.4l-2.3,13.4c-0.2,0.4-0.2,0.8-0.2,1.2c0,1.8,1.4,3.2,3.2,3.2
				c0.8,0,1.5-0.3,2-0.7l12.1-6.4l12.2,6.4c0.5,0.4,1.2,0.7,2,0.7c1.8,0,3.2-1.4,3.2-3.2c0-0.5-0.1-0.9-0.3-1.3l-2.3-13.3l9.6-9.3
				c0.9-0.5,1.5-1.4,1.6-2.5C512.8,504.2,511.7,502.5,509.9,502.3z"/>
			<path class="st24" d="M571.7,502.3l-14.2-2.1l-6-12.2c-0.3-1.4-1.6-2.4-3.1-2.4c-1.5,0-2.7,1-3.1,2.3l-6.1,12.3l-14.2,2.1
				c-2,0.3-3.1,2.3-2.5,4.1c0.2,0.8,0.7,1.5,1.4,1.9l9.6,9.4l-2.3,13.4c-0.2,0.4-0.2,0.8-0.2,1.2c0,1.8,1.4,3.2,3.2,3.2
				c0.8,0,1.5-0.3,2-0.7l12.1-6.4l12.2,6.4c0.5,0.4,1.2,0.7,2,0.7c1.8,0,3.2-1.4,3.2-3.2c0-0.5-0.1-0.9-0.3-1.3l-2.3-13.3l9.6-9.3
				c0.9-0.5,1.5-1.4,1.6-2.5C574.5,504.2,573.5,502.5,571.7,502.3z"/>
			<path class="st24" d="M633.4,502.3l-14.2-2.1l-6-12.2c-0.3-1.4-1.6-2.4-3.1-2.4c-1.5,0-2.7,1-3.1,2.3l-6.1,12.3l-14.2,2.1
				c-2,0.3-3.1,2.3-2.5,4.1c0.2,0.8,0.7,1.5,1.4,1.9l9.6,9.4l-2.3,13.4c-0.2,0.4-0.2,0.8-0.2,1.2c0,1.8,1.4,3.2,3.2,3.2
				c0.8,0,1.5-0.3,2-0.7l12.1-6.4l12.2,6.4c0.5,0.4,1.2,0.7,2,0.7c1.8,0,3.2-1.4,3.2-3.2c0-0.5-0.1-0.9-0.3-1.3l-2.3-13.3l9.6-9.3
				c0.9-0.5,1.5-1.4,1.6-2.5C636.2,504.2,635.2,502.5,633.4,502.3z"/>
		</g>
	</g>
	<g id="User" class="st25">
		<path id="body-bg-flat" class="st26" d="M342,464c0,0-10.3-90.3,78.4-100.4h38v-17.5c0,0,26.7,11.5,53.8,1.3l0.9,16.2h44.4
			c0,0,77.3,7.7,72.6,100.4H342z"/>
		<path id="Rounded_Rectangle_13_copy" class="st27" d="M629.3,465.6L629.3,465.6H344.7l0,0h-5.5l1.4-23.5c2.7-45.9,38.9-81,80.3-81
			h31.5v4.7h-29c-39.9,0-74.8,33.7-77.4,78l-1,16.3h283.4l-0.5-16.3c-2.6-44.2-37.5-78-77.4-78h-38.8v-4.7h41.1
			c41.4,0,77.6,35.1,80.3,81l1.4,23.5H629.3z"/>
		<path id="neck_copy_5" class="st27" d="M462.7,344.1v26.3c0,13.7,11.1,24.7,24.7,24.7s24.7-11.1,24.7-24.7v-25.8
			c1.4-0.4,2.9-0.9,4.3-1.4v27.4c0,16.1-13.1,29.2-29.2,29.2S458,386.8,458,370.6v-28.2C459.5,343.1,461.1,343.6,462.7,344.1z"/>
		<path id="Rounded_Rectangle_14" class="st27" d="M457.8,394.8c1.5,0,2.8,1.2,2.8,2.8v41.8c0,1.5-1.2,2.8-2.8,2.8
			c-1.5,0-2.8-1.2-2.8-2.8v-41.8C455,396,456.2,394.8,457.8,394.8z"/>
		<path id="Rounded_Rectangle_15" class="st27" d="M516,394.3c1.6,0,3,1.3,3,3v26c0,1.6-1.3,3-3,3c-1.6,0-3-1.3-3-3v-26
			C513,395.7,514.4,394.3,516,394.3z"/>
		<path id="Rounded_Rectangle_16" class="st27" d="M457.8,439.1c0.8,0,1.5,0.7,1.5,1.5v10.7c0,0.8-0.7,1.5-1.5,1.5
			c-0.8,0-1.5-0.7-1.5-1.5v-10.7C456.3,439.8,456.9,439.1,457.8,439.1z"/>
		<path id="Rounded_Rectangle_16_copy" class="st27" d="M516.2,423.3c0.8,0,1.5,0.7,1.5,1.5v10.7c0,0.8-0.7,1.5-1.5,1.5
			c-0.8,0-1.5-0.7-1.5-1.5v-10.7C514.7,424,515.4,423.3,516.2,423.3z"/>
		<path id="Shape_1_copy" class="st28" d="M441.8,333.6l-27,6.2c0,0-33.1,7.5-11.1,29.8c22,22.3,78.6,26.2,78.6,26.2
			s-15-7.1-21.3-17.1l-2.1-35.8L441.8,333.6z"/>
		<path id="Shape_1_copy_2" class="st27" d="M483.2,398c-1.7,2.1-48.8,0.7-81.5-27.7c-23.7-20.6,11.9-32.4,11.9-32.4l26-6l22.6,11.5
			L464,378C473.5,392.9,485.9,394.6,483.2,398z M459.7,379.7l-2.6-36.3l-13.7-7.7l-26,6.4c0,0-31.5,6.5-11.5,25.2
			c21.6,20.2,61.5,25.6,65.7,25.2C476,392,469.2,394.6,459.7,379.7z"/>
		<path id="Shape_1_copy_4" class="st28" d="M533.1,334.7l27,6.2c0,0,33.1,7.5,11.1,29.9c-22,22.4-78.7,26.3-78.7,26.3
			s15-7.1,21.3-17.1L516,344L533.1,334.7z"/>
		<path id="Shape_1_copy_6" class="st27" d="M491.6,398.8c1.7,2.1,48.9,0.7,81.5-27.8c23.7-20.6-12-32.5-12-32.5l-26-6L512.6,344
			l-1.7,34.7C501.3,393.7,488.9,395.4,491.6,398.8z M515.1,380.4l2.6-36.4l13.7-7.7l26,6.4c0,0,31.5,6.5,11.5,25.2
			c-21.6,20.3-61.6,25.7-65.7,25.2C498.8,392.8,505.6,395.4,515.1,380.4z"/>
		<path id="_x32__copy_5" class="st26" d="M489.2,76.5c53.1,0,95,49.6,93.6,109.2l-1.4,63.3c-1.3,56.1-42.5,100.5-92.2,100.5
			s-90.9-44.4-92.2-100.5l-1.4-63.3C394.2,126.1,436.1,76.5,489.2,76.5z"/>
		<path id="_x32__line" class="st27" d="M587.1,183.7l-1.5,65.9C584.2,308,541,354.2,489,354.2s-95.2-46.2-96.6-104.6l-1.5-65.9
			c-1.4-62,42.5-113.6,98.1-113.6S588.5,121.7,587.1,183.7z M488.8,76.9c-52.4,0-93.7,49.2-92.3,108.3l1.4,62.8
			c1.3,55.7,42,99.7,90.9,99.7s89.6-44,90.9-99.7l1.4-62.8C582.5,126.1,541.1,76.9,488.8,76.9z"/>
		<path id="_x31__copy_4" class="st29" d="M584.4,194.7l-4.3,70c0,0-19,80.8-92.2,90.3v0.1c-0.1,0-0.3,0-0.4-0.1
			c-0.1,0-0.3,0-0.4,0.1V355c-73.2-9.6-92.2-90.3-92.2-90.3l-4.3-70c19,84.3,35,89.6,35,89.6c-3.2-25.6,23-23,23-23
			c16,2.7,28.8,4,38.8,4.5c10.1-0.5,22.8-1.8,38.8-4.5c0,0,26.3-2.5,23,23C549.4,284.3,565.4,279,584.4,194.7z M537,292.9
			c-1.2-15-10.3-13.8-10.3-13.8c-16.1,4.7-28.8,7.4-38.7,8.7v-0.1c-9.8-1.3-22.4-3.9-38.4-8.6c0,0-9-1.3-10.2,13.7
			c0,0-3.6,14.9,8.5,21.3l15.4,16.2c0,0,10.5,3.3,10.2-9.4c0,0-1.1-9.5,5.1-11.1h9.4v0.3h9.5c6.2,1.6,5.2,11.2,5.2,11.2
			c-0.3,12.8,10.3,9.5,10.3,9.5l15.5-16.3C540.6,308,537,292.9,537,292.9z"/>
		<path id="usta" class="st27" d="M535.1,287.3c-7.8,6.7-25.3,13.1-45.7,13.1c-20.4,0-37.9-6.4-45.7-13.1c0,0-0.8-2.2,0.4-3.3
			c1.2-1.2,3-0.9,3-0.9c7.7,6.7,21.9,12.3,42.2,12.3c20.4,0,34.5-5.6,42.2-12.3c0,0,1.9-0.7,2.8,0.2
			C536.3,285,535.1,287.3,535.1,287.3z"/>
		<path id="_x2D_" class="st27" d="M475.3,310.7h27.3v4.3h-27.3V310.7z"/>
		<path id="Shape_11_copy" class="st26" d="M390.8,193.3c0,0-1-0.8-3-1.4c-1-0.3-2.2-0.6-3.6-0.6c-0.3,0-0.7,0-1.1,0s-0.7,0-1.1,0.1
			c-0.8,0.1-1.5,0.2-2.3,0.5c-3.2,0.9-6.4,3.1-8.3,7.7c-0.9,2.3-1.6,5.1-1.7,8.7c0,0.9-0.1,1.8,0,2.8c0,1,0.1,2,0.1,3.1
			c0.2,2.2,0.5,4.5,0.9,7.1c0,0-0.4,7.8,2.4,16.7c2.6,8.7,8.9,19.5,20.5,22.5C392.2,238.2,392.2,215.6,390.8,193.3L390.8,193.3z"/>
		<path id="Shape_3" class="st27" d="M392.1,194.2c0,0-20.2-6.3-19.5,14.5c0,0,3,30.1,4.3,32.8c0,0,7.9,17.5,21,18.3
			c12.8,0.8,0,0,0,0l0.2,5.6c0,0-23-2.9-27.4-29.4l-3.5-24.1c0,0-2.7-31.8,23.7-23.7c25.7,7.9,0,0,0,0L392.1,194.2"/>
		<path id="Shape_4" class="st27" d="M385.5,236c0,0-1.1,0.9-2.1,0.9s-2.1-0.9-2.1-0.9l-2.1-21c0,0,2.9-10.3,15.1-4.9l0.3,6
			c0,0-10.7-3.8-10.5,0.9C384.3,221.6,385.5,236,385.5,236z"/>
		<path id="Shape_11_copy_x5F_1" class="st26" d="M586.8,193.4c0,0,1.1-0.8,3-1.4c1-0.3,2.2-0.6,3.6-0.6c0.3,0,0.7,0,1.1,0
			c0.4,0,0.7,0,1.1,0.1c0.8,0.1,1.5,0.2,2.3,0.5c3.2,0.9,6.4,3.1,8.3,7.6c1,2.3,1.6,5.1,1.7,8.7c0,0.9,0.1,1.8,0,2.8s-0.1,2-0.1,3.1
			c-0.2,2.2-0.5,4.5-0.9,7.1c0,0,0.4,7.8-2.4,16.7c-2.6,8.7-8.9,19.4-20.6,22.5C585.4,238.2,585.4,215.6,586.8,193.4L586.8,193.4z"
			/>
		<path id="Shape_3_x5F_1" class="st27" d="M585.5,194.3c0,0,20.3-6.2,19.6,14.5c0,0-3,30.1-4.3,32.8c0,0-8,17.5-21.1,18.3
			c-12.8,0.8,0,0,0,0l-0.2,5.6c0,0,23.1-2.9,27.5-29.4l3.5-24c0,0,2.7-31.8-23.8-23.7c-25.8,7.9,0,0,0,0L585.5,194.3"/>
		<path id="Shape_4_x5F_1" class="st27" d="M592.2,236c0,0,1.1,0.9,2.1,0.9s2.1-0.9,2.1-0.9l2.1-21c0,0-2.9-10.3-15.1-4.9l-0.3,6
			c0,0,10.7-3.8,10.5,0.9C593.4,221.6,592.2,236,592.2,236z"/>
		<path id="new_vector_shape_done" class="st27" d="M496.9,234.3c0.5,0,1,0,1.5,0c3.1,4.2,4.3,10.6,6,16.2c0.5,1.7,0,4.8-0.4,6
			c-1.6,4.5-6.7,4.4-10.9,6.4c-1.1,0.5-2,1.5-3.4,1.7c-0.9-0.8-2.1-1-2.6-2.3c-1.2-1.6,0.3-2.6,1.5-3.2c2.1-1.1,8.6-2.2,9.4-4.3
			c1-1.1,0.3-4.4,0-5.5c-0.8-3-1.2-5.4-2.3-8.1c-0.7-1.8-2.1-3.6-1.3-5.8C495,235.1,496.4,234.8,496.9,234.3z"/>
		<path id="Rounded_Rectangle_9" class="st27" d="M434.8,204.2h15.4c2.1,0,3.8,2.1,3.8,4.6s-1.7,4.6-3.8,4.6h-15.4
			c-2.1,0-3.8-2.1-3.8-4.6S432.7,204.2,434.8,204.2z"/>
		<path id="Rounded_Rectangle_9_copy" class="st27" d="M528.7,203.2H544c2.1,0,3.8,2.1,3.8,4.6c0,2.5-1.7,4.6-3.8,4.6h-15.4
			c-2.1,0-3.8-2.1-3.8-4.6C524.8,205.2,526.6,203.2,528.7,203.2z"/>
		<path id="Ellipse_3_copy" class="st30" d="M441.6,229.6c8.2,0,14.9,0.5,14.9,9.8c0,9.6-6.7,9.8-14.9,9.8c-8.2,0-14.9-1.8-14.9-9.8
			C426.7,230,433.4,229.6,441.6,229.6z"/>
		<path id="Ellipse_3_copy_2" class="st30" d="M540.6,229.6c8.2,0,14.9,0.5,14.9,9.8c0,9.6-6.7,9.8-14.9,9.8
			c-8.2,0-14.9-1.8-14.9-9.8C525.7,230,532.4,229.6,540.6,229.6z"/>
		<path id="glasses" class="st31" d="M581.9,188.9c-0.6,4.9-1.1,11-2.2,16.4c-3.2,16.1-17,31.1-40.7,32.8
			c-23.7,1.7-43.8-10.2-45-26.6c-0.2-2.8-0.7-5.9-1.1-8.9c-3.3-1.9-6.8-1.9-10.4,0c-0.4,3.1-1,6.3-1.2,9.2
			c-1.2,16.5-21.4,28.4-45.1,26.7s-37.6-16.7-40.8-32.9c-1.1-5.4-1.6-11.5-2.2-16.4l-3.5-0.3l0.5-6.8l0.9,0.1l21.6,1.6l18.2,1.3
			l18.3,1.3l28.4,2c2,0.2,3.3,1.1,4.1,2.3c4.1,1.8,8.1,1.8,11.9,0c0.8-1.3,2.2-2.2,4.2-2.5l28.3-2l18.2-1.3l18.2-1.3l21.5-1.5
			l0.8-0.1l0.5,6.8L581.9,188.9z M470,196.2l-55.7-4c-7.3-0.6-9.9,7.6-10.3,13.8c-0.9,13.2,13.7,24.9,32.8,26.3
			c19,1.4,35.2-8.2,36.2-21.4C473.4,204.8,475.4,200.9,470,196.2z M571.3,205.8c-0.4-6.2-3-14.4-10.3-13.8l-55.6,4
			c-5.4,4.6-3.3,8.5-2.9,14.7c0.9,13.1,17.1,22.6,36.1,21.3C557.6,230.7,572.2,219,571.3,205.8z"/>
		<path id="Shape_6_copy_3" class="st32" d="M393.8,189.5c0,0,3.3-51.4,35-74.2c0,0,45.8,31.2,117.8,0c0,0,31.9,14.5,36.7,74.2h1.7
			c0,0,9.1-68.4-14.5-95.6c0,0-5.8-20.8-36.7-35.8l-11.1,6.8c0,0-7.5-9.1-27.3-20.5c0,0-14.7,6.5-22.2,17.9l-12-7.7
			c0,0-16.7,7.6-26.5,21.3l-17.9,2.6l-9.4,17.1c0,0-22.4,18.1-15.4,92.2L393.8,189.5z"/>
		<path id="Shape_6_copy" class="st27" d="M588.4,189.5l-8.1-0.4c-4.9-59.7-33.7-70.4-33.7-70.4c-72,31.2-117.8-0.4-117.8-0.4
			c-27.7,23.6-32,71.7-32,71.7l-7.3-2.1c-7-74.1,15.4-93.4,15.4-93.4l10.2-18.8l18.8-2.6c9.8-13.7,27.8-22.2,27.8-22.2l11.2,7.3
			c7.5-11.4,23-17.1,23-17.1c19.9,11.4,27.3,20.1,27.3,20.1l11.5-6.4c30.9,15,39.3,38.8,39.3,38.8
			C597.6,120.7,588.4,189.5,588.4,189.5z M568.4,95.2c0,0-3.7-18.7-34.6-33.7l-11.5,6.8c0,0-7.4-9.1-27.3-20.5c0,0-13.4,7-20.9,18.3
			l-12.8-8.1c0,0-15.4,7.2-25.2,20.9L419,81.6l-9,16.2c0,0-18.6,14.2-16.6,71.7l0.4-0.4c0,0,5.9-35.7,34.9-57.6
			c0,0,47.1,32,119.1,0.9c0,0,26.6,12.5,35.8,57.2C583.7,169.5,589.2,123.5,568.4,95.2z"/>
		<path id="new_x5F_vector_x5F_shape_x5F_done_copy" class="st33" d="M490.1,63.7c0.6,0.5,0.3,0.9,0.2,1.5c-0.2,0.9-0.4,1.7-0.6,2.6
			c-0.2,1.3-0.4,2.6-0.4,3.9c0,1.1,0,2.2,0,3.3c0,0.6,0.1,1.2,0.1,1.9c0,0.2,0.1,0.5,0.1,0.8c0,0.1,0,0.1,0,0.2
			c0,0.3,0.1,0.6,0.1,0.9c0.1,0.3,0.1,0.6,0.2,0.9c0.1,0.5,0.1,0.9,0.3,1.4c0,0.1,0,0.2,0,0.3c0.1,0.4,0.1,0.7,0.3,1.1
			c0,0.1,0,0.1,0,0.2c0.2,0.5,0.2,1.1,0.4,1.6c0.3,0.8,0.5,1.7,0.8,2.5c0.2,0.5,0.4,1.1,0.6,1.7c0.3,1,0.8,1.9,1.1,2.9
			c0.2,0.6,0.5,1.1,0.8,1.7c0.7,1.7,1.6,3.3,2.5,4.9c0.3,0.5,0.6,1,0.9,1.5c0.2,0.3,0.4,0.7,0.6,1c0.1,0.2,0.2,0.3,0.3,0.5
			c0.2,0.4,0.5,0.8,0.7,1.2c0.2,0.4,0.5,0.7,0.7,1c0.3,0.4,0.5,0.8,0.8,1.2c0.4,0.7,0.9,1.3,1.4,2c0.5,0.7,1,1.3,1.5,2
			c0.9,1.3,2.1,2.6,3.1,3.9c0.3,0.4,0.7,0.7,1,1.1c0.2,0.2,0.4,0.4,0.5,0.6c0,0.1,0.1,0.2,0.1,0.3c0,0.1,0,0.3,0,0.5
			c0,0.3,0,0.5,0,0.8c0,0.3-0.2,0.6-0.3,0.8c-0.1,0.2-0.3,0.4-0.4,0.5c-0.1,0.1-0.2,0.2-0.3,0.3c-0.3,0.2-0.6,0.4-0.9,0.5
			c-0.3,0.1-0.7-0.2-1-0.5c-0.4-0.5-1-1-1.4-1.6c-0.1-0.1-0.2-0.2-0.3-0.3c-0.5-0.6-1.1-1.2-1.6-1.8c-0.1-0.1-0.2-0.2-0.3-0.4
			c-0.4-0.5-0.8-0.9-1.2-1.4c-1-1.3-2-2.5-2.9-3.8c-0.2-0.3-0.4-0.5-0.6-0.8c-1.4-2.1-2.8-4.2-4-6.4c-0.3-0.6-0.6-1.1-0.9-1.7
			c-0.8-1.6-1.5-3.2-2.2-4.9c-0.1-0.2-0.2-0.5-0.2-0.7c-0.4-1-0.7-1.9-1-2.9c-0.3-1-0.5-2-0.8-3c-0.1-0.2-0.1-0.4-0.2-0.7
			c0-0.1,0-0.2,0-0.2c-0.1-0.2-0.1-0.5-0.2-0.7c-0.2-0.5-0.2-1.1-0.3-1.7c-0.1-0.5-0.2-1.1-0.2-1.6c0-0.1,0-0.2-0.1-0.3
			c0-0.4-0.1-0.7-0.1-1c0-0.6-0.1-1.2-0.1-1.8c0-0.7,0-1.5,0-2.3c0-0.8,0.1-1.5,0.1-2.2c0.1-2.1,0.5-4.1,1-6.2
			c0.2-0.8,0.5-1.5,0.7-2.3c0.2-0.5,0.4-1,0.6-1.6c0-0.1,0.1-0.2,0.2-0.4c0.1-0.3,0.3-0.7,0.5-0.9c0.1-0.1,0.4-0.1,0.5-0.1
			C490,63.6,490,63.7,490.1,63.7z M470.1,78.4c0.5,0.3,0.4,0.8,0.4,1.2c0,0.4,0.1,0.8,0.1,1.3c0,0.3,0.1,0.6,0.1,0.9
			c0,0.2,0.1,0.5,0.1,0.7c0,0.2,0.1,0.5,0.1,0.7c0,0.3,0.1,0.5,0.1,0.8c0.1,0.2,0.1,0.5,0.2,0.7c0.2,0.7,0.3,1.5,0.5,2.2
			c0.2,0.7,0.4,1.5,0.7,2.3c0.3,1,0.7,1.9,1,2.9c0.2,0.5,0.4,1,0.6,1.4c0.2,0.4,0.3,0.8,0.5,1.2c0.7,1.5,1.5,3,2.3,4.6
			c0.6,1.2,1.4,2.4,2.1,3.5c0.2,0.4,0.5,0.7,0.7,1c0.5,0.8,1.1,1.6,1.7,2.5c0.5,0.8,1.1,1.5,1.7,2.2c0.1,0.1,0.2,0.2,0.3,0.3
			c0.3,0.4,0.6,0.8,0.9,1.2c0.2,0.2,0.3,0.3,0.5,0.5c0.3,0.5,0.5,1.3,0.3,1.8c-0.3,0.9-1.1,1.5-1.8,1.8c-0.2,0.1-0.5,0.2-0.7,0.1
			c-0.3-0.1-0.6-0.4-0.8-0.7c-0.3-0.3-0.6-0.6-0.8-0.9c-0.5-0.6-1-1.1-1.5-1.8c-1-1.3-2-2.5-2.8-3.8c-2-3-3.7-6-5-9.2
			c-0.5-1.3-1-2.6-1.4-3.9c-0.2-0.5-0.2-1-0.4-1.4c-0.2-0.6-0.3-1.3-0.5-1.9c0-0.1,0-0.2,0-0.3c0-0.1-0.1-0.3-0.1-0.4
			c0-0.1,0-0.2,0-0.4c-0.1-0.2-0.1-0.5-0.1-0.7c0-0.2-0.1-0.5-0.1-0.7c0-0.2-0.1-0.3-0.1-0.5c0-0.6-0.2-1.3-0.2-1.9
			c0-0.2-0.1-0.3-0.1-0.5c0-0.6-0.1-1.2-0.1-1.9c0-0.7,0-1.4,0-2.1c0-0.3,0.1-0.5,0.1-0.8c0-0.3,0.1-0.6,0.1-0.9
			c0-0.2,0-0.4,0.1-0.6c0.1-0.2,0.3-0.5,0.4-0.6c0.1-0.1,0.4-0.1,0.5-0.1C470,78.3,470,78.4,470.1,78.4z M454.8,81.6
			c0.5,0.4,0.4,0.8,0.4,1.3c0,0.7,0.1,1.5,0.1,2.2c0,0.6,0.2,1.2,0.2,1.8c0,0.2,0.1,0.4,0.1,0.6c0,0.3,0.1,0.7,0.2,1.1
			c0,0.1,0,0.2,0,0.2c0,0.2,0.1,0.4,0.1,0.5c0,0.1,0,0.2,0,0.3c0.1,0.4,0.2,0.9,0.3,1.3c0.3,1,0.6,2,0.9,3c0.8,2.1,1.8,4.2,2.9,6.3
			c0.4,0.7,0.8,1.3,1.2,2c0.2,0.3,0.4,0.5,0.5,0.8c0.5,0.8,1,1.5,1.5,2.3c0.7,1.1,1.6,2,2.3,3c0.3,0.4,0.6,0.7,0.9,1
			c0.2,0.3,0.5,0.5,0.8,0.9c0.5,0.6,1.1,1.2,1.6,1.8c0.3,0.4,0.6,0.6,0.9,1c0.3,0.4,0.7,0.7,1,1c0.1,0.1,0.2,0.1,0.2,0.2
			c0.3,0.4,0.8,0.7,1.1,1.1c0.1,0.2,0.3,0.2,0.5,0.4c0.5,0.5,1.1,1,1.6,1.5c0.1,0.2,0.3,0.3,0.4,0.4c0.1,0,0.1,0.1,0.2,0.1
			c0.2,0.2,0.4,0.4,0.6,0.5c0.1,0,0.1,0.1,0.2,0.1c0.3,0.3,0.7,0.5,1,0.8c0.1,0.1,0.1,0.1,0.2,0.2c0.4,0.4,0.9,0.7,1.3,1.1
			c0.2,0.1,0.3,0.2,0.5,0.4c0.1,0.1,0.2,0.2,0.3,0.3c0.2,0.3,0.7,0.5,0.9,0.7c0.2,0.2,0.4,0.3,0.5,0.4c0.1,0.1,0.3,0.2,0.4,0.3
			c0.3,0.2,0.7,0.5,1,0.7c0.8,0.6,1.6,1.1,2.3,1.6c0.4,0.3,0.8,0.5,1,0.8c0.1,0.2,0.2,0.4,0.2,0.6c0.1,0.4,0.2,1,0.1,1.5
			c0,0.1-0.1,0.2-0.2,0.4c-0.1,0.2-0.2,0.6-0.5,0.9c-0.2,0.2-0.4,0.4-0.5,0.5c-0.3,0.2-0.6,0.1-1-0.1c-0.1-0.1-0.2-0.2-0.3-0.2
			c-0.5-0.2-1.1-0.7-1.6-1c-0.1,0-0.2-0.2-0.3-0.2c-0.2-0.1-0.4-0.2-0.5-0.4c-0.2-0.1-0.4-0.3-0.6-0.4c-0.2-0.1-0.4-0.2-0.6-0.4
			c-0.1,0-0.1-0.1-0.2-0.1c-0.2-0.1-0.4-0.2-0.6-0.4c-0.2-0.2-0.5-0.4-0.7-0.5c-0.3-0.1-0.6-0.4-0.8-0.6c-0.2-0.2-0.5-0.3-0.7-0.5
			c-0.1-0.1-0.3-0.2-0.4-0.3c-0.3-0.2-0.6-0.4-0.9-0.7c-0.1-0.1-0.3-0.2-0.4-0.3c-0.2-0.2-0.6-0.4-0.8-0.6c-0.1-0.1-0.2-0.1-0.3-0.2
			c-0.2-0.2-0.4-0.3-0.6-0.5c-0.1-0.1-0.2-0.1-0.3-0.2c-0.1-0.1-0.3-0.3-0.4-0.4c-0.1,0-0.1-0.1-0.2-0.1c-0.4-0.4-1-0.8-1.4-1.2
			c-0.1-0.1-0.2-0.2-0.4-0.3c-0.5-0.6-1.2-1-1.7-1.6c-0.1-0.2-0.3-0.2-0.4-0.4c-0.5-0.5-1-1-1.5-1.5c-0.1-0.1-0.1-0.1-0.2-0.2
			c-0.2-0.2-0.5-0.5-0.7-0.7c-0.1-0.1-0.2-0.2-0.3-0.3c-0.7-0.9-1.5-1.6-2.2-2.5c-1.2-1.5-2.4-3-3.3-4.6c-0.2-0.4-0.5-0.7-0.7-1
			c-0.4-0.6-0.8-1.3-1.1-1.9c-0.5-1-1-2-1.5-3.1c-0.3-0.7-0.6-1.5-0.9-2.2c-0.2-0.6-0.4-1.2-0.7-1.8c-0.2-0.6-0.4-1.2-0.6-1.8
			c-0.2-0.6-0.3-1.3-0.5-1.9c-0.1-0.2-0.1-0.5-0.1-0.8c-0.2-0.6-0.2-1.2-0.3-1.8c-0.4-2.5-0.5-5.1-0.3-7.7c0-0.6,0.2-1.2,0.3-1.8
			c0-0.3,0.1-0.6,0.4-0.8c0.1-0.1,0.4-0.1,0.5-0.1C454.7,81.5,454.7,81.6,454.8,81.6z"/>
	</g>
</g>
<g id="Layer_2">
	<g>
		<g>
			<path class="st34" d="M340.5,459c-0.7-9.2-0.7-24.9,6-42.5c2.4-6.2,10-25.6,29.5-40.5c10.5-8.1,21.2-12.3,36.5-16.5
				c0,0,81.3-22.1,155.8,1.5c8.5,2.7,15,5.8,20.3,9c15.5,9.3,23.9,20.7,25.8,23.3c8.8,12.3,11.9,23.8,13.5,30.3
				c3.5,14,3.4,26.2,2.5,34.5C533.7,458.3,437.1,458.7,340.5,459z"/>
			<path class="st35" d="M437.3,339.8c-1.1,0.3-5.2,1.6-11,2.9c-6.9,1.5-8.8,1.4-12.5,2.3c-2.2,0.5-16.4,3.9-18.3,10.5
				c-1.7,5.9,7.3,11.9,12.5,15.4c9.3,6.2,18.9,9,29.8,11.5c18,4.1,30.7,7,49.3,7.2c0,0,37.3,0.4,69-13.4c6.7-2.9,10.6-6.1,18.3-12.3
				c0.6-0.5,1.8-1.5,2.5-3.1c1.5-3.6-1.1-7.2-1.8-8c-1.8-2.2-4.2-3.5-6.5-4.5c-8.1-3.5-14.6-3.8-25.3-5.8c-6.4-1.2-8.3-1.9-13-2.9
				C498.2,332.6,452,335.3,437.3,339.8z"/>
			<path class="st36" d="M458.8,341.8c0.6,11.1,1.2,22.2,1.8,33.3c1.8,2.7,4.6,6.4,8.5,10.5c7.1,7.4,11,11.4,16.5,11.8
				c7.5,0.5,13.9-6,19.8-12c3.2-3.3,5.5-6.5,7-8.8c0.3-10.9,0.7-21.8,1-32.8C495.1,343.1,476.9,342.4,458.8,341.8z"/>
			<line class="st37" x1="456.8" y1="387.3" x2="456.8" y2="436.3"/>
			<line class="st37" x1="515.3" y1="387.5" x2="515.3" y2="423.5"/>
			<line class="st38" x1="456.7" y1="436.5" x2="456.7" y2="446"/>
			<line class="st38" x1="515.3" y1="425.3" x2="515.3" y2="433.8"/>
			<g>
				<path class="st39" d="M496,40.3c3.8,2.2,7.8,4.8,12,8c6,4.5,11,9.1,15,13.3c4.1-2.3,8.2-4.7,12.3-7c3.7,1.8,7.8,4.2,12,7.3
					c12.3,9.1,19.4,20.1,23.3,27.7c2.2,4.2,9,14.8,13.3,28c10.2,30.8,3.9,60.3,0.3,73.3c-64.1-1.3-128.2-2.7-192.3-4
					c-0.6-5.1-1.4-12.6-1.7-21.7c-0.6-16.9-1-30.3,3.7-45.3c2.1-6.7,6.1-16.7,14.3-27.7c2.9-5.8,5.8-11.6,8.7-17.3
					c6.2-1,12.4-2,18.7-3c2.8-3.6,6.8-8,12.3-12.3c5-3.9,9.8-6.5,13.7-8.3c4,2.3,8,4.7,12,7c2.6-3,5.9-6.3,10-9.7
					C488.1,45.1,492.3,42.4,496,40.3z"/>
				<path class="st40" d="M429.3,110.7c10.1,5.4,30.1,14.2,56.7,15c29.4,0.8,51.6-8.7,62-14c5.7,3.9,13.3,10.3,20,20
					c12.5,18.2,13.9,36.8,14,45c0.6,12.9,1,26.3,1,40.3c0,23-0.1,34.6-1,40.7c-1.5,10.3-4.9,31.5-20.3,52
					c-5.4,7.1-23.9,30.9-56.7,37c-18,3.3-33.1,0-41.7-2.7c-4.1-1.3-21.3-7-37-23c-13-13.3-18.6-27.1-22.7-37.3
					c-4.3-10.7-6.5-20.1-7.7-26.7c-0.6-25.8-1.1-51.6-1.7-77.3c1.1-9.2,3.9-23.8,12.3-39.7C414,126.2,422.9,116.6,429.3,110.7z"/>
				<path class="st40" d="M582.8,259.2c1.8-0.7,4.3-1.9,7-3.7c2.2-1.5,8.9-5.9,12.5-13.7c1-2.2,0.3-1.5,3.2-18.2
					c0.8-4.6,1.4-7.7,1.8-12.5c0.6-5.8,0.9-8.8,0.2-11.7c-0.5-2.1-2-8.2-7.5-11.5c-7.3-4.4-15.7-0.2-16.3,0.2
					C583.4,211.8,583.1,235.5,582.8,259.2z"/>
				<path class="st41" d="M594.2,233c0.7-6.8,1.3-13.7,2-20.5c-0.2-0.4-1.6-3.1-4.8-3.8c-3.7-0.9-6.4,1.4-6.7,1.7"/>
				<path class="st42" d="M396.1,258.5c-2.6-0.7-9.4-2.6-14.1-7.3c-6.5-6.6-7.7-14.5-8-17c-0.1-1.8-0.4-4.4-1-7.7
					c-0.8-4.8-1.5-6.1-2.2-9.5c-0.6-2.8-1.6-8.2-0.7-14.3c0.7-4.5,1.3-8.7,4.3-11.7c6.3-6.2,18.9-2.3,19.7-2.1
					C394.6,212.1,395.6,235.3,396.1,258.5z"/>
				<path class="st41" d="M383.3,232.8c-0.6-7.2-1.2-14.3-1.8-21.5c0.4-0.5,2.1-2.5,5.2-3c3.2-0.5,5.6,1.2,6,1.5"/>
				<path class="st43" d="M496.5,232.2c1.8,5.3,3.2,9.1,4.2,11.7c0.1,0.1,0.7,1.8,1.2,4c0.4,1.9,0.6,2.9,0.3,3.8
					c-0.6,1.8-2.4,2.8-4.2,3.7c-1.6,0.8-2.2,0.8-4,1.5c-1.3,0.5-3.1,1.4-5.2,3"/>
				<path class="st43" d="M444.7,281.2c6.3,4,22.1,13,44.2,13.2c23.5,0.2,40.3-9.6,46.5-13.7"/>
				<path class="st44" d="M476,309.7c8.9,0,17.9,0,26.8,0"/>
			</g>
			<g class="st45">
				<path class="st46" d="M425.3,237.8c-0.2-1-0.6-4.6,1.7-7.3c1.7-2,3.9-2.5,7.2-3.2c4.5-0.9,8-0.4,10.7,0c4,0.6,6,0.9,7.7,2.7
					c1.9,2,2.3,4.6,2.5,6c0.2,1.4,0.5,3.9-0.8,6.3c-1,1.8-2.5,2.8-3.2,3.2c-0.9,0.5-2.6,1.4-9,1.3c-4.2,0-6.3,0-8.8-0.8
					c-2.3-0.7-4.9-1.5-6.5-4C425.6,240.4,425.4,238.8,425.3,237.8z"/>
				<path class="st46" d="M524.8,240.8c-1.4-3-0.8-6.6,0.8-9.2c1.9-2.9,4.8-3.9,5.7-4.2c1.9-0.2,4.7-0.5,8-0.5c4.9,0,7.4,0,9.7,1.3
					c3.2,1.9,4.4,5.1,4.7,6c0.3,0.9,1.6,4.8-0.5,8.2c-1.4,2.3-3.6,3-5.8,3.8c-6.7,2.4-12.8,0.4-14.5-0.2
					C529.3,245,526.3,243.9,524.8,240.8z"/>
				<path class="st46" d="M580.3,206.8c-5.7,16.7-9.5,29.6-12,38.7c-2,7.4-4.2,15.8-10.5,25.2c-3.4,5.1-7,8.9-9.5,11.3
					c0.4-1.6,1.6-7.9-2-14c-2.8-4.6-6.8-6.6-8.7-7.5c-4.1-2-7.8-2.1-10.2-2.2c-5.5-0.1-9.3,1.2-12.3,2c-9.5,2.7-17.5,2.9-26.3,3.2
					c-6.2,0.2-11.9,0.3-19.5-1c-5.9-1-10.6-2.6-19.7-3.3c-2.9-0.2-5.9-0.4-9.7,0.3c-3.3,0.6-7,1.3-10.3,4.3
					c-3.6,3.3-4.7,7.3-5.2,9.3c-1,4-0.7,7.4-0.3,9.3c-5.9-8.1-12.6-18.8-18.5-32c-5.8-13-9.2-25-11.3-34.7c-0.3,6.9-0.5,16.5,0,28
					c0.8,17.5,4.1,24.3,7.3,34.3c5,15.7,10.9,27.3,18.3,35.8c8.5,9.8,18.8,20.4,36,27.3c14.4,5.8,26.4,6.9,32.3,6.8
					c4.9-0.1,16.1-0.6,29.5-5.3c5.2-1.8,15.2-5.5,25.7-13.8c11.8-9.5,17.7-19.7,22.2-27.5c3.9-6.8,9.8-18.6,13-34.2
					c2.2-10.6,2.3-18.6,2.5-33C581.3,223,580.8,213.5,580.3,206.8z M536.5,296.7c-0.4,2.7-1,7.3-4.3,11.3c-2.3,2.9-3.2,2-7.3,5.8
					c-3,2.8-3.1,3.7-8.3,9.5c-4,4.4-5.1,5.1-6.5,5.3c-2.8,0.5-6.2-0.7-7.8-3.2c-1.9-2.8,0.1-5-1.2-9.5c-0.2-0.6-1.5-5.3-5.8-8.2
					c-6-4-13.2-1.3-15.5-0.5c-2.7,1-5.5,2-6.8,4.7c-1.4,2.8,0.3,4.3-0.8,8.7c-0.4,1.5-1.5,5.5-4.8,7c-0.3,0.1-2.8,1.3-5.3,0.2
					c-2-0.9-2.9-2.8-3.5-3.8c-2.5-4.7-4.9-4-11.2-10.5c-4.4-4.5-6.9-7.1-8.3-11.5c-1.4-4.2-1-7.7-0.5-12.2c0.5-4.9,0.9-8.4,3.7-10.7
					c0.5-0.4,2.3-1.8,6.7-2c6.7-0.3,12,2.5,13.7,3.3c10.6,5.3,22.5,4.7,26.7,4.5c9.3-0.5,24.2-4.3,31.8-7.5c1-0.4,4-1.7,7.2-0.8
					c3.3,0.9,5.2,3.7,6,4.8C537.8,287,536.9,293.5,536.5,296.7z"/>
			</g>
			<g>
				<path class="st47" d="M393.5,179.3c3.3,0.1,8.5,0.3,14.8,0.7c12.1,0.7,13.9,1.2,28.8,2.3c9,0.7,10.5,0.6,24.8,1.7
					c4.7,0.3,8.6,0.6,11.2,0.8c1.4-0.2,3.4-0.3,5.3,0.7c1.4,0.7,2.1,1.6,2.7,2.2c1.5,1.3,4.6,2.3,11.8,0c0.2-0.4,0.7-1.3,1.8-2
					c1.3-0.8,2.6-0.6,3-0.5c27.1-2.1,54.1-4.2,81.2-6.3c0.9,3.5,1.8,8.9,1.3,15.3c-0.3,4.8-1.3,15.7-9.3,25.3
					c-6.6,7.9-14.6,10.8-19.3,12.5c-3.1,1.1-14.6,5-29,2c-5.8-1.2-14.1-2.9-21.2-10c-1.8-1.8-6.3-6.4-8.2-14
					c-1.1-4.3-1-8.1-0.7-10.5c-0.7-0.5-2.5-1.7-5.2-1.8c-3.1-0.1-5.2,1.4-5.8,1.8c0.1,2.5,0.1,6.1-1,10.3c-0.3,1.1-2.2,8.2-7.7,14.2
					c-8.3,9.1-20,10.2-27.8,11c-5.3,0.5-16.1,1.4-27.7-4.2c-8.3-4-13-9.5-14-10.7c-3.9-4.7-5.8-9.1-7.2-12.3c-1.4-3.4-4.1-10-4-18.8
					C392.4,185,393,181.6,393.5,179.3z"/>
				<path class="st48" d="M405.2,194.3c0.8-1.5,1.9-3.5,4.2-4.7c2.6-1.3,5.1-0.7,6-0.5c18.1,1.3,36.2,2.7,54.3,4
					c0.6,0.6,1.5,1.5,2.2,2.8c0.4,0.8,1.2,2.7,0.8,8c-0.2,3.1-0.4,4.9-1.2,7.3c-1.8,5.3-5.1,8.6-6.5,9.8c-3.8,3.5-7.6,5-10.5,6
					c-6,2.1-11,2.2-14.5,2.2c-7.1,0-12.6-1.6-15-2.3c-4.5-1.5-9.6-3.1-14.3-7.7c-1.7-1.6-4.7-4.7-6.3-9.7c-0.2-0.7-1.4-4.5-0.8-9.3
					C403.7,198.7,403.9,196.7,405.2,194.3z"/>
				<path class="st48" d="M504.8,192.8c18.2-1.3,36.3-2.6,54.5-3.9c0.8-0.1,2.6-0.3,4.5,0.5c1.9,0.8,2.9,2,3.5,2.7
					c1.7,2,2.2,4.1,2.8,6.6c0.4,1.7,0.9,3.9,0.6,6.9c-0.3,2.8-1.1,4.9-1.6,5.9c-1.2,2.7-2.8,4.4-4.2,5.8c-0.6,0.6-3.4,3.5-8.3,6.3
					c-0.8,0.5-4.6,2.5-10.2,3.9c-8.6,2.2-15.5,1.5-17.2,1.3c-3.1-0.4-8.2-1-13.8-3.9c-3-1.6-6.9-3.7-9.9-8.1
					c-2.2-3.2-2.9-6.3-3.4-8.2c-0.7-2.6-1.3-5.1-0.8-8.3C501.9,196.7,503.7,194.2,504.8,192.8z"/>
				<path class="st47" d="M448.8,210.3h-13.9c-2.6,0-4.7-2.1-4.7-4.7v0c0-2.6,2.1-4.7,4.7-4.7h13.9c2.6,0,4.7,2.1,4.7,4.7v0
					C453.4,208.2,451.3,210.3,448.8,210.3z"/>
				<path class="st47" d="M542.8,209.2h-14.1c-2.6,0-4.7-2.1-4.7-4.7s2.1-4.7,4.7-4.7h14.1c2.6,0,4.7,2.1,4.7,4.7
					S545.3,209.2,542.8,209.2z"/>
			</g>
		</g>
		<g>
			<path class="st49" d="M491,62.7c0.1-0.1,0.6-0.5,0.9-0.3c0.4,0.2,0.4,1.1,0.4,1.2c0,0.5-0.2,0.9-0.2,1c-0.6,1.2-0.9,6.1-1,6.8
				c-0.3,4.5,1.2,10.2,1.7,11.8c1.7,6.3,4.2,10.8,5.8,13.9c1.8,3.4,3.5,5.7,6.2,9.7c1.7,2.4,2.5,3.6,3.2,4.1
				c0.6,0.4,1.3,0.9,1.7,1.8c0.4,1.2-0.1,2.3-0.2,2.4c-0.2,0.3-0.8,1.5-1.8,1.4c-0.7-0.1-1.2-0.6-1.5-1.4c-0.4-0.5-1.1-1.3-1.9-2.2
				c-2.9-3.4-4.8-5.6-5.1-6c-2.3-2.8-6.3-8.8-8.8-16.5c-2.1-6.4-2.3-11.4-2.4-15.4C488,75,487.7,65.4,491,62.7z"/>
			<path class="st49" d="M470.7,78.4c0.1-0.4,0.4-1.4,0.8-1.4c0.4,0,0.7,1.1,0.8,1.4c0.2,1.2,0.4,2.7,0.8,4.6
				c0.4,1.9,1.9,7.8,5.7,14.9c1.7,3.1,4.2,7.1,7.8,11.3c0.5,0.8,0.5,1.9,0,2.7c-0.5,0.8-1.3,1.2-2.3,1.2c-1.1-1.2-2.6-2.8-4.2-4.9
				c-1.4-1.9-4.3-6-6.8-12.3C473.2,95.8,468.7,84.8,470.7,78.4z"/>
			<path class="st49" d="M455.3,81.5c0.2-0.4,0.6-1.4,1.1-1.3c0.5,0.1,0.6,1.4,0.7,1.5c0,0.5,0,1.3,0,2.3c0.1,3.1,0.8,7.9,4.5,14.6
				c3.9,7.2,8.6,11.8,12.8,15.8c2.9,2.8,7.3,6.8,13,10.7c-2.6,0-5.3-0.2-8.3-0.3c-1.7-1.3-4-3.1-6.6-5.5c-4.3-3.9-8.1-7.5-11.5-13.2
				c-1.7-2.9-3-7.2-5.7-15.7C455.3,90.2,453.7,85,455.3,81.5z"/>
		</g>
	</g>
</g>
</svg>
