<?xml version="1.0" encoding="utf-8"?>
<!-- Generator: Adobe Illustrator 21.1.0, SVG Export Plug-In . SVG Version: 6.00 Build 0)  -->
<svg version="1.1" id="Layer_1" xmlns="http://www.w3.org/2000/svg" xmlns:xlink="http://www.w3.org/1999/xlink" x="0px" y="0px"
	 width="45px" height="40px" viewBox="0 0 45 40" style="enable-background:new 0 0 45 40;" xml:space="preserve">
<style type="text/css">
	.st0{fill:#FFFFFF;}
</style>
<path class="st0" d="M11.3,39.8c-0.6,0-1-0.5-1-1s0.5-1,1-1H17l2-7.9H3.8c-2,0-3.5-1.6-3.5-3.5V3.8c0-2,1.6-3.5,3.5-3.5h37.5
	c2,0,3.5,1.6,3.5,3.5v22.5c0,2-1.6,3.5-3.5,3.5H26l2,7.9h5.8c0.6,0,1,0.5,1,1s-0.5,1-1,1H11.3z M19.2,37.7h6.6l-1.3-5.4h-3.9
	L19.2,37.7z M3.8,2.3C3,2.3,2.3,3,2.3,3.8v22.5c0,0.8,0.7,1.5,1.5,1.5h37.5c0.8,0,1.5-0.7,1.5-1.5V3.8c0-0.8-0.7-1.5-1.5-1.5H3.8z"
	/>
</svg>
