<?xml version="1.0" encoding="utf-8"?>
<!-- Generator: Adobe Illustrator 21.1.0, SVG Export Plug-In . SVG Version: 6.00 Build 0)  -->
<svg version="1.1" id="Layer_1" xmlns="http://www.w3.org/2000/svg" xmlns:xlink="http://www.w3.org/1999/xlink" x="0px" y="0px"
	 width="970px" height="567px" viewBox="0 0 970 567" style="enable-background:new 0 0 970 567;" xml:space="preserve">
<style type="text/css">
	.st0{opacity:0.6;}
	.st1{opacity:0.5;fill:#EFF7FE;enable-background:new    ;}
	.st2{opacity:0.15;fill:#DFE6EA;enable-background:new    ;}
	.st3{opacity:0.45;fill:#E1F5FB;enable-background:new    ;}
	.st4{opacity:0.3;fill:#D1F0EF;enable-background:new    ;}
	.st5{opacity:0.5;fill:#D1F0EF;enable-background:new    ;}
	.st6{opacity:0.5;fill:#DCE8EF;enable-background:new    ;}
	.st7{opacity:0.2;fill:#FCC8CE;enable-background:new    ;}
	.st8{opacity:0.6;fill:#D5F1F1;enable-background:new    ;}
	.st9{opacity:0.6;fill:#BBE9F9;enable-background:new    ;}
	.st10{fill:#F1FAFA;}
	.st11{opacity:0.2;fill:#FCB9C6;enable-background:new    ;}
	.st12{fill:#FCFDFF;}
	.st13{opacity:0.1;fill:#1DD4FF;enable-background:new    ;}
	.st14{opacity:0.2;fill:#A2EAE0;enable-background:new    ;}
	.st15{fill:#FFFFFF;stroke:#24AAA3;stroke-miterlimit:10;stroke-dasharray:4;}
	.st16{fill:none;}
	.st17{fill:#FFFFFF;stroke:#24AAA3;stroke-width:1.5;stroke-miterlimit:10;stroke-dasharray:4;}
	.st18{fill:#FFFFFF;}
	.st19{fill:#FFFFFF;stroke:#347EC0;stroke-width:1.5;stroke-miterlimit:10;stroke-dasharray:4;}
	.st20{fill:none;stroke:#A2B1BC;stroke-width:1.5;stroke-miterlimit:10;}
	.st21{fill:#FFFFFF;stroke:#A2B1BC;stroke-width:1.5;stroke-miterlimit:10;}
	.st22{fill:#A2B1BC;}
	.st23{fill:none;stroke:#347EC0;stroke-width:1.5;stroke-miterlimit:10;stroke-dasharray:4;}
	.st24{fill:none;stroke:#24AAA3;stroke-width:1.5;stroke-miterlimit:10;}
	.st25{fill:#347EC0;}
</style>
<g>
	<g id="Layer_2">
		<g class="st0">
			<ellipse class="st1" cx="322.1" cy="307.2" rx="272.5" ry="212"/>
			<ellipse class="st2" cx="579.4" cy="189.5" rx="193.6" ry="150.6"/>
			<ellipse class="st3" cx="680.8" cy="317.8" rx="266.1" ry="207"/>
			<path class="st4" d="M305.9,375.3c4.1-2.7,13.6,0.2,25.6,3.8c8.6,2.6,12.9,5,21.7,5.5c4.6,0.3,11.5,0.7,13.7-2.1
				c4.3-5.3-12.3-19.4-11.9-19.6c0.5-0.3,18.6,21.4,27.4,18.9c2.2-0.6,3.6-3,6.6-7.9c4-6.6,3-8.2,5.7-10.3c4.7-3.6,9.5-0.4,17.7-3.1
				c8.2-2.7,7.2-7.2,16.4-12.4c6-3.4,11.5-4.3,20.3-5.8c18-3.1,20.7,0.7,29.6-2.8c10-3.8,7.6-8.9,20.3-16.2c7-4,13.2-5.6,23.4-8.3
				c10.3-2.7,17.8-3.6,30.9-5.2c26.7-3.2,33.2-1.5,36.7-0.3c6.1,2.1,6,3.7,11.9,6.2c13.6,5.8,25.1,2.1,40.7,1.7
				c21.9-0.5,38.9,6,57.5,13.1c9.7,3.7,4.9,2.8,35.4,16.9c20.3,9.4,24.2,10.6,31.8,15.8c8.6,5.9,17.9,12.3,23.4,23
				c3.4,6.6,2.9,10.2,8.8,20.6c4.8,8.3,7.9,11,10.6,12.7c5.5,3.5,8.6,2.8,11.9,6.2c4.9,5,4.8,13.5,0.4,15.5c-2.8,1.3-7-0.3-8.8-1
				c-5.7-2.2-5.2-4.9-10.6-7.9c-1-0.5-8.1-4.4-15.9-2.8c-0.9,0.2-7.8,1.6-8.4,4.5c-1.4,6.8,35.5,9.8,42,26.5
				c2.4,6.2,0.4,13.8-4,18.9c-7.8,9-21.1,7.9-25.2,16.2c-3,6.1,1.2,12.5,2.2,14.1c8.6,13.1,36.3,20,54.8,13.8
				c11.2-3.8,22.1-13.5,33.6-23.7c5.1-4.6,8.4-7.9,14.1-8.6c9.3-1.1,20.8,5.4,23.4,12.7c4.3,12.1-15.9,26.6-30.5,33.4
				c-16.2,7.5-36.1,7.8-75.1,7.9c-32.1,0.1-48.4,0.1-59.7-6.2c-12.7-7.1-24.7-20.9-30.1-27.2c-9.1-10.6-12.4-17.3-21.7-18.9
				c-9.7-1.7-20.3,3.1-22.5,4.1c-6.7,3.1-6.1,4.8-11.9,7.9c-14.6,7.7-30,2.8-32.3,7.6c-1.4,3,3.5,7.3,8.4,11.7
				c6.5,5.8,10.2,6.1,10.6,8.9c0.7,4.8-8.9,11.9-18.6,12c-12.1,0.2-14.6-10.5-29.2-13.1c-2.9-0.5-8.7-1.1-30.9,6.2
				c-30,9.8-28.8,14-43.8,16.5c-16.7,2.8-31.6,0-46.4-2.8c-20.1-3.8-20.3-7.2-35.4-8.6c-20.8-1.9-23.1,4.4-42,2.8
				c-12.9-1.1-24.2-6-46.9-15.8c-18.7-8.1-20.1-10.1-28.3-13.4c-26.2-10.4-44.1-2.3-86.6-1.7c-31.2,0.4-77.4,1-92.8-18.9
				c-7.8-10.1-7.9-25.7,1.8-34.4c10.9-9.8,27.1-4.5,80.9-8.3c43.9-3,55.5-8.1,62.8-14.8c9.9-9.1,11.4-20.8,11.9-24.4
				C314.5,393.4,299.2,379.6,305.9,375.3z"/>
			<path class="st5" d="M343.1,462.4c4.1,2.7,13.6-0.2,25.6-3.8c8.6-2.6,12.9-5,21.6-5.5c4.6-0.3,11.5-0.7,13.7,2
				c4.3,5.3-12.3,19.4-11.9,19.6c0.5,0.3,18.6-21.4,27.4-18.9c2.2,0.6,3.7,3,6.6,7.9c4,6.6,3,8.2,5.8,10.3c4.7,3.5,9.5,0.4,17.7,3.1
				c8.2,2.7,7.2,7.2,16.4,12.4c6,3.3,11.5,4.3,20.3,5.8c18,3.1,20.7-0.7,29.6,2.7c10,3.8,7.6,8.9,20.4,16.1c7,4,13.2,5.6,23.4,8.2
				c10.3,2.7,17.8,3.6,31,5.1c26.7,3.2,33.2,1.5,36.7,0.3c6.1-2.1,6-3.7,11.9-6.2c13.6-5.8,25.1-2.1,40.7-1.8
				c21.9,0.5,38.9-6,57.4-13.1c9.7-3.7,4.9-2.8,35.3-16.9c20.3-9.4,24.2-10.6,31.8-15.9c8.6-5.9,17.9-12.4,23.4-23.1
				c3.4-6.7,2.9-10.2,8.8-20.6c4.7-8.4,7.9-11,10.6-12.7c5.5-3.5,8.6-2.8,11.9-6.2c4.9-5,4.8-13.5,0.4-15.5c-2.8-1.3-7,0.3-8.8,1
				c-5.7,2.2-5.2,4.9-10.6,7.9c-1,0.6-8.1,4.4-15.9,2.8c-0.9-0.2-7.8-1.6-8.4-4.5c-1.4-6.8,35.4-9.9,41.9-26.5
				c2.4-6.2,0.4-13.8-4-18.9c-7.8-9-21.1-7.8-25.2-16.1c-3-6.1,1.2-12.5,2.2-14.1c8.5-13.2,36.3-20.1,54.8-13.8
				c11.2,3.8,22.2,13.5,33.6,23.7c5.2,4.6,8.4,7.9,14.2,8.6c9.3,1,20.8-5.4,23.4-12.8c4.2-12.1-15.9-26.6-30.6-33.3
				c-16.3-7.5-36.1-7.7-75.2-7.8c-32.1-0.1-48.4,0-59.7,6.3c-12.7,7.1-24.6,20.9-30,27.2c-9.1,10.6-12.4,17.3-21.6,18.9
				c-9.7,1.7-20.3-3.1-22.6-4.1c-6.7-3-6.1-4.8-12-7.9c-14.6-7.7-30-2.8-32.3-7.5c-1.4-3,3.5-7.3,8.4-11.7c6.5-5.8,10.2-6.1,10.6-9
				c0.7-4.8-8.9-11.9-18.6-12c-12.1-0.2-14.6,10.5-29.1,13.1c-2.9,0.5-8.6,1.1-31-6.1c-30-9.8-28.9-13.9-43.8-16.4
				c-16.7-2.8-31.6,0-46.4,2.8c-20.1,3.8-20.3,7.2-35.3,8.6c-20.8,2-23.1-4.3-42-2.7c-12.9,1.1-24.2,6-46.8,15.9
				c-18.7,8.1-20,10.2-28.3,13.4c-26.2,10.4-44.1,2.3-86.6,1.8c-31.2-0.4-77.4-0.9-92.8,19c-7.8,10.1-7.8,25.7,1.8,34.4
				c10.9,9.8,27.1,4.5,80.9,8.1c43.9,3,55.5,8,62.8,14.7c9.9,9.1,11.5,20.8,12,24.4C351.6,444.3,336.4,458.1,343.1,462.4z"/>
			<path class="st6" d="M136.1,113.3c-3.5-1.2-2.9-6.7-8.4-8c-4.3-1.1-8,1.4-9.7,0c-1.9-1.6,2.5-5.2,0.3-8.3c-1.5-2.1-5-2.7-6.6-2.9
				c-6-1-9.1,1.8-11.2,0.5c-2.7-1.6,1.5-6.1-1.6-10.7c-1.5-2.2-4.6-4.4-8.4-4.6c-4.3-0.2-8,2.2-9.7,4.6c-2.5,3.4,0.4,5.2-1.6,10.2
				c-1.6,4-3.9,4.2-5.6,8c-1.8,4.1-0.8,7.5-0.3,10.2c2.3,12.2-1.9,26.4-5.6,26.7c-2.3,0.2-5.2-4.7-6.6-7c-2.6-4.4-2.7-7.4-4.4-7.5
				c-1.8-0.2-3.8,2.9-4.7,4.6c-2.2,4.5-2,11.2,3.1,14.8c3.8,2.7,7.4,1.4,8.4,3.4c1.7,3.2-7.4,6.8-10.6,16.3c-1.1,3.2-1.4,6.6,0,7
				c2.1,0.7,6.2-5.6,10-4.9c2.3,0.5,1.6,3,4.7,4.9c4,2.5,8.1,0.1,12.2,1.9c3.8,1.7,3,4.9,5.9,11.4c1.7,3.7,4.5,7.3,10.3,14.6
				c7.7,9.7,8.7,8.8,10.9,13.4c3.2,6.4,1.8,9.2,5.9,12.4c4.3,3.3,8.2,2.2,10.6,5.3c2.7,3.4,0.9,8.3-1.2,11.2c-2.6,3.5-8,5.4-18.7,9
				c-11.9,4-16,4.1-17.8,4.1c-3.4,0-9,0-13.1-2.9c-3.1-2.2-2.4-3.9-5.9-10.7c-3.2-6.1-4.7-9.1-8.1-10.9c-4.8-2.6-12.4-2.5-17.8-0.2
				c-8.4,3.5-9.9,12.1-12.8,29.2c-1.5,8.7-0.7,10.3,0.6,11.2c2.8,2,7.9,0.8,32.2-2.9c4.8-0.7,7.7-1.1,10.9,0
				c6.7,2.4,8.7,9.5,9.4,11.7c1.1,3.9,0.2,5,0.6,12.1c0.3,5.5,0.5,8.5,1.6,11.2c3.1,8.2,11.5,7.9,24,18.7c5.6,4.8,11,9.5,13.1,16.8
				c2.3,7.9-0.2,15.5-1.6,18.7c-3.5,8.4-8.2,9.9-6.9,13.6c2.4,6.5,20.6,10.1,25.9,5.8c2.6-2.1,0.3-4.7,3.1-7.5
				c4-4.1,15.2-5,21.6-1.5c2.2,1.2,4.3,3.2,8.7,20.4c3,11.7,3.2,15.2,7.5,17.7c4.6,2.7,10.7,2.6,15.3,2.4c7.1-0.2,8.9-1.8,17.2-3.2
				c9.9-1.6,11.9,0,20-1c8-1,8.8-2.9,23.1-8.3c21.3-7.9,23.8-5.2,34.7-11.4c2.6-1.5,8-4.8,16.2-8.3c5-2.1,8-3,9.4-3.4
				c2.5-0.7,8-2.2,15.3-2.7c9-0.5,11,1.2,13.7-0.5c4-2.5,0.6-7,5-10.7c3.3-2.8,8.7-3.4,12.5-2.9c4,0.5,4.6,1.9,13.4,6.3
				c6.3,3.1,9.4,4.7,12.5,5.1c5.8,0.8,8.3-1,13.1,0.7c3.6,1.3,3.1,2.5,6.2,3.4c3.7,1,5.7-0.3,13.1-1.2c7.9-0.9,7.8,0.3,10.3-0.7
				c5.6-2.3,3.7-7.5,10-13.1c4.3-3.8,6.2-2.3,9.1-5.1c7.5-7.3-5.1-17.5,1.2-30.1c2.6-5.1,7.2-8.6,10-10.7
				c9.5-7.1,16.2-6.2,20.3-12.1c2.8-4.1,3.4-10.1,0.3-14.6c-4-5.8-12-5.5-13.7-10.9c-1.3-4,2.4-6.5,0.3-8.5
				c-3-2.9-13.3-0.1-14.7,0.2c-11.3,3.1-14.5,9.2-19.1,8c-4.3-1.1-5-7.5-5-7.8c-0.4-4.6,2.6-6.9,6.9-13.4c1.9-3,6.4-9.9,7.8-18.2
				c0.9-5.2,2-11.5-2.5-14.6c-4.6-3.2-10.3,0.4-15.6-2.7c-4.8-2.8-2-6.7-6.2-15.8c-3.9-8.5-10.5-14.3-13.1-16.5
				c-6.2-5.4-7.5-4.2-10-7.5c-2.4-3.2-3.3-7.1,0-24.1c2.6-13.5,4.1-15.9,1.6-18.2c-2.4-2.2-5.8-1.9-26.9-1.2c-18,0.6-24,0.6-29-2.7
				c-4.6-3-6-7.1-6.2-7.8c-2.7-8,5.6-12.3,2.8-18.7c-1.9-4.4-8.3-8.3-13.4-7.8c-6.5,0.7-6.3,8.1-16.9,13.6c-5.9,3.1-13.4,4.7-15,3.2
				c-2.6-2.6,12.3-12,9.1-16.5c-2.4-3.4-13.6-1.9-14.7-1.7c-14.1,2.1-16.1,9.6-27.5,13.9c-17.8,6.6-40.3-1.8-49.4-5.1
				c-19.6-7.3-19.9-14.5-30.3-14.3C159.5,87.6,144.7,116.3,136.1,113.3z"/>
			<path class="st7" d="M779.7,67c4.3-1.5,3.6-8.2,10.4-9.8c5.3-1.3,9.8,1.7,11.9,0c2.3-2-3-6.4-0.4-10.1c1.8-2.6,6.2-3.3,8.1-3.6
				c7.3-1.2,11.1,2.2,13.8,0.6c3.3-2-1.9-7.5,1.9-13.1c1.8-2.7,5.7-5.5,10.4-5.7c5.2-0.2,9.8,2.7,11.9,5.7c3,4.2-0.5,6.4,1.9,12.5
				c1.9,4.9,4.8,5.1,6.9,9.8c2.2,5,1,9.2,0.4,12.5c-2.8,15,2.4,32.4,6.9,32.8c2.8,0.2,6.3-5.7,8.1-8.7c3.2-5.4,3.3-9,5.4-9.2
				c2.2-0.2,4.7,3.5,5.8,5.7c2.7,5.5,2.4,13.8-3.8,18.2c-4.7,3.3-9,1.7-10.4,4.2c-2.1,4,9,8.4,13,20c1.3,3.9,1.7,8.1,0,8.7
				c-2.5,0.9-7.7-6.9-12.3-6c-2.8,0.6-2,3.6-5.8,6c-4.9,3.1-9.9,0.1-15,2.4c-4.6,2.1-3.7,6-7.3,14c-2,4.5-5.6,9-12.7,17.9
				c-9.5,11.9-10.6,10.8-13.4,16.4c-3.9,7.9-2.2,11.3-7.3,15.2c-5.3,4.1-10,2.7-13,6.6c-3.3,4.2-1.1,10.2,1.5,13.7
				c3.2,4.3,9.8,6.6,23,11c14.6,4.9,19.6,5.1,21.9,5.1c4.2,0,11.1,0,16.1-3.6c3.8-2.7,3-4.8,7.3-13.1c3.9-7.5,5.8-11.2,10-13.4
				c5.9-3.2,15.3-3.1,21.9-0.3c10.3,4.3,12.1,14.8,15.7,35.8c1.8,10.7,0.8,12.6-0.8,13.7c-3.5,2.4-9.7,0.9-39.5-3.6
				c-5.9-0.9-9.5-1.4-13.4,0c-8.2,2.9-10.7,11.7-11.5,14.3c-1.4,4.8-0.2,6.1-0.8,14.9c-0.4,6.7-0.7,10.4-1.9,13.7
				c-3.8,10-14.1,9.7-29.5,23c-6.9,5.9-13.5,11.6-16.1,20.6c-2.8,9.7,0.3,19,1.9,23c4.3,10.3,10.1,12.2,8.4,16.7
				c-3,8-25.3,12.4-31.8,7.2c-3.2-2.6-0.4-5.8-3.8-9.2c-5-5-18.6-6.1-26.5-1.8c-2.7,1.5-5.3,3.9-10.7,25.1
				c-3.7,14.4-3.9,18.6-9.2,21.8c-5.6,3.4-13.2,3.1-18.8,3c-8.7-0.2-10.9-2.3-21.1-3.9c-12.2-1.9-14.6,0-24.5-1.2
				c-9.9-1.2-10.8-3.6-28.4-10.1c-26.1-9.7-29.2-6.4-42.6-14c-3.2-1.8-9.8-5.9-19.9-10.1c-6.1-2.6-9.8-3.7-11.5-4.2
				c-3.1-0.9-9.9-2.8-18.8-3.3c-11-0.6-13.5,1.5-16.9-0.6c-4.9-3.1-0.7-8.5-6.1-13.1c-4-3.4-10.7-4.1-15.3-3.6
				c-4.9,0.6-5.7,2.4-16.5,7.8c-7.7,3.8-11.6,5.8-15.3,6.3c-7.1,0.9-10.2-1.2-16.1,0.9c-4.4,1.6-3.8,3.1-7.7,4.2
				c-4.5,1.2-7-0.4-16.1-1.5c-9.7-1.2-9.6,0.4-12.7-0.9c-6.9-2.8-4.5-9.3-12.3-16.1c-5.2-4.6-7.6-2.8-11.1-6.3
				c-9.2-9,6.2-21.4-1.5-37c-3.1-6.3-8.8-10.5-12.3-13.1c-11.7-8.7-19.9-7.6-24.9-14.9c-3.4-5-4.2-12.4-0.4-17.9
				c5-7.1,14.8-6.7,16.9-13.4c1.5-5-2.9-8-0.4-10.4c3.7-3.6,16.3-0.2,18,0.3c13.8,3.8,17.8,11.3,23.4,9.8c5.3-1.4,6.1-9.2,6.1-9.5
				c0.5-5.6-3.3-8.4-8.4-16.4c-2.4-3.7-7.8-12.2-9.6-22.4c-1.1-6.4-2.4-14.1,3.1-17.9c5.7-3.9,12.6,0.5,19.2-3.3
				c5.9-3.4,2.5-8.2,7.7-19.4c4.8-10.4,12.9-17.5,16.1-20.3c7.6-6.6,9.2-5.2,12.3-9.2c3-4,4-8.7,0-29.5c-3.2-16.6-5-19.6-1.9-22.4
				c2.9-2.6,7.1-2.3,33-1.5c22.1,0.7,29.4,0.8,35.7-3.3c5.6-3.7,7.4-8.7,7.7-9.5c3.3-9.9-6.9-15-3.5-23c2.3-5.4,10.2-10.2,16.5-9.5
				c8,0.8,7.7,9.9,20.7,16.7c7.2,3.8,16.5,5.8,18.4,3.9c3.1-3.2-15.1-14.7-11.1-20.3c3-4.2,16.7-2.3,18-2.1
				c17.3,2.5,19.7,11.8,33.7,17c21.9,8.1,49.5-2.2,60.6-6.3c24.1-8.9,24.5-17.8,37.2-17.6C750.8,35.5,769.1,70.6,779.7,67z"/>
			<path class="st8" d="M201.1,207.5c-2.9,0.5-1.2,6.8-7.3,15.9c-3.3,4.9-4.8,4.5-6.8,8.1c-3.8,6.8-0.4,11.4,0.5,21.5
				c0.9,10.5-1.2,23.4-5.4,24c-3.7,0.5-8.4-10.2-9.5-9.9c-1.3,0.4,9.9,14.2,4.5,26.8c-3.8,8.9-14.3,13.2-12.2,15.9
				c1.9,2.5,10.9-1.5,20,2.5c3,1.3,4.9,3.3,8.6,7.1c5.6,5.7,7.4,9.3,11.3,14.8c2.7,3.7,2.2,2.5,13.6,15.5
				c7.5,8.5,11.3,12.9,14.5,17.3c7.1,9.7,10.7,14.5,10,19c-1.4,8.9-13,14.4-19,17.3c-5.9,2.8-12.4,5.9-19.5,4.6
				c-5.6-1-7.3-3.9-13.2-3.9c-6.2,0-8.8,3.3-11.3,2.1c-3.3-1.5,0.7-7.1-3.2-13.4c-0.2-0.4-4.1-6.5-11.3-7.4
				c-6.7-0.9-12.5,3.1-14.5,4.6c-10,7-8.8,15.6-13.6,37c-4.8,21.3-9.8,29.7-5,32.1c3.9,2,12.1-1.1,16.8-4.9
				c8.1-6.5,3.3-13,11.3-21.5c1-1,8.9-9.4,17.2-8.1c7.2,1.1,12.8,9.1,11.3,15.5c-1.8,8.1-13.8,8-18.1,18c-0.4,0.9-3.8,9,1.8,15.5
				c4.7,5.4,12.9,6.5,19.5,7.4c6.3,0.8,16.8,2.2,21.8-2.1c3-2.6,1.2-4.9,4.5-15.9c1.5-5,2.7-8.8,4.5-8.8c2.1-0.1,4.6,5,5.4,9.2
				c1.4,6.8-1.7,9.5,0.9,12c2.9,2.7,9.7,2.2,14.1,0.7c0.9-0.3,7.9-2.8,8.2-7.8c0.2-3.4-3-6.4-6.3-7.8c-5.4-2.2-10,0.6-12.2-1.4
				c-2.1-1.9,0-6.5,2.7-9.2c3.1-3.1,5.4-2.3,7.7-4.9c2-2.3,1.5-4.2,1.4-12.3c-0.1-5.5-0.2-8.3,0-9.2c1.1-5.9,6.3-8.9,15.9-15.9
				c11.3-8.2,3.4-3.6,24-19c12.2-9.1,18.3-13.7,20.9-14.8c10.9-4.6,17.8-3,41.7-3.9c23.7-0.9,35.5-1.3,46.3-4.6
				c22.3-6.8,19.6-16.4,39-21.9c28.2-8,58.9,5.1,61.7,6.4c21.5,9.5,20.9,19.8,39.9,23.6c16.8,3.4,21.4-3.8,38.5-0.7
				c25.7,4.7,38.3,24.9,41.3,23.3c2.7-1.5-9-17.5-12.2-21.9c-10.7-14.6-16.3-19.1-25.8-31.8c-9.2-12.2-13.8-18.4-15.9-25
				c-7.3-23,9-37.2-1.4-45.2c-5.1-3.9-13.5-3.8-27.2-3.5c-16.3,0.3-19.2,4-30.4,2.5c-9.6-1.3-23.2-6.1-24.5-13.1
				c-1.2-6.7,10.1-10.2,10-20.8c0-2.6-0.1-6.6-3.2-8.1c-2.2-1.1-6.4-1.1-33.1,10.6c-7.7,3.4-11.3,5.1-14.5,3.9c-4-1.5-2.8-6-9.1-12
				c-2.7-2.6-4.5-4.3-7.3-4.6c-5.9-0.7-8.3,5.8-17.7,9.9c-7.7,3.3-15.5,2.9-24.9,2.5c-14.8-0.7-14.5-4-23.6-3.9
				c-16.9,0.2-21.3,11.4-48.5,17.3c-7.4,1.6-12,1.8-15.9,0c-7.1-3.4-1.4-12.1-7.3-16.2c-8.8-6.3-28.8,6.8-39.5,0.4
				c-7.7-4.7-4.5-16-10.4-16.9c-3.8-0.6-5.6,3.8-10.4,3.9C211.5,223.8,205.9,206.6,201.1,207.5z"/>
			<ellipse class="st9" cx="220.1" cy="240.7" rx="15.4" ry="12"/>
			<ellipse class="st10" cx="496.4" cy="136.6" rx="15.4" ry="12"/>
			<ellipse class="st10" cx="847.7" cy="245.9" rx="15.4" ry="12"/>
			<ellipse class="st11" cx="746.6" cy="114.1" rx="15.4" ry="12"/>
			<ellipse class="st12" cx="160.4" cy="148.5" rx="15.4" ry="12"/>
			<ellipse class="st10" cx="259.9" cy="279.6" rx="8.7" ry="6.7"/>
			<ellipse class="st10" cx="304.2" cy="249.3" rx="8.7" ry="6.7"/>
			<ellipse class="st10" cx="338.3" cy="294.6" rx="8.2" ry="6"/>
			<ellipse class="st7" cx="449.5" cy="286.3" rx="16.4" ry="9.7"/>
			<ellipse class="st10" cx="514" cy="372.8" rx="5.8" ry="5.6"/>
			<ellipse class="st10" cx="266.6" cy="489.7" rx="5.8" ry="5.6"/>
			<ellipse class="st10" cx="642" cy="479.9" rx="5.8" ry="5.6"/>
			<ellipse class="st10" cx="892.3" cy="334.6" rx="5.8" ry="5.6"/>
			<ellipse class="st10" cx="891.3" cy="228.3" rx="5.8" ry="5.6"/>
			<ellipse class="st10" cx="551.5" cy="330.2" rx="7.7" ry="5.6"/>
			<ellipse class="st10" cx="551.5" cy="281.5" rx="4.8" ry="4.9"/>
			<ellipse class="st10" cx="631.9" cy="258.3" rx="7.2" ry="4.9"/>
			<ellipse class="st10" cx="672.8" cy="217.4" rx="5.8" ry="5.2"/>
			<ellipse class="st10" cx="461.1" cy="218.9" rx="5.8" ry="5.2"/>
			<ellipse class="st10" cx="552" cy="202.5" rx="5.3" ry="3"/>
			<ellipse class="st10" cx="610.3" cy="422.3" rx="5.8" ry="3.4"/>
			<ellipse class="st13" cx="709.4" cy="409.2" rx="12.8" ry="12"/>
			<ellipse class="st14" cx="343.1" cy="451.5" rx="14" ry="10.1"/>
			<ellipse class="st5" cx="155.9" cy="363.1" rx="12.5" ry="9.4"/>
			<ellipse class="st10" cx="82.8" cy="287.1" rx="13.5" ry="12.7"/>
		</g>
	</g>
	<g>
		<path class="st15" d="M910.9,212.1c31,0.2,55.9,25.5,55.7,56.5s-25.5,55.9-56.5,55.7c-31-0.2-55.9-25.5-55.7-56.5
			C854.6,236.9,879.9,211.9,910.9,212.1C910.9,212.1,910.9,212.1,910.9,212.1z"/>
		<path class="st16" d="M910.5,220.2c26.6,0,48.1,21.5,48.1,48.1s-21.5,48.1-48.1,48.1s-48.1-21.5-48.1-48.1l0,0
			C862.4,241.7,884,220.2,910.5,220.2z"/>
		<path class="st17" d="M617.9,4.5c31,0,56.1,25.1,56.1,56.1s-25.1,56.1-56.1,56.1c-31,0-56.1-25.1-56.1-56.1
			C561.8,29.6,586.9,4.5,617.9,4.5C617.9,4.5,617.9,4.5,617.9,4.5z"/>
		<path class="st18" d="M617.9,7.7c29.2,0,52.9,23.7,52.9,52.9s-23.7,52.9-52.9,52.9s-52.9-23.7-52.9-52.9S588.7,7.7,617.9,7.7z"/>
		<path class="st17" d="M318.3,212.8c31,0,56.1,25.1,56.1,56.1S349.3,325,318.3,325s-56.1-25.1-56.1-56.1l0,0
			C262.2,237.9,287.3,212.8,318.3,212.8z"/>
		<path class="st16" d="M318.3,220.8c26.6,0,48.1,21.5,48.1,48.1S344.9,317,318.3,317s-48.1-21.5-48.1-48.1l0,0
			C270.2,242.4,291.8,220.8,318.3,220.8z"/>
		<path class="st19" d="M318.3,399.4c31,0,56.1,25.1,56.1,56.1s-25.1,56.1-56.1,56.1s-56.1-25.1-56.1-56.1
			C262.2,424.5,287.3,399.4,318.3,399.4L318.3,399.4z"/>
		<path class="st16" d="M318.3,407.4c26.6,0,48.1,21.5,48.1,48.1s-21.5,48.1-48.1,48.1s-48.1-21.5-48.1-48.1l0,0
			C270.2,428.9,291.7,407.4,318.3,407.4z"/>
		<path class="st17" d="M58.5,399.8c31,0,56.1,25.1,56.1,56.1S89.5,512,58.5,512S2.4,486.9,2.4,455.9
			C2.4,424.9,27.5,399.8,58.5,399.8L58.5,399.8z"/>
		<path class="st16" d="M58.5,407.9c26.6,0,48.1,21.5,48.1,48.1S85,504,58.5,504s-48.1-21.5-48.1-48.1l0,0
			C10.4,429.4,31.9,407.9,58.5,407.9z"/>
		<g>
			<circle class="st20" cx="318.3" cy="447.4" r="16.9"/>
			<path class="st20" d="M292.6,480.5c5.7-8.1,15.1-13.3,25.8-13.3c10.6,0,20,5.2,25.7,13.2"/>
		</g>
		<path class="st21" d="M349.1,473.1c10.7,0,19.5,8.7,19.5,19.5c0,10.7-8.7,19.5-19.5,19.5c-10.7,0-19.5-8.7-19.5-19.5l0,0
			C329.7,481.9,338.4,473.1,349.1,473.1z"/>
		<path class="st22" d="M353.7,491.5v-4.6c0-1.3-1-2.3-2.3-2.3l0,0h-4.6c-1.3,0-2.3,1-2.3,2.3l0,0v4.6c-1.3,0-2.3,1-2.3,2.3l0,0v5.7
			c0,1.3,1,2.3,2.3,2.3l0,0h9.2c1.2,0,2.2-1.1,2.2-2.3v-5.7C355.9,492.5,354.9,491.5,353.7,491.5z M349.1,498.3
			c-1.3,0-2.3-1-2.3-2.3s1-2.3,2.3-2.3s2.3,1,2.3,2.3l0,0C351.4,497.3,350.4,498.3,349.1,498.3L349.1,498.3z M351.4,491.5h-4.6v-2.3
			c0.1-1.3,1.2-2.2,2.5-2.1c1.1,0.1,2,1,2.1,2.1V491.5z"/>
		<path class="st19" d="M566.3,399.4c31,0,56.1,25.1,56.1,56.1s-25.1,56.1-56.1,56.1s-56.1-25.1-56.1-56.1
			C510.2,424.5,535.3,399.4,566.3,399.4L566.3,399.4z"/>
		<path class="st18" d="M566.3,407.4c26.6,0,48.1,21.5,48.1,48.1s-21.5,48.1-48.1,48.1s-48.1-21.5-48.1-48.1l0,0
			C518.2,428.9,539.7,407.4,566.3,407.4z"/>
		<g>
			<circle class="st20" cx="566.3" cy="447.4" r="16.9"/>
			<path class="st20" d="M540.6,480.5c5.7-8.1,15.1-13.3,25.8-13.3c10.6,0,20,5.2,25.7,13.2"/>
		</g>
		<path class="st21" d="M597.1,473.1c10.7,0,19.5,8.7,19.5,19.5c0,10.7-8.7,19.5-19.5,19.5s-19.5-8.7-19.5-19.5l0,0
			C577.7,481.9,586.4,473.1,597.1,473.1z"/>
		<path class="st22" d="M601.7,491.5v-4.6c0-1.3-1-2.3-2.3-2.3l0,0h-4.6c-1.3,0-2.3,1-2.3,2.3l0,0v4.6c-1.3,0-2.3,1-2.3,2.3l0,0v5.7
			c0,1.3,1,2.3,2.3,2.3l0,0h9.2c1.2,0,2.2-1.1,2.2-2.3v-5.7C603.9,492.5,602.9,491.5,601.7,491.5z M597.1,498.3
			c-1.3,0-2.3-1-2.3-2.3s1-2.3,2.3-2.3c1.3,0,2.3,1,2.3,2.3l0,0C599.4,497.3,598.4,498.3,597.1,498.3L597.1,498.3z M599.4,491.5
			h-4.6v-2.3c0.1-1.3,1.2-2.2,2.5-2.1c1.1,0.1,2,1,2.1,2.1V491.5z"/>
		<path class="st23" d="M322.7,194v-20c0-11,9-20,20-20h548c11,0,20,9,20,20v20"/>
		<path class="st23" d="M58.7,380v-20c0-11,9-20,20-20h468c11,0,20,9,20,20v20"/>
		<line class="st23" x1="619" y1="120.7" x2="619" y2="153.6"/>
		<line class="st23" x1="321.5" y1="326.2" x2="321.5" y2="373.7"/>
		<g>
			<circle class="st24" cx="618" cy="52.5" r="16.9"/>
			<path class="st24" d="M592.2,85.6c5.7-8.1,15.1-13.3,25.8-13.3c10.6,0,20,5.2,25.7,13.2"/>
		</g>
		<g>
			<circle class="st24" cx="318.4" cy="260.8" r="16.9"/>
			<path class="st24" d="M292.6,293.9c5.7-8.1,15.1-13.3,25.8-13.3c10.6,0,20,5.2,25.7,13.2"/>
		</g>
		<g>
			<circle class="st24" cx="910.6" cy="260.1" r="16.9"/>
			<path class="st24" d="M884.8,293.3c5.7-8.1,15.1-13.3,25.8-13.3c10.6,0,20,5.2,25.7,13.2"/>
		</g>
		<g>
			<circle class="st24" cx="59" cy="446.5" r="16.9"/>
			<path class="st24" d="M33.2,479.6c5.7-8.1,15.1-13.3,25.8-13.3c10.6,0,20,5.2,25.7,13.2"/>
		</g>
	</g>
	<g>
		<polygon class="st25" points="322.5,203.9 312.2,188.9 322.5,191.1 332.7,188.9 		"/>
		<polygon class="st25" points="911.3,204.5 922.3,188.5 911.3,190.7 900.4,188.5 		"/>
	</g>
	<g>
		<polygon class="st25" points="58.2,385.6 48.2,370.9 58.2,373.1 68.1,370.9 		"/>
		<polygon class="st25" points="566.1,385.5 576.2,370.8 566.1,372.9 556.2,370.8 		"/>
		<polygon class="st25" points="321,385.5 331.1,370.8 321,372.9 311.1,370.8 		"/>
	</g>
</g>
</svg>
