<?xml version="1.0" encoding="utf-8"?>
<!-- Generator: Adobe Illustrator 21.1.0, SVG Export Plug-In . SVG Version: 6.00 Build 0)  -->
<svg version="1.1" id="Layer_1" xmlns="http://www.w3.org/2000/svg" xmlns:xlink="http://www.w3.org/1999/xlink" x="0px" y="0px"
	 width="53.3px" height="40px" viewBox="0 0 53.3 40" style="enable-background:new 0 0 53.3 40;" xml:space="preserve">
<style type="text/css">
	.st0{fill:#32BDB9;}
</style>
<path class="st0" d="M5,39.4c-2.4,0-4.4-2-4.4-4.4V5c0-2.4,2-4.4,4.4-4.4h43.3c2.4,0,4.4,2,4.4,4.4v30c0,2.4-2,4.4-4.4,4.4H5z
	 M2.7,35c0,1.3,1,2.3,2.3,2.3h43.3c1.2,0,2.3-1,2.3-2.3V12.4l-1,0.8C47.1,15.3,43,18.5,36,24.1c-0.3,0.3-0.7,0.6-1.1,0.9
	c-2.2,1.9-5.2,4.4-8.2,4.4c-3.1,0-6.2-2.7-8.3-4.4c-0.4-0.3-0.7-0.6-1.1-0.9c-7-5.6-11.1-8.8-13.6-10.9l-1-0.8V35z M26.7,27.3
	c2.2,0,4.9-2.3,6.9-4c0.4-0.3,0.7-0.6,1-0.9c10.1-8,13.4-10.7,15.7-12.6l0.2-0.2V5c0-1.2-1-2.3-2.3-2.3H5c-1.3,0-2.3,1-2.3,2.3v4.6
	l0.2,0.2c2.3,1.9,5.6,4.6,15.7,12.6c0.3,0.2,0.6,0.5,1,0.8C21.7,24.9,24.4,27.3,26.7,27.3L26.7,27.3L26.7,27.3z"/>
</svg>
