<?xml version="1.0" encoding="utf-8"?>
<!-- Generator: Adobe Illustrator 21.1.0, SVG Export Plug-In . SVG Version: 6.00 Build 0)  -->
<svg version="1.1" id="Layer_1" xmlns="http://www.w3.org/2000/svg" xmlns:xlink="http://www.w3.org/1999/xlink" x="0px" y="0px"
	 width="55.7px" height="40px" viewBox="0 0 55.7 40" style="enable-background:new 0 0 55.7 40;" xml:space="preserve">
<style type="text/css">
	.st0{fill:#32BDB9;}
</style>
<path class="st0" d="M11.4,39.3c-0.2,0-0.3-0.1-0.4-0.2l-10.1-10c-0.2-0.2-0.2-0.6,0-0.9l10.1-10c0.1-0.1,0.3-0.2,0.4-0.2
	c0.2,0,0.3,0.1,0.4,0.2l0.8,0.8c0.1,0.1,0.2,0.3,0.2,0.4c0,0.2-0.1,0.3-0.2,0.4l-7.8,7.8h49.6c0.3,0,0.6,0.3,0.6,0.6v0.9
	c0,0.3-0.3,0.6-0.6,0.6H4.7l7.8,7.8c0.1,0.1,0.2,0.3,0.2,0.4c0,0.2-0.1,0.3-0.2,0.4l-0.8,0.8C11.7,39.2,11.5,39.3,11.4,39.3z
	 M44.3,21.9c-0.2,0-0.3-0.1-0.4-0.2L43.1,21c-0.1-0.1-0.2-0.3-0.2-0.4c0-0.2,0.1-0.3,0.2-0.4l7.8-7.8H1.3c-0.3,0-0.6-0.3-0.6-0.6
	v-0.9c0-0.3,0.3-0.6,0.6-0.6h49.6l-7.8-7.8c-0.1-0.1-0.2-0.3-0.2-0.4c0-0.2,0.1-0.3,0.2-0.4l0.8-0.8c0.1-0.1,0.3-0.2,0.4-0.2
	c0.2,0,0.3,0.1,0.4,0.2l10.1,10c0.2,0.2,0.2,0.6,0,0.9l-10.1,10C44.6,21.8,44.5,21.9,44.3,21.9z"/>
</svg>
