<?xml version="1.0" encoding="utf-8"?>
<!-- Generator: Adobe Illustrator 21.1.0, SVG Export Plug-In . SVG Version: 6.00 Build 0)  -->
<svg version="1.1" id="Layer_1" xmlns="http://www.w3.org/2000/svg" xmlns:xlink="http://www.w3.org/1999/xlink" x="0px" y="0px"
	 width="62.6px" height="40px" viewBox="0 0 62.6 40" style="enable-background:new 0 0 62.6 40;" xml:space="preserve">
<style type="text/css">
	.st0{fill:#32BDB9;}
</style>
<path class="st0" d="M31.3,39.5c-12.4,0-23.9-6.6-30.2-17.1c-0.9-1.5-0.9-3.3,0-4.8C7.4,7.1,18.9,0.5,31.3,0.5s23.9,6.6,30.2,17.1
	c0.9,1.5,0.9,3.3,0,4.8C55.2,32.9,43.7,39.5,31.3,39.5z M17.4,6.1C11.5,8.8,6.6,13.3,3.3,18.9c-0.4,0.7-0.4,1.6,0,2.3
	C9.1,30.9,19.8,37,31.3,37s22.2-6.1,28-15.9c0.4-0.7,0.4-1.6,0-2.3c-3.3-5.6-8.2-10-14.1-12.8l-0.6,0.8c2.3,2.9,3.6,6.5,3.6,10.1
	c0,9.1-7.6,16.5-16.9,16.5S14.4,26,14.4,17c0-3.7,1.3-7.3,3.6-10.1L17.4,6.1z M31.3,3c-7.9,0-14.4,6.3-14.4,14c0,7.7,6.5,14,14.4,14
	c7.9,0,14.4-6.3,14.4-14C45.7,9.2,39.3,3,31.3,3z M31.3,23c-3.6,0-6.5-2.9-6.5-6.5c0-0.6,0.1-1.1,0.2-1.7c0.6,1.1,1.7,1.8,3,1.8
	c1.9,0,3.4-1.5,3.4-3.4c0-1.3-0.7-2.4-1.8-3c0.5-0.1,1.1-0.2,1.7-0.2c3.6,0,6.5,2.9,6.5,6.5S34.9,23,31.3,23z"/>
</svg>
