<?xml version="1.0" encoding="utf-8"?>
<!-- Generator: Adobe Illustrator 21.1.0, SVG Export Plug-In . SVG Version: 6.00 Build 0)  -->
<svg version="1.1" id="Layer_1" xmlns="http://www.w3.org/2000/svg" xmlns:xlink="http://www.w3.org/1999/xlink" x="0px" y="0px"
	 width="30px" height="40px" viewBox="0 0 30 40" style="enable-background:new 0 0 30 40;" xml:space="preserve">
<style type="text/css">
	.st0{fill:#32BDB9;}
</style>
<path class="st0" d="M3.7,39.7c-1.9,0-3.4-1.5-3.4-3.4V3.7c0-1.9,1.5-3.4,3.5-3.5h15.9c0.9,0,1.8,0.4,2.4,1l6.6,6.6
	c0.6,0.6,1,1.5,1,2.4v25.9c0,1.9-1.5,3.4-3.4,3.4H3.7z M3.7,2.2c-0.9,0-1.5,0.7-1.5,1.5v32.5c0,0.9,0.7,1.5,1.5,1.5h22.5
	c0.9,0,1.5-0.7,1.5-1.5v-24h-8.4c-0.9,0-1.6-0.7-1.6-1.6V2.2H3.7z M19.7,10.3h8.1l-0.1-0.4c-0.1-0.3-0.2-0.5-0.4-0.7l-6.6-6.6
	c-0.2-0.2-0.4-0.3-0.7-0.4l-0.4-0.1V10.3z M8.4,29.7c-0.4,0-0.6-0.3-0.6-0.6v-0.6c0-0.4,0.3-0.6,0.6-0.6h13.1c0.4,0,0.6,0.3,0.6,0.6
	V29c0,0.4-0.3,0.6-0.6,0.6H8.4z M8.4,24.7c-0.4,0-0.6-0.3-0.6-0.6v-0.6c0-0.4,0.3-0.6,0.6-0.6h13.1c0.4,0,0.6,0.3,0.6,0.6V24
	c0,0.4-0.3,0.6-0.6,0.6H8.4z M8.4,19.7c-0.4,0-0.6-0.3-0.6-0.6v-0.6c0-0.4,0.3-0.6,0.6-0.6h13.1c0.4,0,0.6,0.3,0.6,0.6V19
	c0,0.4-0.3,0.6-0.6,0.6H8.4z"/>
</svg>
