<?xml version="1.0" encoding="utf-8"?>
<!-- Generator: Adobe Illustrator 21.1.0, SVG Export Plug-In . SVG Version: 6.00 Build 0)  -->
<svg version="1.1" id="Layer_4" xmlns="http://www.w3.org/2000/svg" xmlns:xlink="http://www.w3.org/1999/xlink" x="0px" y="0px"
	 width="90px" height="72px" viewBox="0 0 90 72" enable-background="new 0 0 90 72" xml:space="preserve">
<path fill="none" stroke="#32BDB9" stroke-width="2" stroke-linejoin="round" stroke-miterlimit="10" d="M39.6,12.8
	c0.2-1.4,1.3-2.7,2.9-4.1C43.3,7.9,44,7.4,44.6,7c0.6,0.5,1.2,1.2,1.9,1.8c1.6,1.8,2.6,2.8,2.8,4c0.4,2.1-1.1,5.2-3.5,5.8
	C42.6,19.2,39.3,15.4,39.6,12.8z"/>
<path fill="#FFFFFF" stroke="#32BDB9" stroke-width="2" stroke-linejoin="round" stroke-miterlimit="10" d="M34.2,9.3
	c1.1,0.1,3.6,0.4,6,2.2c3.5,2.7,4,6.7,4.2,7.5c0.1-0.7,0.5-4.8,4.1-7.5c2.6-1.9,5.4-2,6.3-2c0.1,3.5,0.1,7,0.2,10.5
	c0,0.9-0.3,4.1-3,6.9c-0.6,0.6-3.3,3.3-7.6,3.3c-0.7,0-4.5,0-7.5-3.2c-2.5-2.5-2.9-5.5-3-6.4C34.1,16.9,34.2,13.1,34.2,9.3z"/>
<path fill="none" stroke="#32BDB9" stroke-width="2" stroke-linecap="round" stroke-linejoin="round" stroke-miterlimit="10" d="
	M36.6,32.2c2.1,2.6,5.4,7.3,7.2,14.1c2.1,7.9,1.2,14.5,0.6,17.9c-2.2-2.8-5.9-8.2-7.7-16.1C35.3,41.2,36,35.5,36.6,32.2z"/>
<path fill="none" stroke="#32BDB9" stroke-width="2" stroke-miterlimit="10" d="M52,47.5c1,0.4-0.1,5.5-1.7,9.3
	c-1.5,3.6-4.2,8-5.2,7.6s-0.2-5.6,1.6-9.8C48.3,50.9,51,47.1,52,47.5z"/>
<line fill="none" stroke="#32BDB9" stroke-width="2" stroke-miterlimit="10" x1="44.4" y1="18.7" x2="44.4" y2="48.7"/>
</svg>
