<?xml version="1.0" encoding="utf-8"?>
<!-- Generator: Adobe Illustrator 21.1.0, SVG Export Plug-In . SVG Version: 6.00 Build 0)  -->
<svg version="1.1" xmlns="http://www.w3.org/2000/svg" xmlns:xlink="http://www.w3.org/1999/xlink" x="0px" y="0px" width="990px"
	 height="570px" viewBox="0 0 990 570" style="enable-background:new 0 0 990 570;" xml:space="preserve">
<style type="text/css">
	.st0{opacity:0.6;}
	.st1{opacity:0.5;fill:#EFF7FE;enable-background:new    ;}
	.st2{opacity:0.15;fill:#DFE6EA;enable-background:new    ;}
	.st3{opacity:0.45;fill:#E1F5FB;enable-background:new    ;}
	.st4{opacity:0.3;fill:#D1F0EF;enable-background:new    ;}
	.st5{opacity:0.5;fill:#D1F0EF;enable-background:new    ;}
	.st6{opacity:0.5;fill:#DCE8EF;enable-background:new    ;}
	.st7{opacity:0.2;fill:#FCC8CE;enable-background:new    ;}
	.st8{opacity:0.6;fill:#D5F1F1;enable-background:new    ;}
	.st9{opacity:0.6;fill:#BBE9F9;enable-background:new    ;}
	.st10{fill:#F1FAFA;}
	.st11{opacity:0.2;fill:#FCB9C6;enable-background:new    ;}
	.st12{fill:#FCFDFF;}
	.st13{opacity:0.1;fill:#1DD4FF;enable-background:new    ;}
	.st14{opacity:0.2;fill:#A2EAE0;enable-background:new    ;}
	.st15{fill:none;stroke:#347EC0;stroke-width:1.5;stroke-miterlimit:10;}
	.st16{fill:#E6F7F6;stroke:#24AAA3;stroke-width:1.5;stroke-miterlimit:10;}
</style>
<g id="Layer_1">
	<g id="Layer_2">
		<g class="st0">
			<ellipse class="st1" cx="314.2" cy="301.1" rx="286.7" ry="223"/>
			<ellipse class="st2" cx="585" cy="177.2" rx="203.7" ry="158.5"/>
			<ellipse class="st3" cx="691.6" cy="312.2" rx="280" ry="217.8"/>
			<path class="st4" d="M297.2,372.7c4.3-2.8,14.3,0.2,27,4c9,2.7,13.6,5.3,22.8,5.8c4.8,0.3,12.1,0.7,14.4-2.2
				c4.5-5.6-13-20.4-12.6-20.6c0.5-0.3,19.6,22.5,28.8,19.9c2.3-0.6,3.8-3.2,7-8.3c4.2-6.9,3.1-8.6,6-10.9c4.9-3.7,10-0.4,18.6-3.3
				c8.7-2.9,7.6-7.6,17.2-13c6.3-3.5,12.1-4.5,21.4-6.2c19-3.3,21.7,0.7,31.2-2.9c10.5-4,7.9-9.3,21.4-17c7.3-4.2,13.9-5.9,24.6-8.7
				c10.9-2.8,18.7-3.8,32.6-5.4c28.1-3.4,34.9-1.6,38.6-0.4c6.4,2.2,6.3,3.9,12.6,6.5c14.3,6.1,26.5,2.2,42.8,1.8
				c23-0.5,40.9,6.3,60.5,13.7c10.3,3.9,5.1,2.9,37.2,17.7c21.4,9.9,25.5,11.1,33.5,16.6c9,6.2,18.9,13,24.6,24.2
				c3.6,7,3,10.7,9.3,21.7c5,8.8,8.3,11.6,11.2,13.4c5.8,3.7,9.1,2.9,12.6,6.5c5.2,5.3,5.1,14.2,0.5,16.3c-3,1.4-7.4-0.4-9.3-1.1
				c-6-2.3-5.5-5.2-11.2-8.3c-1-0.6-8.5-4.6-16.7-2.9c-0.9,0.2-8.2,1.7-8.8,4.7c-1.5,7.2,37.3,10.3,44.2,27.9
				c2.6,6.6,0.5,14.5-4.2,19.9c-8.2,9.5-22.2,8.3-26.5,17c-3.2,6.4,1.2,13.2,2.3,14.8c9,13.8,38.2,21.1,57.7,14.5
				c11.8-4,23.3-14.2,35.3-25c5.4-4.8,8.8-8.4,14.9-9c9.8-1.1,21.9,5.6,24.6,13.4c4.5,12.8-16.7,28-32.1,35.1
				c-17.1,7.9-38,8.2-79.1,8.3c-33.8,0.1-50.9,0.1-62.8-6.5c-13.4-7.4-26-22-31.6-28.6c-9.6-11.1-13-18.2-22.8-19.9
				c-10.2-1.8-21.3,3.3-23.7,4.3c-7.1,3.2-6.4,5.1-12.6,8.3c-15.3,8.1-31.6,3-33.9,8c-1.5,3.1,3.7,7.7,8.8,12.3
				c6.8,6.1,10.7,6.4,11.2,9.4c0.7,5-9.3,12.5-19.5,12.7c-12.7,0.2-15.4-11-30.7-13.7c-3.1-0.6-9.1-1.2-32.6,6.5
				c-31.6,10.4-30.3,14.7-46,17.4c-17.5,3-33.2,0-48.8-2.9c-21.2-4-21.4-7.6-37.2-9c-21.9-2-24.3,4.6-44.2,2.9
				c-13.6-1.2-25.5-6.3-49.3-16.6c-19.7-8.5-21.1-10.7-29.8-14.1c-27.6-10.9-46.4-2.4-91.1-1.8c-32.8,0.4-81.5,1.1-97.7-19.9
				c-8.2-10.6-8.3-27,1.9-36.2c11.4-10.4,28.5-4.8,85.1-8.7c46.2-3.2,58.4-8.5,66-15.6c10.4-9.5,12-21.9,12.6-25.7
				C306.3,391.8,290.2,377.3,297.2,372.7z"/>
			<path class="st5" d="M336.3,464.4c4.3,2.8,14.3-0.2,27-4c9-2.7,13.6-5.3,22.8-5.8c4.8-0.3,12.1-0.7,14.4,2.2
				c4.5,5.6-12.9,20.4-12.5,20.6c0.5,0.3,19.5-22.5,28.8-19.9c2.3,0.6,3.8,3.2,7,8.3c4.2,6.9,3.1,8.6,6.1,10.8
				c4.9,3.7,10,0.4,18.6,3.2c8.7,2.9,7.6,7.6,17.2,13c6.3,3.5,12.1,4.5,21.4,6.1c19,3.3,21.7-0.7,31.2,2.9c10.5,4,8,9.3,21.4,17
				c7.3,4.2,13.9,5.9,24.7,8.7c10.9,2.8,18.7,3.7,32.6,5.4c28.1,3.3,34.9,1.6,38.6,0.3c6.4-2.2,6.3-3.9,12.5-6.5
				c14.3-6.1,26.4-2.2,42.8-1.9c23,0.5,40.9-6.3,60.4-13.8c10.2-3.9,5.1-2.9,37.2-17.8c21.3-9.9,25.4-11.2,33.4-16.7
				c9-6.2,18.8-13,24.6-24.3c3.6-7,3-10.7,9.3-21.7c5-8.8,8.3-11.6,11.1-13.4c5.8-3.7,9.1-3,12.5-6.5c5.1-5.3,5-14.2,0.4-16.3
				c-3-1.4-7.4,0.4-9.3,1.1c-6,2.3-5.5,5.2-11.1,8.3c-1,0.6-8.5,4.6-16.7,2.9c-0.9-0.2-8.2-1.7-8.8-4.7
				c-1.5-7.2,37.3-10.4,44.1-27.9c2.6-6.6,0.4-14.5-4.2-19.9c-8.2-9.5-22.2-8.3-26.5-17c-3.2-6.4,1.2-13.2,2.3-14.8
				c9-13.8,38.2-21.1,57.6-14.5c11.8,4,23.3,14.2,35.4,24.9c5.4,4.8,8.8,8.3,14.9,9c9.8,1.1,21.9-5.7,24.6-13.4
				c4.5-12.8-16.8-27.9-32.2-35.1c-17.1-7.9-38-8.1-79.1-8.2c-33.8-0.1-50.9,0-62.8,6.6c-13.4,7.4-25.9,22-31.6,28.6
				c-9.6,11.2-13,18.2-22.7,19.9c-10.2,1.8-21.3-3.2-23.7-4.3c-7.1-3.2-6.4-5.1-12.6-8.3c-15.4-8.1-31.6-3-34-7.9
				c-1.5-3.1,3.6-7.7,8.8-12.3c6.8-6.1,10.7-6.4,11.1-9.4c0.7-5-9.4-12.5-19.6-12.6c-12.7-0.2-15.3,11-30.7,13.8
				c-3.1,0.6-9.1,1.2-32.6-6.5c-31.6-10.3-30.4-14.6-46.1-17.3c-17.5-3-33.2,0-48.8,3c-21.2,4-21.4,7.6-37.2,9.1
				c-21.9,2.1-24.3-4.6-44.2-2.8c-13.6,1.2-25.5,6.4-49.3,16.7c-19.7,8.6-21.1,10.7-29.7,14.2c-27.6,11-46.4,2.4-91.1,1.9
				c-32.8-0.4-81.5-0.9-97.6,20c-8.2,10.6-8.2,27,1.9,36.2c11.5,10.3,28.5,4.7,85.1,8.6c46.2,3.1,58.4,8.4,66.1,15.5
				c10.4,9.5,12.1,21.9,12.6,25.7C345.3,445.3,329.3,459.9,336.3,464.4z"/>
			<path class="st6" d="M118.5,97.1c-3.7-1.3-3.1-7-8.9-8.4c-4.5-1.1-8.4,1.5-10.2,0c-2-1.7,2.6-5.5,0.3-8.7
				c-1.5-2.2-5.3-2.8-6.9-3.1c-6.3-1-9.5,1.9-11.8,0.5c-2.8-1.7,1.6-6.4-1.6-11.3c-1.6-2.3-4.9-4.7-8.9-4.9
				c-4.5-0.2-8.4,2.3-10.2,4.9c-2.6,3.6,0.4,5.5-1.6,10.7c-1.7,4.2-4.1,4.4-5.9,8.4c-1.9,4.3-0.9,7.9-0.3,10.7
				c2.4,12.9-2,27.8-5.9,28.1c-2.4,0.2-5.4-4.9-6.9-7.4c-2.8-4.6-2.8-7.7-4.6-7.9c-1.9-0.2-4,3-4.9,4.9c-2.3,4.7-2.1,11.8,3.3,15.6
				c4,2.8,7.7,1.5,8.9,3.6c1.8,3.4-7.8,7.2-11.2,17.1c-1.1,3.3-1.5,6.9,0,7.4c2.2,0.8,6.6-5.9,10.5-5.1c2.4,0.5,1.7,3.1,4.9,5.1
				c4.2,2.6,8.5,0.1,12.8,2c4,1.8,3.2,5.2,6.2,12c1.7,3.9,4.8,7.7,10.8,15.3c8.1,10.2,9.1,9.3,11.5,14.1c3.4,6.8,1.9,9.7,6.2,13
				c4.5,3.5,8.6,2.3,11.2,5.6c2.8,3.6,0.9,8.7-1.3,11.8c-2.7,3.7-8.4,5.6-19.7,9.5c-12.5,4.2-16.8,4.4-18.7,4.3
				c-3.6,0-9.5,0-13.8-3.1c-3.2-2.3-2.5-4.1-6.2-11.3c-3.3-6.4-5-9.6-8.5-11.5c-5.1-2.7-13.1-2.6-18.7-0.3
				c-8.8,3.7-10.4,12.7-13.5,30.7c-1.6,9.2-0.7,10.8,0.7,11.8c3,2.1,8.3,0.8,33.8-3.1c5-0.8,8.1-1.2,11.5,0c7,2.5,9.2,10,9.9,12.3
				c1.2,4.1,0.2,5.3,0.7,12.8c0.4,5.8,0.6,8.9,1.6,11.8c3.2,8.6,12.1,8.4,25.3,19.7c5.9,5.1,11.6,9.9,13.8,17.6
				c2.4,8.3-0.2,16.3-1.6,19.7c-3.6,8.8-8.7,10.4-7.2,14.3c2.5,6.9,21.7,10.6,27.3,6.1c2.8-2.2,0.3-5,3.3-7.9
				c4.3-4.3,16-5.3,22.7-1.5c2.3,1.3,4.5,3.4,9.2,21.5c3.2,12.3,3.3,16,7.9,18.7c4.8,2.9,11.3,2.7,16.1,2.6
				c7.4-0.2,9.3-1.9,18.1-3.3c10.5-1.7,12.5,0,21-1c8.5-1,9.3-3.1,24.3-8.7c22.4-8.3,25-5.5,36.5-12c2.7-1.6,8.4-5,17.1-8.7
				c5.3-2.2,8.4-3.2,9.9-3.6c2.7-0.8,8.5-2.4,16.1-2.8c9.4-0.6,11.6,1.3,14.5-0.5c4.2-2.6,0.6-7.3,5.3-11.3
				c3.4-2.9,9.2-3.5,13.1-3.1c4.2,0.5,4.9,2,14.1,6.6c6.6,3.3,9.9,4.9,13.1,5.4c6.1,0.8,8.7-1.1,13.8,0.8c3.7,1.3,3.2,2.7,6.6,3.6
				c3.9,1,6-0.4,13.8-1.3c8.3-1,8.2,0.3,10.8-0.8c5.9-2.4,3.9-7.9,10.5-13.8c4.5-4,6.5-2.4,9.5-5.4c7.9-7.7-5.3-18.4,1.3-31.7
				c2.7-5.4,7.5-9,10.5-11.3c10-7.5,17.1-6.5,21.4-12.8c2.9-4.3,3.6-10.7,0.3-15.3c-4.3-6.1-12.7-5.8-14.5-11.5
				c-1.3-4.2,2.5-6.8,0.3-8.9c-3.2-3.1-14-0.2-15.4,0.3c-11.8,3.3-15.3,9.7-20,8.4c-4.5-1.2-5.2-7.9-5.3-8.2
				c-0.4-4.8,2.8-7.2,7.2-14.1c2-3.1,6.7-10.5,8.2-19.2c0.9-5.5,2.1-12.1-2.6-15.3c-4.9-3.3-10.8,0.4-16.4-2.8
				c-5-2.9-2.1-7-6.6-16.6c-4.1-8.9-11.1-15-13.8-17.4c-6.5-5.6-7.9-4.5-10.5-7.9c-2.6-3.4-3.4-7.5,0-25.3
				c2.7-14.2,4.3-16.8,1.6-19.2c-2.5-2.3-6.1-2-28.3-1.3c-19,0.6-25.2,0.6-30.6-2.8c-4.8-3.1-6.3-7.5-6.6-8.2
				c-2.8-8.5,5.9-12.9,3-19.7c-2-4.6-8.7-8.8-14.1-8.2c-6.8,0.7-6.6,8.5-17.7,14.3c-6.2,3.3-14.1,5-15.8,3.3
				c-2.7-2.7,13-12.6,9.5-17.4c-2.6-3.6-14.3-2-15.4-1.8c-14.8,2.2-16.9,10.1-28.9,14.6c-18.7,6.9-42.4-1.8-51.9-5.4
				c-20.6-7.6-21-15.3-31.9-15.1C143.2,70.1,127.6,100.2,118.5,97.1z"/>
			<path class="st7" d="M795.7,48.3c4.6-1.6,3.8-8.6,10.9-10.4c5.5-1.4,10.3,1.8,12.5,0c2.5-2.1-3.2-6.7-0.4-10.7
				c1.9-2.7,6.5-3.5,8.5-3.8c7.7-1.2,11.7,2.3,14.5,0.6c3.5-2.1-2-7.8,2-13.8c1.9-2.9,6-5.7,10.9-6c5.5-0.2,10.3,2.9,12.5,6
				c3.2,4.4-0.5,6.7,2,13.2c2,5.1,5,5.4,7.3,10.4c2.3,5.3,1.1,9.7,0.4,13.2c-3,15.8,2.5,34.1,7.3,34.5c2.9,0.3,6.7-6,8.5-9.1
				c3.4-5.7,3.5-9.5,5.6-9.7c2.3-0.2,4.9,3.7,6.1,6c2.8,5.8,2.6,14.5-4,19.1c-5,3.5-9.5,1.8-10.9,4.4c-2.2,4.2,9.5,8.8,13.7,21
				c1.4,4.1,1.8,8.5,0,9.1c-2.7,0.9-8.1-7.3-12.9-6.3c-2.9,0.6-2.1,3.8-6.1,6.3c-5.1,3.2-10.4,0.1-15.7,2.5
				c-4.9,2.2-3.9,6.3-7.7,14.8c-2.1,4.8-5.9,9.5-13.3,18.8c-10,12.5-11.2,11.4-14.1,17.3c-4.1,8.3-2.3,11.9-7.7,16
				c-5.5,4.3-10.5,2.8-13.7,6.9c-3.4,4.4-1.1,10.7,1.6,14.4c3.3,4.5,10.3,6.9,24.2,11.6c15.4,5.2,20.7,5.3,23,5.3
				c4.4,0,11.6,0,16.9-3.8c4-2.8,3.1-5,7.7-13.8c4.1-7.9,6.1-11.8,10.5-14.1c6.3-3.3,16.1-3.2,23-0.3c10.8,4.6,12.7,15.6,16.5,37.7
				c1.9,11.3,0.9,13.3-0.8,14.4c-3.7,2.5-10.2,1-41.6-3.8c-6.2-0.9-10-1.5-14.1,0c-8.6,3.1-11.3,12.3-12.1,15.1
				c-1.5,5.1-0.2,6.5-0.8,15.7c-0.5,7.1-0.7,10.9-2,14.4c-4,10.6-14.9,10.3-31.1,24.2c-7.2,6.2-14.2,12.2-16.9,21.7
				c-3,10.2,0.3,20,2,24.2c4.5,10.8,10.6,12.8,8.9,17.6c-3.1,8.5-26.6,13-33.5,7.5c-3.4-2.7-0.4-6.1-4-9.7
				c-5.2-5.2-19.6-6.5-27.8-1.9c-2.8,1.6-5.6,4.1-11.3,26.4c-3.9,15.1-4.1,19.6-9.7,22.9c-5.9,3.5-13.9,3.3-19.8,3.1
				c-9.1-0.3-11.4-2.4-22.2-4.1c-12.8-2-15.4,0-25.8-1.3c-10.4-1.3-11.4-3.8-29.9-10.7c-27.5-10.2-30.7-6.8-44.8-14.8
				c-3.4-1.9-10.3-6.2-21-10.7c-6.5-2.7-10.3-3.9-12.1-4.4c-3.3-0.9-10.4-2.9-19.8-3.5c-11.6-0.7-14.2,1.5-17.7-0.6
				c-5.2-3.2-0.8-9-6.5-13.8c-4.2-3.6-11.3-4.3-16.1-3.8c-5.2,0.6-6,2.5-17.3,8.2c-8.1,4-12.2,6.1-16.1,6.6
				c-7.4,1-10.7-1.3-16.9,0.9c-4.6,1.6-3.9,3.3-8.1,4.4c-4.8,1.3-7.4-0.4-16.9-1.6c-10.2-1.2-10.1,0.4-13.3-0.9
				c-7.2-3-4.7-9.7-12.9-16.9c-5.5-4.9-8-2.9-11.7-6.6c-9.7-9.5,6.5-22.6-1.6-38.9c-3.3-6.6-9.3-11.1-12.9-13.8
				c-12.3-9.2-21-8-26.2-15.7c-3.6-5.3-4.4-13.1-0.4-18.8c5.2-7.5,15.6-7.1,17.7-14.1c1.6-5.2-3.1-8.4-0.4-11
				c3.9-3.8,17.2-0.2,19,0.3c14.5,4,18.7,11.9,24.6,10.4c5.6-1.4,6.4-9.7,6.5-10c0.5-5.9-3.4-8.9-8.9-17.3
				c-2.5-3.9-8.2-12.8-10.1-23.5c-1.2-6.8-2.6-14.9,3.2-18.8c6-4.1,13.3,0.5,20.2-3.5c6.2-3.6,2.6-8.6,8.1-20.4
				c5-10.9,13.6-18.4,16.9-21.3c8-6.9,9.7-5.5,12.9-9.7c3.2-4.2,4.2-9.2,0-31.1c-3.4-17.4-5.2-20.6-2-23.5c3-2.8,7.4-2.4,34.7-1.6
				c23.3,0.7,31,0.8,37.5-3.5c5.9-3.8,7.8-9.2,8.1-10c3.4-10.4-7.3-15.8-3.6-24.2c2.5-5.7,10.7-10.8,17.3-10
				c8.4,0.9,8.1,10.4,21.8,17.6c7.6,4,17.3,6.1,19.4,4.1c3.3-3.3-15.9-15.5-11.7-21.3c3.2-4.4,17.5-2.4,19-2.2
				c18.2,2.7,20.8,12.4,35.5,17.9c23,8.5,52.1-2.3,63.7-6.6c25.3-9.4,25.7-18.7,39.1-18.5C765.3,15.1,784.6,52.1,795.7,48.3z"/>
			<path class="st8" d="M186.9,196.1c-3.1,0.5-1.2,7.2-7.6,16.7c-3.4,5.1-5,4.7-7.2,8.5c-4,7.2-0.5,12,0.5,22.6
				c1,11-1.2,24.6-5.7,25.2c-3.9,0.6-8.8-10.8-10-10.4c-1.4,0.4,10.4,15,4.8,28.2c-4,9.4-15,13.9-12.9,16.7c2,2.6,11.4-1.6,21,2.6
				c3.2,1.4,5.2,3.4,9.1,7.4c5.9,6,7.8,9.8,11.9,15.6c2.8,3.9,2.3,2.6,14.3,16.3c7.9,9,11.9,13.6,15.3,18.2
				c7.5,10.2,11.2,15.3,10.5,20c-1.4,9.4-13.7,15.2-20,18.2c-6.2,2.9-13,6.2-20.5,4.8c-5.9-1.1-7.6-4.1-13.8-4.1
				c-6.6,0-9.2,3.5-11.9,2.2c-3.5-1.6,0.7-7.5-3.3-14.1c-0.2-0.4-4.3-6.8-11.9-7.8c-7.1-0.9-13.1,3.3-15.3,4.8
				c-10.5,7.4-9.2,16.4-14.3,39c-5,22.4-10.3,31.2-5.2,33.8c4.1,2.1,12.7-1.2,17.7-5.2c8.5-6.9,3.4-13.7,11.9-22.6
				c1-1.1,9.4-9.9,18.1-8.5c7.5,1.2,13.5,9.6,11.9,16.3c-1.9,8.5-14.5,8.5-19.1,18.9c-0.4,0.9-4,9.5,1.9,16.3
				c4.9,5.7,13.6,6.9,20.5,7.8c6.6,0.9,17.6,2.4,22.9-2.2c3.2-2.8,1.3-5.2,4.8-16.7c1.6-5.2,2.8-9.2,4.8-9.3
				c2.3-0.1,4.8,5.2,5.7,9.7c1.4,7.1-1.8,10,1,12.6c3.1,2.8,10.2,2.4,14.8,0.7c0.9-0.3,8.4-3,8.6-8.2c0.2-3.6-3.2-6.8-6.7-8.2
				c-5.7-2.3-10.6,0.7-12.9-1.5c-2.2-2,0-6.8,2.9-9.7c3.3-3.3,5.7-2.4,8.1-5.2c2.1-2.4,1.6-4.5,1.4-13c-0.1-5.8-0.2-8.7,0-9.7
				c1.1-6.2,6.7-9.4,16.7-16.7c11.8-8.6,3.6-3.8,25.3-20c12.8-9.6,19.2-14.4,21.9-15.6c11.4-4.9,18.8-3.2,43.9-4.1
				c24.9-0.9,37.4-1.4,48.7-4.8c23.5-7.2,20.6-17.2,41-23c29.7-8.4,61.9,5.4,64.9,6.7c22.6,10,21.9,20.9,42,24.9
				c17.7,3.5,22.5-4,40.6-0.7c27,4.9,40.3,26.2,43.4,24.5c2.8-1.6-9.5-18.4-12.9-23c-11.3-15.4-17.2-20.1-27.2-33.4
				c-9.6-12.9-14.5-19.3-16.7-26.4c-7.7-24.2,9.5-39.1-1.4-47.5c-5.4-4.1-14.2-4-28.6-3.7c-17.2,0.3-20.2,4.2-32,2.6
				c-10.1-1.4-24.4-6.4-25.8-13.7c-1.3-7,10.6-10.7,10.5-21.9c0-2.7-0.1-6.9-3.3-8.5c-2.3-1.1-6.8-1.2-34.8,11.1
				c-8.1,3.5-11.9,5.4-15.3,4.1c-4.2-1.6-2.9-6.3-9.5-12.6c-2.9-2.7-4.7-4.5-7.6-4.8c-6.2-0.7-8.7,6.2-18.6,10.4
				c-8.1,3.5-16.3,3.1-26.2,2.6c-15.6-0.7-15.2-4.2-24.8-4.1c-17.7,0.2-22.4,12-51.1,18.2c-7.7,1.7-12.6,1.9-16.7,0
				c-7.4-3.6-1.5-12.7-7.6-17.1c-9.3-6.6-30.3,7.2-41.5,0.4c-8.1-4.9-4.7-16.8-11-17.8c-4-0.7-5.9,4-11,4.1
				C197.9,213.3,192,195.3,186.9,196.1z"/>
			<ellipse class="st9" cx="206.9" cy="231.1" rx="16.2" ry="12.6"/>
			<ellipse class="st10" cx="497.6" cy="121.5" rx="16.2" ry="12.6"/>
			<ellipse class="st10" cx="867.3" cy="236.6" rx="16.2" ry="12.6"/>
			<ellipse class="st11" cx="760.9" cy="97.9" rx="16.2" ry="12.6"/>
			<ellipse class="st12" cx="144.1" cy="134.1" rx="16.2" ry="12.6"/>
			<ellipse class="st10" cx="248.8" cy="272" rx="9.1" ry="7.1"/>
			<ellipse class="st10" cx="295.4" cy="240.1" rx="9.1" ry="7.1"/>
			<ellipse class="st10" cx="331.3" cy="287.8" rx="8.6" ry="6.3"/>
			<ellipse class="st7" cx="448.3" cy="279.1" rx="17.2" ry="10.2"/>
			<ellipse class="st10" cx="516.2" cy="370.1" rx="6.1" ry="5.9"/>
			<ellipse class="st10" cx="255.9" cy="493" rx="6.1" ry="5.9"/>
			<ellipse class="st10" cx="650.9" cy="482.8" rx="6.1" ry="5.9"/>
			<ellipse class="st10" cx="914.2" cy="329.9" rx="6.1" ry="5.9"/>
			<ellipse class="st10" cx="913.2" cy="218" rx="6.1" ry="5.9"/>
			<ellipse class="st10" cx="555.7" cy="325.2" rx="8.1" ry="5.9"/>
			<ellipse class="st10" cx="555.7" cy="274" rx="5.1" ry="5.1"/>
			<ellipse class="st10" cx="640.2" cy="249.6" rx="7.6" ry="5.1"/>
			<ellipse class="st10" cx="683.3" cy="206.6" rx="6.1" ry="5.5"/>
			<ellipse class="st10" cx="460.4" cy="208.2" rx="6.1" ry="5.5"/>
			<ellipse class="st10" cx="556.2" cy="190.9" rx="5.6" ry="3.2"/>
			<ellipse class="st10" cx="617.4" cy="422.1" rx="6.1" ry="3.5"/>
			<ellipse class="st13" cx="721.8" cy="408.3" rx="13.5" ry="12.6"/>
			<ellipse class="st14" cx="336.4" cy="452.9" rx="14.7" ry="10.6"/>
			<ellipse class="st5" cx="139.4" cy="359.9" rx="13.2" ry="9.8"/>
			<ellipse class="st10" cx="62.4" cy="279.9" rx="14.2" ry="13.4"/>
		</g>
	</g>
</g>
<g id="Layer_2_1_">
	<g>
		<polygon class="st15" points="85.7,330.4 724.1,330.4 724.1,416.9 661.1,416.9 642.1,382.5 599.4,382.3 570,416.9 282.3,416.9 
			264.6,416.9 255.2,397.1 227.6,381.4 189.2,379 167,401.7 156.9,416.9 85.7,416.9 		"/>
		<path class="st16" d="M220,362.8c-34.8,0-63.1,28.3-63.1,63.1c0,34.8,28.3,63.1,63.1,63.1c34.8,0,63.1-28.3,63.1-63.1
			C283.1,391.1,254.7,362.8,220,362.8z M220,456.4c-16.8,0-30.5-13.7-30.5-30.5c0-16.8,13.7-30.5,30.5-30.5
			c16.8,0,30.5,13.7,30.5,30.5C250.5,442.7,236.8,456.4,220,456.4z"/>
		<path class="st16" d="M617.9,362.8c-34.8,0-63.1,28.3-63.1,63.1c0,34.8,28.3,63.1,63.1,63.1c34.8,0,63.1-28.3,63.1-63.1
			C681,391.1,652.7,362.8,617.9,362.8z M617.9,456.4c-16.8,0-30.5-13.7-30.5-30.5c0-16.8,13.7-30.5,30.5-30.5
			c16.8,0,30.5,13.7,30.5,30.5C648.4,442.7,634.7,456.4,617.9,456.4z"/>
		<polygon class="st15" points="724.1,78.9 724.1,330.4 85.7,330.4 85.7,285.8 157.4,230.6 282.8,230.6 282.8,78.9 		"/>
		<polygon class="st15" points="282.8,78.9 225.2,78.9 157.4,230.6 282.8,230.6 		"/>
		<rect x="329.9" y="128.3" class="st15" width="347.1" height="144.6"/>
		<path class="st16" d="M387.8,179c31.9,0,57.8-22.7,57.8-50.6H329.9C329.9,156.3,355.8,179,387.8,179z"/>
		<path class="st16" d="M503.5,179c32,0,57.9-22.7,57.9-50.6H445.6C445.6,156.3,471.5,179,503.5,179z"/>
		<path class="st16" d="M619.1,179c31.9,0,57.8-22.7,57.8-50.6H561.3C561.3,156.3,587.2,179,619.1,179z"/>
		<line class="st15" x1="752.5" y1="339.6" x2="904.4" y2="339.6"/>
		<line class="st15" x1="752.5" y1="373.7" x2="858.3" y2="373.7"/>
		<line class="st15" x1="752.5" y1="407.7" x2="805.4" y2="407.7"/>
	</g>
</g>
</svg>
