<?xml version="1.0" encoding="utf-8"?>
<!-- Generator: Adobe Illustrator 21.1.0, SVG Export Plug-In . SVG Version: 6.00 Build 0)  -->
<svg version="1.1" id="Layer_2" xmlns="http://www.w3.org/2000/svg" xmlns:xlink="http://www.w3.org/1999/xlink" x="0px" y="0px"
	 width="90px" height="72px" viewBox="0 0 90 72" enable-background="new 0 0 90 72" xml:space="preserve">
<g>
	
		<line fill="none" stroke="#32BDB9" stroke-width="1.5" stroke-linejoin="round" stroke-miterlimit="10" x1="52.1" y1="48.8" x2="25.4" y2="48.8"/>
	<polyline fill="none" stroke="#32BDB9" stroke-width="1.5" stroke-linejoin="round" stroke-miterlimit="10" points="12.6,48.8 
		6,48.8 6,40.4 68.4,40.4 68.4,48.8 64,48.8 	"/>
	<path fill="none" stroke="#32BDB9" stroke-width="1.5" stroke-linejoin="round" stroke-miterlimit="10" d="M19.2,43.6
		c-3.5,0-6.1,2.8-6.1,6.1c0,3.5,2.8,6.1,6.1,6.1c3.5,0,6.1-2.8,6.1-6.1C25.3,46.4,22.5,43.6,19.2,43.6z"/>
	<path fill="none" stroke="#32BDB9" stroke-width="1.5" stroke-linejoin="round" stroke-miterlimit="10" d="M19.2,46.8
		c-1.6,0-2.9,1.3-2.9,2.9s1.3,2.9,2.9,2.9c1.6,0,2.9-1.3,2.9-2.9S20.8,46.8,19.2,46.8"/>
	<path fill="none" stroke="#32BDB9" stroke-width="1.5" stroke-linejoin="round" stroke-miterlimit="10" d="M58.1,43.6
		c-3.5,0-6.1,2.8-6.1,6.1c0,3.5,2.8,6.1,6.1,6.1c3.5,0,6.1-2.8,6.1-6.1C64.3,46.4,61.5,43.6,58.1,43.6z"/>
	<path fill="none" stroke="#32BDB9" stroke-width="1.5" stroke-linejoin="round" stroke-miterlimit="10" d="M58.1,46.8
		c-1.6,0-2.9,1.3-2.9,2.9s1.3,2.9,2.9,2.9c1.6,0,2.9-1.3,2.9-2.9S59.7,46.8,58.1,46.8"/>
	<polygon fill="none" stroke="#32BDB9" stroke-width="1.5" stroke-linejoin="round" stroke-miterlimit="10" points="68.4,15.9 
		68.4,40.4 6,40.4 6,36 13,30.7 25.3,30.7 25.3,15.9 	"/>
	<polygon fill="none" stroke="#32BDB9" stroke-width="1.5" stroke-linejoin="round" stroke-miterlimit="10" points="25.3,15.9 
		19.7,15.9 13,30.7 25.3,30.7 	"/>
	
		<rect x="29.9" y="20.7" fill="none" stroke="#32BDB9" stroke-width="1.5" stroke-linejoin="round" stroke-miterlimit="10" width="33.9" height="14.1"/>
	<path fill="none" stroke="#32BDB9" stroke-width="1.5" stroke-linejoin="round" stroke-miterlimit="10" d="M35.6,25.6
		c3.1,0,5.6-2.3,5.6-4.9H29.9C29.9,23.5,32.4,25.6,35.6,25.6z"/>
	<path fill="none" stroke="#32BDB9" stroke-width="1.5" stroke-linejoin="round" stroke-miterlimit="10" d="M46.9,25.6
		c3.1,0,5.6-2.3,5.6-4.9H41.2C41.2,23.5,43.7,25.6,46.9,25.6z"/>
	<path fill="none" stroke="#32BDB9" stroke-width="1.5" stroke-linejoin="round" stroke-miterlimit="10" d="M58.1,25.6
		c3.1,0,5.6-2.3,5.6-4.9H52.4C52.5,23.5,55,25.6,58.1,25.6z"/>
	
		<line fill="none" stroke="#32BDB9" stroke-width="1.5" stroke-linecap="round" stroke-linejoin="round" stroke-miterlimit="10" x1="71.2" y1="41.4" x2="86.1" y2="41.4"/>
	
		<line fill="none" stroke="#32BDB9" stroke-width="1.5" stroke-linecap="round" stroke-linejoin="round" stroke-miterlimit="10" x1="71.2" y1="44.7" x2="81.6" y2="44.7"/>
	
		<line fill="none" stroke="#32BDB9" stroke-width="1.5" stroke-linecap="round" stroke-linejoin="round" stroke-miterlimit="10" x1="71.2" y1="48" x2="76.4" y2="48"/>
</g>
</svg>
