<?xml version="1.0" encoding="utf-8"?>
<!-- Generator: Adobe Illustrator 21.1.0, SVG Export Plug-In . SVG Version: 6.00 Build 0)  -->
<svg version="1.1" id="Layer_1" xmlns="http://www.w3.org/2000/svg" xmlns:xlink="http://www.w3.org/1999/xlink" x="0px" y="0px"
	 width="90px" height="72px" viewBox="0 0 90 72" enable-background="new 0 0 90 72" xml:space="preserve">
<g id="Layer_3" display="none">
	<g display="inline">
		<path fill="none" stroke="#000000" stroke-width="16" stroke-miterlimit="10" d="M-194.5-11.5v175.3c0,5.9,4.9,10.8,10.8,10.8
			h455.6c5.9,0,10.8-4.9,10.8-10.8V-11.5H-194.5z M-49.5,133.7h-112.2V26.5h112.3v107.2H-49.5z M101.8,133.7H-10.5V26.5h112.3V133.7
			z M253.1,133.7H140.8V26.5h112.3V133.7z"/>
	</g>
</g>
<g id="Layer_2">
	<g>
		<g>
			<path fill="#FFFFFF" stroke="#32BDB9" stroke-width="1.5" stroke-miterlimit="10" d="M72.4,53.4V26.6c1.2,0,2.1-1,2.1-2.1v-2.1
				l-4.2-10.1h-34l-4.3,10v2.1c0,1.2,1,2.1,2.1,2.1v26.8L72.4,53.4L72.4,53.4z"/>
			
				<line fill="none" stroke="#32BDB9" stroke-width="1.5" stroke-linecap="round" stroke-linejoin="round" stroke-miterlimit="10" x1="31.3" y1="53.4" x2="75.2" y2="53.4"/>
			
				<line fill="none" stroke="#32BDB9" stroke-width="1.5" stroke-linecap="round" stroke-linejoin="round" stroke-miterlimit="10" x1="34.1" y1="53.4" x2="34.1" y2="26.6"/>
			
				<line fill="none" stroke="#32BDB9" stroke-width="1.5" stroke-linecap="round" stroke-linejoin="round" stroke-miterlimit="10" x1="72.4" y1="53.4" x2="72.4" y2="26.6"/>
			
				<path fill="none" stroke="#32BDB9" stroke-width="1.5" stroke-linecap="round" stroke-linejoin="round" stroke-miterlimit="10" d="
				M70.2,23.7v0.7c0,1.2-1,2.1-2.1,2.1s-2.1-1-2.1-2.1v-0.7v0.7c0,1.2-1,2.1-2.1,2.1c-1.2,0-2.1-1-2.1-2.1v-0.7v0.7
				c0,1.2-1,2.1-2.1,2.1s-2.1-1-2.1-2.1v-0.7v0.7c0,1.2-1,2.1-2.1,2.1c-1.2,0-2.1-1-2.1-2.1v-0.7v0.7c0,1.2-1,2.1-2.1,2.1
				s-2.1-1-2.1-2.1v-0.7v0.7c0,1.2-1,2.1-2.1,2.1s-2.1-1-2.1-2.1v-0.7v0.7c0,1.2-1,2.1-2.1,2.1s-2.1-1-2.1-2.1v-0.7v0.7
				c0,1.2-1,2.1-2.1,2.1s-2.1-1-2.1-2.1v-0.7v0.7c0,1.2-1,2.1-2.1,2.1c-1.2,0-2.1-1-2.1-2.1v-2.1l4.2-10.1h34l4.2,10.1v2.1
				c0,1.2-1,2.1-2.1,2.1s-2.1-1-2.1-2.1L70.2,23.7L70.2,23.7z"/>
			
				<line fill="none" stroke="#32BDB9" stroke-width="1.5" stroke-linecap="round" stroke-linejoin="round" stroke-miterlimit="10" x1="73.5" y1="20.9" x2="32.9" y2="20.9"/>
			
				<rect x="58.2" y="36.4" fill="none" stroke="#32BDB9" stroke-width="1.5" stroke-linecap="round" stroke-linejoin="round" stroke-miterlimit="10" width="9.9" height="16.9"/>
			<rect x="38.4" y="36.4" fill="#BBDEF4" stroke="#32BDB9" stroke-width="1.5" stroke-miterlimit="10" width="17" height="9.9"/>
			
				<rect x="38.4" y="36.4" fill="none" stroke="#32BDB9" stroke-width="1.5" stroke-linecap="round" stroke-linejoin="round" stroke-miterlimit="10" width="17" height="9.9"/>
			
				<line fill="none" stroke="#32BDB9" stroke-width="1.5" stroke-linecap="round" stroke-linejoin="round" stroke-miterlimit="10" x1="42.6" y1="39.3" x2="41.2" y2="40.7"/>
			
				<line fill="none" stroke="#32BDB9" stroke-width="1.5" stroke-linecap="round" stroke-linejoin="round" stroke-miterlimit="10" x1="45.5" y1="40" x2="42.6" y2="42.8"/>
		</g>
		<g>
			<path fill="#FFFFFF" stroke="#32BDB9" stroke-width="1.5" stroke-miterlimit="10" d="M58.4,61.2V33c1.2,0,2.2-1,2.2-2.2v-2.2
				l-4.5-10.7H20.4l-4.5,10.7v2.2c0,1.2,1,2.2,2.2,2.2v28.2H58.4z"/>
			
				<line fill="none" stroke="#32BDB9" stroke-width="1.5" stroke-linecap="round" stroke-linejoin="round" stroke-miterlimit="10" x1="15.2" y1="61.2" x2="61.4" y2="61.2"/>
			
				<line fill="none" stroke="#32BDB9" stroke-width="1.5" stroke-linecap="round" stroke-linejoin="round" stroke-miterlimit="10" x1="18.2" y1="61.2" x2="18.2" y2="33"/>
			
				<line fill="none" stroke="#32BDB9" stroke-width="1.5" stroke-linecap="round" stroke-linejoin="round" stroke-miterlimit="10" x1="58.4" y1="61.2" x2="58.4" y2="33"/>
			
				<path fill="none" stroke="#32BDB9" stroke-width="1.5" stroke-linecap="round" stroke-linejoin="round" stroke-miterlimit="10" d="
				M56.2,30v0.7c0,1.2-1,2.2-2.2,2.2s-2.2-1-2.2-2.2V30v0.7c0,1.2-1,2.2-2.2,2.2s-2.2-1-2.2-2.2V30v0.7c0,1.2-1,2.2-2.2,2.2
				s-2.2-1-2.2-2.2V30v0.7c0,1.2-1,2.2-2.2,2.2s-2.2-1-2.2-2.2V30v0.7c0,1.2-1,2.2-2.2,2.2s-2.2-1-2.2-2.2V30v0.7
				c0,1.2-1,2.2-2.2,2.2s-2.2-1-2.2-2.2V30v0.7c0,1.2-1,2.2-2.2,2.2s-2.2-1-2.2-2.2V30v0.7c0,1.2-1,2.2-2.2,2.2s-2.2-1-2.2-2.2V30
				v0.7c0,1.2-1,2.2-2.2,2.2C17,33,16,32,16,30.8v-2.2l4.5-10.7h35.8l4.5,10.7v2.2c0,1.2-1,2.2-2.2,2.2s-2.2-1-2.2-2.2L56.2,30
				L56.2,30z"/>
			
				<line fill="none" stroke="#32BDB9" stroke-width="1.5" stroke-linecap="round" stroke-linejoin="round" stroke-miterlimit="10" x1="59.6" y1="27.1" x2="16.9" y2="27.1"/>
			
				<rect x="43.5" y="43.4" fill="none" stroke="#32BDB9" stroke-width="1.5" stroke-linecap="round" stroke-linejoin="round" stroke-miterlimit="10" width="10.4" height="17.8"/>
			<rect x="22.6" y="43.4" fill="none" stroke="#32BDB9" stroke-width="1.5" stroke-miterlimit="10" width="17.9" height="10.4"/>
			
				<rect x="22.6" y="43.4" fill="none" stroke="#32BDB9" stroke-width="1.5" stroke-linecap="round" stroke-linejoin="round" stroke-miterlimit="10" width="17.9" height="10.4"/>
			
				<line fill="none" stroke="#32BDB9" stroke-width="1.5" stroke-linecap="round" stroke-linejoin="round" stroke-miterlimit="10" x1="27.1" y1="46.4" x2="25.6" y2="47.9"/>
			
				<line fill="none" stroke="#32BDB9" stroke-width="1.5" stroke-linecap="round" stroke-linejoin="round" stroke-miterlimit="10" x1="30.1" y1="47.1" x2="27.1" y2="50.1"/>
		</g>
	</g>
</g>
</svg>
