<?xml version="1.0" encoding="utf-8"?>
<!-- Generator: Adobe Illustrator 21.1.0, SVG Export Plug-In . SVG Version: 6.00 Build 0)  -->
<svg version="1.1" id="Layer_2" xmlns="http://www.w3.org/2000/svg" xmlns:xlink="http://www.w3.org/1999/xlink" x="0px" y="0px"
	 width="90px" height="72px" viewBox="0 0 90 72" enable-background="new 0 0 90 72" xml:space="preserve">
<path fill="#32BDB9" d="M60.4,62.8c-0.6,0-1-0.5-1-1v-1.9H33.6v1.9c0,0.6-0.5,1-1,1s-1-0.5-1-1v-1.9h-5.8c-2.1,0-3.9-1.7-3.9-3.9
	V40.1L21,39.9c-2.6-0.8-4.5-3.3-4.5-6.1c0-4.3,3.5-7.7,7.7-7.7c0.1,0,0.1,0,0.2,0h1.2v-4.9c0-6,4.9-10.9,10.9-10.9h20.2
	c6,0,10.9,4.9,10.9,10.9V26h1.2c4.3,0,7.7,3.5,7.7,7.7c0,2.7-1.7,5.2-4.3,6L71.4,40v16c0,2.1-1.7,3.9-3.9,3.9h-6v1.9
	C61.5,62.3,61,62.8,60.4,62.8z M25.5,30.7c1.6,0.7,2.7,2.3,2.7,4.1c0,2.2-1.4,4.2-3.5,5l-0.8,0.3V56c0,1,0.8,1.8,1.8,1.8h41.8
	c1,0,1.8-0.8,1.8-1.8V40.2l-0.8-0.3c-2.2-0.7-3.6-2.8-3.6-5c0-1.8,1.1-3.4,2.7-4.1l-0.8-2.3c-3.1,0.9-5.2,3.8-5.2,7v7l0,0l0,0v7.6
	c0,0.6-0.5,1-1,1h-28c-0.6,0-1-0.5-1-1V35.4c0-3.2-2.1-6.1-5.2-7L25.5,30.7z M33.6,49.1h25.8v-5.6H33.6V49.1z M36.5,12.4
	c-4.9,0-8.8,4-8.8,8.8v5.5l0.7,0.3c3.2,1.6,5.2,4.9,5.2,8.4v6h25.8v-6c0-3.6,2.1-6.9,5.4-8.5l0.7-0.3v-5.4c0-4.9-4-8.8-8.8-8.8
	C56.7,12.4,36.5,12.4,36.5,12.4z M70.1,30.7c0.1,0.1,0.3,0.4,0.3,0.7c0,0.6-0.5,1-1,1c-1.3,0-2.4,1.1-2.4,2.4c0,1.8,1.5,3.2,3.2,3.2
	c2.4,0,4.3-1.9,4.3-4.3c0-2-1.1-3.9-2.8-4.9L70.1,30.7z M21.4,28.9c-1.7,1-2.8,2.9-2.8,4.9c0,2.4,1.9,4.3,4.3,4.3
	c1.8,0,3.2-1.5,3.2-3.2c0-1.3-1.1-2.4-2.4-2.4c-0.6,0-1-0.5-1-1c0-0.3,0.1-0.5,0.3-0.7L21.4,28.9z"/>
</svg>
