<?xml version="1.0" encoding="utf-8"?>
<!-- Generator: Adobe Illustrator 21.1.0, SVG Export Plug-In . SVG Version: 6.00 Build 0)  -->
<svg version="1.1" id="Layer_3" xmlns="http://www.w3.org/2000/svg" xmlns:xlink="http://www.w3.org/1999/xlink" x="0px" y="0px"
	 width="90px" height="72px" viewBox="0 0 90 72" enable-background="new 0 0 90 72" xml:space="preserve">
<path fill="#32BDB9" d="M44.8,62.3c-0.1,0-0.2,0-0.3-0.1L14.9,27.3c-0.1-0.1-0.1-0.3,0-0.5L25.7,9.3c0.1-0.1,0.2-0.2,0.4-0.2h37.6
	c0.1,0,0.3,0.1,0.4,0.2l10.7,17.4c0.1,0.2,0.1,0.4,0,0.5L45.2,62.1C45.1,62.3,44.9,62.3,44.8,62.3z M44.8,59.3L58.4,28H31.2
	L44.8,59.3z M51.8,49.1l1.5,0.9L71,28H60.8L51.8,49.1z M36.5,50l1.5-0.9L29,28H18.8L36.5,50z M60.7,26.3h11l-9-15h-8.8L60.7,26.3z
	 M31.3,26.3h27.1l-6.9-15H38.2L31.3,26.3z M18,26.3h11l6.9-15H27L18,26.3z"/>
</svg>
