<?xml version="1.0" encoding="utf-8"?>
<!-- Generator: Adobe Illustrator 21.1.0, SVG Export Plug-In . SVG Version: 6.00 Build 0)  -->
<svg version="1.1" id="Layer_1" xmlns="http://www.w3.org/2000/svg" xmlns:xlink="http://www.w3.org/1999/xlink" x="0px" y="0px"
	 width="45.7px" height="40px" viewBox="0 0 45.7 40" style="enable-background:new 0 0 45.7 40;" xml:space="preserve">
<style type="text/css">
	.st0{fill:#FFFFFF;}
</style>
<path class="st0" d="M7.1,39.8C4.8,39.8,3,38,3,35.7V25.5H2.1c-1.1,0-1.9-0.8-1.9-1.9v-10c0-1.1,0.8-1.9,1.9-1.9H9l-0.3-0.5
	c-0.9-1.2-1.3-2.6-1.3-4.1c0-3.8,3.1-6.9,6.9-6.9c3.9,0,6.6,2.3,8.5,7L23,7.7l0.2-0.5c2.1-5,4.5-7.1,8.3-7.1c3.8,0,6.9,3.1,6.9,6.9
	c0,1.4-0.5,2.8-1.3,4.2l-0.3,0.3h6.8c1.1,0,1.9,0.8,1.9,1.9v10c0,1.1-0.8,1.9-1.9,1.9h-0.9v10.2c0,2.3-1.8,4.1-4.1,4.1H7.4L7.1,39.8
	z M38.6,37.3c0.9,0,1.6-0.7,1.6-1.6V25.5H28.4v11.8H38.6z M25.9,37.3V14.1h-6.1v23.2H25.9z M5.5,35.7c0,0.9,0.7,1.6,1.6,1.6h10.2
	V25.5H5.5V35.7z M43.1,23.1v-9H28.4v9H43.1z M17.4,23.1v-9H2.7v9H17.4z M14.3,2.7c-2.5,0-4.5,2-4.5,4.5s2,4.5,4.5,4.5h7.4l-0.1-0.2
	C19.4,2.7,15.7,2.7,14.3,2.7z M31.4,11.6c2.5,0,4.5-2,4.5-4.5c0-2.5-2-4.4-4.5-4.4c-2.3,0-5.3,1-7.3,8.7L24,11.6H31.4z"/>
</svg>
