<?xml version="1.0" encoding="utf-8"?>
<!-- Generator: Adobe Illustrator 21.1.0, SVG Export Plug-In . SVG Version: 6.00 Build 0)  -->
<svg version="1.1" id="Layer_2" xmlns="http://www.w3.org/2000/svg" xmlns:xlink="http://www.w3.org/1999/xlink" x="0px" y="0px"
	 width="90px" height="72px" viewBox="0 0 90 72" enable-background="new 0 0 90 72" xml:space="preserve">
<path fill="#32BDB9" d="M23.2,62.2c-2.7,0-4.8-2.2-4.8-4.8V42.8h-1.9c-1.1,0-1.9-0.9-1.9-1.9V27.3c0-1.1,0.9-1.9,1.9-1.9h10.7
	L26,23.9c-1.1-1.5-1.7-3.3-1.7-5.2c0-4.8,3.9-8.7,8.7-8.7c4.9,0,8.4,3,10.9,9.1l0.9,2.2l0.9-2.2c2.7-6.4,5.9-9.1,10.6-9.1
	c4.8,0,8.7,3.9,8.7,8.7c0,1.9-0.6,3.7-1.7,5.2l-1.2,1.5h10.7c1.1,0,1.9,0.9,1.9,1.9v13.6c0,1.1-0.9,1.9-1.9,1.9h-1.9v14.5
	c0,2.7-2.2,4.8-4.8,4.8L23.2,62.2L23.2,62.2z M51.3,60.2h14.5c1.6,0,2.9-1.3,2.9-2.9V42.8H51.3V60.2z M39.7,60.2h9.7V27.3h-9.7V60.2
	z M20.3,57.3c0,1.6,1.3,2.9,2.9,2.9h14.5V42.8H20.3V57.3z M51.3,40.9h21.3V27.3H51.3V40.9z M16.5,40.9h21.3V27.3H16.5V40.9z
	 M56.1,11.8c-3.4,0-7.6,1.4-10.6,12.3l-0.3,1.2h11c3.7,0,6.8-3,6.8-6.8S59.9,11.8,56.1,11.8z M32.9,11.8c-3.7,0-6.8,3-6.8,6.8
	s3,6.8,6.8,6.8h10.9l-0.3-1.2C40.3,11.8,34.9,11.8,32.9,11.8z"/>
</svg>
