<?xml version="1.0" encoding="utf-8"?>
<!-- Generator: Adobe Illustrator 23.0.2, SVG Export Plug-In . SVG Version: 6.00 Build 0)  -->
<svg version="1.1" id="Layer_1" xmlns="http://www.w3.org/2000/svg" xmlns:xlink="http://www.w3.org/1999/xlink" x="0px" y="0px"
	 width="51.4px" height="40px" viewBox="0 0 51.4 40" style="enable-background:new 0 0 51.4 40;" xml:space="preserve">
<style type="text/css">
	.st0{fill:none;stroke:#32BDB9;stroke-width:1.3;stroke-linejoin:round;stroke-miterlimit:10;}
	.st1{fill:#32BDB9;stroke:#32BDB9;stroke-width:0.5;stroke-miterlimit:10;}
</style>
<g id="Layer_6">
	<path class="st0" d="M42.2,32.8h-33c-2.2,0-4-1.8-4-4V11.2c0-2.2,1.8-4,4-4h32.9c2.2,0,4,1.8,4,4v17.5C46.2,31,44.4,32.8,42.2,32.8
		z"/>
	<path class="st1" d="M19.3,27.9c-0.8,0-1.5-0.7-1.5-1.5v-4.2h-0.5c-0.4,0-0.6-0.3-0.6-0.6v-4c0-0.4,0.3-0.6,0.6-0.6h3l-0.2-0.4
		c-0.4-0.5-0.5-1-0.5-1.6c0-1.5,1.2-2.7,2.7-2.7s2.6,0.9,3.3,2.7l0.2,0.5l0.2-0.4c0.8-1.9,1.8-2.8,3.2-2.8c1.5,0,2.7,1.2,2.7,2.7
		c0,0.6-0.2,1.1-0.5,1.6l-0.2,0.3h3c0.4,0,0.6,0.3,0.6,0.6v4c0,0.4-0.3,0.6-0.6,0.6h-0.5v4.2c0,0.8-0.7,1.5-1.5,1.5L19.3,27.9
		L19.3,27.9z M27.8,27.1H32c0.4,0,0.8-0.4,0.8-0.8v-4.2h-5V27.1z M24.3,27.1H27v-9.6h-2.7V27.1z M18.6,26.3c0,0.4,0.4,0.8,0.8,0.8
		h4.2v-5h-5C18.6,22.1,18.6,26.3,18.6,26.3z M27.8,21.4H34v-3.9h-6.2V21.4z M17.4,21.4h6.2v-3.9h-6.2C17.4,17.5,17.4,21.4,17.4,21.4
		z M29.2,12.9c-1,0-2.2,0.4-3.1,3.6L26,16.7h3.1c1,0,1.9-0.8,1.9-1.9C31.1,13.7,30.2,12.9,29.2,12.9z M22.2,12.9
		c-1,0-1.9,0.8-1.9,1.9c0,1,0.8,1.9,1.9,1.9h3.1l-0.1-0.2C24.4,12.9,22.8,12.9,22.2,12.9z"/>
</g>
</svg>
