<?xml version="1.0" encoding="utf-8"?>
<!-- Generator: Adobe Illustrator 21.1.0, SVG Export Plug-In . SVG Version: 6.00 Build 0)  -->
<svg version="1.1" id="Layer_2" xmlns="http://www.w3.org/2000/svg" xmlns:xlink="http://www.w3.org/1999/xlink" x="0px" y="0px"
	 width="90px" height="72px" viewBox="0 0 90 72" enable-background="new 0 0 90 72" xml:space="preserve">
<g>
	<path fill="#32BDB9" d="M65.7,17h1.8v10h-1.8c-0.1,0-0.2-0.1-0.2-0.2v-9.6C65.5,17.1,65.6,17,65.7,17z"/>
	<rect x="68.7" y="17" fill="#32BDB9" width="1.7" height="10"/>
	<path fill="#32BDB9" d="M74,21v1.5h-0.7v3.3c0,0.1-0.1,0.2-0.2,0.2h-1.4h-0.1v-8.3h0.1H73c0.1,0,0.2,0.1,0.2,0.2v3L74,21L74,21z"/>
	<path fill="#32BDB9" d="M62.9,22.6h1.9v-1.5h-2.1C62.8,21.6,62.9,22.1,62.9,22.6z"/>
	<path fill="#32BDB9" d="M23.2,21.1v1.5h2.5c0-0.3,0-0.5,0-0.8s0.1-0.5,0.1-0.8L23.2,21.1L23.2,21.1z"/>
	<path fill="none" stroke="#32BDB9" stroke-width="1.5" stroke-linejoin="round" stroke-miterlimit="10" d="M62.3,22.6
		c0.1-0.9-0.3-2.1-0.3-2.1c-0.6-0.6-3.2-0.8-3.6,0.4c0,0.6,0,1.1,0.2,1.7l0,0c0.4,1,1.1,1.9,1.1,1.9c-2.2,2.6-3.1,8.6-3.1,8.6
		c-2.7,0.2-3.6,1.5-3.6,1.5s-1.8-0.1-3.3,1C49.1,36,49.2,36,48,35.1c-1.1-0.7-1.4-2.1-1.4-2.1c1.4-1.5,1.7-5.7,0.6-6.5
		c-0.9-0.7-1.9-1.3-3-1.3c-1-0.1-2.1,0.5-3,1.3s-1.3,4.4,0.5,6.4c0,0,0.2,1-1,2c-1,0.8-0.7,1.7-1.9,0.7c-1.5-1.1-3.3-1.1-3.3-1.1
		s-0.9-1.4-3.6-1.5c0,0-0.9-6-3.1-8.6c0,0,0.6-0.7,1.1-1.7c0.1-0.6,0.3-1.2,0.3-1.8c-0.3-1.3-3-1.2-3.6-0.5
		c-0.6,0.6-0.2,3.1-0.2,3.3c0,0-0.4,1.2,0.1,4.6s1.9,5,2,5.9c0,0,0,2.8,3.8,4.7c0,0,2.5,2.6,3.4,3.4c0,0,1.4,3,2.3,4.1
		c0,0,1,3.9,0.6,6l5.7,0.6l5.7-0.6c-0.4-2.2,0.6-6,0.6-6c0.9-1.1,2.3-4.1,2.3-4.1c0.9-0.8,3.4-3.4,3.4-3.4C60,37,60,34.2,60,34.2
		c0.1-0.9,1.5-2.5,2-5.9s0.1-4.6,0.1-4.6C62.3,23.3,62.3,22.6,62.3,22.6z"/>
	<path fill="#32BDB9" d="M57.9,21.1H30.6c0,0.5,0,1-0.3,1.5h27.8C57.9,22.1,57.8,21.6,57.9,21.1z"/>
	<path fill="#32BDB9" d="M16.3,17.9C16.3,17.9,16.4,17.9,16.3,17.9v8.3l0,0H15c-0.1,0-0.2-0.1-0.2-0.2v-3.3H14v-1.5h0.7v-3
		c0-0.1,0.1-0.2,0.2-0.2L16.3,17.9L16.3,17.9z"/>
	<rect x="17.6" y="17" fill="#32BDB9" width="1.7" height="10.1"/>
	<path fill="#32BDB9" d="M22.5,17.3v9.6c0,0.1-0.1,0.2-0.2,0.2h-1.8V17h1.8C22.4,17,22.5,17.1,22.5,17.3z"/>
</g>
</svg>
