<?xml version="1.0" encoding="utf-8"?>
<!-- Generator: Adobe Illustrator 24.0.2, SVG Export Plug-In . SVG Version: 6.00 Build 0)  -->
<svg version="1.1" id="Layer_1" xmlns="http://www.w3.org/2000/svg" xmlns:xlink="http://www.w3.org/1999/xlink" x="0px" y="0px"
	 width="947px" height="516px" viewBox="0 0 947 516" style="enable-background:new 0 0 947 516;" xml:space="preserve">
<style type="text/css">
	.st0{opacity:0.6;}
	.st1{opacity:0.5;fill:#EFF7FE;enable-background:new    ;}
	.st2{opacity:0.15;fill:#DFE6EA;enable-background:new    ;}
	.st3{opacity:0.45;fill:#E1F5FB;enable-background:new    ;}
	.st4{opacity:0.3;fill:#D1F0EF;enable-background:new    ;}
	.st5{opacity:0.5;fill:#D1F0EF;enable-background:new    ;}
	.st6{opacity:0.5;fill:#DCE8EF;enable-background:new    ;}
	.st7{opacity:0.2;fill:#FCC8CE;enable-background:new    ;}
	.st8{opacity:0.6;fill:#D5F1F1;enable-background:new    ;}
	.st9{opacity:0.6;fill:#BBE9F9;enable-background:new    ;}
	.st10{fill:#F1FAFA;}
	.st11{opacity:0.2;fill:#FCB9C6;enable-background:new    ;}
	.st12{fill:#FCFDFF;}
	.st13{opacity:0.1;fill:#1DD4FF;enable-background:new    ;}
	.st14{opacity:0.2;fill:#A2EAE0;enable-background:new    ;}
	
		.st15{fill:none;stroke:#347EC0;stroke-width:1.5;stroke-linecap:round;stroke-linejoin:round;stroke-miterlimit:10;stroke-dasharray:4;}
	
		.st16{fill:none;stroke:#C0D6DD;stroke-width:1.5;stroke-linecap:round;stroke-linejoin:round;stroke-miterlimit:10;stroke-dasharray:4;}
	.st17{enable-background:new    ;}
	.st18{fill:#FFFFFF;}
	.st19{fill:none;stroke:#347EC0;stroke-width:1.5;stroke-miterlimit:10;}
	.st20{fill:#BBDEF4;}
	.st21{fill:none;stroke:#347EC0;stroke-width:1.5;stroke-linecap:round;stroke-linejoin:round;stroke-miterlimit:10;}
	.st22{fill:none;stroke:#347EC0;stroke-width:0.75;stroke-linecap:round;stroke-linejoin:round;}
	.st23{fill:none;stroke:#347EC0;stroke-width:0.5;stroke-linecap:round;stroke-linejoin:round;stroke-miterlimit:10;}
	.st24{fill:none;stroke:#347EC0;stroke-width:0.5;stroke-linecap:round;stroke-linejoin:round;}
	.st25{fill:#347EC0;}
	.st26{fill:none;stroke:#24AAA3;stroke-width:1.5;stroke-linecap:round;stroke-linejoin:round;stroke-miterlimit:10;}
	.st27{fill:#E6F7F6;stroke:#24AAA3;stroke-width:1.5;stroke-linecap:round;stroke-linejoin:round;stroke-miterlimit:10;}
	.st28{fill:#E6F7F6;}
	.st29{fill:none;stroke:#24AAA3;stroke-width:1.5;}
	.st30{fill:none;stroke:#24AAA3;stroke-width:1.5;stroke-linecap:round;stroke-linejoin:round;}
	.st31{fill:#30B5B2;}
	.st32{fill:none;stroke:#24AAA3;}
	.st33{fill:#24AAA3;}
</style>
<g class="st0">
	<ellipse class="st1" cx="297.4" cy="269.7" rx="274.4" ry="203"/>
	<ellipse class="st2" cx="556.5" cy="156.9" rx="195" ry="144.2"/>
	<ellipse class="st3" cx="658.6" cy="279.8" rx="268" ry="198.2"/>
	<path class="st4" d="M281.1,334.9c4.1-2.6,13.7,0.2,25.8,3.6c8.7,2.5,13,4.8,21.8,5.3c4.6,0.2,11.6,0.6,13.8-2
		c4.3-5.1-12.4-18.5-12-18.8c0.5-0.3,18.7,20.4,27.6,18.1c2.2-0.6,3.7-2.9,6.7-7.6c4-6.3,3-7.8,5.8-9.9c4.7-3.4,9.6-0.4,17.8-3
		c8.3-2.6,7.2-6.9,16.5-11.9c6-3.2,11.6-4.1,20.5-5.6c18.1-3,20.8,0.6,29.8-2.6c10.1-3.7,7.6-8.5,20.5-15.5c7-3.8,13.3-5.4,23.6-7.9
		c10.4-2.6,17.9-3.4,31.2-4.9c26.9-3.1,33.4-1.5,36.9-0.3c6.2,2,6,3.5,12,5.9c13.7,5.5,25.3,2,40.9,1.6c22-0.5,39.1,5.7,57.9,12.5
		c9.8,3.6,4.9,2.7,35.6,16.1c20.5,9,24.4,10.1,32,15.1c8.6,5.6,18.1,11.8,23.6,22.1c3.4,6.4,2.9,9.8,8.9,19.8
		c4.8,8,7.9,10.5,10.7,12.2c5.5,3.3,8.7,2.7,12,5.9c4.9,4.8,4.9,12.9,0.4,14.8c-2.9,1.2-7.1-0.3-8.9-1c-5.7-2.1-5.3-4.7-10.7-7.6
		c-1-0.5-8.2-4.2-16-2.6c-0.9,0.2-7.9,1.5-8.5,4.3c-1.4,6.5,35.7,9.4,42.3,25.4c2.5,6,0.4,13.2-4,18.1c-7.9,8.7-21.2,7.5-25.4,15.5
		c-3.1,5.8,1.2,12,2.2,13.5c8.6,12.6,36.6,19.2,55.2,13.2c11.3-3.6,22.3-13,33.8-22.7c5.2-4.4,8.4-7.6,14.2-8.2
		c9.4-1,21,5.1,23.6,12.2c4.3,11.6-16,25.5-30.7,31.9c-16.4,7.2-36.3,7.4-75.7,7.6c-32.3,0.1-48.7,0.1-60.1-5.9
		c-12.8-6.8-24.8-20-30.3-26c-9.2-10.1-12.5-16.5-21.8-18.1c-9.8-1.6-20.4,3-22.7,4c-6.8,2.9-6.1,4.6-12,7.6
		c-14.7,7.4-30.2,2.7-32.5,7.2c-1.4,2.8,3.5,7,8.5,11.2c6.5,5.5,10.3,5.9,10.7,8.6c0.7,4.6-8.9,11.4-18.7,11.5
		c-12.2,0.2-14.7-10-29.4-12.5c-3-0.5-8.7-1.1-31.2,5.9c-30.2,9.4-29,13.4-44.1,15.8c-16.8,2.7-31.8,0-46.7-2.6
		c-20.3-3.6-20.5-6.9-35.6-8.2c-20.9-1.9-23.2,4.2-42.3,2.6c-13-1.1-24.4-5.8-47.2-15.1c-18.8-7.8-20.2-9.7-28.5-12.8
		c-26.4-9.9-44.4-2.2-87.2-1.6c-31.4,0.4-78,1-93.5-18.1c-7.8-9.6-7.9-24.6,1.8-32.9c10.9-9.4,27.3-4.4,81.4-7.9
		c44.2-2.9,55.9-7.7,63.2-14.2c9.9-8.7,11.5-19.9,12-23.4C289.8,352.2,274.4,339,281.1,334.9z"/>
	<path class="st5" d="M318.5,418.3c4.1,2.5,13.7-0.2,25.8-3.7c8.6-2.5,13-4.8,21.8-5.3c4.6-0.3,11.6-0.6,13.8,2
		c4.3,5.1-12.4,18.6-12,18.8c0.5,0.3,18.7-20.5,27.6-18.1c2.2,0.6,3.7,2.9,6.7,7.6c4.1,6.3,3,7.8,5.8,9.9c4.7,3.4,9.6,0.4,17.8,2.9
		c8.3,2.6,7.3,6.9,16.5,11.8c6,3.2,11.6,4.1,20.5,5.6c18.2,3,20.8-0.7,29.8,2.6c10.1,3.6,7.6,8.5,20.5,15.5c7,3.8,13.3,5.3,23.6,7.9
		c10.4,2.6,17.9,3.4,31.2,4.9c26.9,3,33.4,1.4,36.9,0.3c6.2-2,6-3.5,12-5.9c13.7-5.5,25.3-2,40.9-1.7c22.1,0.4,39.1-5.8,57.8-12.6
		c9.8-3.6,4.9-2.7,35.6-16.2c20.4-9,24.3-10.2,32-15.2c8.6-5.6,18-11.8,23.5-22.1c3.4-6.4,2.9-9.8,8.9-19.8
		c4.8-8,7.9-10.5,10.7-12.2c5.5-3.4,8.7-2.7,12-5.9c4.9-4.8,4.8-12.9,0.4-14.8c-2.9-1.2-7.1,0.3-8.9,1c-5.7,2.1-5.2,4.7-10.7,7.6
		c-1,0.5-8.2,4.2-16,2.7c-0.9-0.2-7.9-1.5-8.5-4.3c-1.4-6.5,35.7-9.4,42.2-25.4c2.4-6,0.4-13.2-4-18.1c-7.9-8.7-21.2-7.5-25.4-15.4
		c-3.1-5.8,1.2-12,2.2-13.5c8.6-12.6,36.5-19.2,55.2-13.2c11.3,3.6,22.3,12.9,33.9,22.7c5.2,4.4,8.4,7.6,14.3,8.2
		c9.4,1,21-5.2,23.6-12.2c4.3-11.6-16.1-25.4-30.8-31.9c-16.4-7.2-36.4-7.4-75.7-7.5c-32.3-0.1-48.7,0-60.1,6
		c-12.8,6.8-24.8,20.1-30.2,26.1c-9.2,10.2-12.4,16.6-21.8,18.1c-9.8,1.7-20.4-2.9-22.7-3.9c-6.8-2.9-6.1-4.6-12-7.6
		c-14.7-7.4-30.2-2.7-32.5-7.2c-1.4-2.8,3.5-7,8.4-11.2c6.5-5.5,10.3-5.9,10.7-8.6c0.7-4.6-9-11.3-18.7-11.5
		c-12.2-0.2-14.7,10-29.3,12.6c-3,0.5-8.7,1.1-31.2-5.9c-30.2-9.4-29.1-13.3-44.1-15.8c-16.8-2.7-31.8,0-46.7,2.7
		c-20.2,3.7-20.5,6.9-35.6,8.3c-20.9,1.9-23.2-4.2-42.3-2.6c-13,1.1-24.4,5.8-47.1,15.2c-18.8,7.8-20.2,9.7-28.5,12.9
		c-26.4,10-44.4,2.2-87.2,1.8c-31.4-0.3-78-0.9-93.4,18.2c-7.8,9.7-7.9,24.6,1.9,32.9c11,9.4,27.3,4.3,81.5,7.8
		c44.2,2.8,55.9,7.7,63.2,14.1c9.9,8.7,11.6,19.9,12.1,23.4C327.1,401,311.8,414.2,318.5,418.3z"/>
	<path class="st6" d="M110,84c-3.6-1.2-2.9-6.4-8.5-7.7c-4.3-1-8.1,1.3-9.8,0c-1.9-1.5,2.5-5,0.3-7.9c-1.5-2-5.1-2.6-6.6-2.8
		c-6-0.9-9.1,1.7-11.3,0.5c-2.7-1.5,1.5-5.8-1.6-10.2c-1.5-2.1-4.6-4.3-8.5-4.4c-4.3-0.2-8,2.1-9.8,4.4c-2.5,3.3,0.4,5-1.6,9.8
		c-1.6,3.8-3.9,4-5.7,7.7c-1.8,3.9-0.8,7.2-0.3,9.8c2.3,11.7-1.9,25.3-5.7,25.6c-2.3,0.2-5.2-4.5-6.6-6.7c-2.6-4.2-2.7-7-4.4-7.2
		c-1.8-0.2-3.9,2.7-4.7,4.4c-2.2,4.3-2,10.8,3.1,14.2c3.9,2.6,7.4,1.4,8.5,3.3c1.7,3.1-7.4,6.6-10.7,15.6c-1.1,3-1.4,6.3,0,6.7
		c2.1,0.7,6.3-5.4,10.1-4.7c2.3,0.4,1.7,2.8,4.7,4.7c4,2.4,8.1,0.1,12.3,1.9c3.8,1.6,3,4.7,6,10.9c1.7,3.5,4.6,7,10.4,14
		c7.8,9.3,8.7,8.4,11,12.8c3.2,6.2,1.8,8.8,6,11.9c4.3,3.2,8.2,2.1,10.7,5.1c2.7,3.3,0.9,7.9-1.3,10.7c-2.6,3.3-8.1,5.1-18.9,8.6
		c-12,3.9-16.1,4-17.9,4c-3.4,0-9.1,0-13.2-2.8c-3.1-2.1-2.4-3.7-6-10.2c-3.2-5.8-4.8-8.7-8.2-10.5c-4.9-2.5-12.5-2.4-17.9-0.2
		C5.5,198.7,4,206.9,1,223.2c-1.5,8.3-0.7,9.8,0.6,10.7c2.9,1.9,7.9,0.7,32.4-2.8c4.8-0.7,7.8-1.1,11,0c6.7,2.3,8.8,9.1,9.4,11.2
		c1.1,3.8,0.2,4.8,0.6,11.6c0.4,5.3,0.5,8.1,1.6,10.7c3.1,7.8,11.6,7.6,24.2,17.9c5.6,4.6,11.1,9,13.2,16.1
		c2.3,7.6-0.2,14.8-1.6,17.9c-3.5,8-8.3,9.5-6.9,13c2.4,6.3,20.7,9.7,26.1,5.6c2.7-2,0.3-4.5,3.1-7.2c4.1-3.9,15.3-4.8,21.7-1.4
		c2.2,1.2,4.3,3.1,8.8,19.5c3,11.2,3.2,14.5,7.5,17c4.6,2.6,10.8,2.5,15.4,2.3c7.1-0.2,8.9-1.8,17.3-3c10-1.5,12,0,20.1-0.9
		c8.1-1,8.9-2.8,23.3-7.9c21.4-7.6,23.9-5,34.9-10.9c2.6-1.4,8-4.6,16.4-7.9c5-2,8.1-2.9,9.4-3.3c2.6-0.7,8.1-2.2,15.4-2.6
		c9-0.5,11.1,1.1,13.8-0.5c4.1-2.4,0.6-6.7,5-10.2c3.3-2.6,8.8-3.2,12.6-2.8c4,0.4,4.7,1.9,13.5,6c6.3,3,9.5,4.5,12.6,4.9
		c5.8,0.7,8.3-1,13.2,0.7c3.6,1.2,3.1,2.4,6.3,3.3c3.7,0.9,5.7-0.3,13.2-1.2c8-0.9,7.9,0.3,10.4-0.7c5.6-2.2,3.7-7.2,10.1-12.6
		c4.3-3.6,6.2-2.2,9.1-4.9c7.6-7-5.1-16.7,1.3-28.9c2.6-4.9,7.2-8.2,10.1-10.2c9.6-6.8,16.4-5.9,20.4-11.6c2.8-3.9,3.5-9.7,0.3-14
		c-4.1-5.5-12.1-5.3-13.8-10.5c-1.3-3.9,2.4-6.2,0.3-8.1c-3.1-2.8-13.4-0.1-14.8,0.2c-11.3,3-14.6,8.8-19.2,7.7
		c-4.4-1.1-5-7.2-5-7.4c-0.4-4.4,2.7-6.6,6.9-12.8c2-2.9,6.4-9.5,7.9-17.5c0.9-5,2-11-2.5-14c-4.6-3-10.3,0.4-15.7-2.6
		c-4.8-2.6-2-6.4-6.3-15.1c-3.9-8.1-10.6-13.7-13.2-15.8c-6.2-5.1-7.6-4.1-10.1-7.2c-2.5-3.1-3.3-6.8,0-23
		c2.6-12.9,4.1-15.3,1.6-17.5c-2.4-2.1-5.8-1.8-27-1.2c-18.2,0.5-24.1,0.6-29.3-2.6c-4.6-2.8-6.1-6.8-6.3-7.4
		c-2.7-7.7,5.7-11.7,2.8-17.9c-1.9-4.2-8.4-8-13.5-7.4c-6.5,0.7-6.4,7.7-17,13c-5.9,3-13.5,4.5-15.1,3c-2.6-2.5,12.4-11.5,9.1-15.8
		c-2.5-3.3-13.7-1.8-14.8-1.6c-14.2,2-16.2,9.2-27.7,13.3c-17.9,6.3-40.6-1.7-49.7-4.9c-19.7-7-20.1-13.9-30.5-13.7
		C133.7,59.4,118.7,86.8,110,84z"/>
	<path class="st7" d="M758.1,39.6c4.4-1.4,3.6-7.8,10.4-9.4c5.3-1.2,9.9,1.7,12,0c2.4-1.9-3.1-6.1-0.4-9.7c1.8-2.5,6.2-3.1,8.1-3.4
		c7.4-1.1,11.2,2.1,13.9,0.6c3.3-1.9-1.9-7.1,1.9-12.6c1.8-2.6,5.7-5.2,10.4-5.4c5.3-0.2,9.9,2.6,12,5.4c3,4-0.5,6.1,1.9,12
		c1.9,4.7,4.8,4.9,7,9.4c2.2,4.8,1,8.8,0.4,12c-2.8,14.4,2.4,31,7,31.4c2.8,0.2,6.4-5.5,8.1-8.3c3.2-5.2,3.3-8.6,5.4-8.9
		c2.2-0.2,4.7,3.4,5.8,5.4c2.7,5.3,2.4,13.2-3.9,17.4c-4.8,3.2-9.1,1.7-10.4,4c-2.1,3.8,9.1,8,13.1,19.1c1.3,3.7,1.7,7.7,0,8.3
		c-2.5,0.8-7.7-6.6-12.4-5.7c-2.8,0.5-2,3.5-5.8,5.7c-4.9,2.9-10,0.1-15.1,2.3c-4.7,2-3.7,5.8-7.3,13.4c-2,4.4-5.6,8.6-12.7,17.1
		c-9.6,11.4-10.7,10.4-13.5,15.7c-4,7.6-2.2,10.8-7.3,14.6c-5.3,3.9-10.1,2.6-13.1,6.3c-3.3,4-1.1,9.8,1.5,13.1
		c3.2,4.1,9.9,6.3,23.2,10.6c14.7,4.7,19.8,4.9,22,4.9c4.2,0,11.1,0,16.2-3.4c3.8-2.5,3-4.6,7.3-12.6c3.9-7.2,5.8-10.7,10-12.9
		c6-3,15.4-2.9,22-0.3c10.4,4.1,12.2,14.2,15.8,34.3c1.9,10.2,0.8,12.1-0.8,13.1c-3.5,2.3-9.7,0.9-39.8-3.4c-5.9-0.9-9.6-1.3-13.5,0
		c-8.3,2.8-10.8,11.2-11.6,13.7c-1.4,4.6-0.2,5.9-0.8,14.3c-0.4,6.4-0.7,10-1.9,13.1c-3.8,9.6-14.2,9.3-29.7,22
		c-6.9,5.7-13.6,11.1-16.2,19.7c-2.8,9.3,0.3,18.2,1.9,22c4.3,9.9,10.2,11.7,8.5,16c-3,7.7-25.5,11.9-32,6.9
		c-3.3-2.5-0.4-5.5-3.9-8.9c-5-4.8-18.7-5.9-26.6-1.7c-2.7,1.4-5.3,3.8-10.8,24c-3.7,13.8-3.9,17.8-9.3,20.9
		c-5.7,3.2-13.3,3-18.9,2.9c-8.7-0.2-10.9-2.2-21.2-3.7c-12.3-1.9-14.7,0-24.7-1.1c-9.9-1.2-10.9-3.4-28.6-9.7
		c-26.3-9.3-29.4-6.1-42.9-13.4c-3.2-1.7-9.9-5.6-20.1-9.7c-6.2-2.5-9.9-3.5-11.6-4c-3.1-0.8-9.9-2.6-18.9-3.1
		c-11.1-0.6-13.6,1.4-17-0.6c-5-2.9-0.7-8.2-6.2-12.6c-4-3.2-10.8-3.9-15.4-3.4c-5,0.5-5.7,2.3-16.6,7.4c-7.8,3.7-11.7,5.5-15.4,6
		c-7.1,0.9-10.2-1.2-16.2,0.9c-4.4,1.5-3.8,3-7.7,4c-4.6,1.2-7-0.4-16.2-1.4c-9.8-1.1-9.7,0.4-12.7-0.9c-6.9-2.7-4.5-8.9-12.4-15.4
		c-5.3-4.4-7.6-2.7-11.2-6c-9.3-8.6,6.3-20.5-1.5-35.4c-3.2-6-8.9-10.1-12.4-12.6c-11.8-8.4-20.1-7.3-25.1-14.3
		c-3.5-4.8-4.2-11.9-0.4-17.1c5-6.8,14.9-6.4,17-12.9c1.6-4.7-3-7.6-0.4-10c3.7-3.4,16.4-0.2,18.1,0.3c13.9,3.7,17.9,10.8,23.6,9.4
		c5.3-1.3,6.1-8.8,6.2-9.1c0.5-5.4-3.3-8.1-8.5-15.7c-2.4-3.5-7.9-11.7-9.7-21.4c-1.1-6.1-2.4-13.5,3.1-17.1
		c5.7-3.7,12.7,0.5,19.3-3.1c5.9-3.2,2.5-7.8,7.7-18.6c4.8-9.9,13-16.8,16.2-19.4c7.7-6.3,9.3-5,12.4-8.9c3-3.8,4-8.4,0-28.3
		c-3.2-15.9-5-18.7-1.9-21.4c2.9-2.5,7.1-2.2,33.2-1.4c22.3,0.7,29.6,0.7,35.9-3.1c5.7-3.5,7.5-8.4,7.7-9.1c3.3-9.5-6.9-14.4-3.5-22
		c2.4-5.2,10.3-9.8,16.6-9.1c8,0.8,7.8,9.5,20.8,16c7.3,3.6,16.6,5.6,18.5,3.7c3.2-3-15.2-14.1-11.2-19.4c3-4,16.8-2.2,18.1-2
		c17.4,2.4,19.9,11.3,34,16.3c22,7.7,49.8-2.1,61-6c24.2-8.5,24.6-17,37.5-16.9C729.1,9.5,747.5,43.1,758.1,39.6z"/>
	<path class="st8" d="M175.5,174.2c-2.9,0.5-1.2,6.5-7.3,15.2c-3.3,4.7-4.8,4.3-6.8,7.8c-3.9,6.5-0.4,10.9,0.5,20.6
		c0.9,10-1.2,22.4-5.5,23c-3.7,0.5-8.5-9.8-9.6-9.5c-1.4,0.4,10,13.6,4.6,25.7c-3.8,8.5-14.4,12.6-12.3,15.2
		c1.9,2.4,10.9-1.5,20.1,2.4c3,1.3,5,3.1,8.7,6.8c5.6,5.5,7.4,9,11.4,14.2c2.7,3.5,2.2,2.4,13.7,14.9c7.5,8.2,11.4,12.3,14.6,16.6
		c7.2,9.3,10.8,13.9,10,18.2c-1.4,8.5-13.1,13.8-19.2,16.6c-5.9,2.7-12.5,5.6-19.6,4.4c-5.6-1-7.3-3.7-13.2-3.7
		c-6.3,0-8.8,3.1-11.4,2c-3.4-1.5,0.7-6.8-3.2-12.8c-0.2-0.4-4.1-6.2-11.4-7.1c-6.8-0.9-12.5,3-14.6,4.4c-10,6.7-8.8,15-13.7,35.5
		c-4.8,20.4-9.8,28.4-5,30.7c3.9,1.9,12.2-1.1,16.9-4.7c8.1-6.3,3.3-12.5,11.4-20.6c1-1,9-9,17.4-7.8c7.2,1.1,12.9,8.8,11.4,14.9
		c-1.9,7.7-13.9,7.7-18.3,17.2c-0.4,0.8-3.8,8.6,1.8,14.9c4.7,5.2,13,6.2,19.6,7.1c6.3,0.8,16.9,2.1,21.9-2
		c3.1-2.5,1.2-4.7,4.6-15.2c1.5-4.8,2.7-8.4,4.6-8.4c2.2-0.1,4.6,4.8,5.5,8.8c1.4,6.5-1.8,9.1,0.9,11.5c2.9,2.6,9.8,2.1,14.2,0.7
		c0.9-0.3,8-2.7,8.2-7.4c0.2-3.3-3-6.1-6.4-7.4c-5.5-2.1-10.1,0.6-12.3-1.4c-2.1-1.9,0-6.2,2.7-8.8c3.1-3,5.4-2.2,7.8-4.7
		c2-2.2,1.5-4.1,1.4-11.8c-0.1-5.3-0.2-7.9,0-8.8c1.1-5.6,6.4-8.5,16-15.2c11.3-7.9,3.5-3.4,24.2-18.2c12.3-8.8,18.4-13.1,21-14.2
		c10.9-4.4,18-2.9,42-3.7c23.8-0.8,35.8-1.2,46.6-4.4c22.5-6.5,19.7-15.7,39.3-20.9c28.4-7.7,59.3,4.9,62.1,6.1
		c21.6,9.1,21,19,40.2,22.6c16.9,3.2,21.5-3.7,38.8-0.7c25.9,4.5,38.6,23.9,41.6,22.3c2.7-1.4-9.1-16.8-12.3-20.9
		c-10.8-14-16.5-18.3-26-30.4c-9.2-11.7-13.8-17.6-16-24c-7.3-22,9.1-35.6-1.4-43.2c-5.2-3.8-13.6-3.6-27.4-3.4
		c-16.4,0.3-19.4,3.8-30.6,2.4c-9.6-1.2-23.4-5.8-24.7-12.5c-1.2-6.4,10.1-9.7,10-19.9c0-2.5-0.1-6.3-3.2-7.8
		c-2.2-1-6.5-1.1-33.3,10.1c-7.7,3.2-11.4,4.9-14.6,3.7c-4-1.5-2.8-5.8-9.1-11.5c-2.7-2.5-4.5-4.1-7.3-4.4c-6-0.7-8.3,5.6-17.8,9.5
		c-7.8,3.2-15.6,2.8-25.1,2.4c-14.9-0.7-14.6-3.8-23.7-3.7c-17,0.1-21.4,10.9-48.9,16.6c-7.4,1.5-12.1,1.8-16,0
		c-7.1-3.2-1.4-11.5-7.3-15.5c-8.9-6-29,6.5-39.7,0.3c-7.7-4.5-4.5-15.3-10.5-16.2c-3.8-0.6-5.6,3.7-10.5,3.7
		C186,189.8,180.4,173.4,175.5,174.2z"/>
	<ellipse class="st9" cx="194.7" cy="205.9" rx="15.5" ry="11.5"/>
	<ellipse class="st10" cx="472.9" cy="106.3" rx="15.5" ry="11.5"/>
	<ellipse class="st10" cx="826.6" cy="211" rx="15.5" ry="11.5"/>
	<ellipse class="st11" cx="724.9" cy="84.8" rx="15.5" ry="11.5"/>
	<ellipse class="st12" cx="134.6" cy="117.7" rx="15.5" ry="11.5"/>
	<ellipse class="st10" cx="234.7" cy="243.2" rx="8.7" ry="6.5"/>
	<ellipse class="st10" cx="279.3" cy="214.2" rx="8.7" ry="6.5"/>
	<ellipse class="st10" cx="313.7" cy="257.6" rx="8.2" ry="5.7"/>
	<ellipse class="st7" cx="425.7" cy="249.7" rx="16.5" ry="9.3"/>
	<ellipse class="st10" cx="490.6" cy="332.5" rx="5.8" ry="5.4"/>
	<ellipse class="st10" cx="241.5" cy="444.4" rx="5.8" ry="5.4"/>
	<ellipse class="st10" cx="619.5" cy="435.1" rx="5.8" ry="5.4"/>
	<ellipse class="st10" cx="871.6" cy="295.9" rx="5.8" ry="5.4"/>
	<ellipse class="st10" cx="870.6" cy="194.1" rx="5.8" ry="5.4"/>
	<ellipse class="st10" cx="528.4" cy="291.6" rx="7.8" ry="5.4"/>
	<ellipse class="st10" cx="528.4" cy="245" rx="4.8" ry="4.7"/>
	<ellipse class="st10" cx="609.4" cy="222.8" rx="7.3" ry="4.7"/>
	<ellipse class="st10" cx="650.6" cy="183.7" rx="5.8" ry="5"/>
	<ellipse class="st10" cx="437.3" cy="185.2" rx="5.8" ry="5"/>
	<ellipse class="st10" cx="528.9" cy="169.4" rx="5.3" ry="2.9"/>
	<ellipse class="st10" cx="587.6" cy="379.8" rx="5.8" ry="3.2"/>
	<ellipse class="st13" cx="687.4" cy="367.3" rx="12.9" ry="11.5"/>
	<ellipse class="st14" cx="318.6" cy="407.8" rx="14.1" ry="9.7"/>
	<ellipse class="st5" cx="130" cy="323.2" rx="12.6" ry="9"/>
	<ellipse class="st10" cx="56.4" cy="250.4" rx="13.6" ry="12.2"/>
</g>
<path class="st15" d="M338.8,399.9H164.3c-21.1,0-38.4-17.1-38.4-38.4v-44.3"/>
<path class="st16" d="M924.5,304.2"/>
<g class="st17">
	<path d="M51.7,284l-5.1-19.4h2.6l2.9,12.7c0.3,1.3,0.6,2.7,0.8,4c0.5-2.1,0.8-3.3,0.9-3.6l3.7-13.1h3.1l2.8,9.8
		c0.7,2.4,1.2,4.7,1.5,6.9c0.2-1.2,0.6-2.6,1-4.2l3-12.4h2.6L66.2,284h-2.5l-4.1-14.8c-0.3-1.2-0.5-2-0.6-2.3
		c-0.2,0.9-0.4,1.6-0.6,2.3L54.3,284H51.7z"/>
	<path d="M82.7,279.5l2.5,0.3c-0.4,1.4-1.1,2.5-2.2,3.3c-1,0.8-2.4,1.2-4,1.2c-2.1,0-3.7-0.6-4.9-1.9c-1.2-1.3-1.8-3-1.8-5.3
		c0-2.4,0.6-4.2,1.8-5.5c1.2-1.3,2.8-2,4.7-2c1.9,0,3.4,0.6,4.6,1.9s1.8,3.1,1.8,5.4c0,0.1,0,0.4,0,0.6H74.7
		c0.1,1.5,0.5,2.7,1.3,3.5s1.8,1.2,2.9,1.2c0.9,0,1.6-0.2,2.2-0.7C81.8,281.2,82.3,280.5,82.7,279.5z M74.9,275.6h7.8
		c-0.1-1.2-0.4-2.1-0.9-2.7c-0.8-0.9-1.7-1.4-2.9-1.4c-1.1,0-2,0.4-2.8,1.1C75.4,273.4,74.9,274.4,74.9,275.6z"/>
	<path d="M90.3,284h-2.2v-19.4h2.4v6.9c1-1.3,2.3-1.9,3.8-1.9c0.9,0,1.7,0.2,2.5,0.5s1.4,0.8,1.9,1.5s0.9,1.4,1.2,2.3
		c0.3,0.9,0.4,1.8,0.4,2.9c0,2.4-0.6,4.3-1.8,5.6c-1.2,1.3-2.6,2-4.3,2c-1.7,0-3-0.7-3.9-2.1V284z M90.3,276.9
		c0,1.7,0.2,2.9,0.7,3.6c0.7,1.2,1.8,1.8,3,1.8c1,0,1.9-0.5,2.7-1.4c0.8-0.9,1.1-2.2,1.1-4s-0.4-3.2-1.1-4.1s-1.6-1.3-2.6-1.3
		s-1.9,0.5-2.7,1.4C90.7,273.9,90.3,275.2,90.3,276.9z"/>
	<path d="M102.2,279.8l2.4-0.4c0.1,0.9,0.5,1.7,1.1,2.2s1.4,0.8,2.5,0.8s1.9-0.2,2.4-0.7c0.5-0.4,0.8-1,0.8-1.6c0-0.5-0.2-1-0.7-1.3
		c-0.3-0.2-1.1-0.5-2.4-0.8c-1.7-0.4-3-0.8-3.6-1.1c-0.7-0.3-1.2-0.8-1.5-1.3c-0.3-0.6-0.5-1.2-0.5-1.9c0-0.6,0.1-1.2,0.4-1.7
		s0.7-1,1.2-1.3c0.4-0.3,0.9-0.5,1.5-0.7s1.3-0.3,2.1-0.3c1.1,0,2.1,0.2,2.9,0.5s1.4,0.7,1.8,1.3c0.4,0.5,0.7,1.3,0.8,2.2l-2.3,0.3
		c-0.1-0.7-0.4-1.3-0.9-1.7c-0.5-0.4-1.2-0.6-2.1-0.6c-1.1,0-1.9,0.2-2.3,0.5s-0.7,0.8-0.7,1.3c0,0.3,0.1,0.6,0.3,0.8
		c0.2,0.3,0.5,0.5,0.9,0.6c0.2,0.1,0.9,0.3,2.1,0.6c1.7,0.4,2.9,0.8,3.5,1.1c0.7,0.3,1.2,0.7,1.6,1.2s0.6,1.2,0.6,2
		s-0.2,1.5-0.7,2.2s-1.1,1.2-2,1.6s-1.9,0.6-3,0.6c-1.8,0-3.2-0.4-4.2-1.1C103.1,282.4,102.5,281.3,102.2,279.8z"/>
	<path d="M121.9,281.9l0.3,2.1c-0.7,0.1-1.3,0.2-1.8,0.2c-0.9,0-1.5-0.1-2-0.4s-0.8-0.6-1-1.1c-0.2-0.4-0.3-1.4-0.3-2.8v-8.1h-1.7
		V270h1.7v-3.5l2.4-1.4v4.9h2.4v1.8h-2.4v8.2c0,0.7,0,1.1,0.1,1.3c0.1,0.2,0.2,0.3,0.4,0.5s0.5,0.2,0.8,0.2
		C121.1,282,121.5,281.9,121.9,281.9z"/>
	<path d="M123.3,277c0-2.6,0.7-4.5,2.2-5.8c1.2-1,2.7-1.6,4.4-1.6c1.9,0,3.5,0.6,4.7,1.9s1.8,3,1.8,5.2c0,1.8-0.3,3.2-0.8,4.3
		c-0.5,1-1.3,1.8-2.4,2.4s-2.2,0.9-3.4,0.9c-2,0-3.6-0.6-4.8-1.9C123.9,281.2,123.3,279.3,123.3,277z M125.8,277
		c0,1.8,0.4,3.1,1.2,4s1.8,1.3,3,1.3s2.2-0.4,2.9-1.3c0.8-0.9,1.2-2.3,1.2-4.1c0-1.7-0.4-3-1.2-3.9s-1.8-1.3-2.9-1.3
		c-1.2,0-2.2,0.4-3,1.3S125.8,275.2,125.8,277z"/>
	<path d="M139.2,284v-14h2.1v2.1c0.5-1,1-1.7,1.5-2s1-0.5,1.5-0.5c0.8,0,1.6,0.3,2.4,0.8l-0.8,2.2c-0.6-0.3-1.2-0.5-1.7-0.5
		s-1,0.2-1.4,0.5s-0.7,0.7-0.9,1.3c-0.3,0.8-0.4,1.8-0.4,2.8v7.3L139.2,284L139.2,284z"/>
	<path d="M157.9,279.5l2.5,0.3c-0.4,1.4-1.1,2.5-2.2,3.3c-1,0.8-2.4,1.2-4,1.2c-2.1,0-3.7-0.6-4.9-1.9s-1.8-3-1.8-5.3
		c0-2.4,0.6-4.2,1.8-5.5s2.8-2,4.7-2s3.4,0.6,4.6,1.9c1.2,1.3,1.8,3.1,1.8,5.4c0,0.1,0,0.4,0,0.6h-10.5c0.1,1.5,0.5,2.7,1.3,3.5
		s1.8,1.2,2.9,1.2c0.9,0,1.6-0.2,2.2-0.7C157,281.2,157.5,280.5,157.9,279.5z M150.1,275.6h7.8c-0.1-1.2-0.4-2.1-0.9-2.7
		c-0.8-0.9-1.7-1.4-2.9-1.4c-1.1,0-2,0.4-2.8,1.1C150.5,273.4,150.1,274.4,150.1,275.6z"/>
	<path d="M162.4,279.8l2.4-0.4c0.1,0.9,0.5,1.7,1.1,2.2s1.4,0.8,2.5,0.8s1.9-0.2,2.4-0.7c0.5-0.4,0.8-1,0.8-1.6c0-0.5-0.2-1-0.7-1.3
		c-0.3-0.2-1.1-0.5-2.4-0.8c-1.7-0.4-3-0.8-3.6-1.1c-0.7-0.3-1.2-0.8-1.5-1.3c-0.3-0.6-0.5-1.2-0.5-1.9c0-0.6,0.1-1.2,0.4-1.7
		c0.3-0.5,0.7-1,1.2-1.3c0.4-0.3,0.9-0.5,1.5-0.7s1.3-0.3,2.1-0.3c1.1,0,2.1,0.2,2.9,0.5c0.8,0.3,1.4,0.7,1.8,1.3
		c0.4,0.5,0.7,1.3,0.8,2.2l-2.3,0.3c-0.1-0.7-0.4-1.3-0.9-1.7c-0.5-0.4-1.2-0.6-2.1-0.6c-1.1,0-1.9,0.2-2.3,0.5s-0.7,0.8-0.7,1.3
		c0,0.3,0.1,0.6,0.3,0.8c0.2,0.3,0.5,0.5,0.9,0.6c0.2,0.1,0.9,0.3,2.1,0.6c1.7,0.4,2.9,0.8,3.5,1.1c0.7,0.3,1.2,0.7,1.6,1.2
		c0.4,0.5,0.6,1.2,0.6,2s-0.2,1.5-0.7,2.2s-1.1,1.2-2,1.6s-1.9,0.6-3,0.6c-1.8,0-3.2-0.4-4.2-1.1
		C163.2,282.4,162.6,281.3,162.4,279.8z"/>
</g>
<g class="st17">
	<path d="M684.3,284v-19.4h7.3c1.5,0,2.7,0.2,3.6,0.6c0.9,0.4,1.6,1,2.1,1.8s0.8,1.7,0.8,2.6c0,0.8-0.2,1.6-0.7,2.3
		c-0.4,0.7-1.1,1.3-2,1.8c1.2,0.3,2.1,0.9,2.7,1.8c0.6,0.8,0.9,1.8,0.9,2.9c0,0.9-0.2,1.8-0.6,2.5s-0.9,1.4-1.4,1.8s-1.3,0.7-2.1,1
		c-0.8,0.2-1.9,0.3-3.1,0.3L684.3,284L684.3,284z M686.8,272.8h4.2c1.1,0,2-0.1,2.4-0.2c0.7-0.2,1.1-0.5,1.5-1s0.5-1,0.5-1.7
		c0-0.6-0.2-1.2-0.5-1.7s-0.7-0.8-1.3-1s-1.6-0.3-2.9-0.3h-3.9V272.8z M686.8,281.7h4.8c0.8,0,1.4,0,1.7-0.1
		c0.6-0.1,1.1-0.3,1.5-0.5s0.7-0.6,1-1.1s0.4-1,0.4-1.6c0-0.7-0.2-1.3-0.6-1.9c-0.4-0.5-0.9-0.9-1.5-1.1s-1.6-0.3-2.8-0.3h-4.5
		L686.8,281.7L686.8,281.7z"/>
	<path d="M702.1,284v-14h2.1v2.1c0.5-1,1-1.7,1.5-2s1-0.5,1.5-0.5c0.8,0,1.6,0.3,2.4,0.8l-0.8,2.2c-0.6-0.3-1.2-0.5-1.7-0.5
		s-1,0.2-1.4,0.5s-0.7,0.7-0.9,1.3c-0.3,0.8-0.4,1.8-0.4,2.8v7.3L702.1,284L702.1,284z"/>
	<path d="M711.2,267.4v-2.7h2.4v2.7H711.2z M711.2,284v-14h2.4v14H711.2z"/>
	<path d="M726.3,278.9l2.3,0.3c-0.3,1.6-0.9,2.9-2,3.8s-2.3,1.4-3.9,1.4c-1.9,0-3.5-0.6-4.6-1.9s-1.8-3.1-1.8-5.4
		c0-1.5,0.3-2.8,0.8-4s1.3-2,2.3-2.6s2.1-0.9,3.3-0.9c1.5,0,2.8,0.4,3.7,1.2c1,0.8,1.6,1.9,1.9,3.3l-2.3,0.4
		c-0.2-0.9-0.6-1.7-1.2-2.1c-0.6-0.5-1.2-0.7-2-0.7c-1.2,0-2.2,0.4-2.9,1.3s-1.1,2.2-1.1,4.1s0.4,3.3,1.1,4.1
		c0.7,0.9,1.7,1.3,2.8,1.3c0.9,0,1.7-0.3,2.3-0.9C725.7,280.9,726.1,280,726.3,278.9z"/>
	<path d="M730.7,284v-19.4h2.4v11l5.6-5.7h3.1l-5.4,5.2l5.9,8.8h-2.9l-4.6-7.2l-1.7,1.6v5.6h-2.4V284z"/>
	<path d="M762.8,281.7c-0.8,0.9-1.6,1.5-2.6,2c-0.9,0.4-1.9,0.7-3,0.7c-2,0-3.6-0.7-4.7-2c-0.9-1.1-1.4-2.3-1.4-3.7
		c0-1.2,0.4-2.3,1.2-3.2c0.8-1,1.9-1.8,3.5-2.5c-0.9-1-1.5-1.8-1.7-2.4c-0.3-0.6-0.4-1.2-0.4-1.8c0-1.2,0.5-2.2,1.4-3
		c0.9-0.9,2.1-1.3,3.4-1.3c1.3,0,2.4,0.4,3.2,1.2c0.8,0.8,1.3,1.8,1.3,2.9c0,1.8-1.2,3.4-3.7,4.7l3.5,4.4c0.4-0.8,0.7-1.7,0.9-2.7
		l2.5,0.5c-0.4,1.7-1,3.1-1.7,4.2c0.9,1.2,1.9,2.2,3,3l-1.6,1.9C764.8,283.8,763.8,282.9,762.8,281.7z M761.3,279.8l-4.4-5.4
		c-1.3,0.8-2.2,1.5-2.6,2.1c-0.4,0.7-0.7,1.3-0.7,1.9c0,0.8,0.3,1.6,0.9,2.4s1.5,1.3,2.7,1.3c0.7,0,1.5-0.2,2.2-0.7
		C760.2,281.1,760.8,280.5,761.3,279.8z M758,271.6c1-0.6,1.7-1.1,2-1.6s0.5-1,0.5-1.5c0-0.7-0.2-1.2-0.6-1.6
		c-0.4-0.4-0.9-0.6-1.6-0.6c-0.6,0-1.2,0.2-1.6,0.6c-0.4,0.4-0.6,0.9-0.6,1.5c0,0.3,0.1,0.6,0.2,0.9c0.2,0.3,0.4,0.7,0.7,1.1
		L758,271.6z"/>
	<path d="M777.5,284v-19.4h3.9l4.6,13.7c0.4,1.3,0.7,2.2,0.9,2.9c0.2-0.7,0.6-1.7,1-3.1l4.6-13.5h3.4V284h-2.5v-16.2l-5.6,16.2h-2.3
		l-5.6-16.5V284H777.5z"/>
	<path d="M798.9,277c0-2.6,0.7-4.5,2.2-5.8c1.2-1,2.7-1.6,4.4-1.6c1.9,0,3.5,0.6,4.7,1.9s1.8,3,1.8,5.2c0,1.8-0.3,3.2-0.8,4.3
		s-1.3,1.8-2.4,2.4s-2.2,0.9-3.4,0.9c-2,0-3.6-0.6-4.8-1.9C799.5,281.2,798.9,279.3,798.9,277z M801.4,277c0,1.8,0.4,3.1,1.2,4
		s1.8,1.3,3,1.3s2.2-0.4,2.9-1.3s1.2-2.3,1.2-4.1c0-1.7-0.4-3-1.2-3.9s-1.8-1.3-2.9-1.3c-1.2,0-2.2,0.4-3,1.3
		C801.8,273.8,801.4,275.2,801.4,277z"/>
	<path d="M830,281.9l0.3,2.1c-0.7,0.1-1.3,0.2-1.8,0.2c-0.9,0-1.5-0.1-2-0.4s-0.8-0.6-1-1.1c-0.2-0.4-0.3-1.4-0.3-2.8v-8.1h-1.7V270
		h1.7v-3.5l2.4-1.4v4.9h2.4v1.8h-2.4v8.2c0,0.7,0,1.1,0.1,1.3c0.1,0.2,0.2,0.3,0.4,0.5s0.5,0.2,0.8,0.2
		C829.3,282,829.6,281.9,830,281.9z"/>
	<path d="M841.5,282.3c-0.9,0.7-1.7,1.3-2.5,1.6c-0.8,0.3-1.7,0.5-2.6,0.5c-1.5,0-2.7-0.4-3.6-1.1s-1.2-1.7-1.2-2.9
		c0-0.7,0.2-1.3,0.5-1.9s0.7-1,1.2-1.4s1.1-0.6,1.7-0.8c0.5-0.1,1.2-0.2,2.1-0.4c1.9-0.2,3.3-0.5,4.2-0.8c0-0.3,0-0.5,0-0.6
		c0-1-0.2-1.7-0.7-2c-0.6-0.5-1.5-0.8-2.7-0.8c-1.1,0-1.9,0.2-2.5,0.6c-0.5,0.4-0.9,1.1-1.2,2.1L832,274c0.2-1,0.6-1.8,1-2.4
		c0.5-0.6,1.2-1.1,2.1-1.4c0.9-0.3,2-0.5,3.2-0.5s2.2,0.1,2.9,0.4s1.3,0.6,1.7,1.1c0.4,0.4,0.6,1,0.7,1.6c0.1,0.4,0.1,1.1,0.1,2.2
		v3.2c0,2.2,0,3.6,0.2,4.2c0.1,0.6,0.3,1.1,0.6,1.7H842C841.8,283.5,841.6,282.9,841.5,282.3z M841.3,277c-0.9,0.4-2.2,0.7-3.9,0.9
		c-1,0.1-1.7,0.3-2.1,0.5c-0.4,0.2-0.7,0.4-0.9,0.8c-0.2,0.3-0.3,0.7-0.3,1.1c0,0.6,0.2,1.2,0.7,1.6s1.2,0.6,2.1,0.6
		c0.9,0,1.7-0.2,2.4-0.6s1.2-0.9,1.6-1.6c0.3-0.5,0.4-1.3,0.4-2.4V277z"/>
	<path d="M847.4,284v-14h2.1v2.1c0.5-1,1-1.7,1.5-2s1-0.5,1.5-0.5c0.8,0,1.6,0.3,2.4,0.8l-0.8,2.2c-0.6-0.3-1.2-0.5-1.7-0.5
		s-1,0.2-1.4,0.5s-0.7,0.7-0.9,1.3c-0.3,0.8-0.4,1.8-0.4,2.8v7.3L847.4,284L847.4,284z"/>
	<path d="M814.4,284v-14h2.1v2.1c0.5-1,1-1.7,1.5-2s1-0.5,1.5-0.5c0.8,0,1.6,0.3,2.4,0.8l-0.8,2.2c-0.6-0.3-1.2-0.5-1.7-0.5
		s-1,0.2-1.4,0.5s-0.7,0.7-0.9,1.3c-0.3,0.8-0.4,1.8-0.4,2.8v7.3L814.4,284L814.4,284z"/>
	<path d="M863.4,277.8l2.4-0.2c0.1,1,0.4,1.8,0.8,2.4s1.1,1.1,1.9,1.5c0.9,0.4,1.9,0.6,3,0.6c1,0,1.8-0.1,2.6-0.4
		c0.7-0.3,1.3-0.7,1.7-1.2s0.5-1.1,0.5-1.7s-0.2-1.1-0.5-1.6c-0.4-0.5-0.9-0.8-1.7-1.1c-0.5-0.2-1.7-0.5-3.4-0.9
		c-1.8-0.4-3-0.8-3.7-1.2c-0.9-0.5-1.6-1.1-2.1-1.8c-0.5-0.7-0.7-1.5-0.7-2.4c0-1,0.3-1.9,0.8-2.7s1.4-1.5,2.4-1.9
		c1.1-0.4,2.3-0.7,3.6-0.7c1.4,0,2.7,0.2,3.8,0.7s1.9,1.1,2.5,2s0.9,1.9,1,3.1l-2.5,0.2c-0.1-1.2-0.6-2.1-1.3-2.8
		c-0.8-0.6-1.9-0.9-3.4-0.9c-1.6,0-2.7,0.3-3.4,0.9s-1.1,1.3-1.1,2.1c0,0.7,0.3,1.3,0.8,1.7c0.5,0.4,1.8,0.9,3.9,1.4
		s3.5,0.9,4.3,1.2c1.1,0.5,2,1.2,2.5,2s0.8,1.7,0.8,2.8c0,1-0.3,2-0.9,2.9c-0.6,0.9-1.4,1.6-2.5,2.1s-2.3,0.8-3.7,0.8
		c-1.8,0-3.2-0.3-4.4-0.8s-2.1-1.3-2.8-2.3C863.8,280.2,863.4,279.1,863.4,277.8z"/>
	<path d="M887.2,281.9l0.3,2.1c-0.7,0.1-1.3,0.2-1.8,0.2c-0.9,0-1.5-0.1-2-0.4s-0.8-0.6-1-1.1c-0.2-0.4-0.3-1.4-0.3-2.8v-8.1h-1.7
		V270h1.7v-3.5l2.4-1.4v4.9h2.4v1.8h-2.4v8.2c0,0.7,0,1.1,0.1,1.3c0.1,0.2,0.2,0.3,0.4,0.5s0.5,0.2,0.8,0.2S886.7,281.9,887.2,281.9
		z"/>
	<path d="M888.6,277c0-2.6,0.7-4.5,2.2-5.8c1.2-1,2.7-1.6,4.4-1.6c1.9,0,3.5,0.6,4.7,1.9s1.8,3,1.8,5.2c0,1.8-0.3,3.2-0.8,4.3
		c-0.5,1-1.3,1.8-2.4,2.4s-2.2,0.9-3.4,0.9c-2,0-3.6-0.6-4.8-1.9C889.2,281.2,888.6,279.3,888.6,277z M891.1,277
		c0,1.8,0.4,3.1,1.2,4s1.8,1.3,3,1.3s2.2-0.4,2.9-1.3c0.8-0.9,1.2-2.3,1.2-4.1c0-1.7-0.4-3-1.2-3.9s-1.8-1.3-2.9-1.3
		c-1.2,0-2.2,0.4-3,1.3C891.5,273.8,891.1,275.2,891.1,277z"/>
	<path d="M904.5,284v-14h2.1v2.1c0.5-1,1.1-1.7,1.5-2c0.5-0.3,1-0.5,1.5-0.5c0.8,0,1.6,0.3,2.4,0.8l-0.8,2.2
		c-0.6-0.3-1.2-0.5-1.7-0.5s-1,0.2-1.4,0.5s-0.7,0.7-0.9,1.3c-0.3,0.8-0.4,1.8-0.4,2.8v7.3L904.5,284L904.5,284z"/>
	<path d="M923.2,279.5l2.5,0.3c-0.4,1.4-1.1,2.5-2.2,3.3c-1,0.8-2.4,1.2-4,1.2c-2.1,0-3.7-0.6-4.9-1.9s-1.8-3-1.8-5.3
		c0-2.4,0.6-4.2,1.8-5.5s2.8-2,4.7-2s3.4,0.6,4.6,1.9c1.2,1.3,1.8,3.1,1.8,5.4c0,0.1,0,0.4,0,0.6h-10.5c0.1,1.5,0.5,2.7,1.3,3.5
		s1.8,1.2,2.9,1.2c0.9,0,1.6-0.2,2.2-0.7C922.3,281.2,922.8,280.5,923.2,279.5z M915.4,275.6h7.8c-0.1-1.2-0.4-2.1-0.9-2.7
		c-0.8-0.9-1.7-1.4-2.9-1.4c-1.1,0-2,0.4-2.8,1.1C915.8,273.4,915.4,274.4,915.4,275.6z"/>
	<path d="M927.7,279.8l2.4-0.4c0.1,0.9,0.5,1.7,1.1,2.2s1.4,0.8,2.5,0.8s1.9-0.2,2.4-0.7c0.5-0.4,0.8-1,0.8-1.6c0-0.5-0.2-1-0.7-1.3
		c-0.3-0.2-1.1-0.5-2.4-0.8c-1.7-0.4-3-0.8-3.6-1.1c-0.7-0.3-1.2-0.8-1.5-1.3s-0.5-1.2-0.5-1.9c0-0.6,0.1-1.2,0.4-1.7
		c0.3-0.5,0.7-1,1.2-1.3c0.4-0.3,0.9-0.5,1.5-0.7s1.3-0.3,2.1-0.3c1.1,0,2.1,0.2,2.9,0.5c0.8,0.3,1.4,0.7,1.8,1.3
		c0.4,0.5,0.7,1.3,0.8,2.2l-2.3,0.3c-0.1-0.7-0.4-1.3-0.9-1.7c-0.5-0.4-1.2-0.6-2.1-0.6c-1.1,0-1.9,0.2-2.3,0.5s-0.7,0.8-0.7,1.3
		c0,0.3,0.1,0.6,0.3,0.8c0.2,0.3,0.5,0.5,0.9,0.6c0.2,0.1,0.9,0.3,2.1,0.6c1.7,0.4,2.9,0.8,3.5,1.1c0.7,0.3,1.2,0.7,1.6,1.2
		s0.6,1.2,0.6,2s-0.2,1.5-0.7,2.2s-1.1,1.2-2,1.6s-1.9,0.6-3,0.6c-1.8,0-3.2-0.4-4.2-1.1C928.5,282.4,927.9,281.3,927.7,279.8z"/>
</g>
<g class="st17">
	<path d="M421.4,464.7l2.6,0.6c-0.5,2.1-1.5,3.7-2.9,4.8c-1.4,1.1-3.1,1.7-5.1,1.7c-2.1,0-3.8-0.4-5.1-1.3s-2.3-2.1-3-3.7
		s-1-3.3-1-5.2c0-2,0.4-3.8,1.2-5.3c0.8-1.5,1.9-2.6,3.3-3.4s3-1.2,4.7-1.2c1.9,0,3.6,0.5,4.9,1.5s2.2,2.4,2.8,4.2l-2.5,0.6
		c-0.4-1.4-1.1-2.4-2-3.1c-0.9-0.6-1.9-1-3.2-1c-1.5,0-2.7,0.4-3.7,1.1s-1.7,1.7-2.1,2.9c-0.4,1.2-0.6,2.4-0.6,3.7
		c0,1.6,0.2,3.1,0.7,4.3s1.2,2.1,2.2,2.8c1,0.6,2.1,0.9,3.3,0.9c1.4,0,2.7-0.4,3.6-1.2C420.4,467.6,421.1,466.4,421.4,464.7z"/>
	<path d="M436,471.5v-2.1c-1.1,1.6-2.6,2.4-4.5,2.4c-0.8,0-1.6-0.2-2.3-0.5c-0.7-0.3-1.3-0.7-1.6-1.2c-0.3-0.5-0.6-1.1-0.7-1.8
		c-0.1-0.5-0.1-1.2-0.1-2.2v-8.7h2.4v7.8c0,1.2,0,2.1,0.1,2.5c0.1,0.6,0.5,1.1,1,1.5s1.1,0.5,1.8,0.5s1.4-0.2,2-0.5
		c0.6-0.4,1.1-0.9,1.3-1.5c0.3-0.6,0.4-1.5,0.4-2.7v-7.5h2.4v14L436,471.5L436,471.5z"/>
	<path d="M440.9,467.3l2.4-0.4c0.1,0.9,0.5,1.7,1.1,2.2s1.4,0.8,2.5,0.8s1.9-0.2,2.4-0.7c0.5-0.4,0.8-1,0.8-1.6c0-0.5-0.2-1-0.7-1.3
		c-0.3-0.2-1.1-0.5-2.4-0.8c-1.7-0.4-3-0.8-3.6-1.1c-0.7-0.3-1.2-0.8-1.5-1.3c-0.3-0.6-0.5-1.2-0.5-1.9c0-0.6,0.1-1.2,0.4-1.7
		s0.7-1,1.2-1.3c0.4-0.3,0.9-0.5,1.5-0.7s1.3-0.3,2.1-0.3c1.1,0,2.1,0.2,2.9,0.5s1.4,0.7,1.8,1.3c0.4,0.5,0.7,1.3,0.8,2.2l-2.3,0.3
		c-0.1-0.7-0.4-1.3-0.9-1.7c-0.5-0.4-1.2-0.6-2.1-0.6c-1.1,0-1.9,0.2-2.3,0.5s-0.7,0.8-0.7,1.3c0,0.3,0.1,0.6,0.3,0.8
		c0.2,0.3,0.5,0.5,0.9,0.6c0.2,0.1,0.9,0.3,2.1,0.6c1.7,0.4,2.9,0.8,3.5,1.1c0.7,0.3,1.2,0.7,1.6,1.2s0.6,1.2,0.6,2
		s-0.2,1.5-0.7,2.2s-1.1,1.2-2,1.6s-1.9,0.6-3,0.6c-1.8,0-3.2-0.4-4.2-1.1C441.8,470,441.2,468.8,440.9,467.3z"/>
	<path d="M460.6,469.4l0.3,2.1c-0.7,0.1-1.3,0.2-1.8,0.2c-0.9,0-1.5-0.1-2-0.4s-0.8-0.6-1-1.1c-0.2-0.4-0.3-1.4-0.3-2.8v-8.1h-1.7
		v-1.8h1.7V454l2.4-1.4v4.9h2.4v1.8h-2.4v8.2c0,0.7,0,1.1,0.1,1.3c0.1,0.2,0.2,0.3,0.4,0.5s0.5,0.2,0.8,0.2S460.2,469.5,460.6,469.4
		z"/>
	<path d="M462,464.5c0-2.6,0.7-4.5,2.2-5.8c1.2-1,2.7-1.6,4.4-1.6c1.9,0,3.5,0.6,4.7,1.9s1.8,3,1.8,5.2c0,1.8-0.3,3.2-0.8,4.3
		s-1.3,1.8-2.4,2.4s-2.2,0.9-3.4,0.9c-2,0-3.6-0.6-4.8-1.9C462.6,468.7,462,466.9,462,464.5z M464.5,464.5c0,1.8,0.4,3.1,1.2,4
		s1.8,1.3,3,1.3s2.2-0.4,2.9-1.3c0.8-0.9,1.2-2.3,1.2-4.1c0-1.7-0.4-3-1.2-3.9s-1.8-1.3-2.9-1.3c-1.2,0-2.2,0.4-3,1.3
		S464.5,462.7,464.5,464.5z"/>
	<path d="M478,471.5v-14h2.1v2c0.4-0.7,1-1.2,1.8-1.7c0.7-0.4,1.6-0.6,2.5-0.6c1,0,1.9,0.2,2.6,0.6s1.1,1,1.4,1.8
		c1.1-1.6,2.6-2.5,4.3-2.5c1.4,0,2.5,0.4,3.2,1.2c0.7,0.8,1.1,2,1.1,3.6v9.6h-2.4v-8.8c0-1-0.1-1.6-0.2-2.1c-0.2-0.4-0.4-0.8-0.8-1
		c-0.4-0.3-0.9-0.4-1.4-0.4c-1,0-1.8,0.3-2.5,1s-1,1.7-1,3.2v8.2h-2.4v-9.1c0-1.1-0.2-1.8-0.6-2.4s-1-0.8-1.9-0.8
		c-0.7,0-1.3,0.2-1.9,0.5c-0.6,0.4-1,0.9-1.2,1.5c-0.3,0.7-0.4,1.7-0.4,2.9v7.3L478,471.5L478,471.5z"/>
	<path d="M510.1,467l2.5,0.3c-0.4,1.4-1.1,2.5-2.2,3.3c-1,0.8-2.4,1.2-4,1.2c-2.1,0-3.7-0.6-4.9-1.9c-1.2-1.3-1.8-3-1.8-5.3
		c0-2.4,0.6-4.2,1.8-5.5c1.2-1.3,2.8-2,4.7-2c1.9,0,3.4,0.6,4.6,1.9s1.8,3.1,1.8,5.4c0,0.1,0,0.4,0,0.6h-10.5
		c0.1,1.5,0.5,2.7,1.3,3.5s1.8,1.2,2.9,1.2c0.9,0,1.6-0.2,2.2-0.7C509.2,468.7,509.7,468,510.1,467z M502.3,463.2h7.8
		c-0.1-1.2-0.4-2.1-0.9-2.7c-0.8-0.9-1.7-1.4-2.9-1.4c-1.1,0-2,0.4-2.8,1.1C502.8,461,502.4,461.9,502.3,463.2z"/>
	<path d="M515.5,471.5v-14h2.1v2.1c0.5-1,1-1.7,1.5-2s1-0.5,1.5-0.5c0.8,0,1.6,0.3,2.4,0.8l-0.8,2.2c-0.6-0.3-1.2-0.5-1.7-0.5
		s-1,0.2-1.4,0.5s-0.7,0.7-0.9,1.3c-0.3,0.8-0.4,1.8-0.4,2.8v7.3L515.5,471.5L515.5,471.5z"/>
	<path d="M523.6,467.3l2.4-0.4c0.1,0.9,0.5,1.7,1.1,2.2s1.4,0.8,2.5,0.8s1.9-0.2,2.4-0.7c0.5-0.4,0.8-1,0.8-1.6c0-0.5-0.2-1-0.7-1.3
		c-0.3-0.2-1.1-0.5-2.4-0.8c-1.7-0.4-3-0.8-3.6-1.1s-1.2-0.8-1.5-1.3s-0.5-1.2-0.5-1.9c0-0.6,0.1-1.2,0.4-1.7c0.3-0.5,0.7-1,1.2-1.3
		c0.4-0.3,0.9-0.5,1.5-0.7s1.3-0.3,2.1-0.3c1.1,0,2.1,0.2,2.9,0.5c0.8,0.3,1.4,0.7,1.8,1.3c0.4,0.5,0.7,1.3,0.8,2.2l-2.3,0.3
		c-0.1-0.7-0.4-1.3-0.9-1.7c-0.5-0.4-1.2-0.6-2.1-0.6c-1.1,0-1.9,0.2-2.3,0.5s-0.7,0.8-0.7,1.3c0,0.3,0.1,0.6,0.3,0.8
		c0.2,0.3,0.5,0.5,0.9,0.6c0.2,0.1,0.9,0.3,2.1,0.6c1.7,0.4,2.9,0.8,3.5,1.1c0.7,0.3,1.2,0.7,1.6,1.2c0.4,0.5,0.6,1.2,0.6,2
		s-0.2,1.5-0.7,2.2s-1.1,1.2-2,1.6s-1.9,0.6-3,0.6c-1.8,0-3.2-0.4-4.2-1.1C524.5,470,523.9,468.8,523.6,467.3z"/>
</g>
<g>
	<path class="st18" d="M186.4,169.3h-69.2c-2,0-3.7-1.7-3.7-3.6v-65.4c0-2,1.7-3.6,3.7-3.6h69.2c2,0,3.7,1.7,3.7,3.6v65.4
		C190,167.6,188.3,169.3,186.4,169.3"/>
	<path class="st19" d="M186.4,169.3h-69.2c-2,0-3.7-1.7-3.7-3.6v-65.4c0-2,1.7-3.6,3.7-3.6h69.2c2,0,3.7,1.7,3.7,3.6v65.4
		C190,167.6,188.3,169.3,186.4,169.3z"/>
	<line class="st19" x1="113.6" y1="107.3" x2="190" y2="107.3"/>
	<path class="st20" d="M120.3,102.5c0,0.7-0.5,1.2-1.2,1.2s-1.2-0.5-1.2-1.2s0.5-1.2,1.2-1.2C119.8,101.5,120.3,102,120.3,102.5"/>
	<path class="st20" d="M124,102.5c0,0.7-0.5,1.2-1.2,1.2s-1.2-0.5-1.2-1.2s0.5-1.2,1.2-1.2S124,102,124,102.5"/>
	<path class="st20" d="M127.6,102.5c0,0.7-0.5,1.2-1.2,1.2s-1.2-0.5-1.2-1.2s0.5-1.2,1.2-1.2S127.6,102,127.6,102.5"/>
	<path class="st18" d="M140.3,224.9H45.4c-2.7,0-5.1-2.2-5.1-4.9v-89.8c0-2.7,2.2-4.9,5.1-4.9h94.9c2.7,0,5.1,2.2,5.1,4.9V220
		C145.2,222.7,143,224.9,140.3,224.9"/>
	<path class="st19" d="M140.3,224.9H45.4c-2.7,0-5.1-2.2-5.1-4.9v-89.8c0-2.7,2.2-4.9,5.1-4.9h94.9c2.7,0,5.1,2.2,5.1,4.9V220
		C145.2,222.7,143,224.9,140.3,224.9z"/>
	<line class="st19" x1="40.3" y1="139.9" x2="145.2" y2="139.9"/>
	<line class="st21" x1="51.5" y1="150.7" x2="110.3" y2="150.7"/>
	<line class="st21" x1="51.5" y1="157.5" x2="135.9" y2="157.5"/>
	<path class="st20" d="M73.3,205H53.9c-1.4,0-2.5-1.2-2.5-2.5v-9c0-1.4,1.2-2.5,2.5-2.5h19.4c1.4,0,2.5,1.2,2.5,2.5v9
		C75.9,203.8,74.7,205,73.3,205"/>
	<path class="st21" d="M72.8,205H53.4c-1.4,0-2.5-1.2-2.5-2.5v-9c0-1.4,1.2-2.5,2.5-2.5h19.4c1.4,0,2.5,1.2,2.5,2.5v9
		C75.3,203.8,74.2,205,72.8,205z"/>
	<line class="st21" x1="51" y1="211.1" x2="75.3" y2="211.1"/>
	<line class="st21" x1="51" y1="217.8" x2="64.7" y2="217.8"/>
	<path class="st20" d="M49.5,133.3c0,0.8-0.7,1.5-1.5,1.5s-1.5-0.7-1.5-1.5s0.7-1.5,1.5-1.5S49.5,132.4,49.5,133.3"/>
	<path class="st20" d="M54.5,133.3c0,0.8-0.7,1.5-1.5,1.5s-1.5-0.7-1.5-1.5s0.7-1.5,1.5-1.5C53.9,131.8,54.5,132.4,54.5,133.3"/>
	<path class="st20" d="M59.6,133.3c0,0.8-0.7,1.5-1.5,1.5s-1.5-0.7-1.5-1.5s0.7-1.5,1.5-1.5C58.9,131.8,59.6,132.4,59.6,133.3"/>
	<path class="st20" d="M73.3,180.5H53.9c-1.4,0-2.5-1.2-2.5-2.5v-9c0-1.4,1.2-2.5,2.5-2.5h19.4c1.4,0,2.5,1.2,2.5,2.5v9
		C75.9,179.3,74.7,180.5,73.3,180.5"/>
	<path class="st21" d="M72.8,180.5H53.4c-1.4,0-2.5-1.2-2.5-2.5v-9c0-1.4,1.2-2.5,2.5-2.5h19.4c1.4,0,2.5,1.2,2.5,2.5v9
		C75.3,179.3,74.2,180.5,72.8,180.5z"/>
	<path class="st18" d="M178.5,238.8H83.6c-2.7,0-5.1-2.2-5.1-4.9v-89.8c0-2.7,2.2-4.9,5.1-4.9h94.9c2.7,0,5.1,2.2,5.1,4.9v89.8
		C183.6,236.6,181.2,238.8,178.5,238.8"/>
	<path class="st19" d="M178.5,238.8H83.6c-2.7,0-5.1-2.2-5.1-4.9v-89.8c0-2.7,2.2-4.9,5.1-4.9h94.9c2.7,0,5.1,2.2,5.1,4.9v89.8
		C183.6,236.6,181.2,238.8,178.5,238.8z"/>
	<line class="st19" x1="78.6" y1="153.7" x2="183.6" y2="153.7"/>
	<line class="st21" x1="131.8" y1="164.6" x2="148.6" y2="164.6"/>
	<line class="st21" x1="131.8" y1="171.3" x2="174.1" y2="171.3"/>
	<line class="st21" x1="131.8" y1="181.3" x2="136.6" y2="181.3"/>
	<line class="st21" x1="141.6" y1="181.5" x2="174.1" y2="181.5"/>
	<line class="st21" x1="131.8" y1="187.9" x2="136.6" y2="187.9"/>
	<line class="st21" x1="141.6" y1="188.1" x2="174.1" y2="188.1"/>
	<line class="st21" x1="131.8" y1="194.7" x2="136.6" y2="194.7"/>
	<line class="st21" x1="141.6" y1="194.7" x2="174.1" y2="194.7"/>
	<path class="st20" d="M111.5,218.8H92.3c-1.4,0-2.5-1.2-2.5-2.5v-9c0-1.4,1.2-2.5,2.5-2.5h19.3c1.4,0,2.5,1.2,2.5,2.5v9
		C114.1,217.7,113.1,218.8,111.5,218.8"/>
	<path class="st21" d="M111,218.8H91.7c-1.4,0-2.5-1.2-2.5-2.5v-9c0-1.4,1.2-2.5,2.5-2.5H111c1.4,0,2.5,1.2,2.5,2.5v9
		C113.6,217.7,112.5,218.8,111,218.8z"/>
	<line class="st21" x1="89.2" y1="224.9" x2="113.6" y2="224.9"/>
	<line class="st21" x1="89.2" y1="231.7" x2="102.9" y2="231.7"/>
	<path class="st20" d="M141.3,218.8H122c-1.4,0-2.5-1.2-2.5-2.5v-9c0-1.4,1.2-2.5,2.5-2.5h19.4c1.4,0,2.5,1.2,2.5,2.5v9
		C143.8,217.7,142.6,218.8,141.3,218.8"/>
	<path class="st21" d="M141.3,218.8H122c-1.4,0-2.5-1.2-2.5-2.5v-9c0-1.4,1.2-2.5,2.5-2.5h19.4c1.4,0,2.5,1.2,2.5,2.5v9
		C143.8,217.7,142.6,218.8,141.3,218.8z"/>
	<line class="st21" x1="119.5" y1="224.9" x2="143.8" y2="224.9"/>
	<line class="st21" x1="119.5" y1="231.7" x2="133.2" y2="231.7"/>
	<path class="st20" d="M171.6,218.8h-19.3c-1.4,0-2.5-1.2-2.5-2.5v-9c0-1.4,1.2-2.5,2.5-2.5h19.4c1.4,0,2.5,1.2,2.5,2.5v9
		C174.1,217.7,172.9,218.8,171.6,218.8"/>
	<path class="st21" d="M171.6,218.8h-19.3c-1.4,0-2.5-1.2-2.5-2.5v-9c0-1.4,1.2-2.5,2.5-2.5h19.4c1.4,0,2.5,1.2,2.5,2.5v9
		C174.1,217.7,172.9,218.8,171.6,218.8z"/>
	<line class="st21" x1="149.7" y1="224.9" x2="174.1" y2="224.9"/>
	<line class="st21" x1="149.7" y1="231.7" x2="163.4" y2="231.7"/>
	<path class="st20" d="M87.9,147.3c0,0.8-0.7,1.5-1.5,1.5s-1.5-0.7-1.5-1.5s0.7-1.5,1.5-1.5S87.9,146.5,87.9,147.3"/>
	<path class="st20" d="M92.9,147.3c0,0.8-0.7,1.5-1.5,1.5s-1.5-0.7-1.5-1.5s0.7-1.5,1.5-1.5C92.3,145.6,92.9,146.5,92.9,147.3"/>
	<path class="st20" d="M97.8,147.3c0,0.8-0.7,1.5-1.5,1.5s-1.5-0.7-1.5-1.5s0.7-1.5,1.5-1.5C97.2,145.6,97.8,146.5,97.8,147.3"/>
	<g>
		<rect x="89.4" y="165.4" class="st22" width="33.8" height="23.5"/>
		<rect x="93.8" y="169.1" class="st22" width="25" height="15.7"/>
		<polyline class="st22" points="93.9,179.3 103.8,173.5 115.6,184.5 		"/>
		<polyline class="st22" points="110.3,179.6 114.1,176.4 118.6,180 		"/>
		<circle class="st22" cx="110.5" cy="173.2" r="0.8"/>
	</g>
</g>
<g>
	<g>
		<path class="st18" d="M881,216.5V149c2.9,0,5.4-2.4,5.4-5.2v-5.2L875.8,113h-85.6l-10.7,25.5v5.2c0,2.9,2.4,5.2,5.4,5.2v67.5H881
			V216.5z"/>
		<line class="st21" x1="777.7" y1="216.5" x2="888.1" y2="216.5"/>
		<line class="st21" x1="784.8" y1="216.5" x2="784.8" y2="149"/>
		<line class="st21" x1="881" y1="216.5" x2="881" y2="149"/>
		<path class="st21" d="M875.8,141.9l-0.1,2c0,2.9-2.3,5.1-5.3,5.1c-2.9,0-5.4-2.4-5.4-5.2v-1.9v1.9c0,2.9-2.4,5.2-5.4,5.2
			c-2.9,0-5.4-2.4-5.4-5.2v-1.9v1.9c0,2.9-2.4,5.2-5.4,5.2c-2.9,0-5.4-2.4-5.4-5.2v-1.9v1.9c0,2.9-2.4,5.2-5.4,5.2
			c-2.9,0-5.4-2.4-5.4-5.2v-1.9v1.9c0,2.9-2.4,5.2-5.4,5.2c-2.9,0-5.4-2.4-5.4-5.2v-1.9v1.9c0,2.9-2.4,5.2-5.4,5.2
			c-2.9,0-5.4-2.4-5.4-5.2v-1.9v1.9c0,2.9-2.4,5.2-5.4,5.2s-5.4-2.4-5.4-5.2v-1.9v1.9c0,2.9-2.4,5.2-5.4,5.2c-2.9,0-5.4-2.4-5.4-5.2
			v-1.9v1.9c0,2.9-2.4,5.2-5.4,5.2c-2.9,0-5.4-2.4-5.4-5.2v-5.2L789,113h85.6l10.7,25.5v5.2c0,2.9-2.4,5.2-5.4,5.2
			c-2.9,0-4.7-2.2-4.1-5V141.9L875.8,141.9z"/>
		<line class="st21" x1="883.9" y1="134.8" x2="781.8" y2="134.8"/>
		<rect x="845.3" y="173.9" class="st21" width="25" height="42.6"/>
	</g>
	<g>
		<path class="st18" d="M847.2,238.8v-71c3,0,5.6-2.5,5.6-5.6v-5.6l-11.2-26.9h-90l-11.2,26.9v5.6c0,3,2.5,5.6,5.6,5.6v71H847.2
			L847.2,238.8z"/>
		<line class="st21" x1="738.5" y1="238.8" x2="854.8" y2="238.8"/>
		<line class="st21" x1="746.1" y1="238.8" x2="746.1" y2="168"/>
		<line class="st21" x1="847.2" y1="238.8" x2="847.2" y2="168"/>
		<path class="st21" d="M841.6,160.5v1.9c0,3-2.5,5.6-5.6,5.6s-5.6-2.5-5.6-5.6v-1.9v1.9c0,3-2.5,5.6-5.6,5.6c-3,0-5.6-2.5-5.6-5.6
			v-1.9v1.9c0,3-2.5,5.6-5.6,5.6c-3,0-5.6-2.5-5.6-5.6v-1.9v1.9c0,3-2.5,5.6-5.6,5.6s-5.6-2.5-5.6-5.6v-1.9v1.9c0,3-2.5,5.6-5.6,5.6
			c-3,0-5.6-2.5-5.6-5.6v-1.9v1.9c0,3-2.5,5.6-5.6,5.6c-3,0-5.6-2.5-5.6-5.6v-1.9v1.9c0,3-2.5,5.6-5.6,5.6s-5.6-2.5-5.6-5.6v-1.9
			v1.9c0,3-2.5,5.6-5.6,5.6c-3,0-5.6-2.5-5.6-5.6v-1.9v1.9c0,3-2.5,5.6-5.6,5.6c-3,0-5.6-2.5-5.6-5.6v-5.7l11.2-26.9h90l11.2,26.9
			v5.6c0,3-2.5,5.6-5.6,5.6s-5.6-2.5-5.6-5.6L841.6,160.5L841.6,160.5z"/>
		<line class="st21" x1="850.2" y1="152.9" x2="742.7" y2="152.9"/>
		<rect x="809.8" y="194" class="st21" width="26.2" height="44.8"/>
		<rect x="757.2" y="194" class="st21" width="45" height="26.2"/>
		<line class="st23" x1="768.6" y1="201.4" x2="764.9" y2="205.1"/>
		<line class="st23" x1="776" y1="203.3" x2="768.6" y2="210.9"/>
	</g>
	<g>
		<rect x="780.9" y="199.9" class="st24" width="16.9" height="11.7"/>
		<rect x="783.1" y="201.9" class="st24" width="12.5" height="7.9"/>
		<polyline class="st24" points="783.1,206.8 788,204.1 793.9,209.5 		"/>
		<polyline class="st24" points="791.4,207 793.3,205.5 795.6,207.2 		"/>
		<circle class="st24" cx="791.6" cy="204" r="0.3"/>
	</g>
</g>
<polygon class="st25" points="353.5,399.9 334,413.3 336.9,399.9 334,386.7 "/>
<path class="st15" d="M592.9,399.9h174.5c21.1,0,38.4-17.1,38.4-38.4v-44.3"/>
<polygon class="st25" points="578,399.9 597.5,413.3 594.8,399.9 597.5,386.7 "/>
<g>
	<line class="st26" x1="394.6" y1="238.8" x2="544.2" y2="238.8"/>
	<rect x="406.7" y="207.7" class="st26" width="19.4" height="31.1"/>
	<rect x="442.2" y="171.3" class="st26" width="19.4" height="67.5"/>
	<rect x="478.1" y="185.7" class="st26" width="19.4" height="53.1"/>
	<rect x="514.1" y="141.9" class="st26" width="19.4" height="96.9"/>
	<polyline class="st26" points="413.8,161.9 452.1,127.5 491.1,143.9 529.5,96.6 	"/>
	<circle class="st27" cx="452.6" cy="128" r="7.3"/>
	<circle class="st27" cx="413.8" cy="161.9" r="7.3"/>
	<circle class="st27" cx="491.1" cy="143.9" r="7.3"/>
	<circle class="st27" cx="529.5" cy="96.6" r="7.3"/>
</g>
<g transform="translate(139 1)">
	<path class="st28" d="M342,386.4h-24.7v-36.9c0-5.4,4.4-10,10-10c5.4,0,10,4.4,10,10v32.1C337.1,383.7,338.6,386.4,342,386.4z"/>
	<path class="st29" d="M342,386.4h-24.7v-36.9c0-5.4,4.4-10,10-10c5.4,0,10,4.4,10,10v32.1C337.1,383.7,338.6,386.4,342,386.4z"/>
	<path class="st28" d="M327.4,365.6v-12.5c0-10.7-8.8-19.3-19.3-19.3h-3.6c-10.7,0-19.3,8.8-19.3,19.3v12.5H327.4L327.4,365.6z"/>
	<path class="st29" d="M327.4,365.6v-12.5c0-10.7-8.8-19.3-19.3-19.3h-3.6c-10.7,0-19.3,8.8-19.3,19.3v12.5H327.4L327.4,365.6z"/>
	<path class="st18" d="M330.5,368.5c0,1.4-1.2,2.5-2.5,2.5s-2.5-1.2-2.5-2.5v-2.4c0-1.4,1.2-2.5,2.5-2.5l0,0c1.4,0,2.5,1.2,2.5,2.5
		l0,0V368.5z"/>
	<path class="st18" d="M287.2,368.5c0,1.4-1.2,2.5-2.5,2.5c-1.4,0-2.5-1.2-2.5-2.5l0,0v-2.4c0-1.4,1.2-2.5,2.5-2.5l0,0
		c1.4,0,2.5,1.2,2.5,2.5l0,0V368.5z"/>
	<path class="st29" d="M287.2,368.5c0,1.4-1.2,2.5-2.5,2.5c-1.4,0-2.5-1.2-2.5-2.5l0,0v-2.4c0-1.4,1.2-2.5,2.5-2.5l0,0
		c1.4,0,2.5,1.2,2.5,2.5l0,0V368.5z"/>
	<path class="st28" d="M329.8,417.7V414c0-12.7-10.3-23-23-23c-5.4,0-10.3,1.9-14.4,5.1c-1.9,1.5-3.4,3.2-4.7,5.1
		c-2.5,3.7-3.9,8.1-3.9,12.9v3.7L329.8,417.7L329.8,417.7z"/>
	<path class="st30" d="M287.2,402c-2.2,3.6-3.4,7.8-3.4,11.8v3.7h46v-3.7c0-12.7-10.3-23-23-23c-4.9,0-9.6,1.7-13.4,4.4
		 M290.9,397.4c-0.7,0.7-1.2,1.2-1.9,1.9"/>
	<path class="st18" d="M306.5,400.1c-2.7,0-5.1-2.2-5.1-5.1v-10.7c0-2.7,2.2-5.1,5.1-5.1c2.7,0,5.1,2.2,5.1,5.1V395
		C311.4,397.9,309.2,400.1,306.5,400.1"/>
	<path class="st29" d="M306.5,400.1c-2.7,0-5.1-2.2-5.1-5.1v-10.7c0-2.7,2.2-5.1,5.1-5.1c2.7,0,5.1,2.2,5.1,5.1V395
		C311.4,397.9,309.2,400.1,306.5,400.1z"/>
	<path class="st18" d="M325.7,357.7v12.7c0,10.7-8.8,19.3-19.3,19.3c-10.7,0-19.3-8.8-19.3-19.3v-12.7c9.6,0,17.1-8.1,19.1-10.7
		c0.3-0.3,0.7-0.3,1-0.2c0,0,0,0,0.2,0.2C309.5,349.6,317.1,357.7,325.7,357.7"/>
	<path class="st29" d="M325.7,357.7v12.7c0,10.7-8.8,19.3-19.3,19.3c-10.7,0-19.3-8.8-19.3-19.3v-12.7c9.6,0,17.1-8.1,19.1-10.7
		c0.3-0.3,0.7-0.3,1-0.2c0,0,0,0,0.2,0.2C309.5,349.6,317.1,357.7,325.7,357.7z"/>
	<path class="st31" d="M324.6,342.8l-5.4-6.1c-0.7-0.8-0.7-2.2,0.2-2.9s2.2-0.7,2.9,0.2l5.4,6.1c0.7,0.8,0.7,2.2-0.2,2.9
		S325.2,343.6,324.6,342.8"/>
	<path class="st32" d="M324.6,342.8l-5.4-6.1c-0.7-0.8-0.7-2.2,0.2-2.9s2.2-0.7,2.9,0.2l5.4,6.1c0.7,0.8,0.7,2.2-0.2,2.9
		S325.2,343.6,324.6,342.8z"/>
	<path class="st28" d="M396.2,392.8v-7.4c0-12.5-11.8-22.7-26.4-22.7s-26.4,10.1-26.4,22.7v7.4H396.2z"/>
	<path class="st30" d="M389.5,370.4c-0.7-0.5-1.2-1.2-1.9-1.7 M384.9,367c-4.2-2.5-9.5-4.1-15-4.1c-14.5,0-26.4,10.1-26.4,22.7v7.4
		h52.8v-7.4c0-4.4-1.5-8.6-4.2-12.2"/>
	<path class="st31" d="M351.4,348h-0.7c-1.4,0-2.4-1-2.4-2.4l0,0l-0.8-25.7c0-2.7,1.2-3.4,3.4-5.2l3-2.4c-7.8-4.9-5.7-9-5.7-9
		c3.6,5.4,23.3,1.4,34.7,3.2c2.7,0.3,4.7,2.5,5.2,5.2l0.3,2.2c2.2,0,4.1-0.2,4.1,2l-0.8,29.6c0,1.4-1,2.4-2.4,2.4L351.4,348
		L351.4,348z"/>
	<path class="st29" d="M351.4,348h-0.7c-1.4,0-2.4-1-2.4-2.4l0,0l-0.8-25.7c0-2.7,1.2-3.4,3.4-5.2l3-2.4c-7.8-4.9-5.7-9-5.7-9
		c3.6,5.4,23.3,1.4,34.7,3.2c2.7,0.3,4.7,2.5,5.2,5.2l0.3,2.2c2.2,0,4.1-0.2,4.1,2l-0.8,29.6c0,1.4-1,2.4-2.4,2.4L351.4,348
		L351.4,348z"/>
	<path class="st18" d="M369.5,373.2h-0.3c-2.7,0-4.9-2.2-4.9-4.9V357c0-2.7,2.2-4.9,4.9-4.9h0.3c2.7,0,4.9,2.2,4.9,4.9v11.3
		C374.4,371,372.2,373.2,369.5,373.2"/>
	<path class="st29" d="M369.5,373.2h-0.3c-2.7,0-4.9-2.2-4.9-4.9V357c0-2.7,2.2-4.9,4.9-4.9h0.3c2.7,0,4.9,2.2,4.9,4.9v11.3
		C374.4,371,372.2,373.2,369.5,373.2z"/>
	<path class="st18" d="M369.7,363.1c-10.8,0-19.6-8.8-19.6-19.6v-13.4c0-10.8,8.8-17.8,19.6-17.8s19.6,6.9,19.6,17.8v13.4
		C389.5,354.1,380.5,363.1,369.7,363.1"/>
	<path class="st29" d="M369.7,363.1c-10.8,0-19.6-8.8-19.6-19.6v-13.4c0-10.8,8.8-17.8,19.6-17.8s19.6,6.9,19.6,17.8v13.4
		C389.5,354.1,380.5,363.1,369.7,363.1z"/>
	<path class="st31" d="M390.5,316.9l-5.1-2.2c0.5-0.5-0.2-1.2,0-1.9c1.7-4.9-7.8-2.9-7.8-2.9s-10.8-4.6-23.3,4.9l-6.3,9.1
		c0,0,18.1,5.1,32.5-7.6c0.2,3.9,1.2,9.6,10,11.5L390.5,316.9L390.5,316.9z"/>
	<path class="st30" d="M348.2,324c0,0,18.1,5.1,32.5-7.6c0.2,3.9,1.2,9.6,10,11.5"/>
	<path class="st18" d="M314.7,389.3c0,1.4-1.2,2.5-2.5,2.5c-1.4,0-2.5-1.2-2.5-2.5v-2.4c0-1.4,1.2-2.5,2.5-2.5l0,0
		c1.4,0,2.5,1.2,2.5,2.5l0,0V389.3z"/>
	<path class="st29" d="M314.7,389.3c0,1.4-1.2,2.5-2.5,2.5c-1.4,0-2.5-1.2-2.5-2.5v-2.4c0-1.4,1.2-2.5,2.5-2.5l0,0
		c1.4,0,2.5,1.2,2.5,2.5l0,0V389.3z"/>
	<path class="st18" d="M357.9,389.3c0,1.4-1.2,2.5-2.5,2.5c-1.4,0-2.5-1.2-2.5-2.5l0,0v-2.4c0-1.4,1.2-2.5,2.5-2.5l0,0
		c1.4,0,2.5,1.2,2.5,2.5l0,0V389.3z"/>
	<path class="st29" d="M357.9,389.3c0,1.4-1.2,2.5-2.5,2.5c-1.4,0-2.5-1.2-2.5-2.5l0,0v-2.4c0-1.4,1.2-2.5,2.5-2.5l0,0
		c1.4,0,2.5,1.2,2.5,2.5l0,0V389.3z"/>
	<path class="st28" d="M359.9,438.7v-7.4c0-12.5-11.8-22.7-26.4-22.7c-14.5,0-26.4,10.1-26.4,22.7v7.4H359.9L359.9,438.7z"/>
	<path class="st30" d="M353.8,416.9c-4.9-5.1-12.2-8.3-20.3-8.3c-14.5,0-26.4,10.1-26.4,22.7v7.4h52.8v-7.4c0-2.4-0.3-4.6-1.2-6.6
		 M357.4,421.8c-0.5-1-1.2-1.9-1.7-2.7"/>
	<path class="st18" d="M333.7,419c-11,0-20.1-9-20.1-20.1v-23c0-11,9-20.1,20.1-20.1c11,0,20.1,9,20.1,20.1v23
		C353.8,410.1,344.7,419,333.7,419"/>
	<path class="st29" d="M333.7,419c-11,0-20.1-9-20.1-20.1v-23c0-11,9-20.1,20.1-20.1c11,0,20.1,9,20.1,20.1v23
		C353.8,410.1,344.7,419,333.7,419L333.7,419z"/>
	<path class="st31" d="M313.4,383.9c-2.7,0-4.9-2.2-4.9-4.9v-11.7c0-4.1,3.2-7.3,7.3-7.3c0-3.4,2.7-5.9,5.9-5.9h29.6
		c4.1,0,7.3,3.2,7.3,7.3v17.4c0,2.5-2.2,4.7-4.7,4.6v-11.7c0,0-3.4,5.4-13.9,5.4c-12.7,0-21-6.3-21-6.3s-0.8,1.7-2.5,3.2
		c-1.5,1.4-3.2,0.8-3.2,0.8L313.4,383.9L313.4,383.9z"/>
	<path class="st30" d="M313.4,383.9c-2.7,0-4.9-2.2-4.9-4.9v-11.7c0-4.1,3.2-7.3,7.3-7.3c0-3.4,2.7-5.9,5.9-5.9h29.6
		c4.1,0,7.3,3.2,7.3,7.3v17.4c0,2.5-2.2,4.7-4.7,4.6v-11.7c0,0-3.4,5.4-13.9,5.4c-12.7,0-21-6.3-21-6.3s-0.8,1.7-2.5,3.2
		c-1.5,1.4-3.2,0.8-3.2,0.8L313.4,383.9L313.4,383.9z"/>
	<path class="st33" d="M317.1,429.5h10.7v-2.9h-10.7V429.5z"/>
</g>
</svg>
