<?xml version="1.0" encoding="utf-8"?>
<!-- Generator: Adobe Illustrator 19.0.0, SVG Export Plug-In . SVG Version: 6.00 Build 0)  -->
<svg version="1.1" id="Layer_1" xmlns="http://www.w3.org/2000/svg" xmlns:xlink="http://www.w3.org/1999/xlink" x="0px" y="0px"
	 viewBox="0 0 401 387" style="enable-background:new 0 0 401 387;" xml:space="preserve">
<style type="text/css">
	.st0{fill:#33BEB9;}
</style>
<g id="XMLID_11_">
	<path id="XMLID_9_" class="st0" d="M48.2,170.1L13.8,298.3c-2.8,10.7,3.5,21.6,14.1,24.5l65.8,17.6L48.2,170.1z"/>
	<path id="XMLID_8_" class="st0" d="M84.8,208.6L122.7,350c2.9,10.7,13.8,17,24.5,14.1l73.5-19.7L84.8,208.6z"/>
	<path id="XMLID_7_" class="st0" d="M199.6,175.8c-1.2-2-2.6-3.9-4.4-5.6l-5.8-5.6c-1.7-1.7-3.7-3.1-5.8-4.1
		c-2.1-1.1-4.2-1.7-6.4-1.9c-2.2-0.2-4.4,0.1-6.6,0.9c-2.2,0.8-4.3,2.2-6.2,4.2c-2,2-3.3,4.2-4,6.4c-0.7,2.2-0.9,4.4-0.6,6.6
		c0.3,2.2,1,4.3,2.2,6.4c1.1,2.1,2.6,3.9,4.3,5.6l5.8,5.6c1.7,1.7,3.6,3,5.7,4.1c2.1,1,4.2,1.7,6.4,1.9c2.2,0.2,4.4-0.1,6.6-0.9
		c2.2-0.8,4.3-2.2,6.3-4.3c1.9-2,3.2-4.1,3.9-6.3c0.7-2.2,0.9-4.4,0.6-6.5C201.5,179.9,200.8,177.8,199.6,175.8z"/>
	<path id="XMLID_13_" class="st0" d="M383.1,185.2L221.4,23.4l-114.7,0C91.9,23.4,80,35.3,80,50l0,114.7l161.8,161.8
		c7.8,7.8,20.5,7.8,28.3,0l113.1-113.1C391,205.6,391,193,383.1,185.2z M139.6,83c-7.8,7.8-20.5,7.8-28.3,0
		c-7.8-7.8-7.8-20.5,0-28.3c7.8-7.8,20.5-7.8,28.3,0C147.4,62.5,147.4,75.2,139.6,83z M213.3,192.6c-1.4,3.9-3.8,7.6-7.1,11
		c-3.4,3.5-7,6-10.8,7.7c-3.9,1.6-7.7,2.4-11.6,2.4s-7.7-0.8-11.4-2.4c-3.7-1.6-7.1-3.9-10.1-6.8l-5.8-5.6c-3.1-3-5.5-6.3-7.2-9.9
		c-1.7-3.6-2.7-7.4-2.9-11.3c-0.2-3.9,0.4-7.8,1.9-11.7c1.5-3.9,3.9-7.6,7.2-11c3.4-3.5,7-6,10.8-7.7c3.9-1.6,7.7-2.4,11.6-2.3
		c3.9,0.1,7.7,0.9,11.4,2.5c3.7,1.6,7.1,3.9,10.2,6.9l5.8,5.6c3,2.9,5.4,6.2,7.2,9.8c1.8,3.6,2.7,7.4,2.9,11.2
		C215.4,184.8,214.8,188.7,213.3,192.6z M248.3,253.2l-33.8-135.2L227,115l33.8,135.2L248.3,253.2z M325.8,198.7
		c-1.4,3.9-3.8,7.6-7.1,11c-3.4,3.5-7,6-10.8,7.7c-3.9,1.6-7.7,2.4-11.6,2.4c-3.9,0-7.7-0.8-11.4-2.4c-3.7-1.6-7.1-3.9-10.2-6.9
		l-5.8-5.6c-3-2.9-5.4-6.2-7.2-9.9c-1.8-3.7-2.7-7.4-2.9-11.3c-0.2-3.9,0.5-7.8,2-11.7c1.5-3.9,3.9-7.6,7.2-11c3.4-3.5,7-6,10.8-7.7
		c3.9-1.6,7.7-2.4,11.6-2.4c3.9,0,7.7,0.9,11.4,2.5c3.7,1.6,7.1,3.9,10.2,6.8l5.8,5.6c3.1,3,5.5,6.3,7.2,9.9
		c1.7,3.6,2.7,7.4,2.8,11.3C327.9,191,327.3,194.8,325.8,198.7z"/>
	<path id="XMLID_1_" class="st0" d="M312,181.9c-1.2-2-2.6-3.9-4.4-5.6l-5.8-5.6c-1.7-1.7-3.7-3.1-5.8-4.1c-2.1-1.1-4.2-1.7-6.4-1.9
		c-2.2-0.2-4.3,0.1-6.6,0.9c-2.2,0.8-4.3,2.2-6.2,4.2c-1.9,2-3.2,4.1-3.9,6.3c-0.7,2.2-0.9,4.4-0.6,6.6c0.3,2.2,1,4.3,2.1,6.4
		c1.1,2.1,2.6,3.9,4.3,5.6l5.8,5.6c1.7,1.7,3.7,3.1,5.8,4.1c2.1,1.1,4.3,1.7,6.5,1.9c2.2,0.2,4.4-0.1,6.6-0.9
		c2.2-0.8,4.3-2.2,6.3-4.3c1.9-2,3.2-4.1,3.9-6.3c0.7-2.2,0.9-4.4,0.6-6.6C313.9,186,313.1,183.9,312,181.9z"/>
</g>
</svg>
