<?xml version="1.0" encoding="utf-8"?>
<!-- Generator: Adobe Illustrator 21.1.0, SVG Export Plug-In . SVG Version: 6.00 Build 0)  -->
<svg version="1.1" id="Layer_1" xmlns="http://www.w3.org/2000/svg" xmlns:xlink="http://www.w3.org/1999/xlink" x="0px" y="0px"
	 width="40px" height="40px" viewBox="0 0 40 40" style="enable-background:new 0 0 40 40;" xml:space="preserve">
<style type="text/css">
	.st0{fill:#32BDB9;}
</style>
<path class="st0" d="M20,39.8c-4.9,0-9.6-1.8-13.3-5.1c-0.1-0.1-0.3-0.3-0.3-0.5c0-0.4,0.1-0.5,0.2-0.6l0.5-0.5
	c0.2-0.2,0.4-0.2,0.5-0.2s0.3,0,0.5,0.2c3.3,2.9,7.5,4.5,11.7,4.5c9.6,0,17.5-7.9,17.5-17.5c0-9.7-7.8-17.6-17.4-17.6
	c-6.5,0-12.5,3.6-15.5,9.4l-0.1,0.3h8.2c0.5,0,0.8,0.3,0.8,0.8v0.8c0,0.5-0.3,0.8-0.8,0.8H1c-0.5,0-0.8-0.3-0.8-0.8V2.3
	c0-0.5,0.3-0.8,0.8-0.8h0.8c0.4,0,0.7,0.4,0.7,0.8v8.4l0.3-0.6C6.5,4,13.1,0.2,20,0.2c10.9,0,19.8,8.9,19.8,19.8S30.9,39.8,20,39.8z
	 M26.1,26.9c-0.1,0-0.3,0-0.5-0.2l-6.7-4.9V8.7c0-0.5,0.3-0.8,0.8-0.8h0.6c0.5,0,0.8,0.3,0.8,0.8v12l5.9,4.3
	c0.2,0.2,0.5,0.5,0.2,1.1l-0.5,0.6h-0.1C26.4,26.8,26.3,26.9,26.1,26.9z"/>
</svg>
