<?xml version="1.0" encoding="utf-8"?>
<!-- Generator: Adobe Illustrator 21.1.0, SVG Export Plug-In . SVG Version: 6.00 Build 0)  -->
<svg version="1.1" id="Layer_1" xmlns="http://www.w3.org/2000/svg" xmlns:xlink="http://www.w3.org/1999/xlink" x="0px" y="0px"
	 width="46.6px" height="40px" viewBox="0 0 46.6 40" style="enable-background:new 0 0 46.6 40;" xml:space="preserve">
<style type="text/css">
	.st0{fill:#32BDB9;}
</style>
<path class="st0" d="M34.2,39.3c-0.5,0-1-0.1-1.5-0.4l-9.4-4.7L13.9,39c-0.5,0.2-1,0.4-1.5,0.4s-1-0.1-1.5-0.4l-8.4-4.2
	c-1.1-0.6-1.9-1.7-1.9-3v-8.9c0-1.4,0.9-2.6,2.2-3.1l8.7-3.3V6.9c0-1.4,0.9-2.6,2.2-3.1l8.4-3.2c0.4-0.1,0.8-0.2,1.2-0.2
	s0.8,0.1,1.2,0.2l8.4,3.2c1.3,0.5,2.2,1.8,2.2,3.1v9.6l8.7,3.3c1.3,0.5,2.2,1.8,2.2,3.1v8.9c0,1.3-0.7,2.4-1.9,3L35.7,39
	C35.2,39.2,34.7,39.3,34.2,39.3z M35.1,37.2l9-4.5v-9.1l-9,3.9V37.2z M33.2,37.2v-9.7l-9-3.9v9.1L33.2,37.2z M13.3,37.2l9-4.5v-9.1
	l-9,3.9V37.2z M11.5,37.2v-9.7l-9-3.9v9.1L11.5,37.2z M12.4,25.9l9.6-4.2l-9.7-3.6l-9.6,3.6L12.4,25.9z M34.2,25.9l9.6-4.2l-9.6-3.6
	l-9.7,3.6L34.2,25.9z M18,18.2l4.4,1.5v-8.2l-9-3.9v8.9L18,18.2z M24.2,19.7l4.4-1.5l4.6-1.7V7.6l-9,3.9V19.7z M23.3,9.9l9.6-4.2
	l-9.6-3.6l-9.6,3.6L23.3,9.9z"/>
</svg>
