<?xml version="1.0" encoding="utf-8"?>
<!-- Generator: Adobe Illustrator 21.1.0, SVG Export Plug-In . SVG Version: 6.00 Build 0)  -->
<svg version="1.1" id="Layer_1" xmlns="http://www.w3.org/2000/svg" xmlns:xlink="http://www.w3.org/1999/xlink" x="0px" y="0px"
	 width="990px" height="570px" viewBox="0 0 990 570" style="enable-background:new 0 0 990 570;" xml:space="preserve">
<style type="text/css">
	.st0{opacity:0.6;}
	.st1{opacity:0.5;fill:#EFF7FE;enable-background:new    ;}
	.st2{opacity:0.15;fill:#DFE6EA;enable-background:new    ;}
	.st3{opacity:0.45;fill:#E1F5FB;enable-background:new    ;}
	.st4{opacity:0.3;fill:#D1F0EF;enable-background:new    ;}
	.st5{opacity:0.5;fill:#D1F0EF;enable-background:new    ;}
	.st6{opacity:0.5;fill:#DCE8EF;enable-background:new    ;}
	.st7{opacity:0.2;fill:#FCC8CE;enable-background:new    ;}
	.st8{opacity:0.6;fill:#D5F1F1;enable-background:new    ;}
	.st9{opacity:0.6;fill:#BBE9F9;enable-background:new    ;}
	.st10{fill:#F1FAFA;}
	.st11{opacity:0.2;fill:#FCB9C6;enable-background:new    ;}
	.st12{fill:#FCFDFF;}
	.st13{opacity:0.1;fill:#1DD4FF;enable-background:new    ;}
	.st14{opacity:0.2;fill:#A2EAE0;enable-background:new    ;}
	
		.st15{fill:none;stroke:#347EC0;stroke-width:1.5;stroke-linecap:round;stroke-linejoin:round;stroke-miterlimit:10;stroke-dasharray:4;}
	.st16{fill:#347EC0;}
	.st17{fill:#FFFFFF;stroke:#347EC0;stroke-width:1.5;stroke-miterlimit:10;}
	.st18{fill:#E6F7F6;}
	.st19{fill:#F5F8FA;}
	.st20{fill:#DEF1F3;stroke:#24AAA3;stroke-width:1.5;stroke-miterlimit:10;}
	.st21{fill:#26394B;}
	.st22{display:none;}
	.st23{display:inline;fill:#34313F;}
	.st24{fill:#5F8D3E;}
	.st25{fill:#93BE46;}
	.st26{fill:#E6F7F6;stroke:#24AAA3;stroke-width:1.5;stroke-miterlimit:10;}
	.st27{display:inline;fill:#2D9F48;}
	.st28{display:inline;fill:#FFFFFF;}
	.st29{fill:#00B6E2;}
	.st30{fill:#FFFFFF;}
	.st31{display:none;fill:#24AAA3;}
	.st32{fill:#32BCB8;}
	.st33{fill:url(#XMLID_2_);}
	.st34{fill:#32BDB9;}
	.st35{fill:#24AAA3;}
</style>
<g>
	<g class="st0">
		<circle class="st1" cx="364.9" cy="299.7" r="203"/>
		<circle class="st2" cx="556.7" cy="186.9" r="144.2"/>
		<circle class="st3" cx="632.2" cy="309.8" r="198.2"/>
		<path class="st4" d="M352.9,364.9c3.1-2.6,10.1,0.2,19.1,3.6c6.4,2.5,9.6,4.8,16.1,5.3c3.4,0.2,8.6,0.6,10.2-2
			c3.2-5.1-9.2-18.5-8.9-18.8c0.3-0.3,13.9,20.4,20.4,18.1c1.6-0.6,2.7-2.9,4.9-7.6c3-6.3,2.2-7.8,4.3-9.9c3.5-3.4,7.1-0.4,13.2-3
			c6.1-2.6,5.4-6.9,12.2-11.9c4.4-3.2,8.6-4.1,15.1-5.6c13.4-3,15.4,0.6,22.1-2.6c7.5-3.7,5.6-8.5,15.1-15.5
			c5.2-3.8,9.8-5.4,17.5-7.9c7.7-2.6,13.2-3.4,23-4.9c19.9-3.1,24.7-1.5,27.3-0.3c4.6,2,4.5,3.5,8.9,5.9c10.1,5.5,18.7,2,30.3,1.6
			c16.3-0.5,29,5.7,42.8,12.5c7.3,3.6,3.6,2.7,26.3,16.1c15.1,9,18,10.1,23.7,15.1c6.4,5.6,13.4,11.8,17.5,22.1
			c2.5,6.4,2.2,9.8,6.6,19.8c3.5,8,5.9,10.5,7.9,12.2c4.1,3.3,6.4,2.7,8.9,5.9c3.7,4.8,3.6,12.9,0.3,14.8c-2.1,1.2-5.3-0.3-6.6-1
			c-4.2-2.1-3.9-4.7-7.9-7.6c-0.7-0.5-6-4.2-11.9-2.6c-0.7,0.2-5.8,1.5-6.3,4.3c-1,6.5,26.4,9.4,31.3,25.4c1.8,6,0.3,13.2-3,18.1
			c-5.8,8.7-15.7,7.5-18.8,15.5c-2.3,5.8,0.9,12,1.6,13.5c6.4,12.6,27.1,19.2,40.8,13.2c8.3-3.6,16.5-13,25-22.7
			c3.8-4.4,6.2-7.6,10.5-8.2c6.9-1,15.5,5.1,17.5,12.2c3.2,11.6-11.8,25.5-22.7,31.9c-12.1,7.2-26.9,7.4-56,7.6
			c-23.9,0.1-36,0.1-44.5-5.9c-9.5-6.8-18.4-20-22.4-26c-6.8-10.1-9.2-16.5-16.1-18.1c-7.2-1.6-15.1,3-16.8,4
			c-5,2.9-4.5,4.6-8.9,7.6c-10.9,7.4-22.4,2.7-24,7.2c-1.1,2.8,2.6,7,6.3,11.2c4.8,5.5,7.6,5.9,7.9,8.6c0.5,4.6-6.6,11.4-13.8,11.5
			c-9,0.2-10.9-10-21.7-12.5c-2.2-0.5-6.4-1.1-23,5.9c-22.3,9.4-21.5,13.4-32.6,15.8c-12.4,2.7-23.5,0-34.6-2.6
			c-15-3.6-15.2-6.9-26.3-8.2c-15.5-1.9-17.2,4.2-31.3,2.6c-9.6-1.1-18.1-5.8-34.9-15.1c-13.9-7.8-14.9-9.7-21.1-12.8
			c-19.5-9.9-32.9-2.2-64.5-1.6c-23.2,0.4-57.7,1-69.1-18.1c-5.8-9.6-5.9-24.6,1.3-32.9c8.1-9.4,20.2-4.4,60.3-7.9
			c32.7-2.9,41.3-7.7,46.8-14.2c7.3-8.7,8.5-19.9,8.9-23.4C359.3,382.2,347.9,369,352.9,364.9z"/>
		<path class="st5" d="M380.6,448.3c3.1,2.5,10.1-0.2,19.1-3.7c6.4-2.5,9.6-4.8,16.1-5.3c3.4-0.3,8.6-0.6,10.2,2
			c3.2,5.1-9.1,18.6-8.9,18.8c0.3,0.3,13.8-20.5,20.4-18.1c1.6,0.6,2.7,2.9,5,7.6c3,6.3,2.2,7.8,4.3,9.9c3.5,3.4,7.1,0.4,13.2,2.9
			c6.1,2.6,5.4,6.9,12.2,11.8c4.5,3.2,8.6,4.1,15.2,5.6c13.4,3,15.4-0.7,22.1,2.6c7.5,3.6,5.6,8.5,15.2,15.5
			c5.2,3.8,9.8,5.3,17.5,7.9c7.7,2.6,13.2,3.4,23.1,4.9c19.9,3,24.7,1.4,27.3,0.3c4.6-2,4.4-3.5,8.9-5.9c10.1-5.5,18.7-2,30.3-1.7
			c16.3,0.4,28.9-5.8,42.8-12.6c7.3-3.6,3.6-2.7,26.3-16.2c15.1-9,18-10.2,23.7-15.2c6.4-5.6,13.3-11.8,17.4-22.1
			c2.5-6.4,2.1-9.8,6.6-19.8c3.5-8,5.8-10.5,7.9-12.2c4.1-3.4,6.4-2.7,8.9-5.9c3.6-4.8,3.6-12.9,0.3-14.8c-2.1-1.2-5.2,0.3-6.6,1
			c-4.2,2.1-3.9,4.7-7.9,7.6c-0.7,0.5-6,4.2-11.8,2.7c-0.7-0.2-5.8-1.5-6.3-4.3c-1.1-6.5,26.4-9.4,31.2-25.4c1.8-6,0.3-13.2-3-18.1
			c-5.8-8.7-15.7-7.5-18.8-15.4c-2.3-5.8,0.9-12,1.6-13.5c6.4-12.6,27-19.2,40.8-13.2c8.3,3.6,16.5,12.9,25.1,22.7
			c3.8,4.4,6.2,7.6,10.6,8.2c6.9,1,15.5-5.2,17.4-12.2c3.2-11.6-11.9-25.4-22.8-31.9c-12.1-7.2-26.9-7.4-56-7.5
			c-23.9-0.1-36,0-44.4,6c-9.5,6.8-18.3,20.1-22.3,26.1c-6.8,10.2-9.2,16.6-16.1,18.1c-7.2,1.7-15.1-2.9-16.8-3.9
			c-5-2.9-4.5-4.6-8.9-7.6c-10.9-7.4-22.4-2.7-24-7.2c-1.1-2.8,2.6-7,6.2-11.2c4.8-5.5,7.6-5.9,7.9-8.6c0.5-4.6-6.6-11.3-13.8-11.5
			c-9-0.2-10.9,10-21.7,12.5c-2.2,0.5-6.4,1.1-23.1-5.9c-22.4-9.4-21.5-13.3-32.6-15.8c-12.4-2.7-23.5,0-34.6,2.7
			c-15,3.7-15.1,6.9-26.3,8.3c-15.5,1.9-17.2-4.2-31.3-2.6c-9.6,1.1-18,5.8-34.9,15.2c-13.9,7.8-14.9,9.7-21.1,12.9
			c-19.5,10-32.9,2.2-64.5,1.8c-23.2-0.3-57.7-0.9-69.1,18.2c-5.8,9.7-5.8,24.6,1.4,32.9c8.1,9.4,20.2,4.3,60.3,7.8
			c32.7,2.8,41.3,7.7,46.8,14.1c7.4,8.7,8.6,19.9,8.9,23.4C387,431,375.6,444.2,380.6,448.3z"/>
		<path class="st6" d="M226.4,114c-2.6-1.2-2.2-6.4-6.3-7.7c-3.2-1-6,1.3-7.2,0c-1.4-1.5,1.8-5,0.2-7.9c-1.1-2-3.8-2.6-4.9-2.8
			c-4.4-0.9-6.7,1.7-8.4,0.5c-2-1.5,1.1-5.8-1.2-10.2c-1.1-2.1-3.4-4.3-6.3-4.4c-3.2-0.2-5.9,2.1-7.2,4.4c-1.8,3.3,0.3,5-1.2,9.8
			c-1.2,3.8-2.9,4-4.2,7.7c-1.3,3.9-0.6,7.2-0.2,9.8c1.7,11.7-1.4,25.3-4.2,25.6c-1.7,0.2-3.8-4.5-4.9-6.7c-2-4.2-2-7-3.3-7.2
			c-1.3-0.2-2.8,2.7-3.5,4.4c-1.6,4.3-1.5,10.8,2.3,14.2c2.9,2.6,5.5,1.4,6.3,3.3c1.3,3.1-5.5,6.6-7.9,15.6c-0.8,3-1,6.3,0,6.7
			c1.5,0.7,4.7-5.4,7.4-4.7c1.7,0.4,1.2,2.8,3.5,4.7c3,2.4,6,0.1,9.1,1.9c2.8,1.6,2.3,4.7,4.4,10.9c1.2,3.5,3.4,7,7.7,14
			c5.8,9.3,6.5,8.4,8.1,12.8c2.4,6.2,1.3,8.8,4.4,11.9c3.2,3.2,6.1,2.1,7.9,5.1c2,3.3,0.7,7.9-0.9,10.7c-1.9,3.3-6,5.1-14,8.6
			c-8.9,3.9-11.9,4-13.3,4c-2.5,0-6.7,0-9.8-2.8c-2.3-2.1-1.8-3.7-4.4-10.2c-2.4-5.8-3.5-8.7-6.1-10.5c-3.6-2.5-9.3-2.4-13.3-0.2
			c-6.2,3.4-7.3,11.6-9.5,27.9c-1.1,8.3-0.5,9.8,0.5,10.7c2.1,1.9,5.9,0.7,24-2.8c3.6-0.7,5.8-1.1,8.1,0c5,2.3,6.5,9.1,7,11.2
			c0.8,3.8,0.1,4.8,0.5,11.6c0.3,5.3,0.4,8.1,1.2,10.7c2.3,7.8,8.6,7.6,17.9,17.9c4.2,4.6,8.2,9,9.8,16.1c1.7,7.6-0.2,14.8-1.2,17.9
			c-2.6,8-6.1,9.5-5.1,13c1.8,6.3,15.3,9.7,19.3,5.6c2-2,0.2-4.5,2.3-7.2c3-3.9,11.3-4.8,16.1-1.4c1.6,1.2,3.2,3.1,6.5,19.5
			c2.3,11.2,2.4,14.5,5.6,17c3.4,2.6,8,2.5,11.4,2.3c5.3-0.2,6.6-1.8,12.8-3c7.4-1.5,8.9,0,14.9-0.9c6-1,6.6-2.8,17.2-7.9
			c15.8-7.6,17.7-5,25.8-10.9c1.9-1.4,5.9-4.6,12.1-7.9c3.7-2,6-2.9,7-3.3c1.9-0.7,6-2.2,11.4-2.6c6.7-0.5,8.2,1.1,10.2-0.5
			c3-2.4,0.4-6.7,3.7-10.2c2.4-2.6,6.5-3.2,9.3-2.8c3,0.4,3.4,1.9,10,6c4.7,3,7,4.5,9.3,4.9c4.3,0.7,6.2-1,9.8,0.7
			c2.6,1.2,2.3,2.4,4.7,3.3c2.7,0.9,4.2-0.3,9.8-1.2c5.9-0.9,5.8,0.3,7.7-0.7c4.2-2.2,2.7-7.2,7.4-12.6c3.2-3.6,4.6-2.2,6.7-4.9
			c5.6-7-3.8-16.7,0.9-28.9c1.9-4.9,5.3-8.2,7.4-10.2c7.1-6.8,12.1-5.9,15.1-11.6c2.1-3.9,2.6-9.7,0.2-14c-3-5.5-9-5.3-10.2-10.5
			c-0.9-3.9,1.8-6.2,0.2-8.1c-2.3-2.8-9.9-0.1-10.9,0.2c-8.4,3-10.8,8.8-14.2,7.7c-3.2-1.1-3.7-7.2-3.7-7.4c-0.3-4.4,2-6.6,5.1-12.8
			c1.4-2.9,4.8-9.5,5.8-17.5c0.7-5,1.5-11-1.9-14c-3.4-3-7.7,0.4-11.6-2.6c-3.6-2.6-1.5-6.4-4.7-15.1c-2.9-8.1-7.8-13.7-9.8-15.8
			c-4.6-5.1-5.6-4.1-7.4-7.2c-1.8-3.1-2.4-6.8,0-23c1.9-12.9,3-15.3,1.2-17.5c-1.8-2.1-4.3-1.8-20-1.2c-13.4,0.5-17.9,0.6-21.6-2.6
			c-3.4-2.8-4.5-6.8-4.7-7.4c-2-7.7,4.2-11.7,2.1-17.9c-1.4-4.2-6.2-8-10-7.4c-4.8,0.7-4.7,7.7-12.6,13c-4.4,3-10,4.5-11.2,3
			c-1.9-2.5,9.2-11.5,6.7-15.8c-1.8-3.3-10.1-1.8-10.9-1.6c-10.5,2-12,9.2-20.5,13.3c-13.3,6.3-30-1.7-36.8-4.9
			c-14.6-7-14.8-13.9-22.6-13.7C243.9,89.4,232.8,116.8,226.4,114z"/>
		<path class="st7" d="M705.8,69.6c3.2-1.4,2.7-7.8,7.7-9.4c3.9-1.2,7.3,1.7,8.9,0c1.7-1.9-2.3-6.1-0.3-9.7c1.3-2.5,4.6-3.1,6-3.4
			c5.5-1.1,8.3,2.1,10.3,0.6c2.5-1.9-1.4-7.1,1.4-12.6c1.3-2.6,4.2-5.2,7.7-5.4c3.9-0.2,7.3,2.6,8.9,5.4c2.2,4-0.4,6.1,1.4,12
			c1.4,4.7,3.6,4.9,5.1,9.4c1.7,4.8,0.8,8.8,0.3,12c-2.1,14.4,1.8,31,5.1,31.4c2.1,0.2,4.7-5.5,6-8.3c2.4-5.2,2.4-8.6,4-8.9
			c1.6-0.2,3.5,3.4,4.3,5.4c2,5.3,1.8,13.2-2.9,17.4c-3.5,3.2-6.7,1.7-7.7,4c-1.6,3.8,6.7,8,9.7,19.1c1,3.7,1.3,7.7,0,8.3
			c-1.9,0.8-5.7-6.6-9.1-5.7c-2.1,0.5-1.5,3.5-4.3,5.7c-3.6,2.9-7.4,0.1-11.1,2.3c-3.5,2-2.8,5.8-5.4,13.4
			c-1.5,4.4-4.2,8.6-9.4,17.1c-7.1,11.4-7.9,10.4-10,15.7c-2.9,7.6-1.6,10.8-5.4,14.6c-3.9,3.9-7.5,2.6-9.7,6.3
			c-2.4,4-0.8,9.8,1.1,13.1c2.4,4.1,7.3,6.3,17.1,10.6c10.9,4.7,14.6,4.9,16.3,4.9c3.1,0,8.2,0,12-3.4c2.8-2.5,2.2-4.6,5.4-12.6
			c2.9-7.2,4.3-10.7,7.4-12.9c4.4-3,11.4-2.9,16.3-0.3c7.7,4.1,9,14.2,11.7,34.3c1.4,10.2,0.6,12.1-0.6,13.1
			c-2.6,2.3-7.2,0.9-29.4-3.4c-4.4-0.9-7.1-1.3-10,0c-6.1,2.8-8,11.2-8.6,13.7c-1,4.6-0.2,5.9-0.6,14.3c-0.3,6.5-0.5,10-1.4,13.1
			c-2.8,9.6-10.5,9.3-22,22c-5.1,5.7-10.1,11.1-12,19.7c-2.1,9.3,0.2,18.2,1.4,22c3.2,9.9,7.5,11.7,6.3,16
			c-2.2,7.7-18.8,11.9-23.7,6.9c-2.4-2.5-0.3-5.5-2.9-8.9c-3.7-4.8-13.9-5.9-19.7-1.7c-2,1.4-3.9,3.8-8,24
			c-2.8,13.8-2.9,17.8-6.9,20.9c-4.2,3.2-9.8,3-14,2.9c-6.4-0.2-8.1-2.2-15.7-3.7c-9.1-1.9-10.9,0-18.3-1.1c-7.4-1.2-8-3.4-21.1-9.7
			c-19.4-9.3-21.7-6.1-31.7-13.4c-2.4-1.7-7.3-5.6-14.9-9.7c-4.6-2.5-7.3-3.5-8.6-4c-2.3-0.8-7.3-2.6-14-3.1
			c-8.2-0.6-10.1,1.4-12.6-0.6c-3.7-2.9-0.5-8.2-4.6-12.6c-3-3.2-8-3.9-11.4-3.4c-3.7,0.5-4.2,2.3-12.3,7.4c-5.8,3.7-8.6,5.5-11.4,6
			c-5.3,0.9-7.6-1.2-12,0.9c-3.3,1.5-2.8,3-5.7,4c-3.4,1.2-5.2-0.4-12-1.4c-7.2-1.1-7.1,0.4-9.4-0.9c-5.1-2.7-3.4-8.9-9.1-15.4
			c-3.9-4.4-5.6-2.7-8.3-6c-6.9-8.6,4.6-20.5-1.1-35.4c-2.3-6-6.6-10.1-9.1-12.6c-8.7-8.4-14.9-7.3-18.6-14.3
			c-2.6-4.8-3.1-11.9-0.3-17.1c3.7-6.8,11-6.4,12.6-12.9c1.2-4.7-2.2-7.6-0.3-10c2.8-3.4,12.1-0.2,13.4,0.3
			c10.3,3.7,13.3,10.8,17.4,9.4c4-1.3,4.5-8.8,4.6-9.1c0.4-5.4-2.4-8.1-6.3-15.7c-1.8-3.5-5.8-11.7-7.1-21.4
			c-0.8-6.1-1.8-13.5,2.3-17.1c4.2-3.7,9.4,0.5,14.3-3.1c4.4-3.2,1.9-7.8,5.7-18.6c3.6-9.9,9.6-16.8,12-19.4c5.7-6.3,6.9-5,9.1-8.9
			c2.2-3.8,3-8.4,0-28.3c-2.4-15.9-3.7-18.7-1.4-21.4c2.2-2.5,5.3-2.2,24.6-1.4c16.5,0.7,21.9,0.7,26.6-3.1c4.2-3.5,5.5-8.4,5.7-9.1
			c2.4-9.5-5.1-14.4-2.6-22c1.7-5.2,7.6-9.8,12.3-9.1c5.9,0.8,5.8,9.5,15.4,16c5.4,3.6,12.3,5.6,13.7,3.7c2.3-3-11.3-14.1-8.3-19.4
			c2.2-4,12.4-2.2,13.4-2c12.9,2.4,14.7,11.3,25.1,16.3c16.3,7.7,36.9-2.1,45.1-6c17.9-8.5,18.2-17,27.7-16.9
			C684.4,39.5,698,73.1,705.8,69.6z"/>
		<path class="st8" d="M274.8,204.2c-2.2,0.5-0.9,6.5-5.4,15.2c-2.4,4.7-3.5,4.3-5.1,7.8c-2.9,6.5-0.3,10.9,0.3,20.6
			c0.7,10-0.9,22.4-4.1,23c-2.8,0.5-6.3-9.8-7.1-9.5c-1,0.4,7.4,13.6,3.4,25.7c-2.8,8.5-10.6,12.6-9.1,15.2
			c1.4,2.4,8.1-1.5,14.9,2.4c2.2,1.3,3.7,3.1,6.4,6.8c4.2,5.5,5.5,9,8.4,14.2c2,3.5,1.6,2.4,10.1,14.9c5.6,8.2,8.4,12.3,10.8,16.6
			c5.3,9.3,8,13.9,7.4,18.2c-1,8.5-9.7,13.8-14.2,16.6c-4.4,2.7-9.2,5.6-14.5,4.4c-4.2-1-5.4-3.7-9.8-3.7c-4.6,0-6.5,3.1-8.4,2
			c-2.5-1.5,0.5-6.8-2.4-12.8c-0.2-0.4-3.1-6.2-8.4-7.1c-5-0.9-9.3,3-10.8,4.4c-7.4,6.7-6.5,15-10.1,35.5
			c-3.6,20.4-7.3,28.4-3.7,30.7c2.9,1.9,9-1.1,12.5-4.7c6-6.3,2.4-12.5,8.4-20.6c0.7-1,6.6-9,12.8-7.8c5.3,1.1,9.5,8.8,8.4,14.9
			c-1.4,7.7-10.3,7.7-13.5,17.2c-0.3,0.8-2.8,8.6,1.4,14.9c3.5,5.2,9.6,6.2,14.5,7.1c4.7,0.8,12.5,2.1,16.2-2
			c2.3-2.5,0.9-4.7,3.4-15.2c1.1-4.8,2-8.4,3.4-8.4c1.6-0.1,3.4,4.8,4.1,8.8c1,6.5-1.3,9.1,0.7,11.5c2.2,2.6,7.3,2.1,10.5,0.7
			c0.7-0.3,5.9-2.7,6.1-7.4c0.1-3.3-2.2-6.1-4.7-7.4c-4-2.1-7.5,0.6-9.1-1.4c-1.6-1.9,0-6.2,2-8.8c2.3-3,4-2.2,5.7-4.7
			c1.5-2.2,1.1-4.1,1-11.8c-0.1-5.3-0.1-7.9,0-8.8c0.8-5.6,4.7-8.5,11.8-15.2c8.4-7.9,2.6-3.4,17.9-18.2
			c9.1-8.8,13.6-13.1,15.5-14.2c8.1-4.4,13.3-2.9,31.1-3.7c17.6-0.8,26.5-1.2,34.5-4.4c16.6-6.5,14.6-15.7,29.1-20.9
			c21-7.7,43.9,4.9,45.9,6.1c16,9.1,15.5,19,29.7,22.6c12.5,3.2,15.9-3.7,28.7-0.7c19.1,4.5,28.6,23.9,30.7,22.3
			c2-1.4-6.7-16.8-9.1-20.9c-8-14-12.2-18.3-19.3-30.4c-6.8-11.7-10.2-17.6-11.8-24c-5.4-22,6.7-35.6-1-43.2
			c-3.8-3.8-10.1-3.6-20.3-3.4c-12.2,0.3-14.3,3.8-22.6,2.4c-7.1-1.2-17.3-5.8-18.2-12.5c-0.9-6.4,7.5-9.7,7.4-19.9
			c0-2.5,0-6.3-2.4-7.8c-1.7-1-4.8-1.1-24.7,10.1c-5.7,3.2-8.4,4.9-10.8,3.7c-2.9-1.5-2.1-5.8-6.8-11.5c-2-2.5-3.4-4.1-5.4-4.4
			c-4.4-0.7-6.1,5.6-13.2,9.5c-5.7,3.2-11.5,2.8-18.6,2.4c-11.1-0.7-10.8-3.8-17.6-3.7c-12.6,0.1-15.9,10.9-36.1,16.6
			c-5.5,1.5-8.9,1.8-11.8,0c-5.3-3.2-1-11.5-5.4-15.5c-6.6-6-21.5,6.5-29.4,0.3c-5.7-4.5-3.3-15.3-7.8-16.2
			c-2.8-0.6-4.2,3.7-7.8,3.7C282.5,219.8,278.4,203.4,274.8,204.2z"/>
		<circle class="st9" cx="289" cy="235.9" r="11.5"/>
		<circle class="st10" cx="494.8" cy="136.3" r="11.5"/>
		<circle class="st10" cx="756.5" cy="241" r="11.5"/>
		<circle class="st11" cx="681.2" cy="114.8" r="11.5"/>
		<circle class="st12" cx="244.5" cy="147.7" r="11.5"/>
		<circle class="st10" cx="318.6" cy="273.2" r="6.5"/>
		<circle class="st10" cx="351.6" cy="244.2" r="6.5"/>
		<ellipse class="st10" cx="377" cy="287.6" rx="6.1" ry="5.7"/>
		<ellipse class="st7" cx="459.9" cy="279.7" rx="12.2" ry="9.3"/>
		<ellipse class="st10" cx="507.9" cy="362.5" rx="4.3" ry="5.4"/>
		<ellipse class="st10" cx="323.6" cy="474.4" rx="4.3" ry="5.4"/>
		<ellipse class="st10" cx="603.3" cy="465.1" rx="4.3" ry="5.4"/>
		<ellipse class="st10" cx="789.7" cy="325.9" rx="4.3" ry="5.4"/>
		<ellipse class="st10" cx="789" cy="224.1" rx="4.3" ry="5.4"/>
		<ellipse class="st10" cx="535.9" cy="321.6" rx="5.7" ry="5.4"/>
		<ellipse class="st10" cx="535.9" cy="275" rx="3.6" ry="4.7"/>
		<ellipse class="st10" cx="595.8" cy="252.8" rx="5.4" ry="4.7"/>
		<ellipse class="st10" cx="626.2" cy="213.7" rx="4.3" ry="5"/>
		<ellipse class="st10" cx="468.5" cy="215.2" rx="4.3" ry="5"/>
		<ellipse class="st10" cx="536.2" cy="199.4" rx="3.9" ry="2.9"/>
		<ellipse class="st10" cx="579.6" cy="409.8" rx="4.3" ry="3.2"/>
		<ellipse class="st13" cx="653.5" cy="397.3" rx="9.5" ry="11.5"/>
		<ellipse class="st14" cx="380.6" cy="437.8" rx="10.4" ry="9.7"/>
		<ellipse class="st5" cx="241.2" cy="353.2" rx="9.3" ry="9"/>
		<ellipse class="st10" cx="186.7" cy="280.4" rx="10" ry="12.2"/>
	</g>
	<g>
		<path class="st15" d="M88.6,375.2v-179c0-24.7,20-44.9,44.9-44.9h232.3"/>
		<polygon class="st16" points="88.6,377.5 73.2,355.2 88.6,358.5 103.7,355.2 		"/>
		<path class="st15" d="M893.3,372.2v-177c0-24.3-19.6-44-44-44H619.6"/>
		<polygon class="st16" points="893.3,377.6 908.6,355.3 893.3,358.4 878.1,355.3 		"/>
	</g>
	<g>
		<g id="big-commerce_1_">
			<path class="st17" d="M90.4,390.2c46.8,0,84.7,37.9,84.7,84.7c0,46.8-37.9,84.7-84.7,84.7S5.7,521.7,5.7,474.9
				S43.6,390.2,90.4,390.2z"/>
			<path class="st18" d="M90.4,407.8c37.1,0,67.1,30,67.1,67.1s-30,67.1-67.1,67.1s-67.1-30-67.1-67.1
				C23.3,437.9,53.4,407.8,90.4,407.8z"/>
			<path class="st17" d="M211.8,403.4c39.5,0,71.5,32,71.5,71.5s-32,71.5-71.5,71.5s-71.5-32-71.5-71.5
				C140.3,435.4,172.3,403.4,211.8,403.4z"/>
			<path class="st19" d="M211.8,416.7c32.2,0,58.3,26.1,58.3,58.3s-26.1,58.3-58.3,58.3s-58.3-26.1-58.3-58.3
				C153.6,442.7,179.6,416.7,211.8,416.7z"/>
			<path class="st20" d="M248.9,451.6l-28.2-5.6c0,4.5-3.4,8.2-7.7,8.7v12h-2.2v-12c-4.4-0.5-7.7-4.2-7.7-8.7l-28.2,5.6l5.9,15.2
				h10.4v37h41.7l-0.1-37H243L248.9,451.6z"/>
			<g>
				<path class="st21" d="M204.3,491.2V489h4.7v2.2H204.3z"/>
				<path class="st21" d="M217,494.9h-2.7v-7.4l0-1.2l0-1.3c-0.4,0.4-0.8,0.7-0.9,0.9L212,487l-1.3-1.6l4.1-3.3h2.2L217,494.9
					L217,494.9z"/>
			</g>
			<g class="st22">
				<path class="st23" d="M92.4,480.1h9.4c2.7,0,4.3-1.5,4.3-3.8c0-2.2-1.7-3.8-4.3-3.8h-9.4c-0.3,0-0.6,0.2-0.6,0.5v6.6
					C91.8,479.8,92,480.1,92.4,480.1z"/>
				<path class="st23" d="M92.4,495.2h9.7c3,0,4.7-1.5,4.7-4.2c0-2.3-1.7-4.2-4.7-4.2h-9.7c-0.3,0-0.6,0.2-0.6,0.5v7.2
					C91.8,495,92,495.2,92.4,495.2z"/>
				<path class="st23" d="M126.6,438l-27.7,27.6h4.5c7.1,0,11.2,4.4,11.2,9.3c0,3.8-2.6,6.6-5.3,7.8c-0.4,0.2-0.4,0.8,0,1
					c3.2,1.3,5.5,4.6,5.5,8.5c0,5.5-3.7,9.9-10.8,9.9H84.4c-0.3,0-0.6-0.2-0.6-0.5v-20.9l-30.4,30.3c-0.4,0.4-0.1,1.1,0.5,1.1h73.1
					c0.3,0,0.5-0.2,0.5-0.5v-73.1C127.6,437.9,127,437.7,126.6,438z"/>
			</g>
			<g>
				<path class="st24" d="M97,512l3.3-65.5c0,0,0.5,0.2,0.5,0.2c0.4,0.4,4.6,4.5,4.6,4.5s5.8,0.4,6.1,0.4c0.3,0,0.6,0.2,0.7,0.6
					s8.3,54.8,8.3,54.8L97,512z"/>
				<path class="st25" d="M53.8,504.1c0,0,5.5-42,5.8-43.5c0.3-2,0.3-2,2.5-2.7c0.3-0.1,3-0.9,6.8-2.1c1.5-6.1,6.1-18,15.9-18
					c1.3,0,2.8,0.7,3.9,2.2c0.1,0,0.2,0,0.4,0c4.2,0,6.6,3.5,7.9,7.3c1.4-0.4,2.2-0.7,2.3-0.7c0.2-0.1,0.6-0.2,1-0.1L97,512
					L53.8,504.1z M84.5,440.5c-7,0-11,9-12.6,14.6c1.9-0.6,3.9-1.2,6-1.8c1.4-7.3,4.8-10.9,7.9-12.3
					C85.4,440.6,84.9,440.5,84.5,440.5z M87.4,443.1c-2.4,1-5.1,3.7-6.6,9.1c2.6-0.8,5.2-1.6,7.5-2.3c0-0.1,0-0.3,0-0.4
					C88.4,446.7,88,444.6,87.4,443.1z M83.2,463.3c-10.2,0-15.3,6.7-15.3,13.6c0,8.2,8.4,8.5,8.4,13.5c0,1.2-0.9,2.9-3,2.9
					c-3.3,0-7.2-3.3-7.2-3.3l-2,6.4c0,0,3.8,4.5,11.2,4.5c6.2,0,10.8-4.6,10.8-11.6c0-9-10.2-10.5-10.2-14.3c0-0.7,0.2-3.5,4.8-3.5
					c3.1,0,5.6,1.3,5.6,1.3l2.9-8.4C89.1,464.4,87.1,463.3,83.2,463.3z M90.1,442.7c0.5,1.5,0.9,3.4,0.9,5.8c0,0.3,0,0.5,0,0.8
					c1.3-0.4,2.6-0.8,3.7-1.1C93.7,445.4,92.3,442.9,90.1,442.7z"/>
			</g>
		</g>
		<g id="xero_2_">
			<path class="st17" d="M980.7,474.9c0,46.8-37.9,84.7-84.7,84.7s-84.7-37.9-84.7-84.7s37.9-84.7,84.7-84.7
				C942.8,390.2,980.7,428.1,980.7,474.9z"/>
			<path class="st18" d="M963.1,474.9c0,37.1-30,67.1-67.1,67.1s-67.1-30-67.1-67.1c0-37.1,30-67.1,67.1-67.1
				S963.1,437.9,963.1,474.9z"/>
			<path class="st17" d="M846.1,474.9c0,39.5-32,71.5-71.5,71.5c-39.5,0-71.5-32-71.5-71.5s32-71.5,71.5-71.5
				C814.1,403.4,846.1,435.4,846.1,474.9z"/>
			<path class="st19" d="M832.8,474.9c0,32.2-26.1,58.3-58.3,58.3s-58.3-26.1-58.3-58.3s26.1-58.3,58.3-58.3
				C806.8,416.7,832.8,442.7,832.8,474.9z"/>
			<path class="st26" d="M811.7,451.6l-28.3-5.6c0,4.5-3.4,8.2-7.7,8.7v12h-2.2v-12c-4.4-0.5-7.7-4.2-7.7-8.7l-28.2,5.6l5.9,15.2
				h10.4v37h41.7l-0.1-37h10.4L811.7,451.6z"/>
			<g>
				<path class="st21" d="M767.1,491.2V489h4.7v2.2H767.1z"/>
				<path class="st21" d="M779.8,494.9H777v-7.4l0-1.2l0-1.3c-0.4,0.4-0.8,0.7-0.9,0.9l-1.5,1.2l-1.3-1.6l4.1-3.3h2.2L779.8,494.9
					L779.8,494.9z"/>
			</g>
			<g id="Icon_1_" class="st22">
				<circle id="Circle_1_" class="st27" cx="896" cy="474.9" r="42.4"/>
				<path id="qb_1_" class="st28" d="M865.4,474.9c0,9.1,7.4,16.5,16.5,16.5h2.4v-6.1h-2.4c-5.7,0-10.4-4.6-10.4-10.4
					c0-5.7,4.6-10.4,10.4-10.4h5.7c0,0,0,31.4,0,32c0,3.4,2.7,6.1,6.1,6.1v-44.3c0,0-6.3,0-11.8,0
					C872.7,458.4,865.4,465.8,865.4,474.9z M910.1,458.4h-2.4v6.1h2.4c5.7,0,10.4,4.6,10.4,10.4s-4.6,10.4-10.4,10.4h-5.7
					c0,0,0-31.4,0-32c0-3.4-2.7-6.1-6.1-6.1v44.3c0,0,6.3,0,11.8,0c9.1,0,16.5-7.4,16.5-16.5C926.6,465.8,919.2,458.4,910.1,458.4z"
					/>
			</g>
			<path class="st29" d="M935.9,488.7c-2.2,6.4-6,12.2-10.9,16.8c-5.3,5.1-12,8.7-19.2,10.4c-9.3,2.3-19.4,1.3-28.1-2.9
				c-8-3.8-14.7-10.1-19-17.8c-2.5-4.4-4.1-9.3-4.8-14.3c-0.9-5.9-0.5-11.9,1.1-17.6c2.1-7.6,6.4-14.6,12.3-19.9
				c6.8-6.2,15.7-10.1,24.8-10.9c5.9-0.5,11.9,0.2,17.5,2.1c8.5,2.9,16,8.6,21.1,15.9c2.7,3.8,4.7,8.1,6,12.6
				C939,471.5,938.7,480.5,935.9,488.7z M881.2,465.7c-0.4-0.7-1.5-0.8-2-0.3c-2.4,2.4-4.8,4.8-7.2,7.2c-2.4-2.4-4.8-4.7-7.2-7.1
				c-0.3-0.3-0.8-0.5-1.3-0.4c-0.7,0.1-1.2,0.8-1.1,1.5c0.1,0.5,0.5,0.9,0.9,1.3c2.2,2.2,4.4,4.4,6.6,6.6c0,0,0,0.1,0,0.1
				c-2.4,2.4-4.8,4.8-7.2,7.2c-0.3,0.3-0.5,0.9-0.3,1.3c0.2,0.6,0.9,1,1.5,0.9c0.5-0.1,0.8-0.5,1.2-0.8c2.3-2.2,4.5-4.5,6.8-6.7
				c2.4,2.4,4.8,4.8,7.2,7.2c0.3,0.4,0.9,0.5,1.3,0.4c0.6-0.1,1-0.8,1-1.4c0-0.4-0.3-0.8-0.6-1.1c-2.3-2.3-4.6-4.6-7-7
				c2.4-2.4,4.8-4.8,7.2-7.2C881.4,466.9,881.5,466.2,881.2,465.7z M900.1,472.8c-0.4-1.9-1.3-3.7-2.6-5c-1.4-1.4-3.3-2.4-5.4-2.6
				c-2.4-0.4-5,0.3-7,1.8c-3.1,2.3-4.6,6.5-3.5,10.2c0.6,2.1,2,4,3.8,5.3c1.8,1.2,4,1.8,6.1,1.6c1.5-0.1,3-0.6,4.3-1.4
				c1-0.6,1.9-1.5,2.6-2.4c0.3-0.4,0.4-0.9,0.2-1.4c-0.2-0.7-1.2-1.1-1.9-0.7c-0.4,0.2-0.6,0.7-0.9,1c-0.9,1-2,1.7-3.2,2.1
				c-2.1,0.6-4.5,0.1-6.2-1.3c-1.3-1.1-2.2-2.6-2.4-4.2c4.4,0,8.8,0,13.1,0c0.7,0,1.4-0.1,2-0.4
				C899.9,474.7,900.3,473.7,900.1,472.8z M909.3,465.3c-1.4-0.2-2.9,0.2-4,1c-0.2-0.7-0.9-1.1-1.6-0.9c-0.6,0.1-1,0.7-1,1.3
				c0,5.3,0,10.5,0,15.8c-0.1,0.7,0.6,1.4,1.3,1.4c0.7,0,1.3-0.6,1.3-1.3c0-3.1,0-6.1,0-9.2c0-1.1,0-2.3,0.2-3.4
				c0.1-0.7,0.5-1.3,1.1-1.7c0.7-0.4,1.6-0.5,2.4-0.6c0.5,0,1-0.4,1.2-0.9C910.4,466.2,910,465.4,909.3,465.3z M928,471.1
				c-0.8-2-2.3-3.8-4.2-4.9c-1.8-1-3.9-1.4-5.9-1.1c-3.1,0.4-5.9,2.4-7.3,5.2c-1.1,2.2-1.3,4.9-0.5,7.2c0.6,1.8,1.8,3.4,3.3,4.6
				c1.6,1.3,3.7,1.9,5.8,1.9c2.1,0,4.1-0.7,5.7-2c1.7-1.3,2.9-3.1,3.4-5.1C928.8,475.1,928.7,473,928,471.1z M920.5,481.2
				c-1.5,0.3-3.1,0.1-4.5-0.6c-1.8-0.9-3.2-2.7-3.6-4.7c-0.4-1.9,0.1-3.9,1.2-5.4c1-1.4,2.5-2.3,4.2-2.6c1.4-0.3,2.8-0.1,4.1,0.5
				c1.9,0.9,3.3,2.6,3.8,4.7c0.4,1.8,0,3.9-1.1,5.4C923.7,479.9,922.2,480.9,920.5,481.2z M921.5,474.4c0-1.5-1.6-2.5-3-2.1
				c-0.7,0.2-1.4,0.8-1.6,1.5c-0.2,0.8-0.1,1.6,0.4,2.3c0.6,0.8,1.7,1.1,2.6,0.8C920.8,476.5,921.6,475.5,921.5,474.4z M887,468.8
				c1.7-1.2,4-1.4,6-0.7c2.2,0.7,3.9,2.6,4.4,4.9c-4.4,0-8.9,0-13.3,0C884.5,471.3,885.5,469.8,887,468.8z"/>
		</g>
		<g id="main_2_">
			<path class="st30" d="M494.5,29.8c90.7,0,164.2,73.5,164.2,164.2s-73.5,164.2-164.2,164.2S330.3,284.8,330.3,194
				S403.8,29.8,494.5,29.8z"/>
			<path class="st31" d="M645.8,303.9l-1.5-1.1c0.9-1.3,1.9-2.6,2.8-3.9l1.5,1C647.7,301.3,646.8,302.6,645.8,303.9z M651.3,295.9
				l-1.5-1c0.9-1.3,1.7-2.7,2.6-4.1l1.5,0.9C653.1,293.2,652.2,294.6,651.3,295.9z M656.4,287.7l-1.6-0.9c0.8-1.4,1.6-2.8,2.4-4.2
				l1.6,0.9C658,284.9,657.2,286.3,656.4,287.7z M661,279.2l-1.6-0.8c0.7-1.4,1.4-2.9,2.1-4.3l1.6,0.8
				C662.5,276.3,661.8,277.8,661,279.2z M665.2,270.5l-1.6-0.7c0.7-1.5,1.3-2.9,1.9-4.4l1.7,0.7C666.5,267.5,665.9,269,665.2,270.5z
				 M669,261.5l-1.7-0.6c0.6-1.5,1.1-3,1.7-4.5l1.7,0.6C670.1,258.5,669.5,260,669,261.5z M672.2,252.4l-1.7-0.6
				c0.5-1.5,1-3,1.4-4.6l1.7,0.5C673.2,249.3,672.7,250.8,672.2,252.4z M675,243.1l-1.7-0.5c0.4-1.5,0.8-3.1,1.2-4.6l1.8,0.4
				C675.8,240,675.4,241.5,675,243.1z M677.3,233.7l-1.8-0.4c0.3-1.6,0.7-3.1,1-4.7l1.8,0.3C677.9,230.5,677.6,232.1,677.3,233.7z
				 M679.1,224.2l-1.8-0.3c0.3-1.6,0.5-3.2,0.7-4.7l1.8,0.2C679.6,221,679.3,222.6,679.1,224.2z M680.4,214.6l-1.8-0.2
				c0.2-1.6,0.3-3.2,0.5-4.8l1.8,0.1C680.7,211.4,680.6,213,680.4,214.6z M681.2,205l-1.8-0.1c0.1-1.6,0.2-3.2,0.2-4.8l1.8,0.1
				C681.3,201.8,681.3,203.4,681.2,205z M681.5,195.3l-1.8,0l0-1.3c0-1.2,0-2.4,0-3.5l1.8,0c0,1.2,0,2.4,0,3.6L681.5,195.3z
				 M679.5,185.7c-0.1-1.6-0.2-3.2-0.3-4.8l1.8-0.1c0.1,1.6,0.2,3.2,0.3,4.8L679.5,185.7z M678.8,176.2c-0.2-1.6-0.3-3.2-0.5-4.8
				l1.8-0.2c0.2,1.6,0.4,3.2,0.5,4.8L678.8,176.2z M677.7,166.7c-0.2-1.6-0.5-3.2-0.8-4.7l1.8-0.3c0.3,1.6,0.5,3.2,0.8,4.8
				L677.7,166.7z M676,157.2c-0.3-1.6-0.7-3.1-1-4.7l1.8-0.4c0.4,1.6,0.7,3.1,1,4.7L676,157.2z M673.9,147.9
				c-0.4-1.5-0.8-3.1-1.2-4.6l1.7-0.5c0.4,1.5,0.9,3.1,1.3,4.7L673.9,147.9z M671.3,138.7c-0.5-1.5-1-3-1.5-4.6l1.7-0.6
				c0.5,1.5,1,3.1,1.5,4.6L671.3,138.7z M668.2,129.6c-0.6-1.5-1.1-3-1.7-4.5l1.7-0.7c0.6,1.5,1.2,3,1.7,4.5L668.2,129.6z
				 M664.6,120.8c-0.6-1.5-1.3-2.9-1.9-4.4l1.6-0.8c0.7,1.5,1.3,2.9,2,4.4L664.6,120.8z M660.6,112.1c-0.7-1.4-1.4-2.8-2.2-4.3
				l1.6-0.8c0.7,1.4,1.5,2.9,2.2,4.3L660.6,112.1z M656.2,103.6c-0.8-1.4-1.6-2.8-2.4-4.1l1.6-0.9c0.8,1.4,1.6,2.8,2.4,4.2
				L656.2,103.6z M651.3,95.4c-0.9-1.3-1.7-2.7-2.6-4l1.5-1c0.9,1.3,1.8,2.7,2.6,4.1L651.3,95.4z M646,87.5
				c-0.9-1.3-1.9-2.6-2.8-3.9l1.4-1.1c1,1.3,1.9,2.6,2.8,3.9L646,87.5z M640.3,79.8c-1-1.3-2-2.5-3-3.7l1.4-1.2c1,1.2,2,2.5,3,3.8
				L640.3,79.8z M634.2,72.4c-1.1-1.2-2.1-2.4-3.2-3.6l1.3-1.2c1.1,1.2,2.2,2.4,3.2,3.6L634.2,72.4z M627.7,65.4
				c-1.1-1.1-2.2-2.3-3.4-3.4l1.3-1.3c1.1,1.1,2.3,2.3,3.4,3.4L627.7,65.4z M620.8,58.7c-1.2-1.1-2.3-2.2-3.5-3.2l1.2-1.4
				c1.2,1.1,2.4,2.2,3.6,3.3L620.8,58.7z M613.7,52.3c-1.2-1-2.5-2-3.7-3l1.1-1.4c1.3,1,2.5,2,3.7,3.1L613.7,52.3z M375.8,52
				l-1.2-1.4c1.2-1,2.5-2.1,3.7-3.1l1.1,1.4C378.2,49.9,377,50.9,375.8,52z M606.2,46.3c-1.3-1-2.6-1.9-3.9-2.8l1.1-1.5
				c1.3,0.9,2.6,1.9,3.9,2.9L606.2,46.3z M383.3,46l-1.1-1.4c1.3-1,2.6-1.9,3.9-2.9l1,1.5C385.8,44.1,384.5,45.1,383.3,46z
				 M598.4,40.7c-1.3-0.9-2.7-1.8-4-2.6l1-1.5c1.4,0.9,2.7,1.8,4,2.7L598.4,40.7z M391.1,40.5l-1-1.5c1.3-0.9,2.7-1.8,4-2.6l1,1.5
				C393.7,38.7,392.4,39.6,391.1,40.5z M590.3,35.6c-1.4-0.8-2.7-1.6-4.1-2.4l0.9-1.6c1.4,0.8,2.8,1.6,4.2,2.5L590.3,35.6z
				 M399.1,35.3l-0.9-1.5c1.4-0.8,2.8-1.6,4.2-2.4l0.9,1.6C401.9,33.7,400.5,34.5,399.1,35.3z M582,30.8c-1.4-0.8-2.8-1.5-4.3-2.2
				l0.8-1.6c1.4,0.7,2.9,1.5,4.3,2.2L582,30.8z M407.4,30.6l-0.9-1.6c1.4-0.8,2.8-1.5,4.3-2.2l0.8,1.6
				C410.2,29.1,408.8,29.9,407.4,30.6z M573.4,26.5c-1.4-0.7-2.9-1.3-4.4-2l0.7-1.7c1.5,0.7,3,1.3,4.4,2L573.4,26.5z M416,26.3
				l-0.8-1.6c1.5-0.7,2.9-1.3,4.4-2l0.7,1.7C418.9,25,417.4,25.6,416,26.3z M564.6,22.6c-1.5-0.6-3-1.2-4.5-1.8l0.6-1.7
				c1.5,0.6,3,1.2,4.5,1.8L564.6,22.6z M424.7,22.5l-0.7-1.7c1.5-0.6,3-1.2,4.5-1.8l0.6,1.7C427.7,21.3,426.2,21.9,424.7,22.5z
				 M555.6,19.2c-1.5-0.5-3-1-4.6-1.5l0.5-1.7c1.5,0.5,3.1,1,4.6,1.5L555.6,19.2z M433.7,19.1l-0.6-1.7c1.5-0.5,3-1,4.6-1.5l0.5,1.7
				C436.7,18.1,435.2,18.6,433.7,19.1z M546.5,16.3c-1.5-0.4-3.1-0.9-4.6-1.3l0.5-1.7c1.6,0.4,3.1,0.8,4.7,1.3L546.5,16.3z
				 M442.8,16.2l-0.5-1.7c1.5-0.4,3.1-0.9,4.7-1.3l0.5,1.7C445.9,15.3,444.3,15.8,442.8,16.2z M537.2,13.8c-1.6-0.4-3.1-0.7-4.7-1
				l0.4-1.8c1.6,0.3,3.2,0.7,4.7,1.1L537.2,13.8z M452.1,13.8l-0.4-1.8c1.6-0.4,3.1-0.7,4.7-1l0.4,1.8
				C455.2,13.1,453.6,13.4,452.1,13.8z M527.9,11.9c-1.6-0.3-3.1-0.6-4.7-0.8l0.3-1.8c1.6,0.2,3.2,0.5,4.8,0.8L527.9,11.9z
				 M461.4,11.8l-0.3-1.8c1.6-0.3,3.2-0.6,4.8-0.8l0.3,1.8C464.6,11.3,463,11.5,461.4,11.8z M518.4,10.4c-1.6-0.2-3.2-0.4-4.8-0.6
				l0.2-1.8c1.6,0.2,3.2,0.4,4.8,0.6L518.4,10.4z M470.9,10.4l-0.2-1.8c1.6-0.2,3.2-0.4,4.8-0.5l0.2,1.8
				C474.1,10,472.5,10.2,470.9,10.4z M508.9,9.4c-1.6-0.1-3.2-0.2-4.8-0.3l0.1-1.8c1.6,0.1,3.2,0.2,4.8,0.3L508.9,9.4z M480.4,9.4
				l-0.1-1.8c1.6-0.1,3.2-0.2,4.8-0.3l0.1,1.8C483.6,9.2,482,9.3,480.4,9.4z M499.3,8.9c-3.1-0.1-6.2-0.1-9.3,0l0-1.8
				c3.1-0.1,6.3-0.1,9.4,0L499.3,8.9z"/>
			<path class="st31" d="M322.5,314.1c-0.9-1.3-1.8-2.6-2.7-4l1.5-1c0.9,1.3,1.8,2.6,2.7,4L322.5,314.1z M317.2,306
				c-0.9-1.4-1.7-2.7-2.5-4.1l1.5-0.9c0.8,1.4,1.7,2.7,2.5,4.1L317.2,306z M312.2,297.8c-0.8-1.4-1.6-2.8-2.3-4.2l1.6-0.9
				c0.8,1.4,1.5,2.8,2.3,4.2L312.2,297.8z M307.6,289.3c-0.7-1.4-1.4-2.9-2.1-4.3l1.6-0.8c0.7,1.4,1.4,2.9,2.1,4.3L307.6,289.3z
				 M303.5,280.6c-0.7-1.5-1.3-2.9-1.9-4.4l1.7-0.7c0.6,1.5,1.3,2.9,1.9,4.4L303.5,280.6z M299.7,271.7c-0.6-1.5-1.2-3-1.7-4.5
				l1.7-0.6c0.6,1.5,1.1,3,1.7,4.5L299.7,271.7z M296.3,262.7c-0.5-1.5-1-3-1.5-4.6l1.7-0.5c0.5,1.5,1,3,1.5,4.5L296.3,262.7z
				 M293.4,253.5c-0.5-1.5-0.9-3.1-1.3-4.7l1.7-0.5c0.4,1.5,0.9,3.1,1.3,4.6L293.4,253.5z M290.8,244.1c-0.4-1.6-0.7-3.1-1.1-4.7
				l1.8-0.4c0.3,1.6,0.7,3.1,1.1,4.7L290.8,244.1z M288.8,234.7c-0.3-1.6-0.6-3.2-0.9-4.8l1.8-0.3c0.3,1.6,0.6,3.1,0.9,4.7
				L288.8,234.7z M287.1,225.2c-0.2-1.6-0.5-3.2-0.7-4.8l1.8-0.2c0.2,1.6,0.4,3.2,0.7,4.7L287.1,225.2z M285.9,215.6
				c-0.2-1.6-0.3-3.2-0.4-4.8l1.8-0.1c0.1,1.6,0.3,3.2,0.4,4.8L285.9,215.6z M285.1,205.9c-0.1-1.6-0.2-3.2-0.2-4.8l1.8-0.1
				c0.1,1.6,0.1,3.2,0.2,4.8L285.1,205.9z M284.8,196.3c0-0.7,0-1.5,0-2.2c0-0.9,0-1.7,0-2.6l1.8,0c0,0.9,0,1.7,0,2.6
				c0,0.7,0,1.5,0,2.2L284.8,196.3z M286.8,186.7l-1.8-0.1c0.1-1.6,0.1-3.2,0.2-4.8l1.8,0.1C286.9,183.5,286.8,185.1,286.8,186.7z
				 M287.3,177.1l-1.8-0.1c0.1-1.6,0.3-3.2,0.4-4.8l1.8,0.2C287.6,173.9,287.4,175.5,287.3,177.1z M288.3,167.6l-1.8-0.2
				c0.2-1.6,0.4-3.2,0.7-4.8l1.8,0.3C288.7,164.4,288.5,166,288.3,167.6z M289.7,158.1l-1.8-0.3c0.3-1.6,0.6-3.2,0.9-4.8l1.8,0.4
				C290.3,155,290,156.5,289.7,158.1z M291.6,148.7l-1.8-0.4c0.4-1.6,0.7-3.1,1.1-4.7l1.8,0.4C292.3,145.6,291.9,147.1,291.6,148.7z
				 M293.9,139.4l-1.7-0.5c0.4-1.6,0.9-3.1,1.3-4.6l1.7,0.5C294.7,136.3,294.3,137.9,293.9,139.4z M296.6,130.2l-1.7-0.6
				c0.5-1.5,1-3.1,1.5-4.6l1.7,0.6C297.6,127.2,297.1,128.7,296.6,130.2z M299.8,121.1l-1.7-0.6c0.6-1.5,1.2-3,1.8-4.5l1.7,0.7
				C300.9,118.1,300.3,119.6,299.8,121.1z M303.3,112.2l-1.7-0.7c0.6-1.5,1.3-3,2-4.4l1.6,0.7C304.6,109.3,304,110.7,303.3,112.2z
				 M307.3,103.5l-1.6-0.8c0.7-1.5,1.4-2.9,2.2-4.3l1.6,0.8C308.7,100.6,308,102,307.3,103.5z M311.7,94.9l-1.6-0.9
				c0.8-1.4,1.6-2.8,2.4-4.2l1.6,0.9C313.3,92.1,312.5,93.5,311.7,94.9z M316.5,86.6l-1.5-0.9c0.8-1.4,1.7-2.8,2.6-4.1l1.5,1
				C318.2,83.9,317.3,85.2,316.5,86.6z M321.7,78.5l-1.5-1c0.9-1.3,1.8-2.7,2.7-4l1.5,1C323.4,75.9,322.5,77.2,321.7,78.5z
				 M327.2,70.7l-1.5-1.1c1-1.3,1.9-2.6,2.9-3.9l1.4,1.1C329.1,68.1,328.1,69.4,327.2,70.7z M333,63.1l-1.4-1.1c1-1.3,2-2.5,3.1-3.7
				l1.4,1.2C335.1,60.6,334.1,61.8,333,63.1z M339.3,55.8l-1.3-1.2c1.1-1.2,2.2-2.4,3.3-3.6l1.3,1.2
				C341.4,53.4,340.3,54.6,339.3,55.8z M345.8,48.8l-1.3-1.3c1.1-1.2,2.3-2.3,3.4-3.4l1.3,1.3C348,46.5,346.9,47.6,345.8,48.8z
				 M352.6,42.1l-1.2-1.3c1.2-1.1,2.4-2.2,3.6-3.3l1.2,1.3C355,39.9,353.8,41,352.6,42.1z M359.8,35.7l-1.2-1.4
				c1.2-1,2.5-2.1,3.7-3.1l1.1,1.4C362.2,33.6,361,34.7,359.8,35.7z M367.2,29.7l-1.1-1.4c1.3-1,2.6-2,3.9-2.9l1.1,1.5
				C369.8,27.7,368.5,28.7,367.2,29.7z M374.9,24l-1-1.5c1.3-0.9,2.6-1.8,4-2.7l1,1.5C377.5,22.1,376.2,23.1,374.9,24z M382.9,18.6
				l-1-1.5c1.4-0.9,2.7-1.7,4.1-2.5l0.9,1.5C385.6,16.9,384.2,17.8,382.9,18.6z M599.8,14.7c-1.4-0.8-2.8-1.6-4.2-2.4l0.9-1.6
				c1.4,0.8,2.8,1.6,4.2,2.4L599.8,14.7z M391,13.7l-0.9-1.6c1.4-0.8,2.8-1.6,4.2-2.4l0.9,1.6C393.8,12.1,392.4,12.9,391,13.7z
				 M591.4,10c-1.4-0.7-2.8-1.5-4.3-2.2l0.8-1.6c1.4,0.7,2.9,1.5,4.3,2.2L591.4,10z M399.4,9.1l-0.8-1.6c1.4-0.7,2.9-1.5,4.3-2.2
				l0.8,1.6C402.3,7.7,400.9,8.4,399.4,9.1z M582.8,5.8c-1.5-0.7-2.9-1.3-4.4-2l0.7-1.7c1.5,0.7,3,1.3,4.4,2L582.8,5.8z M408,4.9
				l-0.8-1.6c1.5-0.7,2.9-1.3,4.4-2l0.7,1.7C410.9,3.6,409.5,4.3,408,4.9z M574,1.9c-1.5-0.6-3-1.2-4.5-1.8l0.7-1.7
				c1.5,0.6,3,1.2,4.5,1.8L574,1.9z M416.8,1.2l-0.7-1.7c1.5-0.6,3-1.2,4.5-1.8l0.6,1.7C419.8,0,418.3,0.6,416.8,1.2z M565-1.6
				c-1.5-0.5-3-1.1-4.5-1.6l0.6-1.7c1.5,0.5,3.1,1,4.6,1.6L565-1.6z M425.8-2.2l-0.6-1.7c1.5-0.5,3-1,4.6-1.5l0.6,1.7
				C428.8-3.3,427.3-2.7,425.8-2.2z M555.9-4.6c-1.5-0.5-3.1-0.9-4.6-1.4l0.5-1.7c1.6,0.4,3.1,0.9,4.6,1.4L555.9-4.6z M434.9-5.2
				l-0.5-1.7c1.5-0.5,3.1-0.9,4.6-1.3l0.5,1.7C438-6.1,436.4-5.6,434.9-5.2z M546.7-7.3c-1.5-0.4-3.1-0.8-4.7-1.1l0.4-1.8
				c1.6,0.4,3.1,0.8,4.7,1.2L546.7-7.3z M444.1-7.7l-0.4-1.8c1.6-0.4,3.1-0.8,4.7-1.1l0.4,1.8C447.2-8.5,445.7-8.1,444.1-7.7z
				 M537.4-9.4c-1.6-0.3-3.1-0.6-4.7-0.9l0.3-1.8c1.6,0.3,3.2,0.6,4.7,0.9L537.4-9.4z M453.5-9.8l-0.4-1.8c1.6-0.3,3.2-0.6,4.8-0.9
				l0.3,1.8C456.6-10.4,455-10.1,453.5-9.8z M527.9-11.2c-1.6-0.3-3.2-0.5-4.7-0.7l0.2-1.8c1.6,0.2,3.2,0.5,4.8,0.7L527.9-11.2z
				 M462.9-11.5l-0.3-1.8c1.6-0.2,3.2-0.5,4.8-0.7l0.2,1.8C466.1-11.9,464.5-11.7,462.9-11.5z M518.4-12.5c-1.6-0.2-3.2-0.3-4.8-0.5
				l0.2-1.8c1.6,0.1,3.2,0.3,4.8,0.5L518.4-12.5z M472.4-12.7l-0.2-1.8c1.6-0.2,3.2-0.3,4.8-0.5l0.1,1.8
				C475.6-13,474-12.9,472.4-12.7z M508.9-13.4c-1.6-0.1-3.2-0.2-4.8-0.3l0.1-1.8c1.6,0.1,3.2,0.2,4.8,0.3L508.9-13.4z M482-13.5
				l-0.1-1.8c1.6-0.1,3.2-0.2,4.8-0.2l0.1,1.8C485.2-13.7,483.6-13.6,482-13.5z M499.3-13.8c-1.7,0-3.4-0.1-5-0.1
				c-0.9,0-1.8,0-2.8,0l0-1.8c1,0,2,0,3,0c1.6,0,3.2,0,4.8,0.1L499.3-13.8z"/>
			<path class="st20" d="M570.1,174.3L512.5,163c0,9.1-6.9,16.7-15.8,17.8v24.5h-4.4v-24.5c-8.9-1.1-15.8-8.6-15.8-17.8L419,174.3
				l12.1,30.9h21.2v75.5h84.9l-0.3-75.5H558L570.1,174.3z"/>
			<g>
				<path class="st21" d="M486,249.7l-3.9-5.9h3.8l2.4,3.9l2.4-3.9h3.8l-4,5.9l4.1,6.2h-3.8l-2.6-4.2l-2.6,4.2h-3.8L486,249.7z"/>
				<path class="st21" d="M503.8,255.9h-3.4v-9.2l0-1.5l0.1-1.7c-0.6,0.6-0.9,0.9-1.2,1.1l-1.8,1.5l-1.6-2l5.1-4.1h2.8L503.8,255.9
					L503.8,255.9z"/>
			</g>
			<g>
				<path class="st21" d="M453,314.7h-3.2l-7.8-12.7h-0.1l0.1,0.7c0.1,1.3,0.2,2.6,0.2,3.7v8.3h-2.4v-15.9h3.2l7.8,12.6h0.1
					c0-0.2,0-0.8-0.1-1.8c0-1-0.1-1.9-0.1-2.5v-8.3h2.4L453,314.7L453,314.7z"/>
				<path class="st21" d="M462.2,314.9c-1.9,0-3.3-0.5-4.4-1.6c-1.1-1.1-1.6-2.6-1.6-4.5c0-2,0.5-3.5,1.5-4.6c1-1.1,2.3-1.7,4-1.7
					c1.6,0,2.8,0.5,3.8,1.4c0.9,1,1.4,2.3,1.4,4v1.4h-8c0,1.2,0.4,2.1,0.9,2.7c0.6,0.6,1.4,0.9,2.5,0.9c0.7,0,1.4-0.1,2-0.2
					c0.6-0.1,1.3-0.4,2-0.7v2.1c-0.6,0.3-1.3,0.5-1.9,0.6C463.7,314.9,463,314.9,462.2,314.9z M461.7,304.4c-0.8,0-1.5,0.3-2,0.8
					c-0.5,0.5-0.8,1.3-0.9,2.2h5.5c0-1-0.3-1.7-0.7-2.3C463.2,304.7,462.5,304.4,461.7,304.4z"/>
				<path class="st21" d="M479.6,314.7l-1.6-5.6c-0.2-0.6-0.5-2-1-4.1h-0.1c-0.4,2-0.8,3.3-1,4.2l-1.6,5.6h-2.8l-3.4-12h2.6l1.5,5.9
					c0.3,1.5,0.6,2.7,0.7,3.8h0.1c0.1-0.5,0.2-1.1,0.3-1.8c0.1-0.7,0.3-1.2,0.4-1.5l1.8-6.3h2.8l1.8,6.3c0.1,0.4,0.2,0.9,0.4,1.6
					c0.2,0.7,0.3,1.3,0.3,1.7h0.1c0.1-0.9,0.4-2.1,0.8-3.7l1.6-5.9h2.6l-3.4,12H479.6z"/>
				<path class="st21" d="M504.4,308.7c0,2-0.5,3.5-1.5,4.6c-1,1.1-2.4,1.7-4.2,1.7c-1.1,0-2.1-0.3-3-0.8c-0.9-0.5-1.5-1.2-2-2.2
					c-0.5-1-0.7-2-0.7-3.3c0-1.9,0.5-3.5,1.5-4.6c1-1.1,2.4-1.6,4.2-1.6c1.7,0,3.1,0.6,4.1,1.7C503.9,305.3,504.4,306.8,504.4,308.7
					z M495.6,308.7c0,2.8,1,4.2,3.1,4.2c2,0,3-1.4,3-4.2c0-2.7-1-4.1-3.1-4.1c-1.1,0-1.8,0.4-2.3,1.1S495.6,307.4,495.6,308.7z"/>
				<path class="st21" d="M513.4,302.5c0.5,0,0.9,0,1.3,0.1l-0.2,2.4c-0.4-0.1-0.7-0.1-1.1-0.1c-1,0-1.8,0.3-2.5,1
					c-0.6,0.7-1,1.5-1,2.6v6.3h-2.6v-12h2l0.3,2.1h0.1c0.4-0.7,0.9-1.3,1.6-1.7C512,302.7,512.7,302.5,513.4,302.5z"/>
				<path class="st21" d="M521,314.9c-1.5,0-2.7-0.5-3.5-1.6c-0.8-1.1-1.3-2.6-1.3-4.6c0-2,0.4-3.5,1.3-4.6c0.9-1.1,2-1.6,3.5-1.6
					c1.6,0,2.8,0.6,3.6,1.7h0.1c-0.1-0.9-0.2-1.5-0.2-2v-4.4h2.6v16.9h-2l-0.4-1.6h-0.1C523.7,314.3,522.5,314.9,521,314.9z
					 M521.6,312.9c1.1,0,1.8-0.3,2.3-0.9s0.7-1.5,0.7-2.9v-0.4c0-1.5-0.2-2.6-0.7-3.2c-0.5-0.6-1.3-1-2.3-1c-0.9,0-1.6,0.4-2.1,1.1
					c-0.5,0.7-0.7,1.8-0.7,3.1c0,1.3,0.2,2.3,0.7,3C520,312.5,520.7,312.9,521.6,312.9z"/>
				<path class="st21" d="M536,314.9c-1.9,0-3.3-0.5-4.4-1.6c-1.1-1.1-1.6-2.6-1.6-4.5c0-2,0.5-3.5,1.5-4.6c1-1.1,2.3-1.7,4-1.7
					c1.6,0,2.8,0.5,3.8,1.4c0.9,1,1.4,2.3,1.4,4v1.4h-8c0,1.2,0.3,2.1,0.9,2.7c0.6,0.6,1.4,0.9,2.5,0.9c0.7,0,1.4-0.1,2-0.2
					c0.6-0.1,1.3-0.4,2-0.7v2.1c-0.6,0.3-1.3,0.5-1.9,0.6C537.6,314.9,536.8,314.9,536,314.9z M535.5,304.4c-0.8,0-1.5,0.3-1.9,0.8
					c-0.5,0.5-0.8,1.3-0.9,2.2h5.5c0-1-0.3-1.7-0.7-2.3C537,304.7,536.4,304.4,535.5,304.4z"/>
				<path class="st21" d="M549.7,302.5c0.5,0,0.9,0,1.3,0.1l-0.2,2.4c-0.4-0.1-0.7-0.1-1.1-0.1c-1,0-1.8,0.3-2.5,1
					c-0.6,0.7-1,1.5-1,2.6v6.3h-2.6v-12h2l0.3,2.1h0.1c0.4-0.7,0.9-1.3,1.6-1.7C548.3,302.7,548.9,302.5,549.7,302.5z"/>
			</g>
			<g id="XMLID_37_">
				<path id="XMLID_39_" class="st32" d="M538.8,116.3c-1.2,1.6-2.6,2.8-4.3,3.8c-1.8,0.9-3.7,1.5-5.7,1.9c-2.1,0.3-4,0.5-5.9,0.5
					h-1.2c-0.4,0-0.7,0-1.1-0.1v0.4c0,1.1,0.2,2,0.5,2.8c0.3,0.8,0.8,1.4,1.3,1.9c0.5,0.5,1.1,0.9,1.8,1.1c0.7,0.3,1.3,0.4,2,0.4
					c1.9,0,3.5-0.4,4.8-1.3c1.3-0.9,2.5-1.9,3.4-3.1c2.3,1.2,3.5,2.6,3.5,4.3c0,1-0.3,1.8-0.8,2.5c-0.6,0.7-1.2,1.3-1.8,1.7
					c-1,0.7-2.3,1.3-3.9,1.9c-1.6,0.6-3.7,0.9-6.3,0.9c-2.5,0-4.6-0.4-6.3-1.1c-1.7-0.8-3.1-1.8-4.1-3c-1.1-1.3-1.8-2.7-2.3-4.4
					c-0.5-1.7-0.7-3.4-0.7-5.2c0-2.8,0.4-5.5,1.3-8c0.9-2.6,2.1-4.8,3.7-6.7c1.6-1.9,3.6-3.4,5.9-4.5c2.3-1.1,5-1.7,8-1.7
					c1.6,0,3,0.2,4.3,0.7c1.2,0.5,2.3,1.1,3.1,1.9c0.9,0.8,1.5,1.7,1.9,2.8c0.4,1.1,0.7,2.2,0.7,3.5
					C540.5,112.6,539.9,114.7,538.8,116.3 M531.5,109.1c-0.5-0.6-1.3-0.9-2.4-0.9c-2,0-3.6,0.8-5,2.3c-1.4,1.6-2.3,3.6-2.9,6.2
					c0.4,0,0.8,0.1,1.1,0.1h1c1.1,0,2.1-0.1,3.2-0.3c1.1-0.2,2-0.6,2.9-1.1c0.9-0.5,1.6-1.1,2.1-1.8c0.5-0.7,0.8-1.6,0.8-2.5
					C532.1,110.4,531.9,109.7,531.5,109.1 M510.3,130.3c1.1,2,2.1,4,3.3,4.7c-1.5,0-5.7,0-6,0c-2.2,0-4.3,0-6.2-2.4
					c-1.1-1.6-6.9-12.9-7.3-13.9l-2.5,15.2c-0.1,0.6-0.5,1-1,1h-7.3c-0.6,0-1-0.5-1-1l8-47.7c0.6-0.1,3.1-0.3,3.5-0.3
					c1.8,0,3.2,0.4,3.9,1.3c0.8,0.9,1.1,1.8,1.1,3.2c0,0.3-0.1,1.6-0.2,1.8l-3.9,23.1c0.3-0.6,9.7-11.5,9.7-11.5
					c0.8-0.9,1.6-1.6,2.5-1.9c0.8-0.4,1.8-0.6,2.9-0.6c1.2,0,2.2,0.2,3,0.7c0.8,0.5,1.6,1.1,2.2,1.8l-11.8,13
					C503.1,117,508.9,128.1,510.3,130.3 M479.8,96.5c-1.5,0-2.6-0.5-3.4-1.4c-0.8-0.9-1.2-2-1.2-3.2c0-1.9,0.6-3.4,1.7-4.4
					c1.1-1,2.4-1.5,3.9-1.5c1.5,0,2.6,0.5,3.4,1.4c0.8,0.9,1.2,2.1,1.2,3.5c0,1.8-0.6,3.2-1.7,4.2C482.6,96,481.3,96.5,479.8,96.5
					 M477.5,102c1.9,0,3.2,0.4,4,1.3c0.8,0.9,1.3,1.9,1.2,3.3c0,0.3-0.2,1.4-0.2,1.7l-4.3,25.6c-0.1,0.6-0.5,1-1,1H470
					c-0.6,0-1-0.5-1-1l5.3-31.7C474.8,102.2,477.1,102,477.5,102 M467.8,115.5l-3.1,18.5c-0.1,0.6-0.5,1-1,1l-7.2,0
					c-0.6,0-1.1-0.5-1.1-1l3.3-19.7c0-0.1,0-0.2,0-0.3c0-0.5,0.2-0.9,0.2-1.4c0-1.1-0.2-2-0.7-2.7s-1.5-1.1-2.9-1.1
					c-1.5,0-2.8,0.6-3.9,1.9c-0.9,1-1.6,2.3-1.9,3.8l-3.3,19.5c-0.1,0.6-0.5,1-1,1l-7.3,0c-0.6,0-1-0.5-1-1l8-47.7
					c0.6-0.1,2.7-0.3,3.1-0.3c1.9,0,3.3,0.5,4.1,1.4c1.4,1.5,1.2,3.9,1.2,4.2c0,0.3-0.1,0.6-0.1,0.8l-2.1,12.8
					c1.1-1.1,2.2-2,3.6-2.7c1.4-0.8,3.2-1.1,5.4-1.1c2.1,0,3.8,0.5,5,1.4c1.3,0.9,2.2,2.1,2.7,3.5c0.5,1.3,0.7,2.8,0.7,4.4
					c0,0.8-0.1,1.6-0.2,2.4C468.1,113.9,468,114.7,467.8,115.5"/>
				
					<linearGradient id="XMLID_2_" gradientUnits="userSpaceOnUse" x1="503.8452" y1="467.8248" x2="552.246" y2="467.8248" gradientTransform="matrix(1 0 0 -1 0 570)">
					<stop  offset="0" style="stop-color:#61C099"/>
					<stop  offset="0.25" style="stop-color:#31BDBE"/>
					<stop  offset="0.75" style="stop-color:#31BDBE"/>
					<stop  offset="1" style="stop-color:#2CBBED"/>
				</linearGradient>
				<path id="XMLID_38_" class="st33" d="M539.7,92c-0.9,0-1.7,0.1-2.6,0.3v0c-1.4-5.1-5.8-8.5-11.1-8.8c-6.4-0.5-10.3,6.1-10.3,6.7
					c-5.6-3.1-12,1.4-11.8,9.1h0.4c0.3-8.3,7.8-9.8,10.9-7.8c-0.5,1.3-0.7,2.7-0.7,4.1c0,0.6,0,1.1,0.1,1.6h0.2c0-2,0.5-3.8,1.2-5.4
					c0.2-0.4,0.3-0.7,0.5-1.1h0c1.9-3.5,5.2-5.8,9-5.8c4.5,0,8.4,3.3,10,8l0,0c0.2,0.6,0.4,1.2,0.5,1.9c0.5-0.2,1-0.4,1.6-0.6
					c0.7-0.2,1.4-0.3,2.1-0.3c6.1,0,11.1,6.4,11.1,14.3c0,5.3-2.2,9.9-5.5,12.3v0.4c0.1,0,0.1-0.1,0.2-0.1c4.1-2.5,6.9-7.7,6.9-13.6
					C552.2,98.8,546.6,92,539.7,92"/>
			</g>
		</g>
		<g>
			<path class="st21" d="M394.5,434.7c0,2-0.7,3.6-2.2,4.7c-1.4,1.1-3.5,1.7-6,1.7c-2.5,0-4.6-0.4-6.3-1.2v-3.5
				c1,0.5,2.1,0.9,3.3,1.1s2.2,0.4,3.2,0.4c1.5,0,2.5-0.3,3.2-0.8s1-1.3,1-2.2c0-0.8-0.3-1.6-1-2.1c-0.6-0.6-2-1.3-3.9-2.1
				c-2.1-0.8-3.5-1.8-4.3-2.9c-0.8-1.1-1.3-2.4-1.3-3.9c0-1.9,0.7-3.4,2-4.4c1.3-1.1,3.1-1.6,5.4-1.6c2.2,0,4.3,0.5,6.4,1.4l-1.2,3
				c-2-0.8-3.8-1.3-5.4-1.3c-1.2,0-2.1,0.3-2.7,0.8c-0.6,0.5-0.9,1.2-0.9,2.1c0,0.6,0.1,1.1,0.4,1.5c0.2,0.4,0.7,0.8,1.2,1.2
				c0.6,0.4,1.6,0.9,3.1,1.5c1.7,0.7,2.9,1.3,3.6,1.9c0.8,0.6,1.3,1.3,1.7,2C394.3,432.8,394.5,433.7,394.5,434.7z"/>
			<path class="st21" d="M404.9,438.2c0.9,0,1.8-0.1,2.7-0.4v2.7c-0.4,0.2-0.9,0.3-1.6,0.4s-1.3,0.2-2,0.2c-3.4,0-5.1-1.8-5.1-5.4
				v-9.2h-2.3v-1.6l2.5-1.3l1.2-3.6h2.2v3.8h4.9v2.7h-4.9v9.1c0,0.9,0.2,1.5,0.7,1.9C403.6,438,404.2,438.2,404.9,438.2z"/>
			<path class="st21" d="M426,432.3c0,2.8-0.7,5-2.1,6.5c-1.4,1.6-3.4,2.3-6,2.3c-1.6,0-3-0.4-4.2-1.1c-1.2-0.7-2.2-1.8-2.8-3.1
				c-0.7-1.3-1-2.9-1-4.7c0-2.8,0.7-4.9,2.1-6.5c1.4-1.6,3.4-2.3,6-2.3c2.5,0,4.4,0.8,5.9,2.4C425.3,427.4,426,429.6,426,432.3z
				 M413.6,432.3c0,3.9,1.5,5.9,4.4,5.9c2.9,0,4.3-2,4.3-5.9c0-3.9-1.5-5.8-4.3-5.8c-1.5,0-2.6,0.5-3.3,1.5
				C414,428.9,413.6,430.4,413.6,432.3z"/>
			<path class="st21" d="M437.1,441.1c-2.6,0-4.5-0.8-5.9-2.3c-1.3-1.5-2-3.7-2-6.5c0-2.9,0.7-5.1,2.1-6.6c1.4-1.5,3.4-2.3,6.1-2.3
				c1.8,0,3.4,0.3,4.9,1l-1.1,2.9c-1.5-0.6-2.8-0.9-3.8-0.9c-3,0-4.4,2-4.4,5.9c0,1.9,0.4,3.4,1.1,4.3s1.8,1.4,3.2,1.4
				c1.6,0,3.1-0.4,4.6-1.2v3.2c-0.6,0.4-1.3,0.7-2.1,0.8C439,441.1,438.1,441.1,437.1,441.1z"/>
			<path class="st21" d="M449.4,431.8l2.1-2.6l5.2-5.5h4.2l-6.9,7.3l7.3,9.7h-4.3l-5.5-7.5l-2,1.6v5.8h-3.6v-24h3.6v11.7
				L449.4,431.8L449.4,431.8L449.4,431.8z"/>
			<path class="st21" d="M484.1,440.8l-0.5-2.2h-0.2c-0.5,0.8-1.2,1.4-2.2,1.9c-0.9,0.5-2,0.7-3.2,0.7c-2.1,0-3.6-0.5-4.6-1.5
				c-1-1-1.5-2.6-1.5-4.7v-11.1h3.7v10.5c0,1.3,0.3,2.3,0.8,2.9c0.5,0.7,1.4,1,2.5,1c1.5,0,2.6-0.5,3.4-1.4c0.7-0.9,1.1-2.4,1.1-4.6
				v-8.5h3.6v17.1L484.1,440.8L484.1,440.8z"/>
			<path class="st21" d="M500.8,441.1c-2.2,0-3.8-0.8-5-2.3h-0.2c0.1,1.4,0.2,2.3,0.2,2.6v7h-3.6v-24.6h2.9c0.1,0.3,0.3,1.1,0.5,2.3
				h0.2c1.1-1.7,2.8-2.6,5.1-2.6c2.1,0,3.8,0.8,5,2.3s1.8,3.7,1.8,6.5c0,2.8-0.6,5-1.8,6.5C504.6,440.4,502.9,441.1,500.8,441.1z
				 M499.9,426.4c-1.4,0-2.5,0.4-3.2,1.3c-0.7,0.8-1,2.2-1,4v0.5c0,2.1,0.3,3.6,1,4.5c0.7,0.9,1.7,1.4,3.2,1.4
				c1.3,0,2.2-0.5,2.9-1.5c0.7-1,1-2.5,1-4.4c0-1.9-0.3-3.4-1-4.3C502.2,426.9,501.2,426.4,499.9,426.4z"/>
			<path class="st21" d="M517.6,441.1c-2.1,0-3.8-0.8-5-2.3c-1.2-1.5-1.8-3.7-1.8-6.5c0-2.8,0.6-5,1.8-6.5c1.2-1.6,2.9-2.3,5-2.3
				c2.2,0,3.9,0.8,5.1,2.5h0.2c-0.2-1.2-0.3-2.2-0.3-2.9v-6.2h3.6v24h-2.8l-0.6-2.2h-0.2C521.5,440.3,519.8,441.1,517.6,441.1z
				 M518.6,438.2c1.5,0,2.6-0.4,3.3-1.3c0.7-0.8,1-2.2,1-4.1v-0.5c0-2.1-0.3-3.7-1-4.6s-1.8-1.4-3.3-1.4c-1.3,0-2.3,0.5-2.9,1.5
				c-0.7,1-1,2.5-1,4.4c0,1.9,0.3,3.3,1,4.3C516.2,437.7,517.2,438.2,518.6,438.2z"/>
			<path class="st21" d="M542.2,440.8l-0.7-2.4h-0.1c-0.8,1-1.7,1.7-2.5,2.1c-0.8,0.4-1.9,0.6-3.2,0.6c-1.7,0-3-0.5-3.9-1.4
				c-0.9-0.9-1.4-2.2-1.4-3.8c0-1.8,0.7-3.1,2-4c1.3-0.9,3.3-1.4,6-1.5l2.9-0.1v-0.9c0-1.1-0.3-1.9-0.8-2.4
				c-0.5-0.5-1.3-0.8-2.4-0.8c-0.9,0-1.7,0.1-2.5,0.4c-0.8,0.3-1.6,0.6-2.3,0.9l-1.2-2.6c0.9-0.5,1.9-0.9,3-1.1
				c1.1-0.3,2.1-0.4,3.1-0.4c2.2,0,3.8,0.5,4.9,1.4s1.7,2.4,1.7,4.5v11.5L542.2,440.8L542.2,440.8z M536.8,438.4
				c1.3,0,2.4-0.4,3.2-1.1c0.8-0.7,1.2-1.8,1.2-3.1v-1.5l-2.2,0.1c-1.7,0.1-2.9,0.3-3.7,0.9c-0.8,0.5-1.2,1.3-1.2,2.3
				c0,0.8,0.2,1.4,0.7,1.8C535.2,438.2,535.9,438.4,536.8,438.4z"/>
			<path class="st21" d="M556.2,438.2c0.9,0,1.8-0.1,2.7-0.4v2.7c-0.4,0.2-0.9,0.3-1.6,0.4s-1.3,0.2-2,0.2c-3.4,0-5.1-1.8-5.1-5.4
				v-9.2h-2.3v-1.6l2.5-1.3l1.2-3.6h2.2v3.8h4.9v2.7h-4.9v9.1c0,0.9,0.2,1.5,0.7,1.9C554.9,438,555.5,438.2,556.2,438.2z"/>
			<path class="st21" d="M569.7,441.1c-2.7,0-4.7-0.8-6.2-2.3s-2.2-3.7-2.2-6.4c0-2.8,0.7-5,2.1-6.6c1.4-1.6,3.3-2.4,5.7-2.4
				c2.3,0,4,0.7,5.3,2.1c1.3,1.4,2,3.2,2,5.6v2H565c0.1,1.7,0.5,2.9,1.3,3.8c0.8,0.9,2,1.3,3.6,1.3c1,0,1.9-0.1,2.8-0.3
				c0.9-0.2,1.8-0.5,2.8-0.9v2.9c-0.9,0.4-1.8,0.7-2.7,0.9C571.9,441.1,570.9,441.1,569.7,441.1z M569,426.2c-1.2,0-2.1,0.4-2.8,1.1
				c-0.7,0.7-1.1,1.8-1.2,3.2h7.7c0-1.4-0.4-2.5-1-3.2C571.1,426.6,570.2,426.2,569,426.2z"/>
			<path class="st21" d="M586.2,441.1c-2.1,0-3.8-0.8-5-2.3c-1.2-1.5-1.8-3.7-1.8-6.5c0-2.8,0.6-5,1.8-6.5c1.2-1.6,2.9-2.3,5-2.3
				c2.2,0,3.9,0.8,5.1,2.5h0.2c-0.2-1.2-0.3-2.2-0.3-2.9v-6.2h3.6v24h-2.8l-0.6-2.2h-0.2C590.1,440.3,588.4,441.1,586.2,441.1z
				 M587.2,438.2c1.5,0,2.6-0.4,3.3-1.3c0.7-0.8,1-2.2,1-4.1v-0.5c0-2.1-0.3-3.7-1-4.6c-0.7-0.9-1.8-1.4-3.3-1.4
				c-1.3,0-2.3,0.5-2.9,1.5c-0.7,1-1,2.5-1,4.4c0,1.9,0.3,3.3,1,4.3C584.8,437.7,585.8,438.2,587.2,438.2z"/>
			<path class="st21" d="M599.6,438.9c0-0.8,0.2-1.3,0.6-1.7s1-0.6,1.7-0.6c0.7,0,1.3,0.2,1.7,0.6c0.4,0.4,0.6,1,0.6,1.7
				c0,0.7-0.2,1.3-0.6,1.7c-0.4,0.4-1,0.6-1.7,0.6c-0.7,0-1.3-0.2-1.7-0.6C599.8,440.3,599.6,439.7,599.6,438.9z M603.3,434h-2.7
				l-0.8-15.7h4.3L603.3,434z"/>
		</g>
		<polygon class="st31" points="572.6,31.3 582.9,17.3 589.8,33.2 		"/>
		<polygon class="st31" points="384.9,64.2 390.9,47.9 402,61.4 		"/>
		<g>
			<path class="st34" d="M358.7,322c-0.9-0.9-1.6-1.7-2.4-2.6l0.7-0.7c0.8,0.9,1.6,1.7,2.4,2.6L358.7,322z M353.8,316.7
				c-0.9-1-1.7-1.9-2.5-2.9l0.8-0.7c0.9,1,1.6,1.9,2.5,2.9L353.8,316.7z M348.8,310.9c-0.8-1-1.6-2-2.4-3l0.8-0.6c0.8,1,1.5,2,2.4,3
				L348.8,310.9z M344.1,304.8c-0.8-1-1.5-2.1-2.3-3l0.8-0.6c0.8,1,1.5,2.1,2.3,3L344.1,304.8z M339.7,298.6c-0.8-1-1.4-2.1-2.1-3.1
				l0.8-0.5c0.7,1,1.4,2.1,2.1,3.1L339.7,298.6z M335.5,292.1c-0.7-1-1.3-2.2-2-3.2l0.9-0.5c0.7,1,1.3,2.2,2,3.2L335.5,292.1z
				 M331.6,285.5c-0.7-1.1-1.2-2.2-1.8-3.3l0.9-0.5c0.6,1.1,1.2,2.2,1.8,3.3L331.6,285.5z M328,278.8c-0.6-1.1-1.1-2.3-1.7-3.4
				l0.9-0.4c0.6,1.1,1.1,2.3,1.7,3.4L328,278.8z M324.6,271.9c-0.6-1.1-1-2.3-1.5-3.5l0.9-0.4c0.5,1.1,1,2.3,1.5,3.4L324.6,271.9z
				 M321.6,264.9c-0.5-1.1-1-2.4-1.4-3.5l0.9-0.4c0.5,1.1,1,2.4,1.4,3.5L321.6,264.9z M318.8,257.8c-0.5-1.2-0.9-2.4-1.2-3.6l1-0.3
				c0.4,1.2,0.9,2.4,1.2,3.6L318.8,257.8z M316.4,250.6c-0.4-1.2-0.8-2.5-1.1-3.6l1-0.3c0.4,1.2,0.8,2.5,1.1,3.6L316.4,250.6z
				 M314.2,243.3c-0.4-1.2-0.7-2.5-1-3.7l1-0.2c0.3,1.2,0.7,2.5,1,3.7L314.2,243.3z M312.3,235.8c-0.3-1.2-0.6-2.5-0.9-3.7l1-0.2
				c0.3,1.2,0.6,2.5,0.9,3.7L312.3,235.8z M310.6,228.3c-0.3-1.2-0.5-2.6-0.7-3.8l1-0.2c0.2,1.2,0.5,2.5,0.7,3.7L310.6,228.3z
				 M309.4,220.8c-0.2-1.2-0.4-2.6-0.6-3.8l1-0.1c0.2,1.2,0.4,2.6,0.6,3.8L309.4,220.8z M308.5,213.2c-0.1-1.2-0.3-2.6-0.4-3.8
				l1-0.1c0.1,1.2,0.3,2.6,0.4,3.8L308.5,213.2z M307.8,205.6c-0.1-1.2-0.2-2.6-0.2-3.8h1c0.1,1.2,0.1,2.6,0.2,3.8H307.8z
				 M307.4,197.9c0-1.2-0.1-2.6-0.1-3.8h1c0,1.2,0,2.6,0.1,3.8H307.4z M308.3,190.3h-1c0-1.2,0-2.6,0.1-3.8h1
				C308.3,187.8,308.3,189,308.3,190.3L308.3,190.3z M308.6,182.7h-1c0.1-1.2,0.2-2.6,0.2-3.8l1,0.1
				C308.6,180.1,308.6,181.4,308.6,182.7L308.6,182.7z M309.1,175.1l-1-0.1c0.1-1.2,0.3-2.6,0.4-3.8l1,0.1
				C309.3,172.5,309.1,173.8,309.1,175.1L309.1,175.1z M310,167.5l-1-0.1c0.2-1.2,0.4-2.6,0.6-3.8l1,0.2
				C310.3,165,310.1,166.2,310,167.5L310,167.5z M311.1,160l-1-0.2c0.2-1.2,0.5-2.5,0.8-3.8l1,0.2
				C311.6,157.5,311.3,158.7,311.1,160L311.1,160z M312.6,152.5l-1-0.2c0.3-1.2,0.6-2.5,0.9-3.7l1,0.2
				C313.2,150.1,312.9,151.2,312.6,152.5L312.6,152.5z M314.5,145.1l-1-0.3c0.4-1.2,0.7-2.5,1-3.7l1,0.3
				C315.1,142.6,314.7,143.9,314.5,145.1L314.5,145.1z M316.6,137.9l-1-0.3c0.4-1.2,0.8-2.4,1.2-3.6l1,0.3
				C317.4,135.4,317,136.5,316.6,137.9L316.6,137.9z M319.1,130.6l-0.9-0.4c0.5-1.2,0.9-2.4,1.3-3.6l0.9,0.4
				C320,128.3,319.5,129.4,319.1,130.6L319.1,130.6z M322,123.7l-0.9-0.5c0.6-1,1.1-2.2,1.7-3.3l0.9,0.4
				C323.1,121.4,322.5,122.6,322,123.7L322,123.7z M325.1,116.7l-0.9-0.4c0.5-1.1,1-2.4,1.5-3.5l0.9,0.4
				C326.1,114.3,325.5,115.5,325.1,116.7L325.1,116.7z M328.4,109.8l-0.9-0.5c0.7-1.1,1.2-2.2,1.8-3.3l0.9,0.5
				C329.6,107.5,328.9,108.7,328.4,109.8L328.4,109.8z M332.1,103.1l-0.9-0.5c0.7-1.1,1.3-2.2,2-3.2l0.9,0.5
				C333.4,100.9,332.7,102.1,332.1,103.1L332.1,103.1z M336.1,96.7l-0.8-0.5c0.7-1,1.3-2.2,2.1-3.2l0.8,0.5
				C337.4,94.5,336.7,95.6,336.1,96.7L336.1,96.7z M340.3,90.3l-0.8-0.6c0.8-1,1.4-2.1,2.2-3.1l0.8,0.6
				C341.7,88.2,340.9,89.2,340.3,90.3L340.3,90.3z M344.7,84.1l-0.8-0.6c0.8-1,1.5-2,2.3-3L347,81C346.3,82.1,345.4,83,344.7,84.1
				L344.7,84.1z M349.4,78.1l-0.8-0.6c0.8-1,1.6-2,2.4-3l0.8,0.6C350.9,76.1,350.2,77.1,349.4,78.1L349.4,78.1z M354.2,72.3
				l-0.8-0.7c0.9-1,1.7-1.9,2.6-2.9l0.7,0.7C356,70.4,355.1,71.3,354.2,72.3L354.2,72.3z M359.4,66.7l-0.7-0.7
				c0.9-1,1.8-1.8,2.7-2.8l0.7,0.7C361.1,64.8,360.2,65.7,359.4,66.7L359.4,66.7z M364.7,61.2l-0.7-0.7c1-0.9,1.8-1.8,2.8-2.7
				l0.7,0.7C366.5,59.4,365.6,60.3,364.7,61.2L364.7,61.2z M370.2,55.9l-0.7-0.7c1-0.9,1.9-1.7,2.9-2.6l0.7,0.8
				C372,54.2,371.1,55.1,370.2,55.9L370.2,55.9z M376,50.9l-0.6-0.8c0.6-0.4,1.2-0.7,1.9-0.9c0.6-0.2,1-0.4,1.5-0.8l0.6,0.8
				c-0.6,0.4-1.2,0.7-1.9,0.9C376.9,50.3,376.4,50.6,376,50.9L376,50.9z M382.3,47l-0.6-0.8c1-0.8,2-1.5,3-2.3l0.6,0.8
				C384.3,45.3,383.3,46.1,382.3,47L382.3,47z M388.4,42.3l-0.6-0.8c1-0.8,2.1-1.5,3.1-2.2l0.6,0.8
				C390.4,40.9,389.4,41.5,388.4,42.3L388.4,42.3z M394.7,38l-0.5-0.8c1-0.7,2.1-1.4,3.2-2.1l0.5,0.9
				C396.8,36.7,395.7,37.4,394.7,38L394.7,38z M401.2,34l-0.5-0.9c1.1-0.7,2.2-1.2,3.3-1.9l0.5,0.9C403.3,32.7,402.1,33.4,401.2,34
				L401.2,34z M407.8,30.3l-0.5-0.9c1.1-0.7,2.3-1.2,3.4-1.8l0.5,0.9C410,29.1,408.9,29.6,407.8,30.3L407.8,30.3z M414.6,26.8
				l-0.4-0.9c1.1-0.6,2.3-1.1,3.4-1.6l0.4,0.9C416.8,25.6,415.6,26.2,414.6,26.8L414.6,26.8z M421.5,23.6l-0.4-0.9
				c1.1-0.5,2.4-1,3.5-1.5l0.4,0.9C423.7,22.6,422.5,23.1,421.5,23.6L421.5,23.6z M428.5,20.8l-0.4-0.9c1.2-0.5,2.4-0.9,3.6-1.3
				l0.3,0.9c-1.2,0.4-2.5,0.9-3.7,1.2L428.5,20.8z M551.6,18.5c-1.2-0.4-2.4-0.9-3.6-1.2l0.3-1c1.2,0.4,2.4,0.8,3.6,1.2L551.6,18.5z
				 M435.7,18.2l-0.3-0.9c1.2-0.4,2.4-0.8,3.6-1.1l0.3,1C438.1,17.5,436.8,17.8,435.7,18.2L435.7,18.2z M544.3,16.1
				c-1.2-0.4-2.5-0.7-3.6-1l0.3-1c1.2,0.4,2.5,0.7,3.7,1L544.3,16.1z M442.9,15.9l-0.3-1c1.2-0.4,2.5-0.7,3.7-1l0.3,1
				C445.4,15.3,444.1,15.6,442.9,15.9L442.9,15.9z M536.9,14.1c-1.2-0.3-2.5-0.6-3.7-0.9l0.2-1c1.2,0.3,2.5,0.6,3.7,0.9L536.9,14.1z
				 M450.2,13.9l-0.2-1c1.2-0.3,2.5-0.6,3.7-0.9l0.2,1C452.7,13.4,451.4,13.6,450.2,13.9z M529.5,12.4c-1.2-0.3-2.5-0.5-3.7-0.8
				l0.2-1c1.2,0.2,2.6,0.5,3.8,0.8L529.5,12.4z M457.6,12.3l-0.2-1c1.2-0.3,2.5-0.5,3.8-0.7l0.2,1C460.1,11.8,458.9,12.1,457.6,12.3
				z M522,11.1c-1.2-0.2-2.6-0.4-3.8-0.6l0.1-1c1.2,0.2,2.6,0.4,3.8,0.6L522,11.1z M465.2,11l-0.1-1c1.2-0.2,2.6-0.4,3.8-0.6l0.1,1
				C467.6,10.6,466.4,10.8,465.2,11L465.2,11z M514.5,10c-1.2-0.2-2.6-0.3-3.8-0.4l0.1-1c1.2,0.1,2.6,0.3,3.8,0.4L514.5,10z
				 M472.7,9.9l-0.1-1c1.2-0.2,2.6-0.3,3.8-0.4l0.1,1C475.2,9.7,473.9,9.8,472.7,9.9L472.7,9.9z M506.8,9.3
				c-1.2-0.1-2.6-0.2-3.8-0.3V8c1.2,0.1,2.6,0.2,3.8,0.3V9.3z M480.2,9.3l-0.1-1c1.2-0.1,2.6-0.2,3.8-0.2v1
				C482.8,9.2,481.5,9.2,480.2,9.3L480.2,9.3z M499.2,8.9c-1.2,0-2.6-0.1-3.8-0.1v-1c1.2,0,2.6,0,3.8,0.1V8.9z M487.8,8.9v-1
				c1.2,0,2.6-0.1,3.8-0.1v1C490.4,8.9,489.1,8.9,487.8,8.9L487.8,8.9z"/>
			<path class="st34" d="M614.6,322.6l-0.7-0.7c1-0.9,1.8-1.7,2.8-2.7l0.7,0.7C616.4,320.8,615.6,321.7,614.6,322.6z M620,317.1
				l-0.7-0.7c0.9-1,1.7-1.8,2.7-2.8l0.7,0.7C621.8,315.3,620.9,316.3,620,317.1z M625.3,311.6l-0.8-0.7c0.9-1,1.7-1.9,2.5-2.9
				l0.8,0.7C626.9,309.7,626,310.7,625.3,311.6L625.3,311.6z M630.2,305.7l-0.8-0.6c0.8-1,1.6-2,2.4-3l0.8,0.6
				C631.7,303.8,631,304.8,630.2,305.7L630.2,305.7z M634.9,299.7l-0.8-0.6c0.8-1,1.5-2,2.2-3l0.8,0.6
				C636.4,297.7,635.6,298.7,634.9,299.7L634.9,299.7z M639.3,293.5l-0.8-0.6c0.7-1,1.4-2.1,2.1-3.1l0.8,0.5
				C640.8,291.3,640,292.5,639.3,293.5L639.3,293.5z M643.5,287.1l-0.8-0.5c0.7-1,1.3-2.2,2-3.2l0.9,0.5
				C644.8,284.9,644.1,286,643.5,287.1L643.5,287.1z M647.4,280.5l-0.9-0.5c0.7-1.1,1.2-2.2,1.8-3.3l0.9,0.5
				C648.6,278.3,647.9,279.3,647.4,280.5L647.4,280.5z M650.9,273.7l-0.9-0.5c0.6-1.1,1.1-2.3,1.7-3.4l0.9,0.4
				C652,271.4,651.5,272.6,650.9,273.7L650.9,273.7z M654.2,266.9l-0.9-0.4c0.5-1.1,1-2.3,1.5-3.5l0.9,0.4
				C655.3,264.5,654.7,265.7,654.2,266.9L654.2,266.9z M657.2,259.8l-0.9-0.4c0.5-1.1,1-2.4,1.3-3.5l0.9,0.4
				C658.1,257.4,657.6,258.7,657.2,259.8L657.2,259.8z M659.8,252.7l-0.9-0.3c0.4-1.2,0.9-2.4,1.2-3.6l1,0.3
				C660.7,250.3,660.3,251.4,659.8,252.7L659.8,252.7z M662.2,245.5l-1-0.3c0.4-1.2,0.8-2.4,1-3.6l1,0.3
				C663,243,662.6,244.2,662.2,245.5L662.2,245.5z M664.2,238l-1-0.2c0.3-1.2,0.6-2.5,0.9-3.7l1,0.2
				C664.9,235.6,664.6,236.8,664.2,238L664.2,238z M665.9,230.6l-1-0.2c0.3-1.2,0.5-2.5,0.8-3.7l1,0.2
				C666.5,228.1,666.2,229.4,665.9,230.6L665.9,230.6z M667.3,223.1l-1-0.2c0.2-1.2,0.4-2.5,0.6-3.7l1,0.1
				C667.7,220.6,667.5,221.8,667.3,223.1L667.3,223.1z M668.4,215.6l-1-0.1c0.2-1.2,0.3-2.6,0.4-3.8l1,0.1
				C668.7,213,668.6,214.3,668.4,215.6L668.4,215.6z M669.2,207.9l-1-0.1c0.1-1.2,0.2-2.6,0.3-3.8h1
				C669.3,205.4,669.3,206.7,669.2,207.9L669.2,207.9z M669.5,200.3h-1c0-1.2,0.1-2.6,0.1-3.8h1C669.6,197.8,669.6,199,669.5,200.3
				L669.5,200.3z M668.7,192.7c0-1.2,0-2.6-0.1-3.8h1c0,1.2,0.1,2.6,0.1,3.8H668.7z M668.4,185.1c-0.1-1.2-0.2-2.6-0.3-3.8l1-0.1
				c0.1,1.2,0.2,2.6,0.3,3.8L668.4,185.1z M667.8,177.5c-0.1-1.2-0.3-2.6-0.4-3.8l1-0.1c0.2,1.2,0.3,2.6,0.4,3.8L667.8,177.5z
				 M667,170c-0.2-1.2-0.4-2.5-0.6-3.8l1-0.2c0.2,1.2,0.4,2.6,0.6,3.8L667,170z M665.7,162.4c-0.2-1.2-0.5-2.5-0.8-3.7l1-0.2
				c0.3,1.2,0.5,2.5,0.8,3.7L665.7,162.4z M664.2,155c-0.3-1.2-0.6-2.5-0.9-3.7l1-0.2c0.3,1.2,0.7,2.5,1,3.7L664.2,155z
				 M662.3,147.6c-0.4-1.2-0.7-2.5-1-3.6l1-0.3c0.4,1.2,0.8,2.5,1,3.7L662.3,147.6z M660.1,140.4c-0.4-1.2-0.8-2.4-1.2-3.6l0.9-0.3
				c0.4,1.2,0.9,2.4,1.2,3.6L660.1,140.4z M657.5,133.1c-0.5-1.2-1-2.4-1.4-3.5l0.9-0.4c0.5,1.1,1,2.4,1.4,3.6L657.5,133.1z
				 M654.7,126.1c-0.5-1.1-1-2.4-1.5-3.5l0.9-0.4c0.6,1.1,1,2.4,1.5,3.5L654.7,126.1z M651.5,119.1c-0.6-1.1-1.1-2.3-1.7-3.4
				l0.9-0.5c0.6,1.1,1.1,2.3,1.7,3.4L651.5,119.1z M648.1,112.3c-0.6-1.1-1.2-2.3-1.8-3.3l0.9-0.5c0.7,1.1,1.2,2.2,1.8,3.3
				L648.1,112.3z M644.4,105.6c-0.7-1-1.3-2.2-2-3.2l0.8-0.5c0.7,1,1.3,2.2,2,3.2L644.4,105.6z M640.4,99.1c-0.7-1-1.4-2.1-2.1-3.1
				l0.8-0.6c0.8,1,1.4,2.1,2.1,3.2L640.4,99.1z M636.1,92.9c-0.8-1-1.5-2.1-2.3-3l0.8-0.6c0.8,1,1.5,2.1,2.3,3L636.1,92.9z
				 M631.6,86.8c-0.8-1-1.5-2-2.4-3l0.8-0.6c0.8,1,1.6,2,2.4,3L631.6,86.8z M626.8,80.9c-0.9-1-1.6-1.9-2.5-2.9l0.8-0.7
				c0.9,1,1.7,1.9,2.5,2.9L626.8,80.9z M621.7,75.1c-0.9-1-1.7-1.8-2.7-2.8l0.7-0.7c0.9,1,1.8,1.8,2.7,2.8L621.7,75.1z M616.4,69.7
				c-0.9-0.9-1.8-1.8-2.8-2.7l0.7-0.7c1,0.9,1.8,1.8,2.8,2.7L616.4,69.7z M372.3,67.8l-0.7-0.7c1-0.9,1.8-1.7,2.8-2.6l0.7,0.7
				C374.2,66.1,373.3,67,372.3,67.8L372.3,67.8z M610.9,64.6c-1-0.9-1.9-1.7-2.9-2.5l0.7-0.8c1,0.9,1.9,1.7,2.9,2.6L610.9,64.6z
				 M378,62.7l-0.7-0.8c1-0.9,1.9-1.7,2.9-2.5l0.6,0.8C379.9,61.1,378.9,61.9,378,62.7L378,62.7z M605.2,59.5c-1-0.8-2-1.6-3-2.4
				l0.6-0.8c1,0.8,2,1.6,3,2.4L605.2,59.5z M383.9,57.8l-0.6-0.8c1-0.8,2-1.6,3-2.4l0.6,0.8C385.8,56.2,384.8,57.1,383.9,57.8z
				 M599.2,54.9c-1-0.8-2-1.5-3-2.3l0.6-0.8c1,0.8,2.1,1.5,3,2.3L599.2,54.9z M389.9,53.2l-0.6-0.8c1-0.8,2.1-1.5,3.1-2.2L393,51
				C391.9,51.7,390.9,52.4,389.9,53.2z M593.1,50.4c-1-0.8-2.1-1.4-3.1-2.1l0.5-0.8c1,0.7,2.1,1.4,3.1,2.1L593.1,50.4z M396,48.8
				l-0.6-0.8c1-0.7,2.1-1.4,3.2-2.1l0.5,0.8C398.2,47.4,397.1,48.1,396,48.8L396,48.8z M586.7,46.2c-1-0.7-2.2-1.3-3.2-2l0.5-0.9
				c1,0.7,2.2,1.3,3.2,2L586.7,46.2z M402.5,44.7l-0.5-0.9c1-0.7,2.2-1.2,3.3-2l0.5,0.9C404.7,43.4,403.6,44.1,402.5,44.7
				L402.5,44.7z M580.2,42.3c-1.1-0.7-2.2-1.2-3.3-1.8l0.5-0.9c1.1,0.7,2.2,1.2,3.3,1.8L580.2,42.3z M409.1,40.9l-0.5-0.9
				c1.1-0.7,2.3-1.2,3.3-1.8l0.5,0.9C411.3,39.7,410.2,40.3,409.1,40.9z M573.6,38.7c-1.1-0.6-2.3-1.1-3.4-1.7l0.4-0.9
				c1.1,0.6,2.3,1.1,3.4,1.7L573.6,38.7z M415.8,37.4l-0.4-0.9c1.1-0.6,2.3-1.1,3.4-1.6l0.4,0.9C418.1,36.3,417,36.9,415.8,37.4z
				 M566.7,35.4c-1.1-0.6-2.3-1-3.4-1.5l0.4-0.9c1.1,0.5,2.3,1,3.5,1.5L566.7,35.4z M422.7,34.1l-0.4-0.9c1.1-0.5,2.4-1,3.5-1.5
				l0.4,0.9C425.1,33.2,423.9,33.6,422.7,34.1L422.7,34.1z M559.8,32.3c-1.1-0.5-2.4-1-3.5-1.4l0.4-0.9c1.2,0.5,2.4,1,3.5,1.4
				L559.8,32.3z M429.8,31.3l-0.4-0.9c1.1-0.5,2.4-1,3.6-1.3l0.3,0.9C432.1,30.3,431,30.8,429.8,31.3L429.8,31.3z M552.7,29.6
				c-1.2-0.5-2.4-0.9-3.6-1.2l0.3-0.9c1.2,0.4,2.4,0.9,3.6,1.2L552.7,29.6z M437,28.7l-0.3-0.9c1.2-0.4,2.4-0.8,3.6-1.1l0.3,1
				C439.4,27.8,438.1,28.2,437,28.7L437,28.7z M545.5,27.2c-1.2-0.4-2.4-0.8-3.6-1l0.3-1c1.2,0.4,2.5,0.7,3.6,1L545.5,27.2z
				 M444.2,26.3l-0.3-1c1.2-0.4,2.5-0.7,3.7-1l0.3,1C446.6,25.6,445.4,25.9,444.2,26.3z M538.2,25.1c-1.2-0.3-2.5-0.7-3.7-1l0.2-1
				c1.2,0.3,2.5,0.6,3.7,1L538.2,25.1z M451.5,24.3l-0.2-1c1.2-0.3,2.5-0.6,3.7-0.9l0.2,1C454,23.7,452.8,24.1,451.5,24.3
				L451.5,24.3z M530.7,23.3c-1.2-0.3-2.5-0.5-3.7-0.8l0.2-1c1.2,0.3,2.5,0.5,3.7,0.8L530.7,23.3z M459,22.7l-0.2-1
				c1.2-0.3,2.6-0.5,3.8-0.7l0.2,1C461.4,22.2,460.2,22.5,459,22.7L459,22.7z M523.3,21.8c-1.2-0.2-2.5-0.4-3.7-0.6l0.2-1
				c1.2,0.2,2.6,0.4,3.8,0.6L523.3,21.8z M466.5,21.4l-0.1-1c1.2-0.2,2.6-0.4,3.8-0.6l0.1,1C469,21,467.7,21.2,466.5,21.4
				L466.5,21.4z M515.8,20.7c-1.2-0.2-2.6-0.3-3.8-0.5l0.1-1c1.2,0.1,2.6,0.3,3.8,0.5L515.8,20.7z M474,20.3l-0.1-1
				c1.2-0.1,2.6-0.3,3.8-0.4l0.1,1C476.6,20.1,475.3,20.2,474,20.3L474,20.3z M508.2,19.9c-1.2-0.1-2.6-0.2-3.8-0.3l0.1-1
				c1.2,0.1,2.6,0.2,3.8,0.3L508.2,19.9z M481.6,19.6l-0.1-1c1.2-0.1,2.6-0.2,3.8-0.2v1C484.2,19.6,482.9,19.6,481.6,19.6
				L481.6,19.6z M500.7,19.5c-1.2-0.1-2.6-0.1-3.8-0.1v-1c1.2,0,2.6,0,3.8,0.1V19.5z M489.2,19.4v-1c1.2,0,2.6,0,3.8-0.1v1
				C491.8,19.4,490.5,19.4,489.2,19.4L489.2,19.4z"/>
			<polygon class="st34" points="554.9,23 559,16 563,23 			"/>
			<polygon class="st34" points="372,73 364.6,76 365.8,68.1 			"/>
		</g>
		<path class="st35" d="M493.1,360.7c-91.7,0-166.4-74.6-166.4-166.4S401.3,28,493.1,28c91.7,0,166.4,74.6,166.4,166.4
			C659.4,286,584.8,360.7,493.1,360.7z M493.1,31.6c-89.7,0-162.7,73-162.7,162.7s73,162.7,162.7,162.7c89.7,0,162.7-73,162.7-162.7
			S582.8,31.6,493.1,31.6z"/>
	</g>
</g>
</svg>
