<?xml version="1.0" encoding="utf-8"?>
<!-- Generator: Adobe Illustrator 21.1.0, SVG Export Plug-In . SVG Version: 6.00 Build 0)  -->
<svg version="1.1" id="Layer_1" xmlns="http://www.w3.org/2000/svg" xmlns:xlink="http://www.w3.org/1999/xlink" x="0px" y="0px"
	 width="979px" height="564px" viewBox="0 0 979 564" style="enable-background:new 0 0 979 564;" xml:space="preserve">
<style type="text/css">
	.st0{opacity:0.6;}
	.st1{opacity:0.5;fill:#EFF7FE;enable-background:new    ;}
	.st2{opacity:0.15;fill:#DFE6EA;enable-background:new    ;}
	.st3{opacity:0.45;fill:#E1F5FB;enable-background:new    ;}
	.st4{opacity:0.3;fill:#D1F0EF;enable-background:new    ;}
	.st5{opacity:0.5;fill:#D1F0EF;enable-background:new    ;}
	.st6{opacity:0.5;fill:#DCE8EF;enable-background:new    ;}
	.st7{opacity:0.2;fill:#FCC8CE;enable-background:new    ;}
	.st8{opacity:0.6;fill:#D5F1F1;enable-background:new    ;}
	.st9{opacity:0.6;fill:#BBE9F9;enable-background:new    ;}
	.st10{fill:#F1FAFA;}
	.st11{opacity:0.2;fill:#FCB9C6;enable-background:new    ;}
	.st12{fill:#FCFDFF;}
	.st13{opacity:0.1;fill:#1DD4FF;enable-background:new    ;}
	.st14{opacity:0.2;fill:#A2EAE0;enable-background:new    ;}
	.st15{fill:#FFFFFF;stroke:#D2D9E3;stroke-width:2;stroke-miterlimit:10;}
	.st16{fill:#F6F8FA;}
	.st17{fill:none;stroke:#D2D9E3;stroke-width:1.5;stroke-miterlimit:10;}
	.st18{fill:#F6F8FA;stroke:#D1D9E3;stroke-miterlimit:10;}
	.st19{fill:none;stroke:#D1D9E3;stroke-miterlimit:10;}
	.st20{fill:#D1D9E3;}
	.st21{fill:none;stroke:#D1D9E3;stroke-width:0.5;stroke-miterlimit:10;}
	.st22{fill:none;stroke:#D1D9E3;stroke-width:2;stroke-miterlimit:10;}
	.st23{fill:#D2D9E3;}
	.st24{fill:#E6F7F6;stroke:#24AAA3;stroke-miterlimit:10;}
	.st25{fill:#231F20;}
</style>
<g id="Layer_2">
	<g id="BG">
		<g id="Layer_2_1_">
			<g class="st0">
				<ellipse class="st1" cx="311.4" cy="298.2" rx="284.9" ry="221.6"/>
				<ellipse class="st2" cx="580.4" cy="175.1" rx="202.4" ry="157.4"/>
				<ellipse class="st3" cx="686.4" cy="309.3" rx="278.2" ry="216.4"/>
				<path class="st4" d="M294.5,369.4c4.3-2.8,14.2,0.2,26.8,4c9,2.7,13.5,5.2,22.6,5.7c4.8,0.3,12,0.7,14.3-2.2
					c4.5-5.6-12.9-20.2-12.5-20.5c0.5-0.3,19.5,22.3,28.6,19.8c2.3-0.6,3.8-3.2,6.9-8.3c4.2-6.9,3.1-8.6,6-10.8
					c4.9-3.7,9.9-0.4,18.5-3.2c8.6-2.9,7.5-7.6,17.1-12.9c6.2-3.5,12-4.5,21.3-6.1c18.8-3.3,21.6,0.7,31-2.9
					c10.5-4,7.9-9.3,21.3-16.9c7.3-4.2,13.8-5.8,24.5-8.6c10.8-2.8,18.6-3.7,32.3-5.4c27.9-3.3,34.7-1.6,38.4-0.4
					c6.4,2.2,6.2,3.8,12.5,6.5c14.2,6,26.3,2.2,42.5,1.8c22.9-0.5,40.6,6.3,60.1,13.7c10.2,3.9,5.1,2.9,37,17.6
					c21.2,9.8,25.3,11.1,33.3,16.5c9,6.2,18.7,12.9,24.5,24.1c3.6,7,3,10.7,9.2,21.6c5,8.7,8.2,11.5,11.1,13.3
					c5.8,3.7,9,2.9,12.5,6.5c5.1,5.3,5,14.1,0.5,16.2c-3,1.4-7.4-0.4-9.2-1.1c-5.9-2.3-5.5-5.2-11.1-8.3c-1-0.6-8.5-4.6-16.6-2.9
					c-0.9,0.2-8.2,1.7-8.8,4.7c-1.5,7.1,37.1,10.3,43.9,27.7c2.6,6.5,0.5,14.4-4.2,19.8c-8.2,9.5-22,8.2-26.3,16.9
					c-3.2,6.3,1.2,13.1,2.3,14.7c9,13.7,38,20.9,57.3,14.4c11.7-4,23.1-14.2,35.1-24.8c5.4-4.8,8.7-8.3,14.8-9
					c9.7-1.1,21.8,5.6,24.5,13.3c4.5,12.7-16.6,27.8-31.9,34.9c-17,7.9-37.7,8.1-78.6,8.3c-33.6,0.1-50.6,0.1-62.4-6.5
					c-13.3-7.4-25.8-21.9-31.4-28.4c-9.5-11.1-13-18.1-22.6-19.8c-10.1-1.8-21.2,3.2-23.6,4.3c-7,3.2-6.3,5-12.5,8.3
					c-15.3,8.1-31.4,3-33.7,7.9c-1.5,3.1,3.6,7.6,8.8,12.2c6.8,6,10.7,6.4,11.1,9.3c0.7,5-9.3,12.4-19.4,12.6
					c-12.6,0.2-15.3-10.9-30.5-13.7c-3.1-0.6-9-1.2-32.3,6.5c-31.4,10.3-30.1,14.6-45.7,17.3c-17.4,3-33,0-48.5-2.9
					c-21-4-21.3-7.5-37-9c-21.8-2-24.1,4.6-43.9,2.9c-13.5-1.2-25.3-6.3-49-16.5c-19.6-8.5-21-10.6-29.6-14
					c-27.4-10.9-46.1-2.4-90.6-1.8c-32.6,0.4-81,1-97-19.8c-8.1-10.5-8.2-26.8,1.8-35.9c11.4-10.3,28.3-4.8,84.6-8.6
					c45.9-3.2,58-8.5,65.6-15.5c10.3-9.5,12-21.7,12.5-25.5C303.5,388.3,287.5,373.9,294.5,369.4z"/>
				<path class="st5" d="M333.3,460.5c4.3,2.8,14.2-0.2,26.8-4c9-2.7,13.5-5.3,22.6-5.8c4.8-0.3,12-0.7,14.3,2.1
					c4.5,5.6-12.8,20.3-12.4,20.5c0.5,0.3,19.4-22.3,28.6-19.8c2.3,0.6,3.8,3.2,7,8.3c4.2,6.9,3.1,8.6,6,10.8
					c4.9,3.7,9.9,0.4,18.5,3.2c8.6,2.8,7.5,7.5,17.1,12.9c6.2,3.5,12,4.5,21.3,6.1c18.8,3.2,21.6-0.7,31,2.8
					c10.5,4,7.9,9.3,21.3,16.9c7.3,4.1,13.8,5.8,24.5,8.6c10.8,2.8,18.6,3.7,32.4,5.3c27.9,3.3,34.7,1.6,38.4,0.3
					c6.4-2.2,6.2-3.8,12.5-6.5c14.2-6,26.3-2.2,42.5-1.9c22.9,0.5,40.6-6.3,60-13.7c10.2-3.9,5.1-2.9,36.9-17.7
					c21.2-9.8,25.3-11.1,33.2-16.6c8.9-6.2,18.7-12.9,24.4-24.1c3.5-7,3-10.7,9.2-21.6c4.9-8.7,8.2-11.5,11.1-13.3
					c5.7-3.7,9-2.9,12.5-6.5c5.1-5.3,5-14.1,0.4-16.2c-3-1.4-7.4,0.4-9.2,1.1c-5.9,2.3-5.4,5.2-11.1,8.3c-1,0.6-8.5,4.6-16.6,2.9
					c-0.9-0.2-8.2-1.7-8.8-4.7c-1.5-7.1,37-10.3,43.8-27.7c2.5-6.5,0.4-14.4-4.2-19.8c-8.2-9.4-22-8.2-26.4-16.9
					c-3.2-6.3,1.2-13.1,2.3-14.7c8.9-13.7,37.9-21,57.3-14.5c11.7,4,23.2,14.1,35.2,24.8c5.4,4.8,8.8,8.3,14.8,9
					c9.7,1.1,21.8-5.6,24.5-13.3c4.4-12.7-16.7-27.8-32-34.8c-17-7.8-37.8-8.1-78.6-8.2c-33.6-0.1-50.6,0-62.4,6.6
					c-13.3,7.4-25.7,21.9-31.4,28.4c-9.5,11.1-12.9,18.1-22.6,19.8c-10.1,1.8-21.2-3.2-23.6-4.3c-7-3.2-6.4-5-12.5-8.3
					c-15.3-8-31.4-2.9-33.8-7.9c-1.5-3.1,3.6-7.6,8.8-12.2c6.8-6,10.7-6.4,11.1-9.4c0.7-5-9.3-12.4-19.4-12.6
					c-12.6-0.2-15.2,11-30.5,13.7c-3.1,0.6-9,1.2-32.4-6.4c-31.4-10.3-30.2-14.5-45.8-17.2c-17.4-3-33,0-48.5,2.9
					c-21,4-21.2,7.6-37,9c-21.7,2-24.1-4.5-43.9-2.8c-13.5,1.2-25.3,6.3-48.9,16.6c-19.5,8.5-20.9,10.6-29.5,14.1
					c-27.4,10.9-46.1,2.4-90.6,1.9c-32.6-0.4-81-0.9-97,19.9c-8.1,10.5-8.2,26.8,1.9,35.9c11.4,10.3,28.3,4.7,84.6,8.5
					c45.9,3.1,58,8.4,65.7,15.4c10.3,9.5,12,21.7,12.5,25.5C342.3,441.5,326.3,455.9,333.3,460.5z"/>
				<path class="st6" d="M116.9,95.5c-3.7-1.3-3-7-8.8-8.4c-4.5-1.1-8.4,1.5-10.1,0c-2-1.7,2.6-5.4,0.3-8.6c-1.5-2.2-5.3-2.8-6.9-3
					c-6.2-1-9.5,1.9-11.8,0.5c-2.8-1.7,1.6-6.3-1.6-11.2c-1.5-2.3-4.8-4.6-8.8-4.8c-4.5-0.2-8.3,2.3-10.1,4.8
					c-2.6,3.6,0.4,5.5-1.6,10.7c-1.6,4.1-4.1,4.3-5.9,8.4c-1.9,4.3-0.9,7.8-0.3,10.7c2.4,12.8-2,27.6-5.9,27.9
					c-2.4,0.2-5.4-4.9-6.9-7.4c-2.7-4.6-2.8-7.7-4.6-7.9c-1.9-0.2-4,3-4.9,4.8c-2.3,4.7-2.1,11.8,3.3,15.5c4,2.8,7.7,1.5,8.8,3.6
					c1.8,3.4-7.7,7.1-11.1,17c-1.1,3.3-1.4,6.9,0,7.4c2.2,0.8,6.5-5.9,10.5-5.1c2.4,0.5,1.7,3.1,4.9,5.1c4.2,2.6,8.4,0.1,12.7,2
					c3.9,1.8,3.2,5.1,6.2,11.9c1.7,3.9,4.7,7.7,10.8,15.2c8.1,10.2,9.1,9.2,11.4,14c3.3,6.7,1.9,9.6,6.2,13
					c4.5,3.4,8.5,2.3,11.1,5.6c2.8,3.6,0.9,8.7-1.3,11.7c-2.7,3.6-8.4,5.6-19.6,9.4c-12.4,4.2-16.7,4.3-18.6,4.3
					c-3.6,0-9.4,0-13.7-3c-3.2-2.3-2.5-4.1-6.2-11.2c-3.3-6.4-4.9-9.5-8.5-11.4c-5.1-2.7-13-2.6-18.6-0.3
					C8.5,220.4,7,229.3,3.9,247.2c-1.6,9.1-0.7,10.7,0.7,11.7c3,2.1,8.2,0.8,33.6-3c5-0.8,8.1-1.2,11.4,0c7,2.5,9.1,9.9,9.8,12.2
					c1.2,4.1,0.2,5.2,0.7,12.7c0.4,5.7,0.6,8.9,1.6,11.7c3.2,8.6,12,8.3,25.1,19.6c5.8,5,11.5,9.9,13.7,17.5
					c2.4,8.3-0.2,16.2-1.6,19.6c-3.6,8.8-8.6,10.4-7.2,14.2c2.5,6.8,21.5,10.6,27.1,6.1c2.8-2.2,0.3-4.9,3.3-7.9
					c4.2-4.2,15.9-5.2,22.5-1.5c2.3,1.3,4.5,3.4,9.1,21.3c3.2,12.2,3.3,15.9,7.8,18.5c4.8,2.9,11.2,2.7,16,2.5
					c7.4-0.2,9.3-1.9,18-3.3c10.4-1.7,12.5,0,20.9-1s9.2-3.1,24.2-8.6c22.2-8.3,24.8-5.5,36.2-11.9c2.7-1.5,8.3-5,17-8.6
					c5.2-2.2,8.4-3.1,9.8-3.6c2.7-0.8,8.4-2.3,16-2.8c9.4-0.5,11.5,1.2,14.4-0.5c4.2-2.6,0.6-7.3,5.2-11.2c3.4-2.9,9.1-3.5,13.1-3
					c4.2,0.5,4.8,2,14,6.6c6.6,3.3,9.9,4.9,13.1,5.3c6,0.8,8.7-1.1,13.7,0.8c3.7,1.3,3.2,2.7,6.5,3.6c3.9,1,6-0.3,13.7-1.3
					c8.3-1,8.2,0.3,10.8-0.8c5.8-2.4,3.8-7.9,10.5-13.7c4.5-3.9,6.4-2.4,9.5-5.3c7.9-7.7-5.3-18.3,1.3-31.5c2.7-5.4,7.5-9,10.5-11.2
					c9.9-7.4,17-6.5,21.2-12.7c2.9-4.3,3.6-10.6,0.3-15.2c-4.2-6-12.6-5.7-14.4-11.4c-1.3-4.2,2.5-6.8,0.3-8.9
					c-3.2-3.1-13.9-0.2-15.3,0.3c-11.8,3.3-15.2,9.6-19.9,8.4c-4.5-1.2-5.2-7.8-5.2-8.1c-0.4-4.8,2.8-7.2,7.2-14
					c2-3.1,6.7-10.4,8.2-19c0.9-5.5,2.1-12-2.6-15.2c-4.8-3.3-10.7,0.4-16.3-2.8c-5-2.9-2.1-7-6.5-16.5c-4.1-8.8-11-14.9-13.7-17.3
					c-6.5-5.6-7.9-4.4-10.5-7.9c-2.6-3.4-3.4-7.4,0-25.1c2.7-14.1,4.2-16.7,1.6-19c-2.5-2.2-6-2-28.1-1.3
					c-18.8,0.6-25.1,0.6-30.4-2.8c-4.8-3.1-6.3-7.4-6.5-8.1c-2.8-8.4,5.9-12.8,2.9-19.6c-2-4.6-8.7-8.7-14-8.1
					c-6.8,0.7-6.6,8.4-17.6,14.2c-6.1,3.2-14,5-15.7,3.3c-2.7-2.7,12.9-12.5,9.5-17.3c-2.6-3.6-14.2-1.9-15.3-1.8
					c-14.7,2.2-16.8,10.1-28.7,14.5c-18.6,6.9-42.1-1.8-51.6-5.3c-20.5-7.6-20.8-15.2-31.7-15C141.4,68.7,125.9,98.6,116.9,95.5z"/>
				<path class="st7" d="M789.8,47.1c4.5-1.6,3.7-8.6,10.8-10.3c5.5-1.3,10.3,1.8,12.4,0c2.4-2.1-3.2-6.6-0.4-10.6
					c1.9-2.7,6.5-3.4,8.4-3.7c7.6-1.2,11.6,2.3,14.4,0.6c3.5-2.1-1.9-7.8,2-13.7c1.9-2.8,5.9-5.7,10.8-5.9
					c5.5-0.2,10.2,2.9,12.4,5.9c3.1,4.4-0.5,6.7,2,13.1c2,5.1,5,5.3,7.2,10.3c2.3,5.2,1.1,9.6,0.4,13.1c-3,15.7,2.5,33.9,7.2,34.3
					c2.9,0.3,6.6-6,8.4-9c3.4-5.7,3.4-9.4,5.6-9.7c2.3-0.2,4.9,3.7,6,5.9c2.8,5.8,2.5,14.4-4,19c-4.9,3.5-9.5,1.8-10.8,4.4
					c-2.2,4.1,9.5,8.8,13.6,20.9c1.4,4,1.8,8.4,0,9c-2.6,0.9-8-7.2-12.8-6.2c-2.9,0.6-2.1,3.8-6,6.2c-5.1,3.2-10.3,0.1-15.6,2.5
					c-4.8,2.2-3.9,6.3-7.6,14.7c-2.1,4.8-5.8,9.4-13.2,18.7c-9.9,12.5-11.1,11.3-14,17.1c-4.1,8.3-2.3,11.8-7.6,15.9
					c-5.5,4.2-10.5,2.8-13.6,6.9c-3.4,4.4-1.1,10.6,1.6,14.3c3.3,4.5,10.3,6.9,24.1,11.5c15.3,5.2,20.5,5.3,22.8,5.3
					c4.4,0,11.6,0,16.8-3.7c3.9-2.8,3.1-5,7.6-13.7c4-7.8,6.1-11.7,10.4-14c6.2-3.3,16-3.2,22.8-0.3c10.8,4.5,12.7,15.5,16.4,37.4
					c1.9,11.2,0.9,13.2-0.8,14.3c-3.7,2.5-10.1,1-41.3-3.7c-6.1-0.9-9.9-1.5-14,0c-8.6,3.1-11.2,12.2-12,15c-1.5,5-0.2,6.4-0.8,15.6
					c-0.4,7-0.7,10.9-2,14.3c-4,10.5-14.8,10.2-30.9,24c-7.2,6.2-14.1,12.1-16.8,21.5c-2.9,10.1,0.3,19.8,2,24
					c4.5,10.8,10.6,12.7,8.8,17.5c-3.1,8.4-26.4,13-33.3,7.5c-3.4-2.7-0.4-6-4-9.7c-5.2-5.2-19.5-6.4-27.7-1.9
					c-2.8,1.5-5.5,4.1-11.2,26.2c-3.9,15-4.1,19.5-9.6,22.8c-5.9,3.5-13.8,3.3-19.6,3.1c-9-0.3-11.4-2.4-22-4.1
					c-12.8-2-15.3,0-25.7-1.2c-10.3-1.3-11.3-3.7-29.7-10.6c-27.3-10.2-30.5-6.7-44.5-14.7c-3.3-1.9-10.2-6.1-20.8-10.6
					c-6.4-2.7-10.3-3.9-12-4.4c-3.3-0.9-10.3-2.9-19.6-3.4c-11.5-0.7-14.2,1.5-17.6-0.6c-5.2-3.2-0.8-8.9-6.4-13.7
					c-4.2-3.5-11.2-4.3-16-3.7c-5.2,0.6-5.9,2.5-17.2,8.1c-8.1,4-12.1,6-16,6.5c-7.4,1-10.6-1.3-16.8,0.9c-4.6,1.6-3.9,3.3-8,4.4
					c-4.7,1.3-7.3-0.4-16.8-1.6c-10.2-1.2-10,0.4-13.2-0.9c-7.2-3-4.7-9.7-12.8-16.8c-5.5-4.8-7.9-2.9-11.6-6.5
					c-9.7-9.4,6.5-22.4-1.6-38.7c-3.3-6.6-9.2-11-12.8-13.7c-12.2-9.1-20.8-7.9-26.1-15.6c-3.6-5.3-4.4-13-0.4-18.7
					c5.2-7.4,15.5-7,17.6-14c1.6-5.2-3.1-8.3-0.4-10.9c3.9-3.7,17-0.2,18.8,0.3c14.5,4,18.6,11.8,24.5,10.3c5.5-1.4,6.4-9.6,6.4-10
					c0.5-5.9-3.4-8.8-8.8-17.1c-2.5-3.8-8.2-12.8-10-23.4c-1.2-6.7-2.5-14.8,3.2-18.7c5.9-4.1,13.2,0.5,20-3.4
					c6.1-3.5,2.6-8.6,8-20.3c5-10.9,13.5-18.3,16.8-21.2c8-6.9,9.6-5.4,12.8-9.7c3.1-4.2,4.2-9.1,0-30.9c-3.3-17.3-5.2-20.5-2-23.4
					c3-2.8,7.4-2.4,34.5-1.6c23.1,0.7,30.8,0.8,37.3-3.4c5.9-3.8,7.7-9.1,8-10c3.4-10.3-7.2-15.7-3.6-24c2.5-5.6,10.7-10.7,17.2-10
					c8.3,0.9,8.1,10.3,21.6,17.5c7.5,4,17.2,6.1,19.2,4.1c3.3-3.3-15.8-15.4-11.6-21.2c3.1-4.4,17.4-2.4,18.8-2.2
					c18.1,2.7,20.6,12.4,35.3,17.8c22.9,8.5,51.7-2.2,63.3-6.5c25.2-9.3,25.6-18.6,38.9-18.4C759.7,14.2,778.8,50.9,789.8,47.1z"/>
				<path class="st8" d="M184.9,194c-3.1,0.5-1.2,7.1-7.6,16.6c-3.4,5.1-5,4.7-7.1,8.5c-4,7.1-0.5,11.9,0.5,22.5
					c1,10.9-1.2,24.4-5.7,25.1c-3.9,0.5-8.8-10.7-10-10.3c-1.4,0.4,10.4,14.9,4.7,28c-4,9.3-14.9,13.8-12.8,16.6
					c2,2.6,11.4-1.6,20.9,2.6c3.2,1.4,5.1,3.4,9,7.4c5.8,6,7.7,9.8,11.9,15.5c2.8,3.9,2.3,2.6,14.2,16.2
					c7.8,8.9,11.8,13.5,15.2,18.1c7.4,10.1,11.2,15.2,10.4,19.9c-1.4,9.3-13.6,15.1-19.9,18.1c-6.2,2.9-12.9,6.1-20.4,4.8
					c-5.9-1-7.6-4.1-13.7-4.1c-6.5,0-9.2,3.4-11.9,2.2c-3.5-1.6,0.7-7.4-3.3-14c-0.2-0.4-4.3-6.7-11.9-7.7c-7-0.9-13,3.3-15.2,4.8
					c-10.4,7.3-9.2,16.3-14.2,38.7c-5,22.2-10.2,31-5.2,33.6c4.1,2.1,12.6-1.2,17.5-5.2c8.4-6.8,3.4-13.6,11.9-22.5
					c1-1.1,9.3-9.8,18-8.5c7.5,1.2,13.4,9.6,11.9,16.2c-1.9,8.4-14.4,8.4-19,18.8c-0.4,0.9-3.9,9.4,1.9,16.2
					c4.9,5.7,13.5,6.8,20.4,7.7c6.6,0.9,17.5,2.3,22.8-2.2c3.2-2.8,1.2-5.1,4.7-16.6c1.6-5.2,2.8-9.2,4.7-9.2
					c2.2-0.1,4.8,5.2,5.7,9.6c1.4,7.1-1.8,10,0.9,12.5c3,2.8,10.2,2.3,14.7,0.7c0.9-0.3,8.3-2.9,8.5-8.1c0.2-3.5-3.1-6.7-6.6-8.1
					c-5.7-2.3-10.5,0.7-12.8-1.5c-2.2-2,0-6.7,2.8-9.6c3.2-3.3,5.6-2.4,8.1-5.2c2.1-2.4,1.6-4.4,1.4-12.9c-0.1-5.8-0.2-8.6,0-9.6
					c1.1-6.1,6.6-9.3,16.6-16.6c11.8-8.6,3.6-3.8,25.1-19.9c12.7-9.6,19.1-14.3,21.8-15.5c11.3-4.8,18.6-3.1,43.6-4.1
					c24.8-0.9,37.1-1.4,48.4-4.8c23.4-7.1,20.5-17.1,40.8-22.9c29.5-8.4,61.5,5.3,64.5,6.6c22.4,9.9,21.8,20.7,41.7,24.7
					c17.5,3.5,22.4-4,40.3-0.7c26.8,4.9,40.1,26.1,43.1,24.3c2.8-1.6-9.5-18.3-12.8-22.9c-11.2-15.3-17.1-19.9-27-33.2
					c-9.6-12.8-14.4-19.2-16.6-26.2c-7.6-24,9.4-38.9-1.4-47.2c-5.4-4.1-14.1-4-28.4-3.7c-17.1,0.3-20.1,4.1-31.8,2.6
					c-10-1.3-24.3-6.4-25.6-13.6c-1.3-7,10.5-10.6,10.4-21.8c0-2.7-0.1-6.9-3.3-8.5c-2.3-1.1-6.7-1.2-34.6,11.1
					c-8,3.5-11.8,5.4-15.2,4.1c-4.1-1.6-2.9-6.3-9.5-12.5c-2.8-2.7-4.7-4.5-7.6-4.8c-6.2-0.7-8.6,6.1-18.5,10.3
					c-8.1,3.4-16.2,3.1-26.1,2.6c-15.5-0.7-15.2-4.1-24.7-4.1c-17.6,0.2-22.3,11.9-50.7,18.1c-7.7,1.7-12.6,1.9-16.6,0
					c-7.4-3.5-1.5-12.6-7.6-17c-9.2-6.6-30.2,7.1-41.2,0.4c-8-4.9-4.7-16.7-10.9-17.7c-4-0.7-5.8,4-10.9,4.1
					C195.7,211,189.9,193.1,184.9,194z"/>
				<ellipse class="st9" cx="204.8" cy="228.6" rx="16.1" ry="12.5"/>
				<ellipse class="st10" cx="493.6" cy="119.8" rx="16.1" ry="12.5"/>
				<ellipse class="st10" cx="860.9" cy="234.1" rx="16.1" ry="12.5"/>
				<ellipse class="st11" cx="755.3" cy="96.4" rx="16.1" ry="12.5"/>
				<ellipse class="st12" cx="142.4" cy="132.4" rx="16.1" ry="12.5"/>
				<ellipse class="st10" cx="246.4" cy="269.3" rx="9.1" ry="7"/>
				<ellipse class="st10" cx="292.6" cy="237.6" rx="9.1" ry="7"/>
				<ellipse class="st10" cx="328.4" cy="285" rx="8.6" ry="6.3"/>
				<ellipse class="st7" cx="444.6" cy="276.4" rx="17.1" ry="10.2"/>
				<ellipse class="st10" cx="512" cy="366.8" rx="6" ry="5.9"/>
				<ellipse class="st10" cx="253.4" cy="488.9" rx="6" ry="5.9"/>
				<ellipse class="st10" cx="645.9" cy="478.7" rx="6" ry="5.9"/>
				<ellipse class="st10" cx="907.6" cy="326.9" rx="6" ry="5.9"/>
				<ellipse class="st10" cx="906.6" cy="215.7" rx="6" ry="5.9"/>
				<ellipse class="st10" cx="551.3" cy="322.2" rx="8.1" ry="5.9"/>
				<ellipse class="st10" cx="551.3" cy="271.3" rx="5" ry="5.1"/>
				<ellipse class="st10" cx="635.3" cy="247" rx="7.5" ry="5.1"/>
				<ellipse class="st10" cx="678.1" cy="204.4" rx="6" ry="5.5"/>
				<ellipse class="st10" cx="456.7" cy="205.9" rx="6" ry="5.5"/>
				<ellipse class="st10" cx="551.8" cy="188.7" rx="5.5" ry="3.1"/>
				<ellipse class="st10" cx="612.7" cy="418.5" rx="6" ry="3.5"/>
				<ellipse class="st13" cx="716.3" cy="404.8" rx="13.4" ry="12.5"/>
				<ellipse class="st14" cx="333.4" cy="449" rx="14.6" ry="10.6"/>
				<ellipse class="st5" cx="137.7" cy="356.6" rx="13.1" ry="9.8"/>
				<ellipse class="st10" cx="61.2" cy="277.2" rx="14.1" ry="13.3"/>
			</g>
		</g>
	</g>
</g>
<g id="Layer_3">
	<rect x="204.8" y="71.9" class="st15" width="556.3" height="418.3"/>
	<g>
		<g>
			<path class="st16" d="M737.8,95.3c1.3,0,2.4-0.5,3.3-1.1l4.1,5.5l0.7-0.6l-4.3-5.5c1.1-1.1,1.7-2.5,1.7-4.1
				c0-3.2-2.6-5.8-5.7-5.8c-3.2,0-5.7,2.6-5.7,5.8C731.9,92.7,734.6,95.3,737.8,95.3z M803.2,44.3H175.8c-20,0-36.3,16.2-36.3,36.3
				v403.7c0,20,16.2,36.3,36.3,36.3h627.5c20,0,36.3-16.2,36.3-36.3V80.6C839.6,60.6,823.3,44.3,803.2,44.3z M177.2,286.9
				c-3.2,0-5.8-2.6-5.8-5.8c0-3.2,2.6-5.8,5.8-5.8s5.8,2.6,5.8,5.8S180.4,286.9,177.2,286.9z M800.3,299.9
				c-10.4,0-18.8-8.4-18.8-18.8s8.4-18.8,18.8-18.8c10.4,0,18.8,8.4,18.8,18.8C819.2,291.5,810.8,299.9,800.3,299.9z M794.5,286.9
				h13v-11.6h-13V286.9z M761.1,490.2H204.8V71.9h556.3V490.2z"/>
		</g>
		<g>
			<path class="st17" d="M737.8,95.3c1.3,0,2.4-0.5,3.3-1.1l4.1,5.5l0.7-0.6l-4.3-5.5c1.1-1.1,1.7-2.5,1.7-4.1
				c0-3.2-2.6-5.8-5.7-5.8c-3.2,0-5.7,2.6-5.7,5.8C731.9,92.7,734.6,95.3,737.8,95.3z M803.2,44.3H175.8c-20,0-36.3,16.2-36.3,36.3
				v403.7c0,20,16.2,36.3,36.3,36.3h627.5c20,0,36.3-16.2,36.3-36.3V80.6C839.6,60.6,823.3,44.3,803.2,44.3z M177.2,286.9
				c-3.2,0-5.8-2.6-5.8-5.8c0-3.2,2.6-5.8,5.8-5.8s5.8,2.6,5.8,5.8S180.4,286.9,177.2,286.9z M800.3,299.9
				c-10.4,0-18.8-8.4-18.8-18.8s8.4-18.8,18.8-18.8c10.4,0,18.8,8.4,18.8,18.8C819.2,291.5,810.8,299.9,800.3,299.9z M794.5,286.9
				h13v-11.6h-13V286.9z"/>
		</g>
		<rect x="484.5" y="176.4" class="st18" width="180.7" height="69.7"/>
	</g>
	<line class="st19" x1="204.8" y1="106.1" x2="761.1" y2="106.1"/>
	<rect x="220.1" y="82.8" class="st20" width="16" height="1.4"/>
	<rect x="220.1" y="88.6" class="st20" width="16" height="1.4"/>
	<rect x="220.1" y="94.4" class="st20" width="16" height="1.4"/>
	<line class="st19" x1="388.6" y1="106.1" x2="388.6" y2="490.2"/>
	<line class="st21" x1="205.7" y1="150.4" x2="388.6" y2="150.4"/>
	<line class="st21" x1="211.4" y1="195.4" x2="382.2" y2="195.4"/>
	<line class="st19" x1="249.3" y1="166.4" x2="306.9" y2="166.4"/>
	<line class="st19" x1="249.5" y1="172.2" x2="261.6" y2="172.2"/>
	<line class="st19" x1="356.8" y1="166.4" x2="374.7" y2="166.4"/>
	<line class="st19" x1="356.8" y1="209.9" x2="374.7" y2="209.9"/>
	<line class="st19" x1="249.3" y1="178" x2="264.7" y2="178"/>
	<line class="st19" x1="272.5" y1="178" x2="284.5" y2="178"/>
	<line class="st19" x1="249.3" y1="127.2" x2="296.1" y2="127.2"/>
	<line class="st19" x1="304.4" y1="127.2" x2="351.3" y2="127.2"/>
	<path class="st19" d="M228.1,159c7.6,0,13.7,6.2,13.7,13.7s-6.2,13.7-13.7,13.7c-7.6,0-13.7-6.2-13.7-13.7S220.5,159,228.1,159z"/>
	<line class="st21" x1="211.4" y1="238.9" x2="382.2" y2="238.9"/>
	<line class="st21" x1="204.8" y1="453.9" x2="388.6" y2="453.9"/>
	<line class="st21" x1="204.8" y1="424.8" x2="388.6" y2="424.8"/>
	<line class="st21" x1="204.8" y1="395.8" x2="388.6" y2="395.8"/>
	<line class="st21" x1="204.8" y1="366.8" x2="388.6" y2="366.8"/>
	<line class="st21" x1="204.8" y1="337.7" x2="388.6" y2="337.7"/>
	<line class="st19" x1="249.3" y1="209.9" x2="319.2" y2="209.9"/>
	<line class="st19" x1="249.5" y1="215.7" x2="261.6" y2="215.7"/>
	<line class="st19" x1="356.8" y1="352.2" x2="374.7" y2="352.2"/>
	<line class="st19" x1="220.3" y1="352.2" x2="284.2" y2="352.2"/>
	<line class="st19" x1="356.8" y1="381.2" x2="374.7" y2="381.2"/>
	<line class="st19" x1="220.3" y1="381.2" x2="264.7" y2="381.2"/>
	<line class="st19" x1="356.8" y1="410.4" x2="374.7" y2="410.4"/>
	<line class="st19" x1="220.3" y1="410.4" x2="297.2" y2="410.4"/>
	<line class="st19" x1="356.8" y1="439.4" x2="374.7" y2="439.4"/>
	<line class="st19" x1="220.3" y1="439.4" x2="278.6" y2="439.4"/>
	<line class="st22" x1="356.8" y1="471.3" x2="374.7" y2="471.3"/>
	<line class="st22" x1="220.3" y1="471.3" x2="261.6" y2="471.3"/>
	<line class="st19" x1="249.3" y1="221.5" x2="264.7" y2="221.5"/>
	<line class="st19" x1="272.5" y1="221.5" x2="284.5" y2="221.5"/>
	<path class="st19" d="M228.1,202.6c7.6,0,13.7,6.2,13.7,13.7s-6.2,13.7-13.7,13.7c-7.6,0-13.7-6.2-13.7-13.7
		S220.5,202.6,228.1,202.6z"/>
	<g>
		<g>
			<path class="st23" d="M224.4,129.5c-4,0-7.2,1.9-7.2,4.3v0.7c0,0.4,0.2,0.6,0.6,0.6s0.6-0.2,0.6-0.6v-0.7c0-1.7,2.7-3.1,6-3.1
				s6,1.4,6,3.1v0.7c0,0.4,0.2,0.6,0.6,0.6c0.4,0,0.6-0.2,0.6-0.6v-0.7C231.6,131.4,228.5,129.5,224.4,129.5z"/>
		</g>
	</g>
	<g>
		<g>
			<path class="st23" d="M228,123.6c-0.1-0.7-0.5-1.4-0.9-2c-0.6-0.6-1.2-0.8-2-0.9c-0.4,0-0.7,0-1.1,0c-1.9,0.2-3.3,2.1-3,4
				c0.1,0.9,0.6,1.8,1.4,2.4c0.6,0.5,1.3,0.7,2.1,0.7c0.1,0,0.4,0,0.5,0C226.9,127.4,228.3,125.5,228,123.6z M224.8,126.4
				c-0.6,0.1-1.3-0.1-1.8-0.5s-0.8-0.9-0.9-1.5c-0.2-1.3,0.7-2.5,2-2.7c0.1,0,0.2,0,0.4,0c0.1,0,0.2,0,0.4,0c1.1,0.1,1.9,0.9,2,2
				C227,125,226.1,126.3,224.8,126.4z"/>
		</g>
	</g>
	<path class="st24" d="M585.1,292.6h128.7v55.2H585.1V292.6z"/>
	<path class="st24" d="M438.7,292.6h128.6v55.2H438.7V292.6L438.7,292.6z"/>
	<path class="st24" d="M585.4,365.4h128.7v55.2H585.4V365.4z"/>
	<path class="st24" d="M438.9,365.4h128.7v55.2H438.9V365.4z"/>
	<g>
		<path class="st25" d="M539.6,224v-3c-1.8,0-3.5-0.5-4.6-1.4l0.7-2c1.1,0.7,2.6,1.2,4.3,1.2c2.2,0,3.5-1.2,3.5-3
			c0-1.6-1.2-2.7-3.4-3.5c-3.1-1.2-4.9-2.6-4.9-5.2c0-2.4,1.8-4.3,4.5-4.9v-3h1.9v2.9c1.8,0,3,0.5,3.9,1.1l-0.8,2
			c-0.7-0.4-1.9-1.1-3.8-1.1c-2.3,0-3.1,1.4-3.1,2.6c0,1.5,1.1,2.3,3.7,3.4c3.1,1.2,4.6,2.9,4.6,5.4c0,2.3-1.6,4.6-4.8,5.2v3.1
			L539.6,224L539.6,224L539.6,224z"/>
		<path class="st25" d="M549.8,221.4v-1.6l2-2c5-4.8,7.2-7.2,7.2-10.2c0-2-1-3.8-3.8-3.8c-1.8,0-3.3,1-4.1,1.6l-0.8-1.9
			c1.4-1.1,3.3-2,5.6-2c4.2,0,6,2.9,6,5.7c0,3.5-2.6,6.5-6.7,10.5l-1.5,1.5l0,0h8.7v2.2H549.8L549.8,221.4L549.8,221.4z"/>
		<path class="st25" d="M578.1,211.5c0,6.7-2.4,10.3-6.8,10.3c-3.8,0-6.4-3.5-6.4-10.1s2.9-10.2,6.8-10.2
			C575.8,201.7,578.1,205.3,578.1,211.5z M567.5,211.8c0,5,1.5,7.9,3.9,7.9c2.7,0,3.9-3.1,3.9-8.1c0-4.8-1.2-7.9-3.9-7.9
			C569.2,203.8,567.5,206.5,567.5,211.8z"/>
		<path class="st25" d="M580.8,219.9c0-1.1,0.8-1.9,1.8-1.9c1.1,0,1.8,0.8,1.8,1.9c0,1.1-0.7,1.9-1.8,1.9
			C581.5,221.8,580.8,221,580.8,219.9z"/>
		<path class="st25" d="M599.7,211.5c0,6.7-2.4,10.3-6.8,10.3c-3.8,0-6.4-3.5-6.4-10.1s2.9-10.2,6.8-10.2
			C597.3,201.7,599.7,205.3,599.7,211.5z M589.1,211.8c0,5,1.5,7.9,3.9,7.9c2.7,0,3.9-3.1,3.9-8.1c0-4.8-1.2-7.9-3.9-7.9
			C590.8,203.8,589.1,206.5,589.1,211.8z"/>
		<path class="st25" d="M615,211.5c0,6.7-2.4,10.3-6.8,10.3c-3.8,0-6.4-3.5-6.4-10.1s2.9-10.2,6.8-10.2
			C612.7,201.7,615,205.3,615,211.5z M604.4,211.8c0,5,1.5,7.9,3.9,7.9c2.7,0,3.9-3.1,3.9-8.1c0-4.8-1.2-7.9-3.9-7.9
			C606.2,203.8,604.4,206.5,604.4,211.8z"/>
	</g>
	<g>
		<path class="st25" d="M492.7,327.4c-0.7,0.3-2.1,0.7-3.9,0.7c-4.2,0-7.3-2.7-7.3-7.5c0-4.6,3.1-7.8,7.8-7.8c1.8,0,3,0.4,3.6,0.6
			l-0.4,1.5c-0.7-0.3-1.8-0.6-3-0.6c-3.4,0-5.8,2.2-5.8,6.1c0,3.6,2.1,6,5.7,6c1.2,0,2.4-0.3,3.1-0.6L492.7,327.4z"/>
		<path class="st25" d="M501.2,327.9l-0.1-1.3l0,0c-0.6,0.9-1.8,1.6-3.3,1.6c-2.1,0-3.3-1.5-3.3-3c0-2.5,2.2-4,6.4-3.9v-0.1
			c0-0.9-0.3-2.4-2.4-2.4c-1,0-2.1,0.3-2.8,0.7l-0.4-1.3c0.9-0.6,2.1-0.9,3.4-0.9c3.3,0,4,2.2,4,4.3v4c0,0.9,0,1.8,0.1,2.5
			L501.2,327.9L501.2,327.9z M500.9,322.5c-2.1,0-4.5,0.3-4.5,2.4c0,1.2,0.9,1.8,1.8,1.8c1.3,0,2.2-0.9,2.5-1.8
			c0-0.1,0.1-0.4,0.1-0.6L500.9,322.5L500.9,322.5z"/>
		<path class="st25" d="M506.1,325.9c0.6,0.3,1.6,0.7,2.5,0.7c1.3,0,2.1-0.7,2.1-1.6s-0.6-1.5-1.9-1.9c-1.9-0.7-2.8-1.8-2.8-3
			c0-1.6,1.3-3.1,3.7-3.1c1,0,2.1,0.3,2.5,0.6l-0.4,1.3c-0.4-0.3-1.2-0.6-2.2-0.6c-1.2,0-1.8,0.6-1.8,1.5s0.6,1.3,2.1,1.8
			c1.8,0.7,2.8,1.6,2.8,3.1c0,1.9-1.5,3.1-4,3.1c-1.2,0-2.2-0.3-3-0.7L506.1,325.9z"/>
		<path class="st25" d="M515.5,312.3h1.9v6.6l0,0c0.3-0.6,0.7-1,1.3-1.3s1.2-0.6,1.9-0.6c1.5,0,3.7,0.9,3.7,4.5v6.3h-1.9v-6
			c0-1.6-0.6-3.1-2.4-3.1c-1.2,0-2.2,0.9-2.5,1.9c-0.1,0.3-0.1,0.6-0.1,0.9v6.4h-1.9V312.3L515.5,312.3z"/>
	</g>
	<g>
		<path class="st25" d="M471.7,384.2h1.8v12.4h5.9v1.6h-7.8v-14H471.7z"/>
		<path class="st25" d="M490.6,393c0,3.7-2.5,5.4-4.9,5.4c-2.7,0-4.8-2-4.8-5.2c0-3.4,2.3-5.4,4.9-5.4
			C488.6,387.9,490.6,390,490.6,393z M482.7,393.1c0,2.3,1.3,3.8,3.1,3.8c1.7,0,3.1-1.7,3.1-3.9c0-1.7-0.8-3.8-3-3.8
			C483.5,389.3,482.7,391.3,482.7,393.1z"/>
		<path class="st25" d="M493.8,388l2.3,5.9c0.3,0.7,0.4,1.4,0.7,2.1l0,0c0.1-0.6,0.4-1.4,0.7-2.1l2-5.9h2l-2.7,7.2
			c-1.3,3.4-2.3,5.2-3.4,6.3c-0.8,0.8-1.8,1.1-2.3,1.1l-0.4-1.6c0.4-0.1,1-0.4,1.6-0.8s1.1-1.1,1.6-2c0.1-0.1,0.1-0.3,0.1-0.4
			s0-0.3-0.1-0.4l-3.7-9.3L493.8,388L493.8,388L493.8,388z"/>
		<path class="st25" d="M508.8,398.2l-0.1-1.3l0,0c-0.6,0.8-1.7,1.6-3.1,1.6c-2,0-3.1-1.4-3.1-2.8c0-2.4,2.1-3.8,6.1-3.7v-0.1
			c0-0.8-0.3-2.3-2.3-2.3c-1,0-2,0.3-2.7,0.7l-0.4-1.3c0.8-0.6,2-0.8,3.2-0.8c3.1,0,3.8,2.1,3.8,4.1v3.8c0,0.8,0,1.7,0.1,2.4
			L508.8,398.2L508.8,398.2L508.8,398.2z M508.5,393c-2,0-4.2,0.3-4.2,2.3c0,1.1,0.8,1.7,1.7,1.7c1.3,0,2.1-0.8,2.4-1.7
			c0-0.1,0.1-0.4,0.1-0.6V393L508.5,393z"/>
		<path class="st25" d="M513.7,383.4h1.8v14.7h-1.8V383.4z"/>
		<path class="st25" d="M521.2,385.2v2.8h2.7v1.4h-2.7v5.4c0,1.3,0.4,2,1.4,2c0.4,0,0.8,0,1-0.1l0.1,1.4c-0.3,0.1-0.8,0.3-1.6,0.3
			s-1.6-0.3-2-0.7c-0.6-0.6-0.7-1.4-0.7-2.7v-5.5h-1.6V388h1.6v-2.4L521.2,385.2z"/>
		<path class="st25" d="M527.1,388l2.3,5.9c0.3,0.7,0.4,1.4,0.7,2.1l0,0c0.1-0.6,0.4-1.4,0.7-2.1l2-5.9h2l-2.7,7.2
			c-1.3,3.4-2.3,5.2-3.4,6.3c-0.8,0.8-1.8,1.1-2.3,1.1L526,401c0.4-0.1,1-0.4,1.6-0.8s1.1-1.1,1.6-2c0.1-0.1,0.1-0.3,0.1-0.4
			s0-0.3-0.1-0.4l-3.7-9.3L527.1,388L527.1,388L527.1,388z"/>
	</g>
	<g>
		<path class="st25" d="M626.7,397.7c-0.7,0.3-2,0.7-3.6,0.7c-3.9,0-6.8-2.5-6.8-7c0-4.3,2.9-7.2,7.2-7.2c1.7,0,2.8,0.4,3.3,0.6
			l-0.4,1.4c-0.7-0.3-1.7-0.6-2.8-0.6c-3.2,0-5.4,2.1-5.4,5.7c0,3.3,2,5.6,5.3,5.6c1.1,0,2.2-0.3,2.9-0.6L626.7,397.7z"/>
		<path class="st25" d="M629.4,383.6h1.8v6.1l0,0c0.3-0.6,0.7-1,1.3-1.3s1.1-0.6,1.8-0.6c1.4,0,3.5,0.8,3.5,4.2v5.9H636v-5.7
			c0-1.5-0.6-2.9-2.2-2.9c-1.1,0-2.1,0.8-2.4,1.8c-0.1,0.3-0.1,0.6-0.1,0.8v6h-1.8L629.4,383.6L629.4,383.6z"/>
		<path class="st25" d="M642.2,393.5c0,2.4,1.5,3.5,3.3,3.5c1.3,0,2.1-0.3,2.8-0.6l0.3,1.3c-0.7,0.3-1.7,0.6-3.3,0.6
			c-3.1,0-4.9-2-4.9-5c0-2.9,1.8-5.3,4.6-5.3c3.2,0,4,2.8,4,4.7c0,0.4,0,0.7,0,0.8H642.2L642.2,393.5z M647.5,392.2
			c0-1.1-0.4-2.9-2.5-2.9c-1.8,0-2.6,1.7-2.8,2.9H647.5z"/>
		<path class="st25" d="M658.6,396.7L658.6,396.7c-0.6,1-1.7,1.8-3.3,1.8c-2.4,0-4.2-2-4.2-5c0-3.8,2.4-5.3,4.5-5.3
			c1.5,0,2.5,0.7,3.1,1.7l0,0v-1.5h1.7c0,0.8,0,1.7,0,2.8v11.3h-1.8V396.7L658.6,396.7L658.6,396.7z M658.6,392.2
			c0-0.3,0-0.6-0.1-0.7c-0.3-1.1-1.3-2.1-2.6-2.1c-1.8,0-2.9,1.5-2.9,3.8c0,2,1,3.6,2.9,3.6c1.1,0,2.2-0.7,2.6-2
			c0.1-0.3,0.1-0.6,0.1-0.8V392.2L658.6,392.2z"/>
		<path class="st25" d="M672,395.4c0,1,0,2,0.1,2.6h-1.5l-0.1-1.7l0,0c-0.4,0.8-1.5,1.8-3.3,1.8c-1.5,0-3.5-0.8-3.5-4.3v-5.7h1.8
			v5.4c0,2,0.6,3.2,2.2,3.2c1.3,0,2.1-0.8,2.4-1.7c0.1-0.3,0.1-0.6,0.1-1v-6h1.8V395.4L672,395.4z"/>
		<path class="st25" d="M676.5,393.5c0,2.4,1.5,3.5,3.3,3.5c1.3,0,2.1-0.3,2.8-0.6l0.3,1.3c-0.7,0.3-1.7,0.6-3.3,0.6
			c-3.1,0-4.9-2-4.9-5c0-2.9,1.8-5.3,4.6-5.3c3.2,0,4,2.8,4,4.7c0,0.4,0,0.7,0,0.8H676.5L676.5,393.5z M681.8,392.2
			c0-1.1-0.4-2.9-2.5-2.9c-1.8,0-2.6,1.7-2.8,2.9H681.8z"/>
	</g>
	<g>
		<path class="st25" d="M639.5,327.7c-0.8,0.3-2.2,0.8-4,0.8c-4.3,0-7.6-2.8-7.6-7.7c0-4.8,3.2-8,8-8c1.8,0,3.1,0.5,3.7,0.6
			l-0.5,1.5c-0.8-0.3-1.8-0.6-3.1-0.6c-3.5,0-6,2.3-6,6.3c0,3.7,2.2,6.2,5.9,6.2c1.2,0,2.5-0.3,3.2-0.6L639.5,327.7z"/>
		<path class="st25" d="M648.3,328.1l-0.2-1.4l0,0c-0.6,0.9-1.8,1.7-3.4,1.7c-2.2,0-3.4-1.5-3.4-3.1c0-2.6,2.3-4.2,6.6-4v-0.2
			c0-0.9-0.3-2.5-2.5-2.5c-1.1,0-2.2,0.3-2.9,0.8L642,318c0.9-0.6,2.2-0.9,3.5-0.9c3.4,0,4.2,2.3,4.2,4.5v4.2c0,0.9,0,1.8,0.2,2.6
			L648.3,328.1L648.3,328.1z M648,322.6c-2.2,0-4.6,0.3-4.6,2.5c0,1.2,0.9,1.8,1.8,1.8c1.4,0,2.3-0.9,2.6-1.8c0-0.2,0.2-0.5,0.2-0.6
			V322.6L648,322.6z"/>
		<path class="st25" d="M653.7,320.6c0-1.2,0-2.5-0.2-3.4h1.7v2.2h0.2c0.5-1.5,1.7-2.5,3.1-2.5c0.2,0,0.5,0,0.6,0v1.8
			c-0.2,0-0.5,0-0.6,0c-1.4,0-2.5,1.1-2.6,2.6c0,0.3-0.2,0.6-0.2,0.9v5.9h-2V320.6L653.7,320.6z"/>
		<path class="st25" d="M670.8,312.1v13.3c0,0.9,0,2.2,0.2,2.8h-1.8l-0.2-1.8l0,0c-0.6,1.2-2,2.2-3.7,2.2c-2.6,0-4.6-2.3-4.6-5.5
			c0-3.7,2.3-5.9,4.9-5.9c1.7,0,2.8,0.8,3.2,1.7l0,0v-6.5L670.8,312.1L670.8,312.1z M668.8,321.6c0-0.3,0-0.6-0.2-0.8
			c-0.3-1.2-1.4-2.3-2.9-2.3c-2,0-3.2,1.8-3.2,4.2c0,2.2,1.1,4,3.2,4c1.4,0,2.6-0.9,2.9-2.3c0-0.3,0.2-0.6,0.2-0.9V321.6
			L668.8,321.6z"/>
	</g>
</g>
</svg>
