<?xml version="1.0" encoding="utf-8"?>
<!-- Generator: Adobe Illustrator 21.1.0, SVG Export Plug-In . SVG Version: 6.00 Build 0)  -->
<svg version="1.1" id="Layer_1" xmlns="http://www.w3.org/2000/svg" xmlns:xlink="http://www.w3.org/1999/xlink" x="0px" y="0px"
	 width="40px" height="40px" viewBox="0 0 40 40" style="enable-background:new 0 0 40 40;" xml:space="preserve">
<style type="text/css">
	.st0{fill:#32BDB9;}
</style>
<path class="st0" d="M1.9,39.5c-0.8,0-1.4-0.6-1.4-1.4V31c0-0.4,0.1-0.7,0.4-1l12.6-12.6l-0.1-0.3C13.1,16,13,14.9,13,13.8
	c0-7.3,5.9-13.3,13.3-13.3c7.3,0,13.3,5.9,13.3,13.3c0,7.3-5.9,13.3-13.3,13.3c-1.1,0-2.3-0.1-3.4-0.4l-0.3-0.1L20,29.1
	c-0.3,0.3-0.6,0.4-1,0.4h-2v3.6c0,0.8-0.6,1.4-1.4,1.4H12v3.6c0,0.8-0.6,1.4-1.4,1.4H1.9z M2,31v7h8.5v-5h5v-5H19l3.2-3.2
	c1.3,0.5,2.7,0.7,4.1,0.7c6.5,0,11.8-5.3,11.8-11.8S32.7,2,26.3,2c-6.5,0-11.8,5.3-11.8,11.8c0,1.4,0.2,2.8,0.7,4.1L2,31z M30,13.3
	c-1.8,0-3.3-1.5-3.3-3.3s1.5-3.3,3.3-3.3s3.3,1.5,3.3,3.3S31.8,13.3,30,13.3z M30,7.9c-1.1,0-2.1,0.9-2.1,2.1s0.9,2.1,2.1,2.1
	s2.1-0.9,2.1-2.1S31.1,7.9,30,7.9z"/>
</svg>
