<?xml version="1.0" encoding="utf-8"?>
<!-- Generator: Adobe Illustrator 23.0.2, SVG Export Plug-In . SVG Version: 6.00 Build 0)  -->
<svg version="1.1" xmlns="http://www.w3.org/2000/svg" xmlns:xlink="http://www.w3.org/1999/xlink" x="0px" y="0px" width="51.4px"
	 height="40px" viewBox="0 0 51.4 40" style="enable-background:new 0 0 51.4 40;" xml:space="preserve">
<style type="text/css">
	.st0{display:none;}
	.st1{display:inline;}
	.st2{fill:#32BDB9;}
	.st3{display:inline;fill:#32BDB9;}
	.st4{fill:none;stroke:#32BDB9;stroke-width:1.3;stroke-linecap:round;stroke-miterlimit:10;}
	.st5{display:inline;fill:none;stroke:#32BDB9;stroke-width:1.3;stroke-linecap:round;stroke-miterlimit:10;}
	.st6{display:inline;fill:none;stroke:#32BDB9;stroke-linecap:round;stroke-miterlimit:10;}
	.st7{fill:none;stroke:#32BDB9;stroke-width:1.5;stroke-linecap:round;stroke-miterlimit:10;}
</style>
<g id="Layer_1" class="st0">
	<g>
		<g class="st1">
			<g>
				<path class="st2" d="M46.1,32.7H5.3V7.3h40.9v25.4H46.1z M6.6,31.4h38.3V8.6H6.6V31.4z"/>
			</g>
			<g>
				<g>
					<path class="st2" d="M25.7,11.1c-4.9,0-8.9,4-8.9,8.9s4,8.9,8.9,8.9s8.9-4,8.9-8.9S30.6,11.1,25.7,11.1z M25.7,27.8
						c-4.3,0-7.8-3.5-7.8-7.8s3.5-7.8,7.8-7.8s7.8,3.5,7.8,7.8S30,27.8,25.7,27.8z"/>
				</g>
				<g>
					<path class="st2" d="M28.5,19.9c-0.4-0.3-1.2-0.6-2.4-0.9v-3.8c0.7,0,1.2,0.3,1.6,0.8c0.2,0.3,0.3,0.6,0.3,1h1.3
						c0-0.9-0.3-1.6-0.9-2.1c-0.5-0.5-1.3-0.8-2.4-0.9v-1h-0.7v1c-1,0-1.8,0.3-2.4,1c-0.6,0.6-0.9,1.3-0.9,2.1
						c0,0.9,0.3,1.6,0.8,2.1s1.4,0.8,2.5,1.1v4.2c-0.9-0.1-1.5-0.4-1.8-1c-0.2-0.3-0.3-0.8-0.3-1.5h-1.4c0,0.9,0.1,1.6,0.4,2.1
						c0.5,1,1.6,1.5,3,1.6V27h0.7v-1.5c0.9-0.1,1.6-0.3,2.1-0.6c0.9-0.6,1.3-1.5,1.3-2.9C29.5,21,29.2,20.3,28.5,19.9z M25.3,18.8
						c-0.6-0.1-1-0.3-1.4-0.6c-0.3-0.3-0.5-0.7-0.5-1.2c0-0.4,0.1-0.8,0.4-1.2c0.3-0.4,0.8-0.6,1.4-0.6
						C25.3,15.1,25.3,18.8,25.3,18.8z M27.9,23.4c-0.3,0.6-0.9,0.9-1.8,1v-4.1c0.6,0.2,1.1,0.4,1.4,0.6c0.5,0.3,0.7,0.8,0.7,1.5
						C28.2,22.8,28.1,23.1,27.9,23.4z"/>
				</g>
			</g>
		</g>
	</g>
	<g>
		<path class="st3" d="M46.7,12.9C46.7,12.9,46.7,12.9,46.7,12.9l0-1.7c0-2.4-2-4.4-4.4-4.4H9.2c-2.4,0-4.4,2-4.4,4.4v1.7v5.2v12.2
			c0,2.4,2,4.4,4.4,4.4h33.2c2.4,0,4.4-2,4.4-4.4V18.2c0,0,0,0,0,0V12.9z M6.5,13.8H45v3.5H6.5V13.8z M9.2,8.6h33.2
			c1.4,0,2.6,1.2,2.6,2.6v0.9H6.5v-0.9C6.5,9.8,7.7,8.6,9.2,8.6z M42.3,33H9.2c-1.4,0-2.6-1.2-2.6-2.6V19.1H45v11.3h0
			C45,31.9,43.8,33,42.3,33z"/>
		<path class="st3" d="M46.7,12.9C46.7,12.9,46.7,12.9,46.7,12.9l0-1.7c0-2.4-2-4.4-4.4-4.4H9.2c-2.4,0-4.4,2-4.4,4.4v1.7v5.2v12.2
			c0,2.4,2,4.4,4.4,4.4h33.2c2.4,0,4.4-2,4.4-4.4V18.2c0,0,0,0,0,0V12.9z M6.5,13.8H45v3.5H6.5V13.8z M9.2,8.6h33.2
			c1.4,0,2.6,1.2,2.6,2.6v0.9H6.5v-0.9C6.5,9.8,7.7,8.6,9.2,8.6z M42.3,33H9.2c-1.4,0-2.6-1.2-2.6-2.6V19.1H45v11.3h0
			C45,31.9,43.8,33,42.3,33z"/>
		<path class="st3" d="M21.4,24.3H10.9c-0.5,0-0.9,0.4-0.9,0.9c0,0.5,0.4,0.9,0.9,0.9h10.5c0.5,0,0.9-0.4,0.9-0.9
			S21.9,24.3,21.4,24.3z"/>
		<path class="st3" d="M21.4,24.3H10.9c-0.5,0-0.9,0.4-0.9,0.9c0,0.5,0.4,0.9,0.9,0.9h10.5c0.5,0,0.9-0.4,0.9-0.9
			S21.9,24.3,21.4,24.3z"/>
		<path class="st3" d="M21.4,27.8H10.9c-0.5,0-0.9,0.4-0.9,0.9s0.4,0.9,0.9,0.9h10.5c0.5,0,0.9-0.4,0.9-0.9
			C22.3,28.2,21.9,27.8,21.4,27.8z"/>
		<path class="st3" d="M21.4,27.8H10.9c-0.5,0-0.9,0.4-0.9,0.9s0.4,0.9,0.9,0.9h10.5c0.5,0,0.9-0.4,0.9-0.9
			C22.3,28.2,21.9,27.8,21.4,27.8z"/>
		<path class="st3" d="M38.8,22.6h-1.7c-1.4,0-2.6,1.2-2.6,2.6v1.7c0,1.4,1.2,2.6,2.6,2.6h1.7c1.4,0,2.6-1.2,2.6-2.6v-1.7
			C41.5,23.7,40.3,22.6,38.8,22.6z M39.7,26.9c0,0.5-0.4,0.9-0.9,0.9h-1.7c-0.5,0-0.9-0.4-0.9-0.9v-1.7c0-0.5,0.4-0.9,0.9-0.9h1.7
			c0.5,0,0.9,0.4,0.9,0.9V26.9z"/>
		<path class="st3" d="M38.8,22.6h-1.7c-1.4,0-2.6,1.2-2.6,2.6v1.7c0,1.4,1.2,2.6,2.6,2.6h1.7c1.4,0,2.6-1.2,2.6-2.6v-1.7
			C41.5,23.7,40.3,22.6,38.8,22.6z M39.7,26.9c0,0.5-0.4,0.9-0.9,0.9h-1.7c-0.5,0-0.9-0.4-0.9-0.9v-1.7c0-0.5,0.4-0.9,0.9-0.9h1.7
			c0.5,0,0.9,0.4,0.9,0.9V26.9z"/>
	</g>
	<rect class="st3" width="5.3" height="7.3"/>
	<rect x="46.1" class="st3" width="5.3" height="7.3"/>
	<rect y="32.7" class="st3" width="5.3" height="7.3"/>
	<rect x="46.2" y="32.7" class="st3" width="5.3" height="7.3"/>
</g>
<g id="Layer_2" class="st0">
	<g class="st1">
		<path class="st2" d="M42.1,8.6c1.5,0,2.7,1.2,2.7,2.7v2.5c-1.9-0.9-3.9-1.4-6-1.4c-7.5,0-13.5,6.1-13.5,13.5
			c0,1.9,0.4,3.7,1.1,5.4H9.3c-1.5,0-2.7-1.2-2.7-2.7V11.3c0-1.5,1.2-2.7,2.7-2.7H42.1 M42.1,7.3H9.3c-2.2,0-4,1.8-4,4v17.4
			c0,2.2,1.8,4,4,4h19.2c-1.3-1.9-2-4.2-2-6.7c0-6.8,5.5-12.2,12.2-12.2c2.8,0,5.3,0.9,7.3,2.4v-4.9C46.1,9.1,44.3,7.3,42.1,7.3
			L42.1,7.3z"/>
	</g>
	<g class="st1">
		<line class="st4" x1="6.2" y1="13" x2="38.4" y2="13"/>
	</g>
	<line class="st5" x1="6.2" y1="18.2" x2="28.4" y2="18.2"/>
	<line class="st5" x1="10" y1="25.2" x2="22.3" y2="25.2"/>
	<line class="st5" x1="10.9" y1="28.7" x2="21.4" y2="28.7"/>
	<circle class="st6" cx="38.8" cy="26" r="10.1"/>
	<line class="st6" x1="38.8" y1="20.6" x2="38.8" y2="26.3"/>
	<line class="st6" x1="43.3" y1="26.8" x2="39.2" y2="26.8"/>
</g>
<g id="Layer_3">
	<g>
		<path class="st7" d="M39,19.9c0,6.9-5.6,12.5-12.5,12.5S14,26.9,14,19.9"/>
		<path class="st7" d="M14,19.6c0-6.9,5.6-12.5,12.5-12.5"/>
	</g>
	<line class="st7" x1="26.5" y1="13.4" x2="26.5" y2="20.4"/>
	<line class="st7" x1="32.1" y1="21" x2="27.1" y2="21"/>
	<circle class="st2" cx="26.6" cy="20.8" r="1.7"/>
	<g>
		<path class="st2" d="M29.9,6.9l-4-2.7c-0.3-0.2-0.8,0-0.8,0.4l-0.3,4.8c0,0.4,0.4,0.6,0.7,0.5l4.3-2.1C30.2,7.6,30.3,7.1,29.9,6.9
			z"/>
	</g>
</g>
</svg>
