<?xml version="1.0" encoding="utf-8"?>
<!-- Generator: Adobe Illustrator 21.1.0, SVG Export Plug-In . SVG Version: 6.00 Build 0)  -->
<svg version="1.1" id="Layer_1" xmlns="http://www.w3.org/2000/svg" xmlns:xlink="http://www.w3.org/1999/xlink" x="0px" y="0px"
	 width="45.7px" height="40px" viewBox="0 0 45.7 40" style="enable-background:new 0 0 45.7 40;" xml:space="preserve">
<style type="text/css">
	.st0{fill:#32BDB9;}
</style>
<path class="st0" d="M4.3,39.5c-2.1,0-3.8-1.7-3.8-3.8V4.3c0-2.1,1.7-3.8,3.8-3.8h37.1c2.1,0,3.8,1.7,3.8,3.8v31.4
	c0,2.1-1.7,3.8-3.8,3.8H4.3z M4.3,2.4c-1.1,0-1.9,0.9-1.9,1.9v31.4c0,1.1,0.9,1.9,1.9,1.9h37.1c1.1,0,1.9-0.9,1.9-1.9V4.3
	c0-1.1-0.9-1.9-1.9-1.9H4.3z M11.4,30.9c-1.3,0-2.4-1.1-2.4-2.4s1.1-2.4,2.4-2.4s2.4,1.1,2.4,2.4S12.7,30.9,11.4,30.9z M17.7,29.7
	l0-2.2l19,0l0,2.2l0,0H17.7z M11.4,22.4c-1.3,0-2.4-1.1-2.4-2.4s1.1-2.4,2.4-2.4s2.4,1.1,2.4,2.4S12.7,22.4,11.4,22.4z M17.7,21.1
	l0-2.2l19,0l0,2.2l0,0H17.7z M11.4,13.8c-1.3,0-2.4-1.1-2.4-2.4s1.1-2.4,2.4-2.4s2.4,1.1,2.4,2.4S12.7,13.8,11.4,13.8z M17.7,12.5
	l0-2.2l19,0l0,2.2l0,0H17.7z"/>
</svg>
