<?xml version="1.0" encoding="utf-8"?>
<!-- Generator: Adobe Illustrator 24.1.1, SVG Export Plug-In . SVG Version: 6.00 Build 0)  -->
<svg version="1.1" id="Layer_1" xmlns="http://www.w3.org/2000/svg" xmlns:xlink="http://www.w3.org/1999/xlink" x="0px" y="0px"
	 width="512px" height="512px" viewBox="0 0 512 512" style="enable-background:new 0 0 512 512;" xml:space="preserve">
<style type="text/css">
	.st0{fill:#FFFFFF;}
</style>
<g>
	<g>
		<path class="st0" d="M174.6,215.5c-2.2-0.1-4.4,0-6.6,0.4c-15,2.4-25.2,16.5-22.8,31.6c0,0.1,0,0.3,0.1,0.4
			c1.6,14.8,17.4,27.3,32,27.7c1.5,0,3-0.1,4.5-0.3c15.8-2.6,20-18.9,17.4-34.9C196.2,222.3,183.3,216,174.6,215.5z M190.1,258.4
			c-1.4,2-3.7,3.2-6.2,2.9c-4.4-0.3-7.7-4-7.7-8.4c0-2.8,0.5-5.6,1.6-8.2c1.4-3.4,0.1-7.3-3.1-9.2c-1.9-1.2-4.1-1.6-6.3-1.1
			c-2.1,0.4-3.9,1.6-5.2,3.4c-0.8,1.3-1.4,2.7-1.9,4.2c-0.1,0.3-0.2,0.5-0.2,0.6c-0.7,1.8-1.9,2.4-2.6,2.3c-0.6-0.1-1-0.5-1.2-1.1
			c-0.8-5,0.8-10,4.4-13.5c3.1-3.1,7.5-4.6,11.8-4c4.6,0.5,8.6,3.3,10.7,7.4c2.1,4.9,1.6,10.5-1.3,15c-0.2,0.4-0.3,0.7-0.5,1
			c-1,1.8-1.1,3.9-0.2,5.7c0.8,1.1,2.1,1.7,3.5,1.7c0.6,0,1.3-0.1,1.9-0.3c0.8-0.2,1.7-0.4,2.2,0.2
			C190.3,257.4,190.4,257.9,190.1,258.4L190.1,258.4z"/>
		<path class="st0" d="M376.9,288.8c3.3-8.4,5.2-17.3,5.7-26.3c0-11.1-6.3-15.7-10.3-15.7c-0.1-0.4-0.9-3.3-2-6.8
			c-0.6-2-1.4-4-2.2-5.9c3.3-4.5,4.6-10.1,3.9-15.6c-0.7-4.2-2.7-8.2-5.8-11.2c-5.8-5-12.8-8.4-20.3-10.1c-1.1-0.3-4.9-1.3-5.2-1.4
			c0-0.2-0.3-12.2-0.5-17.3c-0.1-5.2-0.9-10.3-2.3-15.2c-1.8-7.1-5.4-13.6-10.6-18.8c12.9-13.3,20.9-28.1,20.9-40.7
			c0-24.3-29.9-31.6-66.6-16.4c0,0-7.7,3.3-7.8,3.3c0,0-14.1-13.8-14.3-14c-41.9-36.5-173,109-131.1,144.3l9.2,7.7
			c-2.5,6.6-3.3,13.7-2.5,20.8c1.2,10.2,6.3,19.6,14.1,26.2c7.6,6.9,17.5,10.9,27.8,11.2c16.3,37.5,53.6,60.5,97.3,61.8
			C321.1,350.2,360.4,328.2,376.9,288.8z M386.5,244.4c4,5.2,6.1,11.6,5.8,18.2c-0.4,10.2-2.6,20.3-6.3,29.8l-0.1,0.2
			c-8.5,20.4-23.4,37.6-42.4,49c-19.8,11.5-42.3,17.4-65.2,17.1l0,0c-1.5,0-3,0-4.5-0.1c-22.6-0.5-44.6-7-63.8-18.8
			c-16.9-10.6-30.6-25.6-39.6-43.5c-10.3-1.6-20-6.2-27.8-13.2c-9.7-8.3-15.9-19.9-17.4-32.6c-0.7-6.2-0.3-12.4,1.1-18.4l-4.3-3.6
			c-7-6-11.1-14.6-11.5-23.8c-0.3-9.4,1.3-18.8,4.8-27.6c8.7-23.8,28.8-52.2,53.7-75.9C180.2,90.4,192.6,81,205.9,73
			c11.1-7.1,23.8-11.2,37-11.9c8.5-0.2,16.7,2.7,23.2,8.2c0.4,0.3,5.9,5.7,10,9.8c1-0.4,1.8-0.8,1.8-0.8c12.4-5.4,25.6-8.3,39.1-8.7
			c25,0,41.1,13.4,41.1,34.1c0,12.8-6.3,27.1-17.8,41c3.1,4.9,5.5,10.2,7.1,15.8c1.6,5.7,2.5,11.6,2.7,17.6
			c0.1,2.6,0.2,6.7,0.3,10.3c8.5,2.2,16.4,6.3,23,12.2c4.5,4.4,7.4,10.1,8.3,16.3c1,6.1,0,12.4-2.7,17.9c0.2,0.7,0.5,1.5,0.7,2.3
			c0.2,0.7,0.4,1.4,0.6,2C382.7,240.5,384.8,242.2,386.5,244.4L386.5,244.4z"/>
		<path class="st0" d="M356.8,232.3c3.2-3,4.9-7.3,4.6-11.7c-0.3-2.2-1.3-4.2-2.9-5.8c-4.6-3.8-10.1-6.5-16-7.7
			c-2.7-0.8-4.5-1.3-6.5-1.9c-3.5-1.2-5.2-2.1-5.6-8.7c-0.2-2.9-0.7-13-0.9-17.2c-0.3-7.3-1.2-17.3-7.3-21.5c-1.6-1-3.4-1.6-5.3-1.7
			c-1-0.1-2.1,0-3.1,0.3c-3.1,0.7-6,2.4-8.2,4.7c-5.8,5.3-13.5,7.9-21.3,7.2c-4.3-0.2-8.9-0.9-14.1-1.2c-1-0.1-2-0.1-3.1-0.2
			c-14,0.4-25.5,11-27.1,24.8c-3,20.8,11.9,31.6,16.2,37.9c0.7,0.8,1.1,1.8,1.2,2.8c-0.1,1.2-0.7,2.2-1.5,3l0,0
			c-12.1,13.6-16.5,32.5-11.6,50c0.6,2.1,1.3,4.1,2.2,6.1c10.9,25.7,44.6,37.7,77.6,26.8c4.3-1.4,8.5-3.2,12.5-5.3
			c7.2-3.6,13.7-8.5,19.2-14.5c8.5-8.6,14.1-19.7,16-31.7c1-6.6-0.5-9.2-2.4-10.4c-1.4-0.8-3-1.1-4.6-0.8
			c-0.8-5.2-2.3-10.3-4.4-15.1L356.8,232.3z"/>
		<path class="st0" d="M302.8,133c0.5,0.1,0.9-0.8,0.4-1.1c-7.9-4.1-16.6-6.4-25.4-6.7c-0.3,0-0.5-0.2-0.5-0.5c0-0.1,0-0.2,0.1-0.3
			c1.4-1.8,3-3.4,4.8-4.8c0.2-0.2,0.2-0.5,0.1-0.7c-0.1-0.1-0.2-0.2-0.4-0.2c-10.9,1.1-21.3,4.7-30.4,10.7c-0.2,0.1-0.5,0.1-0.7-0.1
			c-0.1-0.1-0.1-0.2-0.1-0.4c0.7-2.7,1.8-5.4,3.2-7.8c0.1-0.2,0-0.5-0.2-0.6c-0.1-0.1-0.3-0.1-0.4,0c-13.2,7.2-24.9,16.8-34.6,28.3
			c-0.2,0.2-0.2,0.5,0,0.7c0.2,0.1,0.4,0.2,0.6,0c11.3-7.9,24-13.5,37.4-16.5C271.9,129.7,287.7,129.6,302.8,133"/>
		<path class="st0" d="M264,95.9c0,0-11.4-13.2-14.9-14.2c-21.2-5.7-67,25.8-96.2,67.5c-11.8,16.9-28.8,46.7-20.7,62
			c2.9,3.4,6.1,6.6,9.7,9.3c5.4-7.6,13.6-12.8,22.8-14.5c11.5-32.2,31.8-60.6,58.4-82C236,113.5,249.7,104.1,264,95.9"/>
	</g>
	<g>
		<path d="M189.3,257.8c0.3,0.4,0.4,1,0.1,1.4c-1.3,2-3.6,3.2-5.9,3c-4.3-0.5-7.5-4.2-7.4-8.5c0-2.8,0.5-5.7,1.5-8.3
			c1.4-3.4,0.1-7.3-2.9-9.4c-1.8-1.2-4-1.6-6.1-1.1c-2,0.4-3.8,1.7-5,3.4c-0.8,1.3-1.4,2.8-1.8,4.3c-0.1,0.3-0.1,0.5-0.2,0.6
			c-0.7,1.9-1.8,2.4-2.5,2.3c-0.4,0-0.8-0.3-1.1-1.1c-0.8-5,0.8-10.1,4.2-13.8c2.9-3.1,7.1-4.6,11.3-4.1c4.5,0.6,8.3,3.4,10.3,7.5
			c2,5,1.5,10.6-1.3,15.2c-0.2,0.4-0.3,0.7-0.5,1.1c-1,1.8-1.1,4-0.1,5.8c0.8,1.1,2,1.7,3.4,1.7c0.6,0,1.2-0.1,1.8-0.3
			C188,257.4,188.8,257.2,189.3,257.8 M382.2,262.6c-0.4,9-2.3,17.8-5.6,26.2c-16.4,39.4-55.5,61.3-102,59.9
			c-43.4-1.3-80.4-24.3-96.6-61.7c-10.2-0.3-20-4.2-27.6-11.1c-7.8-6.7-12.8-16-14.1-26.2c-0.8-7,0.1-14.1,2.5-20.7l-9.1-7.7
			C88.1,186,218.3,40.8,259.9,77.2c0.2,0.2,14.2,13.9,14.2,14c0.1,0,7.7-3.3,7.7-3.3c36.5-15.2,66.2-7.8,66.2,16.4
			c0,12.6-8,27.3-20.8,40.6c5.1,5.2,8.7,11.7,10.5,18.8c1.4,4.9,2.2,10.1,2.3,15.2c0.2,5.1,0.5,17.1,0.5,17.3c0.3,0.1,4,1.1,5.1,1.4
			c7.5,1.6,14.4,5.1,20.2,10c3.1,3,5.1,6.9,5.7,11.1c0.8,5.5-0.6,11.1-3.8,15.6c0.8,1.9,1.6,3.9,2.2,5.9c1.1,3.5,1.9,6.3,2,6.8
			C375.9,247,382.2,251.6,382.2,262.6L382.2,262.6z M198.2,241c-2.8-18.4-15.2-24.9-23.6-25.3c-2.1-0.1-4.2,0-6.3,0.4
			c-15,3-23.5,15.8-21.8,32.5c2.5,15.4,15.2,27,30.8,28.1c1.4,0,2.9-0.1,4.3-0.3C196.7,273.9,200.7,257.3,198.2,241z M223.8,124.3
			c12.7-10.5,26.3-19.8,40.6-28c0,0-11.3-13.2-14.8-14.2c-21.1-5.7-66.5,25.7-95.6,67.3c-11.7,16.8-28.6,46.6-20.5,61.9
			c2.9,3.4,6.1,6.6,9.6,9.3c5.4-7.6,13.5-12.8,22.6-14.5C177.2,174.1,197.3,145.7,223.8,124.3z M269.6,269.8c1.1,5,4.9,8.9,9.8,10.3
			c2.5,0.9,5.1,1.6,7.7,2.1c33.3,5.7,64.4-13.4,71.4-18.2c0.5-0.4,0.9,0,0.5,0.6c-0.2,0.3-0.4,0.7-0.7,1
			c-8.6,11.1-31.6,24-61.6,23.9c-13.1,0-26.2-4.6-31-11.7c-7.5-11-0.4-27.1,12-25.4c0,0,4.2,0.5,5.4,0.6c19.3,1.9,38.7-1.3,56.5-9.1
			c16.9-7.9,23.3-16.6,22.4-23.6c-0.3-2.2-1.3-4.2-2.9-5.7c-4.6-3.8-10.1-6.4-16-7.6c-2.7-0.8-4.5-1.2-6.5-1.9
			c-3.5-1.2-5.2-2.1-5.6-8.7c-0.2-2.9-0.7-12.9-0.9-17.1c-0.3-7.3-1.2-17.2-7.3-21.3c-1.6-1-3.4-1.6-5.3-1.7c-1.1-0.1-2.1,0-3.1,0.3
			c-3.1,0.7-6,2.3-8.2,4.6c-5.8,5.3-13.6,7.8-21.4,7.2c-4.3-0.2-8.9-0.9-14.1-1.2c-1-0.1-2-0.1-3.1-0.2
			c-13.9,0.4-25.5,10.9-27.2,24.7c-3,20.7,11.9,31.3,16.2,37.6c0.7,0.8,1.1,1.8,1.2,2.8c-0.1,1.1-0.7,2.2-1.5,3l0,0
			c-12.1,13.5-16.5,32.2-11.6,49.7c0.6,2.1,1.3,4.1,2.2,6c10.9,25.5,44.6,37.4,77.6,26.6c4.3-1.4,8.5-3.2,12.5-5.3
			c7.2-3.6,13.7-8.5,19.2-14.4c8.5-8.5,14.1-19.5,16-31.4c1-6.6-0.5-9.1-2.4-10.3c-1.4-0.8-3-1.1-4.6-0.8c-0.8-5.2-2.3-10.2-4.4-15
			c-9.4,7.1-20.1,12.4-31.4,15.7c-13.7,3.9-27.9,5.4-42,4.6c-9.1-0.7-15.1-3.4-17.4,4c13.8,4.6,28.4,6.1,42.8,4.4
			c0.4,0,0.8,0.3,0.8,0.7l0,0c0,0.3-0.2,0.7-0.5,0.8C313.4,270.2,296.5,278.1,269.6,269.8z M220,150c11.2-7.9,23.8-13.5,37.1-16.5
			c15-3.5,30.7-3.5,45.7-0.1c0.5,0.1,0.9-0.8,0.4-1.1c-7.8-4.1-16.4-6.3-25.3-6.6c-0.3,0-0.5-0.2-0.5-0.5c0-0.1,0-0.2,0.1-0.3
			c1.4-1.8,3-3.4,4.8-4.8c0.2-0.2,0.2-0.5,0.1-0.7c-0.1-0.1-0.2-0.2-0.4-0.2c-10.8,1.1-21.2,4.7-30.2,10.7c-0.2,0.1-0.5,0.1-0.6-0.1
			c-0.1-0.1-0.1-0.2-0.1-0.4c0.7-2.7,1.8-5.4,3.2-7.8c0.1-0.2,0-0.5-0.2-0.6c-0.1-0.1-0.3-0.1-0.4,0c-13.1,7.2-24.8,16.8-34.4,28.2
			c-0.2,0.2-0.2,0.5,0,0.7C219.6,150.1,219.9,150.1,220,150z M307.7,220.1c1.9,1.2,4.4,0.8,5.8-1c0.8-1.6-0.4-3.8-2.7-4.9
			c-1.9-1.2-4.4-0.8-5.8,1C304.2,216.8,305.4,219,307.7,220.1z M314.9,193.8c0.6,2.9,1.8,5.7,3.6,8.1c1.8-0.2,3.7-0.2,5.5,0
			c1.1-3.2,1.2-6.7,0.3-9.9c-1.3-6-3.1-9.7-6.8-9.1C313.7,183.4,313.6,187.7,314.9,193.8z M322.8,207.6c-2.5-0.7-5,0.7-5.8,3.2
			c-0.7,2.5,0.7,5,3.2,5.8c2.5,0.7,5-0.7,5.8-3.2c0.1-0.4,0.2-0.8,0.2-1.2C326.4,210,325,208,322.8,207.6z"/>
	</g>
	<g>
		<path d="M261.3,207.1c-0.6-0.1-0.8-0.3-0.9-0.7c-0.2-1,1.4-2.8,3.1-4c5-3.7,11.5-4.4,17.3-2.1c2.6,1.1,4.9,2.9,6.5,5.2
			c0.6,1,0.7,1.7,0.3,2.1c-0.6,0.6-2.2-0.1-4.7-1.2c-3-1.5-6.4-2.2-9.7-2.1C269.1,205.1,265.1,206,261.3,207.1z M286.4,212.2
			c-2.2-2.3-5.4-3.4-8.6-2.8c-2.3,0.2-4.5,1.1-6.3,2.6c-0.8,0.6-1.4,1.5-1.6,2.5c0,0.2,0.1,0.4,0.3,0.6c0.1,0.1,0.3,0.2,0.5,0.2
			c0.8-0.1,1.6-0.3,2.4-0.7c3.4-1.3,7-1.6,10.6-1.1c1.6,0.2,2.4,0.3,2.8-0.3C286.7,212.9,286.6,212.5,286.4,212.2z"/>
	</g>
	<g>
		<path d="M281.7,213.7c1-3.7,1.1-7.6,0.2-11.3c-1.3-6-3.4-9.5-7.1-8.9c-3.8,0.6-3.9,5.4-2.6,11.5c0.6,2.8,1.6,5.4,3.2,7.8
			C278.3,216.9,280.3,215.9,281.7,213.7L281.7,213.7z"/>
	</g>
</g>
<g>
	<path d="M441.3,430.4c-4.1,0-7-5.1-7-12.3c0-7,3.1-12.3,6.9-12.3c4.9,0,7,4.5,7,12.3C448.2,426.2,446.2,430.4,441.3,430.4z
		 M446.2,391c-6.7,0.2-12.7,4.4-15.1,10.7c-1.2,2.6-1.1,3.3-2,3.3c-1.3,0-0.2-2.1,0.4-4.5c0.7-2.8,0.8-5.6,0.3-8.4h-13v62.2h17.7
		v-19.7c2.4,4.4,6.9,7.2,12,7.3c12.8,0,19.2-10.8,19.2-25.5C465.6,399.9,457.9,391,446.2,391L446.2,391z M314,392.2v48.7h17.7v-48.7
		c-2.8,1.3-5.8,1.9-8.8,1.7C319.9,394,316.8,393.4,314,392.2L314,392.2z M292.1,391c-10.2,0-14.1,9.7-14.9,11.4
		c-0.8,1.7-1.2,2.7-1.8,2.6c-1.1,0-0.3-2.1,0.1-3.4c1.7-5.5,2.6-11.3,2.6-17c0.2-2.4-0.1-4.9-0.7-7.3H262v63.5h17.7v-24.3
		c0-4,1.6-10.9,6-10.9c3.7,0,4.8,2.7,4.8,8.2v26.9h17.7v-25.8C308.3,402.5,306.2,391,292.1,391L292.1,391z M228.5,416.5
		c0-4.4,4.1-8.4,11.5-8.4c5.7,0.1,11.3,1.8,16.2,4.8v-17c0,0-5.2-5-17.9-5c-13.4,0-24.6,7.8-24.6,24.7s10.1,26.3,24.5,26.3
		c6.5,0.1,12.9-2.1,18-6.2v-16.1c-4.8,3.2-10.4,5.1-16.1,5.3C231.6,425,228.5,421,228.5,416.5L228.5,416.5z M191.4,377.3h17.7v63.5
		h-17.7V377.3z M136.6,429.4c-4.2,1-6.4-0.3-6.4-3.1c0-3.8,4-5.4,9.6-5.4c2.5,0,4.9,0.2,4.9,0.2
		C143.5,425.1,140.4,428.2,136.6,429.4z M140.9,391c-8,0-16,1.7-23.3,5v14.6c0,0,10.7-6.2,19.5-6.2c7,0,7.8,3.7,7.5,6.9
		c-2.7-0.5-5.4-0.6-8.1-0.5c-14.4,0-21.7,6.6-21.7,17.1c0,10,8.2,14.1,15.1,14.1c6.8,0.3,13.1-3.7,15.8-10c0.9-2.2,1.1-3.7,2-3.7
		c1,0,0.6,1.1,0.6,3.3c-0.2,3.1,0.1,6.2,0.7,9.3h13.3v-24C162.2,401.9,156.9,391,140.9,391L140.9,391z M394.8,391
		c-6.1,0.3-11.4,4.3-13.4,10.1c-1,2.2-1.3,4-2.1,4c-1.1,0-0.4-1.9-1.2-4.9c-1.4-5.8-6.8-9.6-12.7-9.1c-8.2,0-11.7,6.9-13.3,10.7
		c-1.1,2.6-1.1,3.3-2,3.3c-1.3,0-0.2-2.1,0.4-4.5c0.7-2.8,0.8-5.6,0.3-8.4h-13v48.7h17.7v-24.3c0-4.8,2-10.9,5.4-10.9
		c4,0,4.8,3,4.8,8.7v26.4h17.8v-24.3c0-4.3,1.7-10.9,5.5-10.9c4,0,4.7,4.3,4.7,8.7v26.4H411V412C411,399.4,406.5,391,394.8,391
		L394.8,391z M94.4,391c-6.1,0.3-11.4,4.3-13.4,10c-1,2.2-1.3,4-2.1,4c-1.1,0-0.3-1.5-1.2-4.9c-1.5-5.7-6.8-9.6-12.7-9.1
		c-8.2,0-11.7,6.9-13.3,10.7c-1.1,2.6-1.1,3.3-2,3.3c-1.3,0-0.2-2.1,0.4-4.5c0.7-2.8,0.8-5.6,0.3-8.4h-13v48.7h17.7v-24.3
		c0-4.8,2-10.9,5.4-10.9c4,0,4.8,3,4.8,8.7v26.4H83v-24.3c0-4.3,1.7-10.9,5.5-10.9c4,0,4.7,4.3,4.7,8.7v26.4h17.4v-28.7
		C110.7,399.4,106.2,391,94.4,391L94.4,391z M312,383.9c0-3.9,4.8-7.1,10.8-7.1s10.8,3.2,10.8,7.1s-4.8,7.1-10.8,7.1
		S312,387.8,312,383.9L312,383.9z M176.8,393.9c3,0.1,6.1-0.5,8.8-1.7v48.7H168v-48.7L176.8,393.9z M165.9,383.9
		c0-3.9,4.8-7.1,10.8-7.1s10.8,3.2,10.8,7.1s-4.8,7.1-10.8,7.1C170.8,391,165.9,387.8,165.9,383.9z"/>
</g>
</svg>
