<?xml version="1.0" encoding="utf-8"?>
<!-- Generator: Adobe Illustrator 21.1.0, SVG Export Plug-In . SVG Version: 6.00 Build 0)  -->
<svg version="1.1" id="Layer_1" xmlns="http://www.w3.org/2000/svg" xmlns:xlink="http://www.w3.org/1999/xlink" x="0px" y="0px"
	 width="25px" height="40px" viewBox="0 0 25 40" style="enable-background:new 0 0 25 40;" xml:space="preserve">
<style type="text/css">
	.st0{fill:#32BDB9;}
</style>
<path class="st0" d="M3.8,39.5c-1.8,0-3.3-1.5-3.3-3.3V3.8C0.5,2,2,0.5,3.8,0.5h17.5c1.8,0,3.3,1.5,3.3,3.3v32.5
	c0,1.8-1.5,3.3-3.3,3.3H3.8z M3.8,2C2.8,2,2,2.8,2,3.8v32.5c0,1,0.8,1.8,1.8,1.8h17.5c1,0,1.8-0.8,1.8-1.8V3.8c0-1-0.8-1.8-1.8-1.8
	H3.8z M12.5,34.5c-1.1,0-2-0.9-2-2s0.9-2,2-2c1.1,0,2,0.9,2,2S13.6,34.5,12.5,34.5z"/>
</svg>
