<?xml version="1.0" encoding="utf-8"?>
<!-- Generator: Adobe Illustrator 23.0.2, SVG Export Plug-In . SVG Version: 6.00 Build 0)  -->
<svg version="1.1" id="Layer_1" xmlns="http://www.w3.org/2000/svg" xmlns:xlink="http://www.w3.org/1999/xlink" x="0px" y="0px"
	 width="51.4px" height="40px" viewBox="0 0 51.4 40" style="enable-background:new 0 0 51.4 40;" xml:space="preserve">
<style type="text/css">
	.st0{fill:#32BDB9;}
</style>
<g>
	<g>
		<g>
			<path class="st0" d="M46.1,32.7H5.3V7.3h40.9V32.7z M6.6,31.4h38.3V8.6H6.6V31.4z"/>
		</g>
		<g>
			<g>
				<path class="st0" d="M25.7,11.1c-4.9,0-8.9,4-8.9,8.9c0,4.9,4,8.9,8.9,8.9s8.9-4,8.9-8.9C34.6,15.1,30.6,11.1,25.7,11.1z
					 M25.7,27.8c-4.3,0-7.8-3.5-7.8-7.8c0-4.3,3.5-7.8,7.8-7.8s7.8,3.5,7.8,7.8C33.5,24.3,30,27.8,25.7,27.8z"/>
			</g>
			<g>
				<path class="st0" d="M28.5,19.9c-0.4-0.3-1.2-0.6-2.4-0.9v-3.8c0.7,0,1.2,0.3,1.6,0.8c0.2,0.3,0.3,0.6,0.3,1h1.3
					c0-0.9-0.3-1.6-0.9-2.1c-0.5-0.5-1.3-0.8-2.4-0.9v-1h-0.7v1c-1,0-1.8,0.3-2.4,1c-0.6,0.6-0.9,1.3-0.9,2.1c0,0.9,0.3,1.6,0.8,2.1
					c0.5,0.5,1.4,0.8,2.5,1.1v4.2c-0.9-0.1-1.5-0.4-1.8-1c-0.2-0.3-0.3-0.8-0.3-1.5h-1.4c0,0.9,0.1,1.6,0.4,2.1c0.5,1,1.6,1.5,3,1.6
					V27h0.7v-1.5c0.9-0.1,1.6-0.3,2.1-0.6c0.9-0.6,1.3-1.5,1.3-2.9C29.5,21,29.2,20.3,28.5,19.9z M25.3,18.8c-0.6-0.1-1-0.3-1.4-0.6
					c-0.3-0.3-0.5-0.7-0.5-1.2c0-0.4,0.1-0.8,0.4-1.2c0.3-0.4,0.8-0.6,1.4-0.6C25.3,15.1,25.3,18.8,25.3,18.8z M27.9,23.4
					c-0.3,0.6-0.9,0.9-1.8,1v-4.1c0.6,0.2,1.1,0.4,1.4,0.6c0.5,0.3,0.7,0.8,0.7,1.5C28.2,22.8,28.1,23.1,27.9,23.4z"/>
			</g>
		</g>
	</g>
</g>
</svg>
