<?xml version="1.0" encoding="utf-8"?>
<!-- Generator: Adobe Illustrator 21.1.0, SVG Export Plug-In . SVG Version: 6.00 Build 0)  -->
<svg version="1.1" id="Layer_1" xmlns="http://www.w3.org/2000/svg" xmlns:xlink="http://www.w3.org/1999/xlink" x="0px" y="0px"
	 width="50.3px" height="41.9px" viewBox="0 0 50.3 41.9" style="enable-background:new 0 0 50.3 41.9;" xml:space="preserve">
<style type="text/css">
	.st0{display:none;}
	.st1{display:inline;}
	.st2{fill:none;stroke:#000000;stroke-width:16;stroke-miterlimit:10;}
	.st3{fill:none;stroke:#32BDB9;stroke-width:1.5;stroke-miterlimit:10;}
	.st4{fill:none;stroke:#32BDB9;stroke-width:1.5;stroke-linecap:round;stroke-linejoin:round;stroke-miterlimit:10;}
</style>
<g id="Layer_3" class="st0">
	<g class="st1">
		<path class="st2" d="M278.1-55.6h-506c-5.9,0-10.8-4.9-10.8-10.8l36.9-86.9c2.9-6,5.4-10.2,11.4-10.2l430.7-1.9
			c5.9,0,7.1,3.5,10.8,10.8l37.8,88.2C288.9-60.6,284-55.6,278.1-55.6z"/>
		<path class="st2" d="M-214.4-27.3V148c0,5.9,4.9,10.8,10.8,10.8H252c5.9,0,10.8-4.9,10.8-10.8V-27.3H-214.4z M-69.4,118h-112.2
			V10.8h112.3V118H-69.4z M81.9,118H-30.4V10.8H81.9V118z M233.2,118H120.9V10.8h112.3V118z"/>
		<path class="st2" d="M284.2,207.8h-519.5c-1,0-1.9-0.9-1.9-1.9v-16.8c0-1,0.9-1.9,1.9-1.9h519.5c1,0,1.9,0.9,1.9,1.9v16.8
			C286.1,207,285.2,207.8,284.2,207.8z"/>
	</g>
</g>
<g id="Layer_2">
	<g>
		<g>
			<path class="st3" d="M47.4,34.5V12.7c1,0,1.7-0.8,1.7-1.7V9.2L45.7,1H18l-1.9,4.6H34c0,0,3.5,6.2,3.9,8.5
				c0.1,0.4,0.2,1.1,0.1,1.5c-0.1,0.5-0.3,1.1-0.5,1.5c-0.4,0.8-1.3,1-1.3,1L36,34.6L47.4,34.5L47.4,34.5z"/>
			<line class="st4" x1="35.9" y1="34.5" x2="49.8" y2="34.5"/>
			<line class="st4" x1="47.4" y1="34.5" x2="47.4" y2="12.7"/>
			<path class="st4" d="M45.7,10.4V11c0,1-0.8,1.7-1.7,1.7s-1.7-0.8-1.7-1.7v-0.6V11c0,1-0.8,1.7-1.7,1.7c-1,0-1.7-0.8-1.7-1.7v-0.6
				V11c0,1-1.4,1.6-1.4,1.6s-1.8-3.3-1.8-4.3L34,5.5H16.1L17.9,1h27.7l3.5,8.3V11c0,1-0.8,1.7-1.7,1.7s-1.7-0.8-1.7-1.7L45.7,10.4
				L45.7,10.4z"/>
			<line class="st4" x1="48.4" y1="8.1" x2="35.3" y2="8"/>
			<rect x="35.9" y="20.7" class="st4" width="8.1" height="13.8"/>
		</g>
		<g>
			<path class="st3" d="M36.1,41V18c1,0,1.8-0.8,1.8-1.8v-1.8l-3.6-8.7H5.1l-3.6,8.7v1.8c0,1,0.8,1.8,1.8,1.8v23H36.1z"/>
			<line class="st4" x1="0.8" y1="41" x2="38.5" y2="41"/>
			<line class="st4" x1="3.2" y1="41" x2="3.2" y2="18"/>
			<line class="st4" x1="36.1" y1="41" x2="36.1" y2="18"/>
			<path class="st4" d="M34.2,15.5v0.6c0,1-0.8,1.8-1.8,1.8c-1,0-1.8-0.8-1.8-1.8v-0.6v0.6c0,1-0.8,1.8-1.8,1.8
				c-1,0-1.8-0.8-1.8-1.8v-0.6v0.6c0,1-0.8,1.8-1.8,1.8c-1,0-1.8-0.8-1.8-1.8v-0.6v0.6c0,1-0.8,1.8-1.8,1.8s-1.8-0.8-1.8-1.8v-0.6
				v0.6c0,1-0.8,1.8-1.8,1.8c-1,0-1.8-0.8-1.8-1.8v-0.6v0.6c0,1-0.8,1.8-1.8,1.8c-1,0-1.8-0.8-1.8-1.8v-0.6v0.6c0,1-0.8,1.8-1.8,1.8
				s-1.8-0.8-1.8-1.8v-0.6v0.6c0,1-0.8,1.8-1.8,1.8c-1,0-1.8-0.8-1.8-1.8v-0.6v0.6c0,1-0.8,1.8-1.8,1.8s-1.8-0.8-1.8-1.8v-1.8
				l3.6-8.7h29.2l3.6,8.7v1.8c0,1-0.8,1.8-1.8,1.8s-1.8-0.8-1.8-1.8L34.2,15.5L34.2,15.5z"/>
			<path class="st4" d="M37,13.1H2.2"/>
			<rect x="23.9" y="26.4" class="st4" width="8.5" height="14.5"/>
			<rect x="6.9" y="26.4" class="st3" width="14.6" height="8.5"/>
			<rect x="6.9" y="26.4" class="st4" width="14.6" height="8.5"/>
			<line class="st4" x1="10.5" y1="28.8" x2="9.3" y2="30.1"/>
			<line class="st4" x1="13" y1="29.4" x2="10.5" y2="31.9"/>
		</g>
	</g>
</g>
</svg>
