<?xml version="1.0" encoding="utf-8"?>
<!-- Generator: Adobe Illustrator 21.1.0, SVG Export Plug-In . SVG Version: 6.00 Build 0)  -->
<svg version="1.1" id="Layer_1" xmlns="http://www.w3.org/2000/svg" xmlns:xlink="http://www.w3.org/1999/xlink" x="0px" y="0px"
	 width="891.8px" height="570px" viewBox="0 0 891.8 570" style="enable-background:new 0 0 891.8 570;" xml:space="preserve">
<style type="text/css">
	.st0{opacity:0.6;}
	.st1{opacity:0.5;fill:#EFF7FE;enable-background:new    ;}
	.st2{opacity:0.15;fill:#DFE6EA;enable-background:new    ;}
	.st3{opacity:0.45;fill:#E1F5FB;enable-background:new    ;}
	.st4{opacity:0.3;fill:#D1F0EF;enable-background:new    ;}
	.st5{opacity:0.5;fill:#D1F0EF;enable-background:new    ;}
	.st6{opacity:0.5;fill:#DCE8EF;enable-background:new    ;}
	.st7{opacity:0.2;fill:#FCC8CE;enable-background:new    ;}
	.st8{opacity:0.6;fill:#D5F1F1;enable-background:new    ;}
	.st9{opacity:0.6;fill:#BBE9F9;enable-background:new    ;}
	.st10{fill:#F1FAFA;}
	.st11{opacity:0.2;fill:#FCB9C6;enable-background:new    ;}
	.st12{fill:#FCFDFF;}
	.st13{opacity:0.1;fill:#1DD4FF;enable-background:new    ;}
	.st14{opacity:0.2;fill:#A2EAE0;enable-background:new    ;}
	
		.st15{fill:none;stroke:#C0D6DD;stroke-width:2;stroke-linecap:round;stroke-linejoin:round;stroke-miterlimit:10;stroke-dasharray:4;}
	.st16{fill:#FFFFFF;}
	.st17{fill:none;stroke:#24AAA3;stroke-width:1.5;stroke-miterlimit:10;}
	.st18{fill:none;stroke:#24AAA3;stroke-width:1.5;stroke-linecap:round;stroke-linejoin:round;stroke-miterlimit:10;}
	.st19{fill:#E6F7F6;}
	.st20{fill:#24AAA3;}
	.st21{fill:none;stroke:#24AAA3;stroke-width:0.75;stroke-linecap:round;stroke-linejoin:round;}
	.st22{fill:none;stroke:#32BDB9;stroke-width:0.75;stroke-linecap:round;stroke-linejoin:round;stroke-miterlimit:10;}
	.st23{fill:none;stroke:#24AAA3;stroke-width:0.5;stroke-linecap:round;stroke-linejoin:round;}
	.st24{fill:#347EC0;}
	
		.st25{fill:none;stroke:#347EC0;stroke-width:2;stroke-linecap:round;stroke-linejoin:round;stroke-miterlimit:10;stroke-dasharray:4;}
	.st26{fill:#E6F7F6;stroke:#24AAA3;stroke-width:1.5;stroke-linecap:round;stroke-linejoin:round;stroke-miterlimit:10;}
	.st27{fill:none;stroke:#24AAA3;stroke-width:1.5;stroke-linecap:round;stroke-linejoin:round;}
	.st28{fill:#FFFFFF;stroke:#24AAA3;stroke-width:1.5;stroke-miterlimit:10;}
	.st29{fill:#E0E4E8;stroke:#32BDB9;stroke-width:1.5;stroke-linecap:round;stroke-linejoin:round;stroke-miterlimit:10;}
	.st30{fill:#E6F7F6;stroke:#24AAA3;stroke-width:1.5;stroke-linecap:round;stroke-linejoin:round;}
	.st31{fill:#C6E2F3;stroke:#24AAA3;stroke-width:1.5;stroke-linecap:round;stroke-linejoin:round;}
</style>
<g id="Layer_2">
	<g class="st0">
		<ellipse class="st1" cx="286.5" cy="302.5" rx="254.6" ry="220.3"/>
		<ellipse class="st2" cx="527" cy="180.2" rx="180.9" ry="156.5"/>
		<ellipse class="st3" cx="621.7" cy="313.5" rx="248.6" ry="215.1"/>
		<path class="st4" d="M271.4,373.3c3.8-2.8,12.7,0.2,24,3.9c8,2.7,12.1,5.2,20.2,5.7c4.3,0.3,10.8,0.7,12.8-2.1
			c4-5.5-11.5-20.1-11.1-20.4s17.4,22.2,25.6,19.7c2-0.6,3.4-3.2,6.2-8.2c3.8-6.8,2.8-8.5,5.4-10.7c4.4-3.7,8.9-0.4,16.5-3.2
			c7.7-2.8,6.7-7.5,15.3-12.9c5.6-3.5,10.7-4.5,19-6.1c16.8-3.2,19.3,0.7,27.7-2.9c9.4-4,7.1-9.2,19-16.8c6.5-4.1,12.3-5.8,21.9-8.6
			c9.7-2.8,16.6-3.7,28.9-5.4c24.9-3.3,31-1.6,34.3-0.4c5.7,2.2,5.6,3.8,11.2,6.4c12.7,6,23.5,2.1,38,1.8
			c20.5-0.5,36.3,6.2,53.7,13.6c9.1,3.9,4.5,2.9,33,17.5c19,9.7,22.6,11,29.7,16.4c8,6.1,16.8,12.8,21.9,23.9
			c3.2,6.9,2.7,10.6,8.3,21.4c4.4,8.7,7.4,11.4,9.9,13.2c5.1,3.6,8.1,2.9,11.2,6.4c4.6,5.2,4.5,14,0.4,16.1
			c-2.7,1.3-6.6-0.4-8.3-1.1c-5.3-2.3-4.9-5.1-9.9-8.2c-0.9-0.6-7.6-4.5-14.9-2.9c-0.8,0.2-7.3,1.7-7.8,4.6
			c-1.3,7.1,33.1,10.2,39.2,27.5c2.3,6.5,0.4,14.3-3.7,19.7c-7.3,9.4-19.7,8.2-23.5,16.8c-2.8,6.3,1.1,13,2.1,14.6
			c8,13.7,34,20.8,51.2,14.3c10.5-4,20.7-14.1,31.4-24.7c4.8-4.8,7.8-8.3,13.2-8.9c8.7-1.1,19.5,5.6,21.9,13.2
			c4,12.6-14.8,27.6-28.5,34.7c-15.2,7.8-33.7,8.1-70.2,8.2c-30,0.1-45.2,0.1-55.7-6.4c-11.9-7.3-23-21.7-28.1-28.2
			c-8.5-11-11.6-17.9-20.2-19.7c-9.1-1.8-18.9,3.2-21.1,4.3c-6.3,3.2-5.7,5-11.2,8.2c-13.6,8-28,3-30.1,7.9
			c-1.3,3.1,3.2,7.6,7.8,12.1c6.1,6,9.5,6.4,9.9,9.3c0.6,5-8.3,12.3-17.3,12.5c-11.3,0.2-13.6-10.9-27.3-13.6
			c-2.8-0.5-8.1-1.2-28.9,6.4c-28,10.2-26.9,14.5-40.9,17.2c-15.6,3-29.5,0-43.4-2.9c-18.8-3.9-19-7.5-33-8.9
			c-19.4-2-21.5,4.5-39.2,2.9c-12.1-1.1-22.6-6.2-43.8-16.4c-17.5-8.4-18.7-10.5-26.4-13.9c-24.5-10.8-41.2-2.4-80.9-1.8
			c-29.1,0.4-72.4,1-86.7-19.7c-7.3-10.5-7.3-26.7,1.7-35.7c10.2-10.2,25.3-4.7,75.6-8.6c41-3.1,51.8-8.4,58.6-15.4
			c9.2-9.4,10.7-21.6,11.1-25.4C279.5,392.1,265.2,377.8,271.4,373.3z"/>
		<path class="st5" d="M306.1,463.8c3.8,2.8,12.7-0.2,23.9-4c8-2.7,12.1-5.2,20.2-5.7c4.3-0.3,10.8-0.7,12.8,2.1
			c4,5.5-11.5,20.1-11.1,20.4s17.3-22.2,25.6-19.7c2,0.6,3.4,3.1,6.2,8.2c3.8,6.8,2.8,8.5,5.4,10.7c4.4,3.7,8.9,0.4,16.5,3.2
			c7.7,2.8,6.7,7.5,15.3,12.8c5.6,3.5,10.8,4.5,19,6c16.8,3.2,19.3-0.7,27.7,2.8c9.4,4,7.1,9.2,19,16.8c6.5,4.1,12.3,5.8,21.9,8.5
			c9.7,2.8,16.6,3.7,28.9,5.3c24.9,3.3,31,1.6,34.3,0.3c5.7-2.2,5.6-3.8,11.1-6.4c12.7-6,23.5-2.2,38-1.8
			c20.5,0.5,36.3-6.3,53.7-13.7c9.1-3.9,4.5-2.9,33-17.6c19-9.8,22.6-11,29.7-16.5c8-6.1,16.7-12.8,21.8-24
			c3.2-6.9,2.7-10.6,8.2-21.4c4.4-8.7,7.3-11.4,9.9-13.2c5.1-3.6,8.1-2.9,11.1-6.4c4.6-5.2,4.5-14,0.4-16.1
			c-2.7-1.3-6.6,0.4-8.3,1.1c-5.3,2.3-4.9,5.1-9.9,8.2c-0.9,0.6-7.6,4.5-14.9,2.9c-0.8-0.2-7.3-1.7-7.9-4.6
			c-1.3-7.1,33.1-10.2,39.2-27.6c2.3-6.5,0.4-14.3-3.8-19.6c-7.3-9.4-19.7-8.2-23.6-16.8c-2.8-6.3,1.1-13,2-14.7
			c8-13.7,33.9-20.9,51.2-14.4c10.5,3.9,20.7,14,31.4,24.6c4.8,4.7,7.8,8.2,13.2,8.9c8.7,1.1,19.5-5.6,21.9-13.3
			c4-12.6-14.9-27.6-28.6-34.6c-15.2-7.8-33.7-8-70.2-8.1c-30-0.1-45.2,0-55.7,6.5c-11.9,7.3-23,21.8-28,28.3
			c-8.5,11-11.5,18-20.2,19.7c-9,1.8-18.9-3.2-21.1-4.3c-6.3-3.2-5.7-5-11.2-8.2c-13.6-8-28-2.9-30.2-7.8c-1.3-3.1,3.2-7.6,7.8-12.2
			c6-6,9.5-6.4,9.9-9.3c0.6-5-8.3-12.3-17.4-12.5c-11.3-0.2-13.6,10.9-27.2,13.6c-2.8,0.6-8.1,1.2-28.9-6.4
			c-28-10.2-27-14.5-40.9-17.1c-15.6-2.9-29.5,0-43.4,2.9c-18.8,4-19,7.5-33,9c-19.4,2-21.6-4.5-39.2-2.8
			c-12.1,1.2-22.6,6.3-43.7,16.5c-17.5,8.5-18.7,10.6-26.4,14c-24.5,10.8-41.2,2.4-80.9,1.9c-29.1-0.4-72.4-0.9-86.7,19.8
			c-7.2,10.5-7.3,26.7,1.7,35.7c10.2,10.2,25.3,4.7,75.6,8.5c41,3.1,51.9,8.3,58.7,15.3c9.2,9.4,10.7,21.6,11.2,25.4
			C314.1,445,299.9,459.3,306.1,463.8z"/>
		<path class="st6" d="M112.7,101c-3.3-1.3-2.7-6.9-7.9-8.3c-4-1.1-7.5,1.5-9,0c-1.8-1.7,2.3-5.4,0.3-8.6c-1.4-2.2-4.7-2.8-6.1-3
			c-5.6-1-8.5,1.9-10.5,0.5c-2.5-1.7,1.4-6.3-1.5-11.1c-1.4-2.3-4.3-4.6-7.9-4.8c-4-0.2-7.5,2.3-9,4.8c-2.3,3.6,0.4,5.4-1.5,10.6
			c-1.5,4.1-3.6,4.3-5.3,8.3c-1.7,4.2-0.8,7.8-0.3,10.6c2.2,12.7-1.8,27.4-5.3,27.8c-2.1,0.2-4.8-4.9-6.1-7.3
			c-2.4-4.6-2.5-7.6-4.1-7.8c-1.7-0.2-3.6,3-4.4,4.8c-2.1,4.7-1.8,11.7,2.9,15.4c3.6,2.8,6.9,1.5,7.9,3.5c1.6,3.3-6.9,7.1-9.9,16.9
			c-1,3.3-1.3,6.8,0,7.3c1.9,0.7,5.8-5.8,9.3-5c2.1,0.5,1.5,3.1,4.4,5c3.7,2.6,7.5,0.1,11.4,2c3.5,1.8,2.8,5.1,5.5,11.9
			c1.5,3.8,4.2,7.6,9.6,15.1c7.2,10.1,8.1,9.2,10.2,13.9c3,6.7,1.7,9.6,5.5,12.9c4,3.4,7.6,2.3,9.9,5.6c2.5,3.6,0.8,8.6-1.2,11.6
			c-2.4,3.6-7.5,5.6-17.5,9.3c-11.1,4.2-14.9,4.3-16.6,4.3c-3.2,0-8.4,0-12.3-3c-2.9-2.2-2.3-4.1-5.5-11.1
			c-2.9-6.3-4.4-9.5-7.6-11.4c-4.5-2.7-11.6-2.6-16.6-0.3c-7.8,3.7-9.2,12.5-12,30.3c-1.4,9.1-0.6,10.7,0.6,11.6
			c2.7,2.1,7.4,0.8,30.1-3c4.5-0.8,7.2-1.2,10.2,0c6.2,2.5,8.2,9.9,8.8,12.1c1.1,4.1,0.2,5.2,0.6,12.6c0.3,5.7,0.5,8.8,1.5,11.6
			c2.9,8.5,10.8,8.2,22.5,19.4c5.2,5,10.3,9.8,12.3,17.4c2.1,8.2-0.2,16.1-1.5,19.4c-3.2,8.7-7.7,10.3-6.4,14.1
			c2.3,6.8,19.2,10.5,24.2,6.1c2.5-2.2,0.3-4.9,2.9-7.8c3.8-4.2,14.2-5.2,20.1-1.5c2,1.3,4,3.3,8.2,21.2c2.8,12.2,3,15.8,7,18.4
			c4.3,2.8,10,2.7,14.3,2.5c6.6-0.2,8.3-1.9,16-3.3c9.3-1.6,11.1,0,18.7-1c7.5-1,8.2-3,21.6-8.6c19.9-8.2,22.2-5.4,32.4-11.9
			c2.4-1.5,7.5-5,15.2-8.6c4.7-2.2,7.5-3.1,8.8-3.5c2.4-0.7,7.5-2.3,14.3-2.8c8.4-0.5,10.3,1.2,12.8-0.5c3.8-2.6,0.5-7.2,4.7-11.1
			c3-2.9,8.1-3.5,11.7-3c3.8,0.5,4.3,2,12.5,6.6c5.9,3.3,8.8,4.9,11.7,5.3c5.4,0.8,7.7-1,12.3,0.8c3.3,1.3,2.9,2.6,5.8,3.5
			c3.4,1,5.3-0.3,12.3-1.3c7.4-1,7.3,0.3,9.6-0.8c5.2-2.4,3.4-7.8,9.3-13.6c4-3.9,5.8-2.4,8.5-5.3c7-7.6-4.7-18.2,1.2-31.3
			c2.4-5.3,6.7-8.9,9.3-11.1c8.9-7.4,15.2-6.4,19-12.6c2.6-4.3,3.2-10.5,0.3-15.1c-3.8-6-11.2-5.7-12.8-11.4
			c-1.2-4.2,2.2-6.8,0.3-8.8c-2.8-3-12.4-0.2-13.7,0.3c-10.5,3.3-13.5,9.5-17.8,8.3c-4-1.2-4.6-7.8-4.7-8.1
			c-0.4-4.8,2.5-7.1,6.4-13.9c1.8-3.1,6-10.3,7.3-18.9c0.8-5.4,1.8-12-2.3-15.1c-4.3-3.3-9.6,0.4-14.6-2.8
			c-4.5-2.9-1.9-6.9-5.8-16.4c-3.6-8.8-9.8-14.8-12.3-17.2c-5.8-5.6-7-4.4-9.3-7.8c-2.3-3.4-3-7.4,0-25c2.4-14,3.8-16.6,1.5-18.9
			c-2.2-2.2-5.4-1.9-25.1-1.3c-16.8,0.6-22.4,0.6-27.1-2.8c-4.3-3.1-5.6-7.4-5.8-8.1c-2.5-8.4,5.3-12.7,2.6-19.4
			c-1.8-4.6-7.8-8.6-12.5-8.1c-6.1,0.7-5.9,8.4-15.8,14.1c-5.5,3.2-12.5,4.9-14,3.3c-2.4-2.7,11.5-12.4,8.5-17.2
			c-2.3-3.6-12.7-1.9-13.7-1.8c-13.2,2.2-15,10-25.7,14.4c-16.6,6.8-37.7-1.8-46.1-5.3c-18.3-7.6-18.6-15.1-28.3-14.9
			C134.7,74.4,120.8,104.1,112.7,101z"/>
		<path class="st7" d="M714,52.9c4.1-1.5,3.3-8.5,9.7-10.2c4.9-1.3,9.2,1.8,11.1,0c2.2-2-2.8-6.6-0.4-10.5c1.7-2.7,5.8-3.4,7.5-3.7
			c6.8-1.2,10.4,2.3,12.9,0.6c3.1-2.1-1.7-7.7,1.8-13.6c1.7-2.8,5.3-5.7,9.7-5.9c4.9-0.2,9.2,2.8,11.1,5.9c2.8,4.4-0.5,6.7,1.8,13
			c1.8,5.1,4.5,5.3,6.4,10.2c2.1,5.2,0.9,9.6,0.4,13c-2.6,15.6,2.2,33.7,6.4,34.1c2.6,0.3,5.9-6,7.5-9c3-5.6,3.1-9.4,5-9.6
			c2.1-0.2,4.4,3.6,5.4,5.9c2.5,5.7,2.3,14.3-3.6,18.9c-4.4,3.4-8.4,1.8-9.7,4.3c-2,4.1,8.5,8.7,12.2,20.8c1.2,4,1.6,8.4,0,9
			c-2.4,0.9-7.2-7.2-11.5-6.2c-2.6,0.6-1.9,3.8-5.4,6.2c-4.6,3.2-9.2,0.1-14,2.5c-4.3,2.2-3.5,6.2-6.8,14.6
			c-1.9,4.7-5.2,9.3-11.8,18.6c-8.9,12.4-9.9,11.2-12.5,17c-3.7,8.2-2,11.7-6.8,15.8c-4.9,4.2-9.4,2.8-12.2,6.8
			c-3,4.4-1,10.6,1.4,14.3c3,4.4,9.2,6.8,21.5,11.5c13.6,5.1,18.3,5.3,20.4,5.3c3.9,0,10.3,0,15-3.7c3.5-2.8,2.8-5,6.8-13.6
			c3.6-7.8,5.4-11.6,9.3-13.9c5.6-3.3,14.3-3.2,20.4-0.3c9.6,4.5,11.3,15.4,14.7,37.2c1.7,11.1,0.8,13.1-0.7,14.3
			c-3.3,2.5-9,1-36.9-3.7c-5.5-0.9-8.9-1.5-12.5,0c-7.7,3-10,12.1-10.7,14.9c-1.3,5-0.2,6.4-0.7,15.5c-0.4,7-0.6,10.8-1.8,14.3
			c-3.5,10.4-13.2,10.1-27.6,23.9c-6.4,6.1-12.6,12.1-15,21.4c-2.6,10.1,0.3,19.7,1.8,23.9c4,10.7,9.4,12.7,7.9,17.4
			c-2.8,8.4-23.6,12.9-29.7,7.4c-3-2.7-0.4-6-3.6-9.6c-4.6-5.2-17.4-6.4-24.7-1.9c-2.5,1.5-4.9,4.1-10,26
			c-3.5,14.9-3.6,19.3-8.6,22.6c-5.3,3.5-12.3,3.3-17.6,3.1c-8.1-0.3-10.2-2.3-19.7-4c-11.4-2-13.7,0-22.9-1.2
			c-9.2-1.3-10.1-3.7-26.5-10.5c-24.4-10.1-27.3-6.7-39.8-14.6c-3-1.9-9.2-6.1-18.6-10.5c-5.7-2.7-9.2-3.8-10.7-4.3
			c-2.9-0.9-9.2-2.9-17.6-3.4c-10.3-0.7-12.7,1.5-15.8-0.6c-4.6-3.2-0.7-8.9-5.7-13.6c-3.7-3.5-10-4.3-14.3-3.7
			c-4.6,0.6-5.3,2.5-15.4,8.1c-7.2,4-10.8,6-14.3,6.5c-6.6,1-9.5-1.3-15,0.9c-4.1,1.6-3.5,3.2-7.2,4.3c-4.2,1.3-6.5-0.4-15-1.6
			c-9.1-1.2-9,0.4-11.8-0.9c-6.4-3-4.2-9.6-11.5-16.7c-4.9-4.8-7.1-2.9-10.4-6.5c-8.6-9.4,5.8-22.3-1.4-38.4
			c-2.9-6.5-8.2-10.9-11.5-13.6c-10.9-9.1-18.6-7.9-23.3-15.5c-3.2-5.2-3.9-12.9-0.4-18.6c4.6-7.4,13.8-7,15.8-13.9
			c1.4-5.1-2.7-8.3-0.4-10.8c3.5-3.7,15.2-0.2,16.8,0.3c12.9,4,16.6,11.7,21.9,10.2c5-1.4,5.7-9.5,5.7-9.9c0.5-5.9-3-8.8-7.9-17
			c-2.2-3.8-7.3-12.7-9-23.2c-1-6.7-2.3-14.7,2.9-18.6c5.3-4,11.8,0.5,17.9-3.4c5.5-3.5,2.3-8.5,7.2-20.1
			c4.5-10.8,12.1-18.2,15-21.1c7.1-6.8,8.6-5.4,11.5-9.6c2.8-4.1,3.7-9.1,0-30.7c-3-17.2-4.7-20.3-1.8-23.2
			c2.7-2.7,6.6-2.4,30.8-1.6c20.7,0.7,27.5,0.8,33.3-3.4c5.3-3.8,6.9-9.1,7.2-9.9c3.1-10.3-6.4-15.6-3.2-23.9
			c2.2-5.6,9.5-10.6,15.4-9.9c7.4,0.9,7.2,10.3,19.3,17.4c6.7,3.9,15.4,6,17.2,4c2.9-3.3-14.1-15.3-10.4-21.1
			c2.8-4.4,15.6-2.4,16.8-2.2c16.2,2.6,18.4,12.3,31.5,17.7c20.4,8.4,46.2-2.2,56.6-6.5c22.5-9.3,22.8-18.5,34.7-18.3
			C687.1,20.1,704.2,56.7,714,52.9z"/>
		<path class="st8" d="M173.5,198.9c-2.7,0.5-1.1,7.1-6.8,16.5c-3.1,5.1-4.4,4.7-6.4,8.4c-3.6,7.1-0.4,11.9,0.4,22.4
			c0.9,10.9-1.1,24.3-5.1,24.9c-3.5,0.5-7.8-10.6-8.9-10.3c-1.3,0.4,9.3,14.8,4.2,27.9c-3.6,9.3-13.3,13.7-11.4,16.5
			c1.8,2.6,10.1-1.6,18.6,2.6c2.8,1.4,4.6,3.4,8,7.3c5.2,6,6.9,9.7,10.6,15.4c2.5,3.8,2,2.6,12.7,16.1c7,8.9,10.5,13.4,13.6,18
			c6.7,10.1,10,15.1,9.3,19.8c-1.3,9.3-12.2,15-17.8,18c-5.5,2.9-11.6,6.1-18.2,4.8c-5.2-1-6.8-4.1-12.3-4c-5.8,0-8.2,3.4-10.6,2.2
			c-3.1-1.6,0.7-7.4-3-13.9c-0.2-0.4-3.8-6.7-10.6-7.7c-6.3-0.9-11.6,3.3-13.6,4.8c-9.3,7.3-8.2,16.2-12.7,38.5
			c-4.5,22.1-9.1,30.8-4.7,33.4c3.6,2.1,11.3-1.2,15.7-5.1c7.5-6.8,3-13.5,10.6-22.4c0.9-1,8.3-9.8,16.1-8.4
			c6.7,1.2,12,9.5,10.6,16.1c-1.7,8.4-12.9,8.4-16.9,18.7c-0.4,0.9-3.5,9.4,1.7,16.1c4.4,5.6,12,6.8,18.2,7.7
			c5.9,0.9,15.7,2.3,20.3-2.2c2.8-2.7,1.1-5.1,4.2-16.5c1.4-5.2,2.5-9.1,4.2-9.2c2-0.1,4.3,5.2,5.1,9.5c1.3,7-1.6,9.9,0.8,12.5
			c2.7,2.8,9.1,2.3,13.1,0.7c0.8-0.3,7.4-2.9,7.6-8.1c0.1-3.5-2.8-6.7-5.9-8.1c-5.1-2.3-9.4,0.7-11.4-1.5c-2-2,0-6.7,2.5-9.5
			c2.9-3.2,5-2.4,7.2-5.1c1.8-2.3,1.4-4.4,1.3-12.8c-0.1-5.7-0.2-8.6,0-9.5c1-6.1,5.9-9.3,14.8-16.5c10.5-8.5,3.2-3.7,22.5-19.8
			c11.4-9.5,17.1-14.3,19.5-15.4c10.1-4.8,16.7-3.1,39-4c22.1-0.9,33.2-1.4,43.2-4.8c20.9-7.1,18.3-17,36.4-22.7
			c26.4-8.3,55,5.3,57.6,6.6c20.1,9.9,19.5,20.6,37.3,24.6c15.7,3.5,20-4,36-0.7c24,4.8,35.8,25.9,38.6,24.2
			c2.5-1.6-8.5-18.2-11.4-22.7c-10-15.2-15.3-19.8-24.1-33c-8.6-12.7-12.8-19.1-14.8-26c-6.8-23.9,8.4-38.7-1.3-46.9
			c-4.8-4.1-12.6-3.9-25.4-3.7c-15.2,0.3-18,4.1-28.4,2.6c-8.9-1.3-21.7-6.3-22.9-13.6c-1.1-7,9.4-10.6,9.3-21.6
			c0-2.7-0.1-6.9-3-8.4c-2.1-1.1-6-1.1-30.9,11c-7.2,3.5-10.6,5.3-13.6,4c-3.7-1.6-2.6-6.3-8.5-12.5c-2.5-2.7-4.2-4.4-6.8-4.8
			c-5.5-0.7-7.7,6.1-16.5,10.3c-7.2,3.4-14.5,3-23.3,2.6c-13.9-0.7-13.5-4.1-22-4c-15.8,0.2-19.9,11.8-45.3,18
			c-6.9,1.7-11.2,1.9-14.8,0c-6.6-3.5-1.3-12.5-6.8-16.9c-8.2-6.5-26.9,7.1-36.9,0.4c-7.2-4.9-4.2-16.6-9.7-17.6
			c-3.5-0.6-5.2,4-9.7,4C183.2,215.8,178,198,173.5,198.9z"/>
		<ellipse class="st9" cx="191.2" cy="233.4" rx="14.4" ry="12.4"/>
		<ellipse class="st10" cx="449.3" cy="125.2" rx="14.4" ry="12.4"/>
		<ellipse class="st10" cx="777.6" cy="238.8" rx="14.4" ry="12.4"/>
		<ellipse class="st11" cx="683.2" cy="101.9" rx="14.4" ry="12.4"/>
		<ellipse class="st12" cx="135.5" cy="137.7" rx="14.4" ry="12.4"/>
		<ellipse class="st10" cx="228.4" cy="273.8" rx="8.1" ry="7"/>
		<ellipse class="st10" cx="269.8" cy="242.3" rx="8.1" ry="7"/>
		<ellipse class="st10" cx="301.7" cy="289.4" rx="7.6" ry="6.2"/>
		<ellipse class="st7" cx="405.6" cy="280.8" rx="15.3" ry="10.1"/>
		<ellipse class="st10" cx="465.8" cy="370.7" rx="5.4" ry="5.8"/>
		<ellipse class="st10" cx="234.7" cy="492.1" rx="5.4" ry="5.8"/>
		<ellipse class="st10" cx="585.4" cy="482" rx="5.4" ry="5.8"/>
		<ellipse class="st10" cx="819.3" cy="331" rx="5.4" ry="5.8"/>
		<ellipse class="st10" cx="818.4" cy="220.5" rx="5.4" ry="5.8"/>
		<ellipse class="st10" cx="500.9" cy="326.3" rx="7.2" ry="5.8"/>
		<ellipse class="st10" cx="500.9" cy="275.8" rx="4.5" ry="5.1"/>
		<ellipse class="st10" cx="576" cy="251.6" rx="6.7" ry="5.1"/>
		<ellipse class="st10" cx="614.2" cy="209.2" rx="5.4" ry="5.4"/>
		<ellipse class="st10" cx="416.4" cy="210.8" rx="5.4" ry="5.4"/>
		<ellipse class="st10" cx="501.4" cy="193.7" rx="4.9" ry="3.1"/>
		<ellipse class="st10" cx="555.8" cy="422.1" rx="5.4" ry="3.5"/>
		<ellipse class="st13" cx="648.4" cy="408.4" rx="12" ry="12.4"/>
		<ellipse class="st14" cx="306.2" cy="452.4" rx="13" ry="10.5"/>
		<ellipse class="st5" cx="131.3" cy="360.6" rx="11.7" ry="9.7"/>
		<ellipse class="st10" cx="62.9" cy="281.6" rx="12.6" ry="13.2"/>
	</g>
</g>
<g>
	<path class="st15" d="M397.4,55"/>
	<g>
		<g>
			<path class="st16" d="M236.5,535.3H94.8c-4.2,0-7.5-3.4-7.5-7.5V393.6c0-4.2,3.4-7.5,7.5-7.5h141.5c4.2,0,7.5,3.4,7.5,7.5v134.2
				C243.9,531.9,240.5,535.3,236.5,535.3"/>
			<path class="st17" d="M236.5,535.3H94.8c-4.2,0-7.5-3.4-7.5-7.5V393.6c0-4.2,3.4-7.5,7.5-7.5h141.5c4.2,0,7.5,3.4,7.5,7.5v134.2
				C243.9,531.9,240.5,535.3,236.5,535.3z"/>
			<line class="st17" x1="87.4" y1="408.1" x2="243.9" y2="408.1"/>
			<line class="st18" x1="166.8" y1="424.3" x2="191.7" y2="424.3"/>
			<line class="st18" x1="166.8" y1="434.5" x2="229.8" y2="434.5"/>
			<line class="st18" x1="166.8" y1="449.4" x2="173.8" y2="449.4"/>
			<line class="st18" x1="181.5" y1="449.4" x2="229.8" y2="449.4"/>
			<line class="st18" x1="166.8" y1="459.3" x2="173.8" y2="459.3"/>
			<line class="st18" x1="181.5" y1="459.5" x2="229.8" y2="459.5"/>
			<line class="st18" x1="166.8" y1="469.2" x2="173.8" y2="469.2"/>
			<line class="st18" x1="181.5" y1="469.4" x2="229.8" y2="469.4"/>
			<path class="st19" d="M135.9,505.4H107c-2.1,0-3.7-1.6-3.7-3.7v-13.4c0-2.1,1.6-3.7,3.7-3.7h28.9c2.1,0,3.7,1.6,3.7,3.7v13.4
				C139.6,503.8,137.8,505.4,135.9,505.4"/>
			<path class="st18" d="M135.9,505.4H107c-2.1,0-3.7-1.6-3.7-3.7v-13.4c0-2.1,1.6-3.7,3.7-3.7h28.9c2.1,0,3.7,1.6,3.7,3.7v13.4
				C139.6,503.8,137.8,505.4,135.9,505.4z"/>
			<line class="st18" x1="103.1" y1="514.7" x2="139.6" y2="514.7"/>
			<line class="st18" x1="103.1" y1="524.6" x2="123.6" y2="524.6"/>
			<path class="st19" d="M181,505.4h-29c-2.1,0-3.7-1.6-3.7-3.7v-13.4c0-2.1,1.6-3.7,3.7-3.7h29c2.1,0,3.7,1.6,3.7,3.7v13.4
				C184.7,503.8,183.1,505.4,181,505.4"/>
			<path class="st18" d="M181,505.4h-29c-2.1,0-3.7-1.6-3.7-3.7v-13.4c0-2.1,1.6-3.7,3.7-3.7h29c2.1,0,3.7,1.6,3.7,3.7v13.4
				C184.7,503.8,183.1,505.4,181,505.4z"/>
			<line class="st18" x1="148.4" y1="514.7" x2="184.7" y2="514.7"/>
			<line class="st18" x1="148.4" y1="524.6" x2="168.8" y2="524.6"/>
			<path class="st19" d="M226.1,505.4h-28.9c-2.1,0-3.7-1.6-3.7-3.7v-13.4c0-2.1,1.6-3.7,3.7-3.7h28.9c2.1,0,3.7,1.6,3.7,3.7v13.4
				C229.8,503.8,228.2,505.4,226.1,505.4"/>
			<path class="st18" d="M226.1,505.4h-28.9c-2.1,0-3.7-1.6-3.7-3.7v-13.4c0-2.1,1.6-3.7,3.7-3.7h28.9c2.1,0,3.7,1.6,3.7,3.7v13.4
				C229.8,503.8,228.2,505.4,226.1,505.4z"/>
			<line class="st18" x1="193.5" y1="514.7" x2="229.8" y2="514.7"/>
			<line class="st18" x1="193.5" y1="524.6" x2="213.9" y2="524.6"/>
			<path class="st20" d="M101,398.4c0,1.3-1.1,2.4-2.4,2.4s-2.4-1.1-2.4-2.4s1.1-2.4,2.4-2.4C100.1,396.1,101,397.1,101,398.4"/>
			<path class="st20" d="M108.7,398.4c0,1.3-1.1,2.4-2.4,2.4s-2.4-1.1-2.4-2.4s1.1-2.4,2.4-2.4C107.6,396.1,108.7,397.1,108.7,398.4
				"/>
			<path class="st20" d="M116.2,398.4c0,1.3-1.1,2.4-2.4,2.4s-2.4-1.1-2.4-2.4s1.1-2.4,2.4-2.4C115.1,396.1,116.2,397.1,116.2,398.4
				"/>
			<g>
				<rect x="102.8" y="423" class="st21" width="48" height="33.3"/>
				<rect x="109" y="428.5" class="st21" width="35.5" height="22.4"/>
				<polyline class="st21" points="109.3,442.7 123.1,434.7 140.1,450.2 				"/>
				<polyline class="st21" points="132.5,443.2 137.8,438.7 144.2,443.6 				"/>
				<circle class="st21" cx="132.7" cy="434.2" r="1.1"/>
			</g>
		</g>
	</g>
	<g>
		<g>
			<path class="st16" d="M797.7,535.9v-96.4c4.2,0,7.7-3.4,7.7-7.7v-7.7l-15.2-36.5H668.3l-15.2,36.5v7.7c0,4.2,3.4,7.7,7.7,7.7
				v96.4H797.7L797.7,535.9z"/>
			<line class="st18" x1="650.3" y1="535.9" x2="807.8" y2="535.9"/>
			<line class="st18" x1="660.5" y1="535.9" x2="660.5" y2="439.5"/>
			<line class="st18" x1="797.7" y1="535.9" x2="797.7" y2="439.5"/>
			<path class="st18" d="M790,429.3v2.6c0,4.2-3.4,7.7-7.7,7.7s-7.7-3.4-7.7-7.7v-2.6v2.6c0,4.2-3.4,7.7-7.7,7.7
				c-4.2,0-7.7-3.4-7.7-7.7v-2.6v2.6c0,4.2-3.4,7.7-7.7,7.7c-4.2,0-7.7-3.4-7.7-7.7v-2.6v2.6c0,4.2-3.4,7.7-7.7,7.7
				c-4.2,0-7.7-3.4-7.7-7.7v-2.6v2.6c0,4.2-3.4,7.7-7.7,7.7c-4.2,0-7.7-3.4-7.7-7.7v-2.6v2.6c0,4.2-3.4,7.7-7.7,7.7
				c-4.2,0-7.7-3.4-7.7-7.7v-2.6v2.6c0,4.2-3.4,7.7-7.7,7.7s-7.7-3.4-7.7-7.7v-2.6v2.6c0,4.2-3.4,7.7-7.7,7.7
				c-4.2,0-7.7-3.4-7.7-7.7v-2.6v2.6c0,4.2-3.4,7.7-7.7,7.7c-4.2,0-7.7-3.4-7.7-7.7v-7.7l15.2-36.5h121.9l15.2,36.5v7.7
				c0,4.2-3.4,7.7-7.7,7.7c-4.2,0-7.7-3.4-7.7-7.7L790,429.3L790,429.3z"/>
			<line class="st18" x1="801.7" y1="419.2" x2="656" y2="419.2"/>
			<rect x="746.9" y="475" class="st18" width="35.5" height="60.9"/>
			<rect x="675.7" y="475" class="st18" width="60.9" height="35.5"/>
			<line class="st22" x1="691" y1="485.2" x2="685.9" y2="490.3"/>
			<line class="st22" x1="701.1" y1="487.8" x2="691" y2="497.9"/>
			<g>
				<rect x="705" y="484.1" class="st23" width="24" height="16.6"/>
				<rect x="708" y="486.8" class="st23" width="17.8" height="11.2"/>
				<polyline class="st23" points="708.2,493.9 715,490 723.5,497.7 				"/>
				<polyline class="st23" points="719.8,494.2 722.4,491.9 725.8,494.3 				"/>
				<circle class="st23" cx="720" cy="489.7" r="0.5"/>
			</g>
		</g>
	</g>
	<polygon class="st24" points="725.8,354.9 711.4,333.6 725.8,336.6 740.3,333.6 	"/>
	<polygon class="st24" points="173.8,354.9 159.2,333.6 173.8,336.6 188.2,333.6 	"/>
	<path class="st25" d="M173.5,344.2c26.4-129.1,140.7-226.3,277.7-226.3c132.3,0,243.4,90.7,274.6,213.2"/>
	<g>
		<polygon id="Fill-1_5_" class="st26" points="362.2,76.1 362.2,88.7 375,88.7 526.5,88.7 540.1,88.7 540.1,76.4 450.8,39 		"/>
		<polyline id="Stroke-2_2_" class="st27" points="375,88.7 362.2,88.7 362.2,76.1 450.8,39 540.1,76.4 540.1,88.7 526.5,88.7 		"/>
		<polygon id="Fill-4_2_" class="st28" points="375,80.4 375,196.5 526.5,196.5 526.5,80.4 450.8,51.6 		"/>
		<polygon id="Stroke-5_6_" class="st27" points="526.5,196.9 375,196.9 375,80.7 450.8,52.1 526.5,80.7 		"/>
		<polygon id="Stroke-7_6_" class="st27" points="422.8,105.7 441.9,105.7 441.9,86.7 422.8,86.7 		"/>
		<polygon id="Stroke-8_3_" class="st27" points="459.3,105.7 478.2,105.7 478.2,86.7 459.3,86.7 		"/>
		<polygon id="Fill-10_2_" class="st29" points="405.2,124.4 405.2,135.4 405.2,196.9 496.9,196.9 496.9,124.4 		"/>
		<polygon id="Stroke-11_7_" class="st30" points="496.9,196.9 405.2,196.9 405.2,135.4 405.2,124.4 496.9,124.4 		"/>
		<path id="Stroke-13_7_" class="st27" d="M496.9,135.9h-91.5"/>
		<path id="Stroke-14_4_" class="st27" d="M496.9,147.8h-91.5"/>
		<path id="Stroke-15_6_" class="st27" d="M496.9,159.6h-91.5"/>
		<path id="Stroke-16_4_" class="st31" d="M496.9,171.8h-91.5"/>
		<path id="Stroke-17_6_" class="st27" d="M496.9,184.1h-91.5"/>
	</g>
</g>
</svg>
