<?xml version="1.0" encoding="utf-8"?>
<!-- Generator: Adobe Illustrator 21.1.0, SVG Export Plug-In . SVG Version: 6.00 Build 0)  -->
<svg version="1.1" id="Layer_1" xmlns="http://www.w3.org/2000/svg" xmlns:xlink="http://www.w3.org/1999/xlink" x="0px" y="0px"
	 width="34.1px" height="40px" viewBox="0 0 34.1 40" style="enable-background:new 0 0 34.1 40;" xml:space="preserve">
<style type="text/css">
	.st0{fill:#32BDB9;}
</style>
<g>
	<path class="st0" d="M17.1,6.1c-1.5,0-2.9,0.2-4.3,0.6V6.4C12.8,2.9,9.9,0,6.4,0C2.8,0-0.1,2.9-0.1,6.4c0,2.1,0.6,3,3.3,6.9
		c-1.9,2.8-3.1,6.1-3.1,9.7C0.2,32.4,7.8,40,17.1,40S34,32.4,34,23.1S26.4,6.1,17.1,6.1z M20.4,8.2c4.5,1,8.3,4,10.4,8.1l0.2,0.4
		h-7.1l0-0.2c-0.8-3-2-5.8-3.7-7.9L19.7,8L20.4,8.2z M30.1,27.8c-0.1,0.5-0.3,1-0.7,1.7c-0.7,1.3-2.1,3.1-4.6,6.7c0,0,0,0,0,0
		C24,35,23.3,34,22.7,33.1c-0.4-0.6-0.8-1.2-1.2-1.7c-0.6-0.8-1-1.5-1.3-2c-0.4-0.7-0.6-1.2-0.7-1.7c-0.1-0.3-0.1-0.6-0.1-1
		c0-1.4,0.6-2.8,1.6-3.8c0.5-0.5,1.2-1,1.9-1.2c0.5-0.2,1.1-0.3,1.7-0.4c0.1,0,0.2,0,0.2,0c1.4,0,2.8,0.6,3.8,1.6
		c1,1,1.6,2.4,1.6,3.8C30.2,27.1,30.2,27.4,30.1,27.8z M18.4,26.8c0,0.4,0,0.7,0.1,1h-6.7l0-0.2c-0.5-2.9-0.5-6,0-9l0-0.2h10.8
		l0,0.2c0.1,0.7,0.2,1.4,0.3,2C20.2,21.5,18.4,23.9,18.4,26.8z M16.9,8l0.2-0.2L17.3,8c2.1,1.9,3.8,4.9,4.8,8.3l0.1,0.3h-10l0.1-0.3
		C13.1,12.9,14.8,9.9,16.9,8z M13.8,8.2L14.5,8l-0.4,0.6c-1.7,2.1-2.9,4.8-3.7,7.9l0,0.2H7.2c3.3-4.8,4.7-6.6,5.3-8.1
		C12.9,8.4,13.4,8.3,13.8,8.2z M1,6.4C1,5,1.6,3.7,2.6,2.6c1-1,2.4-1.6,3.8-1.6c1.4,0,2.8,0.6,3.8,1.6s1.6,2.4,1.6,3.8
		c0,0.2,0,0.4,0,0.6c-0.1,0.7-0.2,1.3-0.7,2.1c-0.7,1.3-2.1,3.1-4.6,6.8c-0.5-0.8-1-1.4-1.4-2c-0.4-0.5-0.7-1-1-1.4
		C1.4,8.9,1,8.2,1,6.4z M5.6,16.7H3.3l0.2-0.4c0.3-0.5,0.5-1,0.8-1.5C4.7,15.4,5.1,16,5.6,16.7z M2.5,27.6c-0.9-2.9-0.9-6.1,0-9
		l0.1-0.2H10l0,0.3c-0.5,2.9-0.5,5.9,0,8.8l0.1,0.3H2.6L2.5,27.6z M13.8,37.9c-4.5-1-8.3-4-10.4-8.1l-0.2-0.4h7.1l0,0.2
		c0.8,3,2,5.8,3.7,7.9l0.4,0.6L13.8,37.9z M17.1,38.3l-0.2-0.2c-2.2-1.9-3.8-4.8-4.8-8.3l-0.1-0.3H19c0.4,0.8,1,1.8,2,3.2
		c-0.9,2.2-2.2,4-3.7,5.4L17.1,38.3z M20.4,37.9l-0.7,0.2l0.4-0.6c0.8-1,1.4-2.1,2-3.2c0.5,0.7,1.1,1.5,1.7,2.4
		C22.8,37.3,21.6,37.7,20.4,37.9z M30.7,29.8c-0.8,1.7-1.9,3.1-3.2,4.3c1.6-2.3,2.6-3.6,3.1-4.7h0.3L30.7,29.8z M31.6,27.8h-0.4
		c0.1-0.3,0.1-0.6,0.1-1c0-3.6-2.9-6.4-6.4-6.4c-0.1,0-0.2,0-0.3,0c-0.1-0.6-0.1-1.1-0.2-1.7l0-0.3h7.4l0.1,0.2c0.9,2.9,0.9,6.1,0,9
		L31.6,27.8z"/>
	<path class="st0" d="M6.8,9.6c1-0.1,1.8-0.7,2.3-1.5c0.3-0.5,0.5-1.1,0.5-1.7c0-1.8-1.4-3.2-3.2-3.2c-1.8,0-3.2,1.4-3.2,3.2
		s1.4,3.2,3.2,3.2C6.5,9.7,6.7,9.7,6.8,9.6z M4.2,6.4c0-1.2,1-2.1,2.1-2.1s2.1,1,2.1,2.1s-1,2.1-2.1,2.1S4.2,7.6,4.2,6.4z"/>
	<path class="st0" d="M24.8,23.5c-0.1,0-0.1,0-0.2,0c-0.6,0-1.2,0.3-1.7,0.6c-0.8,0.6-1.3,1.5-1.3,2.6c0,0.4,0.1,0.7,0.2,1
		c0.3,1,1.1,1.7,2,2c0.3,0.1,0.7,0.2,1,0.2c0.6,0,1.2-0.2,1.7-0.5c0.6-0.4,1.1-1,1.3-1.7c0.1-0.3,0.2-0.7,0.2-1
		C28,25,26.6,23.5,24.8,23.5z M24.8,28.9c-1.2,0-2.1-1-2.1-2.1v-0.1c0,0,0,0,0,0c0-0.1,0-0.2,0-0.3c0,0,0,0,0,0
		c0.2-0.9,0.9-1.6,1.9-1.7c0.1,0,0.2,0,0.2,0c1.2,0,2.1,1,2.1,2.1c0,0.4-0.1,0.7-0.2,1C26.3,28.4,25.6,28.9,24.8,28.9z"/>
</g>
</svg>
