<?xml version="1.0" encoding="utf-8"?>
<!-- Generator: Adobe Illustrator 24.0.2, SVG Export Plug-In . SVG Version: 6.00 Build 0)  -->
<svg version="1.1" id="Layer_1" xmlns="http://www.w3.org/2000/svg" xmlns:xlink="http://www.w3.org/1999/xlink" x="0px" y="0px"
	 width="811px" height="570px" viewBox="0 0 811 570" style="enable-background:new 0 0 811 570;" xml:space="preserve">
<style type="text/css">
	.st0{opacity:0.6;}
	.st1{opacity:0.5;fill:#EFF7FE;enable-background:new    ;}
	.st2{opacity:0.15;fill:#DFE6EA;enable-background:new    ;}
	.st3{opacity:0.45;fill:#E1F5FB;enable-background:new    ;}
	.st4{opacity:0.3;fill:#D1F0EF;enable-background:new    ;}
	.st5{opacity:0.5;fill:#D1F0EF;enable-background:new    ;}
	.st6{opacity:0.5;fill:#DCE8EF;enable-background:new    ;}
	.st7{opacity:0.2;fill:#FCC8CE;enable-background:new    ;}
	.st8{opacity:0.6;fill:#D5F1F1;enable-background:new    ;}
	.st9{opacity:0.6;fill:#BBE9F9;enable-background:new    ;}
	.st10{fill:#F1FAFA;}
	.st11{opacity:0.2;fill:#FCB9C6;enable-background:new    ;}
	.st12{fill:#FCFDFF;}
	.st13{opacity:0.1;fill:#1DD4FF;enable-background:new    ;}
	.st14{opacity:0.2;fill:#A2EAE0;enable-background:new    ;}
	
		.st15{fill:none;stroke:#347EC0;stroke-width:1.5;stroke-linecap:round;stroke-linejoin:round;stroke-miterlimit:10;stroke-dasharray:4;}
	
		.st16{fill:none;stroke:#C0D6DD;stroke-width:1.5;stroke-linecap:round;stroke-linejoin:round;stroke-miterlimit:10;stroke-dasharray:4;}
	.st17{fill:#347EC0;}
	.st18{fill:#FFFFFF;}
	.st19{fill:none;stroke:#24AAA3;stroke-width:1.5;stroke-linecap:round;stroke-linejoin:round;stroke-miterlimit:10;}
	.st20{fill:#E6F7F6;}
	.st21{fill:none;}
	.st22{fill:none;stroke:#24AAA3;stroke-width:1.5;stroke-linecap:round;stroke-linejoin:round;}
	.st23{fill:#FFFFFF;stroke:#24AAA3;stroke-width:1.5;stroke-miterlimit:10;}
	.st24{fill:#E0E4E8;stroke:#24AAA3;stroke-width:1.5;stroke-linecap:round;stroke-linejoin:round;stroke-miterlimit:10;}
	.st25{fill:#E6F7F6;stroke:#24AAA3;stroke-width:1.5;stroke-linecap:round;stroke-linejoin:round;}
	.st26{fill:#C6E2F3;stroke:#24AAA3;stroke-width:1.5;stroke-linecap:round;stroke-linejoin:round;}
	.st27{fill:#E6F7F6;stroke:#24AAA3;stroke-width:1.5;stroke-miterlimit:10;}
	.st28{enable-background:new    ;}
	.st29{fill:none;stroke:#24AAA3;stroke-width:1.5;stroke-miterlimit:10;}
	.st30{fill:#24AAA3;}
	.st31{fill:none;stroke:#32BDB9;stroke-width:1.5;stroke-linecap:round;stroke-linejoin:round;stroke-miterlimit:10;}
	.st32{fill:#BBDEF4;}
	.st33{fill:#C3EFEE;}
	.st34{fill:none;stroke:#24AAA3;stroke-width:0.75;stroke-linecap:round;stroke-linejoin:round;}
	.st35{fill:none;stroke:#24AAA3;stroke-width:0.5;stroke-linecap:round;stroke-linejoin:round;stroke-miterlimit:10;}
	.st36{fill:none;stroke:#24AAA3;stroke-width:0.5;stroke-linecap:round;stroke-linejoin:round;}
	.st37{fill:none;stroke:#347EC0;stroke-width:1.5;stroke-linecap:round;stroke-linejoin:round;stroke-miterlimit:10;}
	.st38{fill:#E6F7F6;stroke:#347EC0;stroke-width:1.5;stroke-miterlimit:10;}
</style>
<g id="Layer_2_1_">
	<g class="st0">
		<ellipse class="st1" cx="259.9" cy="304.6" rx="233.7" ry="224.4"/>
		<ellipse class="st2" cx="480.6" cy="179.9" rx="166" ry="159.5"/>
		<ellipse class="st3" cx="567.5" cy="315.8" rx="228.2" ry="219.2"/>
		<path class="st4" d="M246,376.7c3.5-2.8,11.6,0.2,22,4c7.4,2.7,11.1,5.3,18.6,5.8c3.9,0.3,9.9,0.7,11.7-2.2
			c3.7-5.6-10.6-20.5-10.2-20.8s16,22.6,23.5,20c1.8-0.6,3.1-3.2,5.7-8.4c3.4-7,2.5-8.7,4.9-10.9c4-3.8,8.1-0.4,15.2-3.3
			s6.2-7.6,14-13.1c5.1-3.6,9.9-4.6,17.4-6.2c15.5-3.3,17.7,0.7,25.4-2.9c8.6-4,6.5-9.4,17.4-17.1c6-4.2,11.3-5.9,20.1-8.7
			c8.9-2.8,15.2-3.8,26.5-5.5c22.9-3.4,28.4-1.6,31.5-0.4c5.2,2.2,5.1,3.9,10.2,6.6c11.7,6.1,21.6,2.2,34.9,1.8
			c18.8-0.5,33.3,6.3,49.3,13.8c8.4,3.9,4.2,2.9,30.3,17.8c17.4,9.9,20.8,11.2,27.3,16.7c7.3,6.2,15.4,13.1,20.1,24.4
			c2.9,7,2.5,10.8,7.6,21.8c4.1,8.8,6.8,11.6,9.1,13.5c4.7,3.7,7.4,3,10.2,6.6c4.2,5.3,4.1,14.3,0.4,16.4c-2.4,1.4-6-0.4-7.6-1.1
			c-4.9-2.3-4.5-5.2-9.1-8.4c-0.9-0.6-7-4.6-13.6-2.9c-0.8,0.2-6.7,1.7-7.2,4.7c-1.2,7.2,30.4,10.4,36,28c2.1,6.6,0.4,14.6-3.4,20
			c-6.7,9.6-18.1,8.3-21.6,17.1c-2.6,6.4,1,13.3,1.9,14.9c7.4,13.9,31.2,21.2,47,14.6c9.6-4,19-14.3,28.8-25.1
			c4.4-4.8,7.2-8.4,12.1-9.1c8-1.1,17.9,5.7,20.1,13.5c3.7,12.8-13.6,28.1-26.2,35.3c-13.9,8-31,8.2-64.4,8.4
			c-27.5,0.1-41.5,0.1-51.2-6.6c-10.9-7.5-21.2-22.1-25.8-28.8c-7.8-11.2-10.6-18.3-18.6-20c-8.3-1.8-17.4,3.3-19.3,4.4
			c-5.8,3.2-5.2,5.1-10.2,8.4c-12.5,8.2-25.7,3-27.7,8c-1.2,3.1,3,7.7,7.2,12.4c5.6,6.1,8.8,6.5,9.1,9.5c0.6,5.1-7.6,12.6-15.9,12.7
			c-10.4,0.2-12.5-11.1-25-13.8c-2.5-0.6-7.4-1.2-26.5,6.6c-25.7,10.4-24.7,14.8-37.5,17.5c-14.3,3-27.1,0-39.8-2.9
			c-17.2-4-17.4-7.6-30.3-9.1c-17.8-2-19.8,4.6-36,2.9c-11.1-1.2-20.8-6.4-40.2-16.7c-16-8.6-17.2-10.7-24.3-14.2
			c-22.5-11-37.8-2.4-74.3-1.8c-26.7,0.4-66.4,1.1-79.6-20c-6.7-10.7-6.7-27.2,1.5-36.4c9.3-10.4,23.2-4.8,69.4-8.7
			c37.6-3.2,47.6-8.6,53.8-15.7c8.5-9.6,9.8-22,10.2-25.8C253.4,395.9,240.3,381.3,246,376.7z"/>
		<path class="st5" d="M277.9,468.9c3.5,2.8,11.6-0.2,22-4c7.4-2.7,11.1-5.3,18.6-5.9c3.9-0.3,9.9-0.7,11.8,2.2
			c3.7,5.6-10.5,20.5-10.2,20.8c0.4,0.3,15.9-22.6,23.5-20.1c1.9,0.6,3.1,3.2,5.7,8.4c3.5,6.9,2.6,8.7,4.9,10.9
			c4,3.8,8.1,0.4,15.2,3.3s6.2,7.6,14,13.1c5.1,3.5,9.9,4.6,17.4,6.2c15.5,3.3,17.7-0.7,25.4,2.9c8.6,4,6.5,9.4,17.5,17.1
			c6,4.2,11.3,5.9,20.1,8.7c8.9,2.8,15.2,3.8,26.5,5.4c22.9,3.3,28.4,1.6,31.5,0.3c5.2-2.2,5.1-3.9,10.2-6.6
			c11.6-6.1,21.6-2.2,34.9-1.9c18.8,0.5,33.3-6.4,49.2-13.9c8.4-3.9,4.2-3,30.3-17.9c17.4-9.9,20.7-11.2,27.3-16.8
			c7.3-6.2,15.4-13.1,20-24.4c2.9-7,2.5-10.8,7.5-21.9c4.1-8.8,6.7-11.6,9.1-13.5c4.7-3.7,7.4-3,10.2-6.6c4.2-5.3,4.1-14.3,0.3-16.4
			c-2.4-1.4-6,0.4-7.6,1.1c-4.9,2.3-4.5,5.2-9.1,8.4c-0.9,0.6-7,4.6-13.6,2.9c-0.8-0.2-6.7-1.7-7.2-4.7c-1.2-7.2,30.4-10.4,36-28.1
			c2.1-6.6,0.3-14.6-3.4-20c-6.7-9.6-18.1-8.3-21.6-17.1c-2.6-6.4,1-13.3,1.9-14.9c7.3-13.9,31.1-21.3,47-14.6
			c9.6,4,19,14.3,28.9,25.1c4.4,4.8,7.2,8.4,12.1,9.1c8,1.1,17.9-5.7,20.1-13.5c3.6-12.8-13.7-28.1-26.2-35.3
			c-13.9-7.9-31-8.2-64.4-8.3c-27.5-0.1-41.5,0-51.2,6.6c-10.9,7.5-21.1,22.2-25.7,28.8c-7.8,11.2-10.6,18.3-18.5,20.1
			c-8.3,1.8-17.4-3.2-19.3-4.3c-5.8-3.2-5.2-5.1-10.2-8.4c-12.5-8.1-25.7-3-27.7-8c-1.2-3.1,3-7.7,7.2-12.4c5.5-6.1,8.7-6.5,9.1-9.5
			c0.6-5.1-7.6-12.5-15.9-12.7c-10.4-0.2-12.5,11.1-25,13.9c-2.5,0.6-7.4,1.2-26.5-6.5c-25.7-10.4-24.8-14.7-37.6-17.4
			c-14.3-3-27.1,0-39.8,3c-17.2,4-17.4,7.7-30.3,9.2c-17.8,2.1-19.8-4.6-36-2.9c-11.1,1.2-20.8,6.4-40.1,16.8
			c-16,8.6-17.2,10.8-24.2,14.2c-22.5,11-37.8,2.5-74.3,1.9c-26.7-0.4-66.4-1-79.6,20.2c-6.6,10.7-6.7,27.2,1.6,36.4
			c9.3,10.4,23.2,4.8,69.4,8.6c37.6,3.1,47.6,8.5,53.8,15.6c8.5,9.6,9.9,22,10.3,25.8C285.2,449.8,272.1,464.4,277.9,468.9z"/>
		<path class="st6" d="M100.4,99.3c-3-1.3-2.5-7.1-7.2-8.5c-3.7-1.1-6.9,1.5-8.3,0c-1.6-1.7,2.1-5.5,0.3-8.7
			c-1.3-2.2-4.3-2.8-5.6-3.1c-5.1-1-7.8,1.9-9.6,0.5c-2.3-1.7,1.3-6.4-1.3-11.3c-1.3-2.3-4-4.7-7.2-4.9c-3.7-0.2-6.8,2.4-8.3,4.9
			c-2.1,3.6,0.4,5.5-1.3,10.8c-1.3,4.2-3.3,4.4-4.8,8.5c-1.6,4.3-0.7,7.9-0.3,10.8c2,12.9-1.6,28-4.8,28.3c-1.9,0.2-4.4-5-5.6-7.5
			c-2.2-4.7-2.3-7.8-3.7-8c-1.5-0.2-3.3,3-4,4.9c-1.9,4.8-1.7,11.9,2.7,15.7c3.3,2.9,6.3,1.5,7.2,3.6c1.5,3.4-6.3,7.2-9.1,17.2
			c-0.9,3.3-1.2,6.9,0,7.5c1.8,0.8,5.4-5.9,8.6-5.1c1.9,0.5,1.4,3.1,4,5.1c3.4,2.6,6.9,0.1,10.4,2.1c3.2,1.8,2.6,5.2,5.1,12.1
			c1.4,3.9,3.9,7.8,8.8,15.4c6.6,10.3,7.4,9.3,9.4,14.1c2.7,6.8,1.5,9.7,5.1,13.1c3.7,3.5,7,2.3,9.1,5.7c2.3,3.6,0.8,8.8-1.1,11.8
			c-2.2,3.7-6.9,5.7-16.1,9.5c-10.2,4.3-13.7,4.4-15.3,4.4c-2.9,0-7.7,0-11.2-3.1c-2.6-2.3-2.1-4.1-5.1-11.3
			c-2.7-6.4-4.1-9.7-7-11.6c-4.2-2.7-10.7-2.6-15.3-0.3c-7.2,3.7-8.5,12.8-11,30.9c-1.3,9.2-0.6,10.9,0.5,11.8
			c2.4,2.1,6.8,0.8,27.6-3.1c4.1-0.8,6.6-1.2,9.4,0c5.7,2.5,7.5,10.1,8,12.3c1,4.2,0.1,5.3,0.5,12.9c0.3,5.8,0.5,9,1.3,11.8
			c2.6,8.7,9.9,8.4,20.6,19.8c4.8,5.1,9.4,10,11.2,17.8c2,8.4-0.2,16.4-1.3,19.8c-3,8.9-7.1,10.5-5.9,14.4
			c2.1,6.9,17.7,10.7,22.2,6.2c2.3-2.2,0.3-5,2.7-8c3.5-4.3,13-5.3,18.5-1.5c1.9,1.3,3.7,3.4,7.5,21.6c2.6,12.4,2.7,16.1,6.4,18.8
			c3.9,2.9,9.2,2.7,13.1,2.6c6-0.2,7.6-1.9,14.7-3.3c8.5-1.7,10.2,0,17.1-1c6.9-1.1,7.5-3.1,19.8-8.7c18.2-8.4,20.4-5.5,29.7-12.1
			c2.2-1.6,6.8-5,13.9-8.7c4.3-2.2,6.9-3.2,8-3.6c2.2-0.8,6.9-2.4,13.1-2.8c7.7-0.6,9.5,1.3,11.8-0.5c3.5-2.6,0.5-7.4,4.3-11.3
			c2.8-2.9,7.5-3.6,10.7-3.1c3.4,0.5,4,2.1,11.5,6.7c5.4,3.3,8.1,5,10.7,5.4c4.9,0.8,7.1-1.1,11.2,0.8c3,1.3,2.6,2.7,5.4,3.6
			c3.2,1.1,4.9-0.4,11.2-1.3c6.8-1,6.7,0.3,8.8-0.8c4.8-2.5,3.1-8,8.6-13.9c3.7-4,5.3-2.4,7.8-5.4c6.5-7.8-4.3-18.5,1.1-31.9
			c2.2-5.4,6.1-9.1,8.6-11.3c8.2-7.5,13.9-6.5,17.4-12.9c2.4-4.3,2.9-10.7,0.3-15.4c-3.5-6.1-10.3-5.8-11.8-11.6
			c-1.1-4.3,2.1-6.9,0.3-9c-2.6-3.1-11.4-0.2-12.6,0.3c-9.7,3.3-12.4,9.7-16.3,8.5c-3.7-1.2-4.3-7.9-4.3-8.2
			c-0.3-4.9,2.3-7.3,5.9-14.1c1.7-3.2,5.5-10.5,6.7-19.3c0.8-5.5,1.7-12.2-2.1-15.4c-4-3.4-8.8,0.4-13.4-2.8
			c-4.1-2.9-1.7-7.1-5.4-16.7c-3.3-9-9-15.1-11.2-17.5c-5.3-5.7-6.4-4.5-8.6-8c-2.1-3.4-2.8-7.5,0-25.5c2.2-14.3,3.5-16.9,1.3-19.3
			c-2-2.3-4.9-2-23-1.3c-15.5,0.6-20.6,0.7-24.9-2.8c-3.9-3.1-5.2-7.5-5.4-8.2c-2.3-8.5,4.8-13,2.4-19.8c-1.6-4.6-7.1-8.8-11.5-8.2
			c-5.6,0.7-5.4,8.5-14.5,14.4c-5,3.3-11.5,5-12.9,3.3c-2.2-2.7,10.6-12.7,7.8-17.5c-2.1-3.6-11.6-2-12.6-1.8
			c-12.1,2.2-13.8,10.2-23.6,14.7c-15.3,7-34.6-1.9-42.3-5.4c-16.8-7.7-17.1-15.4-26-15.2C120.5,72.1,107.7,102.4,100.4,99.3z"/>
		<path class="st7" d="M652.3,50.2c3.7-1.6,3.1-8.7,8.9-10.4c4.5-1.4,8.4,1.8,10.2,0c2-2.1-2.6-6.7-0.3-10.7
			c1.5-2.7,5.3-3.5,6.9-3.8c6.3-1.3,9.5,2.3,11.8,0.6c2.8-2.1-1.6-7.9,1.6-13.9c1.6-2.9,4.9-5.8,8.9-6c4.5-0.3,8.4,2.9,10.2,6
			c2.6,4.5-0.4,6.8,1.6,13.3c1.7,5.2,4.1,5.4,5.9,10.4c1.9,5.3,0.9,9.7,0.3,13.3c-2.4,15.9,2,34.3,5.9,34.7c2.4,0.3,5.4-6.1,6.9-9.2
			c2.8-5.7,2.8-9.6,4.6-9.8c1.9-0.2,4,3.7,4.9,6c2.3,5.8,2.1,14.6-3.3,19.3c-4,3.5-7.8,1.8-8.9,4.4c-1.8,4.2,7.8,8.9,11.2,21.2
			c1.1,4.1,1.5,8.5,0,9.2c-2.2,0.9-6.6-7.3-10.5-6.3c-2.4,0.6-1.7,3.8-4.9,6.3c-4.2,3.2-8.5,0.1-12.8,2.5c-4,2.2-3.2,6.4-6.2,14.8
			c-1.7,4.8-4.8,9.5-10.8,19c-8.1,12.6-9.1,11.5-11.5,17.4c-3.4,8.4-1.9,12-6.2,16.1c-4.5,4.3-8.6,2.8-11.2,6.9
			c-2.8,4.4-0.9,10.8,1.3,14.5c2.7,4.5,8.4,7,19.7,11.7c12.5,5.2,16.8,5.4,18.7,5.4c3.6,0,9.5,0,13.8-3.8c3.2-2.8,2.5-5.1,6.2-13.9
			c3.3-7.9,5-11.9,8.5-14.2c5.1-3.3,13.1-3.2,18.7-0.3c8.8,4.6,10.4,15.7,13.5,37.9c1.6,11.3,0.7,13.4-0.7,14.5
			c-3,2.6-8.3,1-33.9-3.8c-5-0.9-8.1-1.5-11.5,0c-7,3.1-9.2,12.3-9.9,15.2c-1.2,5.1-0.2,6.5-0.7,15.8c-0.4,7.1-0.6,11-1.6,14.5
			c-3.3,10.6-12.1,10.3-25.3,24.3c-5.9,6.2-11.6,12.3-13.8,21.8c-2.4,10.3,0.2,20.1,1.6,24.3c3.7,10.9,8.7,12.9,7.2,17.7
			c-2.5,8.5-21.7,13.1-27.3,7.6c-2.8-2.8-0.3-6.1-3.3-9.8c-4.3-5.3-16-6.5-22.7-1.9c-2.3,1.6-4.5,4.2-9.2,26.5
			c-3.2,15.2-3.3,19.7-7.9,23.1c-4.8,3.6-11.3,3.3-16.1,3.2c-7.4-0.3-9.3-2.4-18.1-4.1c-10.5-2.1-12.5,0-21-1.3s-9.3-3.8-24.3-10.7
			c-22.4-10.3-25-6.8-36.5-14.8c-2.7-1.9-8.4-6.2-17.1-10.7c-5.3-2.8-8.4-3.9-9.9-4.4c-2.7-0.9-8.5-2.9-16.1-3.5
			c-9.4-0.7-11.6,1.5-14.5-0.6c-4.2-3.2-0.6-9-5.3-13.9c-3.4-3.6-9.2-4.4-13.2-3.8c-4.2,0.6-4.9,2.5-14.1,8.2
			c-6.6,4.1-9.9,6.1-13.2,6.6c-6.1,1-8.7-1.3-13.8,0.9c-3.7,1.7-3.2,3.3-6.6,4.4c-3.9,1.3-6-0.4-13.8-1.6c-8.3-1.2-8.2,0.4-10.8-0.9
			c-5.9-3-3.9-9.8-10.5-17.1c-4.5-4.9-6.5-3-9.5-6.6c-7.9-9.5,5.3-22.7-1.3-39.2c-2.7-6.7-7.5-11.1-10.5-13.9
			c-10-9.3-17.1-8-21.4-15.8c-2.9-5.3-3.6-13.2-0.3-19c4.3-7.5,12.7-7.1,14.5-14.2c1.3-5.2-2.5-8.4-0.3-11.1
			c3.2-3.8,14-0.2,15.5,0.3c11.9,4.1,15.3,11.9,20.1,10.4c4.6-1.4,5.2-9.7,5.3-10.1c0.4-6-2.8-8.9-7.2-17.4
			c-2-3.9-6.7-12.9-8.2-23.7c-0.9-6.8-2.1-15,2.6-19c4.9-4.1,10.8,0.5,16.4-3.5c5-3.6,2.1-8.7,6.6-20.5c4.1-11,11.1-18.5,13.8-21.5
			c6.5-7,7.9-5.5,10.5-9.8c2.6-4.2,3.4-9.2,0-31.3c-2.7-17.5-4.3-20.7-1.6-23.7c2.5-2.8,6.1-2.4,28.3-1.6c19,0.7,25.2,0.8,30.6-3.5
			c4.8-3.9,6.3-9.3,6.6-10.1c2.8-10.4-5.9-15.9-3-24.3c2-5.7,8.7-10.8,14.1-10.1c6.8,0.9,6.6,10.5,17.8,17.7
			c6.2,4,14.1,6.2,15.8,4.1c2.7-3.3-13-15.6-9.5-21.5c2.6-4.5,14.3-2.4,15.5-2.2c14.8,2.7,16.9,12.5,28.9,18
			c18.8,8.6,42.4-2.3,52-6.6c20.6-9.4,21-18.8,31.9-18.6C627.6,16.9,643.2,54.1,652.3,50.2z"/>
		<path class="st8" d="M156.1,199c-2.5,0.5-1,7.2-6.2,16.8c-2.8,5.2-4.1,4.8-5.8,8.6c-3.3,7.2-0.4,12.1,0.4,22.8
			c0.8,11.1-1,24.8-4.7,25.4c-3.2,0.6-7.2-10.8-8.2-10.5c-1.2,0.4,8.5,15.1,3.9,28.4c-3.3,9.4-12.2,14-10.5,16.8
			c1.6,2.7,9.3-1.6,17.1,2.6c2.6,1.4,4.2,3.4,7.4,7.5c4.8,6.1,6.3,9.9,9.7,15.7c2.3,3.9,1.9,2.6,11.7,16.4c6.4,9,9.7,13.6,12.4,18.3
			c6.1,10.2,9.2,15.4,8.6,20.2c-1.2,9.4-11.2,15.3-16.3,18.3s-10.6,6.2-16.7,4.9c-4.8-1.1-6.2-4.1-11.3-4.1c-5.3,0-7.5,3.5-9.7,2.2
			c-2.9-1.6,0.6-7.5-2.7-14.2c-0.2-0.4-3.5-6.8-9.7-7.8c-5.8-0.9-10.7,3.3-12.4,4.9c-8.5,7.4-7.5,16.5-11.7,39.2
			c-4.1,22.5-8.4,31.4-4.3,34c3.3,2.1,10.4-1.2,14.4-5.2c6.9-6.9,2.8-13.8,9.7-22.8c0.8-1.1,7.7-10,14.8-8.6
			c6.1,1.2,11,9.7,9.7,16.4c-1.6,8.5-11.8,8.5-15.6,19c-0.3,0.9-3.2,9.6,1.6,16.4c4,5.7,11.1,6.9,16.7,7.8
			c5.4,0.9,14.4,2.4,18.7-2.2c2.6-2.8,1-5.2,3.9-16.8c1.3-5.3,2.3-9.3,3.9-9.3c1.8-0.1,3.9,5.3,4.7,9.7c1.2,7.2-1.5,10.1,0.8,12.7
			c2.5,2.8,8.3,2.4,12.1,0.7c0.8-0.3,6.8-3,7-8.2c0.1-3.6-2.6-6.8-5.4-8.2c-4.7-2.3-8.6,0.7-10.5-1.5c-1.8-2.1,0-6.8,2.3-9.7
			c2.7-3.3,4.6-2.4,6.6-5.2c1.7-2.4,1.3-4.5,1.2-13.1c-0.1-5.8-0.1-8.7,0-9.7c0.9-6.2,5.4-9.4,13.6-16.8c9.6-8.7,3-3.8,20.6-20.2
			c10.5-9.7,15.7-14.5,17.9-15.7c9.3-4.9,15.3-3.2,35.8-4.1c20.3-0.9,30.5-1.4,39.7-4.9c19.2-7.2,16.8-17.3,33.4-23.2
			c24.2-8.5,50.5,5.4,52.9,6.7c18.4,10.1,17.9,21,34.2,25c14.4,3.6,18.3-4,33.1-0.7c22,4.9,32.9,26.4,35.4,24.7
			c2.3-1.6-7.8-18.5-10.5-23.2c-9.2-15.5-14-20.2-22.2-33.6c-7.9-13-11.8-19.4-13.6-26.5c-6.3-24.4,7.7-39.4-1.2-47.8
			c-4.4-4.2-11.6-4-23.3-3.7c-14,0.3-16.5,4.2-26.1,2.6c-8.2-1.4-19.9-6.5-21-13.8c-1-7.1,8.6-10.8,8.6-22c0-2.8,0-7-2.7-8.6
			c-1.9-1.2-5.5-1.2-28.4,11.2c-6.6,3.6-9.7,5.4-12.4,4.1c-3.4-1.6-2.4-6.4-7.8-12.7c-2.3-2.7-3.9-4.5-6.2-4.9
			c-5.1-0.7-7.1,6.2-15.2,10.5c-6.6,3.5-13.3,3.1-21.4,2.6c-12.7-0.7-12.4-4.2-20.2-4.1c-14.5,0.2-18.3,12.1-41.6,18.3
			c-6.3,1.7-10.3,2-13.6,0c-6.1-3.6-1.2-12.8-6.2-17.2c-7.6-6.7-24.7,7.2-33.8,0.4c-6.6-4.9-3.8-16.9-8.9-17.9
			c-3.2-0.7-4.8,4.1-8.9,4.1C165,216.3,160.3,198.1,156.1,199z"/>
		<ellipse class="st9" cx="172.4" cy="234.1" rx="13.2" ry="12.7"/>
		<ellipse class="st10" cx="409.3" cy="123.9" rx="13.2" ry="12.7"/>
		<ellipse class="st10" cx="710.6" cy="239.7" rx="13.2" ry="12.7"/>
		<ellipse class="st11" cx="623.9" cy="100.1" rx="13.2" ry="12.7"/>
		<ellipse class="st12" cx="121.2" cy="136.6" rx="13.2" ry="12.7"/>
		<ellipse class="st10" cx="206.5" cy="275.4" rx="7.4" ry="7.1"/>
		<ellipse class="st10" cx="244.5" cy="243.2" rx="7.4" ry="7.1"/>
		<ellipse class="st10" cx="273.8" cy="291.2" rx="7" ry="6.3"/>
		<ellipse class="st7" cx="369.2" cy="282.5" rx="14" ry="10.3"/>
		<ellipse class="st10" cx="424.5" cy="374.1" rx="5" ry="5.9"/>
		<ellipse class="st10" cx="212.3" cy="497.8" rx="5" ry="5.9"/>
		<ellipse class="st10" cx="534.2" cy="487.5" rx="5" ry="5.9"/>
		<ellipse class="st10" cx="748.9" cy="333.6" rx="5" ry="5.9"/>
		<ellipse class="st10" cx="748" cy="221" rx="5" ry="5.9"/>
		<ellipse class="st10" cx="456.7" cy="328.9" rx="6.6" ry="5.9"/>
		<ellipse class="st10" cx="456.7" cy="277.3" rx="4.1" ry="5.2"/>
		<ellipse class="st10" cx="525.6" cy="252.8" rx="6.2" ry="5.2"/>
		<ellipse class="st10" cx="560.7" cy="209.5" rx="5" ry="5.6"/>
		<ellipse class="st10" cx="379.1" cy="211.1" rx="5" ry="5.6"/>
		<ellipse class="st10" cx="457.1" cy="193.7" rx="4.5" ry="3.2"/>
		<ellipse class="st10" cx="507" cy="426.4" rx="5" ry="3.6"/>
		<ellipse class="st13" cx="592" cy="412.5" rx="11" ry="12.7"/>
		<ellipse class="st14" cx="277.9" cy="457.3" rx="12" ry="10.7"/>
		<ellipse class="st5" cx="117.4" cy="363.8" rx="10.7" ry="9.9"/>
		<ellipse class="st10" cx="54.7" cy="283.3" rx="11.6" ry="13.5"/>
	</g>
</g>
<path class="st15" d="M278,516.6H138.1c-16.9,0-30.8-13.7-30.8-30.8v-35.5"/>
<path class="st16" d="M747.3,439.9"/>
<rect x="89.3" y="10.8" class="st15" width="586.5" height="204.2"/>
<g>
	<rect x="240" y="89.8" class="st17" width="56.6" height="2.7"/>
	<polygon class="st17" points="299.4,91.2 295,93.7 290.6,96.3 292.9,91.2 290.6,86.1 295,88.7 	"/>
	<rect x="242.7" y="125.3" class="st17" width="56.6" height="2.7"/>
	<polygon class="st17" points="240,126.7 244.4,129.1 248.7,131.7 246.5,126.7 248.7,121.6 244.4,124.1 	"/>
</g>
<g>
	<rect x="455.6" y="89.8" class="st17" width="56.6" height="2.7"/>
	<polygon class="st17" points="514.8,91.2 510.5,93.7 506.1,96.3 508.3,91.2 506.1,86.1 510.5,88.7 	"/>
	<rect x="458.3" y="125.3" class="st17" width="56.6" height="2.7"/>
	<polygon class="st17" points="455.6,126.7 459.9,129.1 464.3,131.7 462.1,126.7 464.3,121.6 459.9,124.1 	"/>
</g>
<g>
	<polygon class="st18" points="205.7,138.4 112.9,138.4 112.9,72.5 159.3,42.5 205.7,72.5 	"/>
	<path class="st19" d="M205.7,138.4h-92.8V73.9c0-0.9,0.4-1.8,1.2-2.3l43.6-28.2c0.9-0.5,2-0.5,3,0l43.6,28.2
		c0.8,0.5,1.2,1.4,1.2,2.3v64.5C205.6,138.4,205.7,138.4,205.7,138.4z"/>
	<rect x="126.3" y="75.7" class="st20" width="66.1" height="7.3"/>
	<rect x="126.3" y="75.7" class="st19" width="66.1" height="7.3"/>
	<polyline class="st19" points="189.2,97.9 189.2,138.4 129.3,138.4 129.3,83 189.2,83 189.2,92 	"/>
	<rect x="129.3" y="97.9" class="st19" width="20.2" height="20.2"/>
	<rect x="135.6" y="97.9" class="st19" width="8.3" height="11"/>
	<line class="st19" x1="135" y1="113.5" x2="144.6" y2="113.5"/>
	<rect x="129.3" y="118.1" class="st19" width="20.2" height="20.2"/>
	<rect x="135.6" y="118.1" class="st19" width="8.3" height="11"/>
	<line class="st19" x1="135" y1="133.7" x2="144.6" y2="133.7"/>
	<rect x="149.5" y="118.1" class="st19" width="20.2" height="20.2"/>
	<rect x="155.7" y="118.1" class="st19" width="8.3" height="11"/>
	<line class="st19" x1="155.2" y1="133.7" x2="164.8" y2="133.7"/>
	<line class="st21" x1="126.3" y1="69.3" x2="192.3" y2="69.3"/>
	<line class="st19" x1="126.3" y1="69.3" x2="192.3" y2="69.3"/>
</g>
<g>
	<polygon id="Fill-1_13_" class="st20" points="332.8,71.1 332.8,78.1 340,78.1 424.8,78.1 432.4,78.1 432.4,71.2 382.4,50.4 	"/>
	<polyline id="Stroke-2_10_" class="st22" points="340,78.1 332.8,78.1 332.8,71.1 382.4,50.4 432.4,71.2 432.4,78.1 424.8,78.1 	
		"/>
	<polygon id="Fill-4_10_" class="st23" points="340,73.7 340,138.4 424.8,138.4 424.8,73.7 382.4,57.7 	"/>
	<polygon id="Stroke-5_14_" class="st22" points="424.8,138.4 340,138.4 340,73.7 382.4,57.7 424.8,73.7 	"/>
	<polygon id="Stroke-7_13_" class="st22" points="366.4,87.6 377.1,87.6 377.1,76.9 366.4,76.9 	"/>
	<polygon id="Stroke-8_10_" class="st22" points="386.8,87.6 397.5,87.6 397.5,76.9 386.8,76.9 	"/>
	<polygon id="Fill-10_9_" class="st24" points="357,98.1 357,104.2 357,138.4 408.2,138.4 408.2,98.1 	"/>
	<polygon id="Stroke-11_14_" class="st25" points="408.2,138.4 357,138.4 357,104.2 357,98.1 408.2,98.1 	"/>
	<path id="Stroke-13_14_" class="st22" d="M408.2,104.4H357"/>
	<path id="Stroke-14_12_" class="st22" d="M408.2,111.1H357"/>
	<path id="Stroke-15_13_" class="st22" d="M408.2,117.6H357"/>
	<path id="Stroke-16_12_" class="st26" d="M408.2,124.3H357"/>
	<path id="Stroke-17_13_" class="st22" d="M408.2,131.3H357"/>
</g>
<g>
	<g>
		<polygon class="st18" points="636.8,142.5 544,142.5 544,76.4 590.4,46.4 636.8,76.4 		"/>
		<path class="st19" d="M636.8,142.5H544V77.9c0-0.9,0.4-1.8,1.2-2.3l43.6-28.2c0.9-0.5,2-0.5,3,0l43.6,28.2
			c0.8,0.5,1.2,1.4,1.2,2.3L636.8,142.5L636.8,142.5z"/>
		<g>
			<rect x="557.4" y="79.8" class="st27" width="66.1" height="7.3"/>
			<polyline class="st19" points="620.2,102 620.2,142.5 560.3,142.5 560.3,87.1 620.2,87.1 620.2,96 			"/>
			<g>
				<rect x="560.3" y="102" class="st19" width="20.2" height="20.2"/>
				<rect x="566.6" y="102" class="st19" width="8.3" height="11"/>
				<line class="st19" x1="566" y1="117.6" x2="575.7" y2="117.6"/>
			</g>
			<g>
				<rect x="560.3" y="122.2" class="st19" width="20.2" height="20.2"/>
				<rect x="566.6" y="122.2" class="st19" width="8.3" height="11"/>
				<line class="st19" x1="566" y1="137.8" x2="575.7" y2="137.8"/>
			</g>
			<g>
				<rect x="580.5" y="122.2" class="st19" width="20.2" height="20.2"/>
				<rect x="586.8" y="122.2" class="st19" width="8.3" height="11"/>
				<line class="st19" x1="586.2" y1="137.8" x2="595.8" y2="137.8"/>
			</g>
		</g>
	</g>
	<line class="st19" x1="569" y1="73.4" x2="611.7" y2="73.4"/>
</g>
<g class="st28">
	<path d="M327.7,184.9l-4.1-15.6h2.2l2.3,10.2c0.3,1.1,0.4,2.2,0.7,3.1c0.4-1.6,0.7-2.6,0.7-2.8l3-10.4h2.4l2.2,7.9
		c0.5,1.9,0.9,3.8,1.2,5.6c0.1-0.9,0.4-2.2,0.8-3.4l2.4-10h2l-4.2,15.6h-2l-3.3-11.8c-0.3-0.9-0.4-1.6-0.5-1.8
		c-0.1,0.7-0.3,1.4-0.4,1.8l-3.3,11.8h-2.1V184.9z"/>
	<path d="M351.8,183.6c-0.7,0.5-1.4,1.1-2,1.2c-0.7,0.1-1.4,0.4-2.2,0.4c-1.2,0-2.2-0.3-2.8-0.9c-0.7-0.5-0.9-1.4-0.9-2.3
		c0-0.5,0.1-1.1,0.4-1.5s0.5-0.8,0.9-1.1s0.8-0.5,1.4-0.7c0.4-0.1,0.9-0.1,1.8-0.3c1.5-0.1,2.7-0.4,3.4-0.7c0-0.3,0-0.4,0-0.5
		c0-0.8-0.1-1.4-0.5-1.6c-0.5-0.4-1.2-0.7-2.2-0.7s-1.5,0.1-2,0.4c-0.4,0.3-0.7,0.8-0.9,1.6l-1.9-0.3c0.1-0.8,0.4-1.5,0.8-1.9
		c0.4-0.5,0.9-0.8,1.6-1.1s1.6-0.4,2.6-0.4c0.9,0,1.8,0.1,2.3,0.4s1.1,0.5,1.4,0.8c0.3,0.4,0.5,0.8,0.5,1.4c0,0.3,0.1,0.9,0.1,1.8
		v2.6c0,1.8,0,2.8,0.1,3.4c0.1,0.4,0.3,0.9,0.5,1.4h-2C351.9,184.5,351.8,184.1,351.8,183.6z M351.5,179.2c-0.7,0.3-1.8,0.5-3.1,0.7
		c-0.8,0.1-1.4,0.3-1.6,0.4s-0.5,0.4-0.8,0.7c-0.1,0.3-0.3,0.5-0.3,0.9c0,0.5,0.1,0.9,0.5,1.2s0.9,0.5,1.6,0.5s1.4-0.1,1.9-0.5
		s0.9-0.8,1.2-1.4c0.3-0.4,0.3-1.1,0.3-1.9L351.5,179.2L351.5,179.2z"/>
	<path d="M356.4,184.9v-11.2h1.8v1.8c0.4-0.8,0.8-1.4,1.2-1.6c0.4-0.3,0.8-0.4,1.2-0.4c0.7,0,1.4,0.3,1.9,0.7l-0.7,1.8
		c-0.4-0.3-0.9-0.4-1.4-0.4s-0.8,0.1-1.1,0.4c-0.3,0.3-0.5,0.5-0.7,1.1c-0.3,0.7-0.3,1.4-0.3,2.2v5.8L356.4,184.9L356.4,184.9z"/>
	<path d="M371.5,181.3l2,0.3c-0.3,1.1-0.9,2-1.8,2.7c-0.8,0.7-1.9,0.9-3.3,0.9c-1.6,0-3-0.5-3.9-1.5s-1.5-2.4-1.5-4.2
		c0-1.9,0.5-3.4,1.5-4.5s2.3-1.6,3.8-1.6s2.7,0.5,3.7,1.5s1.5,2.4,1.5,4.3c0,0.1,0,0.3,0,0.5h-8.4c0.1,1.2,0.4,2.2,1.1,2.8
		s1.4,0.9,2.3,0.9c0.7,0,1.4-0.1,1.8-0.5C370.8,182.6,371.1,182.1,371.5,181.3z M365.1,178.1h6.2c-0.1-0.9-0.3-1.6-0.7-2.2
		c-0.5-0.7-1.4-1.1-2.3-1.1c-0.8,0-1.6,0.3-2.2,0.8C365.5,176.4,365.2,177.2,365.1,178.1z"/>
	<path d="M375.8,184.9v-15.6h1.9v5.6c0.9-1.1,2-1.5,3.4-1.5c0.8,0,1.5,0.1,2.2,0.5s1.1,0.8,1.4,1.4c0.3,0.5,0.4,1.4,0.4,2.6v7.2
		h-1.9v-7.2c0-0.9-0.3-1.6-0.7-2c-0.4-0.4-0.9-0.7-1.8-0.7c-0.5,0-1.1,0.1-1.6,0.4s-0.8,0.7-1.1,1.2c-0.3,0.5-0.3,1.2-0.3,2v6.1
		H375.8L375.8,184.9z"/>
	<path d="M387.2,179.2c0-2,0.5-3.7,1.8-4.6c0.9-0.8,2.2-1.2,3.5-1.2c1.5,0,2.8,0.5,3.8,1.5c0.9,0.9,1.5,2.4,1.5,4.2
		c0,1.5-0.3,2.6-0.7,3.4s-1.1,1.5-1.9,1.9s-1.8,0.7-2.7,0.7c-1.6,0-2.8-0.5-3.8-1.5C387.6,182.6,387.2,181.1,387.2,179.2z
		 M389.1,179.2c0,1.5,0.3,2.6,0.9,3.3c0.7,0.7,1.4,1.1,2.4,1.1c0.9,0,1.8-0.4,2.3-1.1c0.7-0.7,0.9-1.8,0.9-3.3
		c0-1.4-0.3-2.4-0.9-3.1c-0.7-0.7-1.4-1.1-2.3-1.1s-1.8,0.4-2.4,1.1C389.3,176.8,389.1,177.9,389.1,179.2z"/>
	<path d="M407.2,184.9v-1.6c-0.8,1.2-2,1.9-3.5,1.9c-0.7,0-1.2-0.1-1.9-0.4c-0.7-0.3-0.9-0.5-1.2-0.9c-0.3-0.4-0.5-0.8-0.5-1.4
		c-0.1-0.4-0.1-0.9-0.1-1.8v-6.9h1.9v6.2c0,0.9,0,1.6,0.1,2c0.1,0.5,0.4,0.9,0.8,1.2s0.8,0.4,1.5,0.4s1.1-0.1,1.6-0.4
		c0.5-0.3,0.8-0.7,1.1-1.2c0.3-0.5,0.3-1.2,0.3-2.2v-6h1.9V185L407.2,184.9L407.2,184.9z"/>
	<path d="M411.2,181.5l1.9-0.3c0.1,0.8,0.4,1.4,0.9,1.8c0.5,0.4,1.2,0.5,2,0.5s1.5-0.1,1.9-0.5s0.7-0.8,0.7-1.2s-0.1-0.8-0.5-1.1
		c-0.3-0.1-0.9-0.4-1.9-0.7c-1.4-0.4-2.3-0.7-2.8-0.9c-0.5-0.3-0.9-0.7-1.2-1.1c-0.3-0.4-0.4-0.9-0.4-1.5c0-0.5,0.1-0.9,0.4-1.4
		c0.3-0.4,0.5-0.8,0.9-1.1c0.3-0.3,0.7-0.4,1.2-0.5s1.1-0.3,1.6-0.3c0.9,0,1.6,0.1,2.3,0.4c0.7,0.3,1.2,0.5,1.5,1.1
		c0.3,0.5,0.5,0.9,0.7,1.8l-1.9,0.3c-0.1-0.5-0.3-1.1-0.7-1.4c-0.4-0.3-0.9-0.5-1.8-0.5s-1.5,0.1-1.9,0.4s-0.5,0.7-0.5,1.1
		c0,0.3,0.1,0.4,0.3,0.7c0.1,0.3,0.4,0.4,0.7,0.5c0.1,0.1,0.8,0.3,1.6,0.5c1.4,0.4,2.3,0.7,2.8,0.9c0.5,0.3,0.9,0.5,1.2,0.9
		c0.3,0.4,0.4,0.9,0.4,1.6c0,0.7-0.1,1.2-0.5,1.8c-0.4,0.5-0.9,0.9-1.6,1.4c-0.7,0.4-1.5,0.4-2.4,0.4c-1.5,0-2.6-0.3-3.4-0.9
		S411.4,182.8,411.2,181.5z"/>
	<path d="M430.5,181.3l2,0.3c-0.3,1.1-0.9,2-1.8,2.7c-0.8,0.7-1.9,0.9-3.3,0.9c-1.6,0-3-0.5-3.9-1.5s-1.5-2.4-1.5-4.2
		c0-1.9,0.5-3.4,1.5-4.5s2.3-1.6,3.8-1.6s2.7,0.5,3.7,1.5s1.5,2.4,1.5,4.3c0,0.1,0,0.3,0,0.5h-8.4c0.1,1.2,0.4,2.2,1.1,2.8
		s1.4,0.9,2.3,0.9c0.7,0,1.4-0.1,1.8-0.5C429.7,182.6,430.1,182.1,430.5,181.3z M424.2,178.1h6.2c-0.1-0.9-0.3-1.6-0.7-2.2
		c-0.5-0.7-1.4-1.1-2.3-1.1c-0.8,0-1.6,0.3-2.2,0.8C424.7,176.2,424.3,177.2,424.2,178.1z"/>
	<path d="M434.1,181.5l1.9-0.3c0.1,0.8,0.4,1.4,0.9,1.8c0.5,0.4,1.2,0.5,2,0.5s1.5-0.1,1.9-0.5s0.7-0.8,0.7-1.2s-0.1-0.8-0.5-1.1
		c-0.3-0.1-0.9-0.4-1.9-0.7c-1.4-0.4-2.3-0.7-2.8-0.9c-0.5-0.3-0.9-0.7-1.2-1.1c-0.3-0.4-0.4-0.9-0.4-1.5c0-0.5,0.1-0.9,0.4-1.4
		c0.3-0.4,0.5-0.8,0.9-1.1c0.3-0.3,0.7-0.4,1.2-0.5s1.1-0.3,1.6-0.3c0.9,0,1.6,0.1,2.3,0.4c0.7,0.3,1.2,0.5,1.5,1.1
		c0.3,0.5,0.5,0.9,0.7,1.8l-1.9,0.3c-0.1-0.5-0.3-1.1-0.7-1.4c-0.4-0.3-0.9-0.5-1.8-0.5s-1.5,0.1-1.9,0.4s-0.5,0.7-0.5,1.1
		c0,0.3,0.1,0.4,0.3,0.7c0.1,0.3,0.4,0.4,0.7,0.5c0.1,0.1,0.8,0.3,1.6,0.5c1.4,0.4,2.3,0.7,2.8,0.9c0.5,0.3,0.9,0.5,1.2,0.9
		c0.3,0.4,0.4,0.9,0.4,1.6c0,0.7-0.1,1.2-0.5,1.8c-0.4,0.5-0.9,0.9-1.6,1.4s-1.5,0.4-2.4,0.4c-1.5,0-2.6-0.3-3.4-0.9
		S434.3,182.8,434.1,181.5z"/>
</g>
<g class="st28">
	<path d="M47.9,423.7l-4.1-15.6H46l2.3,10.2c0.3,1.1,0.4,2.2,0.7,3.1c0.4-1.6,0.7-2.6,0.7-2.8l3-10.4h2.4l2.2,7.9
		c0.5,1.9,0.9,3.8,1.2,5.6c0.1-0.9,0.4-2.2,0.8-3.4l2.4-10h2l-4.2,15.6h-2l-3.3-11.8c-0.3-0.9-0.4-1.6-0.5-1.8
		c-0.1,0.7-0.3,1.4-0.4,1.8L50,423.9h-2.1V423.7z"/>
	<path d="M72.7,420.1l2,0.3c-0.3,1.1-0.9,2-1.8,2.7S71,424,69.6,424c-1.6,0-3-0.5-3.9-1.5s-1.5-2.4-1.5-4.2c0-1.9,0.5-3.4,1.5-4.5
		c0.9-1.1,2.3-1.6,3.8-1.6s2.7,0.5,3.7,1.5s1.5,2.4,1.5,4.3c0,0.1,0,0.3,0,0.5h-8.4c0.1,1.2,0.4,2.2,1.1,2.8
		c0.7,0.7,1.4,0.9,2.3,0.9c0.7,0,1.4-0.1,1.8-0.5C72,421.5,72.4,421,72.7,420.1z M66.4,417h6.2c-0.1-0.9-0.3-1.6-0.7-2.2
		c-0.5-0.7-1.4-1.1-2.3-1.1c-0.8,0-1.6,0.3-2.2,0.8C66.9,415.3,66.6,416.1,66.4,417z"/>
	<path d="M78.9,423.7h-1.8v-15.6H79v5.6c0.8-0.9,1.9-1.5,3.1-1.5c0.7,0,1.4,0.1,1.9,0.4s1.1,0.7,1.5,1.2s0.7,1.1,0.9,1.8
		c0.3,0.7,0.4,1.5,0.4,2.3c0,1.9-0.5,3.4-1.5,4.5c-0.9,1.1-2,1.6-3.4,1.6s-2.3-0.5-3.1-1.6L78.9,423.7L78.9,423.7z M78.8,418
		c0,1.4,0.1,2.3,0.5,3c0.5,0.9,1.4,1.5,2.4,1.5c0.8,0,1.5-0.4,2.2-1.1s0.9-1.8,0.9-3.3s-0.3-2.6-0.8-3.3s-1.4-1.1-2.2-1.1
		s-1.5,0.4-2.2,1.1C79.2,415.5,78.8,416.6,78.8,418z"/>
	<path d="M88.4,420.4l1.9-0.3c0.1,0.8,0.4,1.4,0.9,1.8s1.2,0.5,2,0.5s1.5-0.1,1.9-0.5s0.7-0.8,0.7-1.2s-0.1-0.8-0.5-1.1
		c-0.3-0.1-0.9-0.4-1.9-0.7c-1.4-0.4-2.3-0.7-2.8-0.9s-0.9-0.7-1.2-1.1S89,416,89,415.4s0.1-0.9,0.4-1.4c0.3-0.4,0.5-0.8,0.9-1.1
		c0.3-0.3,0.7-0.4,1.2-0.5s1.1-0.3,1.6-0.3c0.9,0,1.6,0.1,2.3,0.4c0.7,0.3,1.2,0.5,1.5,1.1c0.3,0.5,0.5,0.9,0.7,1.8l-1.9,0.3
		c-0.1-0.5-0.3-1.1-0.7-1.4s-0.9-0.5-1.8-0.5s-1.5,0.1-1.9,0.4s-0.5,0.7-0.5,1.1c0,0.3,0.1,0.4,0.3,0.7s0.4,0.4,0.7,0.5
		c0.1,0.1,0.8,0.3,1.6,0.5c1.4,0.4,2.3,0.7,2.8,0.9s0.9,0.5,1.2,0.9s0.4,0.9,0.4,1.6s-0.1,1.2-0.5,1.8c-0.4,0.5-0.9,0.9-1.6,1.4
		c-0.7,0.4-1.5,0.4-2.4,0.4c-1.5,0-2.6-0.3-3.4-0.9C89.1,422.5,88.5,421.5,88.4,420.4z"/>
	<path d="M104.1,422l0.3,1.6c-0.5,0.1-1.1,0.1-1.5,0.1c-0.7,0-1.2-0.1-1.6-0.3c-0.4-0.1-0.7-0.5-0.8-0.8c-0.1-0.4-0.3-1.1-0.3-2.3
		v-6.5h-1.4v-1.5h1.4v-2.7l1.9-1.1v3.9h1.9v1.5h-1.8v6.6c0,0.5,0,0.9,0.1,1.1c0,0.1,0.1,0.3,0.3,0.4c0.1,0.1,0.4,0.1,0.7,0.1
		C103.6,422,103.8,422,104.1,422z"/>
	<path d="M105.3,418.1c0-2,0.5-3.7,1.8-4.6c0.9-0.8,2.2-1.2,3.5-1.2c1.5,0,2.8,0.5,3.8,1.5c0.9,0.9,1.5,2.4,1.5,4.2
		c0,1.5-0.3,2.6-0.7,3.4s-1.1,1.5-1.9,1.9s-1.8,0.7-2.7,0.7c-1.6,0-2.8-0.5-3.8-1.5C105.7,421.5,105.3,420,105.3,418.1z
		 M107.2,418.1c0,1.5,0.3,2.6,0.9,3.3c0.7,0.7,1.4,1.1,2.4,1.1c0.9,0,1.8-0.4,2.3-1.1c0.7-0.7,0.9-1.8,0.9-3.3
		c0-1.4-0.3-2.4-0.9-3.1c-0.7-0.7-1.4-1.1-2.3-1.1s-1.8,0.4-2.4,1.1C107.6,415.5,107.2,416.6,107.2,418.1z"/>
	<path d="M118.1,423.7v-11.2h1.8v1.8c0.4-0.8,0.8-1.4,1.2-1.6s0.8-0.4,1.2-0.4c0.7,0,1.4,0.3,1.9,0.7l-0.7,1.8
		c-0.4-0.3-0.9-0.4-1.4-0.4c-0.4,0-0.8,0.1-1.1,0.4c-0.3,0.3-0.5,0.5-0.7,1.1c-0.3,0.7-0.3,1.4-0.3,2.2v5.8L118.1,423.7L118.1,423.7
		z"/>
	<path d="M133,420.1l2,0.3c-0.3,1.1-0.9,2-1.8,2.7c-0.8,0.7-1.9,0.9-3.3,0.9c-1.6,0-3-0.5-3.9-1.5s-1.5-2.4-1.5-4.2
		c0-1.9,0.5-3.4,1.5-4.5c0.9-1.1,2.3-1.6,3.8-1.6s2.7,0.5,3.7,1.5c0.9,0.9,1.5,2.4,1.5,4.3c0,0.1,0,0.3,0,0.5h-8.4
		c0.1,1.2,0.4,2.2,1.1,2.8c0.7,0.7,1.4,0.9,2.3,0.9c0.7,0,1.4-0.1,1.8-0.5C132.3,421.5,132.7,421,133,420.1z M126.7,417h6.2
		c-0.1-0.9-0.3-1.6-0.7-2.2c-0.5-0.7-1.4-1.1-2.3-1.1c-0.8,0-1.6,0.3-2.2,0.8C127.1,415.3,126.7,416.1,126.7,417z"/>
	<path d="M136.6,420.4l1.9-0.3c0.1,0.8,0.4,1.4,0.9,1.8s1.2,0.5,2,0.5s1.5-0.1,1.9-0.5s0.7-0.8,0.7-1.2s-0.1-0.8-0.5-1.1
		c-0.3-0.1-0.9-0.4-1.9-0.7c-1.4-0.4-2.3-0.7-2.8-0.9c-0.5-0.3-0.9-0.7-1.2-1.1s-0.4-0.9-0.4-1.5s0.1-0.9,0.4-1.4s0.5-0.8,0.9-1.1
		c0.3-0.3,0.7-0.4,1.2-0.5s1.1-0.3,1.6-0.3c0.9,0,1.6,0.1,2.3,0.4s1.2,0.5,1.5,1.1c0.3,0.5,0.5,0.9,0.7,1.8l-1.9,0.3
		c-0.1-0.5-0.3-1.1-0.7-1.4s-0.9-0.5-1.8-0.5c-0.8,0-1.5,0.1-1.9,0.4s-0.5,0.7-0.5,1.1c0,0.3,0.1,0.4,0.3,0.7
		c0.1,0.3,0.4,0.4,0.7,0.5c0.1,0.1,0.8,0.3,1.6,0.5c1.4,0.4,2.3,0.7,2.8,0.9s0.9,0.5,1.2,0.9s0.4,0.9,0.4,1.6s-0.1,1.2-0.5,1.8
		s-0.9,0.9-1.6,1.4s-1.5,0.4-2.4,0.4c-1.5,0-2.6-0.3-3.4-0.9C137.3,422.5,136.8,421.5,136.6,420.4z"/>
</g>
<g class="st28">
	<path d="M556.9,423.7v-15.6h5.8c1.2,0,2.2,0.1,2.8,0.4c0.7,0.3,1.2,0.8,1.6,1.5c0.4,0.7,0.5,1.4,0.5,2c0,0.7-0.1,1.4-0.5,1.9
		s-0.9,1.1-1.6,1.4c0.9,0.3,1.6,0.7,2.2,1.4c0.5,0.7,0.8,1.5,0.8,2.3c0,0.7-0.1,1.4-0.4,2c-0.3,0.7-0.7,1.1-1.1,1.5
		c-0.4,0.4-1.1,0.5-1.8,0.8c-0.7,0.1-1.5,0.3-2.4,0.3L556.9,423.7L556.9,423.7z M559,414.7h3.4c0.9,0,1.6,0,1.9-0.1
		c0.5-0.1,0.9-0.4,1.2-0.8s0.4-0.8,0.4-1.4s-0.1-0.9-0.4-1.4s-0.5-0.7-1.1-0.8c-0.4-0.1-1.2-0.3-2.3-0.3H559V414.7L559,414.7z
		 M559,421.9h3.9c0.7,0,1.1,0,1.4-0.1c0.4-0.1,0.8-0.3,1.2-0.4s0.5-0.5,0.8-0.8c0.1-0.4,0.3-0.8,0.3-1.4c0-0.5-0.1-1.1-0.4-1.5
		c-0.3-0.4-0.7-0.7-1.2-0.9c-0.5-0.1-1.2-0.3-2.3-0.3h-3.5L559,421.9L559,421.9z"/>
	<path d="M571.1,423.7v-11.2h1.8v1.8c0.4-0.8,0.8-1.4,1.2-1.6s0.8-0.4,1.2-0.4c0.7,0,1.4,0.3,1.9,0.7l-0.7,1.8
		c-0.4-0.3-0.9-0.4-1.4-0.4s-0.8,0.1-1.1,0.4s-0.5,0.5-0.7,1.1c-0.3,0.7-0.3,1.4-0.3,2.2v5.8L571.1,423.7L571.1,423.7z"/>
	<path d="M578.5,410.4v-2.2h1.9v2.2H578.5z M578.5,423.7v-11.2h1.9v11.2H578.5z"/>
	<path d="M590.5,419.6l1.9,0.3c-0.3,1.4-0.7,2.3-1.6,3c-0.8,0.7-1.9,1.1-3.1,1.1c-1.5,0-2.7-0.5-3.7-1.5s-1.4-2.4-1.4-4.3
		c0-1.2,0.1-2.3,0.5-3.3s0.9-1.6,1.9-2c0.8-0.4,1.8-0.7,2.7-0.7c1.2,0,2.2,0.3,3,0.9c0.8,0.7,1.2,1.5,1.5,2.6l-1.9,0.3
		c-0.1-0.8-0.5-1.4-0.9-1.8s-0.9-0.5-1.6-0.5c-0.9,0-1.8,0.4-2.3,1.1s-0.9,1.8-0.9,3.3s0.3,2.6,0.8,3.3c0.5,0.7,1.4,1.1,2.3,1.1
		c0.8,0,1.4-0.3,1.9-0.7S590.4,420.6,590.5,419.6z"/>
	<path d="M594,423.7v-15.6h1.9v8.8l4.5-4.6h2.4l-4.3,4.2l4.7,7H601l-3.7-5.7l-1.4,1.4v4.5L594,423.7L594,423.7z"/>
	<path d="M619.8,421.9c-0.7,0.7-1.4,1.2-2,1.6c-0.7,0.4-1.5,0.5-2.4,0.5c-1.6,0-2.8-0.5-3.8-1.6c-0.8-0.8-1.1-1.9-1.1-3
		c0-0.9,0.3-1.8,0.9-2.6c0.7-0.8,1.5-1.5,2.7-2c-0.7-0.8-1.2-1.5-1.4-1.9c-0.1-0.4-0.4-0.9-0.4-1.5c0-0.9,0.4-1.8,1.1-2.4
		c0.7-0.7,1.6-1.1,2.7-1.1s1.9,0.3,2.6,0.9c0.7,0.7,0.9,1.5,0.9,2.3c0,1.5-0.9,2.7-3,3.8l2.8,3.5c0.3-0.7,0.5-1.4,0.7-2.2l2,0.4
		c-0.4,1.4-0.8,2.4-1.4,3.4c0.7,0.9,1.5,1.8,2.4,2.4l-1.2,1.5C621.4,423.5,620.6,422.9,619.8,421.9z M618.6,420.4l-3.5-4.3
		c-1.1,0.7-1.8,1.2-2,1.8s-0.5,1.1-0.5,1.6c0,0.7,0.3,1.2,0.8,1.9c0.5,0.7,1.2,1.1,2.2,1.1c0.5,0,1.2-0.1,1.8-0.5
		C617.8,421.4,618.2,421,618.6,420.4z M615.9,413.8c0.8-0.5,1.4-0.9,1.6-1.2c0.3-0.3,0.4-0.8,0.4-1.2c0-0.5-0.1-0.9-0.5-1.4
		c-0.3-0.3-0.8-0.5-1.2-0.5c-0.5,0-0.9,0.1-1.2,0.5c-0.4,0.3-0.5,0.7-0.5,1.2c0,0.3,0,0.5,0.1,0.8s0.3,0.5,0.5,0.8L615.9,413.8z"/>
	<path d="M631.6,423.7v-15.6h3.1l3.7,11c0.4,1.1,0.5,1.8,0.7,2.3c0.1-0.5,0.4-1.4,0.8-2.4l3.7-10.8h2.7v15.6h-2v-13l-4.5,13h-1.9
		l-4.5-13.3v13.3L631.6,423.7L631.6,423.7z"/>
	<path d="M648.8,418.1c0-2,0.5-3.7,1.8-4.6c0.9-0.8,2.2-1.2,3.5-1.2c1.5,0,2.8,0.5,3.8,1.5c0.9,0.9,1.5,2.4,1.5,4.2
		c0,1.5-0.3,2.6-0.7,3.4s-1.1,1.5-1.9,1.9s-1.8,0.7-2.7,0.7c-1.6,0-2.8-0.5-3.8-1.5C649.2,421.5,648.8,420,648.8,418.1z
		 M650.7,418.1c0,1.5,0.3,2.6,0.9,3.3c0.7,0.7,1.4,1.1,2.4,1.1c0.9,0,1.8-0.4,2.3-1.1c0.7-0.7,0.9-1.8,0.9-3.3
		c0-1.4-0.3-2.4-0.9-3.1c-0.7-0.7-1.4-1.1-2.3-1.1c-0.9,0-1.8,0.4-2.4,1.1C651,415.5,650.7,416.6,650.7,418.1z"/>
	<path d="M673.7,422l0.3,1.6c-0.5,0.1-1.1,0.1-1.5,0.1c-0.7,0-1.2-0.1-1.6-0.3s-0.7-0.5-0.8-0.8s-0.3-1.1-0.3-2.3v-6.5h-1.4v-1.5
		h1.4v-2.7l1.9-1.1v3.9h1.9v1.5h-1.9v6.6c0,0.5,0,0.9,0.1,1.1c0,0.1,0.1,0.3,0.3,0.4c0.1,0.1,0.4,0.1,0.7,0.1
		C673.1,422,673.3,422,673.7,422z"/>
	<path d="M682.8,422.3c-0.7,0.5-1.4,1.1-2,1.2c-0.7,0.3-1.4,0.4-2.2,0.4c-1.2,0-2.2-0.3-2.8-0.9s-0.9-1.4-0.9-2.3
		c0-0.5,0.1-1.1,0.4-1.5s0.5-0.8,0.9-1.1c0.4-0.3,0.8-0.5,1.4-0.7c0.4-0.1,0.9-0.1,1.8-0.3c1.5-0.1,2.7-0.4,3.4-0.7
		c0-0.3,0-0.4,0-0.5c0-0.8-0.1-1.4-0.5-1.6c-0.5-0.4-1.2-0.7-2.2-0.7c-0.9,0-1.5,0.1-2,0.4c-0.4,0.3-0.7,0.8-0.9,1.6l-1.9-0.3
		c0.1-0.8,0.4-1.5,0.8-1.9c0.4-0.5,0.9-0.8,1.6-1.1s1.6-0.4,2.6-0.4c0.9,0,1.8,0.1,2.3,0.4s1.1,0.5,1.4,0.8c0.3,0.4,0.5,0.8,0.5,1.4
		c0,0.3,0.1,0.9,0.1,1.8v2.6c0,1.8,0,2.8,0.1,3.4c0.1,0.4,0.3,0.9,0.5,1.4h-2C683.1,423.3,682.9,422.9,682.8,422.3z M682.7,418.1
		c-0.7,0.3-1.8,0.5-3.1,0.7c-0.8,0.1-1.4,0.3-1.6,0.4s-0.5,0.4-0.8,0.7c-0.1,0.3-0.3,0.5-0.3,0.9c0,0.5,0.1,0.9,0.5,1.2
		c0.4,0.4,0.9,0.5,1.6,0.5s1.4-0.1,1.9-0.5s0.9-0.8,1.2-1.4c0.1-0.4,0.3-1.1,0.3-1.9V418L682.7,418.1L682.7,418.1z"/>
	<path d="M687.5,423.7v-11.2h1.8v1.8c0.4-0.8,0.8-1.4,1.2-1.6s0.8-0.4,1.2-0.4c0.7,0,1.4,0.3,1.9,0.7l-0.7,1.8
		c-0.4-0.3-0.9-0.4-1.4-0.4s-0.8,0.1-1.1,0.4s-0.5,0.5-0.7,1.1c-0.3,0.7-0.3,1.4-0.3,2.2v5.8L687.5,423.7L687.5,423.7z"/>
	<path d="M661.5,423.7v-11.2h1.8v1.8c0.4-0.8,0.8-1.4,1.2-1.6s0.8-0.4,1.2-0.4c0.7,0,1.4,0.3,1.9,0.7l-0.7,1.8
		c-0.4-0.3-0.9-0.4-1.4-0.4s-0.8,0.1-1.1,0.4s-0.5,0.5-0.7,1.1c-0.3,0.7-0.3,1.4-0.3,2.2v5.8L661.5,423.7L661.5,423.7z"/>
	<path d="M700.4,418.8l1.9-0.1c0.1,0.8,0.3,1.4,0.7,1.9c0.3,0.5,0.8,0.9,1.6,1.2c0.8,0.3,1.5,0.4,2.4,0.4c0.8,0,1.5-0.1,2-0.4
		s1.1-0.5,1.4-0.9c0.3-0.4,0.4-0.8,0.4-1.4s-0.1-0.9-0.4-1.2c-0.3-0.4-0.8-0.7-1.4-0.9c-0.4-0.1-1.4-0.4-2.7-0.8
		c-1.5-0.4-2.4-0.7-3-0.9c-0.7-0.4-1.4-0.8-1.6-1.5c-0.4-0.5-0.5-1.2-0.5-1.9c0-0.8,0.3-1.5,0.7-2.2s1.1-1.2,1.9-1.5
		c0.8-0.4,1.8-0.5,2.8-0.5s2.2,0.1,3,0.5s1.5,0.9,2,1.6c0.4,0.7,0.7,1.5,0.8,2.4l-2,0.1c-0.1-0.9-0.4-1.8-1.1-2.2
		c-0.7-0.5-1.5-0.8-2.7-0.8s-2.2,0.3-2.7,0.7c-0.5,0.4-0.8,0.9-0.8,1.6c0,0.5,0.1,1.1,0.5,1.4c0.4,0.4,1.5,0.7,3.1,1.1
		s2.8,0.7,3.4,0.9c0.9,0.4,1.6,0.9,2,1.6s0.7,1.4,0.7,2.2s-0.3,1.6-0.7,2.3c-0.4,0.7-1.2,1.4-2,1.8c-0.9,0.4-1.9,0.5-3,0.5
		c-1.4,0-2.6-0.3-3.5-0.7c-0.9-0.4-1.8-1.1-2.2-1.9S700.4,419.7,700.4,418.8z"/>
	<path d="M719.4,422l0.3,1.6c-0.5,0.1-1.1,0.1-1.5,0.1c-0.7,0-1.2-0.1-1.6-0.3s-0.7-0.5-0.8-0.8s-0.3-1.1-0.3-2.3v-6.5h-1.4v-1.5
		h1.4v-2.7l1.9-1.1v3.9h1.9v1.5h-1.9v6.6c0,0.5,0,0.9,0.1,1.1c0,0.1,0.1,0.3,0.3,0.4c0.1,0.1,0.4,0.1,0.7,0.1
		C718.9,422,719.1,422,719.4,422z"/>
	<path d="M720.6,418.1c0-2,0.5-3.7,1.8-4.6c0.9-0.8,2.2-1.2,3.5-1.2c1.5,0,2.8,0.5,3.8,1.5c0.9,0.9,1.5,2.4,1.5,4.2
		c0,1.5-0.3,2.6-0.7,3.4s-1.1,1.5-1.9,1.9s-1.8,0.7-2.7,0.7c-1.6,0-2.8-0.5-3.8-1.5S720.6,420,720.6,418.1z M722.5,418.1
		c0,1.5,0.3,2.6,0.9,3.3c0.7,0.7,1.4,1.1,2.4,1.1c0.9,0,1.8-0.4,2.3-1.1c0.7-0.7,0.9-1.8,0.9-3.3c0-1.4-0.3-2.4-0.9-3.1
		c-0.7-0.7-1.4-1.1-2.3-1.1c-0.9,0-1.8,0.4-2.4,1.1C722.9,415.5,722.5,416.6,722.5,418.1z"/>
	<path d="M733.3,423.7v-11.2h1.8v1.8c0.4-0.8,0.8-1.4,1.2-1.6s0.8-0.4,1.2-0.4c0.7,0,1.4,0.3,1.9,0.7l-0.7,1.8
		c-0.4-0.3-0.9-0.4-1.4-0.4s-0.8,0.1-1.1,0.4s-0.5,0.5-0.7,1.1c-0.3,0.7-0.3,1.4-0.3,2.2v5.8L733.3,423.7L733.3,423.7z"/>
	<path d="M748.3,420.1l2,0.3c-0.3,1.1-0.9,2-1.8,2.7s-1.9,0.9-3.3,0.9c-1.6,0-3-0.5-3.9-1.5s-1.5-2.4-1.5-4.2c0-1.9,0.5-3.4,1.5-4.5
		s2.3-1.6,3.8-1.6s2.7,0.5,3.7,1.5s1.5,2.4,1.5,4.3c0,0.1,0,0.3,0,0.5h-8.4c0.1,1.2,0.4,2.2,1.1,2.8c0.7,0.7,1.4,0.9,2.3,0.9
		c0.7,0,1.4-0.1,1.8-0.5C747.6,421.5,748,421,748.3,420.1z M742,417h6.2c-0.1-0.9-0.3-1.6-0.7-2.2c-0.5-0.7-1.4-1.1-2.3-1.1
		c-0.8,0-1.6,0.3-2.2,0.8C742.4,415.3,742.2,416.1,742,417z"/>
	<path d="M751.9,420.4l1.9-0.3c0.1,0.8,0.4,1.4,0.9,1.8s1.2,0.5,2,0.5s1.5-0.1,1.9-0.5s0.7-0.8,0.7-1.2s-0.1-0.8-0.5-1.1
		c-0.3-0.1-0.9-0.4-1.9-0.7c-1.4-0.4-2.3-0.7-2.8-0.9s-0.9-0.7-1.2-1.1s-0.4-0.9-0.4-1.5s0.1-0.9,0.4-1.4s0.5-0.8,0.9-1.1
		c0.3-0.3,0.7-0.4,1.2-0.5s1.1-0.3,1.6-0.3c0.9,0,1.6,0.1,2.3,0.4s1.2,0.5,1.5,1.1c0.3,0.5,0.5,0.9,0.7,1.8l-1.9,0.3
		c-0.1-0.5-0.3-1.1-0.7-1.4s-0.9-0.5-1.8-0.5s-1.5,0.1-1.9,0.4s-0.5,0.7-0.5,1.1c0,0.3,0.1,0.4,0.3,0.7c0.1,0.3,0.4,0.4,0.7,0.5
		c0.1,0.1,0.8,0.3,1.6,0.5c1.4,0.4,2.3,0.7,2.8,0.9c0.5,0.3,0.9,0.5,1.2,0.9s0.4,0.9,0.4,1.6s-0.1,1.2-0.5,1.8s-0.9,0.9-1.6,1.4
		c-0.7,0.4-1.5,0.4-2.4,0.4c-1.5,0-2.6-0.3-3.4-0.9C752.6,422.5,752,421.5,751.9,420.4z"/>
</g>
<g class="st28">
	<path d="M344.2,555l2,0.5c-0.4,1.6-1.2,3-2.3,3.8c-1.1,0.9-2.4,1.4-4.1,1.4s-3-0.4-4.1-1.1c-1.1-0.7-1.9-1.6-2.4-3
		s-0.8-2.7-0.8-4.2c0-1.6,0.3-3,0.9-4.2c0.7-1.2,1.5-2.2,2.6-2.7c1.1-0.7,2.4-0.9,3.8-0.9c1.5,0,2.8,0.4,3.9,1.2s1.8,1.9,2.2,3.4
		l-2,0.5c-0.4-1.1-0.9-1.9-1.6-2.4s-1.5-0.8-2.6-0.8c-1.2,0-2.2,0.3-3,0.8s-1.4,1.4-1.6,2.3s-0.5,1.9-0.5,3c0,1.4,0.1,2.4,0.5,3.5
		s0.9,1.8,1.8,2.2c0.8,0.4,1.6,0.7,2.6,0.7c1.1,0,2.2-0.3,3-0.9C343.4,557.3,344,556.3,344.2,555z"/>
	<path d="M355.9,560.4v-1.6c-0.8,1.2-2,1.9-3.5,1.9c-0.7,0-1.2-0.1-1.9-0.4c-0.5-0.3-0.9-0.5-1.2-0.9c-0.3-0.4-0.5-0.8-0.5-1.4
		c-0.1-0.4-0.1-0.9-0.1-1.8v-6.9h1.9v6.2c0,0.9,0,1.6,0.1,2c0.1,0.5,0.4,0.9,0.8,1.2s0.8,0.4,1.5,0.4s1.1-0.1,1.6-0.4
		s0.8-0.7,1.1-1.2c0.3-0.5,0.3-1.2,0.3-2.2v-6h1.9v11.2L355.9,560.4L355.9,560.4z"/>
	<path d="M359.8,557.1l1.9-0.3c0.1,0.8,0.4,1.4,0.9,1.8c0.5,0.4,1.2,0.5,2,0.5s1.5-0.1,1.9-0.5s0.7-0.8,0.7-1.2s-0.1-0.8-0.5-1.1
		c-0.3-0.1-0.9-0.4-1.9-0.7c-1.4-0.4-2.3-0.7-2.8-0.9c-0.5-0.3-0.9-0.7-1.2-1.1s-0.4-0.9-0.4-1.5s0.1-0.9,0.4-1.4
		c0.3-0.4,0.5-0.8,0.9-1.1c0.3-0.3,0.7-0.4,1.2-0.5s1.1-0.3,1.6-0.3c0.9,0,1.6,0.1,2.3,0.4c0.7,0.3,1.2,0.5,1.5,1.1s0.5,0.9,0.7,1.8
		l-1.9,0.3c-0.1-0.5-0.3-1.1-0.7-1.4c-0.4-0.3-0.9-0.5-1.8-0.5c-0.8,0-1.5,0.1-1.9,0.4s-0.5,0.7-0.5,1.1c0,0.3,0.1,0.4,0.3,0.7
		s0.4,0.4,0.7,0.5c0.1,0.1,0.8,0.3,1.6,0.5c1.4,0.4,2.3,0.7,2.8,0.9s0.9,0.5,1.2,0.9c0.3,0.4,0.4,0.9,0.4,1.6c0,0.7-0.1,1.2-0.5,1.8
		s-0.9,0.9-1.6,1.4s-1.5,0.4-2.4,0.4c-1.5,0-2.6-0.3-3.4-0.9C360.5,559.2,360.1,558.2,359.8,557.1z"/>
	<path d="M375.5,558.8l0.3,1.6c-0.5,0.1-1.1,0.1-1.5,0.1c-0.7,0-1.2-0.1-1.6-0.3c-0.4-0.1-0.7-0.5-0.8-0.8c-0.1-0.3-0.3-1.1-0.3-2.3
		v-6.5h-1.4v-1.5h1.4v-2.8l1.9-1.1v3.9h1.9v1.5h-1.9v6.6c0,0.5,0,0.9,0.1,1.1c0,0.1,0.1,0.3,0.3,0.4c0.1,0.1,0.4,0.1,0.7,0.1
		C375,558.8,375.3,558.8,375.5,558.8z"/>
	<path d="M376.7,554.8c0-2,0.5-3.7,1.8-4.6c0.9-0.8,2.2-1.2,3.5-1.2c1.5,0,2.8,0.5,3.8,1.5c0.9,0.9,1.5,2.4,1.5,4.2
		c0,1.5-0.3,2.6-0.7,3.4s-1.1,1.5-1.9,1.9s-1.8,0.7-2.7,0.7c-1.6,0-2.8-0.5-3.8-1.5C377.3,558.2,376.7,556.7,376.7,554.8z
		 M378.6,554.8c0,1.5,0.3,2.6,0.9,3.3c0.7,0.7,1.4,1.1,2.4,1.1c0.9,0,1.8-0.4,2.3-1.1c0.7-0.7,0.9-1.8,0.9-3.3
		c0-1.4-0.3-2.4-0.9-3.1s-1.4-1.1-2.3-1.1s-1.8,0.4-2.4,1.1C379,552.3,378.6,553.3,378.6,554.8z"/>
	<path d="M389.5,560.4v-11.2h1.8v1.6c0.4-0.5,0.8-0.9,1.4-1.4c0.5-0.3,1.2-0.5,2-0.5s1.5,0.1,2,0.5s0.9,0.8,1.1,1.5
		c0.9-1.4,2-2,3.5-2c1.1,0,2,0.3,2.6,0.9c0.5,0.7,0.9,1.6,0.9,2.8v7.7h-1.9v-7c0-0.8,0-1.4-0.1-1.6c-0.1-0.3-0.4-0.5-0.7-0.8
		s-0.7-0.3-1.1-0.3c-0.8,0-1.5,0.3-2,0.8s-0.8,1.4-0.8,2.6v6.5h-1.9v-7.3c0-0.8-0.1-1.5-0.4-1.9s-0.8-0.7-1.5-0.7
		c-0.5,0-1.1,0.1-1.5,0.4s-0.8,0.7-0.9,1.2c-0.3,0.5-0.3,1.4-0.3,2.3v5.8L389.5,560.4L389.5,560.4z"/>
	<path d="M415.2,556.9l2,0.3c-0.3,1.1-0.9,2-1.8,2.7s-1.9,0.9-3.3,0.9c-1.6,0-3-0.5-3.9-1.5c-0.9-0.9-1.5-2.4-1.5-4.2
		c0-1.9,0.5-3.4,1.5-4.5s2.2-1.6,3.8-1.6c1.5,0,2.7,0.5,3.7,1.5c0.9,0.9,1.5,2.4,1.5,4.3c0,0.1,0,0.3,0,0.5h-8.4
		c0.1,1.2,0.4,2.2,1.1,2.8c0.7,0.7,1.4,0.9,2.3,0.9c0.7,0,1.4-0.1,1.8-0.5C414.5,558.2,415,557.7,415.2,556.9z M409,553.8h6.2
		c-0.1-0.9-0.3-1.6-0.7-2.2c-0.5-0.7-1.4-1.1-2.3-1.1c-0.8,0-1.6,0.3-2.2,0.8C409.4,552,409.1,552.8,409,553.8z"/>
	<path d="M419.6,560.4v-11.2h1.8v1.8c0.4-0.8,0.8-1.4,1.2-1.6s0.8-0.4,1.2-0.4c0.7,0,1.4,0.3,1.9,0.7l-0.7,1.8
		c-0.4-0.3-0.9-0.4-1.4-0.4s-0.8,0.1-1.1,0.4c-0.3,0.3-0.5,0.5-0.7,1.1c-0.3,0.7-0.3,1.4-0.3,2.2v5.8h-1.9V560.4z"/>
	<path d="M426.1,557.1l1.9-0.3c0.1,0.8,0.4,1.4,0.9,1.8c0.5,0.4,1.2,0.5,2,0.5s1.5-0.1,1.9-0.5s0.7-0.8,0.7-1.2s-0.1-0.8-0.5-1.1
		c-0.3-0.1-0.9-0.4-1.9-0.7c-1.4-0.4-2.3-0.7-2.8-0.9c-0.5-0.3-0.9-0.7-1.2-1.1c-0.3-0.4-0.4-0.9-0.4-1.5s0.1-0.9,0.4-1.4
		s0.5-0.8,0.9-1.1c0.3-0.3,0.7-0.4,1.2-0.5s1.1-0.3,1.6-0.3c0.8,0,1.6,0.1,2.3,0.4c0.7,0.3,1.2,0.5,1.5,1.1s0.5,0.9,0.7,1.8
		l-1.9,0.3c-0.1-0.5-0.3-1.1-0.7-1.4s-0.9-0.5-1.8-0.5s-1.5,0.1-1.9,0.4s-0.5,0.7-0.5,1.1c0,0.3,0.1,0.4,0.3,0.7
		c0.1,0.3,0.4,0.4,0.7,0.5c0.1,0.1,0.8,0.3,1.6,0.5c1.4,0.4,2.3,0.7,2.8,0.9c0.5,0.3,0.9,0.5,1.2,0.9c0.3,0.4,0.4,0.9,0.4,1.6
		c0,0.7-0.1,1.2-0.5,1.8s-0.9,0.9-1.6,1.4c-0.7,0.4-1.5,0.4-2.4,0.4c-1.5,0-2.6-0.3-3.4-0.9C426.7,559.2,426.3,558.2,426.1,557.1z"
		/>
</g>
<g>
	<path class="st18" d="M155.9,331.8h-55.4c-1.6,0-3-1.4-3-2.8v-52.4c0-1.6,1.4-2.8,3-2.8h55.4c1.6,0,3,1.4,3,2.8V329
		C158.7,330.4,157.4,331.8,155.9,331.8"/>
	<path class="st29" d="M155.9,331.8h-55.4c-1.6,0-3-1.4-3-2.8v-52.4c0-1.6,1.4-2.8,3-2.8h55.4c1.6,0,3,1.4,3,2.8V329
		C158.7,330.4,157.4,331.8,155.9,331.8z"/>
	<line class="st29" x1="97.5" y1="282.1" x2="158.7" y2="282.1"/>
	<path class="st30" d="M102.9,278.3c0,0.5-0.4,0.9-0.9,0.9s-0.9-0.4-0.9-0.9s0.4-0.9,0.9-0.9C102.5,277.5,102.9,277.9,102.9,278.3"
		/>
	<path class="st30" d="M105.9,278.3c0,0.5-0.4,0.9-0.9,0.9s-0.9-0.4-0.9-0.9s0.4-0.9,0.9-0.9S105.9,277.9,105.9,278.3"/>
	<path class="st30" d="M108.7,278.3c0,0.5-0.4,0.9-0.9,0.9s-0.9-0.4-0.9-0.9s0.4-0.9,0.9-0.9S108.7,277.9,108.7,278.3"/>
	<path class="st18" d="M118.9,376.4h-76c-2.2,0-4.1-1.8-4.1-3.9v-72c0-2.2,1.8-3.9,4.1-3.9h76c2.2,0,4.1,1.8,4.1,3.9v72
		C122.8,374.6,121.1,376.4,118.9,376.4"/>
	<path class="st29" d="M118.9,376.4h-76c-2.2,0-4.1-1.8-4.1-3.9v-72c0-2.2,1.8-3.9,4.1-3.9h76c2.2,0,4.1,1.8,4.1,3.9v72
		C122.8,374.6,121.1,376.4,118.9,376.4z"/>
	<line class="st29" x1="38.8" y1="308.2" x2="122.8" y2="308.2"/>
	<line class="st19" x1="47.7" y1="316.9" x2="94.9" y2="316.9"/>
	<line class="st19" x1="47.7" y1="322.3" x2="115.4" y2="322.3"/>
	<line class="st31" x1="95.7" y1="328.8" x2="115.4" y2="328.8"/>
	<line class="st31" x1="95.7" y1="334.1" x2="115.4" y2="334.1"/>
	<line class="st31" x1="95.7" y1="339.5" x2="115.4" y2="339.5"/>
	<path class="st20" d="M64.8,360.4H49.2c-1.1,0-2-0.9-2-2v-7.2c0-1.1,0.9-2,2-2h15.6c1.1,0,2,0.9,2,2v7.2
		C66.9,359.4,65.9,360.4,64.8,360.4"/>
	<path class="st19" d="M64.8,360.4H49.2c-1.1,0-2-0.9-2-2v-7.2c0-1.1,0.9-2,2-2h15.6c1.1,0,2,0.9,2,2v7.2
		C66.9,359.4,65.9,360.4,64.8,360.4z"/>
	<line class="st19" x1="47.3" y1="365.3" x2="66.9" y2="365.3"/>
	<line class="st19" x1="47.3" y1="370.7" x2="58.3" y2="370.7"/>
	<path class="st32" d="M89.1,358.8H73.5c-1.1,0-2-0.9-2-2v-7.2c0-1.1,0.9-2,2-2h15.6c1.1,0,2,0.9,2,2v7.2
		C91.1,358,90.2,358.8,89.1,358.8"/>
	<path class="st31" d="M89.1,358.8H73.5c-1.1,0-2-0.9-2-2v-7.2c0-1.1,0.9-2,2-2h15.6c1.1,0,2,0.9,2,2v7.2
		C91.1,358,90.2,358.8,89.1,358.8z"/>
	<line class="st31" x1="71.5" y1="363.6" x2="91.1" y2="363.6"/>
	<line class="st31" x1="71.5" y1="369.1" x2="82.6" y2="369.1"/>
	<path class="st32" d="M113.3,358.8H97.7c-1.1,0-2-0.9-2-2v-7.2c0-1.1,0.9-2,2-2h15.6c1.1,0,2,0.9,2,2v7.2
		C115.4,358,114.4,358.8,113.3,358.8"/>
	<path class="st31" d="M113.3,358.8H97.7c-1.1,0-2-0.9-2-2v-7.2c0-1.1,0.9-2,2-2h15.6c1.1,0,2,0.9,2,2v7.2
		C115.4,358,114.4,358.8,113.3,358.8z"/>
	<line class="st31" x1="95.7" y1="363.6" x2="115.4" y2="363.6"/>
	<line class="st31" x1="95.7" y1="369.1" x2="106.8" y2="369.1"/>
	<path class="st30" d="M46.1,302.9c0,0.7-0.5,1.2-1.2,1.2s-1.2-0.5-1.2-1.2s0.5-1.2,1.2-1.2S46.1,302.3,46.1,302.9"/>
	<path class="st30" d="M50.2,302.9c0,0.7-0.5,1.2-1.2,1.2s-1.2-0.5-1.2-1.2s0.5-1.2,1.2-1.2S50.2,302.3,50.2,302.9"/>
	<path class="st30" d="M54.2,302.9c0,0.7-0.5,1.2-1.2,1.2s-1.2-0.5-1.2-1.2s0.5-1.2,1.2-1.2S54.2,302.3,54.2,302.9"/>
	<path class="st20" d="M64.8,340.7H49.2c-1.1,0-2-0.9-2-2v-7.2c0-1.1,0.9-2,2-2h15.6c1.1,0,2,0.9,2,2v7.2
		C66.9,339.8,65.9,340.7,64.8,340.7"/>
	<path class="st19" d="M64.8,340.7H49.2c-1.1,0-2-0.9-2-2v-7.2c0-1.1,0.9-2,2-2h15.6c1.1,0,2,0.9,2,2v7.2
		C66.9,339.8,65.9,340.7,64.8,340.7z"/>
	<path class="st33" d="M89.2,339.3H73.8c-1.1,0-2-0.9-2-2V330c0-1.1,0.9-2,2-2h15.6c1.1,0,2,0.9,2,2v7.2
		C91.2,338.3,90.4,339.3,89.2,339.3"/>
	<path class="st31" d="M89.2,339.3H73.8c-1.1,0-2-0.9-2-2V330c0-1.1,0.9-2,2-2h15.6c1.1,0,2,0.9,2,2v7.2
		C91.2,338.3,90.4,339.3,89.2,339.3z"/>
	<path class="st18" d="M149.5,387.5h-76c-2.2,0-4.1-1.8-4.1-3.9v-72c0-2.2,1.8-3.9,4.1-3.9h76c2.2,0,4.1,1.8,4.1,3.9v72
		C153.6,385.7,151.7,387.5,149.5,387.5"/>
	<path class="st29" d="M149.5,387.5h-76c-2.2,0-4.1-1.8-4.1-3.9v-72c0-2.2,1.8-3.9,4.1-3.9h76c2.2,0,4.1,1.8,4.1,3.9v72
		C153.6,385.7,151.7,387.5,149.5,387.5z"/>
	<line class="st29" x1="69.4" y1="319.3" x2="153.6" y2="319.3"/>
	<line class="st19" x1="112.1" y1="328" x2="125.5" y2="328"/>
	<line class="st19" x1="112.1" y1="333.4" x2="146" y2="333.4"/>
	<line class="st19" x1="112.1" y1="341.4" x2="115.9" y2="341.4"/>
	<line class="st19" x1="120" y1="341.6" x2="146" y2="341.6"/>
	<line class="st19" x1="112.1" y1="346.7" x2="115.9" y2="346.7"/>
	<line class="st19" x1="120" y1="346.8" x2="146" y2="346.8"/>
	<line class="st19" x1="112.1" y1="352.1" x2="115.9" y2="352.1"/>
	<line class="st19" x1="120" y1="352.1" x2="146" y2="352.1"/>
	<path class="st20" d="M95.4,371.5H80c-1.1,0-2-0.9-2-2v-7.2c0-1.1,0.9-2,2-2h15.4c1.1,0,2,0.9,2,2v7.2
		C97.5,370.6,96.7,371.5,95.4,371.5"/>
	<path class="st19" d="M95.4,371.5H80c-1.1,0-2-0.9-2-2v-7.2c0-1.1,0.9-2,2-2h15.4c1.1,0,2,0.9,2,2v7.2
		C97.5,370.6,96.7,371.5,95.4,371.5z"/>
	<line class="st19" x1="78" y1="376.4" x2="97.5" y2="376.4"/>
	<line class="st19" x1="78" y1="381.8" x2="88.9" y2="381.8"/>
	<path class="st20" d="M119.7,371.5h-15.4c-1.1,0-2-0.9-2-2v-7.2c0-1.1,0.9-2,2-2h15.6c1.1,0,2,0.9,2,2v7.2
		C121.7,370.6,120.8,371.5,119.7,371.5"/>
	<path class="st19" d="M119.7,371.5h-15.4c-1.1,0-2-0.9-2-2v-7.2c0-1.1,0.9-2,2-2h15.6c1.1,0,2,0.9,2,2v7.2
		C121.7,370.6,120.8,371.5,119.7,371.5z"/>
	<line class="st19" x1="102.2" y1="376.4" x2="121.7" y2="376.4"/>
	<line class="st19" x1="102.2" y1="381.8" x2="113.2" y2="381.8"/>
	<path class="st20" d="M144,371.5h-15.4c-1.1,0-2-0.9-2-2v-7.2c0-1.1,0.9-2,2-2h15.6c1.1,0,2,0.9,2,2v7.2
		C146,370.6,145,371.5,144,371.5"/>
	<path class="st19" d="M144,371.5h-15.4c-1.1,0-2-0.9-2-2v-7.2c0-1.1,0.9-2,2-2h15.6c1.1,0,2,0.9,2,2v7.2
		C146,370.6,145,371.5,144,371.5z"/>
	<line class="st19" x1="126.5" y1="376.4" x2="146" y2="376.4"/>
	<line class="st19" x1="126.5" y1="381.8" x2="137.4" y2="381.8"/>
	<path class="st30" d="M76.9,314.2c0,0.7-0.5,1.2-1.2,1.2s-1.2-0.5-1.2-1.2s0.5-1.2,1.2-1.2S76.9,313.5,76.9,314.2"/>
	<path class="st30" d="M80.9,314.2c0,0.7-0.5,1.2-1.2,1.2s-1.2-0.5-1.2-1.2s0.5-1.2,1.2-1.2C80.4,312.8,80.9,313.5,80.9,314.2"/>
	<path class="st30" d="M84.9,314.2c0,0.7-0.5,1.2-1.2,1.2s-1.2-0.5-1.2-1.2s0.5-1.2,1.2-1.2C84.3,312.8,84.9,313.5,84.9,314.2"/>
	<g>
		<rect x="78.1" y="327.3" class="st34" width="27.1" height="18.8"/>
		<rect x="81.6" y="330.3" class="st34" width="20.1" height="12.6"/>
		<polyline class="st34" points="81.8,338.4 89.6,333.8 99.1,342.6 		"/>
		<polyline class="st34" points="94.9,338.7 97.9,336.1 101.5,339 		"/>
		<circle class="st34" cx="95" cy="333.6" r="0.7"/>
	</g>
</g>
<g>
	<g>
		<path class="st18" d="M712.5,369.6v-54.1c2.3,0,4.3-1.9,4.3-4.2v-4.2l-8.5-20.5h-68.6l-8.5,20.5v4.2c0,2.3,1.9,4.2,4.3,4.2v54.1
			H712.5z"/>
		<line class="st19" x1="629.7" y1="369.6" x2="718.2" y2="369.6"/>
		<line class="st19" x1="635.4" y1="369.6" x2="635.4" y2="315.5"/>
		<line class="st19" x1="712.5" y1="369.6" x2="712.5" y2="315.5"/>
		<path class="st19" d="M708.3,309.9v1.5c0,2.3-1.9,4.2-4.3,4.2c-2.3,0-4.3-1.9-4.3-4.2v-1.5v1.5c0,2.3-1.9,4.2-4.3,4.2
			c-2.3,0-4.3-1.9-4.3-4.2v-1.5v1.5c0,2.3-1.9,4.2-4.3,4.2c-2.3,0-4.3-1.9-4.3-4.2v-1.5v1.5c0,2.3-1.9,4.2-4.3,4.2
			c-2.3,0-4.3-1.9-4.3-4.2v-1.5v1.5c0,2.3-1.9,4.2-4.3,4.2c-2.3,0-4.3-1.9-4.3-4.2v-1.5v1.5c0,2.3-1.9,4.2-4.3,4.2
			c-2.3,0-4.3-1.9-4.3-4.2v-1.5v1.5c0,2.3-1.9,4.2-4.3,4.2s-4.3-1.9-4.3-4.2v-1.5v1.5c0,2.3-1.9,4.2-4.3,4.2c-2.3,0-4.3-1.9-4.3-4.2
			v-1.5v1.5c0,2.3-1.9,4.2-4.3,4.2c-2.3,0-4.3-1.9-4.3-4.2v-4.2l8.5-20.5H708l8.5,20.5v4.2c0,2.3-1.9,4.2-4.3,4.2
			c-2.3,0-4.3-1.9-4.3-4.2L708.3,309.9L708.3,309.9z"/>
		<line class="st19" x1="714.8" y1="304.2" x2="633" y2="304.2"/>
		<rect x="683.9" y="335.5" class="st19" width="20.1" height="34.1"/>
		<rect x="644" y="335.5" class="st19" width="34.3" height="19.9"/>
		<line class="st35" x1="652.6" y1="341.2" x2="649.8" y2="344"/>
		<line class="st35" x1="658.3" y1="342.5" x2="652.6" y2="348.2"/>
	</g>
	<g>
		<path class="st18" d="M685.4,387.5v-56.9c2.4,0,4.5-2,4.5-4.5v-4.5l-8.9-21.5h-72.1l-8.9,21.5v4.5c0,2.4,2,4.5,4.5,4.5v56.9H685.4
			L685.4,387.5z"/>
		<line class="st19" x1="598.3" y1="387.5" x2="691.5" y2="387.5"/>
		<line class="st19" x1="604.4" y1="387.5" x2="604.4" y2="330.7"/>
		<line class="st19" x1="685.4" y1="387.5" x2="685.4" y2="330.7"/>
		<path class="st19" d="M680.9,324.8v1.5c0,2.4-2,4.5-4.5,4.5c-2.4,0-4.5-2-4.5-4.5v-1.5v1.5c0,2.4-2,4.5-4.5,4.5
			c-2.4,0-4.5-2-4.5-4.5v-1.5v1.5c0,2.4-2,4.5-4.5,4.5c-2.4,0-4.5-2-4.5-4.5v-1.5v1.5c0,2.4-2,4.5-4.5,4.5c-2.4,0-4.5-2-4.5-4.5
			v-1.5v1.5c0,2.4-2,4.5-4.5,4.5c-2.4,0-4.5-2-4.5-4.5v-1.5v1.5c0,2.4-2,4.5-4.5,4.5c-2.4,0-4.5-2-4.5-4.5v-1.5v1.5
			c0,2.4-2,4.5-4.5,4.5c-2.4,0-4.5-2-4.5-4.5v-1.5v1.5c0,2.4-2,4.5-4.5,4.5c-2.4,0-4.5-2-4.5-4.5v-1.5v1.5c0,2.4-2,4.5-4.5,4.5
			c-2.4,0-4.5-2-4.5-4.5v-4.6l8.9-21.5h72.1l8.9,21.5v4.5c0,2.4-2,4.5-4.5,4.5c-2.4,0-4.5-2-4.5-4.5L680.9,324.8L680.9,324.8z"/>
		<line class="st19" x1="687.9" y1="318.7" x2="601.7" y2="318.7"/>
		<rect x="655.5" y="351.6" class="st19" width="21" height="35.9"/>
		<rect x="613.3" y="351.6" class="st19" width="36" height="21"/>
		<line class="st35" x1="622.4" y1="357.5" x2="619.4" y2="360.5"/>
		<line class="st35" x1="628.4" y1="359" x2="622.4" y2="365.1"/>
		<g>
			<rect x="630.9" y="356.3" class="st36" width="13.5" height="9.4"/>
			<rect x="632.7" y="358" class="st36" width="10" height="6.4"/>
			<polyline class="st36" points="632.8,361.9 636.6,359.7 641.5,364.1 			"/>
			<polyline class="st36" points="639.3,362 640.8,360.8 642.6,362.2 			"/>
			<circle class="st36" cx="639.3" cy="359.6" r="0.3"/>
		</g>
	</g>
</g>
<g>
	<path class="st18" d="M363.1,477.5c0,1.5-1.2,2.6-2.6,2.6c-1.5,0-2.6-1.2-2.6-2.6v-2.6c0-1.5,1.2-2.6,2.6-2.6
		c1.5,0,2.6,1.2,2.6,2.6V477.5z"/>
	<path class="st29" d="M363.1,477.5c0,1.5-1.2,2.6-2.6,2.6c-1.5,0-2.6-1.2-2.6-2.6v-2.6c0-1.5,1.2-2.6,2.6-2.6
		c1.5,0,2.6,1.2,2.6,2.6V477.5z"/>
	<path class="st18" d="M408.2,477.5c0,1.5-1.2,2.6-2.6,2.6c-1.5,0-2.6-1.2-2.6-2.6v-2.6c0-1.5,1.2-2.6,2.6-2.6
		c1.5,0,2.6,1.2,2.6,2.6V477.5z"/>
	<path class="st29" d="M408.2,477.5c0,1.5-1.2,2.6-2.6,2.6c-1.5,0-2.6-1.2-2.6-2.6v-2.6c0-1.5,1.2-2.6,2.6-2.6
		c1.5,0,2.6,1.2,2.6,2.6V477.5z"/>
	<path class="st20" d="M410.2,529.1v-7.9c0-13-12.3-23.6-27.5-23.6s-27.5,10.6-27.5,23.6v7.9H410.2z"/>
	<path class="st19" d="M403.8,506.3c-5-5.3-12.7-8.7-21.3-8.7c-15.2,0-27.5,10.6-27.5,23.6v7.9h55v-7.9c0-2.4-0.4-4.7-1.2-6.9"/>
	<path class="st19" d="M407.8,511.6c-0.5-0.9-1.2-2-1.9-2.8"/>
	<path class="st18" d="M382.8,508.6L382.8,508.6c-11.5,0-21-9.5-21-21v-24.1c0-11.5,9.5-21,21-21s21,9.5,21,21v24.1
		C403.8,499.3,394.5,508.6,382.8,508.6"/>
	<path class="st23" d="M382.8,508.6L382.8,508.6c-11.5,0-21-9.5-21-21v-24.1c0-11.5,9.5-21,21-21s21,9.5,21,21v24.1
		C403.8,499.3,394.5,508.6,382.8,508.6z"/>
	<path class="st20" d="M361.7,471.8L361.7,471.8c-2.8,0-5.1-2.3-5.1-5.1v-12.2c0-4.2,3.4-7.6,7.6-7.6c0-3.5,2.8-6.2,6.2-6.2h30.9
		c4.2,0,7.6,3.4,7.6,7.6v18.4c0,2.7-2.3,4.9-5,4.7v-12.2c0,0-3.5,5.7-14.5,5.7c-13.3,0-22-6.6-22-6.6s-0.8,1.8-2.6,3.4
		c-1.6,1.5-3.3,0.9-3.3,0.9v9.2L361.7,471.8L361.7,471.8z"/>
	<path class="st19" d="M361.7,471.8L361.7,471.8c-2.8,0-5.1-2.3-5.1-5.1v-12.2c0-4.2,3.4-7.6,7.6-7.6c0-3.5,2.8-6.2,6.2-6.2h30.9
		c4.2,0,7.6,3.4,7.6,7.6v18.4c0,2.7-2.3,4.9-5,4.7v-12.2c0,0-3.5,5.7-14.5,5.7c-13.3,0-22-6.6-22-6.6s-0.8,1.8-2.6,3.4
		c-1.6,1.5-3.3,0.9-3.3,0.9v9.2L361.7,471.8L361.7,471.8z"/>
	<rect x="365.5" y="516.6" class="st30" width="11.1" height="3"/>
</g>
<polygon class="st17" points="289.8,516.6 274.2,527.3 276.5,516.6 274.2,506.1 "/>
<path class="st15" d="M481.6,516.6h139.8c16.9,0,30.8-13.7,30.8-30.8v-35.5"/>
<polygon class="st17" points="469.7,516.6 485.3,527.3 483.1,516.6 485.3,506.1 "/>
<g>
	<line class="st15" x1="107.2" y1="216.4" x2="107.2" y2="257.5"/>
	<polygon class="st17" points="107.2,258.9 98.8,246.5 107.2,248.3 115.8,246.5 	"/>
</g>
<g>
	<line class="st15" x1="645.6" y1="216.4" x2="645.6" y2="257.5"/>
	<polygon class="st17" points="645.6,258.8 637.2,246.5 645.6,248.2 654,246.5 	"/>
</g>
<g>
	<line class="st37" x1="322.7" y1="387.5" x2="442.6" y2="387.5"/>
	<rect x="332.4" y="362.6" class="st37" width="15.6" height="24.9"/>
	<rect x="360.9" y="333.4" class="st37" width="15.6" height="54.1"/>
	<rect x="389.6" y="344.9" class="st37" width="15.6" height="42.5"/>
	<rect x="418.5" y="309.9" class="st37" width="15.6" height="77.6"/>
	<polyline class="st37" points="338.1,325.8 368.7,298.3 400,311.5 430.8,273.5 	"/>
	<circle class="st38" cx="369.2" cy="298.7" r="5.8"/>
	<circle class="st38" cx="338.1" cy="325.8" r="5.8"/>
	<circle class="st38" cx="400" cy="311.5" r="5.8"/>
	<circle class="st38" cx="430.8" cy="273.5" r="5.8"/>
</g>
</svg>
