<?xml version="1.0" encoding="utf-8"?>
<!-- Generator: Adobe Illustrator 23.0.2, SVG Export Plug-In . SVG Version: 6.00 Build 0)  -->
<svg version="1.1" id="Layer_1" xmlns="http://www.w3.org/2000/svg" xmlns:xlink="http://www.w3.org/1999/xlink" x="0px" y="0px"
	 width="51.4px" height="40px" viewBox="0 0 51.4 40" style="enable-background:new 0 0 51.4 40;" xml:space="preserve">
<style type="text/css">
	.st0{fill:none;stroke:#32BDB9;stroke-width:1.3;stroke-linecap:round;stroke-linejoin:round;stroke-miterlimit:10;}
	.st1{fill:#32BDB9;}
</style>
<g id="Layer_9">
	<g>
		<path class="st0" d="M22.1,20.4c0,0-8.3,2.3-8.7,11.5H26"/>
		<path class="st0" d="M29.4,21.1c0,0-1.1-0.6-1.9-0.9"/>
		<path class="st0" d="M22.1,20.4c-2.3-1.1-4.5-3.8-4.4-6.7c0-3.6,3-7.1,7.1-7.1c3.9,0,7.1,3.2,7.1,7.1c0,2.9-2.2,5.6-4.4,6.6"/>
		<circle class="st0" cx="32.7" cy="28.1" r="5.3"/>
		<g>
			<path class="st1" d="M32.2,31.8v-0.9c-0.6,0-1.2-0.2-1.5-0.4l0.3-1.1c0.4,0.2,0.9,0.4,1.5,0.4c0.5,0,0.9-0.2,0.9-0.6
				c0-0.3-0.3-0.6-1-0.8c-1-0.3-1.6-0.8-1.6-1.6c0-0.8,0.6-1.4,1.5-1.6v-0.9h0.9v0.8c0.6,0,1,0.2,1.3,0.3l-0.3,1
				c-0.2-0.1-0.6-0.3-1.3-0.3c-0.6,0-0.8,0.3-0.8,0.5c0,0.3,0.3,0.5,1.1,0.8c1.1,0.4,1.5,0.9,1.5,1.7c0,0.8-0.6,1.5-1.6,1.7v0.9
				h-0.9C32.2,31.7,32.2,31.8,32.2,31.8z"/>
		</g>
	</g>
</g>
</svg>
