<?xml version="1.0" encoding="utf-8"?>
<!-- Generator: Adobe Illustrator 21.1.0, SVG Export Plug-In . SVG Version: 6.00 Build 0)  -->
<svg version="1.1" id="Layer_1" xmlns="http://www.w3.org/2000/svg" xmlns:xlink="http://www.w3.org/1999/xlink" x="0px" y="0px"
	 width="979px" height="564px" viewBox="0 0 979 564" style="enable-background:new 0 0 979 564;" xml:space="preserve">
<style type="text/css">
	.st0{opacity:0.6;}
	.st1{opacity:0.5;fill:#EFF7FE;enable-background:new    ;}
	.st2{opacity:0.15;fill:#DFE6EA;enable-background:new    ;}
	.st3{opacity:0.45;fill:#E1F5FB;enable-background:new    ;}
	.st4{opacity:0.3;fill:#D1F0EF;enable-background:new    ;}
	.st5{opacity:0.5;fill:#D1F0EF;enable-background:new    ;}
	.st6{opacity:0.5;fill:#DCE8EF;enable-background:new    ;}
	.st7{opacity:0.2;fill:#FCC8CE;enable-background:new    ;}
	.st8{opacity:0.6;fill:#D5F1F1;enable-background:new    ;}
	.st9{opacity:0.6;fill:#BBE9F9;enable-background:new    ;}
	.st10{fill:#F1FAFA;}
	.st11{opacity:0.2;fill:#FCB9C6;enable-background:new    ;}
	.st12{fill:#FCFDFF;}
	.st13{opacity:0.1;fill:#1DD4FF;enable-background:new    ;}
	.st14{opacity:0.2;fill:#A2EAE0;enable-background:new    ;}
	.st15{fill:none;stroke:#347EC0;stroke-width:1.5;stroke-linecap:round;stroke-miterlimit:10;}
	.st16{fill:none;stroke:#347EC0;stroke-width:1.5;stroke-linecap:round;stroke-miterlimit:10;stroke-dasharray:7.9887,7.9887;}
	.st17{fill:none;stroke:#347EC0;stroke-width:1.5;stroke-linecap:round;stroke-miterlimit:10;stroke-dasharray:8.0376,8.0376;}
	.st18{fill:#32BDB9;stroke:#347EC0;stroke-width:1.5;stroke-miterlimit:10;}
	.st19{display:none;fill:#FFFFFF;}
	.st20{fill:#FFFFFF;}
	.st21{fill:#A3BBC1;}
	.st22{fill:#F46767;}
	.st23{fill:#34EF00;}
</style>
<g id="Layer_3">
	<g class="st0">
		<ellipse class="st1" cx="310.4" cy="299" rx="286.2" ry="224"/>
		<ellipse class="st2" cx="580.7" cy="174.6" rx="203.4" ry="159.2"/>
		<ellipse class="st3" cx="687.2" cy="310.2" rx="279.5" ry="218.7"/>
		<path class="st4" d="M293.4,371c4.3-2.8,14.3,0.2,26.9,4c9,2.7,13.6,5.3,22.7,5.9c4.8,0.3,12.1,0.7,14.4-2.2
			c4.5-5.6-12.9-20.5-12.6-20.8c0.5-0.3,19.5,22.6,28.8,20c2.3-0.6,3.9-3.2,7-8.3c4.2-6.9,3.1-8.7,6-10.9c4.9-3.7,9.9-0.4,18.6-3.3
			s7.5-7.6,17.2-13.1c6.3-3.6,12.1-4.6,21.3-6.2c18.9-3.3,21.7,0.7,31.2-2.9c10.5-4,8-9.4,21.3-17.1c7.3-4.2,13.8-5.9,24.7-8.7
			c10.8-2.8,18.7-3.7,32.5-5.5c28-3.4,34.8-1.6,38.6-0.4c6.4,2.2,6.3,3.8,12.6,6.6c14.3,6,26.4,2.2,42.7,1.8
			c23.1-0.5,40.9,6.3,60.4,13.8c10.3,3.9,5.1,2.9,37.1,17.8c21.3,9.9,25.5,11.2,33.4,16.7c9,6.2,18.8,13,24.7,24.3
			c3.5,7,3.1,10.8,9.2,21.8c5,8.8,8.2,11.6,11.2,13.4c5.8,3.7,9,2.9,12.6,6.6c5.1,5.3,5,14.3,0.5,16.4c-3,1.4-7.4-0.4-9.2-1.1
			c-5.9-2.3-5.5-5.2-11.2-8.3c-1-0.5-8.6-4.6-16.7-2.9c-0.9,0.2-8.2,1.7-8.8,4.8c-1.5,7.2,37.2,10.3,44.1,28
			c2.5,6.6,0.5,14.6-4.2,20c-8.2,9.6-22.1,8.3-26.5,17.1c-3.2,6.4,1.3,13.3,2.3,14.9c9,13.9,38.1,21.2,57.5,14.5
			c11.8-4,23.3-14.3,35.3-25.1c5.4-4.8,8.8-8.4,14.8-9.1c9.8-1.1,21.9,5.7,24.7,13.4c4.5,12.8-16.7,28.1-32.1,35.2
			c-17.1,8-37.9,8.2-79,8.3c-33.7,0.1-50.8,0.1-62.7-6.6c-13.4-7.5-25.9-22.1-31.6-28.7c-9.6-11.2-13-18.3-22.7-20
			c-10.2-1.8-21.3,3.3-23.6,4.4c-7.1,3.2-6.4,5.1-12.6,8.3c-15.3,8.1-31.5,3-33.9,8c-1.5,3.1,3.7,7.7,8.8,12.3
			c6.8,6.1,10.7,6.5,11.2,9.4c0.7,5-9.4,12.5-19.5,12.7c-12.7,0.2-15.3-11.1-30.6-13.8c-3.1-0.5-9.1-1.2-32.5,6.6
			c-31.5,10.4-30.2,14.7-46,17.5c-17.5,3-33.2,0.1-48.7-2.9c-21.1-4-21.3-7.6-37.1-9.1c-21.8-2-24.2,4.6-44.1,2.9
			c-13.6-1.2-25.5-6.3-49.2-16.7c-19.6-8.6-21.1-10.7-29.7-14.2c-27.5-11-46.3-2.4-91-1.8c-32.8,0.5-81.4,1.1-97.5-20
			c-8.2-10.6-8.2-27.2,1.8-36.3c11.4-10.4,28.4-4.8,84.9-8.7c46.1-3.2,58.3-8.6,66-15.6c10.4-9.6,12-21.9,12.6-25.8
			C302.5,390.1,286.5,375.6,293.4,371z"/>
		<path class="st5" d="M332.5,463.1c4.3,2.8,14.3-0.2,26.9-4c9-2.7,13.6-5.3,22.7-5.9c4.8-0.3,12.1-0.7,14.4,2.2
			c4.5,5.6-12.9,20.5-12.4,20.8s19.5-22.6,28.8-20c2.3,0.6,3.9,3.2,7,8.3c4.2,6.9,3.1,8.7,6,10.9c4.9,3.7,9.9,0.4,18.6,3.3
			c8.7,2.8,7.5,7.6,17.2,13.1c6.3,3.6,12.1,4.6,21.3,6.1c18.9,3.3,21.7-0.7,31.2,2.8c10.5,4,8,9.3,21.3,17
			c7.3,4.2,13.8,5.9,24.7,8.7c10.8,2.8,18.7,3.7,32.5,5.4c28,3.4,34.8,1.6,38.6,0.3c6.4-2.2,6.3-3.8,12.6-6.6
			c14.3-6.1,26.4-2.2,42.7-1.8c23.1,0.5,40.9-6.4,60.4-13.9c10.3-3.9,5.1-2.9,37.1-17.8c21.3-10,25.3-11.2,33.4-16.7
			c9-6.2,18.8-13.1,24.5-24.4c3.5-7,3-10.8,9.2-21.9c5-8.8,8.2-11.6,11.1-13.4c5.8-3.7,9-2.9,12.6-6.6c5.1-5.3,5-14.3,0.5-16.4
			c-3-1.4-7.4,0.4-9.2,1.1c-5.9,2.4-5.5,5.2-11.1,8.4c-1,0.5-8.6,4.6-16.7,2.9c-0.9-0.2-8.2-1.6-8.8-4.8
			c-1.5-7.2,37.2-10.4,44.1-28.1c2.5-6.6,0.5-14.6-4.2-20c-8.2-9.5-22.1-8.3-26.5-17c-3.2-6.4,1.3-13.3,2.3-14.9
			c9-13.9,38.1-21.2,57.5-14.6c11.8,4,23.3,14.3,35.4,25.1c5.4,4.8,8.8,8.4,14.8,9.1c9.8,1.1,21.9-5.7,24.5-13.4
			c4.5-12.8-16.8-28.1-32.1-35.2c-17.1-8-37.9-8.1-79-8.2c-33.7-0.1-50.8,0-62.7,6.6c-13.4,7.5-25.9,22.1-31.5,28.7
			c-9.6,11.2-13,18.3-22.7,20c-10.2,1.8-21.3-3.2-23.7-4.3c-7.1-3.2-6.4-5.1-12.6-8.3c-15.3-8.1-31.5-2.9-33.9-8
			c-1.5-3.1,3.7-7.7,8.8-12.3c6.8-6.1,10.7-6.5,11.1-9.4c0.7-5-9.4-12.5-19.5-12.7c-12.7-0.2-15.3,11.1-30.6,13.8
			c-3.1,0.5-9.1,1.2-32.5-6.5c-31.5-10.3-30.4-14.7-46-17.4c-17.5-3-33.2,0-48.7,3c-21.1,4-21.3,7.7-37.1,9.1
			c-21.8,2.1-24.2-4.6-44.1-2.8c-13.6,1.2-25.5,6.4-49.2,16.8c-19.6,8.6-21,10.8-29.7,14.2c-27.5,11-46.3,2.5-91,1.9
			c-32.8-0.4-81.4-0.9-97.5,20.1c-8.1,10.7-8.2,27.2,1.9,36.3c11.4,10.4,28.4,4.8,85,8.6c46.1,3.1,58.3,8.5,66,15.5
			c10.4,9.6,12.1,21.9,12.6,25.8C341.5,443.9,325.5,458.5,332.5,463.1z"/>
		<path class="st6" d="M115.1,94.1c-3.7-1.3-3.1-7-8.9-8.5c-4.5-1.1-8.4,1.5-10.2,0c-2.1-1.7,2.6-5.5,0.3-8.7
			c-1.6-2.2-5.2-2.8-6.8-3.1c-6.3-1-9.5,1.9-11.8,0.5c-2.9-1.7,1.6-6.4-1.6-11.3c-1.6-2.4-4.8-4.7-8.9-4.8C62.7,58,58.9,60.6,57,63
			c-2.6,3.7,0.5,5.5-1.6,10.8c-1.6,4.2-4.1,4.4-5.9,8.5c-1.9,4.3-0.9,8-0.3,10.8c2.4,12.9-2.1,27.9-5.9,28.3
			c-2.4,0.2-5.4-4.9-6.8-7.4c-2.7-4.7-2.9-7.8-4.6-8c-1.8-0.2-4,3-4.9,4.8c-2.3,4.8-2.1,11.9,3.3,15.6c4,2.8,7.8,1.5,8.9,3.6
			c1.8,3.4-7.8,7.2-11.2,17.2c-1.1,3.3-1.5,6.9,0,7.4c2.2,0.7,6.5-5.9,10.5-5.1c2.4,0.5,1.7,3.1,4.9,5.1c4.2,2.7,8.4,0.1,12.8,2
			c4,1.8,3.2,5.2,6.3,12.1c1.7,3.9,4.8,7.8,10.8,15.4c8.1,10.2,9.1,9.3,11.5,14.1c3.3,6.9,1.8,9.7,6.3,13.1
			c4.5,3.5,8.6,2.3,11.2,5.7c2.7,3.7,0.9,8.8-1.3,11.8c-2.7,3.7-8.4,5.7-19.6,9.5c-12.4,4.2-16.8,4.4-18.7,4.4
			c-3.5,0-9.5,0-13.8-3.1c-3.2-2.3-2.5-4.1-6.3-11.3c-3.3-6.4-5-9.7-8.6-11.5c-5.1-2.7-13-2.7-18.7-0.3
			c-8.8,3.7-10.4,12.7-13.5,30.8c-1.6,9.2-0.7,10.9,0.7,11.8c3,2.1,8.2,0.8,33.8-3.1c5-0.7,8.1-1.2,11.5,0
			c7.1,2.6,9.1,10.1,9.8,12.3c1.1,4.1,0.2,5.3,0.7,12.8c0.3,5.8,0.6,9,1.6,11.8c3.2,8.7,12.1,8.4,25.2,19.8
			c5.8,5.1,11.5,10,13.8,17.7c2.4,8.3-0.2,16.4-1.6,19.8c-3.7,8.9-8.7,10.5-7.2,14.4c2.5,6.9,21.7,10.7,27.3,6.1
			c2.7-2.2,0.3-4.9,3.3-8c4.2-4.3,16-5.3,22.6-1.6c2.3,1.3,4.6,3.4,9.1,21.6c3.2,12.3,3.3,16,7.9,18.7c4.8,2.9,11.3,2.7,16.1,2.6
			c7.4-0.2,9.2-1.9,18-3.4c10.5-1.6,12.6,0,21-1s9.2-3.1,24.3-8.7c22.4-8.4,25-5.5,36.4-12.1c2.7-1.6,8.3-5,17-8.7
			c5.2-2.2,8.4-3.2,9.8-3.6c2.6-0.7,8.4-2.4,16.1-2.8c9.5-0.5,11.6,1.3,14.4-0.5c4.2-2.7,0.6-7.3,5.2-11.3c3.4-2.9,9.1-3.6,13.1-3.1
			c4.2,0.5,4.9,2,14.2,6.7c6.6,3.3,9.9,4.9,13.1,5.4c6,0.8,8.7-1.1,13.8,0.7c3.8,1.4,3.2,2.7,6.5,3.6c3.9,1,5.9-0.4,13.8-1.3
			c8.3-1,8.2,0.4,10.8-0.7c5.8-2.5,3.9-8,10.5-13.9c4.5-3.9,6.5-2.4,9.5-5.4c7.9-7.8-5.4-18.5,1.3-31.8c2.7-5.4,7.5-9.1,10.5-11.3
			c10-7.5,17-6.5,21.3-12.8c3-4.3,3.7-10.7,0.3-15.4c-4.2-6.1-12.7-5.8-14.4-11.5c-1.4-4.3,2.5-6.9,0.3-9
			c-3.2-3.1-13.9-0.2-15.4,0.3c-11.9,3.3-15.2,9.7-20,8.5c-4.6-1.2-5.2-7.9-5.2-8.2c-0.5-4.8,2.7-7.2,7.2-14.1
			c2.1-3.1,6.7-10.5,8.2-19.3c0.9-5.5,2.1-12.2-2.6-15.4c-4.8-3.4-10.8,0.5-16.4-2.8c-5-2.9-2.2-7-6.5-16.7
			c-4.1-9-11.1-15.1-13.8-17.5c-6.5-5.7-7.9-4.5-10.5-8s-3.4-7.5,0-25.4c2.7-14.3,4.2-16.8,1.6-19.3c-2.5-2.3-6-2-28.2-1.3
			c-18.9,0.5-25.2,0.6-30.5-2.8c-4.8-3.1-6.3-7.5-6.5-8.2c-2.9-8.5,5.9-13,3-19.8c-2.1-4.7-8.7-8.8-14.2-8.2
			c-6.8,0.7-6.6,8.5-17.7,14.4c-6.2,3.3-14,5-15.7,3.4c-2.7-2.7,12.9-12.6,9.5-17.5c-2.6-3.7-14.3-2-15.4-1.8
			c-14.8,2.2-16.9,10.2-28.9,14.6c-18.7,6.9-42.3-1.8-51.8-5.4C173,73.7,172.7,66,161.7,66.2C139.7,66.9,124.1,97.2,115.1,94.1z"/>
		<path class="st7" d="M791,45.2c4.6-1.6,3.8-8.7,10.8-10.4c5.5-1.4,10.4,1.8,12.4,0c2.5-2.1-3.2-6.7-0.5-10.7
			c1.9-2.7,6.5-3.5,8.4-3.7c7.6-1.3,11.6,2.3,14.5,0.6c3.4-2.1-1.9-7.9,2.1-13.9c1.9-2.8,5.9-5.8,10.8-5.9C855.2,0.8,860,4,862.1,7
			c3.2,4.5-0.6,6.8,2.1,13.3c2.1,5.1,5,5.4,7.3,10.4c2.3,5.3,1,9.7,0.5,13.3c-3,15.8,2.5,34.3,7.3,34.7c3,0.3,6.6-6,8.4-9.1
			c3.4-5.8,3.4-9.5,5.6-9.8c2.3-0.3,4.9,3.7,6,5.9c2.9,5.9,2.5,14.6-4,19.2c-4.9,3.5-9.5,1.8-10.8,4.4c-2.3,4.2,9.5,8.9,13.7,21.1
			c1.4,4.1,1.8,8.5,0,9.1c-2.6,0.9-8.1-7.3-12.9-6.3c-3,0.5-2.2,3.8-6,6.3c-5.1,3.2-10.4,0.1-15.7,2.6c-4.9,2.2-3.9,6.3-7.6,14.8
			c-2.2,4.8-5.8,9.5-13.2,18.9c-9.9,12.6-11.2,11.4-14.2,17.4c-4.1,8.3-2.3,11.9-7.6,16.1c-5.5,4.3-10.5,2.8-13.7,6.9
			c-3.4,4.5-1.1,10.8,1.6,14.5c3.3,4.5,10.3,6.9,24.2,11.7c15.3,5.2,20.7,5.4,22.9,5.4c4.3,0,11.6,0,16.9-3.7c4-2.8,3.1-5,7.6-13.9
			c4.1-7.9,6-11.9,10.5-14.2c6.3-3.4,16.1-3.2,22.9-0.3c10.8,4.6,12.7,15.6,16.5,37.9c1.9,11.3,0.9,13.4-0.8,14.5
			c-3.7,2.6-10.2,1-41.4-3.7c-6.2-0.9-9.9-1.5-14.2,0c-8.7,3.1-11.3,12.3-12.1,15.1c-1.5,5.1-0.2,6.5-0.8,15.7
			c-0.5,7.1-0.7,11-2.1,14.5c-4,10.6-14.8,10.3-31,24.2c-7.2,6.2-14.2,12.3-16.9,21.8c-3,10.2,0.2,20,2.1,24.2
			c4.5,10.9,10.6,12.9,8.9,17.6c-3.1,8.5-26.6,13.1-33.4,7.6c-3.4-2.7-0.5-6.1-4-9.8c-5.2-5.3-19.5-6.5-27.7-1.9
			c-2.9,1.6-5.6,4.2-11.3,26.5c-3.9,15.2-4.1,19.7-9.7,23c-5.9,3.6-13.8,3.3-19.7,3.1c-9.1-0.3-11.4-2.4-22.1-4.1
			c-12.8-2-15.4,0-25.8-1.3c-10.4-1.3-11.3-3.7-29.8-10.7c-27.4-10.2-30.6-6.8-44.7-14.8c-3.3-1.9-10.3-6.2-20.9-10.7
			c-6.5-2.7-10.3-3.9-12.1-4.4c-3.3-0.9-10.4-2.9-19.7-3.5c-11.5-0.6-14.3,1.6-17.7-0.6c-5.2-3.2-0.8-9.1-6.4-13.9
			c-4.2-3.6-11.3-4.4-16.1-3.7c-5.1,0.6-5.9,2.6-17.3,8.2c-8.1,4-12.2,6.1-16.1,6.6c-7.4,1-10.7-1.3-16.9,0.9
			c-4.6,1.6-4,3.3-8.1,4.4c-4.8,1.3-7.3-0.5-16.9-1.6c-10.2-1.2-10,0.4-13.2-0.9c-7.2-3-4.7-9.8-12.9-17c-5.5-4.8-8-2.9-11.6-6.6
			c-9.7-9.5,6.5-22.7-1.6-39c-3.3-6.7-9.2-11.2-12.9-13.9c-12.2-9.2-20.9-8-26.1-15.7c-3.7-5.3-4.5-13.2-0.5-18.9
			c5.2-7.5,15.5-7.1,17.7-14.2c1.6-5.2-3.1-8.4-0.5-11.1c3.9-3.7,17.1-0.2,18.9,0.3c14.5,4,18.7,11.9,24.5,10.4
			c5.6-1.5,6.4-9.7,6.4-10.1c0.6-5.9-3.4-9-8.9-17.4c-2.5-3.8-8.2-12.9-10-23.7c-1.1-6.8-2.5-14.9,3.2-18.9
			c5.9-4.1,13.2,0.5,20.1-3.5c6.2-3.6,2.6-8.7,8.1-20.5c5-11,13.6-18.5,16.9-21.4c8-6.9,9.7-5.5,12.9-9.8c3.2-4.2,4.2-9.2,0-31.2
			C452.9,76.2,451,73,454.1,70c3.1-2.8,7.4-2.5,34.6-1.6c23.3,0.7,30.9,0.8,37.4-3.5c5.9-3.8,7.8-9.2,8.1-10.1
			c3.4-10.4-7.3-15.9-3.7-24.2c2.5-5.7,10.7-10.8,17.3-10.1c8.3,0.9,8.1,10.4,21.8,17.6c7.5,4,17.3,6.1,19.3,4.1
			c3.3-3.3-15.9-15.5-11.6-21.4c3.2-4.5,17.5-2.4,18.9-2.2c18.1,2.7,20.8,12.5,35.5,17.9c22.9,8.5,51.9-2.3,63.7-6.6
			c25.2-9.4,25.7-18.8,39-18.6C760.8,11.8,780,48.9,791,45.2z"/>
		<path class="st8" d="M183.3,193.6c-3.1,0.5-1.3,7.2-7.6,16.7c-3.4,5.1-5,4.8-7.2,8.6c-4,7.2-0.5,12.1,0.5,22.8
			c1,11.1-1.3,24.7-5.7,25.3c-3.9,0.5-8.8-10.8-10-10.4c-1.4,0.5,10.4,15,4.8,28.3c-4,9.4-15,14-12.9,16.7c1.9,2.7,11.4-1.6,21,2.7
			c3.2,1.4,5.1,3.5,9,7.5c5.8,6,7.8,9.9,11.9,15.6c2.9,3.9,2.3,2.6,14.3,16.4c7.9,9.1,11.9,13.6,15.3,18.3
			c7.5,10.2,11.2,15.4,10.5,20.1c-1.5,9.4-13.7,15.3-20,18.3c-6.2,2.9-13,6.2-20.4,4.8c-5.9-1.1-7.6-4.1-13.8-4.1
			c-6.5,0-9.2,3.5-11.9,2.2c-3.5-1.6,0.7-7.5-3.3-14.2c-0.2-0.4-4.3-6.9-11.9-7.9c-7.1-0.9-13.1,3.3-15.3,4.8
			c-10.5,7.4-9.2,16.6-14.3,39.1c-5,22.5-10.3,31.4-5.2,33.9c4.1,2.1,12.7-1.2,17.6-5.2c8.4-6.9,3.4-13.7,11.9-22.8
			c1-1.1,9.4-10,18.1-8.6c7.5,1.2,13.5,9.7,11.9,16.4c-1.9,8.5-14.5,8.5-19.1,19c-0.5,0.9-4,9.5,1.9,16.4c4.9,5.8,13.6,6.9,20.4,7.9
			c6.6,0.9,17.6,2.4,22.8-2.2c3.2-2.8,1.3-5.2,4.8-16.7c1.6-5.2,2.9-9.2,4.8-9.3c2.3-0.1,4.8,5.2,5.7,9.7c1.5,7.1-1.8,10.1,0.9,12.7
			c3.1,2.8,10.3,2.4,14.7,0.7c0.9-0.4,8.3-3,8.6-8.2c0.1-3.6-3.2-6.8-6.6-8.2c-5.7-2.3-10.5,0.6-12.9-1.5c-2.2-2,0-6.9,2.9-9.7
			c3.3-3.3,5.7-2.4,8.1-5.2c2.1-2.4,1.6-4.5,1.5-13.1c-0.1-5.9-0.2-8.7,0-9.7c1.1-6.2,6.6-9.4,16.7-16.7c11.9-8.7,3.7-3.8,25.2-20.1
			c12.8-9.7,19.2-14.5,21.9-15.6c11.4-4.8,18.7-3.2,43.8-4.1c24.9-0.9,37.3-1.4,48.6-4.8c23.5-7.2,20.5-17.3,41-23.1
			c29.7-8.5,61.9,5.4,64.8,6.7c22.6,10.1,21.9,20.9,41.9,25c17.6,3.6,22.5-4,40.5-0.7c26.9,4.9,40.3,26.3,43.4,24.6
			c2.7-1.6-9.5-18.5-12.9-23.1c-11.3-15.5-17.1-20.1-27.2-33.6c-9.6-12.9-14.5-19.4-16.7-26.4c-7.6-24.3,9.5-39.3-1.5-47.7
			c-5.4-4.2-14.2-4-28.5-3.7c-17.1,0.4-20.2,4.2-32,2.7c-10-1.4-24.4-6.5-25.7-13.8c-1.3-7,10.6-10.8,10.5-22c0-2.7-0.1-6.9-3.3-8.6
			c-2.4-1.2-6.7-1.2-34.8,11.2c-8.1,3.6-11.9,5.4-15.3,4.1c-4.1-1.6-3-6.4-9.5-12.7c-2.9-2.7-4.7-4.5-7.6-4.8
			c-6.2-0.7-8.7,6.2-18.6,10.4c-8.1,3.5-16.3,3.1-26.2,2.7c-15.6-0.7-15.2-4.2-24.8-4.1c-17.7,0.2-22.4,12.1-51,18.3
			c-7.8,1.6-12.7,1.9-16.7,0c-7.4-3.6-1.5-12.7-7.6-17.2c-9.2-6.7-30.2,7.2-41.4,0.4c-8.1-4.9-4.7-16.8-11-17.9c-4-0.6-5.8,4-11,4.1
			C194.3,210.9,188.4,192.8,183.3,193.6z"/>
		<ellipse class="st9" cx="203.3" cy="228.7" rx="16.2" ry="12.6"/>
		<ellipse class="st10" cx="493.5" cy="118.7" rx="16.2" ry="12.6"/>
		<ellipse class="st10" cx="862.5" cy="234.2" rx="16.2" ry="12.6"/>
		<ellipse class="st11" cx="756.3" cy="94.9" rx="16.2" ry="12.6"/>
		<ellipse class="st12" cx="140.6" cy="131.3" rx="16.2" ry="12.6"/>
		<ellipse class="st10" cx="245.2" cy="269.9" rx="9.1" ry="7.1"/>
		<ellipse class="st10" cx="291.6" cy="237.8" rx="9.1" ry="7.1"/>
		<ellipse class="st10" cx="327.6" cy="285.7" rx="8.6" ry="6.3"/>
		<ellipse class="st7" cx="444.3" cy="277" rx="17.2" ry="10.3"/>
		<ellipse class="st10" cx="512" cy="368.3" rx="6" ry="5.9"/>
		<ellipse class="st10" cx="252.2" cy="491.8" rx="6" ry="5.9"/>
		<ellipse class="st10" cx="646.5" cy="481.5" rx="6" ry="5.9"/>
		<ellipse class="st10" cx="909.4" cy="328" rx="6" ry="5.9"/>
		<ellipse class="st10" cx="908.4" cy="215.6" rx="6" ry="5.9"/>
		<ellipse class="st10" cx="551.5" cy="323.3" rx="8.1" ry="5.9"/>
		<ellipse class="st10" cx="551.5" cy="271.8" rx="5" ry="5.1"/>
		<ellipse class="st10" cx="635.9" cy="247.3" rx="7.5" ry="5.1"/>
		<ellipse class="st10" cx="678.8" cy="204.1" rx="6" ry="5.6"/>
		<ellipse class="st10" cx="456.4" cy="205.7" rx="6" ry="5.6"/>
		<ellipse class="st10" cx="551.9" cy="188.3" rx="5.6" ry="3.2"/>
		<ellipse class="st10" cx="613.1" cy="420.5" rx="6" ry="3.6"/>
		<ellipse class="st13" cx="717.3" cy="406.7" rx="13.5" ry="12.6"/>
		<ellipse class="st14" cx="332.6" cy="451.5" rx="14.6" ry="10.7"/>
		<ellipse class="st5" cx="135.9" cy="358.1" rx="13.1" ry="9.9"/>
		<ellipse class="st10" cx="59" cy="277.7" rx="14.2" ry="13.4"/>
	</g>
</g>
<g id="Layer_2_2_">
	<g>
		<g>
			<path class="st15" d="M481.4,491.2c1,0.9,2.1,1.7,3.1,2.5c-1,0.8-2.1,1.7-3.1,2.5"/>
			<path class="st16" d="M475,501c-44.7,32.9-100,52.4-159.8,52.4c-149.1,0-270-120.9-270-270s120.9-270,270-270
				c61.2,0,117.7,20.4,163,54.8"/>
			<path class="st15" d="M481.4,70.6c1,0.8,2.1,1.6,3.1,2.5c-1,0.8-2.1,1.7-3.1,2.5"/>
			<path class="st17" d="M475.3,80.8c-56.1,49.5-91.5,121.9-91.5,202.6c0,82.1,36.7,155.7,94.5,205.2"/>
		</g>
	</g>
	<g>
		<g>
			<path class="st15" d="M486.9,496c-1-0.8-2.1-1.6-3.1-2.5c1-0.8,2.1-1.7,3.1-2.5"/>
			<path class="st17" d="M493,485.7c56.1-49.5,91.5-121.9,91.5-202.6c0-82.1-36.7-155.7-94.5-205.2"/>
			<path class="st15" d="M486.9,75.4c-1-0.9-2.1-1.7-3.1-2.5c1-0.8,2.1-1.7,3.1-2.5"/>
			<path class="st16" d="M493.3,65.5c44.8-32.9,100-52.3,159.8-52.3c149.1,0,270,120.9,270,270s-120.9,270-270,270
				c-61.2,0-117.7-20.4-163-54.8"/>
		</g>
	</g>
	<path class="st18" d="M585.2,283.1c0,85-39.3,160.8-100.7,210.3c-61.4-49.5-100.7-125.3-100.7-210.3s39.3-160.8,100.7-210.3
		C545.9,122.2,585.2,198.1,585.2,283.1z"/>
	<g id="Layer_5">
		<g>
			<rect x="406.6" y="205.2" class="st19" width="155.7" height="155.7"/>
			<g>
				<path class="st20" d="M534.2,290.5c-1.3,1.8-2.9,3.1-4.8,4.2c-1.9,1.1-4.2,1.8-6.4,2c-2.4,0.4-4.6,0.4-6.6,0.4h-1.3
					c-0.4,0-0.9,0-1.3,0v0.4c0,1.1,0.2,2.2,0.7,3.1c0.4,0.9,0.9,1.5,1.5,2.2s1.3,1.1,2,1.3s1.5,0.4,2.2,0.4c2.2,0,4-0.4,5.5-1.5
					c1.5-0.9,2.9-2.2,3.7-3.5c2.6,1.3,4,2.9,4,4.8c0,1.1-0.2,2-0.9,2.9s-1.3,1.3-2,2c-1.1,0.9-2.6,1.5-4.4,2.2s-4.2,1.1-7,1.1
					c-2.9,0-5.3-0.4-7-1.3c-2-0.9-3.5-2-4.6-3.3s-2-3.1-2.6-4.8c-0.4-1.8-0.9-3.7-0.9-5.7c0-3.1,0.4-6.2,1.5-9
					c0.9-2.9,2.4-5.3,4.2-7.5s4-3.7,6.6-5.1s5.7-2,9-2c1.8,0,3.3,0.2,4.8,0.9c1.3,0.4,2.6,1.3,3.5,2c0.9,0.9,1.8,2,2.2,3.1
					s0.7,2.4,0.7,4C536.2,286.3,535.5,288.7,534.2,290.5 M526.1,282.5c-0.4-0.7-1.3-0.9-2.6-0.9c-2.2,0-4.2,0.9-5.5,2.6
					c-1.5,1.8-2.6,4.2-3.3,7c0.4,0,0.9,0,1.1,0h1.1c1.1,0,2.4-0.2,3.5-0.4c1.1-0.2,2.2-0.7,3.3-1.1c0.9-0.4,1.8-1.3,2.4-2
					c0.7-0.9,0.9-1.8,0.9-2.9C526.7,283.9,526.5,283,526.1,282.5 M502.4,306c1.3,2.2,2.4,4.4,3.7,5.3c-1.8,0-6.4,0-6.8,0
					c-2.4,0-4.8,0-6.8-2.6c-1.1-1.8-7.7-14.5-8.1-15.6l-2.9,17.1c0,0.7-0.4,1.1-1.1,1.1h-8.1c-0.7,0-1.1-0.4-1.1-1.1l9-53.4
					c0.7,0,3.5-0.2,4-0.2c2,0,3.5,0.4,4.4,1.5s1.1,2,1.1,3.5c0,0.2-0.2,1.8-0.2,2l-4.4,25.9c0.2-0.7,10.8-12.7,10.8-12.7
					c0.9-1.1,1.8-1.8,2.6-2.2c0.9-0.4,2-0.7,3.3-0.7s2.4,0.2,3.3,0.9c0.9,0.4,1.8,1.1,2.4,2l-13.2,14.5
					C494.2,291.3,500.8,303.6,502.4,306 M468.1,268.3c-1.8,0-2.9-0.4-3.7-1.5c-0.8-1.1-1.3-2.2-1.3-3.7c0-2.2,0.7-3.7,1.8-5.1
					c1.3-1.1,2.6-1.8,4.4-1.8c1.5,0,2.9,0.4,3.7,1.5c0.9,1.1,1.3,2.4,1.3,4c0,2-0.7,3.5-1.8,4.6
					C471.4,267.8,469.8,268.3,468.1,268.3 M465.7,274.4c2.2,0,3.5,0.4,4.6,1.5c0.9,1.1,1.5,2.2,1.3,3.7c0,0.2-0.2,1.5-0.2,1.8
					l-4.8,28.8c0,0.7-0.4,1.1-1.1,1.1h-8.1c-0.7,0-1.1-0.4-1.1-1.1l5.9-35.4C462.6,274.6,465.2,274.4,465.7,274.4 M454.9,289.6
					l-3.5,20.6c0,0.7-0.4,1.1-1.1,1.1h-8.1c-0.7,0-1.1-0.4-1.1-1.1l3.7-22V288c0-0.4,0.2-1.1,0.2-1.5c0-1.1-0.2-2.2-0.9-3.1
					c-0.4-0.9-1.5-1.3-3.3-1.3s-3.1,0.7-4.4,2c-1.1,1.1-1.8,2.6-2.2,4.2l-3.7,21.7c0,0.7-0.4,1.1-1.1,1.1h-8.1
					c-0.7,0-1.1-0.4-1.1-1.1l9-53.4c0.7,0,3.1-0.2,3.5-0.2c2.2,0,3.7,0.4,4.6,1.5c1.5,1.5,1.3,4.4,1.3,4.6s0,0.7-0.2,0.9l-2.4,14.3
					c1.1-1.1,2.4-2.2,4.2-3.1c1.5-0.9,3.5-1.3,5.9-1.3s4.2,0.4,5.7,1.5s2.4,2.4,3.1,4c0.4,1.5,0.9,3.1,0.9,5.1
					c0,0.9-0.2,1.8-0.2,2.6C455.1,287.8,454.9,288.7,454.9,289.6"/>
				<path class="st20" d="M535.3,263.2c-0.9,0-2,0.2-2.9,0.4l0,0c-1.5-5.7-6.6-9.4-12.5-9.9c-7.2-0.4-11.4,6.8-11.6,7.5
					c-6.4-3.5-13.4,1.5-13.2,10.1h0.4c0.4-9.2,8.6-11,12.3-8.8c-0.4,1.5-0.9,3.1-0.9,4.6c0,0.7,0,1.3,0.2,1.8h0.2
					c0-2.2,0.4-4.2,1.3-6.2c0.2-0.4,0.4-0.9,0.7-1.1l0,0c2.2-4,5.9-6.6,10.1-6.6c5.1,0,9.4,3.7,11.2,9l0,0c0.2,0.7,0.4,1.3,0.4,2.2
					c0.7-0.2,1.1-0.4,1.8-0.7c0.9-0.2,1.5-0.2,2.4-0.2c6.8,0,12.3,7.2,12.3,16c0,5.9-2.4,11-6.2,13.8v0.4c0,0,0.2,0,0.2-0.2
					c4.6-2.9,7.7-8.6,7.7-15.2C549.4,270.9,543,263.2,535.3,263.2"/>
			</g>
		</g>
	</g>
	<g>
		<g>
			<path class="st21" d="M188.6,318.2c0,6.9-1.7,12.2-5.2,16.2c-3.5,3.9-8.3,5.9-14.5,5.9c-6.3,0-11.2-1.9-14.6-5.8
				c-3.4-3.9-5.1-9.3-5.1-16.3s1.7-12.4,5.2-16.2c3.4-3.8,8.3-5.8,14.6-5.8c6.2,0,11,2,14.4,5.9
				C186.9,305.9,188.6,311.3,188.6,318.2z M154.5,318.2c0,5.8,1.2,10.2,3.7,13.2s6.1,4.5,10.8,4.5s8.3-1.5,10.8-4.5
				c2.4-3,3.6-7.4,3.6-13.2c0-5.8-1.2-10.1-3.6-13.1c-2.4-3-6-4.5-10.7-4.5s-8.4,1.5-10.8,4.5C155.7,308.1,154.5,312.4,154.5,318.2z
				"/>
			<path class="st21" d="M211.9,311.3h-8.2v28.3h-4.9v-28.3h-5.7v-2.2l5.7-1.8v-1.7c0-7.9,3.4-11.8,10.3-11.8c1.7,0,3.7,0.3,6,1
				l-1.3,3.9c-1.9-0.6-3.5-0.9-4.8-0.9c-1.8,0-3.2,0.6-4.1,1.8c-0.9,1.2-1.3,3.2-1.3,5.9v2.1h8.2v3.7H211.9z M232,311.3h-8.2v28.3
				H219v-28.3h-5.7v-2.2l5.7-1.8v-1.7c0-7.9,3.4-11.8,10.3-11.8c1.7,0,3.7,0.3,6,1l-1.3,3.9c-1.9-0.6-3.5-0.9-4.8-0.9
				c-1.8,0-3.2,0.6-4.1,1.8c-0.9,1.2-1.3,3.2-1.3,5.9v2.1h8.2L232,311.3L232,311.3z M243,339.6h-4.9V294h4.9V339.6z"/>
			<path class="st21" d="M252.9,298.8c0-1.1,0.3-1.9,0.8-2.4s1.2-0.8,2.1-0.8c0.8,0,1.5,0.3,2,0.8c0.6,0.5,0.8,1.3,0.8,2.4
				s-0.3,1.9-0.8,2.4c-0.6,0.5-1.2,0.8-2,0.8s-1.5-0.3-2.1-0.8C253.2,300.7,252.9,299.9,252.9,298.8z M258.2,339.6h-4.9v-32.1h4.9
				V339.6z"/>
			<path class="st21" d="M290.5,339.6v-20.8c0-2.6-0.6-4.6-1.8-5.9c-1.2-1.3-3.1-1.9-5.6-1.9c-3.4,0-5.8,0.9-7.4,2.7
				c-1.6,1.8-2.3,4.8-2.3,9v16.9h-4.9v-32.1h4l0.8,4.4h0.2c1-1.6,2.4-2.8,4.2-3.7c1.8-0.9,3.8-1.3,6-1.3c3.9,0,6.8,0.9,8.7,2.8
				c2,1.9,2.9,4.8,2.9,9v20.9H290.5z"/>
			<path class="st21" d="M318.9,340.2c-4.7,0-8.5-1.4-11.2-4.3s-4.1-6.9-4.1-12c0-5.2,1.3-9.3,3.8-12.3s6-4.6,10.3-4.6
				c4,0,7.2,1.3,9.6,4c2.3,2.6,3.5,6.1,3.5,10.5v3.1h-22.1c0.1,3.8,1,6.6,2.9,8.6c1.8,2,4.4,2.9,7.6,2.9c3.5,0,6.9-0.7,10.3-2.2v4.3
				c-1.7,0.7-3.3,1.3-4.9,1.6C322.9,340.1,321.1,340.2,318.9,340.2z M317.6,311c-2.6,0-4.6,0.8-6.2,2.5c-1.5,1.7-2.4,4-2.7,7h16.8
				c0-3.1-0.7-5.4-2.1-7C322.1,311.8,320.1,311,317.6,311z"/>
		</g>
		<path class="st22" d="M240,258.7c-4.9,0-8.9,4-8.9,8.9c0,4.9,4,8.9,8.9,8.9c4.9,0,8.9-4,8.9-8.9
			C248.9,262.7,244.9,258.7,240,258.7z M240,273c-3,0-5.4-2.4-5.4-5.4c0-3,2.4-5.4,5.4-5.4s5.4,2.4,5.4,5.4
			C245.4,270.6,243,273,240,273z M263.1,255.1l-0.6,0.6c-0.5,0.5-1.3,0.6-1.9,0.1c-11.7-10.4-29.4-10.4-41.2,0
			c-0.5,0.5-1.4,0.4-1.9-0.1l-0.6-0.6c-0.5-0.5-0.5-1.4,0.1-1.9c13.1-11.7,32.9-11.7,46,0C263.6,253.7,263.6,254.6,263.1,255.1z
			 M274.5,243.1c-0.5,0.5-1.3,0.5-1.9,0c-18.2-17.3-46.9-17.4-65.3,0c-0.5,0.5-1.4,0.5-1.9,0l-0.6-0.6c-0.5-0.5-0.5-1.4,0-1.9
			c19.7-18.7,50.5-18.6,70.2,0c0.5,0.5,0.6,1.4,0,1.9L274.5,243.1L274.5,243.1z"/>
	</g>
	<g>
		<g>
			<path class="st21" d="M681.2,317.4c0,6.9-1.7,12.2-5.2,16.2s-8.3,5.9-14.5,5.9c-6.3,0-11.2-1.9-14.6-5.8
				c-3.4-3.9-5.1-9.3-5.1-16.3s1.7-12.4,5.2-16.2s8.3-5.8,14.6-5.8c6.2,0,11,2,14.4,5.9C679.4,305.1,681.2,310.5,681.2,317.4z
				 M647,317.4c0,5.8,1.2,10.2,3.7,13.2s6.1,4.5,10.8,4.5s8.3-1.5,10.8-4.5s3.6-7.4,3.6-13.2c0-5.8-1.2-10.1-3.6-13.1
				c-2.4-3-6-4.5-10.7-4.5s-8.4,1.5-10.8,4.5C648.3,307.3,647,311.6,647,317.4z"/>
			<path class="st21" d="M712,338.8V318c0-2.6-0.6-4.6-1.8-5.9s-3.1-1.9-5.6-1.9c-3.4,0-5.8,0.9-7.4,2.7s-2.3,4.8-2.3,9v16.9H690
				v-32.1h4l0.8,4.4h0.2c1-1.6,2.4-2.8,4.2-3.7c1.8-0.9,3.8-1.3,6-1.3c3.9,0,6.8,0.9,8.7,2.8c2,1.9,2.9,4.8,2.9,9v20.9H712z"/>
			<path class="st21" d="M731.7,338.8h-4.9v-45.6h4.9V338.8z"/>
			<path class="st21" d="M741.6,298c0-1.1,0.3-1.9,0.8-2.4s1.2-0.8,2.1-0.8c0.8,0,1.5,0.3,2,0.8s0.8,1.3,0.8,2.4s-0.3,1.9-0.8,2.4
				c-0.6,0.5-1.2,0.8-2,0.8s-1.5-0.3-2.1-0.8S741.6,299.1,741.6,298z M746.8,338.8h-4.9v-32.1h4.9V338.8z"/>
			<path class="st21" d="M779.1,338.8V318c0-2.6-0.6-4.6-1.8-5.9s-3.1-1.9-5.6-1.9c-3.4,0-5.8,0.9-7.4,2.7s-2.3,4.8-2.3,9v16.9h-4.9
				v-32.1h4l0.8,4.4h0.2c1-1.6,2.4-2.8,4.2-3.7c1.8-0.9,3.8-1.3,6-1.3c3.9,0,6.8,0.9,8.7,2.8c2,1.9,2.9,4.8,2.9,9v20.9H779.1z"/>
			<path class="st21" d="M807.6,339.4c-4.7,0-8.5-1.4-11.2-4.3s-4.1-6.9-4.1-12c0-5.2,1.3-9.3,3.8-12.3s6-4.6,10.3-4.6
				c4,0,7.2,1.3,9.6,4c2.3,2.6,3.5,6.1,3.5,10.5v3.1h-22.1c0.1,3.8,1,6.6,2.9,8.6s4.4,2.9,7.6,2.9c3.5,0,6.9-0.7,10.3-2.2v4.3
				c-1.7,0.7-3.3,1.3-4.9,1.6S809.7,339.4,807.6,339.4z M806.2,310.2c-2.6,0-4.6,0.8-6.2,2.5c-1.5,1.7-2.4,4-2.7,7h16.8
				c0-3.1-0.7-5.4-2.1-7C810.7,311,808.8,310.2,806.2,310.2z"/>
		</g>
		<path class="st23" d="M730.6,259c-4.9,0-8.9,4-8.9,8.9c0,4.9,4,8.9,8.9,8.9c4.9,0,8.9-4,8.9-8.9C739.6,263,735.6,259,730.6,259z
			 M730.6,273.3c-3,0-5.4-2.4-5.4-5.4c0-3,2.4-5.4,5.4-5.4s5.4,2.4,5.4,5.4C736,270.9,733.6,273.3,730.6,273.3z M753.7,255.3
			l-0.6,0.6c-0.5,0.5-1.3,0.6-1.9,0.1c-11.7-10.4-29.4-10.4-41.2,0c-0.5,0.5-1.4,0.4-1.9-0.1l-0.6-0.6c-0.5-0.5-0.5-1.4,0.1-1.9
			c13.1-11.7,32.9-11.7,46,0C754.2,253.9,754.2,254.8,753.7,255.3z M765.1,243.4c-0.5,0.5-1.3,0.5-1.9,0
			c-18.2-17.3-46.9-17.4-65.3,0c-0.5,0.5-1.4,0.5-1.9,0l-0.6-0.6c-0.5-0.5-0.5-1.4,0-1.9c19.7-18.7,50.5-18.6,70.2,0
			c0.5,0.5,0.6,1.4,0,1.9L765.1,243.4L765.1,243.4z"/>
	</g>
</g>
</svg>
