<?xml version="1.0" encoding="utf-8"?>
<!-- Generator: Adobe Illustrator 21.1.0, SVG Export Plug-In . SVG Version: 6.00 Build 0)  -->
<svg version="1.1" id="Layer_3" xmlns="http://www.w3.org/2000/svg" xmlns:xlink="http://www.w3.org/1999/xlink" x="0px" y="0px"
	 width="90px" height="72px" viewBox="0 0 90 72" enable-background="new 0 0 90 72" xml:space="preserve">
<g>
	<g>
		<circle fill="#32BDB9" cx="59.5" cy="16.7" r="1.7"/>
	</g>
</g>
<g>
	<g>
		<path fill="#32BDB9" d="M71.5,16.1c-2.5,0-4.7,0.2-6.9-1.9l-2.7-2.7c-1.2-1.2-2.9-1.9-4.7-1.9h-7.7l0,0c-1.8,0-3.4,0.7-4.7,1.9
			l0,0l-5.2,5.2c-1.1,1.1-1.7,2.5-1.7,4v1.7c0,3.1,2.5,6.4,5.6,6.8c0.3,0.1,0.7,0.1,1,0.1v0.4c-5.4,3.1-16.6,9.4-18.8,11.6
			c-1.8,1.9-3.2,4.8-3.2,7.8c0,1.3,0.2,2.7,0.9,4.4h-6.5c-1.8,0-3.3,1.5-3.3,3.3s1.5,3.3,3.3,3.3h27.5c1.6,0,2.8-1.8,2-3.2
			c-0.7-1.3-1.8-2.3-3.2-2.9c0.8-1.5,1.2-2.8,3.1-2.8H49V58c0,1.2,1,2.2,2.2,2.2h8.2c1.7,0,2.8-1.8,1.9-3.3c-1-1.7-2.8-3-4.9-3.2
			l0.5-3.9c2.6-1.6,4.6-4.3,5.1-7.4c0.8-4.4-1.1-8.3-4.2-10.7v-4.5h6.6c2.4,0,5.4-1.7,6.7-3.8c0.5-0.9,2.7-4,2.7-5
			C73.7,17.2,72.8,16.1,71.5,16.1z M44.6,27.1c-2.7,0-4.4-2.3-4.4-4.6v-1.8c0-0.9,0.3-1.8,1-2.5l5.2-5.2c0.7-0.7,1.6-1.2,2.6-1.3v11
			C49,25.1,47.1,27.1,44.6,27.1z M17.1,58c-0.6,0-1.1-0.5-1.1-1.1s0.5-1.1,1.1-1.1c8,0,6,0,7.8,0c0.8,1.1,0.9,1.3,2.2,2.2
			C27.1,58,17.1,58,17.1,58z M69.2,22.2c-0.9,1.5-3,2.7-4.8,2.7h-5.6c-1.4,0-2.6-0.9-3.1-2.2h-2.3c0.3,1.4,1.1,2.6,2.2,3.4v6.6
			c3.2,2.4,5,5.1,4.3,9.2c-0.6,3.2-2.5,5-5,6.5c-0.5,4.2-0.7,5.5-0.9,7.2c2.2,0.3,4.2,0.3,5.4,2.4c-4.6,0-3.6,0-8.2,0
			c0-5.3,0-5.7,0-11H49v2.2c-0.6,0-1,0-2.5,0c-0.7,0-1.3,0.2-1.9,0.4c0.1-3-1-6-3.2-8.2L39.8,43c3.3,3.3,3.1,8.1,1.2,11l-0.7,1.3
			c1.7,0.7,3.4,1.2,4.2,2.8h-11c-4.9,0-8.7-3.9-8.8-8.7c0-2.6,1.1-5.4,3.6-7.2s15.8-9.6,18.4-11.1c0-0.6,0-1.5,0-2.1
			c2.6-0.9,4.4-3.3,4.4-6.2v-11h6.1c1.2,0,2.3,0.5,3.1,1.3l2.7,2.7c1.6,1.6,3.6,2.4,5.8,2.5c0.2,0.8,0.8,1.5,1.5,1.9L69.2,22.2z"/>
	</g>
</g>
</svg>
