<?xml version="1.0" encoding="utf-8"?>
<!-- Generator: Adobe Illustrator 21.1.0, SVG Export Plug-In . SVG Version: 6.00 Build 0)  -->
<svg version="1.1" id="Layer_1" xmlns="http://www.w3.org/2000/svg" xmlns:xlink="http://www.w3.org/1999/xlink" x="0px" y="0px"
	 width="40px" height="40px" viewBox="0 0 40 40" style="enable-background:new 0 0 40 40;" xml:space="preserve">
<style type="text/css">
	.st0{fill:#32BDB9;}
</style>
<path class="st0" d="M35.7,39.7C16.2,39.7,0.3,23.8,0.3,4.3c0-1,0.7-1.9,1.7-2.1l7.9-1.8c0.2,0,0.3-0.1,0.5-0.1c0.9,0,1.6,0.5,2,1.3
	l3.6,8.5c0.4,0.9,0.1,1.9-0.6,2.5l-4.4,3.6l0.1,0.2c2.7,5.5,7.2,9.9,12.6,12.6l0.2,0.1l3.6-4.4c0.4-0.5,1-0.8,1.7-0.8
	c0.3,0,0.6,0.1,0.8,0.2l8.5,3.6c1,0.4,1.5,1.4,1.2,2.5L37.8,38C37.6,39,36.7,39.7,35.7,39.7z M2.2,4.1l0,0.2
	c0,18.4,15.1,33.5,33.5,33.5l0.2,0l1.9-8.3L29,25.8l-4.6,5.7c-7.8-3.7-12.1-8-15.8-15.8l5.7-4.6l-3.8-8.8L2.2,4.1z"/>
</svg>
