<?xml version="1.0" encoding="utf-8"?>
<!-- Generator: Adobe Illustrator 21.1.0, SVG Export Plug-In . SVG Version: 6.00 Build 0)  -->
<svg version="1.1" id="Layer_1" xmlns="http://www.w3.org/2000/svg" xmlns:xlink="http://www.w3.org/1999/xlink" x="0px" y="0px"
	 width="29.8px" height="40px" viewBox="0 0 29.8 40" style="enable-background:new 0 0 29.8 40;" xml:space="preserve">
<style type="text/css">
	.st0{fill:#32BDB9;}
</style>
<path class="st0" d="M14,40v-7.7l-0.3,0C7.3,31.7,2.5,26.4,2.5,20v-0.3h-1C0.7,19.7,0,19,0,18.1v-3.8c0-0.9,0.7-1.6,1.6-1.6h26.7
	c0.9,0,1.6,0.7,1.6,1.6v3.8c0,0.9-0.7,1.6-1.6,1.6h-1V20c0,6.4-4.8,11.7-11.1,12.3l-0.3,0V40H14z M4.4,20c0,5.8,4.7,10.5,10.5,10.5
	S25.4,25.8,25.4,20v-2.2H28v-3.2H1.9v3.2h2.5V20z M21.6,10.8V0.9C21.6,0.4,22,0,22.5,0c0.5,0,0.9,0.4,0.9,0.9v9.8H21.6z M6.4,10.8
	V0.9C6.4,0.4,6.8,0,7.3,0s0.9,0.4,0.9,0.9v9.8H6.4z"/>
</svg>
