<?xml version="1.0" encoding="utf-8"?>
<!-- Generator: Adobe Illustrator 21.1.0, SVG Export Plug-In . SVG Version: 6.00 Build 0)  -->
<svg version="1.1" id="Layer_1" xmlns="http://www.w3.org/2000/svg" xmlns:xlink="http://www.w3.org/1999/xlink" x="0px" y="0px"
	 width="970px" height="554.7px" viewBox="0 0 970 554.7" style="enable-background:new 0 0 970 554.7;" xml:space="preserve">
<style type="text/css">
	.st0{opacity:0.6;}
	.st1{opacity:0.5;fill:#EFF7FE;enable-background:new    ;}
	.st2{opacity:0.15;fill:#DFE6EA;enable-background:new    ;}
	.st3{opacity:0.45;fill:#E1F5FB;enable-background:new    ;}
	.st4{opacity:0.3;fill:#D1F0EF;enable-background:new    ;}
	.st5{opacity:0.5;fill:#D1F0EF;enable-background:new    ;}
	.st6{opacity:0.5;fill:#DCE8EF;enable-background:new    ;}
	.st7{opacity:0.2;fill:#FCC8CE;enable-background:new    ;}
	.st8{opacity:0.6;fill:#D5F1F1;enable-background:new    ;}
	.st9{opacity:0.6;fill:#BBE9F9;enable-background:new    ;}
	.st10{fill:#F1FAFA;}
	.st11{opacity:0.2;fill:#FCB9C6;enable-background:new    ;}
	.st12{fill:#FCFDFF;}
	.st13{opacity:0.1;fill:#1DD4FF;enable-background:new    ;}
	.st14{opacity:0.2;fill:#A2EAE0;enable-background:new    ;}
	.st15{fill:#FFFFFF;stroke:#A0A7AF;stroke-width:1.5;stroke-miterlimit:10;stroke-dasharray:4;}
	.st16{fill:#FFFFFF;stroke:#3690D7;stroke-width:1.5;stroke-miterlimit:10;stroke-dasharray:4;}
	.st17{fill:#FFFFFF;stroke:#FF7D0A;stroke-width:1.5;stroke-miterlimit:10;stroke-dasharray:4;}
	.st18{fill:#FFFFFF;stroke:#46D000;stroke-width:1.5;stroke-miterlimit:10;stroke-dasharray:4;}
	.st19{fill:none;stroke:#347EC0;stroke-width:1.5;stroke-miterlimit:10;stroke-dasharray:4;}
	.st20{fill:#FBEEDC;stroke:#FF7D0A;stroke-miterlimit:10;}
	.st21{fill:#D4ECFF;stroke:#3690D7;stroke-miterlimit:10;}
	.st22{fill:#E8FFCB;stroke:#46D000;stroke-miterlimit:10;}
	.st23{fill:#347EC0;}
	.st24{fill:#FFFFFF;stroke:#A0A7AF;stroke-width:1.5;stroke-miterlimit:10;}
</style>
<g>
	<g id="Layer_2">
		<g class="st0">
			<ellipse class="st1" cx="307.5" cy="294.9" rx="284.2" ry="221.1"/>
			<ellipse class="st2" cx="575.9" cy="172.1" rx="201.9" ry="157.1"/>
			<ellipse class="st3" cx="681.6" cy="305.9" rx="277.5" ry="215.9"/>
			<path class="st4" d="M290.7,365.9c4.3-2.8,14.1,0.2,26.7,3.9c9,2.7,13.5,5.2,22.6,5.7c4.8,0.3,12,0.7,14.3-2.2
				c4.5-5.5-12.9-20.2-12.4-20.4c0.5-0.3,19.4,22.3,28.6,19.7c2.2-0.6,3.8-3.2,6.9-8.2c4.2-6.8,3.1-8.5,6-10.8
				c4.9-3.7,9.9-0.4,18.4-3.2c8.6-2.9,7.5-7.5,17.1-12.9c6.2-3.5,12-4.5,21.2-6.1c18.8-3.3,21.5,0.7,30.9-2.9
				c10.4-4,7.9-9.3,21.2-16.9c7.3-4.1,13.7-5.8,24.4-8.6c10.8-2.8,18.5-3.7,32.3-5.4c27.8-3.3,34.6-1.6,38.3-0.4
				c6.4,2.2,6.2,3.8,12.4,6.5c14.2,6,26.2,2.2,42.4,1.8c22.8-0.5,40.5,6.2,59.9,13.6c10.2,3.9,5.1,2.9,36.9,17.6
				c21.2,9.8,25.2,11,33.2,16.5c8.9,6.1,18.7,12.9,24.4,24c3.6,6.9,3,10.6,9.2,21.5c5,8.7,8.2,11.5,11.1,13.3
				c5.7,3.6,9,2.9,12.4,6.5c5.1,5.2,5,14.1,0.5,16.1c-3,1.3-7.3-0.4-9.2-1.1c-5.9-2.3-5.4-5.2-11.1-8.2c-1-0.6-8.5-4.5-16.6-2.9
				c-0.9,0.2-8.1,1.7-8.8,4.7c-1.5,7.1,37,10.2,43.8,27.6c2.5,6.5,0.4,14.4-4.1,19.7c-8.2,9.4-22,8.2-26.3,16.9
				c-3.2,6.3,1.2,13.1,2.3,14.7c8.9,13.7,37.9,20.9,57.2,14.3c11.7-4,23.1-14.1,35-24.7c5.4-4.8,8.7-8.3,14.8-9
				c9.7-1.1,21.7,5.6,24.4,13.3c4.4,12.6-16.6,27.7-31.8,34.8c-16.9,7.8-37.6,8.1-78.4,8.2c-33.5,0.1-50.5,0.1-62.2-6.5
				c-13.3-7.4-25.7-21.8-31.3-28.3c-9.5-11-12.9-18-22.6-19.7c-10.1-1.8-21.1,3.2-23.5,4.3c-7,3.2-6.3,5-12.4,8.2
				c-15.2,8-31.3,3-33.7,7.9c-1.5,3.1,3.6,7.6,8.8,12.2c6.8,6,10.7,6.4,11.1,9.3c0.7,5-9.2,12.4-19.4,12.6
				c-12.6,0.2-15.2-10.9-30.4-13.6c-3.1-0.5-9-1.2-32.3,6.5c-31.3,10.3-30.1,14.6-45.6,17.2c-17.4,3-32.9,0-48.4-2.9
				c-21-4-21.2-7.5-36.9-9c-21.7-2-24.1,4.6-43.8,2.9c-13.5-1.2-25.3-6.3-48.9-16.5c-19.5-8.5-20.9-10.6-29.5-14
				c-27.3-10.8-46-2.4-90.3-1.8c-32.5,0.4-80.8,1-96.8-19.7c-8.1-10.5-8.2-26.8,1.8-35.9c11.3-10.3,28.3-4.7,84.4-8.6
				c45.8-3.2,57.9-8.4,65.5-15.4c10.3-9.5,11.9-21.7,12.4-25.5C299.6,384.8,283.7,370.4,290.7,365.9z"/>
			<path class="st5" d="M329.4,456.7c4.3,2.8,14.1-0.2,26.7-4c9-2.7,13.5-5.2,22.6-5.8c4.8-0.3,12-0.7,14.3,2.1
				c4.5,5.5-12.8,20.2-12.4,20.5c0.5,0.3,19.4-22.3,28.5-19.8c2.3,0.6,3.8,3.2,6.9,8.2c4.2,6.8,3.1,8.5,6,10.8
				c4.9,3.7,9.9,0.4,18.4,3.2c8.6,2.8,7.5,7.5,17.1,12.9c6.2,3.5,12,4.5,21.2,6.1c18.8,3.2,21.5-0.7,30.9,2.8
				c10.4,4,7.9,9.2,21.2,16.8c7.3,4.1,13.8,5.8,24.4,8.6c10.8,2.8,18.5,3.7,32.3,5.3c27.8,3.3,34.6,1.6,38.3,0.3
				c6.4-2.2,6.2-3.8,12.4-6.5c14.2-6,26.2-2.2,42.4-1.8c22.8,0.5,40.5-6.3,59.9-13.7c10.2-3.9,5.1-2.9,36.8-17.6
				c21.2-9.8,25.2-11.1,33.2-16.5c8.9-6.2,18.7-12.9,24.4-24.1c3.5-6.9,3-10.6,9.2-21.5c4.9-8.7,8.2-11.5,11-13.3
				c5.7-3.7,9-2.9,12.4-6.5c5.1-5.2,5-14.1,0.4-16.1c-3-1.3-7.3,0.4-9.2,1.1c-5.9,2.3-5.4,5.2-11,8.3c-1,0.6-8.5,4.6-16.6,2.9
				c-0.9-0.2-8.1-1.7-8.8-4.7c-1.5-7.1,37-10.3,43.7-27.7c2.5-6.5,0.4-14.4-4.2-19.7c-8.2-9.4-22-8.2-26.3-16.8
				c-3.2-6.3,1.2-13.1,2.3-14.7c8.9-13.7,37.9-21,57.1-14.4c11.7,4,23.1,14.1,35.1,24.7c5.4,4.8,8.7,8.3,14.8,8.9
				c9.7,1.1,21.7-5.6,24.4-13.3c4.4-12.7-16.6-27.7-31.9-34.7c-17-7.8-37.7-8-78.4-8.1c-33.5-0.1-50.5,0-62.2,6.5
				c-13.3,7.4-25.7,21.8-31.3,28.4c-9.5,11.1-12.9,18-22.5,19.8c-10.1,1.8-21.1-3.2-23.5-4.3c-7-3.2-6.3-5-12.5-8.2
				c-15.2-8-31.3-2.9-33.7-7.8c-1.5-3.1,3.6-7.6,8.7-12.2c6.7-6,10.6-6.4,11-9.3c0.7-5-9.3-12.4-19.4-12.5
				c-12.6-0.2-15.2,10.9-30.4,13.7c-3.1,0.6-9,1.2-32.3-6.4c-31.3-10.2-30.1-14.5-45.7-17.2c-17.4-3-32.9,0-48.4,2.9
				c-21,4-21.2,7.5-36.9,9c-21.7,2-24.1-4.5-43.8-2.8c-13.5,1.2-25.3,6.3-48.8,16.6c-19.5,8.5-20.9,10.6-29.5,14
				c-27.3,10.9-46,2.4-90.3,1.9c-32.5-0.4-80.8-0.9-96.8,19.9c-8.1,10.5-8.1,26.8,1.9,35.9c11.4,10.2,28.3,4.7,84.4,8.5
				c45.8,3.1,57.9,8.4,65.5,15.3c10.3,9.4,12,21.7,12.5,25.4C338.3,437.8,322.4,452.2,329.4,456.7z"/>
			<path class="st6" d="M113.5,92.6c-3.7-1.3-3-7-8.8-8.4c-4.5-1.1-8.4,1.5-10.1,0c-2-1.7,2.6-5.4,0.3-8.6c-1.5-2.2-5.3-2.8-6.8-3
				c-6.2-1-9.4,1.9-11.7,0.5c-2.8-1.7,1.6-6.3-1.6-11.2c-1.5-2.3-4.8-4.6-8.8-4.8c-4.4-0.2-8.3,2.3-10.1,4.8
				c-2.6,3.6,0.4,5.4-1.6,10.6c-1.6,4.1-4.1,4.3-5.9,8.4c-1.9,4.2-0.9,7.8-0.3,10.6c2.4,12.7-2,27.5-5.9,27.9
				c-2.4,0.2-5.4-4.9-6.8-7.3c-2.7-4.6-2.8-7.7-4.6-7.9c-1.9-0.2-4,3-4.9,4.8c-2.3,4.7-2.1,11.7,3.3,15.5c4,2.8,7.7,1.5,8.8,3.5
				c1.8,3.4-7.7,7.1-11.1,17c-1.1,3.3-1.4,6.8,0,7.3c2.2,0.7,6.5-5.9,10.4-5.1c2.4,0.5,1.7,3.1,4.9,5.1c4.2,2.6,8.4,0.1,12.7,2
				c3.9,1.8,3.2,5.1,6.2,11.9c1.7,3.9,4.7,7.6,10.7,15.2c8.1,10.1,9,9.2,11.4,13.9c3.3,6.7,1.9,9.6,6.2,12.9
				c4.5,3.4,8.5,2.3,11.1,5.6c2.8,3.6,0.9,8.7-1.3,11.7c-2.7,3.6-8.3,5.6-19.5,9.4c-12.4,4.2-16.7,4.3-18.6,4.3c-3.5,0-9.4,0-13.7-3
				c-3.2-2.3-2.5-4.1-6.2-11.2c-3.3-6.4-4.9-9.5-8.5-11.4c-5.1-2.7-13-2.6-18.6-0.3C5.4,217,3.8,225.9,0.7,243.7
				c-1.6,9.1-0.7,10.7,0.7,11.7c3,2.1,8.2,0.8,33.6-3c5-0.8,8.1-1.2,11.4,0c7,2.5,9.1,9.9,9.8,12.2c1.2,4.1,0.2,5.2,0.7,12.7
				c0.4,5.7,0.6,8.8,1.6,11.7c3.2,8.5,12,8.3,25.1,19.5c5.8,5,11.5,9.9,13.7,17.5c2.4,8.2-0.2,16.1-1.6,19.5
				c-3.6,8.7-8.6,10.4-7.2,14.2c2.5,6.8,21.5,10.5,27,6.1c2.8-2.2,0.3-4.9,3.3-7.9c4.2-4.2,15.8-5.2,22.5-1.5
				c2.3,1.3,4.5,3.3,9.1,21.3c3.2,12.2,3.3,15.8,7.8,18.5c4.8,2.9,11.2,2.7,16,2.5c7.4-0.2,9.2-1.9,17.9-3.3c10.4-1.7,12.4,0,20.8-1
				c8.4-1,9.2-3,24.1-8.6c22.2-8.3,24.8-5.5,36.2-11.9c2.7-1.5,8.3-5,16.9-8.6c5.2-2.2,8.3-3.1,9.8-3.5c2.6-0.8,8.4-2.3,16-2.8
				c9.4-0.5,11.5,1.2,14.3-0.5c4.2-2.6,0.6-7.3,5.2-11.2c3.4-2.9,9.1-3.5,13-3c4.2,0.5,4.8,2,14,6.6c6.6,3.3,9.8,4.9,13,5.3
				c6,0.8,8.6-1,13.7,0.8c3.7,1.3,3.2,2.7,6.5,3.5c3.8,1,5.9-0.3,13.7-1.3c8.3-1,8.1,0.3,10.7-0.8c5.8-2.4,3.8-7.9,10.4-13.7
				c4.5-3.9,6.4-2.4,9.4-5.3c7.9-7.7-5.3-18.2,1.3-31.4c2.7-5.3,7.5-8.9,10.4-11.2c9.9-7.4,16.9-6.5,21.2-12.7
				c2.9-4.3,3.6-10.6,0.3-15.2c-4.2-6-12.6-5.7-14.3-11.4c-1.3-4.2,2.5-6.8,0.3-8.9c-3.2-3-13.9-0.2-15.3,0.3
				c-11.7,3.3-15.1,9.6-19.9,8.4c-4.5-1.2-5.2-7.8-5.2-8.1c-0.4-4.8,2.8-7.2,7.2-13.9c2-3.1,6.7-10.4,8.1-19
				c0.9-5.5,2.1-12-2.6-15.2c-4.8-3.3-10.7,0.4-16.3-2.8c-5-2.9-2.1-7-6.5-16.5c-4.1-8.8-11-14.9-13.7-17.2
				c-6.5-5.6-7.8-4.4-10.4-7.9c-2.5-3.4-3.4-7.4,0-25.1c2.7-14.1,4.2-16.6,1.6-19c-2.5-2.2-6-1.9-28-1.3c-18.8,0.6-25,0.6-30.3-2.8
				c-4.8-3.1-6.3-7.4-6.5-8.1c-2.8-8.4,5.9-12.8,2.9-19.5c-2-4.6-8.7-8.7-14-8.1c-6.8,0.7-6.6,8.4-17.6,14.2
				c-6.1,3.2-14,4.9-15.6,3.3c-2.7-2.7,12.8-12.5,9.4-17.2c-2.6-3.6-14.2-1.9-15.3-1.8c-14.7,2.2-16.8,10-28.7,14.4
				c-18.6,6.9-42-1.8-51.5-5.3c-20.4-7.6-20.8-15.1-31.6-15C138,65.9,122.5,95.7,113.5,92.6z"/>
			<path class="st7" d="M784.8,44.3c4.5-1.5,3.7-8.5,10.8-10.3c5.5-1.3,10.3,1.8,12.4,0c2.4-2.1-3.2-6.6-0.4-10.6
				c1.9-2.7,6.5-3.4,8.4-3.7c7.6-1.2,11.6,2.3,14.4,0.6c3.4-2.1-1.9-7.8,2-13.7c1.9-2.8,5.9-5.7,10.8-5.9c5.4-0.2,10.2,2.8,12.4,5.9
				c3.1,4.4-0.5,6.7,2,13.1c2,5.1,5,5.3,7.2,10.3c2.3,5.2,1.1,9.6,0.4,13.1c-2.9,15.6,2.5,33.8,7.2,34.2c2.9,0.3,6.6-6,8.4-9
				c3.4-5.7,3.4-9.4,5.6-9.6c2.3-0.2,4.9,3.7,6,5.9c2.8,5.7,2.5,14.4-4,19c-4.9,3.4-9.4,1.8-10.8,4.4c-2.2,4.1,9.4,8.8,13.6,20.8
				c1.4,4,1.8,8.4,0,9c-2.6,0.9-8-7.2-12.8-6.2c-2.9,0.6-2.1,3.8-6,6.2c-5.1,3.2-10.3,0.1-15.6,2.5c-4.8,2.2-3.9,6.3-7.6,14.6
				c-2.1,4.7-5.8,9.4-13.2,18.7c-9.9,12.4-11.1,11.3-14,17.1c-4.1,8.3-2.3,11.8-7.6,15.9c-5.5,4.2-10.5,2.8-13.6,6.8
				c-3.4,4.4-1.1,10.6,1.6,14.3c3.3,4.4,10.2,6.9,24,11.5c15.2,5.1,20.5,5.3,22.8,5.3c4.4,0,11.5,0,16.8-3.7c3.9-2.8,3.1-5,7.6-13.7
				c4-7.8,6.1-11.7,10.4-14c6.2-3.3,15.9-3.2,22.8-0.3c10.7,4.5,12.6,15.5,16.4,37.3c1.9,11.2,0.9,13.2-0.8,14.3
				c-3.6,2.5-10.1,1-41.2-3.7c-6.1-0.9-9.9-1.5-14,0c-8.6,3-11.2,12.2-12,14.9c-1.5,5-0.2,6.4-0.8,15.6c-0.4,7-0.7,10.8-2,14.3
				c-4,10.5-14.7,10.2-30.8,24c-7.2,6.2-14.1,12.1-16.8,21.5c-2.9,10.1,0.3,19.8,2,24c4.4,10.7,10.5,12.7,8.8,17.4
				c-3.1,8.4-26.4,12.9-33.2,7.5c-3.4-2.7-0.4-6-4-9.6c-5.2-5.2-19.4-6.4-27.6-1.9c-2.8,1.5-5.5,4.1-11.2,26.1
				c-3.9,15-4.1,19.4-9.6,22.7c-5.9,3.5-13.7,3.3-19.6,3.1c-9-0.3-11.3-2.3-22-4c-12.7-2-15.3,0-25.6-1.2
				c-10.3-1.3-11.3-3.7-29.6-10.6c-27.2-10.2-30.4-6.7-44.4-14.6c-3.3-1.9-10.2-6.1-20.8-10.6c-6.4-2.7-10.2-3.9-12-4.4
				c-3.3-0.9-10.3-2.9-19.6-3.4c-11.5-0.7-14.1,1.5-17.6-0.6c-5.2-3.2-0.7-8.9-6.4-13.7c-4.2-3.5-11.2-4.3-16-3.7
				c-5.1,0.6-5.9,2.5-17.2,8.1c-8.1,4-12.1,6-16,6.5c-7.4,1-10.6-1.3-16.8,0.9c-4.6,1.6-3.9,3.3-8,4.4c-4.7,1.3-7.3-0.4-16.8-1.6
				c-10.1-1.2-10,0.4-13.2-0.9c-7.2-3-4.7-9.7-12.8-16.8c-5.5-4.8-7.9-2.9-11.6-6.5c-9.6-9.4,6.5-22.4-1.6-38.6
				c-3.3-6.6-9.2-11-12.8-13.7c-12.2-9.1-20.8-7.9-26-15.6c-3.6-5.2-4.4-13-0.4-18.7c5.2-7.4,15.4-7,17.6-14
				c1.6-5.2-3.1-8.3-0.4-10.9c3.9-3.7,17-0.2,18.8,0.3c14.4,4,18.6,11.8,24.4,10.3c5.5-1.4,6.4-9.6,6.4-10c0.5-5.9-3.4-8.8-8.8-17.1
				c-2.5-3.8-8.2-12.7-10-23.3c-1.1-6.7-2.5-14.7,3.2-18.7c5.9-4.1,13.2,0.5,20-3.4c6.1-3.5,2.6-8.5,8-20.2
				c5-10.8,13.5-18.3,16.8-21.2c7.9-6.9,9.6-5.4,12.8-9.6c3.1-4.2,4.2-9.1,0-30.8c-3.3-17.3-5.2-20.4-2-23.3c3-2.8,7.4-2.4,34.4-1.6
				c23.1,0.7,30.7,0.8,37.2-3.4c5.9-3.8,7.7-9.1,8-10c3.4-10.3-7.2-15.7-3.6-24c2.4-5.6,10.6-10.7,17.2-10
				c8.3,0.9,8.1,10.3,21.6,17.4c7.5,4,17.2,6.1,19.2,4c3.3-3.3-15.8-15.3-11.6-21.2c3.1-4.4,17.4-2.4,18.8-2.2
				c18,2.7,20.6,12.3,35.2,17.7c22.8,8.4,51.6-2.2,63.2-6.5c25.1-9.3,25.5-18.6,38.8-18.4C754.7,11.4,773.7,48.1,784.8,44.3z"/>
			<path class="st8" d="M181.3,190.8c-3,0.5-1.2,7.1-7.6,16.6c-3.4,5.1-5,4.7-7.1,8.5c-4,7.1-0.5,11.9,0.5,22.4
				c1,10.9-1.2,24.4-5.7,25c-3.9,0.5-8.8-10.7-9.9-10.3c-1.4,0.4,10.3,14.8,4.7,28c-4,9.3-14.9,13.8-12.8,16.6
				c2,2.6,11.3-1.6,20.8,2.6c3.1,1.4,5.1,3.4,9,7.4c5.8,6,7.7,9.7,11.8,15.5c2.8,3.9,2.3,2.6,14.2,16.2c7.8,8.9,11.8,13.4,15.1,18
				c7.4,10.1,11.1,15.1,10.4,19.9c-1.4,9.3-13.6,15-19.9,18c-6.2,2.9-12.9,6.1-20.3,4.8c-5.8-1-7.6-4.1-13.7-4
				c-6.5,0-9.1,3.4-11.8,2.2c-3.5-1.6,0.7-7.4-3.3-14c-0.2-0.4-4.3-6.7-11.8-7.7c-7-0.9-13,3.3-15.1,4.8
				c-10.4,7.3-9.2,16.3-14.2,38.6c-5,22.2-10.2,30.9-5.2,33.5c4.1,2.1,12.6-1.2,17.5-5.2c8.4-6.8,3.4-13.6,11.8-22.4
				c1-1.1,9.3-9.8,18-8.5c7.5,1.2,13.3,9.5,11.8,16.2c-1.9,8.4-14.4,8.4-18.9,18.8c-0.4,0.9-3.9,9.4,1.9,16.2
				c4.9,5.7,13.4,6.8,20.3,7.7c6.6,0.9,17.5,2.3,22.7-2.2c3.2-2.8,1.2-5.1,4.7-16.6c1.6-5.2,2.8-9.1,4.7-9.2
				c2.2-0.1,4.8,5.2,5.7,9.6c1.4,7.1-1.8,9.9,0.9,12.5c3,2.8,10.2,2.3,14.7,0.7c0.9-0.3,8.3-2.9,8.5-8.1c0.2-3.5-3.1-6.7-6.6-8.1
				c-5.7-2.3-10.5,0.7-12.8-1.5c-2.2-2,0-6.7,2.8-9.6c3.2-3.2,5.6-2.4,8-5.2c2.1-2.3,1.6-4.4,1.4-12.9c-0.1-5.7-0.2-8.6,0-9.6
				c1.1-6.1,6.6-9.3,16.6-16.6c11.7-8.6,3.6-3.8,25.1-19.9c12.7-9.5,19.1-14.3,21.8-15.5c11.3-4.8,18.6-3.1,43.5-4
				c24.7-0.9,37-1.4,48.2-4.8c23.3-7.1,20.4-17.1,40.7-22.8c29.4-8.4,61.4,5.3,64.3,6.6c22.4,9.9,21.8,20.7,41.6,24.7
				c17.5,3.5,22.3-4,40.2-0.7c26.8,4.9,40,26,43,24.3c2.8-1.6-9.4-18.3-12.8-22.8c-11.2-15.3-17-19.9-27-33.1
				c-9.6-12.8-14.3-19.2-16.6-26.1c-7.6-24,9.4-38.8-1.4-47.1c-5.4-4.1-14.1-3.9-28.4-3.7c-17,0.3-20.1,4.1-31.7,2.6
				c-10-1.3-24.2-6.4-25.5-13.6c-1.3-7,10.5-10.6,10.4-21.7c0-2.7-0.1-6.9-3.3-8.5c-2.3-1.1-6.7-1.2-34.5,11c-8,3.5-11.8,5.3-15.1,4
				c-4.1-1.6-2.9-6.3-9.5-12.5c-2.8-2.7-4.7-4.4-7.6-4.8c-6.2-0.7-8.6,6.1-18.4,10.3c-8,3.4-16.2,3-26,2.6
				c-15.5-0.7-15.1-4.1-24.6-4c-17.6,0.2-22.2,11.9-50.6,18c-7.7,1.7-12.5,1.9-16.6,0c-7.4-3.5-1.5-12.6-7.6-16.9
				c-9.2-6.6-30.1,7.1-41.1,0.4c-8-4.9-4.7-16.6-10.9-17.7c-3.9-0.7-5.8,4-10.9,4C192.2,207.8,186.4,190,181.3,190.8z"/>
			<ellipse class="st9" cx="201.2" cy="225.4" rx="16.1" ry="12.5"/>
			<ellipse class="st10" cx="489.3" cy="116.9" rx="16.1" ry="12.5"/>
			<ellipse class="st10" cx="855.7" cy="230.9" rx="16.1" ry="12.5"/>
			<ellipse class="st11" cx="750.3" cy="93.4" rx="16.1" ry="12.5"/>
			<ellipse class="st12" cx="138.9" cy="129.4" rx="16.1" ry="12.5"/>
			<ellipse class="st10" cx="242.7" cy="266.1" rx="9" ry="7"/>
			<ellipse class="st10" cx="288.8" cy="234.4" rx="9" ry="7"/>
			<ellipse class="st10" cx="324.5" cy="281.7" rx="8.5" ry="6.2"/>
			<ellipse class="st7" cx="440.4" cy="273.1" rx="17.1" ry="10.2"/>
			<ellipse class="st10" cx="507.7" cy="363.3" rx="6" ry="5.9"/>
			<ellipse class="st10" cx="249.7" cy="485.1" rx="6" ry="5.9"/>
			<ellipse class="st10" cx="641.2" cy="475" rx="6" ry="5.9"/>
			<ellipse class="st10" cx="902.2" cy="323.5" rx="6" ry="5.9"/>
			<ellipse class="st10" cx="901.2" cy="212.6" rx="6" ry="5.9"/>
			<ellipse class="st10" cx="546.8" cy="318.8" rx="8" ry="5.9"/>
			<ellipse class="st10" cx="546.8" cy="268" rx="5" ry="5.1"/>
			<ellipse class="st10" cx="630.7" cy="243.8" rx="7.5" ry="5.1"/>
			<ellipse class="st10" cx="673.3" cy="201.2" rx="6" ry="5.5"/>
			<ellipse class="st10" cx="452.5" cy="202.8" rx="6" ry="5.5"/>
			<ellipse class="st10" cx="547.3" cy="185.6" rx="5.5" ry="3.1"/>
			<ellipse class="st10" cx="608.1" cy="414.8" rx="6" ry="3.5"/>
			<ellipse class="st13" cx="711.5" cy="401.2" rx="13.3" ry="12.5"/>
			<ellipse class="st14" cx="329.5" cy="445.3" rx="14.6" ry="10.5"/>
			<ellipse class="st5" cx="134.2" cy="353.1" rx="13.1" ry="9.8"/>
			<ellipse class="st10" cx="57.9" cy="273.9" rx="14.1" ry="13.3"/>
		</g>
	</g>
	<g>
		<path class="st15" d="M497.1,17.8c54.6,0,98.8,44.3,98.8,98.8s-44.3,98.8-98.8,98.8s-98.8-44.3-98.8-98.8l0,0
			C398.3,62.1,442.5,17.8,497.1,17.8z"/>
		<path class="st16" d="M497.8,355c42.8,0,77.4,34.7,77.4,77.4s-34.7,77.4-77.4,77.4s-77.4-34.7-77.4-77.4
			C420.4,389.6,455.1,355,497.8,355L497.8,355z"/>
		<path class="st17" d="M136.3,355c42.8,0,77.4,34.7,77.4,77.4s-34.7,77.4-77.4,77.4s-77.4-34.7-77.4-77.4
			C58.8,389.6,93.5,355,136.3,355L136.3,355z"/>
		<path class="st18" d="M837.6,355c42.8,0,77.4,34.7,77.4,77.4s-34.7,77.4-77.4,77.4s-77.4-34.7-77.4-77.4
			C760.2,389.6,794.8,355,837.6,355L837.6,355z"/>
		<path class="st19" d="M137.4,339.8V275c0-11.5,9.4-20.9,20.9-20.9h661.1c11.5,0,20.9,9.4,20.9,20.9v66.9"/>
		<line class="st19" x1="495.5" y1="216.7" x2="495.5" y2="338.2"/>
		<path class="st20" d="M187.6,400.1l-39.1-7.7c0,6.2-4.7,11.3-10.7,12.1v16.6h-3v-16.6c-6-0.7-10.7-5.9-10.7-12.1L85,400.1l8.2,21
			h14.4v51.3h57.7l-0.2-51.3h14.4L187.6,400.1z"/>
		<path class="st21" d="M549.1,400.1l-39.1-7.7c0,6.2-4.7,11.3-10.7,12.1v16.6h-3v-16.6c-6-0.7-10.7-5.9-10.7-12.1l-39.1,7.7l8.2,21
			h14.4v51.3h57.7l-0.2-51.3H541L549.1,400.1z"/>
		<path class="st22" d="M888.9,400.1l-39.1-7.7c0,6.2-4.7,11.3-10.7,12.1v16.6h-3v-16.6c-6-0.7-10.7-5.9-10.7-12.1l-39.1,7.7l8.2,21
			h14.4v51.3h57.7l-0.2-51.3h14.4L888.9,400.1z"/>
	</g>
	<g>
		<polygon class="st23" points="137.4,344.2 127.3,329.5 137.4,331.7 147.3,329.5 		"/>
		<polygon class="st23" points="840.4,348.2 850.4,333.6 840.4,335.6 830.5,333.6 		"/>
		<polygon class="st23" points="495.6,345.4 505.7,330.7 495.6,332.8 485.7,330.7 		"/>
	</g>
</g>
<path class="st24" d="M568.3,74.3l-53.8-10.6c0,8.5-6.4,15.6-14.7,16.6v22.9h-4.1V80.3c-8.3-1-14.7-8.1-14.7-16.6l-53.8,10.6
	l11.3,28.9h19.8v70.5h79.3l-0.3-70.5H557L568.3,74.3z"/>
</svg>
