<?xml version="1.0" encoding="utf-8"?>
<!-- Generator: Adobe Illustrator 21.1.0, SVG Export Plug-In . SVG Version: 6.00 Build 0)  -->
<svg version="1.1" id="Layer_1" xmlns="http://www.w3.org/2000/svg" xmlns:xlink="http://www.w3.org/1999/xlink" x="0px" y="0px"
	 width="45.1px" height="40px" viewBox="0 0 45.1 40" style="enable-background:new 0 0 45.1 40;" xml:space="preserve">
<style type="text/css">
	.st0{fill:#32BDB9;}
</style>
<path class="st0" d="M8.1,40c-2.3,0-5-0.4-8.1-1.1V12.2c2.4,0.6,5.6,1.2,8.2,1.2c1.8,0,3.1-0.3,3.9-0.9c1.1-0.9,0.5-1.8-0.2-2.8
	c-0.7-1.1-1.6-2.4-1.6-4.5c0-3.3,3.3-5.1,6.4-5.1c3.3,0,5.7,2.1,5.7,5c0,1.7-1,3.1-1.7,4.2c-0.8,1.2-1.5,2.2-0.6,2.9
	c0.8,0.6,2.2,0.9,4.3,0.9c2.2,0,5-0.3,8.5-0.9c-1.2,5.5-1.2,8.9-0.1,10.3c0.3,0.3,0.6,0.5,0.9,0.5c0.5,0,1.1-0.4,1.7-0.8
	c1-0.7,2.5-1.7,4.5-1.7c3.4,0,5.2,3,5.2,6s-1.8,6.2-5.1,6.2c-1.6,0-3-0.9-4.2-1.7c-0.9-0.6-1.7-1.1-2.4-1.1c-0.4,0-0.8,0.2-1.1,0.6
	c-1.3,1.8-0.2,6.5,0.4,8.8c-2,0-3.9,0.2-5.6,0.4c-1.6,0.2-3.1,0.3-4.4,0.3c-2,0-3.3-0.4-4.2-1.2c-0.7-0.6-1-1.4-1-2.4
	c0-1.6,0.7-2.5,1.5-3.4c0.6-0.8,1.3-1.5,1.3-2.7c0-1.1-0.9-2.9-4.2-2.9c-2.6,0-4.1,1-4.1,2.9c0,1.5,0.7,2.5,1.4,3.3
	c0.6,0.8,1.1,1.5,1.1,2.5C14.6,39.5,10.5,40,8.1,40z M1.9,37.4l0.3,0.1c1.6,0.3,4.1,0.7,6.1,0.7c3,0,4.5-0.7,4.5-2.1
	c0-0.4-0.3-0.8-0.8-1.5c-1.7-2.3-2.2-4.7-1.3-6.5c0.9-1.7,2.9-2.7,5.5-2.7c3.6,0,6.1,2,6.1,4.7c0,1.6-1,3-1.7,4
	c-0.8,1.1-1.6,2.2-0.6,3.1c0.5,0.5,1.5,0.7,3.1,0.7c1.6,0,3.5-0.2,5.2-0.4c0.7-0.1,1.4-0.2,1.9-0.2l0.4,0l-0.1-0.4
	c-0.7-3.6-0.5-6.5,0.7-7.9c0.6-0.7,1.4-1.1,2.5-1.1c1.6,0,2.6,0.7,3.5,1.4c0.8,0.6,1.7,1.3,2.9,1.3c1.3,0,3.2-1.3,3.2-4.3
	c0-2-1-4.2-3.3-4.2c-1.5,0-2.6,0.7-3.5,1.4c-0.8,0.6-1.6,1.1-2.6,1.1c-1,0-1.8-0.3-2.4-1c-1.7-2-1.4-6.4-1-8.8l0.1-0.4L30,14.5
	c-2,0.3-3.8,0.4-5.3,0.4c-4.6,0-6.9-1.2-6.9-3.5c0-1.6,0.7-2.6,1.4-3.5C19.9,7,20.5,6.2,20.5,5c0-2.3-2-3.1-3.8-3.1
	c-2.2,0-4.5,1.1-4.5,3.3c0,1.5,0.7,2.6,1.3,3.5c0.5,0.8,1.1,1.6,1.1,2.6c0,2.6-2.2,4-6.6,4c-1.7,0-3.6-0.2-5.7-0.6l-0.4-0.1V37.4z"
	/>
</svg>
