<?xml version="1.0" encoding="utf-8"?>
<!-- Generator: Adobe Illustrator 21.1.0, SVG Export Plug-In . SVG Version: 6.00 Build 0)  -->
<svg version="1.1" id="Layer_3" xmlns="http://www.w3.org/2000/svg" xmlns:xlink="http://www.w3.org/1999/xlink" x="0px" y="0px"
	 width="90px" height="72px" viewBox="0 0 90 72" enable-background="new 0 0 90 72" xml:space="preserve">
<path fill="#32BDB9" d="M30,62.6c-1.5,0-2.9-0.6-3.9-1.6l-3-3c-1.1-1.1-1.7-2.5-1.6-4.1s0.7-3,1.9-4l12.7-11.2l-2-0.2
	c-6.2-0.6-11-2.8-14.3-6.5c-3.4-3.9-5.1-9.6-5.1-16.9c0-1.6,0.6-3,1.7-4s2.5-1.5,3.9-1.5s2.7,0.5,3.7,1.5l21,19.5l2.2-2L47,28
	c-1.3-4.2-0.5-7.9,2.6-11c1.8-1.8,6.8-5.4,9.2-7.1c0.5-0.4,1.2-0.6,1.8-0.6c2,0,4.1,1.9,4.4,4l0.1,0.7l0.7,0.1c1.9,0.2,3.7,2.1,4,4
	l0.1,0.7l0.7,0.1c1.5,0.2,3,1.4,3.7,2.9c0.3,0.7,0.7,2-0.2,3.3c-0.2,0.3-4.8,7-7.1,9.2c-2.1,2.1-4.6,3.2-7.3,3.2
	c-1.2,0-2.4-0.2-3.7-0.6l-0.5-0.2l-1.7,1.8L66,49.8c1.1,1,1.7,2.5,1.8,4s-0.5,3-1.6,4l-3,3c-1,1.1-2.4,1.6-3.9,1.6s-3-0.6-4.1-1.8
	l0,0l0,0c-0.1-0.2-1.1-1.3-5.4-6.3l-4.9-5.8l-10.6,12C33.1,61.9,31.6,62.6,30,62.6z M24.4,51.1c-0.8,0.7-1.3,1.7-1.3,2.8
	s0.4,2.1,1.1,2.8l3,3c0.7,0.7,1.7,1.1,2.7,1.1c1.1,0,2.2-0.5,2.9-1.3l10.8-12.2l-6.4-7.6L24.4,51.1z M56.3,59.6L56.3,59.6
	c0.7,0.8,1.8,1.2,2.8,1.2s2-0.4,2.7-1.1l3-3c0.8-0.7,1.2-1.7,1.1-2.8c0-1.1-0.4-2-1.2-2.8l-42-39c-0.7-0.7-1.6-1-2.6-1
	c-2.1,0-3.9,1.7-3.9,3.9c0,14.4,7,21.7,20.7,21.8L56.3,59.6z M46.3,31.7l6.1,5.7l2.1-2.4c1.4,0.7,2.8,1,4.3,1c2.5,0,4.9-1,6.8-3
	c2.1-2.1,6.6-8.6,6.9-9c0.3-0.5,0.4-1.1,0-1.8c-0.4-0.9-1.5-1.7-2.5-1.7c-0.3,0-0.6,0.1-0.9,0.3l0,0l-8.6,8.6
	c-0.1,0-0.4-0.1-0.6-0.4c-0.2-0.2-0.3-0.4-0.3-0.5l8.1-9.2l0,0c0.3-0.5,0.4-1.1,0-1.8c-0.4-0.9-1.5-1.7-2.4-1.7
	c-0.3,0-0.6,0.1-0.9,0.3l0,0l-9.2,8.1c-0.1,0-0.3-0.1-0.6-0.4c-0.2-0.2-0.3-0.4-0.3-0.5l8.6-8.6l0,0c0.4-0.5,0.4-1.1,0.1-1.8
	c-0.4-0.9-1.5-1.8-2.5-1.8c-0.3,0-0.6,0.1-0.9,0.3c-0.4,0.2-6.9,4.8-9,6.9c-3.1,3.1-3.9,7.3-1.9,11.1L46.3,31.7z"/>
</svg>
