<?xml version="1.0" encoding="utf-8"?>
<!-- Generator: Adobe Illustrator 21.1.0, SVG Export Plug-In . SVG Version: 6.00 Build 0)  -->
<svg version="1.1" id="Layer_1" xmlns="http://www.w3.org/2000/svg" xmlns:xlink="http://www.w3.org/1999/xlink" x="0px" y="0px"
	 width="765px" height="570px" viewBox="0 0 765 570" style="enable-background:new 0 0 765 570;" xml:space="preserve">
<style type="text/css">
	.st0{opacity:0.8;}
	.st1{opacity:0.6;}
	.st2{opacity:0.5;fill:#EFF7FE;enable-background:new    ;}
	.st3{opacity:0.15;fill:#DFE6EA;enable-background:new    ;}
	.st4{opacity:0.45;fill:#E1F5FB;enable-background:new    ;}
	.st5{opacity:0.3;fill:#D1F0EF;enable-background:new    ;}
	.st6{opacity:0.5;fill:#D1F0EF;enable-background:new    ;}
	.st7{opacity:0.5;fill:#DCE8EF;enable-background:new    ;}
	.st8{opacity:0.2;fill:#FCC8CE;enable-background:new    ;}
	.st9{opacity:0.6;fill:#D5F1F1;enable-background:new    ;}
	.st10{opacity:0.6;fill:#BBE9F9;enable-background:new    ;}
	.st11{fill:#F1FAFA;}
	.st12{opacity:0.2;fill:#FCB9C6;enable-background:new    ;}
	.st13{fill:#FCFDFF;}
	.st14{opacity:0.1;fill:#1DD4FF;enable-background:new    ;}
	.st15{opacity:0.2;fill:#A2EAE0;enable-background:new    ;}
	.st16{fill:none;stroke:#D0D0D0;stroke-width:1.5;stroke-miterlimit:10;}
	.st17{fill:none;stroke:#D0D0D0;stroke-width:1.5;stroke-miterlimit:10;stroke-dasharray:3.8875,3.8875;}
	.st18{fill:none;stroke:url(#SVGID_1_);stroke-width:1.5;stroke-miterlimit:10;}
	.st19{fill:none;stroke:url(#SVGID_2_);stroke-width:1.5;stroke-miterlimit:10;stroke-dasharray:3.8875,3.8875;}
	.st20{fill:none;stroke:url(#SVGID_3_);stroke-width:1.5;stroke-miterlimit:10;}
	.st21{fill:none;stroke:url(#SVGID_4_);stroke-width:1.5;stroke-miterlimit:10;stroke-dasharray:3.8875,3.8875;}
	.st22{fill:none;stroke:url(#SVGID_5_);stroke-width:1.5;stroke-miterlimit:10;}
	.st23{fill:none;stroke:url(#SVGID_6_);stroke-width:1.5;stroke-miterlimit:10;stroke-dasharray:3.8875,3.8875;}
	.st24{fill:none;stroke:url(#SVGID_7_);stroke-width:1.5;stroke-miterlimit:10;}
	.st25{fill:none;stroke:url(#SVGID_8_);stroke-width:1.5;stroke-miterlimit:10;stroke-dasharray:3.8875,3.8875;}
	.st26{fill:none;stroke:url(#SVGID_9_);stroke-width:1.5;stroke-miterlimit:10;}
	.st27{fill:none;stroke:url(#SVGID_10_);stroke-width:1.5;stroke-miterlimit:10;stroke-dasharray:3.8875,3.8875;}
	.st28{fill:none;stroke:url(#SVGID_11_);stroke-width:1.5;stroke-miterlimit:10;}
	.st29{fill:none;stroke:url(#SVGID_12_);stroke-width:1.5;stroke-miterlimit:10;stroke-dasharray:3.8875,3.8875;}
	.st30{fill:none;stroke:url(#SVGID_13_);stroke-width:1.5;stroke-miterlimit:10;}
	.st31{fill:none;stroke:url(#SVGID_14_);stroke-width:1.5;stroke-miterlimit:10;stroke-dasharray:3.8875,3.8875;}
	.st32{fill:none;stroke:url(#SVGID_15_);stroke-width:1.5;stroke-miterlimit:10;}
	.st33{fill:none;stroke:url(#SVGID_16_);stroke-width:1.5;stroke-miterlimit:10;stroke-dasharray:3.8875,3.8875;}
	.st34{fill:none;stroke:url(#SVGID_17_);stroke-width:1.5;stroke-miterlimit:10;}
	.st35{fill:none;stroke:url(#SVGID_18_);stroke-width:1.5;stroke-miterlimit:10;stroke-dasharray:3.8875,3.8875;}
	.st36{fill:none;stroke:url(#SVGID_19_);stroke-width:1.5;stroke-miterlimit:10;}
	.st37{fill:none;stroke:url(#SVGID_20_);stroke-width:1.5;stroke-miterlimit:10;stroke-dasharray:3.8875,3.8875;}
	.st38{fill:none;stroke:url(#SVGID_21_);stroke-width:1.5;stroke-miterlimit:10;}
	.st39{fill:none;stroke:url(#SVGID_22_);stroke-width:1.5;stroke-miterlimit:10;stroke-dasharray:3.8875,3.8875;}
	.st40{fill:none;stroke:url(#SVGID_23_);stroke-width:1.5;stroke-miterlimit:10;}
	.st41{fill:none;stroke:url(#SVGID_24_);stroke-width:1.5;stroke-miterlimit:10;stroke-dasharray:3.8875,3.8875;}
	.st42{fill:none;stroke:url(#SVGID_25_);stroke-width:1.5;stroke-miterlimit:10;}
	.st43{fill:none;stroke:url(#SVGID_26_);stroke-width:1.5;stroke-miterlimit:10;stroke-dasharray:3.8875,3.8875;}
	.st44{fill:none;stroke:url(#SVGID_27_);stroke-width:1.5;stroke-miterlimit:10;}
	.st45{fill:none;stroke:url(#SVGID_28_);stroke-width:1.5;stroke-miterlimit:10;stroke-dasharray:3.8875,3.8875;}
	.st46{fill:none;stroke:url(#SVGID_29_);stroke-width:1.5;stroke-miterlimit:10;}
	.st47{fill:none;stroke:url(#SVGID_30_);stroke-width:1.5;stroke-miterlimit:10;stroke-dasharray:3.8875,3.8875;}
	.st48{fill:none;stroke:url(#SVGID_31_);stroke-width:1.5;stroke-miterlimit:10;}
	.st49{fill:none;stroke:url(#SVGID_32_);stroke-width:1.5;stroke-miterlimit:10;stroke-dasharray:3.8875,3.8875;}
	.st50{fill:none;stroke:url(#SVGID_33_);stroke-width:1.5;stroke-miterlimit:10;}
	.st51{fill:none;stroke:url(#SVGID_34_);stroke-width:1.5;stroke-miterlimit:10;stroke-dasharray:3.8875,3.8875;}
	.st52{fill:none;stroke:url(#SVGID_35_);stroke-width:1.5;stroke-miterlimit:10;}
	.st53{fill:none;stroke:url(#SVGID_36_);stroke-width:1.5;stroke-miterlimit:10;stroke-dasharray:3.8875,3.8875;}
	.st54{fill:none;stroke:url(#SVGID_37_);stroke-width:1.5;stroke-miterlimit:10;}
	.st55{fill:none;stroke:url(#SVGID_38_);stroke-width:1.5;stroke-miterlimit:10;stroke-dasharray:3.8875,3.8875;}
	.st56{fill:none;stroke:url(#SVGID_39_);stroke-width:1.5;stroke-miterlimit:10;}
	.st57{fill:none;stroke:url(#SVGID_40_);stroke-width:1.5;stroke-miterlimit:10;stroke-dasharray:3.8875,3.8875;}
	.st58{fill:none;stroke:url(#SVGID_41_);stroke-width:1.5;stroke-miterlimit:10;}
	.st59{fill:none;stroke:url(#SVGID_42_);stroke-width:1.5;stroke-miterlimit:10;stroke-dasharray:3.8875,3.8875;}
	.st60{fill:none;stroke:url(#SVGID_43_);stroke-width:1.5;stroke-miterlimit:10;}
	.st61{fill:none;stroke:url(#SVGID_44_);stroke-width:1.5;stroke-miterlimit:10;stroke-dasharray:3.8875,3.8875;}
	.st62{fill:none;stroke:url(#SVGID_45_);stroke-width:1.5;stroke-miterlimit:10;}
	.st63{fill:none;stroke:url(#SVGID_46_);stroke-width:1.5;stroke-miterlimit:10;stroke-dasharray:3.8875,3.8875;}
	.st64{fill:none;stroke:url(#SVGID_47_);stroke-width:1.5;stroke-miterlimit:10;}
	.st65{fill:none;stroke:url(#SVGID_48_);stroke-width:1.5;stroke-miterlimit:10;stroke-dasharray:3.8875,3.8875;}
	.st66{opacity:0.25;}
	.st67{opacity:5.000000e-02;}
	.st68{fill:none;stroke:#D0D0D0;stroke-width:2;stroke-miterlimit:10;}
	.st69{fill:none;stroke:#D0D0D0;stroke-width:2;stroke-miterlimit:10;stroke-dasharray:3.8875,3.8875;}
	.st70{fill:none;stroke:url(#SVGID_49_);stroke-width:1.5;stroke-miterlimit:10;}
	.st71{fill:none;stroke:url(#SVGID_50_);stroke-width:1.5;stroke-miterlimit:10;stroke-dasharray:3.8875,3.8875;}
	.st72{fill:none;stroke:url(#SVGID_51_);stroke-width:1.5;stroke-miterlimit:10;}
	.st73{fill:none;stroke:url(#SVGID_52_);stroke-width:1.5;stroke-miterlimit:10;stroke-dasharray:3.8875,3.8875;}
	.st74{fill:none;stroke:url(#SVGID_53_);stroke-width:1.5;stroke-miterlimit:10;}
	.st75{fill:none;stroke:url(#SVGID_54_);stroke-width:1.5;stroke-miterlimit:10;stroke-dasharray:3.8875,3.8875;}
	.st76{fill:none;stroke:url(#SVGID_55_);stroke-width:1.5;stroke-miterlimit:10;}
	.st77{fill:none;stroke:url(#SVGID_56_);stroke-width:1.5;stroke-miterlimit:10;stroke-dasharray:3.8875,3.8875;}
	.st78{fill:none;stroke:url(#SVGID_57_);stroke-width:1.5;stroke-miterlimit:10;}
	.st79{fill:none;stroke:url(#SVGID_58_);stroke-width:1.5;stroke-miterlimit:10;stroke-dasharray:3.8875,3.8875;}
	.st80{fill:none;stroke:url(#SVGID_59_);stroke-width:1.5;stroke-miterlimit:10;}
	.st81{fill:none;stroke:url(#SVGID_60_);stroke-width:1.5;stroke-miterlimit:10;stroke-dasharray:3.8875,3.8875;}
	.st82{fill:none;stroke:url(#SVGID_61_);stroke-width:1.5;stroke-miterlimit:10;}
	.st83{fill:none;stroke:url(#SVGID_62_);stroke-width:1.5;stroke-miterlimit:10;stroke-dasharray:3.8875,3.8875;}
	.st84{fill:none;stroke:url(#SVGID_63_);stroke-width:1.5;stroke-miterlimit:10;}
	.st85{fill:none;stroke:url(#SVGID_64_);stroke-width:1.5;stroke-miterlimit:10;stroke-dasharray:3.8875,3.8875;}
	.st86{fill:none;stroke:url(#SVGID_65_);stroke-width:1.5;stroke-miterlimit:10;}
	.st87{fill:none;stroke:url(#SVGID_66_);stroke-width:1.5;stroke-miterlimit:10;stroke-dasharray:3.8875,3.8875;}
	.st88{fill:none;stroke:url(#SVGID_67_);stroke-width:1.5;stroke-miterlimit:10;}
	.st89{fill:none;stroke:url(#SVGID_68_);stroke-width:1.5;stroke-miterlimit:10;stroke-dasharray:3.8875,3.8875;}
	.st90{fill:none;stroke:url(#SVGID_69_);stroke-width:1.5;stroke-miterlimit:10;}
	.st91{fill:none;stroke:url(#SVGID_70_);stroke-width:1.5;stroke-miterlimit:10;stroke-dasharray:3.8875,3.8875;}
	.st92{fill:none;stroke:url(#SVGID_71_);stroke-width:1.5;stroke-miterlimit:10;}
	.st93{fill:none;stroke:url(#SVGID_72_);stroke-width:1.5;stroke-miterlimit:10;stroke-dasharray:3.8875,3.8875;}
	.st94{fill:none;stroke:url(#SVGID_73_);stroke-width:1.5;stroke-miterlimit:10;}
	.st95{fill:none;stroke:url(#SVGID_74_);stroke-width:1.5;stroke-miterlimit:10;stroke-dasharray:3.8875,3.8875;}
	.st96{fill:none;stroke:url(#SVGID_75_);stroke-width:1.5;stroke-miterlimit:10;}
	.st97{fill:none;stroke:url(#SVGID_76_);stroke-width:1.5;stroke-miterlimit:10;stroke-dasharray:3.8875,3.8875;}
	.st98{fill:none;stroke:url(#SVGID_77_);stroke-width:1.5;stroke-miterlimit:10;}
	.st99{fill:none;stroke:url(#SVGID_78_);stroke-width:1.5;stroke-miterlimit:10;stroke-dasharray:3.8875,3.8875;}
	.st100{fill:none;stroke:url(#SVGID_79_);stroke-width:1.5;stroke-miterlimit:10;}
	.st101{fill:none;stroke:url(#SVGID_80_);stroke-width:1.5;stroke-miterlimit:10;stroke-dasharray:3.8875,3.8875;}
	.st102{fill:none;stroke:url(#SVGID_81_);stroke-width:1.5;stroke-miterlimit:10;}
	.st103{fill:none;stroke:url(#SVGID_82_);stroke-width:1.5;stroke-miterlimit:10;stroke-dasharray:3.8875,3.8875;}
	.st104{fill:none;stroke:url(#SVGID_83_);stroke-width:1.5;stroke-miterlimit:10;}
	.st105{fill:none;stroke:url(#SVGID_84_);stroke-width:1.5;stroke-miterlimit:10;stroke-dasharray:3.8875,3.8875;}
	.st106{fill:none;stroke:url(#SVGID_85_);stroke-width:1.5;stroke-miterlimit:10;}
	.st107{fill:none;stroke:url(#SVGID_86_);stroke-width:1.5;stroke-miterlimit:10;stroke-dasharray:3.8875,3.8875;}
	.st108{fill:none;stroke:url(#SVGID_87_);stroke-width:1.5;stroke-miterlimit:10;}
	.st109{fill:none;stroke:url(#SVGID_88_);stroke-width:1.5;stroke-miterlimit:10;stroke-dasharray:3.8875,3.8875;}
	.st110{fill:none;stroke:url(#SVGID_89_);stroke-width:1.5;stroke-miterlimit:10;}
	.st111{fill:none;stroke:url(#SVGID_90_);stroke-width:1.5;stroke-miterlimit:10;stroke-dasharray:3.8875,3.8875;}
	.st112{fill:none;stroke:url(#SVGID_91_);stroke-width:1.5;stroke-miterlimit:10;}
	.st113{fill:none;stroke:url(#SVGID_92_);stroke-width:1.5;stroke-miterlimit:10;stroke-dasharray:3.8875,3.8875;}
	.st114{fill:none;stroke:url(#SVGID_93_);stroke-width:1.5;stroke-miterlimit:10;}
	.st115{fill:none;stroke:url(#SVGID_94_);stroke-width:1.5;stroke-miterlimit:10;stroke-dasharray:3.8875,3.8875;}
	.st116{fill:none;stroke:url(#SVGID_95_);stroke-width:1.5;stroke-miterlimit:10;}
	.st117{fill:none;stroke:url(#SVGID_96_);stroke-width:1.5;stroke-miterlimit:10;stroke-dasharray:3.8875,3.8875;}
	.st118{opacity:0.1;}
	.st119{fill:#347EC0;stroke:#347EC0;stroke-miterlimit:10;}
	.st120{display:none;fill:#FFFFFF;}
	.st121{fill:url(#SVGID_97_);}
	.st122{fill:url(#SVGID_98_);}
	.st123{display:none;}
	.st124{display:inline;}
	.st125{fill:#FFFFFF;}
	.st126{fill:none;stroke:#347EC0;stroke-width:1.5;stroke-linecap:round;stroke-linejoin:round;stroke-miterlimit:10;}
	.st127{fill:#BBDEF4;}
	.st128{fill:none;stroke:#347EC0;stroke-width:1.5;stroke-miterlimit:10;}
	.st129{fill:#347EC0;}
	.st130{fill:#FFFFFF;stroke:#347EC0;stroke-linejoin:round;stroke-miterlimit:10;}
	.st131{fill:#56ADD8;stroke:#347EC0;stroke-linejoin:round;stroke-miterlimit:10;}
	.st132{fill:#FFFFFF;stroke:#347EC0;stroke-miterlimit:10;}
	.st133{fill:#BBDEF4;stroke:#347EC0;stroke-width:0.75;stroke-miterlimit:10;}
	.st134{fill:#DCFBFA;stroke:#33CCCC;stroke-width:0.75;stroke-miterlimit:10;}
	.st135{fill:#FFFFFF;stroke:#347EC0;stroke-width:0.75;stroke-miterlimit:10;}
	.st136{opacity:0.5;}
	.st137{fill:#BBDEF4;stroke:#347EC0;stroke-width:0.25;stroke-miterlimit:10;}
	.st138{fill:#FFFFFF;stroke:#347EC0;stroke-width:1.5;stroke-linejoin:round;stroke-miterlimit:10;}
	.st139{fill:#FFFFFF;stroke:#3690D7;stroke-width:1.5;stroke-linecap:round;stroke-miterlimit:10;}
	.st140{fill:#FFFFFF;stroke:#347EC0;stroke-width:1.5;stroke-linecap:round;stroke-miterlimit:10;}
	.st141{fill:none;stroke:#347EC0;stroke-width:1.5;stroke-linecap:round;stroke-miterlimit:10;}
	.st142{fill:#D2D9E3;stroke:#347EC0;stroke-width:0.75;stroke-miterlimit:10;}
	.st143{fill:#F6F8FA;stroke:#347EC0;stroke-width:0.5;stroke-miterlimit:10;}
	.st144{fill:#BBDEF4;stroke:#347EC0;stroke-width:0.5;stroke-miterlimit:10;}
	.st145{fill:#BBDEF4;stroke:#347EC0;stroke-width:1.5;stroke-miterlimit:10;}
	.st146{fill:#FFFFFF;stroke:#347EC0;stroke-width:1.5;stroke-miterlimit:10;}
	.st147{fill:#BBDEF4;stroke:#347EC0;stroke-miterlimit:10;}
	.st148{fill:none;stroke:#347EC0;stroke-miterlimit:10;}
	.st149{fill:none;stroke:#347EC0;stroke-width:0.5;stroke-miterlimit:10;}
</style>
<g id="Layer_4">
	<g id="Layer_2_1_" class="st0">
		<g class="st1">
			<ellipse class="st2" cx="241.6" cy="303.3" rx="223.2" ry="226.4"/>
			<ellipse class="st3" cx="452.5" cy="177.5" rx="158.6" ry="160.9"/>
			<ellipse class="st4" cx="535.6" cy="314.5" rx="218.1" ry="221.1"/>
			<path class="st5" d="M228.4,376c3.4-2.8,11.1,0.2,21,4c7.1,2.7,10.6,5.3,17.8,5.9c3.7,0.3,9.4,0.7,11.2-2.2
				c3.5-5.7-10.1-20.7-9.8-20.9c0.3-0.3,15.3,22.8,22.4,20.2c1.7-0.6,3-3.2,5.4-8.4c3.3-7,2.4-8.8,4.7-11c3.8-3.8,7.8-0.4,14.5-3.3
				c6.7-2.9,5.9-7.7,13.4-13.2c4.9-3.6,9.4-4.6,16.7-6.2c14.7-3.3,16.9,0.7,24.2-2.9c8.2-4.1,6.2-9.5,16.7-17.3
				c5.8-4.2,10.8-6,19.2-8.8c8.5-2.9,14.6-3.8,25.4-5.5c21.9-3.4,27.2-1.6,30.1-0.4c5.1,2.2,4.9,3.9,9.8,6.6
				c11.2,6.1,20.6,2.2,33.3,1.8c18-0.5,31.8,6.4,47.1,14c8,4,4,3,29,18c16.7,10,19.8,11.3,26.1,16.9c7.1,6.3,14.6,13.2,19.2,24.6
				c2.8,7.1,2.4,10.9,7.2,22c3.9,8.9,6.5,11.7,8.7,13.6c4.5,3.7,7.1,3,9.8,6.6c4,5.4,3.9,14.4,0.3,16.5c-2.4,1.4-5.8-0.4-7.2-1.1
				c-4.6-2.4-4.3-5.3-8.7-8.4c-0.8-0.6-6.6-4.7-13.1-2.9c-0.7,0.2-6.4,1.7-6.9,4.8c-1.1,7.3,29,10.5,34.4,28.3
				c2,6.7,0.3,14.7-3.2,20.2c-6.4,9.7-17.3,8.4-20.7,17.3c-2.4,6.5,1,13.4,1.8,15.1c7.1,14,29.7,21.4,44.9,14.7
				c9.2-4.1,18.1-14.5,27.6-25.3c4.2-4.9,6.8-8.5,11.6-9.2c7.6-1.1,17.1,5.7,19.2,13.6c3.5,13-13,28.4-25,35.6
				c-13.3,8-29.6,8.3-61.6,8.4c-26.3,0.1-39.7,0.1-48.9-6.6c-10.5-7.5-20.2-22.3-24.6-29c-7.5-11.3-10.1-18.5-17.8-20.2
				c-7.9-1.8-16.6,3.3-18.5,4.4c-5.5,3.3-5,5.1-9.8,8.4c-11.9,8.2-24.6,3-26.4,8.1c-1.1,3.2,2.9,7.8,6.9,12.5
				c5.3,6.2,8.4,6.5,8.7,9.5c0.5,5.1-7.2,12.7-15.2,12.9c-9.9,0.2-11.9-11.2-23.9-14c-2.4-0.6-7.1-1.2-25.4,6.6
				c-24.6,10.3-23.6,14.7-35.8,17.4c-13.7,3-25.9,0-38-2.9c-16.5-4-16.7-7.7-29-9.2c-17-2.1-18.9,4.7-34.4,2.9
				c-10.6-1.2-19.9-6.4-38.4-16.9c-15.3-8.7-16.4-10.8-23.2-14.3c-21.5-11.1-36.2-2.4-71-1.8c-25.5,0.4-63.5,1.1-76-20.2
				c-6.4-10.8-6.5-27.4,1.5-36.7c8.9-10.5,22.2-4.9,66.3-8.8c35.9-3.2,45.4-8.6,51.4-15.8c8.1-9.7,9.4-22.2,9.8-26.1
				C235.4,395.3,222.9,380.6,228.4,376z"/>
			<path class="st6" d="M258.8,469.1c3.4,2.8,11.1-0.2,21-4.1c7.1-2.8,10.6-5.4,17.7-5.9c3.7-0.3,9.4-0.7,11.2,2.2
				c3.5,5.7-10,20.7-9.8,21c0.3,0.3,15.2-22.8,22.4-20.2c1.7,0.6,3,3.2,5.4,8.4c3.3,7,2.4,8.7,4.7,11c3.8,3.8,7.8,0.4,14.5,3.3
				s5.9,7.7,13.4,13.2c4.9,3.6,9.4,4.6,16.7,6.2c14.7,3.3,16.9-0.7,24.2,2.9c8.2,4.1,6.2,9.5,16.7,17.2c5.8,4.2,10.8,5.9,19.2,8.8
				c8.5,2.9,14.6,3.8,25.4,5.5c21.9,3.4,27.2,1.6,30.1,0.3c5-2.2,4.9-3.9,9.8-6.6c11.2-6.2,20.6-2.2,33.3-1.9
				c18,0.5,31.8-6.4,47.1-14c8-4,4-3,29-18c16.7-10,19.8-11.3,26.1-16.9c7-6.3,14.6-13.2,19.2-24.6c2.8-7.1,2.4-10.9,7.2-22.1
				c3.8-8.9,6.5-11.7,8.6-13.6c4.5-3.7,7.1-3,9.8-6.6c4-5.4,3.9-14.4,0.3-16.5c-2.4-1.4-5.8,0.4-7.2,1.1c-4.6,2.4-4.3,5.3-8.7,8.5
				c-0.8,0.6-6.6,4.7-13,3c-0.7-0.2-6.4-1.7-6.9-4.8c-1.1-7.3,29-10.5,34.4-28.3c2-6.7,0.3-14.7-3.3-20.2
				c-6.5-9.7-17.3-8.4-20.7-17.2c-2.5-6.5,1-13.4,1.7-15.1c7-14,29.7-21.5,44.9-14.8c9.2,4.1,18.1,14.4,27.6,25.3
				c4.2,4.9,6.9,8.5,11.6,9.2c7.6,1.1,17.1-5.8,19.2-13.6c3.5-13-13.1-28.4-25-35.6c-13.3-8-29.6-8.2-61.6-8.3
				c-26.3-0.1-39.7,0-48.9,6.7c-10.5,7.6-20.1,22.4-24.6,29.1c-7.5,11.3-10.1,18.5-17.7,20.2c-7.9,1.8-16.7-3.3-18.5-4.4
				c-5.5-3.3-5-5.1-9.8-8.4c-11.9-8.2-24.6-3-26.4-8c-1.1-3.2,2.8-7.8,6.9-12.5c5.3-6.2,8.4-6.5,8.7-9.6c0.5-5.1-7.3-12.7-15.3-12.8
				c-9.9-0.2-11.9,11.2-23.9,14c-2.4,0.6-7.1,1.2-25.4-6.6c-24.6-10.5-23.6-14.9-35.9-17.6c-13.7-3-25.9,0-38,3
				c-16.5,4.1-16.7,7.7-29,9.2c-17,2.1-18.9-4.6-34.4-2.9c-10.6,1.2-19.9,6.5-38.4,17c-15.3,8.7-16.4,10.9-23.2,14.4
				c-21.5,11.1-36.1,2.5-71,2c-25.5-0.4-63.5-1-76,20.3c-6.4,10.8-6.4,27.4,1.5,36.7c8.9,10.5,22.2,4.8,66.3,8.7
				c35.9,3.2,45.5,8.6,51.4,15.7c8.1,9.7,9.4,22.2,9.9,26.1C265.9,449.7,253.3,464.4,258.8,469.1z"/>
			<path class="st7" d="M89.2,96.1c-2.9-1.3-2.4-7.1-6.9-8.6c-3.5-1.1-6.5,1.5-7.9,0c-1.6-1.7,2-5.5,0.3-8.8
				c-1.2-2.2-4.1-2.9-5.4-3.1c-4.9-1-7.4,1.9-9.2,0.5c-2.2-1.7,1.2-6.5-1.3-11.4c-1.1-2.4-3.7-4.7-6.8-4.9c-3.5-0.2-6.5,2.4-7.9,4.9
				c-2,3.7,0.3,5.6-1.3,10.9c-1.3,4.2-3.2,4.4-4.6,8.6c-1.5,4.3-0.7,8-0.3,10.9c1.9,13-1.6,28.2-4.6,28.6c-1.8,0.2-4.2-5-5.4-7.5
				c-2.2-4.7-2.2-7.9-3.6-8c-1.5-0.2-3.1,3.1-3.8,4.9c-1.8,4.8-1.7,12,2.5,15.8c3.1,2.9,6,1.5,6.9,3.6c1.4,3.4-6,7.3-8.7,17.4
				c-0.9,3.4-1.1,7,0,7.5c1.7,0.8,5.1-6,8.2-5.2c1.8,0.5,1.3,3.2,3.8,5.2c3.2,2.7,6.6,0.1,9.9,2.1c3.1,1.8,2.4,5.2,4.9,12.2
				c1.4,4,3.7,7.8,8.5,15.6c6.4,10.4,7.1,9.4,9,14.3c2.6,6.9,1.5,9.8,4.9,13.2c3.5,3.5,6.7,2.3,8.7,5.7c2.2,3.7,0.7,8.9-1,11.9
				c-2.1,3.7-6.5,5.7-15.3,9.6c-9.8,4.3-13.1,4.4-14.6,4.4c-2.8,0-7.4,0-10.7-3.1c-2.5-2.3-2-4.2-4.9-11.4
				c-2.6-6.5-3.8-9.8-6.6-11.7c-4-2.8-10.2-2.7-14.6-0.3c-6.9,3.8-8.1,12.9-10.5,31.1c-1.2,9.3-0.5,11,0.5,11.9
				c2.4,2.1,6.5,0.8,26.3-3.1c3.9-0.8,6.4-1.2,9,0c5.5,2.5,7.2,10.1,7.7,12.5c1,4.2,0.2,5.4,0.5,13c0.3,5.9,0.4,9,1.3,11.9
				c2.5,8.7,9.4,8.5,19.7,20c4.6,5.1,9,10.1,10.7,17.9c1.9,8.4-0.2,16.5-1.3,20c-2.9,9-6.7,10.6-5.7,14.5c2,7,16.9,10.8,21.3,6.2
				c2.2-2.3,0.3-5,2.5-8c3.3-4.3,12.5-5.3,17.6-1.6c1.7,1.3,3.5,3.4,7.2,21.8c2.4,12.5,2.6,16.2,6.1,18.9c3.7,2.9,8.8,2.7,12.6,2.6
				c5.8-0.2,7.2-2,14-3.4c8.1-1.7,9.8,0,16.4-1c6.6-1.1,7.2-3.1,18.9-8.8c17.4-8.5,19.4-5.6,28.4-12.2c2.2-1.6,6.5-5.1,13.3-8.8
				c4.1-2.3,6.5-3.2,7.7-3.6c2.1-0.8,6.6-2.4,12.6-2.9c7.3-0.6,9.1,1.3,11.2-0.5c3.3-2.7,0.4-7.4,4.1-11.4c2.7-2.9,7.2-3.6,10.2-3.1
				c3.3,0.5,3.7,2.1,11,6.7c5.1,3.3,7.8,5,10.2,5.4c4.7,0.8,6.8-1.1,10.7,0.8c2.9,1.4,2.5,2.7,5.1,3.6c3.1,1.1,4.7-0.4,10.7-1.3
				c6.5-1,6.4,0.3,8.5-0.8c4.6-2.5,3-8.1,8.2-14c3.5-4,5.1-2.4,7.4-5.4c6.2-7.8-4.2-18.7,1-32.2c2.1-5.5,5.8-9.2,8.2-11.4
				c7.8-7.6,13.3-6.6,16.7-13c2.3-4.4,2.8-10.8,0.3-15.6c-3.3-6.2-9.9-5.9-11.2-11.7c-1-4.3,2-6.9,0.3-9.1c-2.4-3.1-10.9-0.2-12,0.3
				c-9.2,3.3-11.9,9.8-15.6,8.6c-3.6-1.2-4.1-8-4.1-8.3c-0.3-4.9,2.2-7.3,5.7-14.3c1.6-3.2,5.2-10.6,6.4-19.5
				c0.7-5.6,1.7-12.3-2-15.6c-3.7-3.4-8.5,0.4-12.8-2.9c-3.9-2.9-1.7-7.1-5.1-16.9c-3.2-9-8.6-15.2-10.7-17.7
				c-5.1-5.7-6.2-4.5-8.2-8c-2-3.5-2.7-7.6,0-25.7c2.1-14.4,3.3-17,1.3-19.5c-1.9-2.3-4.7-2-22-1.3c-14.7,0.6-19.6,0.7-23.8-2.9
				c-3.7-3.2-5-7.6-5.1-8.3c-2.2-8.6,4.6-13.1,2.3-20c-1.6-4.7-6.8-8.9-11-8.3c-5.3,0.7-5.1,8.6-13.8,14.5c-4.8,3.3-11,5.1-12.3,3.4
				c-2.1-2.7,10.1-12.8,7.4-17.7c-2-3.7-11.2-2-12-1.8c-11.5,2.2-13.2,10.3-22.5,14.8c-14.6,7-33-1.9-40.5-5.4
				c-16-7.8-16.3-15.5-24.9-15.3C108.5,68.7,96.3,99.3,89.2,96.1z"/>
			<path class="st8" d="M616.6,46.6c3.6-1.6,3-8.7,8.5-10.5c4.3-1.4,8,1.8,9.8,0c1.9-2.1-2.5-6.8-0.3-10.8c1.5-2.7,5.1-3.5,6.6-3.8
				c6-1.3,9.1,2.4,11.3,0.6c2.7-2.1-1.6-8,1.6-14c1.5-2.9,4.6-5.8,8.5-6.1c4.3-0.3,8,2.9,9.8,6.1c2.4,4.5-0.4,6.8,1.6,13.4
				c1.6,5.2,3.9,5.4,5.7,10.5c1.8,5.3,0.8,9.8,0.3,13.4c-2.4,16,1.9,34.6,5.7,35.1c2.3,0.3,5.1-6.1,6.6-9.2c2.6-5.8,2.7-9.6,4.4-9.9
				c1.8-0.2,3.8,3.7,4.7,6.1c2.2,5.9,2,14.7-3.1,19.4c-3.8,3.5-7.4,1.9-8.5,4.5c-1.7,4.2,7.4,9,10.7,21.3c1.1,4.1,1.4,8.6,0,9.2
				c-2.1,0.9-6.3-7.4-10-6.4c-2.3,0.6-1.7,3.9-4.7,6.4c-4,3.3-8.1,0.1-12.3,2.5c-3.8,2.2-3.1,6.4-5.9,15c-1.7,4.9-4.5,9.6-10.4,19.1
				c-7.8,12.7-8.7,11.6-11,17.5c-3.2,8.5-1.7,12.1-5.9,16.2c-4.3,4.3-8.2,2.9-10.7,7c-2.7,4.5-0.9,10.9,1.2,14.7
				c2.6,4.6,8,7,18.8,11.8c11.9,5.3,16.1,5.4,17.9,5.4c3.4,0,9.1,0,13.2-3.8c3.1-2.8,2.4-5.1,5.9-14c3.1-8,4.8-12,8.2-14.3
				c4.9-3.4,12.5-3.3,17.9-0.3c8.5,4.6,9.9,15.8,12.9,38.2c1.5,11.4,0.7,13.5-0.6,14.7c-2.9,2.6-7.9,1-32.4-3.8c-4.8-1-7.8-1.5-11,0
				c-6.7,3.1-8.8,12.5-9.4,15.3c-1.1,5.1-0.2,6.6-0.6,15.9c-0.3,7.2-0.5,11.1-1.6,14.7c-3.1,10.7-11.6,10.4-24.2,24.5
				c-5.7,6.3-11.1,12.4-13.2,22c-2.3,10.4,0.3,20.3,1.6,24.5c3.5,11,8.3,13,6.9,17.8c-2.4,8.6-20.8,13.2-26.1,7.6
				c-2.7-2.8-0.3-6.2-3.1-9.9c-4.1-5.3-15.3-6.6-21.7-1.9c-2.2,1.6-4.4,4.2-8.8,26.8c-3.1,15.3-3.2,19.9-7.5,23.3
				c-4.6,3.6-10.8,3.4-15.4,3.2c-7.1-0.3-8.9-2.4-17.3-4.1c-10-2.1-11.9,0-20.1-1.3c-8.1-1.3-8.8-3.8-23.3-10.8
				c-21.4-10.4-23.9-6.9-34.9-15c-2.6-1.9-8-6.3-16.3-10.8c-5.1-2.8-8-4-9.4-4.5c-2.5-0.9-8.1-2.9-15.4-3.5
				c-9.1-0.7-11.1,1.6-13.9-0.6c-4.1-3.3-0.6-9.1-5.1-14c-3.3-3.6-8.8-4.4-12.6-3.8c-4,0.6-4.6,2.5-13.5,8.3
				c-6.4,4.1-9.5,6.2-12.6,6.7c-5.8,1-8.4-1.3-13.2,1c-3.6,1.7-3.1,3.3-6.3,4.5c-3.7,1.3-5.8-0.4-13.2-1.6c-7.9-1.2-7.8,0.4-10.4-1
				c-5.7-3-3.7-9.9-10-17.2c-4.3-4.9-6.2-3-9.1-6.7c-7.6-9.6,5.1-22.9-1.2-39.5c-2.5-6.7-7.2-11.2-10-14
				c-9.6-9.3-16.3-8.1-20.4-15.9c-2.8-5.4-3.5-13.3-0.3-19.1c4.1-7.6,12.1-7.2,13.9-14.3c1.3-5.3-2.4-8.5-0.3-11.2
				c3.1-3.8,13.3-0.2,14.7,0.3c11.3,4.1,14.6,12,19.2,10.5c4.4-1.5,5-9.8,5.1-10.2c0.4-6-2.7-9-6.9-17.5c-1.9-3.9-6.5-13-7.8-23.9
				c-0.9-6.9-2-15.1,2.5-19.1c4.6-4.2,10.4,0.5,15.7-3.5c4.8-3.6,2-8.7,6.3-20.7c3.9-11.1,10.6-18.7,13.2-21.7c6.3-7,7.6-5.6,10-9.9
				c2.4-4.3,3.3-9.3,0-31.5c-2.6-17.7-4.1-20.9-1.6-23.9c2.4-2.8,5.8-2.5,27-1.6c18.1,0.7,24.2,0.8,29.2-3.5
				c4.6-3.9,6.1-9.3,6.3-10.2c2.7-10.5-5.7-16.1-2.8-24.5c1.9-5.8,8.4-10.9,13.5-10.2c6.5,0.9,6.4,10.6,17,17.8
				c5.9,4.1,13.5,6.2,15.1,4.1c2.6-3.4-12.4-15.7-9.1-21.7c2.4-4.5,13.7-2.4,14.7-2.2c14.2,2.7,16.2,12.6,27.6,18.2
				c18,8.6,40.5-2.3,49.6-6.7c19.7-9.5,20.1-19,30.4-18.8C593,13,608,50.5,616.6,46.6z"/>
			<path class="st9" d="M142.5,196.7c-2.4,0.5-1,7.3-5.9,17c-2.7,5.2-3.9,4.8-5.6,8.7c-3.1,7.3-0.3,12.2,0.3,23
				c0.8,11.2-1,25-4.4,25.6c-3.1,0.6-6.9-10.9-7.8-10.6c-1.1,0.4,8.1,15.2,3.7,28.6c-3.1,9.5-11.7,14.1-10,17
				c1.6,2.7,8.9-1.6,16.3,2.6c2.4,1.4,4,3.5,7.1,7.5c4.5,6.1,6,10,9.3,15.8c2.2,4,1.7,2.6,11.2,16.6c6.1,9.1,9.2,13.8,11.9,18.5
				c5.8,10.3,8.7,15.5,8.2,20.3c-1.1,9.5-10.6,15.4-15.6,18.5c-4.8,3-10.1,6.3-16,4.9c-4.6-1.1-5.9-4.2-10.8-4.1
				c-5.1,0-7.2,3.5-9.3,2.3c-2.7-1.6,0.6-7.6-2.6-14.3c-0.2-0.4-3.4-6.9-9.3-7.9c-5.5-0.9-10.2,3.4-11.9,4.9
				c-8.2,7.5-7.2,16.7-11.2,39.6c-3.9,22.7-8,31.7-4.1,34.3c3.2,2.1,9.9-1.2,13.8-5.3c6.6-7,2.7-13.9,9.3-23
				c0.8-1.1,7.3-10.1,14.1-8.7c5.8,1.2,10.5,9.8,9.3,16.6c-1.5,8.6-11.3,8.6-14.8,19.2c-0.3,0.9-3.1,9.6,1.5,16.6
				c3.8,5.8,10.6,7,16,7.9c5.1,0.9,13.7,2.4,17.9-2.3c2.5-2.8,1-5.2,3.7-17c1.2-5.3,2.2-9.4,3.7-9.4c1.7-0.1,3.7,5.3,4.4,9.8
				c1.1,7.2-1.4,10.2,0.8,12.8c2.4,2.9,7.9,2.4,11.5,0.8c0.7-0.3,6.5-3,6.7-8.3c0.1-3.6-2.4-6.9-5.2-8.3c-4.4-2.3-8.2,0.7-10-1.5
				c-1.7-2.1,0-6.9,2.3-9.8c2.5-3.3,4.4-2.4,6.3-5.3c1.6-2.4,1.2-4.5,1.1-13.2c-0.1-5.9-0.2-8.8,0-9.8c0.9-6.3,5.2-9.5,13-17
				c9.2-8.8,2.8-3.8,19.7-20.3c10-9.8,15-14.7,17.1-15.8c8.9-4.9,14.6-3.2,34.2-4.1c19.4-0.9,29.1-1.4,37.9-4.9
				c18.3-7.3,16-17.5,31.9-23.4c23.1-8.6,48.2,5.5,50.6,6.8c17.6,10.1,17.1,21.2,32.7,25.2c13.8,3.6,17.5-4.1,31.6-0.8
				c21,5,31.4,26.6,33.8,24.9c2.2-1.6-7.4-18.7-10-23.4c-8.8-15.6-13.4-20.4-21.2-33.9c-7.5-13.1-11.2-19.6-13-26.8
				c-6-24.6,7.4-39.7-1.1-48.2c-4.2-4.2-11.1-4-22.3-3.8c-13.3,0.3-15.8,4.2-24.9,2.6c-7.8-1.4-19-6.5-20.1-13.9
				c-1-7.2,8.3-10.9,8.2-22.2c0-2.8-0.1-7-2.6-8.7c-1.8-1.2-5.3-1.2-27.1,11.3c-6.3,3.6-9.2,5.5-11.9,4.1c-3.2-1.7-2.3-6.4-7.4-12.8
				c-2.3-2.8-3.7-4.6-5.9-4.9c-4.9-0.7-6.8,6.2-14.5,10.6c-6.3,3.5-12.7,3.1-20.4,2.6c-12.1-0.8-11.9-4.2-19.4-4.1
				c-13.8,0.2-17.4,12.2-39.8,18.5c-6,1.7-9.9,2-13,0c-5.8-3.6-1.1-12.9-5.9-17.3c-7.2-6.7-23.6,7.3-32.4,0.4
				c-6.3-5-3.7-17-8.5-18.1c-3.1-0.7-4.5,4.1-8.5,4.1C151,214.1,146.4,195.8,142.5,196.7z"/>
			<ellipse class="st10" cx="158.1" cy="232.2" rx="12.6" ry="12.8"/>
			<ellipse class="st11" cx="384.5" cy="121" rx="12.6" ry="12.8"/>
			<ellipse class="st11" cx="672.3" cy="237.8" rx="12.6" ry="12.8"/>
			<ellipse class="st12" cx="589.5" cy="97" rx="12.6" ry="12.8"/>
			<ellipse class="st13" cx="109.2" cy="133.8" rx="12.6" ry="12.8"/>
			<ellipse class="st11" cx="190.7" cy="273.8" rx="7.1" ry="7.2"/>
			<ellipse class="st11" cx="227" cy="241.4" rx="7.1" ry="7.2"/>
			<ellipse class="st11" cx="255" cy="289.7" rx="6.7" ry="6.4"/>
			<ellipse class="st8" cx="346" cy="281" rx="13.4" ry="10.4"/>
			<ellipse class="st11" cx="398.9" cy="373.3" rx="4.7" ry="6"/>
			<ellipse class="st11" cx="196.2" cy="498.1" rx="4.7" ry="6"/>
			<ellipse class="st11" cx="503.8" cy="487.7" rx="4.7" ry="6"/>
			<ellipse class="st11" cx="708.9" cy="332.5" rx="4.7" ry="6"/>
			<ellipse class="st11" cx="708.1" cy="219" rx="4.7" ry="6"/>
			<ellipse class="st11" cx="429.6" cy="327.7" rx="6.3" ry="6"/>
			<ellipse class="st11" cx="429.6" cy="275.8" rx="3.9" ry="5.2"/>
			<ellipse class="st11" cx="495.5" cy="251" rx="5.9" ry="5.2"/>
			<ellipse class="st11" cx="529.1" cy="207.4" rx="4.7" ry="5.6"/>
			<ellipse class="st11" cx="355.5" cy="209" rx="4.7" ry="5.6"/>
			<ellipse class="st11" cx="430.1" cy="191.4" rx="4.4" ry="3.2"/>
			<ellipse class="st11" cx="477.8" cy="426.1" rx="4.7" ry="3.6"/>
			<ellipse class="st14" cx="559" cy="412.1" rx="10.5" ry="12.8"/>
			<ellipse class="st15" cx="258.9" cy="457.3" rx="11.4" ry="10.8"/>
			<ellipse class="st6" cx="105.5" cy="362.9" rx="10.3" ry="10"/>
			<ellipse class="st11" cx="45.5" cy="281.7" rx="11.1" ry="13.6"/>
		</g>
	</g>
</g>
<g id="Layer_2">
	<g>
		<g>
			<polyline class="st16" points="655.6,190.9 654.6,189.2 652.6,189.2 			"/>
			<line class="st17" x1="648.8" y1="189.2" x2="549.6" y2="189.2"/>
			<polyline class="st16" points="547.7,189.2 545.7,189.2 544.7,190.9 			"/>
			<line class="st17" x1="542.7" y1="194.3" x2="493.2" y2="280.1"/>
			<polyline class="st16" points="492.2,281.8 491.2,283.6 492.2,285.3 			"/>
			<line class="st17" x1="494.1" y1="288.7" x2="543.7" y2="374.5"/>
			<polyline class="st16" points="544.7,376.2 545.7,377.9 547.7,377.9 			"/>
			<line class="st17" x1="551.6" y1="377.9" x2="650.7" y2="377.9"/>
			<polyline class="st16" points="652.6,377.9 654.6,377.9 655.6,376.2 			"/>
			<line class="st17" x1="657.6" y1="372.8" x2="707.1" y2="287"/>
			<polyline class="st16" points="708.1,285.3 709.1,283.6 708.1,281.8 			"/>
			<line class="st17" x1="706.2" y1="278.5" x2="656.6" y2="192.6"/>
		</g>
	</g>
	<g>
		<g>
			
				<linearGradient id="SVGID_1_" gradientUnits="userSpaceOnUse" x1="654.8022" y1="282.4071" x2="874.4612" y2="282.4071" gradientTransform="matrix(1 0 0 1 0 2)">
				<stop  offset="0" style="stop-color:#C0D6DD"/>
				<stop  offset="0.7921" style="stop-color:#FFFFFF"/>
			</linearGradient>
			<polyline class="st18" points="820.1,285.5 819.1,283.7 817.1,283.7 			"/>
			
				<linearGradient id="SVGID_2_" gradientUnits="userSpaceOnUse" x1="654.8022" y1="281.7" x2="874.4612" y2="281.7" gradientTransform="matrix(1 0 0 1 0 2)">
				<stop  offset="0" style="stop-color:#C0D6DD"/>
				<stop  offset="0.7921" style="stop-color:#FFFFFF"/>
			</linearGradient>
			<line class="st19" x1="813.2" y1="283.7" x2="714.1" y2="283.7"/>
			
				<linearGradient id="SVGID_3_" gradientUnits="userSpaceOnUse" x1="654.8022" y1="282.4071" x2="874.4612" y2="282.4071" gradientTransform="matrix(1 0 0 1 0 2)">
				<stop  offset="0" style="stop-color:#C0D6DD"/>
				<stop  offset="0.7921" style="stop-color:#FFFFFF"/>
			</linearGradient>
			<polyline class="st20" points="712.2,283.7 710.2,283.7 709.2,285.5 			"/>
			
				<linearGradient id="SVGID_4_" gradientUnits="userSpaceOnUse" x1="654.8022" y1="329.75" x2="874.4612" y2="329.75" gradientTransform="matrix(1 0 0 1 0 2)">
				<stop  offset="0" style="stop-color:#C0D6DD"/>
				<stop  offset="0.7921" style="stop-color:#FFFFFF"/>
			</linearGradient>
			<line class="st21" x1="707.2" y1="288.8" x2="657.6" y2="374.7"/>
			
				<linearGradient id="SVGID_5_" gradientUnits="userSpaceOnUse" x1="654.802" y1="376.1" x2="874.461" y2="376.1" gradientTransform="matrix(1 0 0 1 0 2)">
				<stop  offset="0" style="stop-color:#C0D6DD"/>
				<stop  offset="0.7921" style="stop-color:#FFFFFF"/>
			</linearGradient>
			<polyline class="st22" points="656.7,376.4 655.7,378.1 656.7,379.8 			"/>
			
				<linearGradient id="SVGID_6_" gradientUnits="userSpaceOnUse" x1="654.8022" y1="424.1" x2="874.4612" y2="424.1" gradientTransform="matrix(1 0 0 1 0 2)">
				<stop  offset="0" style="stop-color:#C0D6DD"/>
				<stop  offset="0.7921" style="stop-color:#FFFFFF"/>
			</linearGradient>
			<line class="st23" x1="658.6" y1="383.2" x2="708.2" y2="469"/>
			
				<linearGradient id="SVGID_7_" gradientUnits="userSpaceOnUse" x1="654.8022" y1="469.7929" x2="874.4612" y2="469.7929" gradientTransform="matrix(1 0 0 1 0 2)">
				<stop  offset="0" style="stop-color:#C0D6DD"/>
				<stop  offset="0.7921" style="stop-color:#FFFFFF"/>
			</linearGradient>
			<polyline class="st24" points="709.2,470.7 710.2,472.5 712.2,472.5 			"/>
			
				<linearGradient id="SVGID_8_" gradientUnits="userSpaceOnUse" x1="654.8022" y1="470.5" x2="874.4612" y2="470.5" gradientTransform="matrix(1 0 0 1 0 2)">
				<stop  offset="0" style="stop-color:#C0D6DD"/>
				<stop  offset="0.7921" style="stop-color:#FFFFFF"/>
			</linearGradient>
			<line class="st25" x1="716" y1="472.5" x2="815.2" y2="472.5"/>
			
				<linearGradient id="SVGID_9_" gradientUnits="userSpaceOnUse" x1="654.8022" y1="469.7929" x2="874.4612" y2="469.7929" gradientTransform="matrix(1 0 0 1 0 2)">
				<stop  offset="0" style="stop-color:#C0D6DD"/>
				<stop  offset="0.7921" style="stop-color:#FFFFFF"/>
			</linearGradient>
			<polyline class="st26" points="817.1,472.5 819.1,472.5 820.1,470.7 			"/>
			
				<linearGradient id="SVGID_10_" gradientUnits="userSpaceOnUse" x1="654.8022" y1="422.45" x2="874.4612" y2="422.45" gradientTransform="matrix(1 0 0 1 0 2)">
				<stop  offset="0" style="stop-color:#C0D6DD"/>
				<stop  offset="0.7921" style="stop-color:#FFFFFF"/>
			</linearGradient>
			<line class="st27" x1="822.1" y1="467.4" x2="871.6" y2="381.5"/>
			
				<linearGradient id="SVGID_11_" gradientUnits="userSpaceOnUse" x1="654.8022" y1="376.1" x2="874.4612" y2="376.1" gradientTransform="matrix(1 0 0 1 0 2)">
				<stop  offset="0" style="stop-color:#C0D6DD"/>
				<stop  offset="0.7921" style="stop-color:#FFFFFF"/>
			</linearGradient>
			<polyline class="st28" points="872.6,379.8 873.6,378.1 872.6,376.4 			"/>
			
				<linearGradient id="SVGID_12_" gradientUnits="userSpaceOnUse" x1="654.8022" y1="328.05" x2="874.4612" y2="328.05" gradientTransform="matrix(1 0 0 1 0 2)">
				<stop  offset="0" style="stop-color:#C0D6DD"/>
				<stop  offset="0.7921" style="stop-color:#FFFFFF"/>
			</linearGradient>
			<line class="st29" x1="870.7" y1="373" x2="821.1" y2="287.1"/>
		</g>
	</g>
	<g>
		<g>
			
				<linearGradient id="SVGID_13_" gradientUnits="userSpaceOnUse" x1="654.4232" y1="189.147" x2="654.4232" y2="-1.0833" gradientTransform="matrix(1 0 0 1 0 2)">
				<stop  offset="0" style="stop-color:#C0D6DD"/>
				<stop  offset="0.7921" style="stop-color:#FFFFFF"/>
			</linearGradient>
			<polyline class="st30" points="655.6,3.4 654.6,1.7 652.6,1.7 			"/>
			
				<linearGradient id="SVGID_14_" gradientUnits="userSpaceOnUse" x1="599.2" y1="189.147" x2="599.2" y2="-1.0833" gradientTransform="matrix(1 0 0 1 0 2)">
				<stop  offset="0" style="stop-color:#C0D6DD"/>
				<stop  offset="0.7921" style="stop-color:#FFFFFF"/>
			</linearGradient>
			<line class="st31" x1="648.8" y1="1.7" x2="549.6" y2="1.7"/>
			
				<linearGradient id="SVGID_15_" gradientUnits="userSpaceOnUse" x1="545.8768" y1="189.147" x2="545.8768" y2="-1.0833" gradientTransform="matrix(1 0 0 1 0 2)">
				<stop  offset="0" style="stop-color:#C0D6DD"/>
				<stop  offset="0.7921" style="stop-color:#FFFFFF"/>
			</linearGradient>
			<polyline class="st32" points="547.7,1.7 545.7,1.7 544.7,3.4 			"/>
			
				<linearGradient id="SVGID_16_" gradientUnits="userSpaceOnUse" x1="517.95" y1="189.147" x2="517.95" y2="-1.0833" gradientTransform="matrix(1 0 0 1 0 2)">
				<stop  offset="0" style="stop-color:#C0D6DD"/>
				<stop  offset="0.7921" style="stop-color:#FFFFFF"/>
			</linearGradient>
			<line class="st33" x1="542.7" y1="6.8" x2="493.2" y2="92.6"/>
			
				<linearGradient id="SVGID_17_" gradientUnits="userSpaceOnUse" x1="491.5959" y1="189.147" x2="491.5959" y2="-1.0833" gradientTransform="matrix(1 0 0 1 0 2)">
				<stop  offset="0" style="stop-color:#C0D6DD"/>
				<stop  offset="0.7921" style="stop-color:#FFFFFF"/>
			</linearGradient>
			<polyline class="st34" points="492.2,94.3 491.2,96 492.2,97.8 			"/>
			
				<linearGradient id="SVGID_18_" gradientUnits="userSpaceOnUse" x1="518.9" y1="189.147" x2="518.9" y2="-1.0833" gradientTransform="matrix(1 0 0 1 0 2)">
				<stop  offset="0" style="stop-color:#C0D6DD"/>
				<stop  offset="0.7921" style="stop-color:#FFFFFF"/>
			</linearGradient>
			<line class="st35" x1="494.1" y1="101.1" x2="543.7" y2="187"/>
			
				<linearGradient id="SVGID_19_" gradientUnits="userSpaceOnUse" x1="545.8768" y1="189.147" x2="545.8768" y2="-1.0833" gradientTransform="matrix(1 0 0 1 0 2)">
				<stop  offset="0" style="stop-color:#C0D6DD"/>
				<stop  offset="0.7921" style="stop-color:#FFFFFF"/>
			</linearGradient>
			<polyline class="st36" points="544.7,188.7 545.7,190.4 547.7,190.4 			"/>
			
				<linearGradient id="SVGID_20_" gradientUnits="userSpaceOnUse" x1="601.15" y1="189.147" x2="601.15" y2="-1.0833" gradientTransform="matrix(1 0 0 1 0 2)">
				<stop  offset="0" style="stop-color:#C0D6DD"/>
				<stop  offset="0.7921" style="stop-color:#FFFFFF"/>
			</linearGradient>
			<line class="st37" x1="551.6" y1="190.4" x2="650.7" y2="190.4"/>
			
				<linearGradient id="SVGID_21_" gradientUnits="userSpaceOnUse" x1="654.4232" y1="189.147" x2="654.4232" y2="-1.0833" gradientTransform="matrix(1 0 0 1 0 2)">
				<stop  offset="0" style="stop-color:#C0D6DD"/>
				<stop  offset="0.7921" style="stop-color:#FFFFFF"/>
			</linearGradient>
			<polyline class="st38" points="652.6,190.4 654.6,190.4 655.6,188.7 			"/>
			
				<linearGradient id="SVGID_22_" gradientUnits="userSpaceOnUse" x1="682.35" y1="189.147" x2="682.35" y2="-1.0833" gradientTransform="matrix(1 0 0 1 0 2)">
				<stop  offset="0" style="stop-color:#C0D6DD"/>
				<stop  offset="0.7921" style="stop-color:#FFFFFF"/>
			</linearGradient>
			<line class="st39" x1="657.6" y1="185.3" x2="707.1" y2="99.4"/>
			
				<linearGradient id="SVGID_23_" gradientUnits="userSpaceOnUse" x1="708.7041" y1="189.147" x2="708.7041" y2="-1.0833" gradientTransform="matrix(1 0 0 1 0 2)">
				<stop  offset="0" style="stop-color:#C0D6DD"/>
				<stop  offset="0.7921" style="stop-color:#FFFFFF"/>
			</linearGradient>
			<polyline class="st40" points="708.1,97.8 709.1,96 708.1,94.3 			"/>
			
				<linearGradient id="SVGID_24_" gradientUnits="userSpaceOnUse" x1="681.4" y1="189.147" x2="681.4" y2="-1.0833" gradientTransform="matrix(1 0 0 1 0 2)">
				<stop  offset="0" style="stop-color:#C0D6DD"/>
				<stop  offset="0.7921" style="stop-color:#FFFFFF"/>
			</linearGradient>
			<line class="st41" x1="706.2" y1="90.9" x2="656.6" y2="5.1"/>
		</g>
	</g>
	<g>
		<g>
			
				<linearGradient id="SVGID_25_" gradientUnits="userSpaceOnUse" x1="653.265" y1="94.1071" x2="872.9241" y2="94.1071" gradientTransform="matrix(1 0 0 1 0 2)">
				<stop  offset="0" style="stop-color:#C0D6DD"/>
				<stop  offset="0.7921" style="stop-color:#FFFFFF"/>
			</linearGradient>
			<polyline class="st42" points="818.6,97.2 817.6,95.4 815.6,95.4 			"/>
			
				<linearGradient id="SVGID_26_" gradientUnits="userSpaceOnUse" x1="653.265" y1="93.4" x2="872.9241" y2="93.4" gradientTransform="matrix(1 0 0 1 0 2)">
				<stop  offset="0" style="stop-color:#C0D6DD"/>
				<stop  offset="0.7921" style="stop-color:#FFFFFF"/>
			</linearGradient>
			<line class="st43" x1="811.7" y1="95.4" x2="712.6" y2="95.4"/>
			
				<linearGradient id="SVGID_27_" gradientUnits="userSpaceOnUse" x1="653.265" y1="94.1071" x2="872.9241" y2="94.1071" gradientTransform="matrix(1 0 0 1 0 2)">
				<stop  offset="0" style="stop-color:#C0D6DD"/>
				<stop  offset="0.7921" style="stop-color:#FFFFFF"/>
			</linearGradient>
			<polyline class="st44" points="710.6,95.4 708.6,95.4 707.6,97.2 			"/>
			
				<linearGradient id="SVGID_28_" gradientUnits="userSpaceOnUse" x1="653.265" y1="141.45" x2="872.9241" y2="141.45" gradientTransform="matrix(1 0 0 1 0 2)">
				<stop  offset="0" style="stop-color:#C0D6DD"/>
				<stop  offset="0.7921" style="stop-color:#FFFFFF"/>
			</linearGradient>
			<line class="st45" x1="705.7" y1="100.5" x2="656.1" y2="186.4"/>
			
				<linearGradient id="SVGID_29_" gradientUnits="userSpaceOnUse" x1="653.265" y1="187.8" x2="872.924" y2="187.8" gradientTransform="matrix(1 0 0 1 0 2)">
				<stop  offset="0" style="stop-color:#C0D6DD"/>
				<stop  offset="0.7921" style="stop-color:#FFFFFF"/>
			</linearGradient>
			<polyline class="st46" points="655.1,188.1 654.1,189.8 655.1,191.5 			"/>
			
				<linearGradient id="SVGID_30_" gradientUnits="userSpaceOnUse" x1="653.265" y1="235.8" x2="872.9241" y2="235.8" gradientTransform="matrix(1 0 0 1 0 2)">
				<stop  offset="0" style="stop-color:#C0D6DD"/>
				<stop  offset="0.7921" style="stop-color:#FFFFFF"/>
			</linearGradient>
			<line class="st47" x1="657.1" y1="194.9" x2="706.6" y2="280.7"/>
			
				<linearGradient id="SVGID_31_" gradientUnits="userSpaceOnUse" x1="653.265" y1="281.4929" x2="872.9241" y2="281.4929" gradientTransform="matrix(1 0 0 1 0 2)">
				<stop  offset="0" style="stop-color:#C0D6DD"/>
				<stop  offset="0.7921" style="stop-color:#FFFFFF"/>
			</linearGradient>
			<polyline class="st48" points="707.6,282.4 708.6,284.2 710.6,284.2 			"/>
			
				<linearGradient id="SVGID_32_" gradientUnits="userSpaceOnUse" x1="653.265" y1="282.2" x2="872.9241" y2="282.2" gradientTransform="matrix(1 0 0 1 0 2)">
				<stop  offset="0" style="stop-color:#C0D6DD"/>
				<stop  offset="0.7921" style="stop-color:#FFFFFF"/>
			</linearGradient>
			<line class="st49" x1="714.5" y1="284.2" x2="813.6" y2="284.2"/>
			
				<linearGradient id="SVGID_33_" gradientUnits="userSpaceOnUse" x1="653.265" y1="281.4929" x2="872.9241" y2="281.4929" gradientTransform="matrix(1 0 0 1 0 2)">
				<stop  offset="0" style="stop-color:#C0D6DD"/>
				<stop  offset="0.7921" style="stop-color:#FFFFFF"/>
			</linearGradient>
			<polyline class="st50" points="815.6,284.2 817.6,284.2 818.6,282.4 			"/>
			
				<linearGradient id="SVGID_34_" gradientUnits="userSpaceOnUse" x1="653.265" y1="234.15" x2="872.9241" y2="234.15" gradientTransform="matrix(1 0 0 1 0 2)">
				<stop  offset="0" style="stop-color:#C0D6DD"/>
				<stop  offset="0.7921" style="stop-color:#FFFFFF"/>
			</linearGradient>
			<line class="st51" x1="820.5" y1="279.1" x2="870.1" y2="193.2"/>
			
				<linearGradient id="SVGID_35_" gradientUnits="userSpaceOnUse" x1="653.265" y1="187.8" x2="872.9241" y2="187.8" gradientTransform="matrix(1 0 0 1 0 2)">
				<stop  offset="0" style="stop-color:#C0D6DD"/>
				<stop  offset="0.7921" style="stop-color:#FFFFFF"/>
			</linearGradient>
			<polyline class="st52" points="871.1,191.5 872.1,189.8 871.1,188.1 			"/>
			
				<linearGradient id="SVGID_36_" gradientUnits="userSpaceOnUse" x1="653.265" y1="139.75" x2="872.9241" y2="139.75" gradientTransform="matrix(1 0 0 1 0 2)">
				<stop  offset="0" style="stop-color:#C0D6DD"/>
				<stop  offset="0.7921" style="stop-color:#FFFFFF"/>
			</linearGradient>
			<line class="st53" x1="869.1" y1="184.7" x2="819.5" y2="98.8"/>
		</g>
	</g>
	<g>
		<g>
			
				<linearGradient id="SVGID_37_" gradientUnits="userSpaceOnUse" x1="709.9856" y1="376.1651" x2="490.3266" y2="376.1651" gradientTransform="matrix(1 0 0 1 0 2)">
				<stop  offset="0" style="stop-color:#C0D6DD"/>
				<stop  offset="0.7921" style="stop-color:#FFFFFF"/>
			</linearGradient>
			<polyline class="st54" points="655.6,379.2 654.6,377.5 652.6,377.5 			"/>
			
				<linearGradient id="SVGID_38_" gradientUnits="userSpaceOnUse" x1="709.9856" y1="375.5" x2="490.3266" y2="375.5" gradientTransform="matrix(1 0 0 1 0 2)">
				<stop  offset="0" style="stop-color:#C0D6DD"/>
				<stop  offset="0.7921" style="stop-color:#FFFFFF"/>
			</linearGradient>
			<line class="st55" x1="648.8" y1="377.5" x2="549.6" y2="377.5"/>
			
				<linearGradient id="SVGID_39_" gradientUnits="userSpaceOnUse" x1="709.9856" y1="376.1651" x2="490.3266" y2="376.1651" gradientTransform="matrix(1 0 0 1 0 2)">
				<stop  offset="0" style="stop-color:#C0D6DD"/>
				<stop  offset="0.7921" style="stop-color:#FFFFFF"/>
			</linearGradient>
			<polyline class="st56" points="547.7,377.5 545.7,377.5 544.7,379.2 			"/>
			
				<linearGradient id="SVGID_40_" gradientUnits="userSpaceOnUse" x1="709.9856" y1="423.55" x2="490.3266" y2="423.55" gradientTransform="matrix(1 0 0 1 0 2)">
				<stop  offset="0" style="stop-color:#C0D6DD"/>
				<stop  offset="0.7921" style="stop-color:#FFFFFF"/>
			</linearGradient>
			<line class="st57" x1="542.7" y1="382.6" x2="493.2" y2="468.5"/>
			
				<linearGradient id="SVGID_41_" gradientUnits="userSpaceOnUse" x1="709.9856" y1="469.858" x2="490.3266" y2="469.858" gradientTransform="matrix(1 0 0 1 0 2)">
				<stop  offset="0" style="stop-color:#C0D6DD"/>
				<stop  offset="0.7921" style="stop-color:#FFFFFF"/>
			</linearGradient>
			<polyline class="st58" points="492.2,470.1 491.2,471.9 492.2,473.6 			"/>
			
				<linearGradient id="SVGID_42_" gradientUnits="userSpaceOnUse" x1="709.9856" y1="517.9" x2="490.3266" y2="517.9" gradientTransform="matrix(1 0 0 1 0 2)">
				<stop  offset="0" style="stop-color:#C0D6DD"/>
				<stop  offset="0.7921" style="stop-color:#FFFFFF"/>
			</linearGradient>
			<line class="st59" x1="494.1" y1="477" x2="543.7" y2="562.8"/>
			
				<linearGradient id="SVGID_43_" gradientUnits="userSpaceOnUse" x1="709.9856" y1="563.5349" x2="490.3266" y2="563.5349" gradientTransform="matrix(1 0 0 1 0 2)">
				<stop  offset="0" style="stop-color:#C0D6DD"/>
				<stop  offset="0.7921" style="stop-color:#FFFFFF"/>
			</linearGradient>
			<polyline class="st60" points="544.7,564.5 545.7,566.2 547.7,566.2 			"/>
			
				<linearGradient id="SVGID_44_" gradientUnits="userSpaceOnUse" x1="709.9856" y1="564.2" x2="490.3266" y2="564.2" gradientTransform="matrix(1 0 0 1 0 2)">
				<stop  offset="0" style="stop-color:#C0D6DD"/>
				<stop  offset="0.7921" style="stop-color:#FFFFFF"/>
			</linearGradient>
			<line class="st61" x1="551.6" y1="566.2" x2="650.7" y2="566.2"/>
			
				<linearGradient id="SVGID_45_" gradientUnits="userSpaceOnUse" x1="709.9856" y1="563.5349" x2="490.3266" y2="563.5349" gradientTransform="matrix(1 0 0 1 0 2)">
				<stop  offset="0" style="stop-color:#C0D6DD"/>
				<stop  offset="0.7921" style="stop-color:#FFFFFF"/>
			</linearGradient>
			<polyline class="st62" points="652.6,566.2 654.6,566.2 655.6,564.5 			"/>
			
				<linearGradient id="SVGID_46_" gradientUnits="userSpaceOnUse" x1="709.9856" y1="516.2" x2="490.3266" y2="516.2" gradientTransform="matrix(1 0 0 1 0 2)">
				<stop  offset="0" style="stop-color:#C0D6DD"/>
				<stop  offset="0.7921" style="stop-color:#FFFFFF"/>
			</linearGradient>
			<line class="st63" x1="657.6" y1="561.1" x2="707.1" y2="475.3"/>
			
				<linearGradient id="SVGID_47_" gradientUnits="userSpaceOnUse" x1="709.986" y1="469.858" x2="490.327" y2="469.858" gradientTransform="matrix(1 0 0 1 0 2)">
				<stop  offset="0" style="stop-color:#C0D6DD"/>
				<stop  offset="0.7921" style="stop-color:#FFFFFF"/>
			</linearGradient>
			<polyline class="st64" points="708.1,473.6 709.1,471.9 708.1,470.1 			"/>
			
				<linearGradient id="SVGID_48_" gradientUnits="userSpaceOnUse" x1="709.9856" y1="421.85" x2="490.3266" y2="421.85" gradientTransform="matrix(1 0 0 1 0 2)">
				<stop  offset="0" style="stop-color:#C0D6DD"/>
				<stop  offset="0.7921" style="stop-color:#FFFFFF"/>
			</linearGradient>
			<line class="st65" x1="706.2" y1="466.8" x2="656.6" y2="380.9"/>
		</g>
	</g>
	<g class="st66">
		<g>
			<polyline class="st16" points="655.6,190.3 654.6,188.5 652.6,188.5 			"/>
			<line class="st17" x1="648.8" y1="188.5" x2="549.6" y2="188.5"/>
			<polyline class="st16" points="547.7,188.5 545.7,188.5 544.7,190.3 			"/>
			<line class="st17" x1="542.7" y1="193.6" x2="493.2" y2="279.5"/>
			<polyline class="st16" points="492.2,281.2 491.2,282.9 492.2,284.6 			"/>
			<line class="st17" x1="494.1" y1="288" x2="543.7" y2="373.8"/>
			<polyline class="st16" points="544.7,375.5 545.7,377.3 547.7,377.3 			"/>
			<line class="st17" x1="551.6" y1="377.3" x2="650.7" y2="377.3"/>
			<polyline class="st16" points="652.6,377.3 654.6,377.3 655.6,375.5 			"/>
			<line class="st17" x1="657.6" y1="372.2" x2="707.1" y2="286.3"/>
			<polyline class="st16" points="708.1,284.6 709.1,282.9 708.1,281.2 			"/>
			<line class="st17" x1="706.2" y1="277.8" x2="656.6" y2="191.9"/>
		</g>
	</g>
	<g class="st66">
		<g>
			<polyline class="st16" points="491.9,285.5 490.9,283.7 488.9,283.7 			"/>
			<line class="st17" x1="485" y1="283.7" x2="385.9" y2="283.7"/>
			<polyline class="st16" points="384,283.7 382,283.7 381,285.5 			"/>
			<line class="st17" x1="379" y1="288.8" x2="329.5" y2="374.7"/>
			<polyline class="st16" points="328.5,376.4 327.5,378.1 328.5,379.8 			"/>
			<line class="st17" x1="330.4" y1="383.2" x2="380" y2="469"/>
			<polyline class="st16" points="381,470.7 382,472.5 384,472.5 			"/>
			<line class="st17" x1="387.9" y1="472.5" x2="487" y2="472.5"/>
			<polyline class="st16" points="488.9,472.5 490.9,472.5 491.9,470.7 			"/>
			<line class="st17" x1="493.9" y1="467.4" x2="543.4" y2="381.5"/>
			<polyline class="st16" points="544.4,379.8 545.4,378.1 544.4,376.4 			"/>
			<line class="st17" x1="542.5" y1="373" x2="492.9" y2="287.1"/>
		</g>
	</g>
	<g class="st66">
		<g>
			<polyline class="st16" points="491.9,97.2 490.9,95.4 488.9,95.4 			"/>
			<line class="st17" x1="485" y1="95.4" x2="385.9" y2="95.4"/>
			<polyline class="st16" points="384,95.4 382,95.4 381,97.2 			"/>
			<line class="st17" x1="379" y1="100.5" x2="329.5" y2="186.4"/>
			<polyline class="st16" points="328.5,188.1 327.5,189.8 328.5,191.5 			"/>
			<line class="st17" x1="330.4" y1="194.9" x2="380" y2="280.7"/>
			<polyline class="st16" points="381,282.4 382,284.2 384,284.2 			"/>
			<line class="st17" x1="387.9" y1="284.2" x2="487" y2="284.2"/>
			<polyline class="st16" points="488.9,284.2 490.9,284.2 491.9,282.4 			"/>
			<line class="st17" x1="493.9" y1="279.1" x2="543.4" y2="193.2"/>
			<polyline class="st16" points="544.4,191.5 545.4,189.8 544.4,188.1 			"/>
			<line class="st17" x1="542.5" y1="184.7" x2="492.9" y2="98.8"/>
		</g>
	</g>
	<g class="st67">
		<g>
			<polyline class="st68" points="328.2,191.7 327.2,190 325.2,190 			"/>
			<line class="st69" x1="321.3" y1="190" x2="222.2" y2="190"/>
			<polyline class="st68" points="220.3,190 218.3,190 217.3,191.7 			"/>
			<line class="st69" x1="215.3" y1="195.1" x2="165.8" y2="280.9"/>
			<polyline class="st68" points="164.8,282.6 163.8,284.3 164.8,286.1 			"/>
			<line class="st69" x1="166.7" y1="289.4" x2="216.3" y2="375.3"/>
			<polyline class="st68" points="217.3,377 218.3,378.7 220.3,378.7 			"/>
			<line class="st69" x1="224.1" y1="378.7" x2="323.3" y2="378.7"/>
			<polyline class="st68" points="325.2,378.7 327.2,378.7 328.2,377 			"/>
			<line class="st69" x1="330.2" y1="373.6" x2="379.7" y2="287.7"/>
			<polyline class="st68" points="380.7,286.1 381.7,284.3 380.7,282.6 			"/>
			<line class="st69" x1="378.8" y1="279.2" x2="329.2" y2="193.4"/>
		</g>
	</g>
	<g>
		<g>
			
				<linearGradient id="SVGID_49_" gradientUnits="userSpaceOnUse" x1="327.0278" y1="189.5185" x2="327.0278" y2="-0.7118" gradientTransform="matrix(1 0 0 1 0 2)">
				<stop  offset="0" style="stop-color:#C0D6DD"/>
				<stop  offset="0.7921" style="stop-color:#FFFFFF"/>
			</linearGradient>
			<polyline class="st70" points="328.2,3.8 327.2,2 325.2,2 			"/>
			
				<linearGradient id="SVGID_50_" gradientUnits="userSpaceOnUse" x1="271.75" y1="189.5185" x2="271.75" y2="-0.7118" gradientTransform="matrix(1 0 0 1 0 2)">
				<stop  offset="0" style="stop-color:#C0D6DD"/>
				<stop  offset="0.7921" style="stop-color:#FFFFFF"/>
			</linearGradient>
			<line class="st71" x1="321.3" y1="2" x2="222.2" y2="2"/>
			
				<linearGradient id="SVGID_51_" gradientUnits="userSpaceOnUse" x1="218.4722" y1="189.5185" x2="218.4722" y2="-0.7118" gradientTransform="matrix(1 0 0 1 0 2)">
				<stop  offset="0" style="stop-color:#C0D6DD"/>
				<stop  offset="0.7921" style="stop-color:#FFFFFF"/>
			</linearGradient>
			<polyline class="st72" points="220.3,2 218.3,2 217.3,3.8 			"/>
			
				<linearGradient id="SVGID_52_" gradientUnits="userSpaceOnUse" x1="190.55" y1="189.5185" x2="190.55" y2="-0.7118" gradientTransform="matrix(1 0 0 1 0 2)">
				<stop  offset="0" style="stop-color:#C0D6DD"/>
				<stop  offset="0.7921" style="stop-color:#FFFFFF"/>
			</linearGradient>
			<line class="st73" x1="215.3" y1="7.1" x2="165.8" y2="93"/>
			
				<linearGradient id="SVGID_53_" gradientUnits="userSpaceOnUse" x1="164.1882" y1="189.5185" x2="164.1882" y2="-0.7118" gradientTransform="matrix(1 0 0 1 0 2)">
				<stop  offset="0" style="stop-color:#C0D6DD"/>
				<stop  offset="0.7921" style="stop-color:#FFFFFF"/>
			</linearGradient>
			<polyline class="st74" points="164.8,94.7 163.8,96.4 164.8,98.1 			"/>
			
				<linearGradient id="SVGID_54_" gradientUnits="userSpaceOnUse" x1="191.5" y1="189.5185" x2="191.5" y2="-0.7118" gradientTransform="matrix(1 0 0 1 0 2)">
				<stop  offset="0" style="stop-color:#C0D6DD"/>
				<stop  offset="0.7921" style="stop-color:#FFFFFF"/>
			</linearGradient>
			<line class="st75" x1="166.7" y1="101.5" x2="216.3" y2="187.4"/>
			
				<linearGradient id="SVGID_55_" gradientUnits="userSpaceOnUse" x1="218.4722" y1="189.518" x2="218.4722" y2="-0.7123" gradientTransform="matrix(1 0 0 1 0 2)">
				<stop  offset="0" style="stop-color:#C0D6DD"/>
				<stop  offset="0.7921" style="stop-color:#FFFFFF"/>
			</linearGradient>
			<polyline class="st76" points="217.3,189 218.3,190.8 220.3,190.8 			"/>
			
				<linearGradient id="SVGID_56_" gradientUnits="userSpaceOnUse" x1="273.7" y1="189.518" x2="273.7" y2="-0.7123" gradientTransform="matrix(1 0 0 1 0 2)">
				<stop  offset="0" style="stop-color:#C0D6DD"/>
				<stop  offset="0.7921" style="stop-color:#FFFFFF"/>
			</linearGradient>
			<line class="st77" x1="224.1" y1="190.8" x2="323.3" y2="190.8"/>
			
				<linearGradient id="SVGID_57_" gradientUnits="userSpaceOnUse" x1="327.0278" y1="189.518" x2="327.0278" y2="-0.7123" gradientTransform="matrix(1 0 0 1 0 2)">
				<stop  offset="0" style="stop-color:#C0D6DD"/>
				<stop  offset="0.7921" style="stop-color:#FFFFFF"/>
			</linearGradient>
			<polyline class="st78" points="325.2,190.8 327.2,190.8 328.2,189 			"/>
			
				<linearGradient id="SVGID_58_" gradientUnits="userSpaceOnUse" x1="354.95" y1="189.5185" x2="354.95" y2="-0.7118" gradientTransform="matrix(1 0 0 1 0 2)">
				<stop  offset="0" style="stop-color:#C0D6DD"/>
				<stop  offset="0.7921" style="stop-color:#FFFFFF"/>
			</linearGradient>
			<line class="st79" x1="330.2" y1="185.7" x2="379.7" y2="99.8"/>
			
				<linearGradient id="SVGID_59_" gradientUnits="userSpaceOnUse" x1="381.3119" y1="189.5185" x2="381.3119" y2="-0.7118" gradientTransform="matrix(1 0 0 1 0 2)">
				<stop  offset="0" style="stop-color:#C0D6DD"/>
				<stop  offset="0.7921" style="stop-color:#FFFFFF"/>
			</linearGradient>
			<polyline class="st80" points="380.7,98.1 381.7,96.4 380.7,94.7 			"/>
			
				<linearGradient id="SVGID_60_" gradientUnits="userSpaceOnUse" x1="354" y1="189.5185" x2="354" y2="-0.7118" gradientTransform="matrix(1 0 0 1 0 2)">
				<stop  offset="0" style="stop-color:#C0D6DD"/>
				<stop  offset="0.7921" style="stop-color:#FFFFFF"/>
			</linearGradient>
			<line class="st81" x1="378.8" y1="91.3" x2="329.2" y2="5.5"/>
		</g>
	</g>
	<g>
		<g>
			
				<linearGradient id="SVGID_61_" gradientUnits="userSpaceOnUse" x1="162.9125" y1="376.9651" x2="382.5715" y2="376.9651" gradientTransform="matrix(1 0 0 1 0 2)">
				<stop  offset="0" style="stop-color:#C0D6DD"/>
				<stop  offset="0.7921" style="stop-color:#FFFFFF"/>
			</linearGradient>
			<polyline class="st82" points="328.2,380 327.2,378.3 325.2,378.3 			"/>
			
				<linearGradient id="SVGID_62_" gradientUnits="userSpaceOnUse" x1="162.9125" y1="376.3" x2="382.5715" y2="376.3" gradientTransform="matrix(1 0 0 1 0 2)">
				<stop  offset="0" style="stop-color:#C0D6DD"/>
				<stop  offset="0.7921" style="stop-color:#FFFFFF"/>
			</linearGradient>
			<line class="st83" x1="321.3" y1="378.3" x2="222.2" y2="378.3"/>
			
				<linearGradient id="SVGID_63_" gradientUnits="userSpaceOnUse" x1="162.9125" y1="376.9651" x2="382.5715" y2="376.9651" gradientTransform="matrix(1 0 0 1 0 2)">
				<stop  offset="0" style="stop-color:#C0D6DD"/>
				<stop  offset="0.7921" style="stop-color:#FFFFFF"/>
			</linearGradient>
			<polyline class="st84" points="220.3,378.3 218.3,378.3 217.3,380 			"/>
			
				<linearGradient id="SVGID_64_" gradientUnits="userSpaceOnUse" x1="162.9125" y1="424.3" x2="382.5715" y2="424.3" gradientTransform="matrix(1 0 0 1 0 2)">
				<stop  offset="0" style="stop-color:#C0D6DD"/>
				<stop  offset="0.7921" style="stop-color:#FFFFFF"/>
			</linearGradient>
			<line class="st85" x1="215.3" y1="383.4" x2="165.8" y2="469.2"/>
			
				<linearGradient id="SVGID_65_" gradientUnits="userSpaceOnUse" x1="162.913" y1="470.642" x2="382.572" y2="470.642" gradientTransform="matrix(1 0 0 1 0 2)">
				<stop  offset="0" style="stop-color:#C0D6DD"/>
				<stop  offset="0.7921" style="stop-color:#FFFFFF"/>
			</linearGradient>
			<polyline class="st86" points="164.8,470.9 163.8,472.6 164.8,474.4 			"/>
			
				<linearGradient id="SVGID_66_" gradientUnits="userSpaceOnUse" x1="162.9125" y1="518.65" x2="382.5715" y2="518.65" gradientTransform="matrix(1 0 0 1 0 2)">
				<stop  offset="0" style="stop-color:#C0D6DD"/>
				<stop  offset="0.7921" style="stop-color:#FFFFFF"/>
			</linearGradient>
			<line class="st87" x1="166.7" y1="477.7" x2="216.3" y2="563.6"/>
			
				<linearGradient id="SVGID_67_" gradientUnits="userSpaceOnUse" x1="162.9125" y1="564.3348" x2="382.5715" y2="564.3348" gradientTransform="matrix(1 0 0 1 0 2)">
				<stop  offset="0" style="stop-color:#C0D6DD"/>
				<stop  offset="0.7921" style="stop-color:#FFFFFF"/>
			</linearGradient>
			<polyline class="st88" points="217.3,565.3 218.3,567 220.3,567 			"/>
			
				<linearGradient id="SVGID_68_" gradientUnits="userSpaceOnUse" x1="162.9125" y1="565" x2="382.5715" y2="565" gradientTransform="matrix(1 0 0 1 0 2)">
				<stop  offset="0" style="stop-color:#C0D6DD"/>
				<stop  offset="0.7921" style="stop-color:#FFFFFF"/>
			</linearGradient>
			<line class="st89" x1="224.1" y1="567" x2="323.3" y2="567"/>
			
				<linearGradient id="SVGID_69_" gradientUnits="userSpaceOnUse" x1="162.9125" y1="564.3348" x2="382.5715" y2="564.3348" gradientTransform="matrix(1 0 0 1 0 2)">
				<stop  offset="0" style="stop-color:#C0D6DD"/>
				<stop  offset="0.7921" style="stop-color:#FFFFFF"/>
			</linearGradient>
			<polyline class="st90" points="325.2,567 327.2,567 328.2,565.3 			"/>
			
				<linearGradient id="SVGID_70_" gradientUnits="userSpaceOnUse" x1="162.9125" y1="516.95" x2="382.5715" y2="516.95" gradientTransform="matrix(1 0 0 1 0 2)">
				<stop  offset="0" style="stop-color:#C0D6DD"/>
				<stop  offset="0.7921" style="stop-color:#FFFFFF"/>
			</linearGradient>
			<line class="st91" x1="330.2" y1="561.9" x2="379.7" y2="476"/>
			
				<linearGradient id="SVGID_71_" gradientUnits="userSpaceOnUse" x1="162.9125" y1="470.642" x2="382.5715" y2="470.642" gradientTransform="matrix(1 0 0 1 0 2)">
				<stop  offset="0" style="stop-color:#C0D6DD"/>
				<stop  offset="0.7921" style="stop-color:#FFFFFF"/>
			</linearGradient>
			<polyline class="st92" points="380.7,474.4 381.7,472.6 380.7,470.9 			"/>
			
				<linearGradient id="SVGID_72_" gradientUnits="userSpaceOnUse" x1="162.9125" y1="422.6" x2="382.5715" y2="422.6" gradientTransform="matrix(1 0 0 1 0 2)">
				<stop  offset="0" style="stop-color:#C0D6DD"/>
				<stop  offset="0.7921" style="stop-color:#FFFFFF"/>
			</linearGradient>
			<line class="st93" x1="378.8" y1="467.5" x2="329.2" y2="381.7"/>
		</g>
	</g>
	<g>
		<g>
			
				<linearGradient id="SVGID_73_" gradientUnits="userSpaceOnUse" x1="218.8645" y1="281.6651" x2="-0.7945" y2="281.6651" gradientTransform="matrix(1 0 0 1 0 2)">
				<stop  offset="0" style="stop-color:#C0D6DD"/>
				<stop  offset="0.7921" style="stop-color:#FFFFFF"/>
			</linearGradient>
			<polyline class="st94" points="164.5,284.7 163.5,283 161.5,283 			"/>
			
				<linearGradient id="SVGID_74_" gradientUnits="userSpaceOnUse" x1="218.8645" y1="281" x2="-0.7945" y2="281" gradientTransform="matrix(1 0 0 1 0 2)">
				<stop  offset="0" style="stop-color:#C0D6DD"/>
				<stop  offset="0.7921" style="stop-color:#FFFFFF"/>
			</linearGradient>
			<line class="st95" x1="157.6" y1="283" x2="58.5" y2="283"/>
			
				<linearGradient id="SVGID_75_" gradientUnits="userSpaceOnUse" x1="218.8645" y1="281.6651" x2="-0.7945" y2="281.6651" gradientTransform="matrix(1 0 0 1 0 2)">
				<stop  offset="0" style="stop-color:#C0D6DD"/>
				<stop  offset="0.7921" style="stop-color:#FFFFFF"/>
			</linearGradient>
			<polyline class="st96" points="56.6,283 54.6,283 53.6,284.7 			"/>
			
				<linearGradient id="SVGID_76_" gradientUnits="userSpaceOnUse" x1="218.8645" y1="329" x2="-0.7945" y2="329" gradientTransform="matrix(1 0 0 1 0 2)">
				<stop  offset="0" style="stop-color:#C0D6DD"/>
				<stop  offset="0.7921" style="stop-color:#FFFFFF"/>
			</linearGradient>
			<line class="st97" x1="51.6" y1="288.1" x2="2" y2="373.9"/>
			
				<linearGradient id="SVGID_77_" gradientUnits="userSpaceOnUse" x1="218.8645" y1="375.342" x2="-0.7945" y2="375.342" gradientTransform="matrix(1 0 0 1 0 2)">
				<stop  offset="0" style="stop-color:#C0D6DD"/>
				<stop  offset="0.7921" style="stop-color:#FFFFFF"/>
			</linearGradient>
			<polyline class="st98" points="1.1,375.6 0.1,377.3 1.1,379.1 			"/>
			
				<linearGradient id="SVGID_78_" gradientUnits="userSpaceOnUse" x1="218.8645" y1="423.35" x2="-0.7945" y2="423.35" gradientTransform="matrix(1 0 0 1 0 2)">
				<stop  offset="0" style="stop-color:#C0D6DD"/>
				<stop  offset="0.7921" style="stop-color:#FFFFFF"/>
			</linearGradient>
			<line class="st99" x1="3" y1="382.4" x2="52.6" y2="468.3"/>
			
				<linearGradient id="SVGID_79_" gradientUnits="userSpaceOnUse" x1="218.8645" y1="469.0349" x2="-0.7945" y2="469.0349" gradientTransform="matrix(1 0 0 1 0 2)">
				<stop  offset="0" style="stop-color:#C0D6DD"/>
				<stop  offset="0.7921" style="stop-color:#FFFFFF"/>
			</linearGradient>
			<polyline class="st100" points="53.6,470 54.6,471.7 56.6,471.7 			"/>
			
				<linearGradient id="SVGID_80_" gradientUnits="userSpaceOnUse" x1="218.8645" y1="469.7" x2="-0.7945" y2="469.7" gradientTransform="matrix(1 0 0 1 0 2)">
				<stop  offset="0" style="stop-color:#C0D6DD"/>
				<stop  offset="0.7921" style="stop-color:#FFFFFF"/>
			</linearGradient>
			<line class="st101" x1="60.4" y1="471.7" x2="159.6" y2="471.7"/>
			
				<linearGradient id="SVGID_81_" gradientUnits="userSpaceOnUse" x1="218.8645" y1="469.0349" x2="-0.7945" y2="469.0349" gradientTransform="matrix(1 0 0 1 0 2)">
				<stop  offset="0" style="stop-color:#C0D6DD"/>
				<stop  offset="0.7921" style="stop-color:#FFFFFF"/>
			</linearGradient>
			<polyline class="st102" points="161.5,471.7 163.5,471.7 164.5,470 			"/>
			
				<linearGradient id="SVGID_82_" gradientUnits="userSpaceOnUse" x1="218.8645" y1="421.65" x2="-0.7945" y2="421.65" gradientTransform="matrix(1 0 0 1 0 2)">
				<stop  offset="0" style="stop-color:#C0D6DD"/>
				<stop  offset="0.7921" style="stop-color:#FFFFFF"/>
			</linearGradient>
			<line class="st103" x1="166.5" y1="466.6" x2="216" y2="380.7"/>
			
				<linearGradient id="SVGID_83_" gradientUnits="userSpaceOnUse" x1="218.8639" y1="375.342" x2="-0.7951" y2="375.342" gradientTransform="matrix(1 0 0 1 0 2)">
				<stop  offset="0" style="stop-color:#C0D6DD"/>
				<stop  offset="0.7921" style="stop-color:#FFFFFF"/>
			</linearGradient>
			<polyline class="st104" points="217,379.1 218,377.3 217,375.6 			"/>
			
				<linearGradient id="SVGID_84_" gradientUnits="userSpaceOnUse" x1="218.8645" y1="327.3" x2="-0.7945" y2="327.3" gradientTransform="matrix(1 0 0 1 0 2)">
				<stop  offset="0" style="stop-color:#C0D6DD"/>
				<stop  offset="0.7921" style="stop-color:#FFFFFF"/>
			</linearGradient>
			<line class="st105" x1="215.1" y1="372.2" x2="165.5" y2="286.4"/>
		</g>
	</g>
	<g>
		<g>
			
				<linearGradient id="SVGID_85_" gradientUnits="userSpaceOnUse" x1="218.8645" y1="93.3651" x2="-0.7945" y2="93.3651" gradientTransform="matrix(1 0 0 1 0 2)">
				<stop  offset="0" style="stop-color:#C0D6DD"/>
				<stop  offset="0.7921" style="stop-color:#FFFFFF"/>
			</linearGradient>
			<polyline class="st106" points="164.5,96.4 163.5,94.7 161.5,94.7 			"/>
			
				<linearGradient id="SVGID_86_" gradientUnits="userSpaceOnUse" x1="218.8645" y1="92.7" x2="-0.7945" y2="92.7" gradientTransform="matrix(1 0 0 1 0 2)">
				<stop  offset="0" style="stop-color:#C0D6DD"/>
				<stop  offset="0.7921" style="stop-color:#FFFFFF"/>
			</linearGradient>
			<line class="st107" x1="157.6" y1="94.7" x2="58.5" y2="94.7"/>
			
				<linearGradient id="SVGID_87_" gradientUnits="userSpaceOnUse" x1="218.8645" y1="93.3651" x2="-0.7945" y2="93.3651" gradientTransform="matrix(1 0 0 1 0 2)">
				<stop  offset="0" style="stop-color:#C0D6DD"/>
				<stop  offset="0.7921" style="stop-color:#FFFFFF"/>
			</linearGradient>
			<polyline class="st108" points="56.6,94.7 54.6,94.7 53.6,96.4 			"/>
			
				<linearGradient id="SVGID_88_" gradientUnits="userSpaceOnUse" x1="218.8645" y1="140.7" x2="-0.7945" y2="140.7" gradientTransform="matrix(1 0 0 1 0 2)">
				<stop  offset="0" style="stop-color:#C0D6DD"/>
				<stop  offset="0.7921" style="stop-color:#FFFFFF"/>
			</linearGradient>
			<line class="st109" x1="51.6" y1="99.8" x2="2" y2="185.6"/>
			
				<linearGradient id="SVGID_89_" gradientUnits="userSpaceOnUse" x1="218.8645" y1="187.042" x2="-0.7945" y2="187.042" gradientTransform="matrix(1 0 0 1 0 2)">
				<stop  offset="0" style="stop-color:#C0D6DD"/>
				<stop  offset="0.7921" style="stop-color:#FFFFFF"/>
			</linearGradient>
			<polyline class="st110" points="1.1,187.3 0.1,189 1.1,190.8 			"/>
			
				<linearGradient id="SVGID_90_" gradientUnits="userSpaceOnUse" x1="218.8645" y1="235.0501" x2="-0.7945" y2="235.05" gradientTransform="matrix(1 0 0 1 0 2)">
				<stop  offset="0" style="stop-color:#C0D6DD"/>
				<stop  offset="0.7921" style="stop-color:#FFFFFF"/>
			</linearGradient>
			<line class="st111" x1="3" y1="194.1" x2="52.6" y2="280"/>
			
				<linearGradient id="SVGID_91_" gradientUnits="userSpaceOnUse" x1="218.8645" y1="280.7349" x2="-0.7945" y2="280.7349" gradientTransform="matrix(1 0 0 1 0 2)">
				<stop  offset="0" style="stop-color:#C0D6DD"/>
				<stop  offset="0.7921" style="stop-color:#FFFFFF"/>
			</linearGradient>
			<polyline class="st112" points="53.6,281.7 54.6,283.4 56.6,283.4 			"/>
			
				<linearGradient id="SVGID_92_" gradientUnits="userSpaceOnUse" x1="218.8645" y1="281.4" x2="-0.7945" y2="281.4" gradientTransform="matrix(1 0 0 1 0 2)">
				<stop  offset="0" style="stop-color:#C0D6DD"/>
				<stop  offset="0.7921" style="stop-color:#FFFFFF"/>
			</linearGradient>
			<line class="st113" x1="60.4" y1="283.4" x2="159.6" y2="283.4"/>
			
				<linearGradient id="SVGID_93_" gradientUnits="userSpaceOnUse" x1="218.8645" y1="280.7349" x2="-0.7945" y2="280.7349" gradientTransform="matrix(1 0 0 1 0 2)">
				<stop  offset="0" style="stop-color:#C0D6DD"/>
				<stop  offset="0.7921" style="stop-color:#FFFFFF"/>
			</linearGradient>
			<polyline class="st114" points="161.5,283.4 163.5,283.4 164.5,281.7 			"/>
			
				<linearGradient id="SVGID_94_" gradientUnits="userSpaceOnUse" x1="218.8645" y1="233.35" x2="-0.7945" y2="233.35" gradientTransform="matrix(1 0 0 1 0 2)">
				<stop  offset="0" style="stop-color:#C0D6DD"/>
				<stop  offset="0.7921" style="stop-color:#FFFFFF"/>
			</linearGradient>
			<line class="st115" x1="166.5" y1="278.3" x2="216" y2="192.4"/>
			
				<linearGradient id="SVGID_95_" gradientUnits="userSpaceOnUse" x1="218.8639" y1="187.042" x2="-0.7951" y2="187.042" gradientTransform="matrix(1 0 0 1 0 2)">
				<stop  offset="0" style="stop-color:#C0D6DD"/>
				<stop  offset="0.7921" style="stop-color:#FFFFFF"/>
			</linearGradient>
			<polyline class="st116" points="217,190.8 218,189 217,187.3 			"/>
			
				<linearGradient id="SVGID_96_" gradientUnits="userSpaceOnUse" x1="218.8645" y1="139" x2="-0.7945" y2="139" gradientTransform="matrix(1 0 0 1 0 2)">
				<stop  offset="0" style="stop-color:#C0D6DD"/>
				<stop  offset="0.7921" style="stop-color:#FFFFFF"/>
			</linearGradient>
			<line class="st117" x1="215.1" y1="183.9" x2="165.5" y2="98.1"/>
		</g>
	</g>
</g>
<g id="Layer_3" class="st118">
	<g>
		<polygon class="st119" points="403.3,96.2 403.2,94.6 383.4,93 370.6,75.7 369.3,76.5 377.6,95.7 370,114.6 371.5,115.6 
			383.5,99.2 		"/>
		<polygon class="st119" points="337.5,209.4 339.1,208.4 330.2,190.8 339.4,171.3 337.9,170.2 325.1,187 304.8,189.2 304.8,191.5 
			324.8,193.8 		"/>
		<polygon class="st119" points="403.8,284.9 403.7,283 383.9,280.9 371,263.7 369.5,264.6 378.1,283.6 370.3,302.4 371.7,303.3 
			384,287.1 		"/>
		<polygon class="st119" points="501.3,303.2 502.9,302.2 494.8,283.9 503.3,264.2 502,263.4 489.5,280.3 469.6,283 469.6,284.9 
			489.6,287.2 		"/>
		<polygon class="st119" points="567.3,191.1 567.2,188.5 547.6,187.4 534.8,170 533.4,170.7 541.7,190 533.6,208.7 534.9,209.6 
			547.6,193.6 		"/>
		<polygon class="st119" points="501.2,115 502.6,114.2 495.3,95.6 503.8,75.8 502.5,75 490.1,91.8 469.9,94.7 469.9,96.2 490,98.7 
					"/>
	</g>
	<g>
		<polygon class="st119" points="566.9,189.9 566.8,188.3 547.1,186.7 534.3,169.4 532.9,170.2 541.3,189.4 533.7,208.3 
			535.2,209.3 547.2,192.9 		"/>
		<polygon class="st119" points="501.2,303.1 502.8,302.1 493.9,284.5 503,265 501.6,263.9 488.7,280.7 468.4,282.9 468.5,285.2 
			488.4,287.5 		"/>
		<polygon class="st119" points="567.4,378.6 567.4,376.7 547.6,374.6 534.7,357.4 533.1,358.3 541.8,377.3 534,396 535.3,397 
			547.7,380.8 		"/>
		<polygon class="st119" points="664.9,396.9 666.5,395.9 658.5,377.6 667,357.9 665.6,357.1 653.2,374 633.2,376.7 633.2,378.6 
			653.2,380.9 		"/>
		<polygon class="st119" points="730.9,284.8 730.9,282.2 711.2,281.1 698.5,263.7 697.1,264.4 705.4,283.7 697.2,302.4 
			698.5,303.3 711.2,287.3 		"/>
		<polygon class="st119" points="664.9,208.7 666.3,207.9 659,189.3 667.4,169.5 666.1,168.7 653.8,185.5 633.6,188.4 633.6,189.9 
			653.6,192.4 		"/>
	</g>
	<g>
		<polygon class="st119" points="403,284.5 402.9,282.9 383.1,281.3 370.3,264 369,264.8 377.3,284 369.7,302.9 371.2,303.9 
			383.2,287.5 		"/>
		<polygon class="st119" points="337.2,397.7 338.8,396.7 329.9,379.1 339.1,359.6 337.6,358.5 324.8,375.3 304.5,377.5 
			304.5,379.9 324.5,382.1 		"/>
		<polygon class="st119" points="403.5,473.2 403.4,471.3 383.6,469.2 370.7,452 369.1,452.9 377.8,471.9 370,490.7 371.4,491.6 
			383.7,475.4 		"/>
		<polygon class="st119" points="501,491.5 502.6,490.5 494.5,472.2 503,452.5 501.7,451.7 489.2,468.7 469.3,471.3 469.3,473.2 
			489.3,475.5 		"/>
		<polygon class="st119" points="567,379.5 566.9,376.8 547.3,375.7 534.5,358.3 533.1,359 541.4,378.3 533.3,397 534.6,397.9 
			547.3,381.9 		"/>
		<polygon class="st119" points="500.9,303.3 502.3,302.5 495,283.9 503.5,264.1 502.2,263.3 489.8,280.1 469.6,283 469.6,284.5 
			489.7,287 		"/>
	</g>
	<g>
		<polygon class="st119" points="238.9,190 238.8,188.5 219,186.8 206.3,169.5 204.9,170.3 213.3,189.5 205.7,208.4 207.2,209.4 
			219.2,193 		"/>
		<polygon class="st119" points="173.2,303.2 174.8,302.3 165.9,284.6 175,265.1 173.6,264 160.7,280.8 140.4,283 140.4,285.4 
			160.4,287.6 		"/>
		<polygon class="st119" points="239.4,378.8 239.4,376.8 219.6,374.7 206.7,357.5 205.1,358.4 213.8,377.4 206,396.2 207.3,397.1 
			219.7,380.9 		"/>
		<polygon class="st119" points="336.9,397 338.5,396 330.5,377.8 339,358 337.6,357.2 325.2,374.2 305.2,376.8 305.2,378.7 
			325.2,381 		"/>
		<polygon class="st119" points="402.9,285 402.9,282.3 383.2,281.2 370.5,263.8 369.1,264.5 377.4,283.8 369.2,302.5 370.5,303.4 
			383.2,287.4 		"/>
		<polygon class="st119" points="336.9,208.8 338.3,208 331,189.4 339.4,169.6 338.1,168.8 325.8,185.7 305.5,188.5 305.6,190 
			325.6,192.5 		"/>
	</g>
</g>
<g id="Layer_5">
	<g>
		<rect x="193.6" y="202.2" class="st120" width="155.7" height="155.7"/>
		<g>
			
				<linearGradient id="SVGID_97_" gradientUnits="userSpaceOnUse" x1="207.2" y1="223.35" x2="323.2347" y2="223.35" gradientTransform="matrix(1 0 0 1 0 58)">
				<stop  offset="0" style="stop-color:#61C099"/>
				<stop  offset="0.25" style="stop-color:#31BDBE"/>
				<stop  offset="0.75" style="stop-color:#31BDBE"/>
				<stop  offset="1" style="stop-color:#2CBBED"/>
			</linearGradient>
			<path class="st121" d="M321.2,287.5c-1.3,1.8-2.9,3.1-4.8,4.2s-4.2,1.8-6.4,2c-2.4,0.4-4.6,0.4-6.6,0.4h-1.3c-0.4,0-0.9,0-1.3,0
				v0.4c0,1.1,0.2,2.2,0.7,3.1c0.4,0.9,0.9,1.5,1.5,2.2s1.3,1.1,2,1.3s1.5,0.4,2.2,0.4c2.2,0,4-0.4,5.5-1.5c1.5-0.9,2.9-2.2,3.7-3.5
				c2.6,1.3,4,2.9,4,4.8c0,1.1-0.2,2-0.9,2.9s-1.3,1.3-2,2c-1.1,0.9-2.6,1.5-4.4,2.2s-4.2,1.1-7,1.1c-2.9,0-5.3-0.4-7-1.3
				c-2-0.9-3.5-2-4.6-3.3s-2-3.1-2.6-4.8c-0.4-1.8-0.9-3.7-0.9-5.7c0-3.1,0.4-6.2,1.5-9c0.9-2.9,2.4-5.3,4.2-7.5s4-3.7,6.6-5.1
				s5.7-2,9-2c1.8,0,3.3,0.2,4.8,0.9c1.3,0.4,2.6,1.3,3.5,2c0.9,0.9,1.8,2,2.2,3.1s0.7,2.4,0.7,4
				C323.2,283.3,322.5,285.7,321.2,287.5 M313.1,279.5c-0.4-0.7-1.3-0.9-2.6-0.9c-2.2,0-4.2,0.9-5.5,2.6c-1.5,1.8-2.6,4.2-3.3,7
				c0.4,0,0.9,0,1.1,0h1.1c1.1,0,2.4-0.2,3.5-0.4c1.1-0.2,2.2-0.7,3.3-1.1c0.9-0.4,1.8-1.3,2.4-2c0.7-0.9,0.9-1.8,0.9-2.9
				C313.7,280.9,313.5,280,313.1,279.5 M289.4,303c1.3,2.2,2.4,4.4,3.7,5.3c-1.8,0-6.4,0-6.8,0c-2.4,0-4.8,0-6.8-2.6
				c-1.1-1.8-7.7-14.5-8.1-15.6l-2.9,17.1c0,0.7-0.4,1.1-1.1,1.1h-8.1c-0.7,0-1.1-0.4-1.1-1.1l9-53.4c0.7,0,3.5-0.2,4-0.2
				c2,0,3.5,0.4,4.4,1.5c0.9,1.1,1.1,2,1.1,3.5c0,0.2-0.2,1.8-0.2,2l-4.4,25.9c0.2-0.7,10.8-12.7,10.8-12.7c0.9-1.1,1.8-1.8,2.6-2.2
				c0.9-0.4,2-0.7,3.3-0.7s2.4,0.2,3.3,0.9c0.9,0.4,1.8,1.1,2.4,2l-13.2,14.5C281.2,288.3,287.8,300.6,289.4,303 M255.1,265.3
				c-1.8,0-2.9-0.4-3.7-1.5s-1.3-2.2-1.3-3.7c0-2.2,0.7-3.7,1.8-5.1c1.3-1.1,2.6-1.8,4.4-1.8c1.5,0,2.9,0.4,3.7,1.5
				c0.9,1.1,1.3,2.4,1.3,4c0,2-0.7,3.5-1.8,4.6C258.4,264.8,256.8,265.3,255.1,265.3 M252.7,271.4c2.2,0,3.5,0.4,4.6,1.5
				c0.9,1.1,1.5,2.2,1.3,3.7c0,0.2-0.2,1.5-0.2,1.8l-4.8,28.8c0,0.7-0.4,1.1-1.1,1.1h-8.1c-0.7,0-1.1-0.4-1.1-1.1l5.9-35.4
				C249.6,271.6,252.2,271.4,252.7,271.4 M241.9,286.6l-3.5,20.6c0,0.7-0.4,1.1-1.1,1.1h-8.1c-0.7,0-1.1-0.4-1.1-1.1l3.7-22V285
				c0-0.4,0.2-1.1,0.2-1.5c0-1.1-0.2-2.2-0.9-3.1c-0.4-0.9-1.5-1.3-3.3-1.3s-3.1,0.7-4.4,2c-1.1,1.1-1.8,2.6-2.2,4.2l-3.7,21.7
				c0,0.7-0.4,1.1-1.1,1.1h-8.1c-0.7,0-1.1-0.4-1.1-1.1l9-53.4c0.7,0,3.1-0.2,3.5-0.2c2.2,0,3.7,0.4,4.6,1.5
				c1.5,1.5,1.3,4.4,1.3,4.6s0,0.7-0.2,0.9l-2.4,14.3c1.1-1.1,2.4-2.2,4.2-3.1c1.5-0.9,3.5-1.3,5.9-1.3s4.2,0.4,5.7,1.5
				s2.4,2.4,3.1,4c0.4,1.5,0.9,3.1,0.9,5.1c0,0.9-0.2,1.8-0.2,2.6C242.1,284.8,241.9,285.7,241.9,286.6"/>
			
				<linearGradient id="SVGID_98_" gradientUnits="userSpaceOnUse" x1="282.0958" y1="213.592" x2="336.2046" y2="213.592" gradientTransform="matrix(1 0 0 1 0 58)">
				<stop  offset="0" style="stop-color:#61C099"/>
				<stop  offset="0.25" style="stop-color:#31BDBE"/>
				<stop  offset="0.75" style="stop-color:#31BDBE"/>
				<stop  offset="1" style="stop-color:#2CBBED"/>
			</linearGradient>
			<path class="st122" d="M322.3,260.2c-0.9,0-2,0.2-2.9,0.4l0,0c-1.5-5.7-6.6-9.4-12.5-9.9c-7.2-0.4-11.4,6.8-11.6,7.5
				c-6.4-3.5-13.4,1.5-13.2,10.1h0.4c0.4-9.2,8.6-11,12.3-8.8c-0.4,1.5-0.9,3.1-0.9,4.6c0,0.7,0,1.3,0.2,1.8h0.2
				c0-2.2,0.4-4.2,1.3-6.2c0.2-0.4,0.4-0.9,0.7-1.1l0,0c2.2-4,5.9-6.6,10.1-6.6c5.1,0,9.4,3.7,11.2,9l0,0c0.2,0.7,0.4,1.3,0.4,2.2
				c0.7-0.2,1.1-0.4,1.8-0.7c0.9-0.2,1.5-0.2,2.4-0.2c6.8,0,12.3,7.2,12.3,16c0,5.9-2.4,11-6.2,13.8v0.4c0,0,0.2,0,0.2-0.2
				c4.6-2.9,7.7-8.6,7.7-15.2C336.4,267.9,330,260.2,322.3,260.2"/>
		</g>
	</g>
</g>
<g class="st123">
	<g class="st124">
		<path class="st125" d="M485.1,207.2v-44.3c1.9,0,3.5-1.6,3.5-3.5v-3.5l-7-16.8h-56.2l-7,16.8v3.5c0,1.9,1.6,3.5,3.5,3.5v44.3
			H485.1L485.1,207.2z"/>
		<line class="st126" x1="417.2" y1="207.2" x2="489.8" y2="207.2"/>
		<line class="st126" x1="421.9" y1="207.2" x2="421.9" y2="162.9"/>
		<line class="st126" x1="485.1" y1="207.2" x2="485.1" y2="162.9"/>
		<path class="st126" d="M481.6,158.3v1.2c0,1.9-1.6,3.5-3.5,3.5s-3.5-1.6-3.5-3.5v-1.2v1.2c0,1.9-1.6,3.5-3.5,3.5s-3.5-1.6-3.5-3.5
			v-1.2v1.2c0,1.9-1.6,3.5-3.5,3.5s-3.5-1.6-3.5-3.5v-1.2v1.2c0,1.9-1.6,3.5-3.5,3.5s-3.5-1.6-3.5-3.5v-1.2v1.2
			c0,1.9-1.6,3.5-3.5,3.5s-3.5-1.6-3.5-3.5v-1.2v1.2c0,1.9-1.6,3.5-3.5,3.5s-3.5-1.6-3.5-3.5v-1.2v1.2c0,1.9-1.6,3.5-3.5,3.5
			s-3.5-1.6-3.5-3.5v-1.2v1.2c0,1.9-1.6,3.5-3.5,3.5s-3.5-1.6-3.5-3.5v-1.2v1.2c0,1.9-1.6,3.5-3.5,3.5s-3.5-1.6-3.5-3.5V156l7-16.8
			h56.2l7,16.8v3.5c0,1.9-1.6,3.5-3.5,3.5s-3.5-1.6-3.5-3.5L481.6,158.3L481.6,158.3z"/>
		<line class="st126" x1="487" y1="153.6" x2="419.9" y2="153.6"/>
		<rect x="461.7" y="179.2" class="st126" width="16.4" height="28"/>
		<rect x="428.9" y="179.2" class="st127" width="28.1" height="16.3"/>
		<rect x="428.9" y="179.2" class="st126" width="28.1" height="16.3"/>
		<line class="st126" x1="435.9" y1="183.9" x2="433.6" y2="186.2"/>
		<line class="st126" x1="440.6" y1="185.1" x2="435.9" y2="189.7"/>
	</g>
	<g class="st124">
		<path class="st125" d="M462,220.2v-46.6c2,0,3.7-1.6,3.7-3.7v-3.7l-7.4-17.6h-59.1l-7.4,17.6v3.7c0,2,1.7,3.7,3.7,3.7v46.6
			L462,220.2L462,220.2z"/>
		<line class="st126" x1="390.6" y1="220.2" x2="466.9" y2="220.2"/>
		<line class="st126" x1="395.6" y1="220.2" x2="395.6" y2="173.6"/>
		<line class="st126" x1="462" y1="220.2" x2="462" y2="173.6"/>
		<path class="st126" d="M458.3,168.7v1.2c0,2-1.7,3.7-3.7,3.7s-3.7-1.6-3.7-3.7v-1.2v1.2c0,2-1.6,3.7-3.7,3.7c-2,0-3.7-1.6-3.7-3.7
			v-1.2v1.2c0,2-1.7,3.7-3.7,3.7s-3.7-1.6-3.7-3.7v-1.2v1.2c0,2-1.7,3.7-3.7,3.7s-3.7-1.6-3.7-3.7v-1.2v1.2c0,2-1.7,3.7-3.7,3.7
			s-3.7-1.6-3.7-3.7v-1.2v1.2c0,2-1.7,3.7-3.7,3.7s-3.7-1.6-3.7-3.7v-1.2v1.2c0,2-1.7,3.7-3.7,3.7s-3.7-1.6-3.7-3.7v-1.2v1.2
			c0,2-1.7,3.7-3.7,3.7s-3.7-1.6-3.7-3.7v-1.2v1.2c0,2-1.7,3.7-3.7,3.7s-3.7-1.6-3.7-3.7v-3.7l7.4-17.6h59.1l7.4,17.6v3.7
			c0,2-1.7,3.7-3.7,3.7s-3.7-1.6-3.7-3.7L458.3,168.7L458.3,168.7z"/>
		<line class="st126" x1="464" y1="163.8" x2="393.4" y2="163.8"/>
		<rect x="437.4" y="190.8" class="st126" width="17.2" height="29.4"/>
		<rect x="402.9" y="190.8" class="st127" width="29.5" height="17.2"/>
		<rect x="402.9" y="190.8" class="st126" width="29.5" height="17.2"/>
		<line class="st126" x1="410.3" y1="195.7" x2="407.9" y2="198.1"/>
		<line class="st126" x1="415.2" y1="196.9" x2="410.3" y2="201.8"/>
	</g>
</g>
<g>
	<line class="st126" x1="425" y1="363.2" x2="444.7" y2="363.2"/>
	<line class="st126" x1="425" y1="368.6" x2="444.7" y2="368.6"/>
	<line class="st126" x1="425" y1="374.1" x2="444.7" y2="374.1"/>
	<path class="st127" d="M418.3,393.6h-15.7c-1.1,0-2-0.9-2-2v-7.3c0-1.1,0.9-2,2-2h15.7c1.1,0,2,0.9,2,2v7.3
		C420.3,392.7,419.4,393.6,418.3,393.6"/>
	<path class="st126" d="M418.3,393.6h-15.7c-1.1,0-2-0.9-2-2v-7.3c0-1.1,0.9-2,2-2h15.7c1.1,0,2,0.9,2,2v7.3
		C420.3,392.7,419.4,393.6,418.3,393.6z"/>
	<line class="st126" x1="400.6" y1="398.6" x2="420.3" y2="398.6"/>
	<line class="st126" x1="400.6" y1="404.1" x2="411.7" y2="404.1"/>
	<path class="st127" d="M442.7,393.6H427c-1.1,0-2-0.9-2-2v-7.3c0-1.1,0.9-2,2-2h15.7c1.1,0,2,0.9,2,2v7.3
		C444.7,392.7,443.8,393.6,442.7,393.6"/>
	<path class="st126" d="M442.7,393.6H427c-1.1,0-2-0.9-2-2v-7.3c0-1.1,0.9-2,2-2h15.7c1.1,0,2,0.9,2,2v7.3
		C444.7,392.7,443.8,393.6,442.7,393.6z"/>
	<line class="st126" x1="425" y1="398.6" x2="444.7" y2="398.6"/>
	<line class="st126" x1="425" y1="404.1" x2="436.1" y2="404.1"/>
	<path class="st127" d="M418.5,373.8h-15.7c-1.1,0-2-0.9-2-2v-7.3c0-1.1,0.9-2,2-2h15.7c1.1,0,2,0.9,2,2v7.3
		C420.5,372.9,419.6,373.8,418.5,373.8"/>
	<path class="st126" d="M418.5,373.8h-15.7c-1.1,0-2-0.9-2-2v-7.3c0-1.1,0.9-2,2-2h15.7c1.1,0,2,0.9,2,2v7.3
		C420.5,372.9,419.6,373.8,418.5,373.8z"/>
	<path class="st125" d="M479.2,422.8h-76.6c-2.2,0-4-1.8-4-4.1v-72.9c0-2.2,1.8-4,4-4h76.6c2.2,0,4,1.8,4,4v72.9
		C483.2,420.9,481.4,422.8,479.2,422.8"/>
	<path class="st128" d="M479.2,422.8h-76.6c-2.2,0-4-1.8-4-4.1v-72.9c0-2.2,1.8-4,4-4h76.6c2.2,0,4,1.8,4,4v72.9
		C483.2,420.9,481.4,422.8,479.2,422.8z"/>
	<line class="st128" x1="398.6" y1="353.7" x2="483.2" y2="353.7"/>
	<line class="st126" x1="441.5" y1="362.4" x2="455" y2="362.4"/>
	<line class="st126" x1="441.5" y1="367.9" x2="475.6" y2="367.9"/>
	<line class="st126" x1="441.5" y1="376" x2="445.3" y2="376"/>
	<line class="st126" x1="449.5" y1="376.1" x2="475.6" y2="376.1"/>
	<line class="st126" x1="441.5" y1="381.4" x2="445.3" y2="381.4"/>
	<line class="st126" x1="449.5" y1="381.5" x2="475.6" y2="381.5"/>
	<line class="st126" x1="441.5" y1="386.9" x2="445.3" y2="386.9"/>
	<line class="st126" x1="449.5" y1="387" x2="475.6" y2="387"/>
	<path class="st127" d="M424.8,406.5h-15.7c-1.1,0-2-0.9-2-2v-7.3c0-1.1,0.9-2,2-2h15.7c1.1,0,2,0.9,2,2v7.3
		C426.8,405.6,425.9,406.5,424.8,406.5"/>
	<path class="st126" d="M424.8,406.5h-15.7c-1.1,0-2-0.9-2-2v-7.3c0-1.1,0.9-2,2-2h15.7c1.1,0,2,0.9,2,2v7.3
		C426.8,405.6,425.9,406.5,424.8,406.5z"/>
	<line class="st126" x1="407.1" y1="411.5" x2="426.8" y2="411.5"/>
	<line class="st126" x1="407.1" y1="416.9" x2="418.2" y2="416.9"/>
	<path class="st127" d="M449.2,406.5h-15.7c-1.1,0-2-0.9-2-2v-7.3c0-1.1,0.9-2,2-2h15.7c1.1,0,2,0.9,2,2v7.3
		C451.2,405.6,450.3,406.5,449.2,406.5"/>
	<path class="st126" d="M449.2,406.5h-15.7c-1.1,0-2-0.9-2-2v-7.3c0-1.1,0.9-2,2-2h15.7c1.1,0,2,0.9,2,2v7.3
		C451.2,405.6,450.3,406.5,449.2,406.5z"/>
	<line class="st126" x1="431.5" y1="411.5" x2="451.2" y2="411.5"/>
	<line class="st126" x1="431.5" y1="416.9" x2="442.6" y2="416.9"/>
	<path class="st127" d="M473.6,406.5H458c-1.1,0-2-0.9-2-2v-7.3c0-1.1,0.9-2,2-2h15.7c1.1,0,2,0.9,2,2v7.3
		C475.6,405.6,474.7,406.5,473.6,406.5"/>
	<path class="st126" d="M473.6,406.5H458c-1.1,0-2-0.9-2-2v-7.3c0-1.1,0.9-2,2-2h15.7c1.1,0,2,0.9,2,2v7.3
		C475.6,405.6,474.7,406.5,473.6,406.5z"/>
	<line class="st126" x1="455.9" y1="411.5" x2="475.6" y2="411.5"/>
	<line class="st126" x1="455.9" y1="416.9" x2="467" y2="416.9"/>
	<path class="st129" d="M406,348.4c0,0.7-0.6,1.3-1.3,1.3c-0.7,0-1.3-0.6-1.3-1.3s0.6-1.3,1.3-1.3S406,347.7,406,348.4"/>
	<path class="st129" d="M410,348.4c0,0.7-0.6,1.3-1.3,1.3s-1.3-0.6-1.3-1.3s0.6-1.3,1.3-1.3C409.5,347.1,410,347.7,410,348.4"/>
	<path class="st129" d="M414.1,348.4c0,0.7-0.6,1.3-1.3,1.3c-0.7,0-1.3-0.6-1.3-1.3s0.6-1.3,1.3-1.3S414.1,347.7,414.1,348.4"/>
	<ellipse class="st126" cx="415.5" cy="385.6" rx="2.7" ry="2.8"/>
	<ellipse class="st126" cx="430.6" cy="385.6" rx="2.7" ry="2.8"/>
	<line class="st126" x1="418.2" y1="385.6" x2="427.9" y2="385.6"/>
	<line class="st126" x1="416.5" y1="383" x2="419.7" y2="378.8"/>
	<path class="st126" d="M411.4,364.4H429h4.4v4.4v5.7c0,2.4-2,4.4-4.4,4.4h-8.2c-1.3,0-2.5-0.7-3.1-1.9L411.4,364.4z"/>
	<path class="st126" d="M411.4,364.4l-1.4-2.7c-0.3-0.6-0.9-1-1.6-1h-2.7"/>
</g>
<g>
	<g>
		<polygon class="st130" points="63.8,377.5 36.5,362.7 63.4,348.4 91.3,363.1 		"/>
		<polygon class="st130" points="63.7,407.8 36.4,393 36.5,362.7 63.7,377.6 		"/>
		<polygon class="st130" points="91.4,393.5 63.7,408 63.9,377.7 91.4,363.2 		"/>
		<polygon class="st131" points="58.1,365.6 50.1,370 47.2,368.3 55.1,364.1 		"/>
		<polygon class="st131" points="77,355.6 69,359.9 66.1,358.2 74,354 		"/>
		<polygon class="st131" points="50.2,370 49.9,380.2 46.8,378.3 47.2,368.4 		"/>
	</g>
	<g>
		<polygon class="st130" points="99.2,396.6 71.9,381.7 98.8,367.4 126.7,382.1 		"/>
		<polygon class="st130" points="99,426.9 71.7,412 71.9,381.7 99.1,396.6 		"/>
		<polygon class="st130" points="126.8,412.5 99.1,427 99.3,396.7 126.8,382.2 		"/>
		<polygon class="st131" points="93.5,384.7 85.5,389 82.6,387.3 90.5,383.1 		"/>
		<polygon class="st131" points="112.4,374.6 104.4,379 101.5,377.2 109.4,373 		"/>
		<polygon class="st131" points="85.6,389 85.3,399.2 82.2,397.4 82.6,387.4 		"/>
	</g>
	<g>
		<polygon class="st130" points="78.9,355.2 51.6,340.3 78.4,326 106.3,340.7 		"/>
		<polygon class="st130" points="78.7,385.5 51.4,370.6 51.6,340.3 78.8,355.2 		"/>
		<polygon class="st130" points="106.4,371.1 78.8,385.6 78.9,355.3 106.5,340.8 		"/>
		<polygon class="st131" points="73.2,343.3 65.1,347.6 62.2,345.9 70.1,341.7 		"/>
		<polygon class="st131" points="92.1,333.2 84,337.6 81.1,335.8 89,331.6 		"/>
		<polygon class="st131" points="65.2,347.6 64.9,357.8 61.8,356 62.2,346 		"/>
	</g>
</g>
<g>
	<path class="st132" d="M323.9,135.3h-95.5c-2.8,0-5-2.3-5-5v-48c0-2.8,2.3-5,5-5h95.5c2.8,0,5,2.3,5,5v48
		C328.9,133,326.6,135.3,323.9,135.3z"/>
	<g>
		<path class="st133" d="M271,99c-1.8,1.4-4.4,2.8-6.5,3.1H256c-1,0-1.9-0.8-1.9-1.9v-4.8c0-1,0.8-1.9,1.9-1.9h14.6
			c-0.1,0.4-0.2,0.8-0.2,1.2v2C270.4,97.6,270.6,98.4,271,99z"/>
		<path class="st134" d="M272.1,100.4c0.8,0.7,1.8,1,2.9,1.1c0,0.1,0,0.1-0.1,0.2c0,0.2-0.1,0.3-0.2,0.5h-5
			C270.6,101.4,271.4,100.8,272.1,100.4z"/>
		<path class="st134" d="M276.9,99.8H275c-1.6,0-3-1.3-3-3v-2c0-0.4,0.1-0.9,0.3-1.2h7.2c0.2,0.4,0.3,0.8,0.3,1.2v2
			C279.8,98.4,278.5,99.8,276.9,99.8z"/>
		<path class="st134" d="M281.8,101.8c0.1,0.1,0.3,0.2,0.4,0.3h-5c-0.1-0.2-0.1-0.3-0.2-0.5c0-0.1,0-0.2-0.1-0.2c1,0,2-0.4,2.8-1
			C280.3,100.8,281,101.3,281.8,101.8z"/>
		<path class="st133" d="M298.2,95.4v4.8c0,1-0.8,1.9-1.9,1.9h-9.1c-1.4-0.2-2.9-0.9-4.4-1.7c-0.6-0.5-1.2-1-1.9-1.4
			c0.4-0.7,0.6-1.4,0.6-2.2v-2c0-0.4-0.1-0.9-0.2-1.2h15C297.3,93.5,298.2,94.4,298.2,95.4z"/>
		<path class="st133" d="M294.8,121.1c0,1-0.8,1.9-1.9,1.9h-33.5c-1,0-1.9-0.8-1.9-1.9v-18.5c0-0.6,0-0.6,0.8-0.6H294
			c0.8,0,0.8-0.1,0.8,0.8V121.1L294.8,121.1z"/>
		<path class="st135" d="M290.6,92.6L290.6,92.6L290.6,92.6c0,0.3,0,0.6-0.1,1c0,0.3-0.1,0.6-0.2,0.9c-0.1,0.7-0.3,1.3-0.3,2
			c0,0.6,0.1,1.2,0.2,1.9c0.2,1.2,0.4,2.5-0.2,3.1c-0.3,0.3-0.7,0.5-1.2,0.6s-1.1,0.1-1.7,0c-1.4-0.2-2.9-0.9-4.4-1.7
			c-0.6-0.5-1.2-1-1.9-1.4c0.4-0.7,0.6-1.4,0.6-2.2v-2c0-0.4-0.1-0.9-0.2-1.2c-0.1-0.5-0.4-1-0.7-1.4c2.7-1.7,6.9-3.3,8.8-2.3
			C290.3,90.2,290.7,91.1,290.6,92.6z"/>
		<path class="st135" d="M279.8,94.8v2c0,1.6-1.3,3-3,3H275c-1.6,0-3-1.3-3-3v-2c0-0.4,0.1-0.9,0.3-1.2c0.5-1,1.5-1.7,2.7-1.7h1.8
			c1.2,0,2.2,0.7,2.7,1.7C279.7,93.9,279.8,94.3,279.8,94.8z"/>
		<path class="st135" d="M270.4,96.8c0,0.8,0.2,1.5,0.6,2.2c-1.8,1.4-4.4,2.8-6.5,3.1c-0.6,0.1-1.2,0.1-1.7,0s-0.9-0.3-1.2-0.6
			c-0.6-0.7-0.4-1.9-0.3-3.1c0.1-0.7,0.2-1.3,0.2-1.9c0-0.7-0.2-1.4-0.3-2c-0.1-0.3-0.1-0.6-0.2-0.9c0-0.3-0.1-0.6-0.1-0.9l0,0v-0.1
			c0-1.4,0.4-2.2,1.2-2.7c2-1,6.4,0.6,9,2.4c-0.3,0.4-0.5,0.8-0.6,1.3c-0.1,0.4-0.2,0.8-0.2,1.2v2H270.4z"/>
		<path class="st135" d="M272.9,122.9v-14.1c0.4-0.9,0.9-1.8,1.4-2.7c0.6-1.2,1.3-2.4,1.7-3.4c0.5,1.1,1.1,2.2,1.7,3.4
			c0.5,0.8,0.9,1.7,1.3,2.6v14.2H272.9L272.9,122.9z"/>
		<path class="st135" d="M286.6,107.4c-0.2,0-0.5,0.1-0.7,0.1c-0.4,0-0.7-0.1-0.7-0.1c-0.2-0.1-0.5-0.1-0.7-0.1
			c-1.3,0-2.3,1-2.4,2.3c0,0.8-0.1,1.6-0.3,2.2c0,0,0-0.1-0.1-0.1c-0.7-1.9-1.7-3.8-2.6-5.5c-0.8-1.5-1.5-2.9-2-4
			c-0.1-0.2-0.1-0.3-0.2-0.5c0-0.1,0-0.2-0.1-0.2c1,0,2-0.4,2.8-1c0.6,0.4,1.3,0.9,2.1,1.4c0.1,0.1,0.3,0.2,0.4,0.3
			c0.6,0.5,1.3,1.2,1.9,1.8C285.8,105.7,286.5,106.9,286.6,107.4z"/>
		<path class="st135" d="M275,101.4c0,0.1,0,0.1-0.1,0.2c0,0.2-0.1,0.3-0.2,0.5c-0.4,1.2-1.2,2.6-2,4c-0.9,1.7-1.9,3.6-2.6,5.5
			c0,0,0,0.1-0.1,0.1c-0.1-0.6-0.2-1.4-0.3-2.2c-0.1-1.3-1.1-2.3-2.4-2.3c-0.2,0-0.5,0-0.7,0.1c0,0-0.3,0.1-0.7,0.1
			c-0.2,0-0.5,0-0.7-0.1c0.2-0.5,0.8-1.7,2.5-3.5c0.6-0.7,1.3-1.3,1.9-1.8c0.8-0.7,1.6-1.3,2.4-1.8C272.9,101,273.9,101.4,275,101.4
			z"/>
	</g>
	<g class="st136">
		<g>
			<path class="st137" d="M232.1,88.3c0,0.2,0,0.5-0.1,0.8c-0.1,1-0.5,2.2-1.3,3c-0.5,0.5-1.2,0.2-1.2,0.2c-0.1-0.1-0.3-0.2-0.4-0.3
				c-0.2-0.2-0.3-0.4-0.4-0.6l-0.2-0.9c-0.1-0.4-0.4-0.7-0.8-0.9l-0.8-0.3l-0.3-0.1c-0.4-0.1-0.7-0.5-0.9-0.8c0,0-0.3-0.7,0.2-1.2
				c1.2-1.1,3.1-1.2,4.3-1.2l0,0c0,0.3,0,0.6,0.2,0.8c-0.3,0-0.7,0-1,0c-0.7,0-1.4,0.1-1.8,0.3c-0.7,0.3-1,0.7-0.8,1.1
				c0.1,0.3,0.4,0.4,0.8,0.4c0.2,0,0.5-0.1,0.7-0.2c0.6-0.3,1.6-0.8,2.3-1.2l0,0l0.7,0.7C231.6,88.1,231.8,88.2,232.1,88.3z"/>
			<path class="st137" d="M237.9,85.2c-0.8,0.8-2.1,1.1-3.1,1.2c-0.2,0-0.5,0-0.7,0c-0.1-0.2-0.2-0.5-0.4-0.7L233,85l0,0
				c0.4-0.6,1-1.6,1.3-2.2c0.2-0.3,0.2-0.7,0.2-0.9c0-0.3-0.2-0.5-0.4-0.6c-0.4-0.2-0.8,0.1-1.1,0.7c-0.2,0.4-0.3,1-0.3,1.7
				c0,0.4,0,0.8,0,1.1c-0.3-0.1-0.5-0.2-0.8-0.2v-0.1c0-1.2,0.2-3,1.3-4.1c0.5-0.5,1.2-0.2,1.2-0.2c0.3,0.1,0.7,0.5,0.8,0.9v0.1
				l0.3,1c0.1,0.4,0.5,0.7,0.8,0.8l0.9,0.2c0.1,0,0.3,0.1,0.4,0.2c0.2,0.2,0.4,0.4,0.4,0.6C238.1,84,238.4,84.7,237.9,85.2z"/>
			<path class="st137" d="M233.3,87.6c-0.4,0.4-1.2,0.4-1.6,0l-0.7-0.7c-0.4-0.4-0.4-1.2,0-1.6s1.2-0.4,1.6,0l0.7,0.7
				C233.8,86.5,233.8,87.2,233.3,87.6z"/>
			<path class="st137" d="M240.7,87.1L240.7,87.1l-1.3,0.9c0,0,0,0-0.1,0.1c-0.2,0.2-0.3,0.5-0.2,0.7l0.6,1.4c0.1,0.1,0.1,0.2,0,0.3
				c-0.1,0-0.2,0.1-0.3,0l-5.1-2.1c-0.1-0.1-0.2-0.1-0.3,0s-0.1,0.2,0,0.3l1.9,5.1c0.1,0.1,0,0.2,0,0.3c-0.1,0.1-0.2,0.1-0.3,0
				l-1.4-0.6c-0.2-0.1-0.6-0.1-0.8,0.1c0,0,0,0-0.1,0.1l-0.9,1.2c0,0,0,0-0.1,0.1c-0.2,0.2-0.3,0.1-0.4-0.2l-0.7-2.8
				c0.7-1,1-2.3,1.1-3.4c0-0.1,0-0.1,0-0.2c0.1,0,0.1,0,0.2,0c0.3,0,0.6-0.2,0.9-0.4c0.3-0.3,0.4-0.6,0.5-0.9c0-0.1,0-0.1,0-0.2
				c0.1,0,0.1,0,0.2,0c1.1,0,2.4-0.2,3.5-1l2.8,0.8C240.8,86.8,240.9,87,240.7,87.1z"/>
		</g>
	</g>
	<g class="st136">
		<g>
			<path class="st137" d="M319.1,87.9l0.7-0.7l0,0c0.6,0.4,1.7,1,2.3,1.2c0.3,0.1,0.5,0.2,0.7,0.2c0.4,0,0.7-0.1,0.8-0.4
				c0.2-0.4-0.1-0.8-0.8-1.1c-0.4-0.2-1.1-0.2-1.8-0.3c-0.4,0-0.7,0-1,0c0.1-0.3,0.2-0.5,0.2-0.8l0,0c1.2,0,3.1,0.1,4.3,1.2
				c0.5,0.5,0.2,1.2,0.2,1.2c-0.1,0.3-0.5,0.7-0.9,0.8l-0.3,0.1l-0.8,0.3c-0.4,0.1-0.7,0.5-0.8,0.9l-0.2,0.9c0,0.2-0.2,0.4-0.4,0.6
				c-0.1,0.1-0.3,0.2-0.4,0.3c0,0-0.7,0.3-1.2-0.2c-0.8-0.8-1.1-1.9-1.3-3c0-0.3-0.1-0.5-0.1-0.8C318.7,88.2,318.9,88.1,319.1,87.9z
				"/>
			<path class="st137" d="M312.4,84c0.1-0.2,0.2-0.4,0.4-0.6c0.1-0.1,0.3-0.2,0.4-0.2l0.9-0.2c0.4-0.1,0.7-0.5,0.8-0.8l0.3-1v-0.1
				c0.1-0.4,0.5-0.8,0.8-0.9c0,0,0.7-0.3,1.2,0.2c1.1,1.1,1.3,3,1.3,4.1v0.1c-0.3,0-0.6,0.1-0.8,0.2c0-0.3,0-0.7,0-1.1
				c0-0.7-0.1-1.3-0.3-1.7c-0.3-0.7-0.7-0.9-1.1-0.7c-0.2,0.1-0.3,0.3-0.4,0.6c0,0.3,0,0.6,0.2,0.9c0.3,0.6,0.9,1.6,1.3,2.2l0,0
				l-0.7,0.7c-0.2,0.2-0.3,0.4-0.4,0.7c-0.2,0-0.5,0-0.7,0c-1.1-0.1-2.3-0.4-3.1-1.2C312.1,84.7,312.4,84,312.4,84z"/>
			<path class="st137" d="M317.2,86l0.7-0.7c0.4-0.4,1.2-0.5,1.6,0c0.4,0.4,0.4,1.1,0,1.6l-0.7,0.7c-0.4,0.4-1.2,0.5-1.6,0
				C316.7,87.2,316.7,86.5,317.2,86z"/>
			<path class="st137" d="M309.9,86.7l2.8-0.8c1,0.7,2.4,0.9,3.5,1c0.1,0,0.1,0,0.2,0c0,0.1,0,0.1,0,0.2c0,0.3,0.2,0.7,0.5,0.9
				c0.3,0.2,0.6,0.4,0.9,0.4c0.1,0,0.1,0,0.2,0c0,0.1,0,0.1,0,0.2c0.1,1.1,0.3,2.4,1.1,3.4l-0.7,2.8c-0.1,0.3-0.2,0.3-0.4,0.2
				c0,0,0,0-0.1-0.1l-0.9-1.2c0,0,0,0-0.1-0.1c-0.2-0.2-0.5-0.2-0.8-0.1l-1.4,0.6c-0.1,0.1-0.2,0.1-0.3,0c-0.1-0.1-0.1-0.2,0-0.3
				l1.9-5.1c0.1-0.1,0-0.2,0-0.3s-0.2-0.1-0.3,0l-5.1,2.1c-0.1,0.1-0.2,0.1-0.3,0c-0.1-0.1-0.1-0.2,0-0.3l0.6-1.4
				c0.1-0.2,0-0.6-0.2-0.7c0,0,0,0-0.1-0.1l-1.2-0.9c0,0,0,0-0.1-0.1C309.6,87,309.7,86.8,309.9,86.7z"/>
		</g>
	</g>
	<g class="st136">
		<g>
			<path class="st137" d="M231.4,124.2l-0.7,0.7l0,0c-0.6-0.4-1.7-1-2.3-1.2c-0.3-0.1-0.5-0.2-0.7-0.2c-0.4,0-0.7,0.1-0.8,0.4
				c-0.2,0.4,0.1,0.8,0.8,1.1c0.4,0.2,1.1,0.2,1.8,0.3c0.4,0,0.7,0,1,0c-0.1,0.3-0.2,0.5-0.2,0.8l0,0c-1.2,0-3.1-0.1-4.3-1.2
				c-0.5-0.5-0.2-1.2-0.2-1.2c0.1-0.3,0.5-0.7,0.9-0.8l0.3-0.1l0.8-0.3c0.4-0.1,0.7-0.5,0.8-0.9l0.2-0.9c0-0.2,0.2-0.4,0.4-0.6
				c0.1-0.1,0.3-0.2,0.4-0.3c0,0,0.7-0.3,1.2,0.2c0.8,0.8,1.1,1.9,1.3,3c0,0.3,0.1,0.5,0.1,0.8C231.8,123.9,231.6,124,231.4,124.2z"
				/>
			<path class="st137" d="M238.1,128.1c-0.1,0.2-0.2,0.4-0.4,0.6c-0.1,0.1-0.3,0.2-0.4,0.2l-0.9,0.2c-0.4,0.1-0.7,0.5-0.8,0.8
				l-0.3,1v0.1c-0.1,0.4-0.5,0.8-0.8,0.9c0,0-0.7,0.3-1.2-0.2c-1.1-1.1-1.3-3-1.3-4.1v-0.1c0.3,0,0.6-0.1,0.8-0.2c0,0.3,0,0.7,0,1.1
				c0,0.7,0.1,1.3,0.3,1.7c0.3,0.7,0.7,0.9,1.1,0.7c0.2-0.1,0.3-0.3,0.4-0.6c0-0.3,0-0.6-0.2-0.9c-0.3-0.6-0.9-1.6-1.3-2.2l0,0
				l0.7-0.7c0.2-0.2,0.3-0.4,0.4-0.7c0.2,0,0.5,0,0.7,0c1.1,0.1,2.3,0.4,3.1,1.2C238.4,127.4,238.1,128.1,238.1,128.1z"/>
			<path class="st137" d="M233.3,126l-0.7,0.7c-0.4,0.4-1.2,0.5-1.6,0c-0.4-0.4-0.4-1.1,0-1.6l0.7-0.7c0.4-0.4,1.2-0.5,1.6,0
				S233.8,125.6,233.3,126z"/>
			<path class="st137" d="M240.6,125.4l-2.8,0.8c-1-0.7-2.4-0.9-3.5-1c-0.1,0-0.1,0-0.2,0c0-0.1,0-0.1,0-0.2c0-0.3-0.2-0.7-0.5-0.9
				c-0.3-0.2-0.6-0.4-0.9-0.4c-0.1,0-0.1,0-0.2,0c0-0.1,0-0.1,0-0.2c-0.1-1.1-0.3-2.4-1.1-3.4l0.7-2.8c0.1-0.3,0.2-0.3,0.4-0.2
				c0,0,0,0,0.1,0.1l0.9,1.2c0,0,0,0,0.1,0.1c0.2,0.2,0.5,0.2,0.8,0.1l1.4-0.6c0.1-0.1,0.2-0.1,0.3,0s0.1,0.2,0,0.3l-1.9,5.1
				c-0.1,0.1,0,0.2,0,0.3s0.2,0.1,0.3,0l5.1-2.1c0.1-0.1,0.2-0.1,0.3,0s0.1,0.2,0,0.3l-0.6,1.4c-0.1,0.2,0,0.6,0.2,0.7
				c0,0,0,0,0.1,0.1l1.2,0.9c0,0,0,0,0.1,0.1C240.9,125.1,240.8,125.3,240.6,125.4z"/>
		</g>
	</g>
	<g class="st136">
		<g>
			<path class="st137" d="M318.4,123.8c0-0.2,0-0.5,0.1-0.8c0.1-1,0.5-2.2,1.3-3c0.5-0.5,1.2-0.2,1.2-0.2c0.1,0.1,0.3,0.2,0.4,0.3
				c0.2,0.2,0.3,0.4,0.4,0.6l0.2,0.9c0.1,0.4,0.4,0.7,0.8,0.9l0.8,0.3l0.3,0.1c0.4,0.1,0.7,0.5,0.9,0.8c0,0,0.3,0.7-0.2,1.2
				c-1.2,1.1-3.1,1.2-4.3,1.2l0,0c0-0.3,0-0.6-0.2-0.8c0.3,0,0.7,0,1,0c0.7,0,1.4-0.1,1.8-0.3c0.7-0.3,1-0.7,0.8-1.1
				c-0.1-0.3-0.4-0.4-0.8-0.4c-0.2,0-0.5,0.1-0.7,0.2c-0.6,0.3-1.6,0.8-2.3,1.2l0,0l-0.7-0.7C318.9,124,318.7,123.9,318.4,123.8z"/>
			<path class="st137" d="M312.6,126.9c0.8-0.8,2.1-1.1,3.1-1.2c0.2,0,0.5,0,0.7,0c0.1,0.2,0.2,0.5,0.4,0.7l0.7,0.7l0,0
				c-0.4,0.6-1,1.6-1.3,2.2c-0.2,0.3-0.2,0.7-0.2,0.9c0,0.3,0.2,0.5,0.4,0.6c0.4,0.2,0.8-0.1,1.1-0.7c0.2-0.4,0.3-1,0.3-1.7
				c0-0.4,0-0.8,0-1.1c0.3,0.1,0.5,0.2,0.8,0.2v0.1c0,1.2-0.2,3-1.3,4.1c-0.5,0.5-1.2,0.2-1.2,0.2c-0.3-0.1-0.7-0.5-0.8-0.9v-0.1
				l-0.3-1c-0.1-0.4-0.5-0.7-0.8-0.8l-0.9-0.2c-0.1,0-0.3-0.1-0.4-0.2c-0.2-0.2-0.4-0.4-0.4-0.6
				C312.4,128.1,312.1,127.4,312.6,126.9z"/>
			<path class="st137" d="M317.2,124.5c0.4-0.4,1.2-0.4,1.6,0l0.7,0.7c0.4,0.4,0.4,1.2,0,1.6s-1.2,0.4-1.6,0l-0.7-0.7
				C316.7,125.6,316.7,124.9,317.2,124.5z"/>
			<path class="st137" d="M309.8,125C309.8,124.9,309.8,124.9,309.8,125l1.3-0.9c0,0,0,0,0.1-0.1c0.2-0.2,0.3-0.5,0.2-0.7l-0.6-1.4
				c-0.1-0.1-0.1-0.2,0-0.3c0.1,0,0.2-0.1,0.3,0l5.1,2.1c0.1,0.1,0.2,0.1,0.3,0s0.1-0.2,0-0.3l-1.9-5.1c-0.1-0.1,0-0.2,0-0.3
				c0.1-0.1,0.2-0.1,0.3,0l1.4,0.6c0.2,0.1,0.6,0.1,0.8-0.1c0,0,0,0,0.1-0.1l0.9-1.2c0,0,0,0,0.1-0.1c0.2-0.2,0.3-0.1,0.4,0.2
				l0.7,2.8c-0.7,1-1,2.3-1.1,3.4c0,0.1,0,0.1,0,0.2c-0.1,0-0.1,0-0.2,0c-0.3,0-0.6,0.2-0.9,0.4c-0.3,0.3-0.4,0.6-0.5,0.9
				c0,0.1,0,0.1,0,0.2c-0.1,0-0.1,0-0.2,0c-1.1,0-2.4,0.2-3.5,1l-2.8-0.8C309.7,125.3,309.6,125.1,309.8,125z"/>
		</g>
	</g>
</g>
<g id="Stars">
	<path class="st138" d="M266.4,433.9l-8.5-1.2l-3.6-7.3c-0.2-0.8-1-1.5-1.9-1.5s-1.6,0.6-1.8,1.4l-3.7,7.4l-8.5,1.2
		c-1.2,0.2-1.9,1.4-1.5,2.5c0.1,0.5,0.4,0.9,0.9,1.1l5.8,5.6l-1.4,8.1c-0.1,0.2-0.1,0.5-0.1,0.7c0,1.1,0.9,1.9,1.9,1.9
		c0.5,0,0.9-0.2,1.2-0.4l7.3-3.8l7.3,3.9c0.3,0.3,0.7,0.4,1.2,0.4c1.1,0,1.9-0.9,1.9-1.9c0-0.3-0.1-0.5-0.2-0.8l-1.4-8l5.8-5.6
		c0.5-0.3,0.9-0.8,1-1.5C268.1,435.1,267.5,434.1,266.4,433.9z"/>
	<path class="st138" d="M303.5,433.9l-8.5-1.2l-3.6-7.3c-0.2-0.8-1-1.5-1.9-1.5s-1.6,0.6-1.8,1.4l-3.7,7.4l-8.5,1.2
		c-1.2,0.2-1.9,1.4-1.5,2.5c0.1,0.5,0.4,0.9,0.9,1.1l5.8,5.6l-1.4,8.1c-0.1,0.2-0.1,0.5-0.1,0.7c0,1.1,0.9,1.9,1.9,1.9
		c0.5,0,0.9-0.2,1.2-0.4l7.3-3.8l7.3,3.9c0.3,0.3,0.7,0.4,1.2,0.4c1.1,0,1.9-0.9,1.9-1.9c0-0.3-0.1-0.5-0.2-0.8l-1.4-8l5.8-5.6
		c0.5-0.3,0.9-0.8,1-1.5C305.2,435.1,304.6,434.1,303.5,433.9z"/>
	<path class="st138" d="M247.9,472.6l-8.5-1.2l-3.6-7.3c-0.2-0.8-1-1.5-1.9-1.5s-1.6,0.6-1.8,1.4l-3.7,7.4l-8.5,1.2
		c-1.2,0.2-1.9,1.4-1.5,2.5c0.1,0.5,0.4,0.9,0.9,1.1l5.8,5.6l-1.4,8.1c-0.1,0.2-0.1,0.5-0.1,0.7c0,1.1,0.9,1.9,1.9,1.9
		c0.5,0,0.9-0.2,1.2-0.4l7.3-3.8l7.3,3.9c0.3,0.3,0.7,0.4,1.2,0.4c1.1,0,1.9-0.9,1.9-1.9c0-0.3-0.1-0.5-0.2-0.8l-1.4-8l5.8-5.6
		c0.5-0.3,0.9-0.8,1-1.5C249.6,473.7,249,472.7,247.9,472.6z"/>
	<path class="st138" d="M285,472.6l-8.5-1.2l-3.6-7.3c-0.2-0.8-1-1.5-1.9-1.5s-1.6,0.6-1.8,1.4l-3.7,7.4l-8.5,1.2
		c-1.2,0.2-1.9,1.4-1.5,2.5c0.1,0.5,0.4,0.9,0.9,1.1l5.8,5.6l-1.4,8.1c-0.1,0.2-0.1,0.5-0.1,0.7c0,1.1,0.9,1.9,1.9,1.9
		c0.5,0,0.9-0.2,1.2-0.4l7.3-3.8l7.3,3.9c0.3,0.3,0.7,0.4,1.2,0.4c1.1,0,1.9-0.9,1.9-1.9c0-0.3-0.1-0.5-0.2-0.8l-1.4-8l5.8-5.6
		c0.5-0.3,0.9-0.8,1-1.5C286.7,473.7,286.1,472.7,285,472.6z"/>
	<path class="st138" d="M322.1,472.6l-8.5-1.2l-3.6-7.3c-0.2-0.8-1-1.5-1.9-1.5s-1.6,0.6-1.8,1.4l-3.7,7.4l-8.5,1.2
		c-1.2,0.2-1.9,1.4-1.5,2.5c0.1,0.5,0.4,0.9,0.9,1.1l5.8,5.6l-1.4,8.1c-0.1,0.2-0.1,0.5-0.1,0.7c0,1.1,0.9,1.9,1.9,1.9
		c0.5,0,0.9-0.2,1.2-0.4l7.3-3.8l7.3,3.9c0.3,0.3,0.7,0.4,1.2,0.4c1.1,0,1.9-0.9,1.9-1.9c0-0.3-0.1-0.5-0.2-0.8l-1.4-8l5.8-5.6
		c0.5-0.3,0.9-0.8,1-1.5C323.8,473.7,323.2,472.7,322.1,472.6z"/>
</g>
<g>
	<polyline class="st139" points="53.7,229.3 53.7,147 71.5,147 71.5,229.3 	"/>
	<polyline class="st140" points="75.6,229.3 75.6,173.7 93.5,173.7 93.5,229.3 	"/>
	<polyline class="st139" points="97.5,229.3 97.5,166.1 115.4,166.1 115.4,229.3 	"/>
	<polyline class="st140" points="119.5,229.3 119.5,214.8 137.3,214.8 137.3,229.3 	"/>
	<polyline class="st140" points="141.4,229.3 141.4,219.1 159.3,219.1 159.3,229.3 	"/>
	<polyline class="st141" points="42.8,129.3 42.8,229.3 164.6,229.3 	"/>
	<g>
		<line class="st141" x1="42.8" y1="135.2" x2="45.7" y2="135.2"/>
		<line class="st141" x1="42.8" y1="143.1" x2="45.7" y2="143.1"/>
		<line class="st141" x1="42.8" y1="151" x2="45.7" y2="151"/>
		<line class="st141" x1="42.8" y1="158.9" x2="45.7" y2="158.9"/>
		<line class="st141" x1="42.8" y1="166.8" x2="45.7" y2="166.8"/>
		<line class="st141" x1="42.8" y1="174.7" x2="45.7" y2="174.7"/>
		<line class="st141" x1="42.8" y1="182.6" x2="45.7" y2="182.6"/>
		<line class="st141" x1="42.8" y1="190.5" x2="45.7" y2="190.5"/>
		<line class="st141" x1="42.8" y1="198.4" x2="45.7" y2="198.4"/>
		<line class="st141" x1="42.8" y1="206.3" x2="45.7" y2="206.3"/>
		<line class="st141" x1="42.8" y1="214.2" x2="45.7" y2="214.2"/>
		<line class="st141" x1="42.8" y1="222" x2="45.7" y2="222"/>
	</g>
</g>
<g>
	<path class="st142" d="M591.2,285.1v44.8c0,0.8-0.7,1.5-1.5,1.5h-29.3c-0.8,0-1.5-0.7-1.5-1.5v-44.8c0-0.8,0.7-1.5,1.5-1.5h29.3
		C590.6,283.6,591.2,284.2,591.2,285.1z"/>
	<path class="st135" d="M560.5,284.1h29.2c0.6,0,1,0.4,1,1v44.8c0,0.6-0.4,1-1,1h-29.2c-0.6,0-1-0.4-1-1v-44.8
		C559.5,284.6,560,284.1,560.5,284.1z"/>
	<rect x="578.8" y="284.1" class="st133" width="6.2" height="46.8"/>
	<path class="st142" d="M636.7,235.9v83c0,2.5-2,4.5-4.5,4.5h-45.1c-2.5,0-4.5-2-4.5-4.5v-83c0-2.5,2-4.5,4.5-4.5h45.1
		C634.7,231.4,636.7,233.4,636.7,235.9z"/>
	<path class="st135" d="M587.1,232h45c2.2,0,4,1.8,4,4v82.9c0,2.2-1.8,4-4,4h-45c-2.2,0-4-1.8-4-4V236
		C583.1,233.7,584.9,232,587.1,232z"/>
	<path class="st142" d="M631.4,249.8v24.1c0,1.4-1.1,2.5-2.5,2.5h-36.6c-1.4,0-2.5-1.1-2.5-2.5v-24.1c0-1.4,1.1-2.5,2.5-2.5h36.6
		C630.2,247.3,631.4,248.4,631.4,249.8z"/>
	<path class="st133" d="M592.3,247.8h36.5c1.1,0,2,0.9,2,2v24.1c0,1.1-0.9,2-2,2h-36.5c-1.1,0-2-0.9-2-2v-24.1
		C590.3,248.7,591.2,247.8,592.3,247.8z"/>
	<path class="st135" d="M621.5,315.1c-1.2,0-2.1-0.9-2.1-2.1l0,0v-3.1c0-1.2,0.9-2.1,2.1-2.1h7.8c1.2,0,2.1,0.9,2.1,2.1v3.1
		c0,1.2-0.9,2.1-2.1,2.1l0,0H621.5z M606.6,315.1c-1.2,0-2.1-0.9-2.1-2.1l0,0v-3.1c0-1.2,0.9-2.1,2.1-2.1h7.8c1.2,0,2.1,0.9,2.1,2.1
		v3.1c0,1.2-0.9,2.1-2.1,2.1l0,0H606.6z M591.8,315.1c-1.2,0-2.1-0.9-2.1-2.1l0,0v-3.1c0-1.2,0.9-2.1,2.1-2.1h7.8
		c1.2,0,2.1,0.9,2.1,2.1v3.1c0,1.2-0.9,2.1-2.1,2.1l0,0H591.8z M621.4,305.7c-1.2,0-2.1-0.9-2.1-2.1v-3.1c0-1.2,0.9-2.1,2.1-2.1h7.8
		c1.2,0,2.1,0.9,2.1,2.1v3.1c0,1.2-0.9,2.1-2.1,2.1H621.4z M606.6,305.7c-1.2,0-2.1-0.9-2.1-2.1v-3.1c0-1.2,0.9-2.1,2.1-2.1h7.8
		c1.2,0,2.1,0.9,2.1,2.1v3.1c0,1.2-0.9,2.1-2.1,2.1H606.6z M591.8,305.7c-1.2,0-2.1-0.9-2.1-2.1v-3.1c0-1.2,0.9-2.1,2.1-2.1h7.8
		c1.2,0,2.1,0.9,2.1,2.1v3.1c0,1.2-0.9,2.1-2.1,2.1H591.8z M621.4,296.4c-1.2,0-2.1-0.9-2.1-2.1v-3.1c0-1.2,0.9-2.1,2.1-2.1h7.8
		c1.2,0,2.1,0.9,2.1,2.1v3.1c0,1.2-0.9,2.1-2.1,2.1H621.4z M606.6,296.4c-1.2,0-2.1-0.9-2.1-2.1v-3.1c0-1.2,0.9-2.1,2.1-2.1h7.9
		c1.2,0,2.1,0.9,2.1,2.1v3.1c0,1.2-0.9,2.1-2.1,2.1H606.6z M591.8,296.4c-1.2,0-2.1-0.9-2.1-2.1v-3.1c0-1.2,0.9-2.1,2.1-2.1h7.8
		c1.2,0,2.1,0.9,2.1,2.1v3.1c0,1.2-0.9,2.1-2.1,2.1H591.8z M621.4,287c-1.2,0-2.1-0.9-2.1-2.1v-3.1c0-1.2,0.9-2.1,2.1-2.1h7.8
		c1.2,0,2.1,0.9,2.1,2.1v3.1c0,1.2-0.9,2.1-2.1,2.1H621.4z M606.6,287c-1.2,0-2.1-0.9-2.1-2.1v-3.1c0-1.2,0.9-2.1,2.1-2.1h7.9
		c1.2,0,2.1,0.9,2.1,2.1v3.1c0,1.2-0.9,2.1-2.1,2.1H606.6z M591.8,287c-1.2,0-2.1-0.9-2.1-2.1v-3.1c0-1.2,0.9-2.1,2.1-2.1h7.8
		c1.2,0,2.1,0.9,2.1,2.1v3.1c0,1.2-0.9,2.1-2.1,2.1H591.8z"/>
	<path class="st142" d="M610,243.5c-4.7,0-8.2-1.6-8.2-3.8s3.5-3.8,8.2-3.8s8.2,1.6,8.2,3.8S614.7,243.5,610,243.5z"/>
	<ellipse class="st143" cx="610" cy="239.6" rx="7.7" ry="3.3"/>
	<path class="st142" d="M610.6,272.3c-5.8,0-10.5-4.7-10.5-10.5c0-5.8,4.7-10.5,10.5-10.5s10.5,4.7,10.5,10.5l0,0
		C621,267.6,616.3,272.3,610.6,272.3z"/>
	<circle class="st135" cx="610.6" cy="261.8" r="10"/>
	<path class="st143" d="M610.6,269.8c-4.4,0-8-3.6-8-8s3.6-8,8-8s8,3.6,8,8l0,0C618.6,266.3,615,269.8,610.6,269.8z"/>
	<path class="st144" d="M614.7,259.9l-5,4.9c-0.3,0.3-0.8,0.3-1.1,0l-2.2-2.2c-0.3-0.3-0.3-0.8,0-1.1l0,0c0.3-0.3,0.8-0.3,1.1,0
		l1.7,1.6l4.4-4.3c0.3-0.3,0.8-0.3,1.1,0C615,259.2,615,259.6,614.7,259.9L614.7,259.9z"/>
</g>
<g id="Layer_1_1_">
	<path class="st145" d="M475.5,211.6h-80c-3.5,0-6.3-2.8-6.3-6.3v-48.4c0-3.5,2.8-6.3,6.3-6.3h80c3.5,0,6.3,2.8,6.3,6.3v48.4
		C481.8,208.7,479,211.6,475.5,211.6z"/>
	<rect x="395.5" y="154.7" class="st132" width="75.8" height="52.6"/>
	<circle class="st135" cx="476.6" cy="182.1" r="2.1"/>
	<path class="st146" d="M386,230.5h-5.3v-14.1c0-3.8,0.7-4.8,4.2-4.8H486c3.5,0,4.2,1,4.2,4.8v14.1H485H386z"/>
	<circle class="st147" cx="483.8" cy="224.5" r="2.1"/>
	<line class="st148" x1="411.4" y1="220.5" x2="459.5" y2="220.5"/>
	<line class="st149" x1="447.8" y1="170.4" x2="427.6" y2="185.6"/>
	<line class="st149" x1="449.9" y1="177.5" x2="439.1" y2="185.8"/>
	<line class="st128" x1="386" y1="230.9" x2="386" y2="232.9"/>
	<line class="st128" x1="485.3" y1="230.9" x2="485.3" y2="233"/>
</g>
</svg>
