<?xml version="1.0" encoding="utf-8"?>
<!-- Generator: Adobe Illustrator 23.0.2, SVG Export Plug-In . SVG Version: 6.00 Build 0)  -->
<svg version="1.1" id="Layer_1" xmlns="http://www.w3.org/2000/svg" xmlns:xlink="http://www.w3.org/1999/xlink" x="0px" y="0px"
	 viewBox="0 0 972.5 554.9" style="enable-background:new 0 0 972.5 554.9;" xml:space="preserve">
<style type="text/css">
	.st0{opacity:0.6;}
	.st1{opacity:0.5;fill:#EFF7FE;enable-background:new    ;}
	.st2{opacity:0.15;fill:#DFE6EA;enable-background:new    ;}
	.st3{opacity:0.45;fill:#E1F5FB;enable-background:new    ;}
	.st4{opacity:0.3;fill:#D1F0EF;enable-background:new    ;}
	.st5{opacity:0.5;fill:#D1F0EF;enable-background:new    ;}
	.st6{opacity:0.5;fill:#DCE8EF;enable-background:new    ;}
	.st7{opacity:0.2;fill:#FCC8CE;enable-background:new    ;}
	.st8{opacity:0.6;fill:#D5F1F1;enable-background:new    ;}
	.st9{opacity:0.6;fill:#BBE9F9;enable-background:new    ;}
	.st10{fill:#F1FAFA;}
	.st11{opacity:0.2;fill:#FCB9C6;enable-background:new    ;}
	.st12{fill:#FCFDFF;}
	.st13{opacity:0.1;fill:#1DD4FF;enable-background:new    ;}
	.st14{opacity:0.2;fill:#A2EAE0;enable-background:new    ;}
	.st15{fill:#2394BC;}
	.st16{fill:#EFC75E;}
	.st17{fill:#353535;}
	.st18{fill:#231F20;}
	.st19{fill:#F79410;}
	.st20{fill:#FF5F00;}
	.st21{fill:#EB001B;}
	.st22{fill:#F79E1B;}
	.st23{fill:#636363;}
	.st24{fill:#419CF7;}
</style>
<g>
	<g id="BG">
		<g id="Layer_2_1_">
			<g class="st0">
				<ellipse class="st1" cx="308" cy="295.7" rx="284.9" ry="221.6"/>
				<ellipse class="st2" cx="577" cy="172.6" rx="202.4" ry="157.4"/>
				<ellipse class="st3" cx="683" cy="306.8" rx="278.2" ry="216.4"/>
				<path class="st4" d="M291.1,366.9c4.3-2.8,14.2,0.2,26.8,4c9,2.7,13.5,5.2,22.6,5.7c4.8,0.3,12,0.7,14.3-2.2
					c4.5-5.6-12.9-20.2-12.5-20.5c0.5-0.3,19.5,22.3,28.6,19.8c2.3-0.6,3.8-3.2,6.9-8.3c4.2-6.9,3.1-8.6,6-10.8
					c4.9-3.7,9.9-0.4,18.5-3.2c8.6-2.9,7.5-7.6,17.1-12.9c6.2-3.5,12-4.5,21.3-6.1c18.8-3.3,21.6,0.7,31-2.9
					c10.5-4,7.9-9.3,21.3-16.9c7.3-4.2,13.8-5.8,24.5-8.6c10.8-2.8,18.6-3.7,32.3-5.4c27.9-3.3,34.7-1.6,38.4-0.4
					c6.4,2.2,6.2,3.8,12.5,6.5c14.2,6,26.3,2.2,42.5,1.8c22.9-0.5,40.6,6.3,60.1,13.7c10.2,3.9,5.1,2.9,37,17.6
					c21.2,9.8,25.3,11.1,33.3,16.5c9,6.2,18.7,12.9,24.5,24.1c3.6,7,3,10.7,9.2,21.6c5,8.7,8.2,11.5,11.1,13.3
					c5.8,3.7,9,2.9,12.5,6.5c5.1,5.3,5,14.1,0.5,16.2c-3,1.4-7.4-0.4-9.2-1.1c-5.9-2.3-5.5-5.2-11.1-8.3c-1-0.6-8.5-4.6-16.6-2.9
					c-0.9,0.2-8.2,1.7-8.8,4.7c-1.5,7.1,37.1,10.3,43.9,27.7c2.6,6.5,0.5,14.4-4.2,19.8c-8.2,9.5-22,8.2-26.3,16.9
					c-3.2,6.3,1.2,13.1,2.3,14.7c9,13.7,38,20.9,57.3,14.4c11.7-4,23.1-14.2,35.1-24.8c5.4-4.8,8.7-8.3,14.8-9
					c9.7-1.1,21.8,5.6,24.5,13.3c4.5,12.7-16.6,27.8-31.9,34.9c-17,7.9-37.7,8.1-78.6,8.3c-33.6,0.1-50.6,0.1-62.4-6.5
					c-13.3-7.4-25.8-21.9-31.4-28.4c-9.5-11.1-13-18.1-22.6-19.8c-10.1-1.8-21.2,3.2-23.6,4.3c-7,3.2-6.3,5-12.5,8.3
					c-15.3,8.1-31.4,3-33.7,7.9c-1.5,3.1,3.6,7.6,8.8,12.2c6.8,6,10.7,6.4,11.1,9.3c0.7,5-9.3,12.4-19.4,12.6
					c-12.6,0.2-15.3-10.9-30.5-13.7c-3.1-0.6-9-1.2-32.3,6.5c-31.4,10.3-30.1,14.6-45.7,17.3c-17.4,3-33,0-48.5-2.9
					c-21-4-21.3-7.5-37-9c-21.8-2-24.1,4.6-43.9,2.9c-13.5-1.2-25.3-6.3-49-16.5c-19.6-8.5-21-10.6-29.6-14
					c-27.4-10.9-46.1-2.4-90.6-1.8c-32.6,0.4-81,1-97-19.8c-8.1-10.5-8.2-26.8,1.8-35.9c11.4-10.3,28.3-4.8,84.6-8.6
					c45.9-3.2,58-8.5,65.6-15.5c10.3-9.5,12-21.7,12.5-25.5C300.1,385.8,284.1,371.4,291.1,366.9z"/>
				<path class="st5" d="M329.9,458c4.3,2.8,14.2-0.2,26.8-4c9-2.7,13.5-5.3,22.6-5.8c4.8-0.3,12-0.7,14.3,2.1
					c4.5,5.6-12.8,20.3-12.4,20.5c0.5,0.3,19.4-22.3,28.6-19.8c2.3,0.6,3.8,3.2,7,8.3c4.2,6.9,3.1,8.6,6,10.8
					c4.9,3.7,9.9,0.4,18.5,3.2c8.6,2.8,7.5,7.5,17.1,12.9c6.2,3.5,12,4.5,21.3,6.1c18.8,3.2,21.6-0.7,31,2.8
					c10.5,4,7.9,9.3,21.3,16.9c7.3,4.1,13.8,5.8,24.5,8.6c10.8,2.8,18.6,3.7,32.4,5.3c27.9,3.3,34.7,1.6,38.4,0.3
					c6.4-2.2,6.2-3.8,12.5-6.5c14.2-6,26.3-2.2,42.5-1.9c22.9,0.5,40.6-6.3,60-13.7c10.2-3.9,5.1-2.9,36.9-17.7
					c21.2-9.8,25.3-11.1,33.2-16.6c8.9-6.2,18.7-12.9,24.4-24.1c3.5-7,3-10.7,9.2-21.6c4.9-8.7,8.2-11.5,11.1-13.3
					c5.7-3.7,9-2.9,12.5-6.5c5.1-5.3,5-14.1,0.4-16.2c-3-1.4-7.4,0.4-9.2,1.1c-5.9,2.3-5.4,5.2-11.1,8.3c-1,0.6-8.5,4.6-16.6,2.9
					c-0.9-0.2-8.2-1.7-8.8-4.7c-1.5-7.1,37-10.3,43.8-27.7c2.5-6.5,0.4-14.4-4.2-19.8c-8.2-9.4-22-8.2-26.4-16.9
					c-3.2-6.3,1.2-13.1,2.3-14.7c8.9-13.7,37.9-21,57.3-14.5c11.7,4,23.2,14.1,35.2,24.8c5.4,4.8,8.8,8.3,14.8,9
					c9.7,1.1,21.8-5.6,24.5-13.3c4.4-12.7-16.7-27.8-32-34.8c-17-7.8-37.8-8.1-78.6-8.2c-33.6-0.1-50.6,0-62.4,6.6
					c-13.3,7.4-25.7,21.9-31.4,28.4c-9.5,11.1-12.9,18.1-22.6,19.8c-10.1,1.8-21.2-3.2-23.6-4.3c-7-3.2-6.4-5-12.5-8.3
					c-15.3-8-31.4-2.9-33.8-7.9c-1.5-3.1,3.6-7.6,8.8-12.2c6.8-6,10.7-6.4,11.1-9.4c0.7-5-9.3-12.4-19.4-12.6
					c-12.6-0.2-15.2,11-30.5,13.7c-3.1,0.6-9,1.2-32.4-6.4c-31.4-10.3-30.2-14.5-45.8-17.2c-17.4-3-33,0-48.5,2.9
					c-21,4-21.2,7.6-37,9c-21.7,2-24.1-4.5-43.9-2.8c-13.5,1.2-25.3,6.3-48.9,16.6c-19.5,8.5-20.9,10.6-29.5,14.1
					c-27.4,10.9-46.1,2.4-90.6,1.9c-32.6-0.4-81-0.9-97,19.9c-8.1,10.5-8.2,26.8,1.9,35.9c11.4,10.3,28.3,4.7,84.6,8.5
					c45.9,3.1,58,8.4,65.7,15.4c10.3,9.5,12,21.7,12.5,25.5C338.9,439,322.9,453.4,329.9,458z"/>
				<path class="st6" d="M113.5,93c-3.7-1.3-3-7-8.8-8.4c-4.5-1.1-8.4,1.5-10.1,0c-2-1.7,2.6-5.4,0.3-8.6c-1.5-2.2-5.3-2.8-6.9-3
					c-6.2-1-9.5,1.9-11.8,0.5c-2.8-1.7,1.6-6.3-1.6-11.2c-1.5-2.3-4.8-4.6-8.8-4.8c-4.5-0.2-8.3,2.3-10.1,4.8
					c-2.6,3.6,0.4,5.5-1.6,10.7c-1.6,4.1-4.1,4.3-5.9,8.4c-1.9,4.3-0.9,7.8-0.3,10.7c2.4,12.8-2,27.6-5.9,27.9
					c-2.4,0.2-5.4-4.9-6.9-7.4c-2.7-4.6-2.8-7.7-4.6-7.9c-1.9-0.2-4,3-4.9,4.8c-2.3,4.7-2.1,11.8,3.3,15.5c4,2.8,7.7,1.5,8.8,3.6
					c1.8,3.4-7.7,7.1-11.1,17c-1.1,3.3-1.4,6.9,0,7.4c2.2,0.8,6.5-5.9,10.5-5.1c2.4,0.5,1.7,3.1,4.9,5.1c4.2,2.6,8.4,0.1,12.7,2
					c3.9,1.8,3.2,5.1,6.2,11.9c1.7,3.9,4.7,7.7,10.8,15.2c8.1,10.2,9.1,9.2,11.4,14c3.3,6.7,1.9,9.6,6.2,13
					c4.5,3.4,8.5,2.3,11.1,5.6c2.8,3.6,0.9,8.7-1.3,11.7c-2.7,3.6-8.4,5.6-19.6,9.4c-12.4,4.2-16.7,4.3-18.6,4.3
					c-3.6,0-9.4,0-13.7-3c-3.2-2.3-2.5-4.1-6.2-11.2c-3.3-6.4-4.9-9.5-8.5-11.4c-5.1-2.7-13-2.6-18.6-0.3
					c-8.8,3.7-10.3,12.6-13.4,30.5c-1.6,9.1-0.7,10.7,0.7,11.7c3,2.1,8.2,0.8,33.6-3c5-0.8,8.1-1.2,11.4,0c7,2.5,9.1,9.9,9.8,12.2
					c1.2,4.1,0.2,5.2,0.7,12.7c0.4,5.7,0.6,8.9,1.6,11.7c3.2,8.6,12,8.3,25.1,19.6c5.8,5,11.5,9.9,13.7,17.5
					c2.4,8.3-0.2,16.2-1.6,19.6c-3.6,8.8-8.6,10.4-7.2,14.2c2.5,6.8,21.5,10.6,27.1,6.1c2.8-2.2,0.3-4.9,3.3-7.9
					c4.2-4.2,15.9-5.2,22.5-1.5c2.3,1.3,4.5,3.4,9.1,21.3c3.2,12.2,3.3,15.9,7.8,18.5c4.8,2.9,11.2,2.7,16,2.5
					c7.4-0.2,9.3-1.9,18-3.3c10.4-1.7,12.5,0,20.9-1s9.2-3.1,24.2-8.6c22.2-8.3,24.8-5.5,36.2-11.9c2.7-1.5,8.3-5,17-8.6
					c5.2-2.2,8.4-3.1,9.8-3.6c2.7-0.8,8.4-2.3,16-2.8c9.4-0.5,11.5,1.2,14.4-0.5c4.2-2.6,0.6-7.3,5.2-11.2c3.4-2.9,9.1-3.5,13.1-3
					c4.2,0.5,4.8,2,14,6.6c6.6,3.3,9.9,4.9,13.1,5.3c6,0.8,8.7-1.1,13.7,0.8c3.7,1.3,3.2,2.7,6.5,3.6c3.9,1,6-0.3,13.7-1.3
					c8.3-1,8.2,0.3,10.8-0.8c5.8-2.4,3.8-7.9,10.5-13.7c4.5-3.9,6.4-2.4,9.5-5.3c7.9-7.7-5.3-18.3,1.3-31.5c2.7-5.4,7.5-9,10.5-11.2
					c9.9-7.4,17-6.5,21.2-12.7c2.9-4.3,3.6-10.6,0.3-15.2c-4.2-6-12.6-5.7-14.4-11.4c-1.3-4.2,2.5-6.8,0.3-8.9
					c-3.2-3.1-13.9-0.2-15.3,0.3c-11.8,3.3-15.2,9.6-19.9,8.4c-4.5-1.2-5.2-7.8-5.2-8.1c-0.4-4.8,2.8-7.2,7.2-14
					c2-3.1,6.7-10.4,8.2-19c0.9-5.5,2.1-12-2.6-15.2c-4.8-3.3-10.7,0.4-16.3-2.8c-5-2.9-2.1-7-6.5-16.5c-4.1-8.8-11-14.9-13.7-17.3
					c-6.5-5.6-7.9-4.4-10.5-7.9c-2.6-3.4-3.4-7.4,0-25.1c2.7-14.1,4.2-16.7,1.6-19c-2.5-2.2-6-2-28.1-1.3
					c-18.8,0.6-25.1,0.6-30.4-2.8c-4.8-3.1-6.3-7.4-6.5-8.1c-2.8-8.4,5.9-12.8,2.9-19.6c-2-4.6-8.7-8.7-14-8.1
					c-6.8,0.7-6.6,8.4-17.6,14.2c-6.1,3.2-14,5-15.7,3.3c-2.7-2.7,12.9-12.5,9.5-17.3c-2.6-3.6-14.2-1.9-15.3-1.8
					C257,74.2,254.9,82.1,243,86.5c-18.6,6.9-42.1-1.8-51.6-5.3c-20.5-7.6-20.8-15.2-31.7-15C138,66.2,122.5,96.1,113.5,93z"/>
				<path class="st7" d="M786.4,44.6c4.5-1.6,3.7-8.6,10.8-10.3c5.5-1.3,10.3,1.8,12.4,0c2.4-2.1-3.2-6.6-0.4-10.6
					c1.9-2.7,6.5-3.4,8.4-3.7c7.6-1.2,11.6,2.3,14.4,0.6c3.5-2.1-1.9-7.8,2-13.7c1.9-2.8,5.9-5.7,10.8-5.9
					c5.5-0.2,10.2,2.9,12.4,5.9c3.1,4.4-0.5,6.7,2,13.1c2,5.1,5,5.3,7.2,10.3c2.3,5.2,1.1,9.6,0.4,13.1c-3,15.7,2.5,33.9,7.2,34.3
					c2.9,0.3,6.6-6,8.4-9c3.4-5.7,3.4-9.4,5.6-9.7c2.3-0.2,4.9,3.7,6,5.9c2.8,5.8,2.5,14.4-4,19c-4.9,3.5-9.5,1.8-10.8,4.4
					c-2.2,4.1,9.5,8.8,13.6,20.9c1.4,4,1.8,8.4,0,9c-2.6,0.9-8-7.2-12.8-6.2c-2.9,0.6-2.1,3.8-6,6.2c-5.1,3.2-10.3,0.1-15.6,2.5
					c-4.8,2.2-3.9,6.3-7.6,14.7c-2.1,4.8-5.8,9.4-13.2,18.7c-9.9,12.5-11.1,11.3-14,17.1c-4.1,8.3-2.3,11.8-7.6,15.9
					c-5.5,4.2-10.5,2.8-13.6,6.9c-3.4,4.4-1.1,10.6,1.6,14.3c3.3,4.5,10.3,6.9,24.1,11.5c15.3,5.2,20.5,5.3,22.8,5.3
					c4.4,0,11.6,0,16.8-3.7c3.9-2.8,3.1-5,7.6-13.7c4-7.8,6.1-11.7,10.4-14c6.2-3.3,16-3.2,22.8-0.3c10.8,4.5,12.7,15.5,16.4,37.4
					c1.9,11.2,0.9,13.2-0.8,14.3c-3.7,2.5-10.1,1-41.3-3.7c-6.1-0.9-9.9-1.5-14,0c-8.6,3.1-11.2,12.2-12,15c-1.5,5-0.2,6.4-0.8,15.6
					c-0.4,7-0.7,10.9-2,14.3c-4,10.5-14.8,10.2-30.9,24c-7.2,6.2-14.1,12.1-16.8,21.5c-2.9,10.1,0.3,19.8,2,24
					c4.5,10.8,10.6,12.7,8.8,17.5c-3.1,8.4-26.4,13-33.3,7.5c-3.4-2.7-0.4-6-4-9.7c-5.2-5.2-19.5-6.4-27.7-1.9
					c-2.8,1.5-5.5,4.1-11.2,26.2c-3.9,15-4.1,19.5-9.6,22.8c-5.9,3.5-13.8,3.3-19.6,3.1c-9-0.3-11.4-2.4-22-4.1
					c-12.8-2-15.3,0-25.7-1.2c-10.3-1.3-11.3-3.7-29.7-10.6c-27.3-10.2-30.5-6.7-44.5-14.7c-3.3-1.9-10.2-6.1-20.8-10.6
					c-6.4-2.7-10.3-3.9-12-4.4c-3.3-0.9-10.3-2.9-19.6-3.4c-11.5-0.7-14.2,1.5-17.6-0.6c-5.2-3.2-0.8-8.9-6.4-13.7
					c-4.2-3.5-11.2-4.3-16-3.7c-5.2,0.6-5.9,2.5-17.2,8.1c-8.1,4-12.1,6-16,6.5c-7.4,1-10.6-1.3-16.8,0.9c-4.6,1.6-3.9,3.3-8,4.4
					c-4.7,1.3-7.3-0.4-16.8-1.6c-10.2-1.2-10,0.4-13.2-0.9c-7.2-3-4.7-9.7-12.8-16.8c-5.5-4.8-7.9-2.9-11.6-6.5
					c-9.7-9.4,6.5-22.4-1.6-38.7c-3.3-6.6-9.2-11-12.8-13.7c-12.2-9.1-20.8-7.9-26.1-15.6c-3.6-5.3-4.4-13-0.4-18.7
					c5.2-7.4,15.5-7,17.6-14c1.6-5.2-3.1-8.3-0.4-10.9c3.9-3.7,17-0.2,18.8,0.3c14.5,4,18.6,11.8,24.5,10.3c5.5-1.4,6.4-9.6,6.4-10
					c0.5-5.9-3.4-8.8-8.8-17.1c-2.5-3.8-8.2-12.8-10-23.4c-1.2-6.7-2.5-14.8,3.2-18.7c5.9-4.1,13.2,0.5,20-3.4
					c6.1-3.5,2.6-8.6,8-20.3c5-10.9,13.5-18.3,16.8-21.2c8-6.9,9.6-5.4,12.8-9.7c3.1-4.2,4.2-9.1,0-30.9c-3.3-17.3-5.2-20.5-2-23.4
					c3-2.8,7.4-2.4,34.5-1.6c23.1,0.7,30.8,0.8,37.3-3.4c5.9-3.8,7.7-9.1,8-10c3.4-10.3-7.2-15.7-3.6-24c2.5-5.6,10.7-10.7,17.2-10
					c8.3,0.9,8.1,10.3,21.6,17.5c7.5,4,17.2,6.1,19.2,4.1c3.3-3.3-15.8-15.4-11.6-21.2c3.1-4.4,17.4-2.4,18.8-2.2
					c18.1,2.7,20.6,12.4,35.3,17.8c22.9,8.5,51.7-2.2,63.3-6.5c25.2-9.3,25.6-18.6,38.9-18.4C756.3,11.7,775.4,48.4,786.4,44.6z"/>
				<path class="st8" d="M181.5,191.5c-3.1,0.5-1.2,7.1-7.6,16.6c-3.4,5.1-5,4.7-7.1,8.5c-4,7.1-0.5,11.9,0.5,22.5
					c1,10.9-1.2,24.4-5.7,25.1c-3.9,0.5-8.8-10.7-10-10.3c-1.4,0.4,10.4,14.9,4.7,28c-4,9.3-14.9,13.8-12.8,16.6
					c2,2.6,11.4-1.6,20.9,2.6c3.2,1.4,5.1,3.4,9,7.4c5.8,6,7.7,9.8,11.9,15.5c2.8,3.9,2.3,2.6,14.2,16.2
					c7.8,8.9,11.8,13.5,15.2,18.1c7.4,10.1,11.2,15.2,10.4,19.9c-1.4,9.3-13.6,15.1-19.9,18.1c-6.2,2.9-12.9,6.1-20.4,4.8
					c-5.9-1-7.6-4.1-13.7-4.1c-6.5,0-9.2,3.4-11.9,2.2c-3.5-1.6,0.7-7.4-3.3-14c-0.2-0.4-4.3-6.7-11.9-7.7c-7-0.9-13,3.3-15.2,4.8
					c-10.4,7.3-9.2,16.3-14.2,38.7c-5,22.2-10.2,31-5.2,33.6c4.1,2.1,12.6-1.2,17.5-5.2c8.4-6.8,3.4-13.6,11.9-22.5
					c1-1.1,9.3-9.8,18-8.5c7.5,1.2,13.4,9.6,11.9,16.2c-1.9,8.4-14.4,8.4-19,18.8c-0.4,0.9-3.9,9.4,1.9,16.2
					c4.9,5.7,13.5,6.8,20.4,7.7c6.6,0.9,17.5,2.3,22.8-2.2c3.2-2.8,1.2-5.1,4.7-16.6c1.6-5.2,2.8-9.2,4.7-9.2
					c2.2-0.1,4.8,5.2,5.7,9.6c1.4,7.1-1.8,10,0.9,12.5c3,2.8,10.2,2.3,14.7,0.7c0.9-0.3,8.3-2.9,8.5-8.1c0.2-3.5-3.1-6.7-6.6-8.1
					c-5.7-2.3-10.5,0.7-12.8-1.5c-2.2-2,0-6.7,2.8-9.6c3.2-3.3,5.6-2.4,8.1-5.2c2.1-2.4,1.6-4.4,1.4-12.9c-0.1-5.8-0.2-8.6,0-9.6
					c1.1-6.1,6.6-9.3,16.6-16.6c11.8-8.6,3.6-3.8,25.1-19.9c12.7-9.6,19.1-14.3,21.8-15.5c11.3-4.8,18.6-3.1,43.6-4.1
					c24.8-0.9,37.1-1.4,48.4-4.8c23.4-7.1,20.5-17.1,40.8-22.9c29.5-8.4,61.5,5.3,64.5,6.6c22.4,9.9,21.8,20.7,41.7,24.7
					c17.5,3.5,22.4-4,40.3-0.7c26.8,4.9,40.1,26.1,43.1,24.3c2.8-1.6-9.5-18.3-12.8-22.9c-11.2-15.3-17.1-19.9-27-33.2
					c-9.6-12.8-14.4-19.2-16.6-26.2c-7.6-24,9.4-38.9-1.4-47.2c-5.4-4.1-14.1-4-28.4-3.7c-17.1,0.3-20.1,4.1-31.8,2.6
					c-10-1.3-24.3-6.4-25.6-13.6c-1.3-7,10.5-10.6,10.4-21.8c0-2.7-0.1-6.9-3.3-8.5c-2.3-1.1-6.7-1.2-34.6,11.1
					c-8,3.5-11.8,5.4-15.2,4.1c-4.1-1.6-2.9-6.3-9.5-12.5c-2.8-2.7-4.7-4.5-7.6-4.8c-6.2-0.7-8.6,6.1-18.5,10.3
					c-8.1,3.4-16.2,3.1-26.1,2.6c-15.5-0.7-15.2-4.1-24.7-4.1c-17.6,0.2-22.3,11.9-50.7,18.1c-7.7,1.7-12.6,1.9-16.6,0
					c-7.4-3.5-1.5-12.6-7.6-17c-9.2-6.6-30.2,7.1-41.2,0.4c-8-4.9-4.7-16.7-10.9-17.7c-4-0.7-5.8,4-10.9,4.1
					C192.3,208.5,186.5,190.6,181.5,191.5z"/>
				<ellipse class="st9" cx="201.4" cy="226.1" rx="16.1" ry="12.5"/>
				<ellipse class="st10" cx="490.2" cy="117.3" rx="16.1" ry="12.5"/>
				<ellipse class="st10" cx="857.5" cy="231.6" rx="16.1" ry="12.5"/>
				<ellipse class="st11" cx="751.9" cy="93.9" rx="16.1" ry="12.5"/>
				<ellipse class="st12" cx="139" cy="129.9" rx="16.1" ry="12.5"/>
				<ellipse class="st10" cx="243" cy="266.8" rx="9.1" ry="7"/>
				<ellipse class="st10" cx="289.2" cy="235.1" rx="9.1" ry="7"/>
				<ellipse class="st10" cx="325" cy="282.5" rx="8.6" ry="6.3"/>
				<ellipse class="st7" cx="441.2" cy="273.9" rx="17.1" ry="10.2"/>
				<ellipse class="st10" cx="508.6" cy="364.3" rx="6" ry="5.9"/>
				<ellipse class="st10" cx="250" cy="486.4" rx="6" ry="5.9"/>
				<ellipse class="st10" cx="642.5" cy="476.2" rx="6" ry="5.9"/>
				<ellipse class="st10" cx="904.2" cy="324.4" rx="6" ry="5.9"/>
				<ellipse class="st10" cx="903.2" cy="213.2" rx="6" ry="5.9"/>
				<ellipse class="st10" cx="547.9" cy="319.7" rx="8.1" ry="5.9"/>
				<ellipse class="st10" cx="547.9" cy="268.8" rx="5" ry="5.1"/>
				<ellipse class="st10" cx="631.9" cy="244.5" rx="7.5" ry="5.1"/>
				<ellipse class="st10" cx="674.7" cy="201.9" rx="6" ry="5.5"/>
				<ellipse class="st10" cx="453.3" cy="203.4" rx="6" ry="5.5"/>
				<ellipse class="st10" cx="548.4" cy="186.2" rx="5.5" ry="3.1"/>
				<ellipse class="st10" cx="609.3" cy="416" rx="6" ry="3.5"/>
				<ellipse class="st13" cx="712.9" cy="402.3" rx="13.4" ry="12.5"/>
				<ellipse class="st14" cx="330" cy="446.5" rx="14.6" ry="10.6"/>
				<ellipse class="st5" cx="134.3" cy="354.1" rx="13.1" ry="9.8"/>
				<ellipse class="st10" cx="57.8" cy="274.7" rx="14.1" ry="13.3"/>
			</g>
		</g>
	</g>
</g>
<g>
	<g>
		<g>
			<path class="st15" d="M284.7,193.7l-6.8,42h10.8l6.8-42H284.7z M317.3,210.8c-3.8-1.9-6.1-3.1-6.1-5c0.1-1.8,1.9-3.5,6.2-3.5
				c3.5-0.1,6.1,0.8,8,1.6l1,0.4l1.4-8.8c-2.1-0.8-5.5-1.8-9.7-1.8c-10.7,0-18.1,5.5-18.2,13.4c-0.1,5.8,5.4,9.1,9.5,11.1
				c4.1,2,5.6,3.3,5.6,5.1c-0.1,2.7-3.4,4-6.5,4c-4.3,0-6.6-0.6-10.1-2.1l-1.4-0.6l-1.5,9.2c2.5,1.1,7.2,2.1,12.1,2.2
				c11.3,0,18.7-5.5,18.8-13.9C326.4,217.3,323.5,213.7,317.3,210.8z M355.6,193.8h-8.4c-2.6,0-4.5,0.8-5.7,3.4l-16,38.5h11.3
				l3.1-8.4h12.6l1.6,8.4h10L355.6,193.8z M343.1,219c0.2,0,4.3-13.6,4.3-13.6l3.3,13.6C350.7,219,345.2,219,343.1,219z
				 M268.9,193.7l-10.6,28.6l-1.1-5.7c-2-6.5-8.1-13.6-14.9-17l9.7,36.1h11.4l17-41.9L268.9,193.7L268.9,193.7z"/>
		</g>
	</g>
	<path class="st16" d="M253.6,199.1c-0.8-3.2-3.5-5.3-7-5.4h-16.8l-0.2,0.8c13.1,3.2,24.1,13.1,27.6,22.4L253.6,199.1z"/>
</g>
<g>
	<g>
		<g>
			<polygon points="664.8,193.8 661.9,200.8 667.7,200.8 			"/>
		</g>
	</g>
	<g>
		<g>
			<polygon points="564.5,193.8 561.7,200.8 567.4,200.8 			"/>
		</g>
	</g>
	<g>
		<g>
			<path d="M631.1,194.8c-0.5-0.3-1.3-0.3-2-0.3h-5.2v3.9h5.1c0.8,0,1.5,0,2.1-0.3c0.5-0.3,0.9-0.9,0.9-1.7
				C632,195.6,631.6,195,631.1,194.8z"/>
		</g>
	</g>
	<g>
		<g>
			<path d="M649.2,225.1c-0.5-0.3-1.3-0.3-2-0.3H642v4h5.1c0.8,0,1.5,0,2.1-0.3c0.5-0.3,0.9-0.9,0.9-1.7
				C650.1,225.9,649.7,225.4,649.2,225.1z"/>
		</g>
	</g>
	<g>
		<g>
			<path d="M628.6,224.8h-5.5v4.5h5.5c1.6,0,2.6-0.8,2.6-2.3C631.2,225.4,630.2,224.8,628.6,224.8z"/>
		</g>
	</g>
	<g>
		<g>
			<path d="M706.6,227.5c-0.1-0.1-0.1-0.1-0.1-0.1c0.8-0.5,1.3-1.4,1.3-2.4v-3.8c0-1.6-1.3-2.9-2.9-2.9h-8.4c-2.6,0-4.6,0.8-6.1,1.9
				c-0.4-1.1-1.5-1.9-2.7-1.9h-8.4c-2.3,0-4.1,0.6-5.5,1.5c-0.5-0.9-1.4-1.5-2.5-1.5h-14.1c-1.2,0-2.1,0.6-2.6,1.6
				c-0.2-0.1-0.3-0.3-0.6-0.4c-2-1.1-4.2-1.2-6.5-1.2h-9.8c-1.2,0-2.1,0.6-2.6,1.6c-1.5-1-3.5-1.6-6.5-1.6h-13.5
				c-0.8,0-1.6,0.3-2.2,0.9l-3.2,3.4l-3.1-3.4c-0.5-0.6-1.3-1-2.2-1h-17c-1.6,0-2.9,1.3-2.9,2.9v17.7c0,1.6,1.3,2.9,2.9,2.9h16.7
				c0.8,0,1.6-0.3,2.2-0.9l3.2-3.5l3.1,3.4c0.6,0.6,1.3,1,2.2,1h8.2c1.6,0,2.9-1.3,2.9-2.9v-3h2.3c2.9,0,4.9-0.6,6.4-1.5v4.5
				c0,1.6,1.3,2.9,2.9,2.9h4.2c1.6,0,2.9-1.3,2.9-2.9v-3.5h1.6c0.4,0,0.6,0,0.9,0c0,0.3,0,0.7,0,0.9v2.6c0,1.6,1.3,2.9,2.9,2.9h4.2
				c0.5,0,0.9-0.1,1.3-0.3c0.4,0.2,0.8,0.3,1.3,0.3h14.1c0.5,0,0.9-0.1,1.3-0.3c0.4,0.2,0.8,0.3,1.3,0.3h8.2c2.6,0,4.8-0.6,6.3-1.7
				c0.5,1,1.5,1.7,2.7,1.7h8.2c6,0,9.5-3.2,9.5-8.5C708.7,230.8,708,229,706.6,227.5z M628.4,232.9h-5.3v5.9h-8.2l-5.2-5.8l-5.4,5.8
				h-16.7v-17.7h17l5.2,5.8l5.4-5.8h13.5c3.4,0,7.1,0.9,7.1,5.8C635.7,231.9,632.1,232.9,628.4,232.9z M651.7,230.6
				c0.9,0.3,1.7,1,2,1.5c0.6,0.9,0.7,1.7,0.7,3.2v3.5h-4.2v-2.2c0-1,0.1-2.6-0.7-3.4c-0.6-0.6-1.6-0.8-3.1-0.8H642v6.5h-4.2v-17.7
				h9.8c2.2,0,3.7,0.1,5.1,0.8c1.3,0.8,2.2,1.9,2.2,3.9C654.7,228.7,652.8,230.2,651.7,230.6z M671.1,224.8h-9.9v3.2h9.7v3.6h-9.7
				v3.5h9.9v3.7H657v-17.7h14.1V224.8z M681.9,238.8h-8.2V235h8.2c0.8,0,1.3-0.1,1.7-0.5c0.3-0.3,0.5-0.7,0.5-1.2
				c0-0.5-0.2-0.9-0.5-1.2c-0.3-0.3-0.8-0.4-1.5-0.4c-4-0.1-8.9,0.1-8.9-5.5c0-2.6,1.6-5.2,6.1-5.2h8.4v3.8h-7.7
				c-0.8,0-1.3,0.1-1.7,0.3c-0.5,0.3-0.6,0.7-0.6,1.3c0,0.6,0.4,1.1,0.9,1.3c0.5,0.2,0.9,0.2,1.6,0.2l2.3,0.1
				c2.3,0.1,3.8,0.5,4.8,1.4c0.8,0.9,1.3,1.9,1.3,3.7C688.5,237.1,686.1,238.8,681.9,238.8z M699.2,238.8H691V235h8.2
				c0.8,0,1.3-0.1,1.7-0.5c0.3-0.3,0.5-0.7,0.5-1.2c0-0.5-0.2-0.9-0.5-1.2c-0.3-0.3-0.8-0.4-1.5-0.4c-4-0.1-8.9,0.1-8.9-5.5
				c0-2.6,1.6-5.2,6.1-5.2h8.4v3.8h-7.7c-0.8,0-1.3,0.1-1.7,0.3c-0.5,0.3-0.6,0.7-0.6,1.3c0,0.6,0.4,1.1,0.9,1.3
				c0.5,0.2,0.9,0.2,1.6,0.2l2.3,0.1c2.3,0.1,3.9,0.5,4.8,1.4c0.8,0.9,1.3,1.9,1.3,3.7C705.7,237.1,703.4,238.8,699.2,238.8z"/>
		</g>
	</g>
	<g>
		<g>
			<path d="M693.3,187.8H689c-1.6,0-2.9,1.3-2.9,2.9v1.8l-2-3.3c-0.5-0.9-1.5-1.4-2.5-1.4h-6.5c-1.6,0-2.9,1.3-2.9,2.9v2.5l-1.6-3.6
				c-0.5-1-1.5-1.7-2.7-1.7h-6.3c-0.6,0-1.3,0.2-1.7,0.6c-0.5-0.3-1.1-0.6-1.7-0.6h-4.1c-3.5,0-6.1,0.8-7.9,2.5
				c-0.2-1.4-1.4-2.5-2.9-2.5h-4.2c-1.2,0-2.1,0.7-2.6,1.6c-0.2-0.1-0.3-0.3-0.5-0.4c-2-1.2-4.1-1.2-6.6-1.2h-9.7
				c-0.5,0-1,0.2-1.5,0.5c-0.4-0.2-0.9-0.5-1.5-0.5h-14.1c-0.6,0-1.1,0.2-1.6,0.5c-0.5-0.3-1-0.5-1.6-0.5h-7c-1.2,0-2.2,0.7-2.7,1.8
				l-2.5,5.9l-2.7-6c-0.5-1-1.5-1.7-2.7-1.7H575c-1.6,0-2.9,1.3-2.9,2.9v2.6l-1.6-3.7c-0.5-1-1.5-1.7-2.7-1.7h-6.3
				c-1.2,0-2.2,0.7-2.7,1.7l-7.6,17.7c-0.4,0.9-0.3,1.9,0.2,2.7c0.5,0.8,1.5,1.3,2.4,1.3h4.6c1.2,0,2.2-0.7,2.7-1.8l0.9-2.2h4.9
				l0.9,2.2c0.5,1.1,1.5,1.8,2.7,1.8h8.6c1.6,0,2.9-1.3,2.9-2.9v-0.1l0.6,1.3c0.5,1,1.5,1.7,2.7,1.7h3.7c1.2,0,2.2-0.7,2.7-1.7
				l0.6-1.2v0.1c0,1.6,1.3,2.9,2.9,2.9h4.3c0.6,0,1.1-0.2,1.6-0.5c0.5,0.3,1,0.5,1.6,0.5h14.1c0.5,0,1-0.2,1.5-0.5
				c0.5,0.2,0.9,0.5,1.5,0.5h4.2c1.6,0,2.9-1.3,2.9-2.9v-3.5h1.6c0.3,0,0.6,0,0.8,0c0,0.3,0,0.6,0,0.9v0.4v2.2
				c0,1.6,1.3,2.9,2.9,2.9h4.2c0.5,0,0.9-0.2,1.3-0.3c0.4,0.2,0.8,0.3,1.3,0.3h4.3c1.4,0,2.6-1,2.8-2.3c2.4,2,5.8,2.3,7.6,2.3h4.9
				c1.2,0,2.3-0.7,2.7-1.8l0.9-2.1h4.9l0.9,2.2c0.5,1.1,1.5,1.8,2.7,1.8h8.6c1.6,0,2.9-1.3,2.9-2.9v-2.8l2.6,4.3
				c0.5,0.9,1.5,1.4,2.5,1.4h6c1.6,0,2.9-1.3,2.9-2.9V191C696.3,189.2,694.9,187.8,693.3,187.8z M599.5,208.4h-4.3v-13.8l-6.2,13.8
				h-3.7l-6.1-13.8v13.8h-8.6l-1.6-4h-8.8l-1.6,4h-4.6l7.6-17.7h6.3l7.2,16.7v-16.7h6.9l5.5,12l5.1-12h7.1V208.4z M616.7,194.4h-9.9
				v3.2h9.7v3.6h-9.7v3.5h9.9v3.7h-14.1v-17.7h14.1V194.4z M633.7,200.2c0.9,0.3,1.7,1,2.1,1.5c0.6,0.9,0.7,1.7,0.7,3.3v3.5h-4.2
				v-2.2c0-1,0.1-2.6-0.6-3.4c-0.6-0.6-1.6-0.8-3.1-0.8h-4.5v6.4h-4.2l0,0v-17.7h9.7c2.2,0,3.7,0.1,5.1,0.9c1.3,0.8,2.2,1.9,2.2,3.9
				C636.6,198.3,634.7,199.8,633.7,200.2z M643.4,208.4h-4.3v-17.7h4.3V208.4z M693.3,208.4h-6l-8-13.3v13.3h-8.6l-1.6-4h-8.8
				l-1.6,4h-4.9c-2,0-4.7-0.5-6.1-2c-1.5-1.5-2.3-3.5-2.3-6.7c0-2.6,0.5-5,2.3-6.9c1.3-1.4,3.5-2,6.4-2h4.1v3.8h-4
				c-1.5,0-2.4,0.2-3.3,1c-0.7,0.8-1.2,2.2-1.2,4c0,1.9,0.3,3.3,1.2,4.1c0.6,0.7,1.9,0.9,3,0.9h1.9l5.9-13.9h6.3l7.2,16.7v-16.7h6.5
				L689,203v-12.3h4.3V208.4L693.3,208.4z M655.6,197.4l-1.9,4.2c-0.4,0-0.7-0.1-0.8-0.1c-0.1-0.3-0.3-0.9-0.3-2
				c0-1.2,0.3-1.9,0.3-1.9c0.1-0.1,0.2-0.2,1.2-0.2H655.6z"/>
		</g>
	</g>
	<g>
		<g>
			<polygon points="612.4,230 618.9,237.2 618.9,223 			"/>
		</g>
	</g>
	<g>
		<g>
			<polygon points="602.4,224.8 591.8,224.8 591.8,228 601.1,228 601.1,231.6 591.8,231.6 591.8,235.1 602.2,235.1 607,230 			"/>
		</g>
	</g>
</g>
<g>
	<path class="st17" d="M506.1,314.3c0-0.9,0.8-1.7,2.1-1.7h9.8c6.2,0,11.1,3,11.1,11.1v0.4c0,8.1-5,11.2-11.4,11.2h-6.3v12.5
		c0,1.2-1.3,1.8-2.7,1.8c-1.3,0-2.7-0.6-2.7-1.8V314.3L506.1,314.3z M511.5,317.3V331h6.3c3.8,0,6-2.1,6-6.6v-0.6
		c0-4.5-2.3-6.5-6-6.5L511.5,317.3L511.5,317.3z"/>
	<path class="st17" d="M548.2,335.1v12.7c0,1-1.1,1.8-2.6,1.8c-1.4,0-2.4-0.8-2.4-1.8v-1.8c-1.8,2.1-4.2,4-7.6,4
		c-3.7,0-6.7-2.1-6.7-6.7c0-5.7,4.8-7.2,11.8-7.2h2.2v-1c0-2.6-1.3-5.5-5-5.5s-4.6,1.5-5.6,1.5c-1.3,0-1.9-1.5-1.9-2.7
		c0-1.8,4.2-3.2,7.6-3.2C545.4,325.3,548.2,330,548.2,335.1z M542.9,339h-1.3c-3.9,0-7.4,0.4-7.4,3.7c0,2.3,1.4,3.3,3.3,3.3
		c2.5,0,5.4-2.6,5.4-5.1V339L542.9,339z"/>
	<path class="st17" d="M549,328.5c-0.2-0.2-0.2-0.4-0.2-0.7c0-1.4,2.1-2.5,3.5-2.5c0.7,0,1.4,0.3,1.6,1l6.4,16.4l5.5-16.4
		c0.3-0.7,0.9-1,1.5-1c1.3,0,3.6,1.1,3.6,2.6c0,0.2,0,0.5-0.1,0.6l-7.5,19.7c-2.3,6-4.8,12.7-11.9,12.7c-1.4,0-2.5-0.4-2.5-2.3
		c0-1.2,0.4-2.3,1.5-2.3c2.6,0,6.5-2.6,7.2-8.3L549,328.5z"/>
	<g>
		<path class="st17" d="M478.9,313.2c0,0-0.6-9.6,9.7-11.1C488.7,302,489.1,312.3,478.9,313.2z"/>
		<path class="st17" d="M497.4,318.5c0,0-5.8,3.1-5.2,10.1c0.6,7,6.5,8.9,6.5,8.9s-3,8-6.8,11.1c-3.9,3.2-6.6,0.9-10.8-0.2
			c-4.3-1-8.5,4.1-12.7,0.5c-4.3-3.6-7.9-10.4-8.8-16.6s0.1-12.8,5.6-16.8c5.5-4,10.8-0.7,10.8-0.7s2.1,1.5,5.9,0.3
			C485.7,313.9,491.8,311.4,497.4,318.5z"/>
	</g>
</g>
<g transform="translate(1565.7 -1106.8)">
	<g transform="matrix(3.1437 0 0 3.1437 -4835.7 -1027.6)">
		<g transform="matrix(1.25 0 0 -1.25 1102.5 727.74)">
			<path class="st18" d="M77.3-24.3L77.3-24.3L77.3-24.3C77.4-24.3,77.4-24.3,77.3-24.3L77.3-24.3L77.3-24.3
				C77.4-24.3,77.4-24.3,77.3-24.3L77.3-24.3z M77.4-24.2L77.4-24.2L77.4-24.2L77.4-24.2L77.4-24.2l0-0.1h0V-24.2L77.4-24.2l0-0.1h0
				L77.4-24.2L77.4-24.2L77.4-24.2z M77.3-24.5L77.3-24.5C77.4-24.5,77.4-24.5,77.3-24.5l0.1,0.1v0v0c0,0,0,0,0,0l0,0h0h0
				c0,0,0,0,0,0l0,0v0v0C77.2-24.4,77.2-24.4,77.3-24.5L77.3-24.5C77.3-24.5,77.3-24.5,77.3-24.5 M77.3-24.1
				C77.4-24.1,77.4-24.1,77.3-24.1c0.1,0,0.1,0,0.1,0l0,0c0,0,0,0,0-0.1s0,0,0-0.1c0,0,0,0,0,0l0,0c0,0,0,0-0.1,0s0,0-0.1,0
				c0,0,0,0,0,0l0,0c0,0,0,0,0,0.1s0,0,0,0.1s0,0,0,0L77.3-24.1C77.3-24.1,77.3-24.1,77.3-24.1 M59.1-23.4c0,0.3,0.2,0.6,0.6,0.6
				c0.4,0,0.6-0.3,0.6-0.6c0-0.3-0.2-0.6-0.6-0.6C59.3-24,59.1-23.8,59.1-23.4 M60.7-23.4v1h-0.4v-0.2c-0.1,0.2-0.3,0.3-0.6,0.3
				c-0.6,0-1-0.4-1-1s0.4-1,1-1c0.3,0,0.5,0.1,0.6,0.3v-0.2h0.4V-23.4z M75.1-23.4c0,0.3,0.2,0.6,0.6,0.6c0.4,0,0.6-0.3,0.6-0.6
				c0-0.3-0.2-0.6-0.6-0.6C75.3-24,75.1-23.8,75.1-23.4 M76.6-23.4v1.8h-0.4v-1c-0.1,0.2-0.3,0.3-0.6,0.3c-0.6,0-1-0.4-1-1
				s0.4-1,1-1c0.3,0,0.5,0.1,0.6,0.3v-0.2h0.4V-23.4z M65.9-22.8c0.3,0,0.5-0.2,0.5-0.5h-1C65.5-23,65.7-22.8,65.9-22.8 M66-22.4
				c-0.6,0-1-0.4-1-1s0.4-1,1-1c0.3,0,0.6,0.1,0.8,0.3l-0.2,0.3c-0.2-0.1-0.4-0.2-0.6-0.2c-0.3,0-0.5,0.1-0.6,0.5h1.5
				c0,0,0,0.1,0,0.1C66.9-22.8,66.5-22.4,66-22.4 M71.1-23.4c0,0.3,0.2,0.6,0.6,0.6c0.4,0,0.6-0.3,0.6-0.6c0-0.3-0.2-0.6-0.6-0.6
				C71.3-24,71.1-23.8,71.1-23.4 M72.7-23.4v1h-0.4v-0.2c-0.1,0.2-0.3,0.3-0.6,0.3c-0.6,0-1-0.4-1-1s0.4-1,1-1
				c0.3,0,0.5,0.1,0.6,0.3v-0.2h0.4V-23.4z M68.7-23.4c0-0.6,0.4-1,1-1c0.3,0,0.5,0,0.7,0.2l-0.2,0.3c-0.1-0.1-0.3-0.2-0.5-0.2
				c-0.3,0-0.6,0.2-0.6,0.6c0,0.4,0.2,0.6,0.6,0.6c0.2,0,0.4,0,0.5-0.2l0.2,0.3c-0.2,0.2-0.4,0.2-0.7,0.2
				C69.1-22.4,68.7-22.8,68.7-23.4 M74.2-22.4c-0.2,0-0.4-0.1-0.5-0.3v0.2h-0.4v-2h0.4v1.1c0,0.3,0.1,0.5,0.4,0.5c0.1,0,0.2,0,0.3,0
				l0.1,0.4C74.4-22.4,74.3-22.4,74.2-22.4 M62.8-22.6c-0.2,0.1-0.5,0.2-0.8,0.2c-0.5,0-0.8-0.2-0.8-0.6c0-0.3,0.2-0.5,0.7-0.6
				l0.2,0c0.2,0,0.3-0.1,0.3-0.2c0-0.1-0.1-0.2-0.5-0.2c-0.3,0-0.5,0.1-0.7,0.2l-0.2-0.3c0.2-0.2,0.5-0.2,0.8-0.2
				c0.6,0,0.9,0.3,0.9,0.7c0,0.3-0.3,0.5-0.7,0.6l-0.2,0c-0.2,0-0.3,0-0.3,0.2c0,0.1,0.1,0.2,0.4,0.2s0.5-0.1,0.6-0.2L62.8-22.6z
				 M68.3-22.4c-0.2,0-0.4-0.1-0.5-0.3v0.2h-0.4v-2h0.4v1.1c0,0.3,0.1,0.5,0.4,0.5c0.1,0,0.2,0,0.3,0l0.1,0.4
				C68.5-22.4,68.4-22.4,68.3-22.4 M64.6-22.4h-0.7v0.6h-0.4v-0.6h-0.4v-0.4h0.4v-0.9c0-0.5,0.2-0.7,0.7-0.7c0.2,0,0.4,0,0.5,0.1
				l-0.1,0.4C64.4-24,64.2-24,64.1-24c-0.2,0-0.3,0.1-0.3,0.3v0.9h0.7L64.6-22.4L64.6-22.4z M58.3-24.4v1.2c0,0.5-0.3,0.8-0.8,0.8
				c-0.2,0-0.5-0.1-0.7-0.3c-0.1,0.2-0.3,0.3-0.7,0.3c-0.2,0-0.4,0-0.6-0.3v0.2h-0.4v-2h0.4v1.1c0,0.3,0.2,0.5,0.5,0.5
				s0.4-0.2,0.4-0.5v-1.1h0.4v1.1c0,0.3,0.2,0.5,0.5,0.5c0.3,0,0.4-0.2,0.4-0.5v-1.1H58.3z"/>
		</g>
		<g transform="matrix(1.25 0 0 -1.25 1103.2 710.77)">
			<path class="st19" d="M77-31.5v0.3h-0.1l-0.1-0.2l-0.1,0.2h0v-0.3h0v0.2l0.1-0.2h0l0.1,0.2L77-31.5L77-31.5z M76.6-31.5v0.2h0.1
				v0h-0.2v0h0.1L76.6-31.5L76.6-31.5z"/>
		</g>
		<path class="st20" d="M1188.9,751.6h-8.1v-14.5h8.1V751.6z"/>
		<g transform="matrix(1.25 0 0 -1.25 1064.5 698.59)">
			<path class="st21" d="M93.5-36.6c0,2.3,1.1,4.5,2.8,5.8c-1.3,1-2.9,1.6-4.6,1.6c-4.1,0-7.4-3.3-7.4-7.4s3.3-7.4,7.4-7.4
				c1.7,0,3.3,0.6,4.6,1.6C94.5-41.1,93.5-39,93.5-36.6"/>
		</g>
		<g transform="matrix(1.25 0 0 -1.25 1103.8 698.59)">
			<path class="st22" d="M76.8-36.6c0-4.1-3.3-7.4-7.4-7.4c-1.7,0-3.3,0.6-4.6,1.6c1.7,1.4,2.8,3.4,2.8,5.8s-1.1,4.5-2.8,5.8
				c1.3,1,2.9,1.6,4.6,1.6C73.5-29.2,76.8-32.6,76.8-36.6"/>
		</g>
	</g>
</g>
<g>
	<path d="M367.1,313c0,0,4.8,3.6,2.4,9c-2.4,5.4-6,14.5-6,14.5s-0.6,1.2,0,3c0.6,1.8,0.6,8.4-1.2,10.8l10.8,4.2c0,0,0.6,4.2,6,4.8
		c0,0-3.6,4.2-12,4.8c-8.4,0.6-13.2,9-13.2,9l-10.8-18l7.8-7.2c0,0-0.6-7.2,2.4-11.4C356.3,332.3,367.1,313,367.1,313z"/>
	<path class="st23" d="M377.9,343.1l-12.6-4.8c1.8,6-0.6,11.4-0.6,11.4l9,3c1.2-3.6,4.2-3.6,4.2-3.6
		C375.5,344.9,377.9,343.1,377.9,343.1z M372.2,349.4c-1.7,0-3-1.3-3-3s1.3-3,3-3c1.7,0,3,1.3,3,3S373.9,349.4,372.2,349.4z"/>
	<path class="st23" d="M372.6,317.2l-2.4-4.8l2.4-4.8c0,0,1.2-3,6.6-1.2c5.4,1.8,15,5.4,15,5.4s3.6,3,1.8,7.8
		c-1.8,4.8-5.4,13.3-5.4,13.3H387l6-15l-18.1-6.6L372.6,317.2z"/>
	<path d="M395.4,326.2l-2.4,6.6h5.4c0,0,4.2,0,4.2-3c0-3-4.2-3.6-4.2-3.6H395.4z"/>
	<path d="M393.8,341.3h-9.4c-1.2,0-2.2-1-2.2-2.2v-2.1c0-1.2,1-2.2,2.2-2.2h9.4c1.2,0,2.2,1,2.2,2.2v2.1
		C396,340.3,395,341.3,393.8,341.3z"/>
	<path d="M389.2,349.1h-8.6c-1.1,0-2-0.9-2-2v-2c0-1.1,0.9-2,2-2h8.6c1.1,0,2,0.9,2,2v2C391.2,348.2,390.3,349.1,389.2,349.1z"/>
	<path d="M383.6,357.6h-5.8c-1.2,0-2.2-1-2.2-2.2v-2.2c0-1.2,1-2.2,2.2-2.2h5.8c1.2,0,2.2,1,2.2,2.2v2.1
		C385.8,356.5,384.8,357.6,383.6,357.6z"/>
	<g>
		<path class="st24" d="M396.9,291.3c-8.6,0-15.9,5.2-19.1,12.6l3.1,1.1c2.7-6.1,8.8-10.4,16-10.4c9.6,0,17.5,7.8,17.5,17.5
			c0,6.9-4.1,13-9.9,15.8v3.6c7.7-3,13.2-10.5,13.2-19.4C417.7,300.6,408.4,291.3,396.9,291.3z"/>
		<path class="st24" d="M396.9,298.6c-5.4,0-10.1,3.2-12.3,7.8l3.2,1.1c1.7-3.3,5.1-5.6,9.1-5.6c5.7,0,10.2,4.6,10.2,10.2
			c0,5.6-4.5,10.1-10,10.2l-1.7,2.7h4.8l0.2,0.1c5.8-1.5,10-6.8,10-13.1C410.5,304.6,404.4,298.6,396.9,298.6z"/>
		<path class="st24" d="M396.9,304.9c-2.7,0-5,1.5-6.2,3.6l3,1.1c0.8-1,1.9-1.6,3.3-1.6c2.3,0,4.2,1.9,4.2,4.2
			c0,1.8-1.1,3.3-2.7,3.9v3.1c3.3-0.7,5.7-3.6,5.7-7C404.1,308.1,400.9,304.9,396.9,304.9z"/>
	</g>
</g>
</svg>
