<?xml version="1.0" encoding="utf-8"?>
<!-- Generator: Adobe Illustrator 21.1.0, SVG Export Plug-In . SVG Version: 6.00 Build 0)  -->
<svg version="1.1" id="Layer_1" xmlns="http://www.w3.org/2000/svg" xmlns:xlink="http://www.w3.org/1999/xlink" x="0px" y="0px"
	 width="90px" height="72px" viewBox="0 0 90 72" enable-background="new 0 0 90 72" xml:space="preserve">
<g id="Layer_3" display="none">
	<path display="inline" d="M46.9,272.5c-106.4,0-142.5-13-144-13.5l-12.9-4.8l3.6-13.2c15.7-57.5,28.1-170.2,22.3-228.5L-99.5,34
		l-8.9-1.2c-71.5-9.5-88.1-52.2-88.8-54.1l-2.3-6.1l2.9-5.8c8.6-17.4,53-104.9,78-121.9c23.9-16.3,81.9-41.1,84.3-42.1l4.2-1.8
		l4.5,0.9c0.5,0.1,48.4,9.2,72.4,9.2s71.9-9.1,72.4-9.2l4.5-0.9l4.2,1.8c2.5,1,60.4,25.8,84.3,42.1c24.9,17,69.3,104.5,78,121.9
		l2.9,5.8l-2.3,6.1c-0.7,1.8-17.2,44.5-88.8,54.1l-8.9,1.2l-15.5-21.5c-5.8,58.3,6.6,171,22.3,228.5l3.6,13.2l-12.9,4.8
		C189.4,259.5,153.3,272.5,46.9,272.5z M-73.7,234c14.9,2.9,52.7,8.4,120.6,8.4c65.8,0,102.6-4.9,120.6-8.5
		c-8.2-35.6-15.3-85.3-18.8-131.6c-4.9-65.5-1.9-111.2,8.8-132.2l11.2-21.9L207,1.5c23.8-4.6,37.7-13.5,45.3-20.3
		c3.5-3.1,5.9-6,7.6-8.3c-22.7-44.6-52.5-95.2-64.4-103.3c-15.3-10.4-49.2-26-66.7-33.8c-3.5,5.5-7.6,10.6-12.1,15.2
		C104-135.9,81.6-120.4,47-120.4S-10-136-22.7-149c-4.5-4.7-8.6-9.8-12.1-15.2c-17.5,7.8-51.4,23.4-66.7,33.8
		c-11.9,8.1-41.7,58.8-64.4,103.4c5.6,7.9,20.1,22.2,52.9,28.5l38.3-53.3l11.2,21.9c10.7,21,13.8,66.7,8.8,132.2
		C-58.4,148.7-65.5,198.5-73.7,234z M7.2-162.3c9.3,6.7,22.3,12.1,39.7,12.1s30.4-5.4,39.7-12.1c-13.7,1.9-28.6,3.5-39.7,3.5
		S20.9-160.4,7.2-162.3z"/>
</g>
<g id="Layer_2">
	<path fill="#32BDB9" d="M37.5,49.9c-12.6,0-21.9-5.2-22.2-5.4l-0.7-0.4l0.2-0.8c0,0,0.3-1.5,1-3c0.7-1.6,2-3.4,4-3.4
		c0.4,0,1,0,1.7,0.1c1.1,0,2.6,0.1,4.2,0.1c5.9,0,10.1-0.8,12.5-2.2c5-3.1,12-12.7,12-12.8l0.6-0.9l0.9,0.6c0.1,0,4.9,3.2,9.9,4.7
		c1,0.3,2.2,0.5,3.5,0.5c4,0,8-1.5,8-1.5l1.5-0.6v24.6H55.8v-3.3l-1.2,0.2c-2.8,0.6-4.8,1.2-6.6,1.8C44.9,49.1,42.3,49.9,37.5,49.9z
		 M19.3,39.2c-0.9,0.4-1.7,2.3-1.9,2.9L17.1,43l0.8,0.4c2.8,1.3,10.4,4.4,19.6,4.4c4.5,0,6.8-0.8,9.8-1.7c2.4-0.8,5-1.6,9.2-2.3h0.1
		h0.1c0.1,0,0.2,0,0.3,0h0.1h0.1c3.9-0.6,8.6-0.9,14.3-1h1V28L71,28.3c-2.2,0.5-4.2,0.8-6.1,0.8c-1.5,0-2.9-0.2-4.1-0.6
		c-3.2-1-6.3-2.5-8.3-3.7L51,24v4.9c0,0.6-0.5,1.1-1.1,1.1c-0.4,0-0.7-0.2-0.9-0.5l-1.8-2.4v6.6c0,0.6-0.5,1.1-1.1,1.1
		s-1-0.4-1.1-0.9L44.7,32l-1.4,1.3c-0.9,0.8-1.7,1.6-2.5,2.2L40.1,36l2.5,5.3l1-0.6c4.1-2.5,7.6-3.9,9.7-3.9c0.6,0,1.1,0.5,1.1,1.1
		S53.9,39,53.3,39c-2.8,0-8.1,3.1-10.5,4.8l-1.1,0.7L38.2,37l-0.9,0.4c-2.8,1.1-6.7,1.6-11.8,1.6c-1.6,0-3.1-0.1-4.2-0.1l0,0
		c-0.7,0-1.2,0-1.6-0.1h-0.2L19.3,39.2z M71.2,44.9c-2.5,0-4.8,0.1-6.9,0.2l0.1,2h7.8v-2.2H71.2z"/>
</g>
</svg>
