<?xml version="1.0" encoding="utf-8"?>
<!-- Generator: Adobe Illustrator 21.1.0, SVG Export Plug-In . SVG Version: 6.00 Build 0)  -->
<svg version="1.1" id="Layer_1" xmlns="http://www.w3.org/2000/svg" xmlns:xlink="http://www.w3.org/1999/xlink" x="0px" y="0px"
	 width="700px" height="400px" viewBox="0 0 700 400" style="enable-background:new 0 0 700 400;" xml:space="preserve">
<style type="text/css">
	.st0{fill:#95BF47;}
	.st1{fill:#5E8E3E;}
	.st2{fill:#FFFFFF;}
	.st3{fill:#231F20;}
</style>
<g>
	<g>
		<path class="st0" d="M407.401,91.171c-0.117-0.858-0.869-1.333-1.489-1.385c-0.62-0.052-13.731-1.023-13.731-1.023
			s-9.106-9.04-10.105-10.04c-1-1-2.952-0.697-3.71-0.474c-0.113,0.033-1.99,0.613-5.096,1.574
			c-3.042-8.753-8.41-16.797-17.853-16.797c-0.261,0-0.529,0.012-0.799,0.027c-2.686-3.552-6.012-5.096-8.886-5.096
			c-21.999,0-32.51,27.502-35.805,41.477c-8.548,2.648-14.621,4.531-15.397,4.775c-4.772,1.498-4.922,1.647-5.548,6.143
			c-0.474,3.404-12.959,99.958-12.959,99.958l97.287,18.228l52.713-11.404C426.023,217.135,407.519,92.029,407.401,91.171z
			 M367.892,81.486c-2.442,0.756-5.22,1.615-8.23,2.547c0.002-0.58,0.004-1.15,0.004-1.775c0-5.44-0.754-9.82-1.966-13.292
			C362.565,69.578,365.807,75.115,367.892,81.486z M351.664,70.045c1.352,3.391,2.232,8.256,2.232,14.82
			c0,0.336-0.003,0.644-0.005,0.955c-5.355,1.658-11.172,3.458-17.002,5.264C340.163,78.45,346.298,72.347,351.664,70.045z
			 M345.126,63.859c0.95,0,1.906,0.322,2.823,0.952c-7.051,3.317-14.608,11.674-17.8,28.359c-4.665,1.445-9.223,2.857-13.439,4.162
			C320.449,84.605,329.325,63.859,345.126,63.859z"/>
		<path class="st1" d="M405.913,89.786c-0.62-0.052-13.731-1.023-13.731-1.023s-9.106-9.04-10.105-10.04
			c-0.373-0.373-0.878-0.564-1.405-0.646l-7.356,150.461l52.707-11.403c0,0-18.504-125.106-18.621-125.964
			C407.284,90.313,406.532,89.838,405.913,89.786z"/>
		<path class="st2" d="M355.416,118.913l-6.499,19.334c0,0-5.695-3.04-12.676-3.04c-10.235,0-10.749,6.423-10.749,8.041
			c0,8.831,23.017,12.214,23.017,32.897c0,16.273-10.32,26.752-24.238,26.752c-16.701,0-25.241-10.394-25.241-10.394l4.472-14.774
			c0,0,8.779,7.537,16.187,7.537c4.839,0,6.809-3.811,6.809-6.595c0-11.519-18.885-12.033-18.885-30.961
			c0-15.93,11.434-31.346,34.515-31.346C351.023,116.365,355.416,118.913,355.416,118.913z"/>
	</g>
	<path id="s" class="st3" d="M218.767,288.158c-3.836-2.082-5.809-3.836-5.809-6.248c0-3.069,2.74-5.042,7.015-5.042
		c4.98,0,9.427,2.082,9.427,2.082l3.507-10.742c0,0-3.225-2.521-12.715-2.521c-13.208,0-22.361,7.563-22.361,18.196
		c0,6.028,4.275,10.632,9.974,13.92c4.604,2.631,6.248,4.495,6.248,7.235c0,2.85-2.302,5.152-6.577,5.152
		c-6.368,0-12.386-3.289-12.386-3.289l-3.726,10.742c0,0,5.557,3.726,14.907,3.726c13.592,0,23.347-6.686,23.347-18.743
		C229.619,296.16,224.687,291.556,218.767,288.158z"/>
	<path id="h" class="st3" d="M272.916,265.579c-6.686,0-11.948,3.179-16.003,8.001l-0.22-0.109l5.81-30.362h-15.126l-14.688,77.276
		h15.126l5.042-26.416c1.973-9.975,7.125-16.113,11.948-16.113c3.397,0,4.713,2.302,4.713,5.59c0,2.082-0.22,4.603-0.658,6.686
		l-5.7,30.253h15.127l5.919-31.239c0.657-3.289,1.096-7.235,1.096-9.865C285.302,270.73,280.808,265.579,272.916,265.579z"/>
	<path id="o" class="st3" d="M319.502,265.579c-18.196,0-30.253,16.442-30.253,34.747c0,11.729,7.234,21.155,20.826,21.155
		c17.867,0,29.924-16.003,29.924-34.747C339.999,275.882,333.642,265.579,319.502,265.579z M312.048,309.862
		c-5.152,0-7.344-4.385-7.344-9.865c0-8.659,4.494-22.8,12.715-22.8c5.371,0,7.125,4.604,7.125,9.098
		C324.544,295.613,320.05,309.862,312.048,309.862z"/>
	<path id="p" class="st3" d="M378.693,265.579c-10.209,0-16.004,8.988-16.004,8.988h-0.219l0.877-8.111h-13.372
		c-0.658,5.481-1.864,13.811-3.07,20.059l-10.523,55.354h15.127l4.165-22.361h0.329c0,0,3.106,1.973,8.879,1.973
		c17.757,0,29.375-18.195,29.375-36.61C394.257,274.677,389.763,265.579,378.693,265.579z M364.224,310.081
		c-3.928,0-6.248-2.192-6.248-2.192l2.521-14.14c1.754-9.426,6.686-15.674,11.948-15.674c4.603,0,6.028,4.275,6.028,8.33
		C378.473,296.16,372.664,310.081,364.224,310.081z"/>
	<path id="dot" class="st3" d="M415.852,243.875c-4.822,0-8.659,3.836-8.659,8.769c0,4.494,2.85,7.563,7.125,7.563h0.22
		c4.713,0,8.769-3.179,8.878-8.769C423.416,247.054,420.456,243.875,415.852,243.875z"/>
	<polygon id="i" class="st3" points="394.697,320.384 409.824,320.384 420.127,266.784 404.892,266.784 	"/>
	<path id="f" class="st3" d="M458.6,266.675h-10.523l0.548-2.521c0.877-5.152,3.946-9.756,8.989-9.756
		c2.693,0,4.822,0.767,4.822,0.767l2.96-11.838c0,0-2.631-1.315-8.221-1.315c-5.371,0-10.742,1.535-14.797,5.043
		c-5.152,4.384-7.563,10.742-8.769,17.099l-0.439,2.521h-7.015l-2.192,11.4h7.015l-8.002,42.31h15.127l8.001-42.31h10.413
		L458.6,266.675z"/>
	<path id="y" class="st3" d="M494.991,266.784c0,0-9.456,23.825-13.701,36.83h-0.219c-0.291-4.187-3.727-36.83-3.727-36.83h-15.893
		L470.549,316c0.219,1.096,0.109,1.754-0.329,2.521c-1.754,3.398-4.714,6.686-8.221,9.097c-2.85,2.083-6.028,3.398-8.549,4.275
		l4.165,12.825c3.069-0.658,9.427-3.179,14.798-8.221c6.906-6.467,13.263-16.442,19.84-30.034l18.524-39.679H494.991z"/>
</g>
</svg>
