<?xml version="1.0" encoding="utf-8"?>
<!-- Generator: Adobe Illustrator 21.1.0, SVG Export Plug-In . SVG Version: 6.00 Build 0)  -->
<svg version="1.1" id="Layer_1" xmlns="http://www.w3.org/2000/svg" xmlns:xlink="http://www.w3.org/1999/xlink" x="0px" y="0px"
	 width="40px" height="40px" viewBox="0 0 40 40" style="enable-background:new 0 0 40 40;" xml:space="preserve">
<style type="text/css">
	.st0{fill:#32BDB9;}
</style>
<path class="st0" d="M20,40C8.9,40,0,31.1,0,20S8.9,0,20,0s20,8.9,20,20S31.1,40,20,40z M20,2C10,2,2,10,2,20S10,38,20,38
	S38,30,38,20S30,2,20,2z M20,30.6c-3.9,0-7.5-2.2-10-6.1c-0.3-0.4-0.2-0.7-0.1-0.9c0.2-0.3,0.5-0.5,0.9-0.5c0.2,0,0.5,0.1,0.7,0.5
	c2.2,3.4,5.2,5.2,8.3,5.2s6.2-1.8,8.3-5.2c0.3-0.4,0.5-0.5,0.7-0.5c0.3,0,0.7,0.2,0.9,0.5c0.1,0.2,0.2,0.5-0.1,0.9
	C27.5,28.3,23.9,30.6,20,30.6z M25.2,18.4c-2,0-3.6-1.6-3.6-3.6c0-0.3,0-0.5,0.1-0.8c0.3,0.5,0.9,0.9,1.6,0.9c1.1,0,2-0.9,2-2
	c0-0.7-0.3-1.3-0.9-1.6c0.3-0.1,0.5-0.1,0.8-0.1c2,0,3.6,1.6,3.6,3.6C28.8,16.7,27.3,18.4,25.2,18.4z M14.8,18.4
	c-2,0-3.6-1.6-3.6-3.6c0-0.3,0-0.5,0.1-0.8c0.3,0.5,0.9,0.9,1.6,0.9c1.1,0,2-0.9,2-2c0-0.7-0.3-1.3-0.9-1.6c0.3-0.1,0.5-0.1,0.8-0.1
	c2,0,3.6,1.6,3.6,3.6C18.4,16.7,16.7,18.4,14.8,18.4z"/>
</svg>
