<?xml version="1.0" encoding="utf-8"?>
<!-- Generator: Adobe Illustrator 23.0.2, SVG Export Plug-In . SVG Version: 6.00 Build 0)  -->
<svg version="1.1" xmlns="http://www.w3.org/2000/svg" xmlns:xlink="http://www.w3.org/1999/xlink" x="0px" y="0px" width="45.7px"
	 height="40px" viewBox="0 0 45.7 40" style="enable-background:new 0 0 45.7 40;" xml:space="preserve">
<style type="text/css">
	.st0{display:none;}
	.st1{display:inline;fill:none;stroke:#32BDB9;stroke-width:1.3;stroke-linecap:round;stroke-linejoin:round;stroke-miterlimit:10;}
	.st2{fill:none;stroke:#32BDB9;stroke-width:1.3;stroke-linecap:round;stroke-linejoin:round;stroke-miterlimit:10;}
	.st3{fill:#32BDB9;}
</style>
<g id="Layer_2" class="st0">
	<path class="st1" d="M42.1,26.6l-4.7-7.5c0,0-1.3-2.3-2-2.6c0,0,0.3-2.7-5.1-5.8c-3.8-2.2-12.8-3.9-18.9-1.1S2.7,16.9,3,20.4
		s3.1,11.5,16.5,12.3c0,0,10.5-0.1,13.8-5.7c0,0,1.6,2.2,3.8,2.3"/>
	<path class="st1" d="M35.4,16.4c-1.7-1.8-5.1-1-5.1-1s0.6-1.7-1.1-2c-1.7-0.3-4.3-0.7-4.3-0.7s-1.3-0.5-1.5,1.1
		c-0.2,1.6-0.8,4.6-0.8,4.6s-0.2,1.2,1.4,1.4s3.4,0.3,3.4,0.3s-1.6,1.3-0.3,2.3l1.1,0.9c0,0-1.5,1.4,0.3,2.3c1.8,1,1.6,0.9,1.6,0.9
		s1.5,0.9,2.9-0.3c0,0,0-1.2-0.5-1.9c-0.5-0.6-6.3-5.6-6.3-5.6s-1.9-1.4-1.1-2.6s2.5-0.3,2.5-0.3l6.2,3.5"/>
	<path class="st1" d="M17.3,13.9c0,0,3.9,6.2,0,12.3"/>
	<path class="st1" d="M14.7,15.4c0,0,2.9,4.4,0,9.4"/>
	<path class="st1" d="M12.1,16.7c0,0,2.4,2.7,0,6.9"/>
	<path class="st1" d="M9.7,18c0,0,1.6,2.1,0,4.3"/>
	<line class="st1" x1="30.3" y1="15.5" x2="30" y2="17.6"/>
	<path class="st1" d="M27.7,23.2l2.8,1.9c0,0,1.1,0.7,2,0"/>
</g>
<g id="Layer_3">
	<g>
		<g>
			<circle class="st2" cx="12.1" cy="9.5" r="8.6"/>
			<g>
				<path class="st3" d="M11.5,14.4v-1.1c-0.8,0-1.6-0.3-2-0.5l0.4-1.4c0.5,0.3,1.2,0.5,2,0.5c0.7,0,1.2-0.3,1.2-0.7
					c0-0.5-0.4-0.7-1.3-1c-1.3-0.4-2.2-1-2.2-2.2c0-1.1,0.7-1.9,2-2.1V4.6h1.2v1.1c0.8,0,1.3,0.2,1.7,0.4l-0.3,1.4
					C13.8,7.3,13.2,7,12.4,7c-0.8,0-1,0.3-1,0.7c0,0.4,0.4,0.6,1.4,1c1.4,0.5,2,1.2,2,2.2c0,1.1-0.8,2-2.1,2.2v1.2H11.5z"/>
			</g>
		</g>
		<g>
			<circle class="st2" cx="33.1" cy="9.5" r="8.6"/>
			<g>
				<path class="st3" d="M32.5,14.4v-1.1c-0.8,0-1.6-0.3-2-0.5l0.4-1.4c0.5,0.3,1.2,0.5,2,0.5c0.7,0,1.2-0.3,1.2-0.7
					c0-0.5-0.4-0.7-1.3-1c-1.3-0.4-2.2-1-2.2-2.2c0-1.1,0.7-1.9,2-2.1V4.6h1.2v1.1c0.8,0,1.3,0.2,1.7,0.4l-0.3,1.4
					C34.8,7.3,34.2,7,33.4,7c-0.8,0-1,0.3-1,0.7c0,0.4,0.4,0.6,1.4,1c1.4,0.5,2,1.2,2,2.2c0,1.1-0.8,2-2.1,2.2v1.2H32.5z"/>
			</g>
		</g>
		<g>
			<circle class="st2" cx="12.1" cy="30.5" r="8.6"/>
			<g>
				<path class="st3" d="M11.5,35.4v-1.1c-0.8,0-1.6-0.3-2-0.5l0.4-1.4c0.5,0.3,1.2,0.5,2,0.5c0.7,0,1.2-0.3,1.2-0.7
					c0-0.5-0.4-0.7-1.3-1c-1.3-0.4-2.2-1-2.2-2.2c0-1.1,0.7-1.9,2-2.1v-1.1h1.2v1.1c0.8,0,1.3,0.2,1.7,0.4l-0.3,1.4
					c-0.3-0.1-0.9-0.4-1.7-0.4c-0.8,0-1,0.3-1,0.7c0,0.4,0.4,0.6,1.4,1c1.4,0.5,2,1.2,2,2.2c0,1.1-0.8,2-2.1,2.2v1.2H11.5z"/>
			</g>
		</g>
		<g>
			<circle class="st2" cx="33.1" cy="30.5" r="8.6"/>
			<g>
				<path class="st3" d="M32.5,35.4v-1.1c-0.8,0-1.6-0.3-2-0.5l0.4-1.4c0.5,0.3,1.2,0.5,2,0.5c0.7,0,1.2-0.3,1.2-0.7
					c0-0.5-0.4-0.7-1.3-1c-1.3-0.4-2.2-1-2.2-2.2c0-1.1,0.7-1.9,2-2.1v-1.1h1.2v1.1c0.8,0,1.3,0.2,1.7,0.4l-0.3,1.4
					c-0.3-0.1-0.9-0.4-1.7-0.4c-0.8,0-1,0.3-1,0.7c0,0.4,0.4,0.6,1.4,1c1.4,0.5,2,1.2,2,2.2c0,1.1-0.8,2-2.1,2.2v1.2H32.5z"/>
			</g>
		</g>
	</g>
</g>
</svg>
