<?xml version="1.0" encoding="utf-8"?>
<!-- Generator: Adobe Illustrator 21.1.0, SVG Export Plug-In . SVG Version: 6.00 Build 0)  -->
<svg version="1.1" id="Layer_1" xmlns="http://www.w3.org/2000/svg" xmlns:xlink="http://www.w3.org/1999/xlink" x="0px" y="0px"
	 width="41.8px" height="40px" viewBox="0 0 41.8 40" style="enable-background:new 0 0 41.8 40;" xml:space="preserve">
<style type="text/css">
	.st0{fill:#32BDB9;}
</style>
<path class="st0" d="M9.5,39.7c-0.6,0-1.3-0.3-1.7-0.8c-0.4-0.5-0.6-1.1-0.5-1.8l2-11.5L1,17.5c-0.6-0.6-0.8-1.4-0.6-2.3
	c0.3-0.8,0.9-1.4,1.8-1.5L13.8,12l5.2-10.5c0.4-0.8,1.1-1.2,2-1.2c0.8,0,1.6,0.5,2,1.2L28,12l11.6,1.7c0.8,0.1,1.5,0.7,1.8,1.5
	c0.3,0.8,0.1,1.7-0.6,2.3l-8.4,8.2l2,11.5c0.1,0.6-0.1,1.3-0.5,1.8c-0.4,0.5-1.1,0.8-1.7,0.8l0,0c-0.4,0-0.7-0.1-1-0.3L20.9,34
	l-10.3,5.4C10.2,39.6,9.9,39.7,9.5,39.7z M9.1,38.1l11.8-6.2l11.8,6.2L30.4,25l9.5-9.3l-13.2-1.9L20.9,1.8L15,13.8L1.9,15.7l9.5,9.3
	L9.1,38.1z"/>
</svg>
