<?xml version="1.0" encoding="utf-8"?>
<!-- Generator: Adobe Illustrator 21.1.0, SVG Export Plug-In . SVG Version: 6.00 Build 0)  -->
<svg version="1.1" id="Layer_1" xmlns="http://www.w3.org/2000/svg" xmlns:xlink="http://www.w3.org/1999/xlink" x="0px" y="0px"
	 width="580px" height="364px" viewBox="0 0 580 364" style="enable-background:new 0 0 580 364;" xml:space="preserve">
<style type="text/css">
	.st0{opacity:0.6;}
	.st1{opacity:0.5;fill:#EFF7FE;enable-background:new    ;}
	.st2{opacity:0.15;fill:#DFE6EA;enable-background:new    ;}
	.st3{opacity:0.45;fill:#E1F5FB;enable-background:new    ;}
	.st4{opacity:0.3;fill:#D1F0EF;enable-background:new    ;}
	.st5{opacity:0.5;fill:#D1F0EF;enable-background:new    ;}
	.st6{opacity:0.5;fill:#DCE8EF;enable-background:new    ;}
	.st7{opacity:0.2;fill:#FCC8CE;enable-background:new    ;}
	.st8{opacity:0.6;fill:#D5F1F1;enable-background:new    ;}
	.st9{opacity:0.6;fill:#BBE9F9;enable-background:new    ;}
	.st10{fill:#F1FAFA;}
	.st11{opacity:0.2;fill:#FCB9C6;enable-background:new    ;}
	.st12{fill:#FCFDFF;}
	.st13{opacity:0.1;fill:#1DD4FF;enable-background:new    ;}
	.st14{opacity:0.2;fill:#A2EAE0;enable-background:new    ;}
	.st15{fill:#FFFFFF;}
	.st16{fill:none;stroke:#24AAA3;stroke-width:1.5;stroke-linecap:round;stroke-linejoin:round;stroke-miterlimit:10;}
	.st17{fill:#E6F7F6;}
	.st18{fill:#88A3AA;}
	.st19{enable-background:new    ;}
	.st20{fill:none;stroke:#24AAA3;stroke-width:1.5;stroke-miterlimit:10;}
	.st21{fill:#24AAA3;}
	
		.st22{fill:none;stroke:#347EC0;stroke-width:1.5;stroke-linecap:round;stroke-linejoin:round;stroke-miterlimit:10;stroke-dasharray:4;}
	.st23{fill:#347EC0;}
	.st24{fill:#E6F7F6;stroke:#24AAA3;stroke-width:1.5;stroke-linecap:round;stroke-linejoin:round;stroke-miterlimit:10;}
	.st25{fill:none;stroke:#24AAA3;stroke-width:1.5;stroke-linecap:round;stroke-linejoin:round;}
	.st26{fill:#FFFFFF;stroke:#24AAA3;stroke-width:1.5;stroke-miterlimit:10;}
	.st27{fill:#E0E4E8;stroke:#24AAA3;stroke-width:1.5;stroke-linecap:round;stroke-linejoin:round;stroke-miterlimit:10;}
	.st28{fill:#E6F7F6;stroke:#24AAA3;stroke-width:1.5;stroke-linecap:round;stroke-linejoin:round;}
	.st29{fill:#C6E2F3;stroke:#24AAA3;stroke-width:1.5;stroke-linecap:round;stroke-linejoin:round;}
	.st30{fill:#FFFFFF;stroke:#347EC0;stroke-width:1.5;stroke-linecap:round;stroke-linejoin:round;stroke-miterlimit:10;}
	.st31{fill:#BBDEF4;stroke:#347EC0;stroke-width:1.5;stroke-linecap:round;stroke-linejoin:round;}
	.st32{fill:none;stroke:#347EC0;stroke-width:1.5;stroke-linecap:round;stroke-linejoin:round;stroke-miterlimit:10;}
</style>
<g id="Layer_2">
	<g id="Layer_2_1_">
		<g class="st0">
			<ellipse class="st1" cx="184.7" cy="192.7" rx="167.9" ry="142.4"/>
			<ellipse class="st2" cx="343.2" cy="113.6" rx="119.3" ry="101.2"/>
			<ellipse class="st3" cx="405.7" cy="199.8" rx="163.9" ry="138.9"/>
			<path class="st4" d="M174.7,238.5c2.5-1.7,8.4,0.2,15.8,2.5c5.3,1.7,8,3.3,13.3,3.8c2.8,0.2,7.1,0.5,8.4-1.4
				c2.6-3.6-7.6-13-7.4-13.2c0.3-0.2,11.5,14.4,16.9,12.7c1.3-0.5,2.2-2,4.1-5.3c2.5-4.4,1.8-5.5,3.5-6.9c2.9-2.3,5.9-0.3,10.9-2
				c5.1-1.9,4.4-4.9,10.1-8.3c3.7-2.2,7.1-2.8,12.5-3.9c11.1-2,12.7,0.5,18.2-1.9c6.2-2.5,4.7-6,12.5-10.8c4.3-2.7,8.1-3.8,14.4-5.5
				c6.4-1.9,11-2.3,19.1-3.4c16.4-2.2,20.4-1.1,22.6-0.2c3.8,1.4,3.7,2.5,7.4,4.2c8.4,3.9,15.5,1.4,25.1,1.1
				c13.5-0.3,23.9,4.1,35.4,8.8c6,2.5,3,1.9,21.8,11.3c12.5,6.3,14.9,7,19.6,10.6c5.3,3.9,11,8.3,14.4,15.5
				c2.1,4.4,1.8,6.9,5.4,13.8c2.9,5.6,4.9,7.4,6.5,8.6c3.4,2.3,5.3,1.9,7.4,4.2c3,3.4,3,9.1,0.3,10.3c-1.8,0.9-4.3-0.2-5.4-0.6
				c-3.5-1.4-3.2-3.3-6.5-5.3c-0.6-0.3-5-3-9.8-1.9c-0.5,0.2-4.8,1.1-5.2,3c-0.9,4.5,21.8,6.6,25.9,17.7c1.5,4.2,0.3,9.2-2.4,12.7
				c-4.8,6.1-13,5.3-15.5,10.8c-1.9,4.1,0.7,8.5,1.4,9.4c5.3,8.8,22.4,13.5,33.8,9.2c6.9-2.5,13.6-9.1,20.7-16
				c3.2-3.1,5.1-5.3,8.7-5.8c5.7-0.8,12.8,3.6,14.4,8.6c2.6,8.1-9.8,17.9-18.8,22.4c-10,5-22.2,5.2-46.3,5.3
				c-19.8,0.2-29.8,0-36.8-4.2c-7.8-4.7-15.2-14.1-18.5-18.2c-5.6-7-7.6-11.6-13.3-12.7c-6-1.1-12.5,2-13.9,2.8
				c-4.1,2-3.7,3.3-7.4,5.3c-9,5.2-18.5,1.9-19.9,5c-0.9,2,2.1,4.9,5.2,7.8c4,3.9,6.3,4.1,6.5,6c0.4,3.1-5.5,8-11.4,8.1
				c-7.4,0.2-9-7-18-8.8c-1.8-0.3-5.3-0.8-19.1,4.2c-18.5,6.6-17.8,9.4-27,11.1c-10.3,1.9-19.4,0-28.6-1.9
				c-12.4-2.5-12.5-4.9-21.8-5.8c-12.8-1.3-14.2,3-25.9,1.9c-8-0.8-14.9-4.1-28.9-10.6c-11.5-5.5-12.4-6.7-17.4-8.9
				c-16.2-7-27.2-1.6-53.4-1.1c-19.2,0.3-47.7,0.6-57.2-12.7c-4.8-6.7-4.8-17.2,1.1-23c6.7-6.6,16.7-3,49.8-5.5
				c27-2,34.2-5.5,38.7-9.9c6.1-6.1,7.1-13.9,7.4-16.4C180,250.5,170.6,241.3,174.7,238.5z"/>
			<path class="st5" d="M197.6,296.9c2.5,1.7,8.4-0.2,15.8-2.5c5.3-1.7,8-3.4,13.3-3.8c2.8-0.2,7.1-0.5,8.4,1.4
				c2.6,3.6-7.6,13-7.3,13.2c0.3,0.2,11.4-14.4,16.9-12.7c1.3,0.5,2.3,2,4.1,5.3c2.5,4.4,1.8,5.5,3.6,6.9c2.9,2.3,5.9,0.3,10.9,2
				c5.1,1.9,4.4,4.9,10.1,8.3c3.7,2.2,7.1,2.8,12.5,3.9c11.1,2,12.7-0.5,18.2,1.9c6.2,2.5,4.7,6,12.5,10.8c4.3,2.7,8.1,3.8,14.4,5.5
				c6.4,1.7,11,2.3,19.1,3.4c16.4,2.2,20.4,0.9,22.6,0.2c3.8-1.4,3.7-2.5,7.3-4.2c8.4-3.9,15.5-1.4,25-1.3
				c13.5,0.3,23.9-4.1,35.4-8.8c6-2.5,3-1.9,21.8-11.3c12.5-6.3,14.9-7,19.6-10.6c5.3-3.9,11-8.3,14.4-15.5
				c2.1-4.5,1.8-6.9,5.4-13.8c2.9-5.6,4.8-7.4,6.5-8.6c3.4-2.3,5.3-1.9,7.3-4.2c3-3.4,3-9.1,0.3-10.3c-1.8-0.9-4.3,0.2-5.4,0.6
				c-3.5,1.4-3.2,3.3-6.5,5.3c-0.6,0.3-5,3-9.8,1.9c-0.5-0.2-4.8-1.1-5.2-3c-0.9-4.5,21.8-6.6,25.8-17.9c1.5-4.2,0.2-9.2-2.5-12.7
				c-4.8-6.1-13-5.3-15.5-10.8c-1.9-4.1,0.7-8.5,1.3-9.4c5.3-8.8,22.4-13.5,33.7-9.2c6.9,2.5,13.7,9.1,20.7,16
				c3.2,3.1,5.2,5.3,8.7,5.8c5.7,0.6,12.8-3.6,14.4-8.6c2.6-8.1-9.8-17.9-18.8-22.4c-10-5-22.2-5.2-46.3-5.2
				c-19.8,0-29.8,0-36.8,4.2c-7.8,4.7-15.2,14.1-18.5,18.3c-5.6,7-7.6,11.6-13.3,12.7c-6,1.1-12.5-2-13.9-2.8
				c-4.1-2-3.7-3.3-7.4-5.3c-9-5.2-18.5-1.9-19.9-5c-0.9-2,2.1-4.9,5.2-7.8c4-3.9,6.3-4.1,6.5-6c0.4-3.1-5.5-8-11.5-8
				c-7.4-0.2-9,7-18,8.8c-1.8,0.3-5.3,0.8-19.1-4.1c-18.5-6.6-17.8-9.4-27-11c-10.3-1.9-19.5,0-28.6,1.9
				c-12.4,2.5-12.5,4.9-21.8,5.8c-12.8,1.3-14.2-3-25.9-1.9c-8,0.8-14.9,4.1-28.8,10.6c-11.5,5.5-12.3,6.9-17.4,9.1
				c-16.1,7-27.2,1.6-53.4,1.3c-19.2-0.3-47.7-0.6-57.2,12.8c-4.8,6.7-4.8,17.2,1.1,23c6.7,6.6,16.7,3,49.8,5.5
				c27,2,34.2,5.3,38.7,9.9c6.1,6.1,7.1,13.9,7.4,16.4C202.9,284.7,193.5,293.9,197.6,296.9z"/>
			<path class="st6" d="M70.1,62.6c-2.2-0.8-1.8-4.5-5.2-5.3c-2.6-0.8-4.9,0.9-6,0c-1.2-1.1,1.5-3.4,0.2-5.5c-0.9-1.4-3.1-1.7-4-1.9
				c-3.7-0.6-5.6,1.3-6.9,0.3c-1.7-1.1,0.9-4.1-1-7.2c-0.9-1.4-2.8-3-5.2-3.1c-2.6-0.2-4.9,1.6-6,3.1c-1.5,2.3,0.3,3.4-1,6.9
				c-1,2.7-2.4,2.8-3.5,5.3c-1.1,2.7-0.5,5-0.2,6.9c1.4,8.1-1.2,17.7-3.5,18c-1.4,0.2-3.2-3.1-4-4.7c-1.6-3-1.6-5-2.7-5
				c-1.1-0.2-2.4,1.9-2.9,3.1c-1.4,3-1.2,7.5,1.9,10c2.4,1.9,4.5,0.9,5.2,2.3c1.1,2.2-4.5,4.5-6.5,11c-0.7,2.2-0.9,4.4,0,4.7
				c1.3,0.5,3.8-3.8,6.2-3.3c1.4,0.3,1,2,2.9,3.3c2.5,1.7,5,0,7.5,1.3c2.3,1.1,1.9,3.3,3.7,7.7c1,2.5,2.8,4.9,6.3,9.7
				c4.8,6.6,5.3,6,6.7,8.9c2,4.4,1.1,6.1,3.7,8.3c2.6,2.2,5,1.4,6.5,3.6c1.6,2.3,0.5,5.6-0.8,7.5c-1.6,2.3-4.9,3.6-11.5,6.1
				c-7.3,2.7-9.9,2.8-11,2.8c-2.1,0-5.6,0-8.1-1.9c-1.9-1.4-1.5-2.7-3.7-7.2c-1.9-4.1-2.9-6.1-5-7.4c-3-1.7-7.7-1.7-11-0.2
				c-5.2,2.3-6.1,8.1-7.9,19.6c-0.9,5.8-0.4,6.9,0.4,7.5c1.8,1.3,4.9,0.5,19.8-1.9c2.9-0.5,4.8-0.8,6.7,0c4.1,1.6,5.4,6.4,5.8,7.8
				c0.7,2.7,0.1,3.3,0.4,8.1c0.2,3.8,0.3,5.6,1,7.5c1.9,5.5,7.1,5.3,14.8,12.5c3.4,3.3,6.8,6.4,8.1,11.3c1.4,5.3-0.1,10.3-1,12.5
				c-2.1,5.6-5.1,6.7-4.2,9.1c1.5,4.4,12.7,6.7,16,3.9c1.6-1.4,0.2-3.1,1.9-5c2.5-2.7,9.3-3.3,13.3-0.9c1.3,0.8,2.7,2.2,5.4,13.6
				c1.9,7.8,2,10.2,4.6,11.9c2.8,1.9,6.6,1.7,9.4,1.6c4.3-0.2,5.5-1.3,10.6-2.2c6.1-1.1,7.3,0,12.3-0.6c5-0.6,5.4-2,14.2-5.5
				c13.1-5.3,14.6-3.4,21.4-7.7c1.6-0.9,4.9-3.1,10-5.5c3.1-1.4,4.9-2,5.8-2.3c1.6-0.5,5-1.6,9.4-1.7c5.5-0.3,6.8,0.8,8.5-0.3
				c2.5-1.7,0.4-4.7,3.1-7.2c2-1.9,5.4-2.2,7.7-1.9c2.5,0.3,2.8,1.3,8.3,4.2c3.9,2,5.8,3.1,7.7,3.4c3.5,0.5,5.1-0.6,8.1,0.5
				c2.2,0.8,1.9,1.7,3.8,2.3c2.3,0.6,3.5-0.2,8.1-0.8c4.9-0.6,4.8,0.2,6.3-0.5c3.4-1.6,2.3-5,6.2-8.8c2.6-2.5,3.8-1.6,5.6-3.4
				c4.6-4.9-3.1-11.7,0.8-20.2c1.6-3.4,4.4-5.8,6.2-7.2c5.9-4.9,10-4.2,12.5-8.1c1.7-2.8,2.1-6.7,0.2-9.7c-2.5-3.9-7.4-3.8-8.5-7.4
				c-0.8-2.7,1.5-4.4,0.2-5.6c-1.9-2-8.2-0.2-9,0.2c-6.9,2-8.9,6.1-11.7,5.3c-2.7-0.8-3.1-5-3.1-5.2c-0.3-3.1,1.6-4.5,4.2-8.9
				c1.2-2,3.9-6.7,4.8-12.2c0.6-3.4,1.2-7.7-1.5-9.7c-2.8-2.2-6.3,0.3-9.6-1.7c-3-1.9-1.3-4.5-3.8-10.6c-2.4-5.6-6.5-9.6-8.1-11.1
				c-3.8-3.6-4.6-2.8-6.2-5c-1.5-2.2-2-4.7,0-16.1c1.6-9.1,2.5-10.6,1-12.2c-1.5-1.4-3.5-1.3-16.5-0.8c-11.1,0.3-14.8,0.5-17.9-1.7
				c-2.8-2-3.7-4.9-3.8-5.2c-1.6-5.3,3.5-8.3,1.7-12.5c-1.2-3-5.1-5.6-8.3-5.2c-4,0.5-3.9,5.5-10.4,9.1c-3.6,2-8.3,3.1-9.2,2.2
				c-1.6-1.7,7.6-8,5.6-11.1c-1.5-2.3-8.4-1.3-9-1.1c-8.7,1.4-9.9,6.4-16.9,9.2c-11,4.4-24.8-1.3-30.4-3.4
				c-12.1-4.9-12.3-9.7-18.7-9.6C84.5,45.4,75.4,64.5,70.1,62.6z"/>
			<path class="st7" d="M466.6,31.4c2.7-0.9,2.2-5.5,6.4-6.6c3.2-0.9,6.1,1.1,7.3,0c1.4-1.3-1.9-4.2-0.2-6.7c1.1-1.7,3.8-2.2,5-2.3
				c4.5-0.8,6.8,1.4,8.5,0.5c2-1.3-1.1-5,1.2-8.8c1.1-1.9,3.5-3.6,6.4-3.8c3.2-0.2,6,1.9,7.3,3.8c1.9,2.8-0.3,4.2,1.2,8.5
				c1.2,3.3,3,3.4,4.3,6.6c1.4,3.3,0.6,6.1,0.2,8.5c-1.7,10,1.5,21.8,4.3,22.1c1.7,0.2,3.9-3.9,5-5.8c2-3.6,2-6.1,3.3-6.3
				c1.4-0.2,2.9,2.3,3.5,3.8c1.7,3.8,1.5,9.2-2.4,12.2c-2.9,2.2-5.6,1.1-6.4,2.8c-1.3,2.7,5.6,5.6,8,13.5c0.8,2.7,1,5.5,0,5.8
				c-1.6,0.6-4.7-4.7-7.6-4.1c-1.7,0.3-1.2,2.5-3.5,4.1c-3,2-6.1,0-9.2,1.6c-2.9,1.4-2.3,4.1-4.5,9.4c-1.3,3-3.4,6.1-7.8,12.1
				c-5.8,8-6.6,7.2-8.3,11c-2.4,5.3-1.3,7.5-4.5,10.2s-6.2,1.9-8,4.4c-2,2.8-0.7,6.9,0.9,9.2c1.9,2.8,6,4.4,14.2,7.4
				c9,3.3,12.1,3.4,13.5,3.4c2.6,0,6.8,0,9.9-2.3c2.3-1.7,1.8-3.3,4.5-8.8c2.4-5,3.6-7.5,6.1-9.1c3.7-2.2,9.4-2,13.5-0.2
				c6.3,3,7.5,9.9,9.7,24c1.1,7.2,0.5,8.5-0.5,9.2c-2.2,1.6-6,0.6-24.3-2.3c-3.6-0.6-5.8-0.9-8.3,0c-5.1,2-6.6,7.8-7.1,9.6
				c-0.9,3.3-0.1,4.1-0.5,10c-0.3,4.5-0.4,7-1.2,9.2c-2.3,6.7-8.7,6.6-18.2,15.3c-4.2,3.9-8.3,7.8-9.9,13.8
				c-1.7,6.6,0.2,12.7,1.2,15.3c2.6,6.9,6.2,8.1,5.2,11.3c-1.8,5.3-15.6,8.3-19.6,4.9c-2-1.7-0.2-3.9-2.4-6.3
				c-3.1-3.3-11.5-4.1-16.3-1.3c-1.6,0.9-3.3,2.7-6.6,16.8c-2.3,9.7-2.4,12.5-5.7,14.6c-3.5,2.2-8.1,2-11.6,2
				c-5.3-0.2-6.7-1.6-13-2.7c-7.5-1.3-9,0-15.1-0.8s-6.7-2.3-17.5-6.7c-16.1-6.6-18-4.4-26.2-9.4c-2-1.3-6-3.9-12.3-6.7
				c-3.8-1.7-6.1-2.5-7.1-2.8c-1.9-0.6-6.1-1.9-11.6-2.2c-6.8-0.5-8.3,0.9-10.4-0.5c-3-2-0.4-5.8-3.8-8.8c-2.5-2.2-6.6-2.8-9.4-2.3
				c-3,0.3-3.5,1.6-10.2,5.2c-4.8,2.5-7.1,3.9-9.4,4.2c-4.4,0.6-6.3-0.8-9.9,0.6c-2.7,1.1-2.3,2-4.7,2.8c-2.8,0.8-4.3-0.3-9.9-0.9
				c-6-0.8-5.9,0.3-7.8-0.6c-4.2-1.9-2.8-6.3-7.6-10.8c-3.2-3.1-4.7-1.9-6.9-4.2c-5.7-6.1,3.8-14.4-0.9-24.9c-1.9-4.2-5.4-7-7.6-8.8
				c-7.2-5.8-12.3-5.2-15.4-10c-2.1-3.4-2.6-8.3-0.2-12.1c3.1-4.7,9.1-4.5,10.4-9.1c1-3.3-1.8-5.3-0.2-7c2.3-2.3,10-0.2,11.1,0.2
				c8.5,2.5,11,7.5,14.4,6.6c3.3-0.9,3.8-6.1,3.8-6.4c0.3-3.8-2-5.6-5.2-11c-1.5-2.5-4.8-8.1-5.9-15c-0.7-4.4-1.5-9.6,1.9-12.1
				c3.5-2.7,7.8,0.3,11.8-2.2c3.6-2.3,1.5-5.5,4.7-13c3-6.9,7.9-11.7,9.9-13.6c4.7-4.4,5.7-3.4,7.6-6.3c1.8-2.7,2.5-5.8,0-19.9
				c-2-11.1-3.1-13.2-1.2-15c1.8-1.7,4.4-1.6,20.3-0.9c13.6,0.5,18.1,0.5,22-2.2c3.5-2.5,4.6-5.8,4.7-6.4c2-6.6-4.3-10.2-2.1-15.3
				c1.4-3.6,6.3-6.9,10.2-6.4c4.9,0.6,4.8,6.6,12.8,11.3c4.4,2.5,10.1,3.9,11.3,2.7c1.9-2.2-9.3-9.9-6.9-13.6
				c1.9-2.8,10.3-1.6,11.1-1.4c10.7,1.7,12.2,8,20.8,11.4c13.5,5.5,30.5-1.4,37.3-4.2c14.8-6,15.1-11.9,22.9-11.7
				C448.8,10.3,460.1,33.9,466.6,31.4z"/>
			<path class="st8" d="M110.1,125.7c-1.8,0.3-0.7,4.5-4.5,10.6c-2,3.3-2.9,3-4.2,5.5c-2.4,4.5-0.3,7.7,0.3,14.4
				c0.6,7-0.7,15.7-3.4,16.1c-2.3,0.3-5.2-6.9-5.9-6.6c-0.8,0.3,6.1,9.6,2.8,18c-2.4,6-8.8,8.9-7.5,10.6c1.2,1.7,6.7-1.1,12.3,1.7
				c1.9,0.9,3,2.2,5.3,4.7c3.4,3.9,4.5,6.3,7,10c1.7,2.5,1.3,1.7,8.4,10.5c4.6,5.8,6.9,8.6,8.9,11.6c4.4,6.4,6.6,9.7,6.1,12.8
				c-0.8,6-8,9.7-11.7,11.6c-3.6,1.9-7.6,3.9-12,3.1c-3.5-0.6-4.5-2.7-8.1-2.7c-3.8,0-5.4,2.2-7,1.4c-2.1-1.1,0.4-4.9-2-8.9
				c-0.1-0.3-2.5-4.4-7-5c-4.1-0.6-7.7,2-8.9,3.1c-6.1,4.7-5.4,10.5-8.4,24.9c-3,14.3-6,19.9-3.1,21.6c2.4,1.4,7.4-0.8,10.3-3.3
				c5-4.4,2-8.8,7-14.4c0.6-0.6,5.5-6.3,10.6-5.5c4.4,0.8,7.9,6.1,7,10.5c-1.1,5.5-8.5,5.3-11.2,12.1c-0.2,0.6-2.3,6.1,1.1,10.5
				c2.9,3.6,7.9,4.4,12,5c3.9,0.6,10.3,1.6,13.4-1.4c1.9-1.7,0.7-3.3,2.8-10.6c0.9-3.3,1.7-6,2.8-6c1.3,0,2.8,3.3,3.4,6.1
				c0.8,4.5-1.1,6.4,0.6,8c1.8,1.9,6,1.6,8.7,0.5c0.5-0.2,4.9-1.9,5-5.2c0.1-2.3-1.8-4.4-3.9-5.2c-3.3-1.4-6.2,0.5-7.5-0.9
				c-1.3-1.3,0-4.4,1.7-6.1c1.9-2,3.3-1.6,4.7-3.3c1.2-1.6,0.9-2.8,0.8-8.3c-0.1-3.8-0.1-5.5,0-6.1c0.7-3.9,3.9-6,9.8-10.6
				c6.9-5.5,2.1-2.3,14.8-12.8c7.5-6.1,11.3-9.2,12.9-10c6.7-3.1,11-2,25.7-2.7c14.6-0.6,21.9-0.9,28.5-3.1
				c13.8-4.5,12.1-11,24-14.7c17.4-5.3,36.3,3.4,38,4.2c13.2,6.4,12.8,13.3,24.6,15.8c10.3,2.2,13.2-2.5,23.7-0.5
				c15.8,3.1,23.6,16.8,25.4,15.7c1.6-0.9-5.6-11.7-7.5-14.7c-6.6-9.9-10.1-12.8-15.9-21.3c-5.6-8.1-8.5-12.4-9.8-16.8
				c-4.5-15.5,5.6-24.9-0.8-30.4c-3.2-2.7-8.3-2.5-16.8-2.3c-10.1,0.2-11.9,2.7-18.7,1.7c-5.9-0.9-14.3-4.1-15.1-8.8
				c-0.7-4.5,6.2-6.9,6.1-13.9c0-1.7,0-4.4-2-5.5c-1.4-0.8-4-0.8-20.4,7c-4.7,2.2-7,3.4-8.9,2.7c-2.4-1.1-1.7-4.1-5.6-8
				c-1.7-1.7-2.8-2.8-4.5-3.1c-3.6-0.5-5.1,3.9-10.9,6.6c-4.7,2.2-9.5,2-15.4,1.7c-9.1-0.5-8.9-2.7-14.5-2.7
				c-10.4,0.2-13.1,7.7-29.9,11.6c-4.5,1.1-7.4,1.3-9.8,0c-4.4-2.2-0.9-8.1-4.5-11c-5.4-4.2-17.8,4.5-24.3,0.3
				c-4.7-3.1-2.8-10.6-6.4-11.4c-2.3-0.5-3.4,2.5-6.4,2.7C116.5,136.7,113.1,125.2,110.1,125.7z"/>
			<ellipse class="st9" cx="121.8" cy="147.9" rx="9.5" ry="8"/>
			<ellipse class="st10" cx="292" cy="78.1" rx="9.5" ry="8"/>
			<ellipse class="st10" cx="508.5" cy="151.5" rx="9.5" ry="8"/>
			<ellipse class="st11" cx="446.2" cy="63.1" rx="9.5" ry="8"/>
			<ellipse class="st12" cx="85.1" cy="86.2" rx="9.5" ry="8"/>
			<ellipse class="st10" cx="146.4" cy="174.1" rx="5.3" ry="4.5"/>
			<ellipse class="st10" cx="173.6" cy="153.7" rx="5.3" ry="4.5"/>
			<ellipse class="st10" cx="194.7" cy="184.3" rx="5" ry="4.1"/>
			<ellipse class="st7" cx="263.2" cy="178.6" rx="10.1" ry="6.6"/>
			<ellipse class="st10" cx="302.9" cy="236.7" rx="3.6" ry="3.8"/>
			<ellipse class="st10" cx="150.5" cy="315.2" rx="3.6" ry="3.8"/>
			<ellipse class="st10" cx="381.8" cy="308.6" rx="3.6" ry="3.8"/>
			<ellipse class="st10" cx="536" cy="211.1" rx="3.6" ry="3.8"/>
			<ellipse class="st10" cx="535.4" cy="139.8" rx="3.6" ry="3.8"/>
			<ellipse class="st10" cx="326" cy="208.1" rx="4.7" ry="3.8"/>
			<ellipse class="st10" cx="326" cy="175.4" rx="3" ry="3.3"/>
			<ellipse class="st10" cx="375.6" cy="159.8" rx="4.4" ry="3.3"/>
			<ellipse class="st10" cx="400.8" cy="132.4" rx="3.6" ry="3.4"/>
			<ellipse class="st10" cx="270.3" cy="133.4" rx="3.6" ry="3.4"/>
			<ellipse class="st10" cx="326.3" cy="122.4" rx="3.3" ry="2"/>
			<ellipse class="st10" cx="362.2" cy="270" rx="3.6" ry="2.2"/>
			<ellipse class="st13" cx="423.3" cy="261.2" rx="7.9" ry="8"/>
			<ellipse class="st14" cx="197.6" cy="289.5" rx="8.6" ry="6.7"/>
			<ellipse class="st5" cx="82.3" cy="230.2" rx="7.7" ry="6.3"/>
			<ellipse class="st10" cx="37.2" cy="179.1" rx="8.3" ry="8.6"/>
		</g>
	</g>
</g>
<g>
	<g>
		<path class="st15" d="M494.6,230.2v-41.9c1.8,0,3.3-1.5,3.3-3.3v-3.3l-6.6-15.8h-53l-6.6,15.8v3.3c0,1.8,1.5,3.3,3.3,3.3v41.9
			H494.6z"/>
		<line class="st16" x1="430.5" y1="230.2" x2="499" y2="230.2"/>
		<line class="st16" x1="434.9" y1="230.2" x2="434.9" y2="188.3"/>
		<line class="st16" x1="494.6" y1="230.2" x2="494.6" y2="188.3"/>
		<path class="st16" d="M491.2,183.9v1.1c0,1.8-1.5,3.3-3.3,3.3s-3.3-1.5-3.3-3.3v-1.1v1.1c0,1.8-1.5,3.3-3.3,3.3s-3.3-1.5-3.3-3.3
			v-1.1v1.1c0,1.8-1.5,3.3-3.3,3.3s-3.3-1.5-3.3-3.3v-1.1v1.1c0,1.8-1.5,3.3-3.3,3.3s-3.3-1.5-3.3-3.3v-1.1v1.1
			c0,1.8-1.5,3.3-3.3,3.3s-3.3-1.5-3.3-3.3v-1.1v1.1c0,1.8-1.5,3.3-3.3,3.3s-3.3-1.5-3.3-3.3v-1.1v1.1c0,1.8-1.5,3.3-3.3,3.3
			s-3.3-1.5-3.3-3.3v-1.1v1.1c0,1.8-1.5,3.3-3.3,3.3s-3.3-1.5-3.3-3.3v-1.1v1.1c0,1.8-1.5,3.3-3.3,3.3s-3.3-1.5-3.3-3.3v-3.3
			l6.6-15.8h53l6.6,15.8v3.3c0,1.8-1.5,3.3-3.3,3.3s-3.3-1.5-3.3-3.3L491.2,183.9L491.2,183.9z"/>
		<line class="st16" x1="496.3" y1="179.5" x2="433" y2="179.5"/>
		<rect x="472.5" y="203.7" class="st16" width="15.5" height="26.4"/>
		<rect x="441.5" y="203.7" class="st17" width="26.5" height="15.4"/>
		<rect x="441.5" y="203.7" class="st16" width="26.5" height="15.4"/>
		<line class="st16" x1="448.2" y1="208.1" x2="445.9" y2="210.4"/>
		<line class="st16" x1="452.6" y1="209.3" x2="448.2" y2="213.7"/>
	</g>
</g>
<g>
	<path class="st18" d="M264.1,268.1l-2.3,5.8h-3.1l-0.2-10.7h3.2l-0.4,6.2l2.6-6.2h2.3l-0.1,6.2l2.4-6.2h3.3l-4.9,10.7h-3.1
		L264.1,268.1z"/>
	<path class="st18" d="M274.1,266c2,0,3.2,1.2,3.2,3.2c0,0.6-0.2,1.4-0.3,1.7h-4.6v0.1c0,0.2,0.3,1,1.4,1c0.5,0,1.1-0.2,1.5-0.4
		l0.8,1.7c-0.7,0.5-1.8,0.8-2.7,0.8c-2.2,0-3.6-1.2-3.6-3.3C269.9,268.4,271.5,266,274.1,266z M274.9,268.9c0-0.4-0.3-0.8-1-0.8
		s-1.1,0.6-1.2,1h2.1C274.9,269,274.9,269,274.9,268.9z"/>
	<path class="st18" d="M280,273.9h-2.7l2.4-10.7h2.7l-0.8,3.8c0.6-0.8,1.2-1,1.9-1c1.5,0,2.4,1,2.4,2.9c0,2.1-1.2,5.2-3.6,5.2
		c-0.9,0-1.6-0.3-2-1L280,273.9z M282,268.3c-0.4,0-0.7,0.2-0.9,0.5l-0.5,2.3c0.2,0.4,0.5,0.5,0.9,0.5c0.9,0,1.4-1.4,1.4-2.3
		C283,268.7,282.6,268.3,282,268.3z"/>
	<path class="st18" d="M286.9,271.1c0.4,0.4,1.4,1,2.3,1c0.4,0,0.6-0.2,0.6-0.4c0-0.3-0.4-0.4-0.9-0.7c-0.9-0.3-2.2-0.9-2.2-2.2
		c0-1.4,1.1-2.8,3.2-2.8c1.2,0,2.4,0.4,3.2,1.2l-1.3,1.6c-0.3-0.3-1.1-0.8-1.9-0.8c-0.4,0-0.6,0.1-0.6,0.4c0,0.2,0.3,0.4,0.8,0.5
		c1,0.3,2.4,0.8,2.4,2.3c0,1.6-1.3,2.9-3.4,2.9c-1.4,0-2.8-0.6-3.5-1.3L286.9,271.1z"/>
	<path class="st18" d="M293.7,271.6l0.7-3.1h-1l0.5-2.3h1l0.5-2.1h2.7l-0.5,2.1h1.2l-0.5,2.3h-1.2l-0.5,2.4c0,0.1,0,0.3,0,0.3
		c0,0.3,0.2,0.5,0.5,0.5c0.1,0,0.3,0,0.3-0.1v2.2c-0.3,0.2-0.7,0.3-1.2,0.3c-1.6,0-2.6-0.6-2.6-1.8
		C293.6,272.1,293.6,271.9,293.7,271.6z"/>
	<path class="st18" d="M302.7,266c2.4,0,3.6,1.4,3.6,3.4c0,2.3-1.6,4.7-4.3,4.7c-2.4,0-3.6-1.4-3.6-3.4
		C298.4,268.4,300.1,266,302.7,266z M302.6,268.3c-0.9,0-1.4,1.5-1.4,2.3c0,0.7,0.4,1,0.9,1c0.9,0,1.4-1.5,1.4-2.3
		C303.5,268.7,303.2,268.3,302.6,268.3z"/>
	<path class="st18" d="M308,266.2h2.7l-0.2,0.9c0.5-0.6,1.3-1.1,2.3-1.1l-0.6,2.6c-0.1-0.1-0.4-0.1-0.7-0.1c-0.6,0-1.1,0.2-1.5,0.7
		l-1,4.7h-2.7L308,266.2z"/>
	<path class="st18" d="M316.5,266c2,0,3.2,1.2,3.2,3.2c0,0.6-0.2,1.4-0.3,1.7h-4.6v0.1c0,0.2,0.3,1,1.4,1c0.5,0,1.1-0.2,1.5-0.4
		l0.8,1.7c-0.7,0.5-1.8,0.8-2.7,0.8c-2.2,0-3.7-1.2-3.7-3.3C312.3,268.4,313.9,266,316.5,266z M317.3,268.9c0-0.4-0.3-0.8-1-0.8
		s-1.1,0.6-1.2,1h2.1C317.3,269,317.3,269,317.3,268.9z"/>
</g>
<g class="st19">
	<path class="st18" d="M84.4,268.1l-2.3,5.8H79l-0.2-10.7H82l-0.4,6.2l2.6-6.2h2.3l-0.1,6.2l2.4-6.2h3.3l-4.9,10.7h-3.1L84.4,268.1z
		"/>
	<path class="st18" d="M96,266.2h2.7l-1.7,7.7h-2.7l0.2-0.8c-0.6,0.7-1.2,1-1.9,1c-1.5,0-2.4-1-2.4-2.9c0-2.1,1.2-5.2,3.6-5.2
		c0.8,0,1.6,0.3,1.9,1L96,266.2z M93.9,271.7c0.4,0,0.7-0.2,0.9-0.5l0.5-2.3c-0.2-0.3-0.5-0.5-1-0.5c-0.9,0-1.4,1.4-1.4,2.3
		C93,271.3,93.4,271.7,93.9,271.7z"/>
	<path class="st18" d="M100,266.2h2.7l-0.2,0.9c0.5-0.6,1.3-1.1,2.3-1.1l-0.6,2.6c-0.1-0.1-0.4-0.1-0.7-0.1c-0.6,0-1.1,0.2-1.5,0.7
		l-1,4.7h-2.7L100,266.2z"/>
	<path class="st18" d="M108.5,266c2,0,3.2,1.2,3.2,3.2c0,0.6-0.2,1.4-0.3,1.7h-4.6v0.1c0,0.2,0.3,1,1.4,1c0.5,0,1.1-0.2,1.5-0.4
		l0.8,1.7c-0.7,0.5-1.8,0.8-2.7,0.8c-2.2,0-3.6-1.2-3.6-3.3C104.3,268.4,105.9,266,108.5,266z M109.3,268.9c0-0.4-0.3-0.8-1-0.8
		s-1.1,0.6-1.2,1h2.1C109.3,269,109.3,269,109.3,268.9z"/>
	<path class="st18" d="M117.2,269.3c0-0.1,0-0.3,0-0.4c0-0.4-0.3-0.6-0.7-0.6c-0.4,0-0.8,0.4-1.1,0.7l-1.1,4.9h-2.7l2.4-10.7h2.7
		l-0.9,3.8c0.5-0.5,1.2-1.1,2.2-1.1c1.3,0,2.1,0.7,2.1,1.7c0,0.1,0,0.4-0.1,0.5l-1.2,5.7h-2.7L117.2,269.3z"/>
	<path class="st18" d="M124.9,266c2.4,0,3.6,1.4,3.6,3.4c0,2.3-1.6,4.7-4.3,4.7c-2.4,0-3.6-1.4-3.6-3.4
		C120.7,268.4,122.3,266,124.9,266z M124.8,268.3c-0.9,0-1.4,1.5-1.4,2.3c0,0.7,0.4,1,0.9,1c0.9,0,1.4-1.5,1.4-2.3
		C125.7,268.7,125.4,268.3,124.8,268.3z"/>
	<path class="st18" d="M131.9,270.8c0,0.1,0,0.3,0,0.4c0,0.4,0.3,0.5,0.7,0.5c0.5,0,0.9-0.4,1.1-0.7l1.1-4.9h2.7l-1.7,7.7H133
		l0.2-0.9c-0.5,0.5-1.2,1.1-2.2,1.1c-1.3,0-2.1-0.7-2.1-1.7c0-0.1,0-0.4,0.1-0.5l1.2-5.7h2.7L131.9,270.8z"/>
	<path class="st18" d="M138.2,271.1c0.4,0.4,1.4,1,2.3,1c0.4,0,0.6-0.2,0.6-0.4c0-0.3-0.4-0.4-0.9-0.7c-0.9-0.3-2.2-0.9-2.2-2.2
		c0-1.4,1.1-2.8,3.2-2.8c1.2,0,2.4,0.4,3.2,1.2l-1.3,1.6c-0.3-0.3-1.1-0.8-1.9-0.8c-0.4,0-0.6,0.1-0.6,0.4c0,0.2,0.3,0.4,0.8,0.5
		c1,0.3,2.4,0.8,2.4,2.3c0,1.6-1.3,2.9-3.4,2.9c-1.4,0-2.8-0.6-3.5-1.3L138.2,271.1z"/>
	<path class="st18" d="M148.7,266c2,0,3.2,1.2,3.2,3.2c0,0.6-0.2,1.4-0.3,1.7H147v0.1c0,0.2,0.3,1,1.4,1c0.5,0,1.1-0.2,1.5-0.4
		l0.8,1.7c-0.7,0.5-1.8,0.8-2.7,0.8c-2.2,0-3.6-1.2-3.6-3.3C144.4,268.4,146.1,266,148.7,266z M149.5,268.9c0-0.4-0.3-0.8-1-0.8
		s-1.1,0.6-1.2,1h2.1C149.5,269,149.5,269,149.5,268.9z"/>
</g>
<g>
	<path class="st18" d="M426.8,263c2.7,0,4.4,1.8,4.4,4.3c0,3-2,6.7-5.7,6.7c-2.7,0-4.5-1.8-4.5-4.3C421.1,266.7,423.2,263,426.8,263
		z M426.6,265.7c-1.4,0-2.4,2.5-2.4,4c0,1,0.6,1.7,1.5,1.7c1.4,0,2.4-2.5,2.4-4C428.2,266.4,427.6,265.7,426.6,265.7z"/>
	<path class="st18" d="M432.5,268.5h-1l0.5-2.3h1l0.1-0.4c0.4-1.7,1.4-2.8,3-2.8c0.6,0,1.2,0.1,1.7,0.4l-0.9,1.9
		c-0.1-0.1-0.3-0.1-0.4-0.1c-0.4,0-0.7,0.3-0.7,0.6l-0.1,0.4h1.2l-0.5,2.3h-1.2l-1.2,5.4h-2.7L432.5,268.5z M437.6,268.5h-1l0.5-2.3
		h1l0.1-0.4c0.4-1.7,1.4-2.8,3-2.8c0.6,0,1.2,0.1,1.7,0.4l-0.9,1.9c-0.1-0.1-0.3-0.1-0.4-0.1c-0.4,0-0.7,0.3-0.7,0.6l-0.1,0.4h1.2
		l-0.5,2.3h-1.2l-1.2,5.4h-2.7L437.6,268.5z M443.6,263.2h2.7l-2.4,10.7h-2.7L443.6,263.2z"/>
	<path class="st18" d="M447,266.2h2.7l-1.7,7.7h-2.7L447,266.2z M449,262.5c0.8,0,1.4,0.6,1.4,1.3c0,1.1-1,1.8-1.7,1.8
		c-0.8,0-1.4-0.6-1.4-1.3C447.2,263.1,448.2,262.5,449,262.5z"/>
	<path class="st18" d="M454.8,269.3c0-0.1,0.1-0.3,0.1-0.4c0-0.4-0.3-0.6-0.6-0.6c-0.5,0-0.9,0.4-1.1,0.7l-1.1,4.9h-2.7l1.7-7.7h2.7
		l-0.2,0.9c0.5-0.5,1.2-1.1,2.2-1.1c1.3,0,2.1,0.7,2.1,1.7c0,0.1,0,0.4-0.1,0.5l-1.2,5.7h-2.7L454.8,269.3z"/>
	<path class="st18" d="M462.5,266c2,0,3.2,1.2,3.2,3.2c0,0.6-0.2,1.4-0.3,1.7h-4.6v0.1c0,0.2,0.3,1,1.4,1c0.5,0,1.1-0.2,1.5-0.4
		l0.8,1.7c-0.7,0.5-1.8,0.8-2.7,0.8c-2.2,0-3.6-1.2-3.6-3.3C458.3,268.4,459.9,266,462.5,266z M463.3,268.9c0-0.4-0.3-0.8-1-0.8
		s-1.1,0.6-1.2,1h2.1C463.3,269,463.3,269,463.3,268.9z"/>
	<path class="st18" d="M470.5,270.2c0.6,0.8,1.7,1.3,2.7,1.3c0.6,0,0.8-0.3,0.8-0.7c0-0.4-0.5-0.7-1.1-1c-1.1-0.5-2.7-1.3-2.7-3.2
		c0-1.7,1.5-3.6,4.1-3.6c1.4,0,2.9,0.5,3.8,1.5l-1.7,2.1c-0.6-0.7-1.6-1-2.3-1c-0.5,0-0.8,0.3-0.8,0.6c0,0.4,0.5,0.7,1.1,1
		c1.1,0.5,2.7,1.3,2.7,3c0,2-1.6,3.7-4.1,3.7c-1.8,0-3.5-0.7-4.3-1.7L470.5,270.2z"/>
	<path class="st18" d="M478.2,271.6l0.7-3.1h-1l0.5-2.3h1l0.5-2.1h2.7l-0.5,2.1h1.2l-0.5,2.3h-1.2l-0.5,2.4c0,0.1,0,0.3,0,0.3
		c0,0.3,0.2,0.5,0.5,0.5c0.1,0,0.3,0,0.3-0.1v2.2c-0.3,0.2-0.7,0.3-1.2,0.3c-1.6,0-2.6-0.6-2.6-1.8
		C478.1,272.1,478.1,271.9,478.2,271.6z"/>
	<path class="st18" d="M487.2,266c2.4,0,3.6,1.4,3.6,3.4c0,2.3-1.6,4.7-4.3,4.7c-2.4,0-3.6-1.4-3.6-3.4
		C482.9,268.4,484.6,266,487.2,266z M487,268.3c-0.9,0-1.4,1.5-1.4,2.3c0,0.7,0.4,1,0.9,1c0.9,0,1.4-1.5,1.4-2.3
		C488,268.7,487.6,268.3,487,268.3z"/>
	<path class="st18" d="M492.5,266.2h2.7L495,267c0.5-0.6,1.3-1.1,2.3-1.1l-0.6,2.6c-0.1-0.1-0.4-0.1-0.7-0.1c-0.6,0-1.1,0.2-1.5,0.7
		l-1,4.7h-2.7L492.5,266.2z"/>
	<path class="st18" d="M501,266c2,0,3.2,1.2,3.2,3.2c0,0.6-0.2,1.4-0.3,1.7h-4.6v0.1c0,0.2,0.3,1,1.4,1c0.5,0,1.1-0.2,1.5-0.4
		l0.8,1.7c-0.7,0.5-1.8,0.8-2.7,0.8c-2.2,0-3.7-1.2-3.7-3.3C496.7,268.4,498.4,266,501,266z M501.8,268.9c0-0.4-0.3-0.8-1-0.8
		s-1.1,0.6-1.2,1h2.1C501.8,269,501.8,269,501.8,268.9z"/>
</g>
<g>
	<g>
		<path class="st15" d="M322.1,230.6h-62c-1.8,0-3.3-1.5-3.3-3.3v-58.6c0-1.8,1.5-3.3,3.3-3.3h62c1.8,0,3.3,1.5,3.3,3.3v58.6
			C325.3,229.1,323.9,230.6,322.1,230.6"/>
		<path class="st20" d="M322.1,230.6h-62c-1.8,0-3.3-1.5-3.3-3.3v-58.6c0-1.8,1.5-3.3,3.3-3.3h62c1.8,0,3.3,1.5,3.3,3.3v58.6
			C325.3,229.1,323.9,230.6,322.1,230.6z"/>
		<line class="st20" x1="256.8" y1="175" x2="325.3" y2="175"/>
		<line class="st16" x1="291.6" y1="182.1" x2="302.5" y2="182.1"/>
		<line class="st16" x1="291.6" y1="186.5" x2="319.2" y2="186.5"/>
		<line class="st16" x1="291.6" y1="193" x2="294.7" y2="193"/>
		<line class="st16" x1="298" y1="193.1" x2="319.2" y2="193.1"/>
		<line class="st16" x1="291.6" y1="197.4" x2="294.7" y2="197.4"/>
		<line class="st16" x1="298" y1="197.4" x2="319.2" y2="197.4"/>
		<line class="st16" x1="291.6" y1="201.7" x2="294.7" y2="201.7"/>
		<line class="st16" x1="298" y1="201.8" x2="319.2" y2="201.8"/>
		<path class="st17" d="M278,217.5h-12.7c-0.9,0-1.6-0.7-1.6-1.6V210c0-0.9,0.7-1.6,1.6-1.6H278c0.9,0,1.6,0.7,1.6,1.6v5.9
			C279.7,216.8,278.9,217.5,278,217.5"/>
		<path class="st16" d="M278,217.5h-12.7c-0.9,0-1.6-0.7-1.6-1.6V210c0-0.9,0.7-1.6,1.6-1.6H278c0.9,0,1.6,0.7,1.6,1.6v5.9
			C279.7,216.8,278.9,217.5,278,217.5z"/>
		<line class="st16" x1="263.7" y1="221.5" x2="279.7" y2="221.5"/>
		<line class="st16" x1="263.7" y1="225.9" x2="272.7" y2="225.9"/>
		<path class="st17" d="M297.8,217.5h-12.7c-0.9,0-1.6-0.7-1.6-1.6V210c0-0.9,0.7-1.6,1.6-1.6h12.7c0.9,0,1.6,0.7,1.6,1.6v5.9
			C299.4,216.8,298.7,217.5,297.8,217.5"/>
		<path class="st16" d="M297.8,217.5h-12.7c-0.9,0-1.6-0.7-1.6-1.6V210c0-0.9,0.7-1.6,1.6-1.6h12.7c0.9,0,1.6,0.7,1.6,1.6v5.9
			C299.4,216.8,298.7,217.5,297.8,217.5z"/>
		<line class="st16" x1="283.5" y1="221.5" x2="299.4" y2="221.5"/>
		<line class="st16" x1="283.5" y1="225.9" x2="292.5" y2="225.9"/>
		<path class="st17" d="M317.6,217.5h-12.7c-0.9,0-1.6-0.7-1.6-1.6V210c0-0.9,0.7-1.6,1.6-1.6h12.7c0.9,0,1.6,0.7,1.6,1.6v5.9
			C319.2,216.8,318.5,217.5,317.6,217.5"/>
		<path class="st16" d="M317.6,217.5h-12.7c-0.9,0-1.6-0.7-1.6-1.6V210c0-0.9,0.7-1.6,1.6-1.6h12.7c0.9,0,1.6,0.7,1.6,1.6v5.9
			C319.2,216.8,318.5,217.5,317.6,217.5z"/>
		<line class="st16" x1="303.3" y1="221.5" x2="319.2" y2="221.5"/>
		<line class="st16" x1="303.3" y1="225.9" x2="312.2" y2="225.9"/>
		<path class="st21" d="M262.8,170.8c0,0.6-0.5,1-1,1c-0.6,0-1-0.5-1-1c0-0.6,0.5-1,1-1C262.4,169.8,262.8,170.2,262.8,170.8"/>
		<path class="st21" d="M266.1,170.8c0,0.6-0.5,1-1,1c-0.6,0-1-0.5-1-1c0-0.6,0.5-1,1-1C265.7,169.8,266.1,170.2,266.1,170.8"/>
		<path class="st21" d="M269.4,170.8c0,0.6-0.5,1-1,1c-0.6,0-1-0.5-1-1c0-0.6,0.5-1,1-1C269,169.8,269.4,170.2,269.4,170.8"/>
		<circle class="st16" cx="270.5" cy="200.7" r="2.2"/>
		<circle class="st16" cx="282.8" cy="200.7" r="2.2"/>
		<line class="st16" x1="272.8" y1="200.7" x2="280.6" y2="200.7"/>
		<line class="st16" x1="271.3" y1="198.6" x2="273.9" y2="195.3"/>
		<path class="st16" d="M267.3,183.7h14.2h3.5v3.5v4.6c0,1.9-1.6,3.5-3.5,3.5h-6.6c-1.1,0-2-0.6-2.5-1.5L267.3,183.7z"/>
		<path class="st16" d="M267.3,183.7l-1.1-2.2c-0.2-0.5-0.7-0.8-1.3-0.8h-2.2"/>
	</g>
</g>
<g>
	<line class="st22" x1="186.4" y1="198" x2="216.9" y2="198"/>
	<polygon class="st23" points="216.9,198 207.7,204.3 209,198 207.7,191.8 	"/>
</g>
<g>
	<line class="st22" x1="383.1" y1="198" x2="352.7" y2="198"/>
	<polygon class="st23" points="352.7,198 361.9,204.3 360.5,198 361.9,191.8 	"/>
</g>
<g>
	<polygon id="Fill-1_21_" class="st24" points="77.4,180.8 77.4,186 82.7,186 145.3,186 150.9,186 150.9,181 114,165.5 	"/>
	<polyline id="Stroke-2_18_" class="st25" points="82.7,186 77.4,186 77.4,180.8 114,165.5 150.9,181 150.9,186 145.3,186 	"/>
	<polygon id="Fill-4_18_" class="st26" points="82.7,182.8 82.7,230.5 145.3,230.5 145.3,182.8 114,170.9 	"/>
	<polygon id="Stroke-5_22_" class="st25" points="145.3,230.5 82.7,230.5 82.7,182.8 114,170.9 145.3,182.8 	"/>
	<polygon id="Stroke-7_19_" class="st25" points="95.3,193 103.1,193 103.1,185.2 95.3,185.2 	"/>
	<polygon id="Stroke-8_16_" class="st25" points="110.3,193 118.1,193 118.1,185.2 110.3,185.2 	"/>
	<polygon id="Stroke-9_20_" class="st25" points="125.2,193 133.1,193 133.1,185.2 125.2,185.2 	"/>
	<polygon id="Fill-10_15_" class="st27" points="95.3,200.7 95.3,205.3 95.3,230.5 133.1,230.5 133.1,200.7 	"/>
	<polygon id="Stroke-11_20_" class="st28" points="133.1,230.5 95.3,230.5 95.3,205.3 95.3,200.7 133.1,200.7 	"/>
	<path id="Stroke-13_20_" class="st25" d="M133.1,205.5H95.3"/>
	<path id="Stroke-14_10_" class="st25" d="M133.1,210.3H95.3"/>
	<path id="Stroke-15_19_" class="st25" d="M133.1,215.2H95.3"/>
	<path id="Stroke-16_10_" class="st29" d="M133.1,220.2H95.3"/>
	<path id="Stroke-17_19_" class="st25" d="M133.1,225.2H95.3"/>
</g>
<path class="st22" d="M331.4,83.8h185.2c10.5,0,19,8.5,19,19V282c0,10.5-8.5,19-19,19H58.7c-10.5,0-19-8.5-19-19V102.8
	c0-10.5,8.5-19,19-19H257"/>
<g>
	<g>
		<rect x="277.4" y="50.9" class="st30" width="32.6" height="32.6"/>
		<rect x="287.4" y="50.9" class="st31" width="13.3" height="12.7"/>
		<line class="st32" x1="287.8" y1="76.1" x2="300.9" y2="76.1"/>
	</g>
	<g>
		<rect x="254.2" y="83.5" class="st30" width="32.6" height="32.6"/>
		<rect x="264.3" y="83.5" class="st31" width="13.3" height="12.7"/>
		<line class="st32" x1="264.7" y1="108.7" x2="277.8" y2="108.7"/>
	</g>
	<g>
		<rect x="299.9" y="83.5" class="st30" width="32.6" height="32.6"/>
		<rect x="310" y="83.5" class="st31" width="13.3" height="12.7"/>
		<line class="st32" x1="310.4" y1="108.7" x2="323.4" y2="108.7"/>
	</g>
</g>
</svg>
