<?xml version="1.0" encoding="utf-8"?>
<!-- Generator: Adobe Illustrator 23.0.2, SVG Export Plug-In . SVG Version: 6.00 Build 0)  -->
<svg version="1.1" id="Layer_10" xmlns="http://www.w3.org/2000/svg" xmlns:xlink="http://www.w3.org/1999/xlink" x="0px" y="0px"
	 width="51.4px" height="40px" viewBox="0 0 51.4 40" style="enable-background:new 0 0 51.4 40;" xml:space="preserve">
<style type="text/css">
	.st0{fill:#32BDB9;}
	.st1{fill:none;stroke:#32BDB9;stroke-width:1.3;stroke-linecap:round;stroke-linejoin:round;stroke-miterlimit:10;}
</style>
<g>
	<g>
		<path class="st0" d="M37.4,8.6l3.8,6.6c-0.1,0.8-0.7,2.7-2.4,2.7c-2.4,0-3.3-3.3-3.3-3.3c-0.1-0.6-0.7-1-1.3-1c0,0,0,0,0,0
			c-0.6,0-1.1,0.5-1.2,1.1c0,0.1-0.6,3.2-2.9,3.2c-2.3,0-2.9-3.1-2.9-3.2c-0.1-0.6-0.6-1-1.2-1.1c0,0,0,0-0.1,0
			c-0.6,0-1.1,0.4-1.3,1c0,0-1,3.3-2.9,3.3c-2,0-2.9-3.1-3-3.1c-0.2-0.6-0.7-0.9-1.2-0.9c0,0,0,0,0,0c-0.6,0-1.1,0.4-1.2,0.9
			c0,0-1,3.1-3.1,3.1c-1.6,0-2.3-1.9-2.6-2.8l3.9-6.5H37.4 M38.1,7.3H13.6L9,14.9c0,0,0.9,4.3,4,4.3c3.2,0,4.4-4,4.4-4s1.2,4,4.2,4
			s4.2-4.3,4.2-4.3s0.8,4.3,4.2,4.3c3.4,0,4.2-4.3,4.2-4.3s1.1,4.3,4.5,4.3c3.5,0,3.8-4.3,3.8-4.3L38.1,7.3L38.1,7.3z"/>
	</g>
	<line class="st1" x1="10.3" y1="14" x2="41.3" y2="14"/>
	<polyline class="st1" points="11,19.9 11,34.2 40.5,34.2 40.5,19.9 	"/>
	<line class="st1" x1="9.7" y1="34.4" x2="41.6" y2="34.4"/>
	<polyline class="st1" points="14,21.4 28.3,21.4 28.3,31.6 14,31.6 14,24.2 	"/>
	<polyline class="st1" points="31.1,34 31.1,31.6 37.6,31.6 37.6,33.9 	"/>
	<polyline class="st1" points="31.1,29.6 31.1,21.4 37.6,21.4 37.6,26.6 34.6,26.6 	"/>
</g>
</svg>
