<?xml version="1.0" encoding="utf-8"?>
<!-- Generator: Adobe Illustrator 21.1.0, SVG Export Plug-In . SVG Version: 6.00 Build 0)  -->
<svg version="1.1" id="Layer_1" xmlns="http://www.w3.org/2000/svg" xmlns:xlink="http://www.w3.org/1999/xlink" x="0px" y="0px"
	 width="45px" height="40px" viewBox="0 0 45 40" enable-background="new 0 0 45 40" xml:space="preserve">
<g>
	<path fill="#32BDB9" d="M11.5,39.3c-0.6,0-1-0.5-1-1s0.5-1,1-1h5.6l1.9-7.7H4.2c-1.9,0-3.5-1.5-3.5-3.5V4.2c0-1.9,1.6-3.5,3.5-3.5
		h36.6c1.9,0,3.5,1.6,3.5,3.5v21.9c0,1.9-1.5,3.5-3.5,3.5H25.9l1.9,7.7h5.6c0.6,0,1,0.5,1,1s-0.5,1-1,1H11.5z M19.3,37.3h6.5
		L24.4,32h-3.8L19.3,37.3z M4.2,2.7c-0.8,0-1.4,0.6-1.4,1.4v21.9c0,0.8,0.6,1.4,1.4,1.4h36.6c0.8,0,1.4-0.6,1.4-1.4V4.2
		c0-0.8-0.6-1.4-1.4-1.4H4.2z"/>
	<path fill="#32BDB9" d="M31.7,7.7H13.6c-0.2,0-0.3-0.1-0.3-0.3V6.2c0-0.2,0.1-0.3,0.3-0.3h18.1c0.2,0,0.3,0.1,0.3,0.3v1.2
		C32,7.6,31.8,7.7,31.7,7.7z M32,15.2V14c0-0.2-0.1-0.3-0.3-0.3l0,0H13.6c-0.2,0-0.3,0.1-0.3,0.3l0,0v1.2c0,0.2,0.1,0.3,0.3,0.3
		h18.1C31.8,15.5,32,15.3,32,15.2z M32,22.9v-1.2c0-0.2-0.1-0.3-0.3-0.3H13.6c-0.2,0-0.3,0.1-0.3,0.3v1.2c0,0.2,0.1,0.3,0.3,0.3
		h18.1C31.8,23.2,32,23.1,32,22.9z M11.2,8V5.7c0-0.3-0.3-0.6-0.6-0.6H8.3C8,5.1,7.7,5.3,7.7,5.7V8c0,0.3,0.3,0.6,0.6,0.6h2.3
		C10.9,8.6,11.2,8.3,11.2,8z M11.2,15.8v-2.3c0-0.3-0.3-0.6-0.6-0.6H8.3c-0.3,0-0.6,0.3-0.6,0.6v2.3c0,0.3,0.3,0.6,0.6,0.6h2.3
		C10.9,16.3,11.2,16.1,11.2,15.8z M11.2,23.5v-2.3c0-0.3-0.3-0.6-0.6-0.6H8.3c-0.3,0-0.6,0.3-0.6,0.6v2.3c0,0.3,0.3,0.6,0.6,0.6h2.3
		C10.9,24.1,11.2,23.9,11.2,23.5z"/>
	<path fill="#32BDB9" d="M34.8,20.6l3.1,1.4c0.3,0.2,0.2,0.7-0.1,0.7h-1.3v1.3c0,0.4-0.5,0.5-0.7,0.1l-1.4-3.1
		C34.2,20.8,34.5,20.5,34.8,20.6z M34.6,21l1.4,3.1c0.1,0.1,0.2,0.1,0.2,0v-1.5h1.5c0.1,0,0.2-0.2,0-0.2l-3.1-1.4
		C34.6,20.8,34.5,20.9,34.6,21z"/>
	
		<line fill="none" stroke="#32BDB9" stroke-width="0.25" stroke-linecap="round" stroke-miterlimit="10" x1="36.4" y1="22.7" x2="38.1" y2="24.4"/>
</g>
</svg>
