<?xml version="1.0" encoding="utf-8"?>
<!-- Generator: Adobe Illustrator 21.1.0, SVG Export Plug-In . SVG Version: 6.00 Build 0)  -->
<svg version="1.1" id="Layer_1" xmlns="http://www.w3.org/2000/svg" xmlns:xlink="http://www.w3.org/1999/xlink" x="0px" y="0px"
	 width="40px" height="40px" viewBox="0 0 40 40" style="enable-background:new 0 0 40 40;" xml:space="preserve">
<style type="text/css">
	.st0{fill:#32BDB9;}
</style>
<path class="st0" d="M20,39.6c-6.9,0-13.4-3.7-16.9-9.7l-0.7-1.3V39c0,0.3-0.3,0.6-0.6,0.6H1c-0.3,0-0.6-0.3-0.6-0.6V26.1
	c0-0.3,0.3-0.6,0.6-0.6h12.9c0.3,0,0.6,0.3,0.6,0.6v0.8c0,0.3-0.3,0.6-0.6,0.6H4l0.3,0.6c3,5.9,9.1,9.6,15.7,9.6
	c9.4,0,17.1-7.3,17.6-16.7c0-0.3,0.3-0.5,0.6-0.5H39c0.2,0,0.3,0.1,0.4,0.2c0.1,0.1,0.2,0.3,0.2,0.4C39.1,31.4,30.5,39.6,20,39.6z
	 M1,19.6c-0.2,0-0.3-0.1-0.4-0.2c-0.1-0.1-0.2-0.3-0.2-0.4C0.9,8.6,9.5,0.4,20,0.4c6.9,0,13.4,3.7,16.9,9.7l0.7,1.3V1
	c0-0.3,0.3-0.6,0.6-0.6H39c0.3,0,0.6,0.3,0.6,0.6v12.9c0,0.3-0.3,0.6-0.6,0.6H26.1c-0.3,0-0.6-0.3-0.6-0.6v-0.8
	c0-0.3,0.3-0.6,0.6-0.6H36l-0.3-0.6C32.7,6,26.6,2.3,20,2.3c-9.4,0-17.1,7.3-17.6,16.7c0,0.3-0.3,0.5-0.6,0.5H1z"/>
</svg>
