<?xml version="1.0" encoding="utf-8"?>
<!-- Generator: Adobe Illustrator 21.1.0, SVG Export Plug-In . SVG Version: 6.00 Build 0)  -->
<svg version="1.1" id="Layer_1" xmlns="http://www.w3.org/2000/svg" xmlns:xlink="http://www.w3.org/1999/xlink" x="0px" y="0px"
	 width="45.7px" height="40px" viewBox="0 0 45.7 40" style="enable-background:new 0 0 45.7 40;" xml:space="preserve">
<style type="text/css">
	.st0{fill:#FFFFFF;}
</style>
<path class="st0" d="M4.3,39.8c-2.3,0-4.1-1.8-4.1-4.1V4.3C0.2,2,2,0.2,4.3,0.2h37.1c2.3,0,4.1,1.8,4.1,4.1v31.4
	c0,2.3-1.8,4.1-4.1,4.1H4.3z M4.3,2.7c-0.9,0-1.6,0.7-1.6,1.6v31.4c0,0.9,0.7,1.6,1.6,1.6h37.1c0.9,0,1.6-0.7,1.6-1.6V4.3
	c0-0.9-0.7-1.6-1.6-1.6H4.3z M8.6,22.7c-1.5,0-2.7-1.2-2.7-2.7s1.2-2.7,2.7-2.7c2,0,2.7,1.4,2.7,2.7C11.2,21.5,10,22.7,8.6,22.7z"/>
</svg>
