<?xml version="1.0" encoding="utf-8"?>
<!-- Generator: Adobe Illustrator 21.1.0, SVG Export Plug-In . SVG Version: 6.00 Build 0)  -->
<svg version="1.1" id="Layer_1" xmlns="http://www.w3.org/2000/svg" xmlns:xlink="http://www.w3.org/1999/xlink" x="0px" y="0px"
	 width="51.4px" height="40px" viewBox="0 0 51.4 40" style="enable-background:new 0 0 51.4 40;" xml:space="preserve">
<style type="text/css">
	.st0{fill:#FFFFFF;}
</style>
<path class="st0" d="M6.8,39.5c-1.4,0-2.7-0.8-3.3-2c-1.9-3.6-2.9-7.7-2.9-11.8c0-13.9,11.3-25.2,25.2-25.2S51,11.8,51,25.7
	c0,4.1-1,8.2-2.9,11.8c-0.7,1.2-1.9,2-3.3,2H6.8z M25.7,2.4C12.8,2.4,2.4,12.8,2.4,25.7c0,3.8,0.9,7.6,2.7,10.9c0.3,0.6,1,1,1.7,1
	h37.9c0.7,0,1.4-0.4,1.7-1c1.8-3.3,2.7-7.1,2.7-10.9C49.1,12.8,38.6,2.4,25.7,2.4z M25.7,33.8c-2.9,0-5.2-2.3-5.2-5.2
	s2.3-5.2,5.2-5.2c0.2,0,0.3,0,0.5,0h0.4l4.7-13c0.1-0.4,0.5-0.6,0.9-0.6c0.1,0,0.2,0,0.3,0.1c0.2,0.1,0.4,0.3,0.5,0.5s0.1,0.5,0,0.7
	l-4.7,13l0.3,0.2c1.4,1,2.3,2.6,2.3,4.3C30.9,31.4,28.6,33.8,25.7,33.8z M25.7,25.2c-1.9,0-3.4,1.5-3.4,3.4s1.5,3.4,3.4,3.4
	s3.4-1.5,3.4-3.4S27.6,25.2,25.7,25.2z M45.7,27.4c-0.9,0-1.6-0.7-1.6-1.6s0.7-1.6,1.6-1.6s1.6,0.7,1.6,1.6
	C47.4,26.6,46.6,27.4,45.7,27.4z M5.7,27.4c-0.9,0-1.6-0.7-1.6-1.6s0.7-1.6,1.6-1.6s1.6,0.7,1.6,1.6C7.4,26.6,6.6,27.4,5.7,27.4z
	 M39.9,13.2c-0.9,0-1.6-0.7-1.6-1.6S39,10,39.9,10c0.9,0,1.6,0.7,1.6,1.6S40.8,13.2,39.9,13.2z M11.6,13.2c-0.9,0-1.6-0.7-1.6-1.6
	s0.7-1.6,1.6-1.6s1.6,0.7,1.6,1.6S12.5,13.2,11.6,13.2z M25.7,7.4c-0.9,0-1.6-0.7-1.6-1.6s0.7-1.6,1.6-1.6s1.6,0.7,1.6,1.6
	S26.6,7.4,25.7,7.4z"/>
</svg>
