<?xml version="1.0" encoding="utf-8"?>
<!-- Generator: Adobe Illustrator 21.1.0, SVG Export Plug-In . SVG Version: 6.00 Build 0)  -->
<svg version="1.1" id="Layer_1" xmlns="http://www.w3.org/2000/svg" xmlns:xlink="http://www.w3.org/1999/xlink" x="0px" y="0px"
	 width="40px" height="40px" viewBox="0 0 40 40" style="enable-background:new 0 0 40 40;" xml:space="preserve">
<style type="text/css">
	.st0{fill:#32BDB9;}
</style>
<path class="st0" d="M38.9,17.7L22.3,1.1C21.6,0.4,20.7,0,19.7,0H3.7C1.7,0,0,1.7,0,3.8v15.9c0,1,0.4,1.9,1.1,2.7l16.6,16.6
	c1.5,1.5,3.8,1.5,5.3,0L38.9,23C40.4,21.5,40.4,19.1,38.9,17.7L38.9,17.7z M37.1,21.2L21.2,37.1c-0.5,0.5-1.3,0.5-1.8,0L2.9,20.6
	c-0.2-0.2-0.4-0.6-0.4-0.9V3.8c0-0.7,0.6-1.2,1.2-1.2h15.9c0.3,0,0.6,0.1,0.9,0.4l16.6,16.6C37.6,19.9,37.6,20.7,37.1,21.2
	L37.1,21.2z M11.2,9.7c0.9,0,1.6,0.7,1.6,1.6c0,0.9-0.7,1.6-1.6,1.6c-0.9,0-1.6-0.7-1.6-1.6C9.7,10.4,10.4,9.7,11.2,9.7 M11.2,7.5
	c-2.1,0-3.7,1.7-3.7,3.7S9.2,15,11.2,15s3.7-1.7,3.7-3.7S13.3,7.5,11.2,7.5z"/>
</svg>
