<?xml version="1.0" encoding="utf-8"?>
<!-- Generator: Adobe Illustrator 21.1.0, SVG Export Plug-In . SVG Version: 6.00 Build 0)  -->
<svg version="1.1" id="Layer_3" xmlns="http://www.w3.org/2000/svg" xmlns:xlink="http://www.w3.org/1999/xlink" x="0px" y="0px"
	 width="90px" height="72px" viewBox="0 0 90 72" enable-background="new 0 0 90 72" xml:space="preserve">
<g>
	<path fill="#32BDB9" d="M43.6,53c-3.3,0-5.9-3.8-5.9-8.7s2.6-8.7,5.9-8.7c3.3,0,5.9,3.8,5.9,8.7S46.9,53,43.6,53z M43.6,37.7
		c-1.9,0-3.9,2.7-3.9,6.6s2,6.6,3.9,6.6s3.9-2.7,3.9-6.6S45.4,37.7,43.6,37.7z"/>
	<path fill="#32BDB9" d="M34.9,64.2c-0.5,0-1-0.4-1-1l-3.4-36.8h-1.7c-0.6,0-1-0.5-1-1c0-3.6,2.9-6.5,6.5-6.5h11.1l6.4-9.4
		c0.1-0.2,0.4-0.4,0.6-0.4l9-2.3c0.1,0,0.2,0,0.3,0c0.5,0,0.9,0.3,1,0.8c0.1,0.3,0,0.6-0.1,0.8S62.2,8.8,62,8.9L53.2,11l-5.3,7.9h5
		c3.6,0,6.5,2.9,6.5,6.5c0,0.6-0.5,1-1,1h-1.7l-3.4,36.8c-0.1,0.5-0.5,1-1,1H34.9L34.9,64.2z M35.9,62.1h15.4l3.3-35.7h-22
		L35.9,62.1z M34.3,21c-1.7,0-3.2,0.9-3.9,2.4l-0.5,1h27.5l-0.5-1C56,21.9,54.5,21,52.8,21H34.3z"/>
</g>
</svg>
