<?xml version="1.0" encoding="utf-8"?>
<!-- Generator: Adobe Illustrator 21.1.0, SVG Export Plug-In . SVG Version: 6.00 Build 0)  -->
<svg version="1.1" id="Layer_1" xmlns="http://www.w3.org/2000/svg" xmlns:xlink="http://www.w3.org/1999/xlink" x="0px" y="0px"
	 width="40px" height="40px" viewBox="0 0 40 40" style="enable-background:new 0 0 40 40;" xml:space="preserve">
<style type="text/css">
	.st0{fill:#32BDB9;}
</style>
<path class="st0" d="M2.5,39.8c-1.3,0-2.3-1-2.3-2.3v-20c0-1.3,1-2.3,2.3-2.3H10c0.8,0,1.5,0.4,1.9,1l0.1,0.1l0.1,0
	c0.3-0.1,0.5-0.1,0.7-0.2c1.1-0.6,2.5-2.4,3.9-4.3c0.9-1.2,1.8-2.3,2.5-3C20,8,20.2,6.7,20.5,5.3c0.4-2.2,1.2-5.1,3.5-5.1
	c2.2,0,3.8,0.6,4.8,1.9c1,1.2,1.4,2.9,1.4,5.2c0,2.2-0.8,3.8-1.5,5.1l-0.3,0.6h5.8c3,0,5.5,2.5,5.5,5.5c0,1.5-0.4,2.8-1.2,3.8
	l-0.1,0.1l0,0.1c0.4,1.8,0.2,3.9-0.7,5.3l0,0.1l0,0.1c0.3,1.8-0.2,3.7-1.4,5.1l-0.1,0.1l0,0.1c0.1,2-0.5,3.7-1.6,4.9
	c-1.2,1.2-3,1.9-5.2,1.9h-3.2c-3.6,0-6.9-1.2-9.6-2.1c-1.8-0.6-3.2-1.1-4.2-1.1h-0.2v0.9c0,1.3-1,2.3-2.3,2.3H2.5z M2.3,37.7h7.9
	V17.3H2.3V37.7z M12.3,34.5h0.2c1.4,0,3.1,0.6,5.1,1.3c2.6,0.9,5.5,1.9,8.8,1.9h3.2c1.8,0,3.1-0.5,3.9-1.4c0.8-1,1.1-2.4,0.8-4.2
	c0.6-0.4,1.2-1.2,1.5-2.1c0.3-1,0.2-1.9-0.2-2.8c0.7-0.5,1.1-1.4,1.2-2.6c0.1-1-0.1-2.2-0.7-2.9c1.1-0.5,1.7-1.7,1.7-3.3
	c0-1.6-1.4-3.4-3.4-3.4h-8.5c0-1.4,0.6-2.5,1.2-3.6c0.6-1.2,1.2-2.4,1.2-4.1c0-2,0-5-4.2-5h-0.1l-0.1,0.1c-0.8,0.8-1,2-1.3,3.3
	c-0.3,1.6-0.7,3.4-1.9,4.6c-0.8,0.8-1.7,1.9-2.5,3.1c-1.8,2.4-3.7,4.8-5.6,4.8h-0.2V34.5z M6.3,35.4c-0.9,0-1.7-0.8-1.7-1.7
	s0.8-1.7,1.7-1.7s1.7,0.8,1.7,1.7S7.2,35.4,6.3,35.4z"/>
</svg>
