<?xml version="1.0" encoding="utf-8"?>
<!-- Generator: Adobe Illustrator 21.1.0, SVG Export Plug-In . SVG Version: 6.00 Build 0)  -->
<svg version="1.1" id="Layer_1" xmlns="http://www.w3.org/2000/svg" xmlns:xlink="http://www.w3.org/1999/xlink" x="0px" y="0px"
	 width="60px" height="40px" viewBox="0 0 60 40" style="enable-background:new 0 0 60 40;" xml:space="preserve">
<style type="text/css">
	.st0{fill:#32BDB9;}
</style>
<path class="st0" d="M5,39.4c-2.4,0-4.4-2-4.4-4.4V23.9h2.7c2.2,0,3.9-1.8,3.9-3.9s-1.8-3.9-3.9-3.9H0.6V5c0-2.4,2-4.4,4.4-4.4h50
	c2.4,0,4.4,2,4.4,4.4v11.1h-2.7c-2.2,0-3.9,1.8-3.9,3.9s1.8,3.9,3.9,3.9h2.7V35c0,2.4-2,4.4-4.4,4.4H5z M2.7,35c0,1.3,1,2.3,2.3,2.3
	h50c1.3,0,2.3-1,2.3-2.3v-8.9h-0.6c-3.3,0-6.1-2.7-6.1-6.1c0-3.3,2.7-6.1,6.1-6.1h0.6V5c0-1.2-1-2.3-2.3-2.3H5c-1.2,0-2.3,1-2.3,2.3
	v8.9h0.6c3.3,0,6.1,2.7,6.1,6.1c0,3.3-2.7,6.1-6.1,6.1H2.7V35z M15.8,29.4c-1,0-1.9-0.9-1.9-1.9v-15c0-1,0.9-1.9,1.9-1.9h28.3
	c1,0,1.9,0.9,1.9,1.9v15c0,1-0.9,1.9-1.9,1.9H15.8z M16.1,27.3h27.9V12.7H16.1V27.3z"/>
</svg>
