<?xml version="1.0" encoding="utf-8"?>
<!-- Generator: Adobe Illustrator 21.1.0, SVG Export Plug-In . SVG Version: 6.00 Build 0)  -->
<svg version="1.1" id="Layer_1" xmlns="http://www.w3.org/2000/svg" xmlns:xlink="http://www.w3.org/1999/xlink" x="0px" y="0px"
	 width="60px" height="40px" viewBox="0 0 60 40" style="enable-background:new 0 0 60 40;" xml:space="preserve">
<style type="text/css">
	.st0{fill:#32BDB9;}
</style>
<path class="st0" d="M20,39.5C9.2,39.5,0.5,30.8,0.5,20C0.5,9.2,9.2,0.5,20,0.5h20c10.8,0,19.5,8.7,19.5,19.5
	c0,10.8-8.7,19.5-19.5,19.5H20z M20,2.8C10.5,2.8,2.8,10.5,2.8,20S10.5,37.2,20,37.2h20c9.5,0,17.2-7.7,17.2-17.2S49.5,2.8,40,2.8
	H20z M40,31.2c-3.2,0-6.3-1.4-8.4-3.8c-1.8-2-2.8-4.7-2.8-7.4c0-6.2,5-11.2,11.2-11.2s11.2,5,11.2,11.2S46.2,31.2,40,31.2z"/>
</svg>
