<?xml version="1.0" encoding="utf-8"?>
<!-- Generator: Adobe Illustrator 21.1.0, SVG Export Plug-In . SVG Version: 6.00 Build 0)  -->
<svg version="1.1" id="Layer_1" xmlns="http://www.w3.org/2000/svg" xmlns:xlink="http://www.w3.org/1999/xlink" x="0px" y="0px"
	 width="45.7px" height="40px" viewBox="0 0 45.7 40" style="enable-background:new 0 0 45.7 40;" xml:space="preserve">
<style type="text/css">
	.st0{fill:#32BDB9;}
</style>
<path class="st0" d="M0.7,39.6c-0.2,0-0.3-0.1-0.3-0.3v-0.7c0-0.6,0.5-1,1-1h1.8v-4c0-1,0.8-1.7,1.7-1.7h4V16.1H11v15.7h6.5V16.1
	h2.1v15.7h6.5V16.1h2.1v15.7h6.5V16.1h2.1v15.7h4c1,0,1.7,0.8,1.7,1.7v4h1.8c0.6,0,1,0.5,1,1v0.7c0,0.2-0.1,0.3-0.3,0.3H0.7z
	 M5.3,37.5h35.1v-3.7H5.3V37.5z M3.9,13.9c-0.4,0-0.7-0.3-0.7-0.7v-1.5H1.1c-0.4,0-0.7-0.3-0.7-0.7v-0.8c0-0.3,0.2-0.5,0.4-0.6
	l20.8-9.1c0.4-0.1,0.8-0.2,1.2-0.2s0.8,0.1,1.2,0.2l20.8,9.1c0.3,0.1,0.5,0.4,0.5,0.6v0.8c0,0.4-0.3,0.7-0.7,0.7h-2.2v1.5
	c0,0.4-0.3,0.7-0.7,0.7H3.9z M22.9,2.5c-0.2,0-0.3,0-0.5,0.1L5.3,10v1.9h35.1V10l-17-7.4C23.2,2.5,23,2.5,22.9,2.5z"/>
</svg>
