<?xml version="1.0" encoding="utf-8"?>
<!-- Generator: Adobe Illustrator 21.1.0, SVG Export Plug-In . SVG Version: 6.00 Build 0)  -->
<svg version="1.1" id="Layer_1" xmlns="http://www.w3.org/2000/svg" xmlns:xlink="http://www.w3.org/1999/xlink" x="0px" y="0px"
	 width="40px" height="40px" viewBox="0 0 40 40" style="enable-background:new 0 0 40 40;" xml:space="preserve">
<style type="text/css">
	.st0{fill:#32BDB9;}
</style>
<path class="st0" d="M3.2,40.1c-1.7,0-3.2-1.4-3.2-3.2v-8.3c0-1.7,1.4-3.2,3.2-3.2h10.2V17H8.9c-1.2,0-2.2-0.7-2.6-1.7
	c-0.4-1.1-0.2-2.3,0.6-3.1L18.1,1c0.5-0.5,1.2-0.8,2-0.8c0.8,0,1.5,0.3,2,0.8l11.2,11.2c0.8,0.8,1.1,2,0.6,3.1
	c-0.4,1.1-1.5,1.8-2.6,1.8h-4.5v8.6h10.2c1.7,0,3.2,1.4,3.2,3.2V37c0,1.7-1.4,3.2-3.2,3.2H3.2z M3.2,27.4c-0.7,0-1.3,0.6-1.3,1.3V37
	c0,0.7,0.6,1.3,1.3,1.3h33.7c0.7,0,1.3-0.6,1.3-1.3v-8.3c0-0.7-0.6-1.3-1.3-1.3H26.7v2.2c0,1.6-1.3,2.8-2.8,2.8h-7.6
	c-1.6,0-2.8-1.3-2.8-2.8v-2.2H3.2z M15.3,29.7c0,0.5,0.4,1,1,1h7.6c0.5,0,1-0.4,1-1V15.1h6.4c0.4,0,0.7-0.2,0.9-0.6
	c0.2-0.4,0.1-0.8-0.2-1.1L20.8,2.3C20.6,2.1,20.3,2,20.1,2c-0.3,0-0.5,0.1-0.7,0.3L8.2,13.5c-0.3,0.3-0.4,0.7-0.2,1.1
	c0.2,0.4,0.5,0.6,0.9,0.6h6.4V29.7z M34.1,35.4c-0.7,0-1.3-0.6-1.3-1.3s0.6-1.3,1.3-1.3s1.3,0.6,1.3,1.3S34.8,35.4,34.1,35.4z
	 M29,35.4c-0.7,0-1.3-0.6-1.3-1.3s0.6-1.3,1.3-1.3c0.7,0,1.3,0.6,1.3,1.3S29.7,35.4,29,35.4z"/>
</svg>
