<?xml version="1.0" encoding="utf-8"?>
<!-- Generator: Adobe Illustrator 21.1.0, SVG Export Plug-In . SVG Version: 6.00 Build 0)  -->
<svg version="1.1" id="Layer_1" xmlns="http://www.w3.org/2000/svg" xmlns:xlink="http://www.w3.org/1999/xlink" x="0px" y="0px"
	 width="788px" height="570px" viewBox="0 0 788 570" style="enable-background:new 0 0 788 570;" xml:space="preserve">
<style type="text/css">
	.st0{display:none;}
	.st1{display:inline;fill:none;stroke:#000000;stroke-miterlimit:10;}
	.st2{opacity:0.6;}
	.st3{opacity:0.5;fill:#EFF7FE;enable-background:new    ;}
	.st4{opacity:0.15;fill:#DFE6EA;enable-background:new    ;}
	.st5{opacity:0.45;fill:#E1F5FB;enable-background:new    ;}
	.st6{opacity:0.3;fill:#D1F0EF;enable-background:new    ;}
	.st7{opacity:0.5;fill:#D1F0EF;enable-background:new    ;}
	.st8{opacity:0.5;fill:#DCE8EF;enable-background:new    ;}
	.st9{opacity:0.2;fill:#FCC8CE;enable-background:new    ;}
	.st10{opacity:0.6;fill:#D5F1F1;enable-background:new    ;}
	.st11{opacity:0.6;fill:#BBE9F9;enable-background:new    ;}
	.st12{fill:#F1FAFA;}
	.st13{opacity:0.2;fill:#FCB9C6;enable-background:new    ;}
	.st14{fill:#FCFDFF;}
	.st15{opacity:0.1;fill:#1DD4FF;enable-background:new    ;}
	.st16{opacity:0.2;fill:#A2EAE0;enable-background:new    ;}
	.st17{fill:none;stroke:#A3BBC1;stroke-width:1.5;stroke-miterlimit:10;stroke-dasharray:4;}
	.st18{fill:none;stroke:#24AAA3;stroke-width:3;stroke-linecap:round;stroke-miterlimit:10;}
	.st19{display:none;fill:none;stroke:#24AAA3;stroke-width:3;stroke-linecap:round;stroke-miterlimit:10;}
	.st20{fill:none;stroke:#3690D7;stroke-width:3;stroke-linecap:round;stroke-miterlimit:10;}
	.st21{fill:#E6F7F6;stroke:#24AAA3;stroke-width:3;stroke-linecap:round;stroke-miterlimit:10;}
</style>
<g id="Layer_1_1_" class="st0">
	<path class="st1" d="M794.1,5.4H482.9c-4.3,0-8,3.7-8,8v224.7h-20.8v-151c0-4.3-3.7-8-8-8H134.3c-4.3,0-8,3.7-8,8v311.2
		c0,4.3,3.7,8,8,8h227.4v151.1c0,4.3,3.7,8,8,8h311.2c4.3,0,8-3.7,8-8V332.7h105.2c4.3,0,8-3.7,8-8V13.5
		C802.1,9.2,798.4,5.4,794.1,5.4z"/>
</g>
<g id="Layer_2">
	<g id="Layer_2_1_">
		<g class="st2">
			<ellipse class="st3" cx="252.5" cy="283.5" rx="228" ry="177.3"/>
			<ellipse class="st4" cx="467.8" cy="185" rx="162" ry="126"/>
			<ellipse class="st5" cx="552.6" cy="292.3" rx="222.6" ry="173.2"/>
			<path class="st6" d="M238.9,340.4c3.4-2.2,11.4,0.1,21.4,3.2c7.2,2.2,10.8,4.2,18.1,4.6c3.8,0.2,9.6,0.5,11.5-1.7
				c3.6-4.4-10.3-16.2-10-16.4c0.4-0.2,15.6,17.9,22.9,15.8c1.8-0.5,3.1-2.5,5.5-6.6c3.4-5.5,2.5-6.9,4.8-8.6
				c3.9-3,7.9-0.3,14.8-2.6c6.9-2.3,6-6,13.7-10.4c5-2.8,9.6-3.6,17-4.9c15.1-2.6,17.3,0.6,24.8-2.3c8.4-3.2,6.3-7.4,17-13.5
				c5.8-3.3,11-4.7,19.6-6.9c8.6-2.2,14.9-3,25.9-4.3c22.3-2.7,27.7-1.3,30.7-0.3c5.1,1.7,5,3.1,10,5.2c11.4,4.8,21,1.7,34,1.4
				c18.3-0.4,32.5,5,48.1,10.9c8.2,3.1,4.1,2.3,29.6,14.1c17,7.8,20.2,8.8,26.6,13.2c7.2,4.9,15,10.3,19.6,19.3
				c2.9,5.6,2.4,8.5,7.4,17.3c4,7,6.6,9.2,8.9,10.6c4.6,2.9,7.2,2.3,10,5.2c4.1,4.2,4,11.3,0.4,12.9c-2.4,1.1-5.9-0.3-7.4-0.9
				c-4.8-1.8-4.4-4.1-8.9-6.6c-0.8-0.5-6.8-3.6-13.3-2.3c-0.7,0.2-6.5,1.3-7,3.7c-1.2,5.7,29.7,8.2,35.1,22.1
				c2,5.2,0.4,11.5-3.3,15.8c-6.5,7.6-17.6,6.6-21.1,13.5c-2.5,5.1,1,10.5,1.8,11.8c7.2,11,30.4,16.8,45.9,11.5
				c9.4-3.2,18.5-11.3,28.1-19.8c4.3-3.8,7-6.6,11.8-7.2c7.8-0.9,17.4,4.5,19.6,10.6c3.6,10.1-13.3,22.2-25.5,27.9
				c-13.6,6.3-30.2,6.5-62.9,6.6c-26.9,0.1-40.5,0.1-49.9-5.2c-10.7-5.9-20.6-17.5-25.1-22.7c-7.6-8.9-10.4-14.4-18.1-15.8
				c-8.1-1.4-17,2.6-18.9,3.5c-5.6,2.6-5.1,4-10,6.6c-12.2,6.4-25.1,2.4-27,6.3c-1.2,2.5,2.9,6.1,7,9.8c5.4,4.8,8.5,5.1,8.9,7.5
				c0.6,4-7.4,9.9-15.5,10.1c-10.1,0.2-12.2-8.8-24.4-10.9c-2.5-0.4-7.2-0.9-25.9,5.2c-25.1,8.2-24.1,11.7-36.6,13.8
				c-13.9,2.4-26.4,0-38.8-2.3c-16.8-3.2-17-6-29.6-7.2c-17.4-1.6-19.3,3.7-35.1,2.3c-10.8-0.9-20.3-5-39.2-13.2
				c-15.6-6.8-16.8-8.5-23.7-11.2c-21.9-8.7-36.9-1.9-72.5-1.4c-26.1,0.3-64.8,0.8-77.7-15.8c-6.5-8.4-6.6-21.5,1.5-28.8
				c9.1-8.2,22.7-3.8,67.7-6.9c36.7-2.5,46.4-6.8,52.5-12.4c8.2-7.6,9.6-17.4,10-20.4C246.1,355.6,233.3,344.1,238.9,340.4z"/>
			<path class="st7" d="M270,413.3c3.4,2.2,11.4-0.2,21.4-3.2c7.2-2.2,10.8-4.2,18.1-4.6c3.8-0.2,9.6-0.6,11.5,1.7
				c3.6,4.4-10.3,16.2-10,16.4c0.4,0.2,15.5-17.9,22.9-15.9c1.8,0.5,3.1,2.5,5.6,6.6c3.4,5.5,2.5,6.9,4.8,8.6
				c3.9,3,7.9,0.3,14.8,2.6c6.9,2.3,6,6,13.7,10.3c5,2.8,9.6,3.6,17,4.9c15.1,2.6,17.3-0.6,24.8,2.3c8.4,3.2,6.3,7.4,17,13.5
				c5.8,3.3,11,4.7,19.6,6.9c8.6,2.2,14.9,3,25.9,4.3c22.3,2.6,27.7,1.3,30.7,0.2c5.1-1.7,5-3.1,10-5.2c11.4-4.8,21-1.8,34-1.5
				c18.3,0.4,32.5-5,48.1-11c8.1-3.1,4.1-2.3,29.6-14.1c17-7.9,20.2-8.9,26.6-13.3c7.2-4.9,15-10.3,19.6-19.3
				c2.8-5.6,2.4-8.5,7.4-17.3c4-7,6.6-9.2,8.9-10.7c4.6-2.9,7.2-2.3,10-5.2c4.1-4.2,4-11.3,0.3-12.9c-2.4-1.1-5.9,0.3-7.4,0.9
				c-4.8,1.8-4.4,4.1-8.9,6.6c-0.8,0.5-6.8,3.7-13.3,2.3c-0.7-0.2-6.5-1.3-7-3.7c-1.2-5.7,29.6-8.2,35.1-22.2
				c2-5.2,0.3-11.5-3.4-15.8c-6.6-7.6-17.6-6.6-21.1-13.5c-2.5-5.1,1-10.5,1.8-11.8c7.2-11,30.4-16.8,45.8-11.6
				c9.4,3.2,18.5,11.3,28.1,19.8c4.3,3.8,7,6.6,11.9,7.2c7.8,0.9,17.4-4.5,19.6-10.7c3.5-10.1-13.3-22.2-25.6-27.9
				c-13.6-6.3-30.2-6.4-62.9-6.5c-26.9-0.1-40.5,0-49.9,5.2c-10.6,5.9-20.6,17.5-25.1,22.8c-7.6,8.9-10.3,14.5-18.1,15.8
				c-8.1,1.4-17-2.6-18.9-3.4c-5.6-2.5-5.1-4-10-6.6c-12.2-6.4-25.1-2.3-27-6.3c-1.2-2.5,2.9-6.1,7-9.8c5.4-4.8,8.5-5.1,8.9-7.5
				c0.5-4-7.4-9.9-15.6-10c-10.1-0.2-12.2,8.8-24.4,11c-2.5,0.4-7.2,1-25.9-5.1c-25.1-8.2-24.2-11.6-36.6-13.8
				c-13.9-2.4-26.4,0-38.8,2.4c-16.8,3.2-17,6-29.6,7.2c-17.4,1.6-19.3-3.6-35.1-2.3c-10.8,0.9-20.3,5.1-39.2,13.3
				c-15.6,6.8-16.8,8.5-23.6,11.2c-21.9,8.7-36.9,1.9-72.5,1.5c-26.1-0.3-64.8-0.8-77.6,15.9c-6.5,8.4-6.5,21.5,1.5,28.8
				c9.1,8.2,22.7,3.8,67.7,6.8c36.7,2.5,46.4,6.7,52.5,12.3c8.3,7.6,9.6,17.4,10,20.4C277.2,398.2,264.4,409.7,270,413.3z"/>
			<path class="st8" d="M96.8,121.3c-3-1-2.4-5.6-7.1-6.7c-3.6-0.9-6.7,1.2-8.1,0c-1.6-1.3,2.1-4.3,0.3-6.9
				c-1.2-1.7-4.2-2.2-5.5-2.4c-5-0.8-7.6,1.5-9.4,0.4c-2.3-1.3,1.3-5.1-1.3-8.9c-1.2-1.9-3.9-3.7-7.1-3.9c-3.6-0.2-6.7,1.9-8.1,3.9
				c-2.1,2.9,0.3,4.4-1.3,8.5c-1.3,3.3-3.3,3.5-4.7,6.7c-1.5,3.4-0.7,6.3-0.3,8.5c1.9,10.2-1.6,22.1-4.7,22.4
				c-1.9,0.2-4.3-3.9-5.5-5.9c-2.2-3.7-2.2-6.1-3.7-6.3s-3.2,2.4-3.9,3.9c-1.8,3.8-1.7,9.4,2.6,12.4c3.2,2.3,6.2,1.2,7.1,2.8
				c1.5,2.7-6.2,5.7-8.9,13.6c-0.9,2.6-1.2,5.5,0,5.9c1.7,0.6,5.2-4.7,8.4-4.1c1.9,0.4,1.4,2.5,3.9,4.1c3.3,2.1,6.7,0.1,10.2,1.6
				c3.2,1.4,2.5,4.1,5,9.6c1.4,3.1,3.8,6.1,8.6,12.2c6.5,8.1,7.3,7.4,9.1,11.2c2.7,5.4,1.5,7.7,5,10.4c3.6,2.8,6.8,1.8,8.9,4.5
				c2.2,2.9,0.7,6.9-1,9.4c-2.2,2.9-6.7,4.5-15.7,7.5c-10,3.4-13.4,3.5-14.9,3.5c-2.8,0-7.5,0-11-2.4c-2.6-1.8-2-3.3-5-8.9
				c-2.6-5.1-4-7.6-6.8-9.1c-4.1-2.2-10.4-2.1-14.9-0.2c-7,2.9-8.2,10.1-10.7,24.4c-1.3,7.3-0.6,8.6,0.5,9.4
				c2.4,1.7,6.6,0.6,26.9-2.4c4-0.6,6.5-1,9.1,0c5.6,2,7.3,7.9,7.8,9.8c0.9,3.3,0.1,4.2,0.5,10.2c0.3,4.6,0.5,7.1,1.3,9.4
				C55,286.2,62,286,72.5,295c4.7,4,9.2,7.9,11,14c1.9,6.6-0.2,12.9-1.3,15.6c-2.9,7-6.9,8.3-5.7,11.4c2,5.5,17.2,8.4,21.7,4.9
				c2.2-1.8,0.3-3.9,2.6-6.3c3.4-3.4,12.7-4.2,18-1.2c1.8,1,3.6,2.7,7.3,17.1c2.5,9.8,2.7,12.7,6.3,14.8c3.9,2.3,9,2.1,12.8,2
				c5.9-0.2,7.4-1.5,14.4-2.6c8.3-1.3,10,0,16.7-0.8s7.4-2.4,19.3-6.9c17.8-6.6,19.9-4.4,29-9.6c2.2-1.2,6.7-4,13.6-6.9
				c4.2-1.8,6.7-2.5,7.8-2.8c2.1-0.6,6.7-1.9,12.8-2.2c7.5-0.4,9.2,1,11.5-0.4c3.4-2.1,0.5-5.8,4.2-8.9c2.7-2.3,7.3-2.8,10.5-2.4
				c3.4,0.4,3.9,1.6,11.2,5.3c5.3,2.6,7.9,3.9,10.5,4.3c4.8,0.6,6.9-0.8,11,0.6c3,1.1,2.6,2.1,5.2,2.8c3.1,0.8,4.8-0.3,11-1
				c6.6-0.8,6.5,0.3,8.6-0.6c4.7-1.9,3.1-6.3,8.4-11c3.6-3.1,5.2-1.9,7.6-4.3c6.3-6.1-4.2-14.6,1-25.2c2.1-4.3,6-7.2,8.4-8.9
				c8-6,13.6-5.2,17-10.2c2.3-3.4,2.9-8.5,0.3-12.2c-3.4-4.8-10.1-4.6-11.5-9.1c-1.1-3.4,2-5.4,0.3-7.1c-2.5-2.4-11.1-0.1-12.3,0.2
				c-9.4,2.6-12.1,7.7-15.9,6.7c-3.6-0.9-4.2-6.3-4.2-6.5c-0.3-3.8,2.2-5.7,5.7-11.2c1.6-2.5,5.3-8.3,6.5-15.2
				c0.8-4.4,1.7-9.6-2.1-12.2c-3.9-2.6-8.6,0.3-13.1-2.2c-4-2.3-1.7-5.6-5.2-13.2c-3.3-7.1-8.8-11.9-11-13.8
				c-5.2-4.5-6.3-3.5-8.4-6.3c-2-2.7-2.7-5.9,0-20.1c2.2-11.3,3.4-13.3,1.3-15.2c-2-1.8-4.8-1.6-22.5-1c-15.1,0.5-20.1,0.5-24.3-2.2
				c-3.8-2.5-5-6-5.2-6.5c-2.2-6.7,4.7-10.3,2.4-15.7c-1.6-3.7-6.9-7-11.2-6.5c-5.4,0.6-5.3,6.7-14.1,11.4c-4.9,2.6-11.2,4-12.5,2.6
				c-2.1-2.2,10.3-10,7.6-13.8c-2-2.9-11.4-1.6-12.3-1.4c-11.8,1.7-13.5,8.1-23,11.6c-14.9,5.5-33.7-1.5-41.3-4.3
				c-16.4-6.1-16.7-12.1-25.3-12C116.5,99.8,104,123.8,96.8,121.3z"/>
			<path class="st9" d="M635.3,82.5c3.6-1.2,3-6.8,8.7-8.2c4.4-1.1,8.2,1.4,9.9,0c2-1.6-2.5-5.3-0.3-8.5c1.5-2.1,5.2-2.7,6.7-3
				c6.1-1,9.3,1.8,11.5,0.5c2.8-1.7-1.6-6.2,1.6-11c1.5-2.3,4.7-4.6,8.7-4.7c4.4-0.2,8.2,2.3,9.9,4.7c2.5,3.5-0.4,5.4,1.6,10.5
				c1.6,4.1,4,4.3,5.8,8.2c1.9,4.2,0.8,7.7,0.3,10.5c-2.4,12.5,2,27.1,5.8,27.4c2.3,0.2,5.3-4.8,6.7-7.2c2.7-4.5,2.7-7.6,4.5-7.7
				c1.8-0.2,3.9,2.9,4.8,4.7c2.3,4.6,2,11.5-3.2,15.2c-3.9,2.8-7.6,1.5-8.7,3.5c-1.8,3.3,7.6,7,10.9,16.7c1.1,3.2,1.4,6.7,0,7.2
				c-2.1,0.7-6.4-5.8-10.3-5c-2.3,0.5-1.7,3-4.8,5c-4.1,2.6-8.3,0.1-12.5,2c-3.9,1.7-3.1,5-6.1,11.7c-1.7,3.8-4.7,7.5-10.6,15
				c-7.9,10-8.9,9.1-11.2,13.7c-3.3,6.6-1.8,9.4-6.1,12.7c-4.4,3.4-8.4,2.2-10.9,5.5c-2.7,3.5-0.9,8.5,1.3,11.5
				c2.6,3.6,8.2,5.5,19.2,9.2c12.2,4.1,16.4,4.2,18.3,4.2c3.5,0,9.3,0,13.5-3c3.2-2.2,2.5-4,6.1-11c3.2-6.3,4.9-9.4,8.3-11.2
				c5-2.6,12.8-2.6,18.3-0.2c8.6,3.6,10.1,12.4,13.2,29.9c1.5,9,0.7,10.6-0.6,11.5c-2.9,2-8.1,0.8-33-3c-4.9-0.7-7.9-1.2-11.2,0
				c-6.9,2.4-9,9.8-9.6,12c-1.2,4-0.2,5.1-0.6,12.5c-0.4,5.6-0.6,8.7-1.6,11.5c-3.2,8.4-11.8,8.1-24.7,19.2
				c-5.7,4.9-11.3,9.7-13.5,17.2c-2.4,8.1,0.2,15.9,1.6,19.2c3.6,8.6,8.5,10.2,7.1,14c-2.5,6.7-21.2,10.4-26.6,6
				c-2.7-2.2-0.3-4.8-3.2-7.7c-4.2-4.2-15.6-5.1-22.1-1.5c-2.2,1.2-4.4,3.3-9,21c-3.1,12-3.3,15.6-7.7,18.2
				c-4.7,2.8-11,2.6-15.7,2.5c-7.2-0.2-9.1-1.9-17.6-3.2c-10.2-1.6-12.2,0-20.5-1s-9-3-23.7-8.5c-21.8-8.1-24.4-5.4-35.6-11.7
				c-2.7-1.5-8.2-4.9-16.7-8.5c-5.1-2.2-8.2-3.1-9.6-3.5c-2.6-0.7-8.3-2.3-15.7-2.7c-9.2-0.5-11.3,1.2-14.1-0.5
				c-4.1-2.6-0.6-7.1-5.1-11c-3.3-2.8-9-3.4-12.8-3c-4.1,0.5-4.8,2-13.8,6.5c-6.5,3.2-9.7,4.8-12.8,5.2c-5.9,0.8-8.5-1-13.5,0.7
				c-3.7,1.3-3.1,2.6-6.4,3.5c-3.8,1-5.9-0.3-13.5-1.2c-8.1-1-8,0.3-10.6-0.7c-5.7-2.4-3.8-7.7-10.3-13.5c-4.4-3.9-6.3-2.3-9.3-5.2
				c-7.7-7.5,5.2-17.9-1.3-30.9c-2.6-5.3-7.4-8.8-10.3-11c-9.8-7.3-16.7-6.4-20.9-12.5c-2.9-4.2-3.5-10.4-0.3-15
				c4.2-5.9,12.4-5.6,14.1-11.2c1.3-4.1-2.5-6.7-0.3-8.7c3.1-3,13.6-0.2,15.1,0.2c11.6,3.2,14.9,9.4,19.6,8.2c4.4-1.1,5.1-7.7,5.1-8
				c0.4-4.7-2.7-7.1-7.1-13.7c-2-3.1-6.6-10.2-8-18.7c-0.9-5.4-2-11.8,2.6-15c4.7-3.3,10.6,0.4,16-2.7c4.9-2.8,2.1-6.9,6.4-16.2
				c4-8.7,10.8-14.7,13.5-17c6.4-5.5,7.7-4.4,10.3-7.7c2.5-3.3,3.4-7.3,0-24.7c-2.7-13.8-4.2-16.4-1.6-18.7
				c2.4-2.2,5.9-1.9,27.6-1.2c18.5,0.6,24.6,0.6,29.8-2.7c4.7-3.1,6.2-7.3,6.4-8c2.7-8.3-5.8-12.6-2.9-19.2c2-4.5,8.5-8.5,13.8-8
				c6.7,0.7,6.5,8.3,17.3,14c6,3.2,13.8,4.9,15.4,3.2c2.6-2.6-12.6-12.3-9.3-17c2.5-3.5,13.9-1.9,15.1-1.7
				c14.5,2.1,16.5,9.9,28.2,14.2c18.3,6.8,41.4-1.8,50.7-5.2c20.1-7.5,20.5-14.9,31.1-14.7C611.2,56.2,626.5,85.6,635.3,82.5z"/>
			<path class="st10" d="M151.2,200.1c-2.4,0.4-1,5.7-6.1,13.3c-2.7,4.1-4,3.8-5.7,6.8c-3.2,5.7-0.4,9.6,0.4,18
				c0.8,8.8-1,19.6-4.6,20.1c-3.1,0.4-7-8.6-8-8.3c-1.1,0.3,8.3,11.9,3.8,22.4c-3.2,7.5-11.9,11-10.2,13.3c1.6,2.1,9.1-1.3,16.7,2.1
				c2.5,1.1,4.1,2.7,7.2,5.9c4.7,4.8,6.2,7.8,9.5,12.4c2.2,3.1,1.8,2.1,11.4,13c6.3,7.1,9.4,10.8,12.1,14.5c6,8.1,8.9,12.1,8.3,15.9
				c-1.2,7.5-10.9,12.1-15.9,14.5c-4.9,2.3-10.3,4.9-16.3,3.8c-4.7-0.8-6.1-3.3-11-3.2c-5.2,0-7.3,2.8-9.5,1.8
				c-2.8-1.3,0.6-6-2.7-11.2c-0.2-0.3-3.4-5.4-9.5-6.2c-5.6-0.7-10.4,2.6-12.1,3.8c-8.3,5.8-7.3,13.1-11.4,31
				c-4,17.8-8.2,24.8-4.2,26.9c3.3,1.7,10.1-0.9,14-4.1c6.7-5.5,2.7-10.9,9.5-18c0.8-0.8,7.5-7.9,14.4-6.8c6,0.9,10.7,7.7,9.5,13
				c-1.5,6.7-11.5,6.7-15.2,15c-0.3,0.7-3.2,7.6,1.5,13c3.9,4.5,10.8,5.5,16.3,6.2c5.3,0.7,14,1.9,18.2-1.8c2.5-2.2,1-4.1,3.8-13.3
				c1.3-4.2,2.3-7.3,3.8-7.4c1.8-0.1,3.8,4.2,4.6,7.7c1.2,5.7-1.5,8,0.8,10c2.4,2.2,8.1,1.9,11.8,0.6c0.7-0.3,6.6-2.4,6.8-6.5
				c0.1-2.8-2.5-5.4-5.3-6.5c-4.5-1.8-8.4,0.5-10.2-1.2c-1.8-1.6,0-5.4,2.3-7.7c2.6-2.6,4.5-1.9,6.4-4.1c1.6-1.9,1.3-3.5,1.1-10.3
				c-0.1-4.6-0.1-6.9,0-7.7c0.9-4.9,5.3-7.5,13.3-13.3c9.4-6.9,2.9-3,20.1-15.9c10.2-7.7,15.3-11.5,17.5-12.4
				c9.1-3.9,14.9-2.5,34.9-3.2c19.8-0.7,29.7-1.1,38.7-3.8c18.7-5.7,16.4-13.7,32.6-18.3c23.6-6.7,49.3,4.3,51.6,5.3
				c18,7.9,17.4,16.6,33.4,19.8c14,2.8,17.9-3.2,32.2-0.6c21.5,3.9,32.1,20.9,34.5,19.5c2.2-1.3-7.6-14.6-10.2-18.3
				c-9-12.2-13.7-15.9-21.6-26.6c-7.7-10.2-11.5-15.4-13.3-21c-6.1-19.2,7.6-31.1-1.1-37.8c-4.3-3.3-11.3-3.2-22.8-2.9
				c-13.7,0.3-16.1,3.3-25.4,2.1c-8-1.1-19.4-5.1-20.5-10.9c-1-5.6,8.4-8.5,8.3-17.4c0-2.2,0-5.5-2.7-6.8c-1.9-0.9-5.4-0.9-27.7,8.9
				c-6.4,2.8-9.5,4.3-12.1,3.2c-3.3-1.3-2.3-5-7.6-10c-2.3-2.2-3.8-3.6-6.1-3.8c-5-0.6-6.9,4.9-14.8,8.3c-6.4,2.8-13,2.4-20.9,2.1
				c-12.4-0.6-12.1-3.3-19.7-3.2c-14.1,0.1-17.8,9.5-40.6,14.5c-6.2,1.3-10.1,1.5-13.3,0c-5.9-2.8-1.2-10.1-6.1-13.6
				c-7.4-5.3-24.1,5.7-33,0.3c-6.4-3.9-3.7-13.3-8.7-14.2c-3.2-0.5-4.7,3.2-8.7,3.2C159.9,213.7,155.3,199.4,151.2,200.1z"/>
			<ellipse class="st11" cx="167.1" cy="227.8" rx="12.9" ry="10"/>
			<ellipse class="st12" cx="398.3" cy="140.7" rx="12.9" ry="10"/>
			<ellipse class="st12" cx="692.2" cy="232.2" rx="12.9" ry="10"/>
			<ellipse class="st13" cx="607.7" cy="121.9" rx="12.9" ry="10"/>
			<ellipse class="st14" cx="117.2" cy="150.8" rx="12.9" ry="10"/>
			<ellipse class="st12" cx="200.4" cy="260.4" rx="7.2" ry="5.6"/>
			<ellipse class="st12" cx="237.5" cy="235" rx="7.2" ry="5.6"/>
			<ellipse class="st12" cx="266.1" cy="272.9" rx="6.8" ry="5"/>
			<ellipse class="st9" cx="359.1" cy="266" rx="13.7" ry="8.1"/>
			<ellipse class="st12" cx="413" cy="338.4" rx="4.8" ry="4.7"/>
			<ellipse class="st12" cx="206.1" cy="436.1" rx="4.8" ry="4.7"/>
			<ellipse class="st12" cx="520.2" cy="428" rx="4.8" ry="4.7"/>
			<ellipse class="st12" cx="729.6" cy="306.4" rx="4.8" ry="4.7"/>
			<ellipse class="st12" cx="728.7" cy="217.5" rx="4.8" ry="4.7"/>
			<ellipse class="st12" cx="444.5" cy="302.7" rx="6.4" ry="4.7"/>
			<ellipse class="st12" cx="444.5" cy="262" rx="4" ry="4.1"/>
			<ellipse class="st12" cx="511.7" cy="242.5" rx="6" ry="4.1"/>
			<ellipse class="st12" cx="545.9" cy="208.4" rx="4.8" ry="4.4"/>
			<ellipse class="st12" cx="368.7" cy="209.6" rx="4.8" ry="4.4"/>
			<ellipse class="st12" cx="444.9" cy="195.9" rx="4.4" ry="2.5"/>
			<ellipse class="st12" cx="493.6" cy="379.7" rx="4.8" ry="2.8"/>
			<ellipse class="st15" cx="576.5" cy="368.8" rx="10.7" ry="10"/>
			<ellipse class="st16" cx="270.1" cy="404.1" rx="11.7" ry="8.5"/>
			<ellipse class="st7" cx="113.4" cy="330.2" rx="10.5" ry="7.8"/>
			<ellipse class="st12" cx="52.2" cy="266.6" rx="11.3" ry="10.6"/>
		</g>
	</g>
	<path class="st17" d="M707.7,332.9h-91.6v-76.8c0-12.2-9.1-20-20-20l-195-0.7V26.2c0-11,9-20,20-20h286.7c11,0,20,9,20,20v286.7
		C727.7,323.9,718.7,332.9,707.7,332.9z"/>
	<g>
		<polyline class="st18" points="345.7,408.2 345.7,514.2 584.3,514.2 		"/>
		<g>
			<line class="st19" x1="345.7" y1="329.7" x2="351.3" y2="329.7"/>
			<line class="st19" x1="345.7" y1="345.2" x2="351.3" y2="345.2"/>
			<line class="st19" x1="345.7" y1="360.6" x2="351.3" y2="360.6"/>
			<line class="st19" x1="345.7" y1="376.1" x2="351.3" y2="376.1"/>
			<line class="st19" x1="345.7" y1="391.6" x2="351.3" y2="391.6"/>
			<line class="st18" x1="345.7" y1="407.1" x2="351.3" y2="407.1"/>
			<line class="st18" x1="345.7" y1="422.5" x2="351.3" y2="422.5"/>
			<line class="st18" x1="345.7" y1="438" x2="351.3" y2="438"/>
			<line class="st18" x1="345.7" y1="453.5" x2="351.3" y2="453.5"/>
			<line class="st18" x1="345.7" y1="469" x2="351.3" y2="469"/>
			<line class="st18" x1="345.7" y1="484.4" x2="351.3" y2="484.4"/>
			<line class="st18" x1="345.7" y1="499.9" x2="351.3" y2="499.9"/>
		</g>
		<polyline class="st18" points="371.3,477.8 427.4,431.8 452.9,449.8 495.8,398.8 526.1,438 556.3,370.8 		"/>
		<polyline class="st20" points="374.4,407.1 405.8,390.2 439.7,456.7 491.8,444 527.8,489.3 543.8,474.7 		"/>
	</g>
	<path class="st17" d="M595.7,562.2H309c-11,0-20-9-20-20l0.1-136.6l68.8-0.1c9.4-0.4,21-6.4,21.3-20.1l0.4-149.9l216.2-0.1
		c11,0,20,9,20,20v286.7C615.7,553.2,606.7,562.2,595.7,562.2z"/>
	<g>
		<circle class="st20" cx="564.9" cy="139.9" r="84"/>
		<path class="st18" d="M646.1,118.4c-9.5-36-42.3-62.5-81.2-62.5v84L646.1,118.4z"/>
		<path class="st21" d="M647.6,154.5c6.5-36.6-12.1-74.5-47.5-90.9l-35.3,76.2L647.6,154.5z"/>
	</g>
	<path class="st17" d="M359.3,405.3H72.7c-11,0-20-9-20-20V98.7c0-11,9-20,20-20h286.7c11,0,20,9,20,20v286.7
		C379.3,396.3,370.3,405.3,359.3,405.3z"/>
	<g>
		<polyline class="st18" points="97.3,129.3 97.3,329.3 340.8,329.3 		"/>
		<polyline class="st20" points="119,329.3 119,164.6 154.7,164.6 154.7,329.3 		"/>
		<polyline class="st18" points="162.8,329.3 162.8,218.1 198.5,218.1 198.5,329.3 		"/>
		<polyline class="st20" points="206.7,329.3 206.7,202.8 242.4,202.8 242.4,329.3 		"/>
		<polyline class="st18" points="250.5,329.3 250.5,300.2 286.3,300.2 286.3,329.3 		"/>
		<polyline class="st18" points="294.4,329.3 294.4,308.9 330.1,308.9 330.1,329.3 		"/>
		<g>
			<line class="st18" x1="97.3" y1="141.1" x2="103.1" y2="141.1"/>
			<line class="st18" x1="97.3" y1="156.9" x2="103.1" y2="156.9"/>
			<line class="st18" x1="97.3" y1="172.6" x2="103.1" y2="172.6"/>
			<line class="st18" x1="97.3" y1="188.4" x2="103.1" y2="188.4"/>
			<line class="st18" x1="97.3" y1="204.2" x2="103.1" y2="204.2"/>
			<line class="st18" x1="97.3" y1="220" x2="103.1" y2="220"/>
			<line class="st18" x1="97.3" y1="235.8" x2="103.1" y2="235.8"/>
			<line class="st18" x1="97.3" y1="251.6" x2="103.1" y2="251.6"/>
			<line class="st18" x1="97.3" y1="267.4" x2="103.1" y2="267.4"/>
			<line class="st18" x1="97.3" y1="283.2" x2="103.1" y2="283.2"/>
			<line class="st18" x1="97.3" y1="299" x2="103.1" y2="299"/>
			<line class="st18" x1="97.3" y1="314.8" x2="103.1" y2="314.8"/>
		</g>
	</g>
</g>
</svg>
