<?xml version="1.0" encoding="utf-8"?>
<!-- Generator: Adobe Illustrator 21.1.0, SVG Export Plug-In . SVG Version: 6.00 Build 0)  -->
<svg version="1.1" id="Layer_1" xmlns="http://www.w3.org/2000/svg" xmlns:xlink="http://www.w3.org/1999/xlink" x="0px" y="0px"
	 width="40px" height="40px" viewBox="0 0 40 40" style="enable-background:new 0 0 40 40;" xml:space="preserve">
<style type="text/css">
	.st0{fill:#32BDB9;}
</style>
<path class="st0" d="M4.1,39.7c-2.1,0-3.8-1.7-3.8-3.8v-2c0-4.8,3.6-9.9,10.3-9.9h0.8l-0.5-0.5c-2.7-2.6-4.2-6-4.2-9.8
	c0-7.4,6-13.5,13.5-13.5c7.4,0,13.5,6,13.5,13.5c0,3.7-1.5,7.2-4.2,9.8L28.7,24h0.8c6.7,0,10.3,5.1,10.3,9.9v2
	c0,2.1-1.7,3.8-3.8,3.8H4.1z M10.2,26c-4.4,0-8,3.6-8,8v2c0,1.1,0.9,1.9,1.9,1.9h31.7c1.1,0,1.9-0.9,1.9-1.9v-2c0-4.4-3.6-8-8-8
	h-4.2l-0.1,0c-1.8,0.8-3.7,1.2-5.6,1.2c-2,0-3.8-0.4-5.6-1.2l-0.1,0H10.2z M20,2.2c-6.4,0-11.5,5.2-11.5,11.5S13.6,25.3,20,25.3
	c6.4,0,11.5-5.2,11.5-11.5S26.4,2.2,20,2.2z"/>
</svg>
