<?xml version="1.0" encoding="utf-8"?>
<!-- Generator: Adobe Illustrator 21.1.0, SVG Export Plug-In . SVG Version: 6.00 Build 0)  -->
<svg version="1.1" id="Layer_1" xmlns="http://www.w3.org/2000/svg" xmlns:xlink="http://www.w3.org/1999/xlink" x="0px" y="0px"
	 width="66.7px" height="40px" viewBox="0 0 66.7 40" style="enable-background:new 0 0 66.7 40;" xml:space="preserve">
<style type="text/css">
	.st0{fill:#32BDB9;}
</style>
<path class="st0" d="M21.3,39.4c-1.8,0-3.3-1.2-3.8-2.9l-0.1-0.4H4.6c-2.2,0-4-1.8-4-4v-4.6c0-3.8,2.7-7,6.5-7.6l1-0.2l-0.6-0.8
	c-1.2-1.6-1.8-3.6-1.8-5.6c0-5.2,4.2-9.4,9.4-9.4c2.5,0,4.8,1,6.6,2.7l0.5,0.5l0.4-0.6c0.5-0.8,1.1-1.6,1.8-2.2
	c2.4-2.4,5.6-3.7,9-3.7c3.4,0,6.6,1.3,9,3.7C43,5,43.6,5.8,44.1,6.6l0.4,0.6l0.5-0.5c1.8-1.8,4.1-2.7,6.6-2.7c5.2,0,9.4,4.2,9.4,9.4
	c0,2-0.6,4-1.8,5.6l-0.6,0.8l1,0.2c3.7,0.6,6.5,3.8,6.5,7.6v4.6c0,2.2-1.8,4-4,4H49.4l-0.1,0.4c-0.5,1.7-2.1,2.9-3.8,2.9H21.3z
	 M25,24.4c-3.1,0-5.6,2.5-5.6,5.6v5.4c0,1,0.8,1.8,1.9,1.8h24.2c1,0,1.8-0.8,1.8-1.8V30c0-3.1-2.5-5.6-5.6-5.6h-2l-0.1,0.1
	c-1.9,1-4,1.6-6.2,1.6c-2.2,0-4.3-0.6-6.2-1.6L27,24.4H25z M45,23c2.7,1.3,4.4,4,4.4,7v3.9h12.7c1,0,1.8-0.8,1.8-1.8v-4.6
	c0-3.1-2.5-5.6-5.6-5.6h-2.8l-0.1,0c-1.2,0.5-2.5,0.8-3.8,0.8s-2.6-0.3-3.8-0.8l-0.1,0h-2.5L45,23z M8.3,21.9
	c-3.1,0-5.6,2.5-5.6,5.6v4.6c0,1,0.8,1.8,1.9,1.8h12.7V30c0-2.9,1.7-5.7,4.4-7l-0.3-1.1h-2.5l-0.1,0c-1.2,0.5-2.5,0.8-3.8,0.8
	s-2.6-0.3-3.8-0.8l-0.1,0H8.3z M33.3,2.7c-5.8,0-10.6,4.8-10.6,10.6s4.8,10.6,10.6,10.6s10.6-4.8,10.6-10.6S39.2,2.7,33.3,2.7z
	 M51.7,6.1c-2.4,0-4.7,1.2-6,3.2l-0.2,0.2l0.1,0.3c0.3,1.2,0.5,2.4,0.5,3.6s-0.2,2.4-0.5,3.6l-0.1,0.3l0.2,0.2c1.4,2,3.6,3.2,6,3.2
	c4,0,7.3-3.3,7.3-7.3S55.7,6.1,51.7,6.1z M15,6.1c-4,0-7.3,3.3-7.3,7.3s3.3,7.3,7.3,7.3c2.4,0,4.7-1.2,6-3.2l0.2-0.2l-0.1-0.3
	c-0.3-1.2-0.5-2.4-0.5-3.6s0.2-2.4,0.5-3.6l0.1-0.3L21,9.3C19.7,7.3,17.4,6.1,15,6.1z"/>
</svg>
