<?xml version="1.0" encoding="utf-8"?>
<!-- Generator: Adobe Illustrator 21.1.0, SVG Export Plug-In . SVG Version: 6.00 Build 0)  -->
<svg version="1.1" id="Layer_4" xmlns="http://www.w3.org/2000/svg" xmlns:xlink="http://www.w3.org/1999/xlink" x="0px" y="0px"
	 width="90px" height="72px" viewBox="0 0 90 72" enable-background="new 0 0 90 72" xml:space="preserve">
<path fill="#32BDB9" d="M28.5,56.7c-5.7,0-12.3-2.9-13-9.4c-0.3-2.5-0.5-5.3-0.7-8.2c-0.1-0.2-0.2-0.3-0.3-0.5
	c-0.1-0.4-0.1-0.8,0.2-1.2c-0.2-2.4-0.2-4-0.2-4c0-0.7,0.4-1.3,1.1-1.4c0.2-0.1,5.3-1.4,10.5-1.4c2.8,0,5.2,0.4,7.2,1.1
	c0.6,0.2,1,0.9,0.9,1.5C34.1,34,34,35.4,34,36.7l0,0c0.1,2.1,0.5,2.6,0.6,2.8l0,0c0.1,0,0.4-0.1,0.8-0.4c2.2-1.5,5.3-4.9,8.5-8.4
	c1.6-1.7,3.2-3.5,4.9-5.3c2.6-2.7,4.7-4.6,6.6-6c5.9-4.6,13.4-5,16.4-5c0.8,0,1.3,0,1.3,0c0.7,0.1,1.3,0.7,1.3,1.4v4.6
	c0,0.4-0.2,0.8-0.5,1.1c-0.3,0.2-0.6,0.4-0.9,0.4c-0.1,0-0.1,0-0.2,0c0,0-0.9-0.1-2.1-0.1c-3.3,0-9.4,0.7-12.5,5.6
	C50.8,39.1,40.4,53.6,34,55.8C32.3,56.4,30.4,56.7,28.5,56.7L28.5,56.7z M17.7,39.2c0.2,2.8,0.4,5.4,0.7,7.8
	c0.5,4.7,5.6,6.8,10.1,6.8c1.6,0,3.2-0.2,4.6-0.7c3.5-1.2,9.8-8.1,17.6-19.5l-3.2-2.5c-0.5,0.5-0.9,1-1.4,1.5
	c-3.3,3.7-6.5,7.1-9,8.8c-0.9,0.6-1.7,0.9-2.5,0.9s-1.6-0.3-2.1-1c-0.6-0.7-1-1.8-1.2-3.3c-1-0.1-2-0.1-3-0.1
	C23.9,38,19.9,38.7,17.7,39.2z M17.4,34.4c0,0.5,0.1,1.1,0.1,1.9c2.3-0.5,6.4-1.2,10.8-1.2c1,0,2,0,2.9,0.1c0-0.5,0-0.9,0.1-1.2
	c-1.5-0.4-3.2-0.6-5.2-0.6C22.6,33.4,19.1,34.1,17.4,34.4z M52.3,31.3c0.1-0.2,0.3-0.4,0.4-0.6l-2.6-2.3c-0.2,0.2-0.4,0.4-0.6,0.6
	L52.3,31.3z M54.3,28.3c0.6-0.9,1.1-1.7,1.7-2.6c3.8-6,10.9-6.9,14.8-6.9c0.3,0,0.6,0,0.9,0v-1.6c-2.8,0-9.3,0.5-14.4,4.5
	c-1.5,1.2-3.2,2.7-5.2,4.7L54.3,28.3z"/>
</svg>
