<?xml version="1.0" encoding="utf-8"?>
<!-- Generator: Adobe Illustrator 21.1.0, SVG Export Plug-In . SVG Version: 6.00 Build 0)  -->
<svg version="1.1" xmlns="http://www.w3.org/2000/svg" xmlns:xlink="http://www.w3.org/1999/xlink" x="0px" y="0px" width="976px"
	 height="563px" viewBox="0 0 976 563" style="enable-background:new 0 0 976 563;" xml:space="preserve">
<style type="text/css">
	.st0{opacity:0.6;}
	.st1{opacity:0.5;fill:#EFF7FE;enable-background:new    ;}
	.st2{opacity:0.15;fill:#DFE6EA;enable-background:new    ;}
	.st3{opacity:0.45;fill:#E1F5FB;enable-background:new    ;}
	.st4{opacity:0.3;fill:#D1F0EF;enable-background:new    ;}
	.st5{opacity:0.5;fill:#D1F0EF;enable-background:new    ;}
	.st6{opacity:0.5;fill:#DCE8EF;enable-background:new    ;}
	.st7{opacity:0.2;fill:#FCC8CE;enable-background:new    ;}
	.st8{opacity:0.6;fill:#D5F1F1;enable-background:new    ;}
	.st9{opacity:0.6;fill:#BBE9F9;enable-background:new    ;}
	.st10{fill:#F1FAFA;}
	.st11{opacity:0.2;fill:#FCB9C6;enable-background:new    ;}
	.st12{fill:#FCFDFF;}
	.st13{opacity:0.1;fill:#1DD4FF;enable-background:new    ;}
	.st14{opacity:0.2;fill:#A2EAE0;enable-background:new    ;}
	.st15{fill:none;stroke:#347EC0;stroke-width:1.5;stroke-miterlimit:10;}
	.st16{fill:#BBDEF4;stroke:#347EC0;stroke-width:1.5;stroke-miterlimit:10;}
	.st17{fill:none;stroke:#347EC0;stroke-width:1.5;stroke-linecap:round;stroke-miterlimit:10;}
	.st18{fill:#BBDEF4;stroke:#347EC0;stroke-width:0.75;stroke-miterlimit:10;}
	.st19{opacity:0.75;fill:none;stroke:#24AAA3;stroke-width:1.5;stroke-miterlimit:10;enable-background:new    ;}
	.st20{fill:#BBDEF4;}
	.st21{fill:none;stroke:#347EC0;stroke-width:1.5;stroke-linecap:round;stroke-linejoin:round;stroke-miterlimit:10;}
	.st22{fill:none;stroke:#32BDB9;stroke-width:2;stroke-linejoin:round;stroke-miterlimit:10;}
	.st23{display:none;fill:#F5A64F;}
	.st24{fill:none;stroke:#347EC0;stroke-width:2;stroke-linecap:round;stroke-miterlimit:10;}
	.st25{fill:none;}
</style>
<g id="Layer_1">
	<g id="Layer_1_1_">
		<g id="Layer_3">
			<g id="BG">
				<g id="Layer_2_1_">
					<g class="st0">
						<ellipse class="st1" cx="311.4" cy="299.2" rx="284.9" ry="221.6"/>
						<ellipse class="st2" cx="580.4" cy="176.1" rx="202.4" ry="157.4"/>
						<ellipse class="st3" cx="686.4" cy="310.3" rx="278.2" ry="216.4"/>
						<path class="st4" d="M294.5,370.4c4.3-2.8,14.2,0.2,26.8,4c9,2.7,13.5,5.2,22.6,5.7c4.8,0.3,12,0.7,14.3-2.2
							c4.5-5.6-12.9-20.2-12.5-20.5c0.5-0.3,19.5,22.3,28.6,19.8c2.3-0.6,3.8-3.2,6.9-8.3c4.2-6.9,3.1-8.6,6-10.8
							c4.9-3.7,9.9-0.4,18.5-3.2c8.6-2.9,7.5-7.6,17.1-12.9c6.2-3.5,12-4.5,21.3-6.1c18.8-3.3,21.6,0.7,31-2.9
							c10.5-4,7.9-9.3,21.3-16.9c7.3-4.2,13.8-5.8,24.5-8.6c10.8-2.8,18.6-3.7,32.3-5.4c27.9-3.3,34.7-1.6,38.4-0.4
							c6.4,2.2,6.2,3.8,12.5,6.5c14.2,6,26.3,2.2,42.5,1.8c22.9-0.5,40.6,6.3,60.1,13.7c10.2,3.9,5.1,2.9,37,17.6
							c21.2,9.8,25.3,11.1,33.3,16.5c9,6.2,18.7,12.9,24.5,24.1c3.6,7,3,10.7,9.2,21.6c5,8.7,8.2,11.5,11.1,13.3
							c5.8,3.7,9,2.9,12.5,6.5c5.1,5.3,5,14.1,0.5,16.2c-3,1.4-7.4-0.4-9.2-1.1c-5.9-2.3-5.5-5.2-11.1-8.3c-1-0.6-8.5-4.6-16.6-2.9
							c-0.9,0.2-8.2,1.7-8.8,4.7c-1.5,7.1,37.1,10.3,43.9,27.7c2.6,6.5,0.5,14.4-4.2,19.8c-8.2,9.5-22,8.2-26.3,16.9
							c-3.2,6.3,1.2,13.1,2.3,14.7c9,13.7,38,20.9,57.3,14.4c11.7-4,23.1-14.2,35.1-24.8c5.4-4.8,8.7-8.3,14.8-9
							c9.7-1.1,21.8,5.6,24.5,13.3c4.5,12.7-16.6,27.8-31.9,34.9c-17,7.9-37.7,8.1-78.6,8.3c-33.6,0.1-50.6,0.1-62.4-6.5
							c-13.3-7.4-25.8-21.9-31.4-28.4c-9.5-11.1-13-18.1-22.6-19.8c-10.1-1.8-21.2,3.2-23.6,4.3c-7,3.2-6.3,5-12.5,8.3
							c-15.3,8.1-31.4,3-33.7,7.9c-1.5,3.1,3.6,7.6,8.8,12.2c6.8,6,10.7,6.4,11.1,9.3c0.7,5-9.3,12.4-19.4,12.6
							c-12.6,0.2-15.3-10.9-30.5-13.7c-3.1-0.6-9-1.2-32.3,6.5c-31.4,10.3-30.1,14.6-45.7,17.3c-17.4,3-33,0-48.5-2.9
							c-21-4-21.3-7.5-37-9c-21.8-2-24.1,4.6-43.9,2.9c-13.5-1.2-25.3-6.3-49-16.5c-19.6-8.5-21-10.6-29.6-14
							c-27.4-10.9-46.1-2.4-90.6-1.8c-32.6,0.4-81,1-97-19.8c-8.1-10.5-8.2-26.8,1.8-35.9c11.4-10.3,28.3-4.8,84.6-8.6
							c45.9-3.2,58-8.5,65.6-15.5c10.3-9.5,12-21.7,12.5-25.5C303.5,389.3,287.5,374.9,294.5,370.4z"/>
						<path class="st5" d="M333.3,461.5c4.3,2.8,14.2-0.2,26.8-4c9-2.7,13.5-5.3,22.6-5.8c4.8-0.3,12-0.7,14.3,2.1
							c4.5,5.6-12.8,20.3-12.4,20.5c0.5,0.3,19.4-22.3,28.6-19.8c2.3,0.6,3.8,3.2,7,8.3c4.2,6.9,3.1,8.6,6,10.8
							c4.9,3.7,9.9,0.4,18.5,3.2c8.6,2.8,7.5,7.5,17.1,12.9c6.2,3.5,12,4.5,21.3,6.1c18.8,3.2,21.6-0.7,31,2.8
							c10.5,4,7.9,9.3,21.3,16.9c7.3,4.1,13.8,5.8,24.5,8.6c10.8,2.8,18.6,3.7,32.4,5.3c27.9,3.3,34.7,1.6,38.4,0.3
							c6.4-2.2,6.2-3.8,12.5-6.5c14.2-6,26.3-2.2,42.5-1.9c22.9,0.5,40.6-6.3,60-13.7c10.2-3.9,5.1-2.9,36.9-17.7
							c21.2-9.8,25.3-11.1,33.2-16.6c8.9-6.2,18.7-12.9,24.4-24.1c3.5-7,3-10.7,9.2-21.6c4.9-8.7,8.2-11.5,11.1-13.3
							c5.7-3.7,9-2.9,12.5-6.5c5.1-5.3,5-14.1,0.4-16.2c-3-1.4-7.4,0.4-9.2,1.1c-5.9,2.3-5.4,5.2-11.1,8.3c-1,0.6-8.5,4.6-16.6,2.9
							c-0.9-0.2-8.2-1.7-8.8-4.7c-1.5-7.1,37-10.3,43.8-27.7c2.5-6.5,0.4-14.4-4.2-19.8c-8.2-9.4-22-8.2-26.4-16.9
							c-3.2-6.3,1.2-13.1,2.3-14.7c8.9-13.7,37.9-21,57.3-14.5c11.7,4,23.2,14.1,35.2,24.8c5.4,4.8,8.8,8.3,14.8,9
							c9.7,1.1,21.8-5.6,24.5-13.3c4.4-12.7-16.7-27.8-32-34.8c-17-7.8-37.8-8.1-78.6-8.2c-33.6-0.1-50.6,0-62.4,6.6
							c-13.3,7.4-25.7,21.9-31.4,28.4c-9.5,11.1-12.9,18.1-22.6,19.8c-10.1,1.8-21.2-3.2-23.6-4.3c-7-3.2-6.4-5-12.5-8.3
							c-15.3-8-31.4-2.9-33.8-7.9c-1.5-3.1,3.6-7.6,8.8-12.2c6.8-6,10.7-6.4,11.1-9.4c0.7-5-9.3-12.4-19.4-12.6
							c-12.6-0.2-15.2,11-30.5,13.7c-3.1,0.6-9,1.2-32.4-6.4c-31.4-10.3-30.2-14.5-45.8-17.2c-17.4-3-33,0-48.5,2.9
							c-21,4-21.2,7.6-37,9c-21.7,2-24.1-4.5-43.9-2.8c-13.5,1.2-25.3,6.3-48.9,16.6c-19.5,8.5-20.9,10.6-29.5,14.1
							c-27.4,10.9-46.1,2.4-90.6,1.9c-32.6-0.4-81-0.9-97,19.9c-8.1,10.5-8.2,26.8,1.9,35.9c11.4,10.3,28.3,4.7,84.6,8.5
							c45.9,3.1,58,8.4,65.7,15.4c10.3,9.5,12,21.7,12.5,25.5C342.3,442.5,326.3,456.9,333.3,461.5z"/>
						<path class="st6" d="M116.9,96.5c-3.7-1.3-3-7-8.8-8.4c-4.5-1.1-8.4,1.5-10.1,0c-2-1.7,2.6-5.4,0.3-8.6
							c-1.5-2.2-5.3-2.8-6.9-3c-6.2-1-9.5,1.9-11.8,0.5c-2.8-1.7,1.6-6.3-1.6-11.2c-1.5-2.3-4.8-4.6-8.8-4.8
							c-4.5-0.2-8.3,2.3-10.1,4.8c-2.6,3.6,0.4,5.5-1.6,10.7c-1.6,4.1-4.1,4.3-5.9,8.4c-1.9,4.3-0.9,7.8-0.3,10.7
							c2.4,12.8-2,27.6-5.9,27.9c-2.4,0.2-5.4-4.9-6.9-7.4c-2.7-4.6-2.8-7.7-4.6-7.9c-1.9-0.2-4,3-4.9,4.8
							c-2.3,4.7-2.1,11.8,3.3,15.5c4,2.8,7.7,1.5,8.8,3.6c1.8,3.4-7.7,7.1-11.1,17c-1.1,3.3-1.4,6.9,0,7.4c2.2,0.8,6.5-5.9,10.5-5.1
							c2.4,0.5,1.7,3.1,4.9,5.1c4.2,2.6,8.4,0.1,12.7,2c3.9,1.8,3.2,5.1,6.2,11.9c1.7,3.9,4.7,7.7,10.8,15.2
							c8.1,10.2,9.1,9.2,11.4,14c3.3,6.7,1.9,9.6,6.2,13c4.5,3.4,8.5,2.3,11.1,5.6c2.8,3.6,0.9,8.7-1.3,11.7
							c-2.7,3.6-8.4,5.6-19.6,9.4c-12.4,4.2-16.7,4.3-18.6,4.3c-3.6,0-9.4,0-13.7-3c-3.2-2.3-2.5-4.1-6.2-11.2
							c-3.3-6.4-4.9-9.5-8.5-11.4c-5.1-2.7-13-2.6-18.6-0.3C8.5,221.4,7,230.3,3.9,248.2c-1.6,9.1-0.7,10.7,0.7,11.7
							c3,2.1,8.2,0.8,33.6-3c5-0.8,8.1-1.2,11.4,0c7,2.5,9.1,9.9,9.8,12.2c1.2,4.1,0.2,5.2,0.7,12.7c0.4,5.7,0.6,8.9,1.6,11.7
							c3.2,8.6,12,8.3,25.1,19.6c5.8,5,11.5,9.9,13.7,17.5c2.4,8.3-0.2,16.2-1.6,19.6c-3.6,8.8-8.6,10.4-7.2,14.2
							c2.5,6.8,21.5,10.6,27.1,6.1c2.8-2.2,0.3-4.9,3.3-7.9c4.2-4.2,15.9-5.2,22.5-1.5c2.3,1.3,4.5,3.4,9.1,21.3
							c3.2,12.2,3.3,15.9,7.8,18.5c4.8,2.9,11.2,2.7,16,2.5c7.4-0.2,9.3-1.9,18-3.3c10.4-1.7,12.5,0,20.9-1s9.2-3.1,24.2-8.6
							c22.2-8.3,24.8-5.5,36.2-11.9c2.7-1.5,8.3-5,17-8.6c5.2-2.2,8.4-3.1,9.8-3.6c2.7-0.8,8.4-2.3,16-2.8
							c9.4-0.5,11.5,1.2,14.4-0.5c4.2-2.6,0.6-7.3,5.2-11.2c3.4-2.9,9.1-3.5,13.1-3c4.2,0.5,4.8,2,14,6.6c6.6,3.3,9.9,4.9,13.1,5.3
							c6,0.8,8.7-1.1,13.7,0.8c3.7,1.3,3.2,2.7,6.5,3.6c3.9,1,6-0.3,13.7-1.3c8.3-1,8.2,0.3,10.8-0.8c5.8-2.4,3.8-7.9,10.5-13.7
							c4.5-3.9,6.4-2.4,9.5-5.3c7.9-7.7-5.3-18.3,1.3-31.5c2.7-5.4,7.5-9,10.5-11.2c9.9-7.4,17-6.5,21.2-12.7
							c2.9-4.3,3.6-10.6,0.3-15.2c-4.2-6-12.6-5.7-14.4-11.4c-1.3-4.2,2.5-6.8,0.3-8.9c-3.2-3.1-13.9-0.2-15.3,0.3
							c-11.8,3.3-15.2,9.6-19.9,8.4c-4.5-1.2-5.2-7.8-5.2-8.1c-0.4-4.8,2.8-7.2,7.2-14c2-3.1,6.7-10.4,8.2-19
							c0.9-5.5,2.1-12-2.6-15.2c-4.8-3.3-10.7,0.4-16.3-2.8c-5-2.9-2.1-7-6.5-16.5c-4.1-8.8-11-14.9-13.7-17.3
							c-6.5-5.6-7.9-4.4-10.5-7.9c-2.6-3.4-3.4-7.4,0-25.1c2.7-14.1,4.2-16.7,1.6-19c-2.5-2.2-6-2-28.1-1.3
							c-18.8,0.6-25.1,0.6-30.4-2.8c-4.8-3.1-6.3-7.4-6.5-8.1c-2.8-8.4,5.9-12.8,2.9-19.6c-2-4.6-8.7-8.7-14-8.1
							c-6.8,0.7-6.6,8.4-17.6,14.2c-6.1,3.2-14,5-15.7,3.3c-2.7-2.7,12.9-12.5,9.5-17.3c-2.6-3.6-14.2-1.9-15.3-1.8
							c-14.7,2.2-16.8,10.1-28.7,14.5c-18.6,6.9-42.1-1.8-51.6-5.3c-20.5-7.6-20.8-15.2-31.7-15C141.4,69.7,125.9,99.6,116.9,96.5z"
							/>
						<path class="st7" d="M789.8,48.1c4.5-1.6,3.7-8.6,10.8-10.3c5.5-1.3,10.3,1.8,12.4,0c2.4-2.1-3.2-6.6-0.4-10.6
							c1.9-2.7,6.5-3.4,8.4-3.7c7.6-1.2,11.6,2.3,14.4,0.6c3.5-2.1-1.9-7.8,2-13.7c1.9-2.8,5.9-5.7,10.8-5.9
							c5.5-0.2,10.2,2.9,12.4,5.9c3.1,4.4-0.5,6.7,2,13.1c2,5.1,5,5.3,7.2,10.3c2.3,5.2,1.1,9.6,0.4,13.1c-3,15.7,2.5,33.9,7.2,34.3
							c2.9,0.3,6.6-6,8.4-9c3.4-5.7,3.4-9.4,5.6-9.7c2.3-0.2,4.9,3.7,6,5.9c2.8,5.8,2.5,14.4-4,19c-4.9,3.5-9.5,1.8-10.8,4.4
							c-2.2,4.1,9.5,8.8,13.6,20.9c1.4,4,1.8,8.4,0,9c-2.6,0.9-8-7.2-12.8-6.2c-2.9,0.6-2.1,3.8-6,6.2c-5.1,3.2-10.3,0.1-15.6,2.5
							c-4.8,2.2-3.9,6.3-7.6,14.7c-2.1,4.8-5.8,9.4-13.2,18.7c-9.9,12.5-11.1,11.3-14,17.1c-4.1,8.3-2.3,11.8-7.6,15.9
							c-5.5,4.2-10.5,2.8-13.6,6.9c-3.4,4.4-1.1,10.6,1.6,14.3c3.3,4.5,10.3,6.9,24.1,11.5c15.3,5.2,20.5,5.3,22.8,5.3
							c4.4,0,11.6,0,16.8-3.7c3.9-2.8,3.1-5,7.6-13.7c4-7.8,6.1-11.7,10.4-14c6.2-3.3,16-3.2,22.8-0.3c10.8,4.5,12.7,15.5,16.4,37.4
							c1.9,11.2,0.9,13.2-0.8,14.3c-3.7,2.5-10.1,1-41.3-3.7c-6.1-0.9-9.9-1.5-14,0c-8.6,3.1-11.2,12.2-12,15
							c-1.5,5-0.2,6.4-0.8,15.6c-0.4,7-0.7,10.9-2,14.3c-4,10.5-14.8,10.2-30.9,24c-7.2,6.2-14.1,12.1-16.8,21.5
							c-2.9,10.1,0.3,19.8,2,24c4.5,10.8,10.6,12.7,8.8,17.5c-3.1,8.4-26.4,13-33.3,7.5c-3.4-2.7-0.4-6-4-9.7
							c-5.2-5.2-19.5-6.4-27.7-1.9c-2.8,1.5-5.5,4.1-11.2,26.2c-3.9,15-4.1,19.5-9.6,22.8c-5.9,3.5-13.8,3.3-19.6,3.1
							c-9-0.3-11.4-2.4-22-4.1c-12.8-2-15.3,0-25.7-1.2c-10.3-1.3-11.3-3.7-29.7-10.6c-27.3-10.2-30.5-6.7-44.5-14.7
							c-3.3-1.9-10.2-6.1-20.8-10.6c-6.4-2.7-10.3-3.9-12-4.4c-3.3-0.9-10.3-2.9-19.6-3.4c-11.5-0.7-14.2,1.5-17.6-0.6
							c-5.2-3.2-0.8-8.9-6.4-13.7c-4.2-3.5-11.2-4.3-16-3.7c-5.2,0.6-5.9,2.5-17.2,8.1c-8.1,4-12.1,6-16,6.5
							c-7.4,1-10.6-1.3-16.8,0.9c-4.6,1.6-3.9,3.3-8,4.4c-4.7,1.3-7.3-0.4-16.8-1.6c-10.2-1.2-10,0.4-13.2-0.9
							c-7.2-3-4.7-9.7-12.8-16.8c-5.5-4.8-7.9-2.9-11.6-6.5c-9.7-9.4,6.5-22.4-1.6-38.7c-3.3-6.6-9.2-11-12.8-13.7
							c-12.2-9.1-20.8-7.9-26.1-15.6c-3.6-5.3-4.4-13-0.4-18.7c5.2-7.4,15.5-7,17.6-14c1.6-5.2-3.1-8.3-0.4-10.9
							c3.9-3.7,17-0.2,18.8,0.3c14.5,4,18.6,11.8,24.5,10.3c5.5-1.4,6.4-9.6,6.4-10c0.5-5.9-3.4-8.8-8.8-17.1
							c-2.5-3.8-8.2-12.8-10-23.4c-1.2-6.7-2.5-14.8,3.2-18.7c5.9-4.1,13.2,0.5,20-3.4c6.1-3.5,2.6-8.6,8-20.3
							c5-10.9,13.5-18.3,16.8-21.2c8-6.9,9.6-5.4,12.8-9.7c3.1-4.2,4.2-9.1,0-30.9c-3.3-17.3-5.2-20.5-2-23.4
							c3-2.8,7.4-2.4,34.5-1.6c23.1,0.7,30.8,0.8,37.3-3.4c5.9-3.8,7.7-9.1,8-10c3.4-10.3-7.2-15.7-3.6-24
							c2.5-5.6,10.7-10.7,17.2-10c8.3,0.9,8.1,10.3,21.6,17.5c7.5,4,17.2,6.1,19.2,4.1c3.3-3.3-15.8-15.4-11.6-21.2
							c3.1-4.4,17.4-2.4,18.8-2.2c18.1,2.7,20.6,12.4,35.3,17.8c22.9,8.5,51.7-2.2,63.3-6.5c25.2-9.3,25.6-18.6,38.9-18.4
							C759.7,15.2,778.8,51.9,789.8,48.1z"/>
						<path class="st8" d="M184.9,195c-3.1,0.5-1.2,7.1-7.6,16.6c-3.4,5.1-5,4.7-7.1,8.5c-4,7.1-0.5,11.9,0.5,22.5
							c1,10.9-1.2,24.4-5.7,25.1c-3.9,0.5-8.8-10.7-10-10.3c-1.4,0.4,10.4,14.9,4.7,28c-4,9.3-14.9,13.8-12.8,16.6
							c2,2.6,11.4-1.6,20.9,2.6c3.2,1.4,5.1,3.4,9,7.4c5.8,6,7.7,9.8,11.9,15.5c2.8,3.9,2.3,2.6,14.2,16.2
							c7.8,8.9,11.8,13.5,15.2,18.1c7.4,10.1,11.2,15.2,10.4,19.9c-1.4,9.3-13.6,15.1-19.9,18.1c-6.2,2.9-12.9,6.1-20.4,4.8
							c-5.9-1-7.6-4.1-13.7-4.1c-6.5,0-9.2,3.4-11.9,2.2c-3.5-1.6,0.7-7.4-3.3-14c-0.2-0.4-4.3-6.7-11.9-7.7c-7-0.9-13,3.3-15.2,4.8
							c-10.4,7.3-9.2,16.3-14.2,38.7c-5,22.2-10.2,31-5.2,33.6c4.1,2.1,12.6-1.2,17.5-5.2c8.4-6.8,3.4-13.6,11.9-22.5
							c1-1.1,9.3-9.8,18-8.5c7.5,1.2,13.4,9.6,11.9,16.2c-1.9,8.4-14.4,8.4-19,18.8c-0.4,0.9-3.9,9.4,1.9,16.2
							c4.9,5.7,13.5,6.8,20.4,7.7c6.6,0.9,17.5,2.3,22.8-2.2c3.2-2.8,1.2-5.1,4.7-16.6c1.6-5.2,2.8-9.2,4.7-9.2
							c2.2-0.1,4.8,5.2,5.7,9.6c1.4,7.1-1.8,10,0.9,12.5c3,2.8,10.2,2.3,14.7,0.7c0.9-0.3,8.3-2.9,8.5-8.1c0.2-3.5-3.1-6.7-6.6-8.1
							c-5.7-2.3-10.5,0.7-12.8-1.5c-2.2-2,0-6.7,2.8-9.6c3.2-3.3,5.6-2.4,8.1-5.2c2.1-2.4,1.6-4.4,1.4-12.9c-0.1-5.8-0.2-8.6,0-9.6
							c1.1-6.1,6.6-9.3,16.6-16.6c11.8-8.6,3.6-3.8,25.1-19.9c12.7-9.6,19.1-14.3,21.8-15.5c11.3-4.8,18.6-3.1,43.6-4.1
							c24.8-0.9,37.1-1.4,48.4-4.8c23.4-7.1,20.5-17.1,40.8-22.9c29.5-8.4,61.5,5.3,64.5,6.6c22.4,9.9,21.8,20.7,41.7,24.7
							c17.5,3.5,22.4-4,40.3-0.7c26.8,4.9,40.1,26.1,43.1,24.3c2.8-1.6-9.5-18.3-12.8-22.9c-11.2-15.3-17.1-19.9-27-33.2
							c-9.6-12.8-14.4-19.2-16.6-26.2c-7.6-24,9.4-38.9-1.4-47.2c-5.4-4.1-14.1-4-28.4-3.7c-17.1,0.3-20.1,4.1-31.8,2.6
							c-10-1.3-24.3-6.4-25.6-13.6c-1.3-7,10.5-10.6,10.4-21.8c0-2.7-0.1-6.9-3.3-8.5c-2.3-1.1-6.7-1.2-34.6,11.1
							c-8,3.5-11.8,5.4-15.2,4.1c-4.1-1.6-2.9-6.3-9.5-12.5c-2.8-2.7-4.7-4.5-7.6-4.8c-6.2-0.7-8.6,6.1-18.5,10.3
							c-8.1,3.4-16.2,3.1-26.1,2.6c-15.5-0.7-15.2-4.1-24.7-4.1c-17.6,0.2-22.3,11.9-50.7,18.1c-7.7,1.7-12.6,1.9-16.6,0
							c-7.4-3.5-1.5-12.6-7.6-17c-9.2-6.6-30.2,7.1-41.2,0.4c-8-4.9-4.7-16.7-10.9-17.7c-4-0.7-5.8,4-10.9,4.1
							C195.7,212,189.9,194.1,184.9,195z"/>
						<ellipse class="st9" cx="204.8" cy="229.6" rx="16.1" ry="12.5"/>
						<ellipse class="st10" cx="493.6" cy="120.8" rx="16.1" ry="12.5"/>
						<ellipse class="st10" cx="860.9" cy="235.1" rx="16.1" ry="12.5"/>
						<ellipse class="st11" cx="755.3" cy="97.4" rx="16.1" ry="12.5"/>
						<ellipse class="st12" cx="142.4" cy="133.4" rx="16.1" ry="12.5"/>
						<ellipse class="st10" cx="246.4" cy="270.3" rx="9.1" ry="7"/>
						<ellipse class="st10" cx="292.6" cy="238.6" rx="9.1" ry="7"/>
						<ellipse class="st10" cx="328.4" cy="286" rx="8.6" ry="6.3"/>
						<ellipse class="st7" cx="444.6" cy="277.4" rx="17.1" ry="10.2"/>
						<ellipse class="st10" cx="512" cy="367.8" rx="6" ry="5.9"/>
						<ellipse class="st10" cx="253.4" cy="489.9" rx="6" ry="5.9"/>
						<ellipse class="st10" cx="645.9" cy="479.7" rx="6" ry="5.9"/>
						<ellipse class="st10" cx="907.6" cy="327.9" rx="6" ry="5.9"/>
						<ellipse class="st10" cx="906.6" cy="216.7" rx="6" ry="5.9"/>
						<ellipse class="st10" cx="551.3" cy="323.2" rx="8.1" ry="5.9"/>
						<ellipse class="st10" cx="551.3" cy="272.3" rx="5" ry="5.1"/>
						<ellipse class="st10" cx="635.3" cy="248" rx="7.5" ry="5.1"/>
						<ellipse class="st10" cx="678.1" cy="205.4" rx="6" ry="5.5"/>
						<ellipse class="st10" cx="456.7" cy="206.9" rx="6" ry="5.5"/>
						<ellipse class="st10" cx="551.8" cy="189.7" rx="5.5" ry="3.1"/>
						<ellipse class="st10" cx="612.7" cy="419.5" rx="6" ry="3.5"/>
						<ellipse class="st13" cx="716.3" cy="405.8" rx="13.4" ry="12.5"/>
						<ellipse class="st14" cx="333.4" cy="450" rx="14.6" ry="10.6"/>
						<ellipse class="st5" cx="137.7" cy="357.6" rx="13.1" ry="9.8"/>
						<ellipse class="st10" cx="61.2" cy="278.2" rx="14.1" ry="13.3"/>
					</g>
				</g>
			</g>
		</g>
	</g>
</g>
<g id="Chat_icons">
	<path class="st15" d="M704.2,103.9c0,13,7,26.6,18.7,32.3c2.6,1.3-2.4,12.4-1.6,12.8c0.9,0.5,9.8-8,14.4-7.3
		c24.6,4,43.9-17,43.9-37.8s-16.9-37.7-37.7-37.7S704.2,83.1,704.2,103.9z"/>
	<path class="st16" d="M844.7,82.7c0,13-7,26.6-18.7,32.3c-2.6,1.3,2.4,12.4,1.6,12.8c-0.9,0.5-9.8-8-14.4-7.3
		c-24.6,4-43.9-17-43.9-37.8S786.2,45,807,45S844.7,61.9,844.7,82.7z"/>
	<line class="st17" x1="716.8" y1="95.5" x2="767.1" y2="95.5"/>
	<line class="st17" x1="724.8" y1="111.6" x2="758.9" y2="111.6"/>
	<line class="st17" x1="781.3" y1="74" x2="831.6" y2="74"/>
	<line class="st17" x1="789.5" y1="90" x2="823.1" y2="90"/>
</g>
<g id="Window_icon">
	<path class="st15" d="M129.9,295.5H50.5c-2.8,0-5-2.3-5-5V198c0-2.8,2.3-5,5-5h126.8c2.8,0,5,2.3,5,5v92.5c0,2.8-2.3,5-5,5H167"/>
	<line class="st15" x1="53" y1="210.3" x2="173.8" y2="210.3"/>
	<polyline class="st15" points="130,289.4 53.1,289.4 53.1,219.3 173.8,219.3 173.8,289.4 169.1,289.4 	"/>
	<circle class="st18" cx="55.8" cy="202.1" r="3.3"/>
	<circle class="st18" cx="64.8" cy="202.1" r="3.3"/>
	<circle class="st18" cx="73.8" cy="202.1" r="3.3"/>
	<path class="st19" d="M161.2,305.6L161.2,305.6l5.4,10.1c0.4,0.8,0.1,1.8-0.7,2.3l-5.1,2.7c-0.3,0.1-0.5,0.2-0.8,0.2
		c-0.6,0-1.2-0.3-1.5-0.9l-7.8-14.5l-3.9-7.3l-9.4,5.1c-0.2,0.1-0.5,0.2-0.8,0.2s-0.6-0.1-0.8-0.2c-0.5-0.3-0.8-0.8-0.8-1.4
		l-1.4-33.7c0-0.6,0.3-1.2,0.8-1.5c0.3-0.2,0.5-0.3,0.8-0.3s0.7,0.1,1,0.3l28.2,19.3c0.5,0.3,0.7,0.9,0.7,1.5s-0.4,1.1-0.9,1.4
		l-9.3,5L161.2,305.6z"/>
	<path class="st16" d="M129.8,253.6l-27.6,15.7c-2.1,1.2-3.8,0.2-3.8-2.2v-31.3c0-2.4,1.7-3.4,3.8-2.2l27.6,15.7
		C131.9,250.5,131.9,252.4,129.8,253.6z"/>
</g>
<g id="Hat_icon">
	<polygon class="st20" points="897.3,397.8 910.1,397.7 910.4,384.6 907.9,378.4 903.5,375.4 899.6,378.5 897.6,383.3 897.1,394.4 	
		"/>
	<g id="Layer_5">
		<path class="st17" d="M840,349l-65.7-25.7c-1.8-2.1-1.6-5.2,0.4-7.1l64.9-25c3.8-1.5,7.6,0.2,7.6,0.2l64.7,25.2
			c1.8,0.8,4.5,3.9,0.4,6l-64.2,26C846.6,349.6,842.4,350,840,349z"/>
		<path class="st21" d="M798.7,334.9c0,11.3,0,22.5,0,33.8c5.3,0.3,13.1,1.3,21.8,5c11.7,5,19.3,12.3,23.3,16.8
			c3.5-4.1,10.3-11.1,21-16c9.5-4.4,18.1-5.3,23.3-5.5c-0.1-11.3-0.2-22.7-0.3-34"/>
		<path class="st21" d="M903.5,327.9c0,15.8,0,31.7,0,47.5c1,0.4,2.8,1.2,4.3,3c2.7,3.2,2.4,7.1,2.3,7.9c0,3.8,0,7.6,0,11.4
			c-4.2,0-8.4,0-12.6,0c-0.4-5.1-0.3-9.2,0-12.2c0.3-2.8,0.6-4.9,2.1-7c1-1.4,2.2-2.4,3-2.9"/>
	</g>
</g>
<g id="Usre_icon">
	<g id="Layer_3_1_">
		<path class="st22" d="M419.6,234.6c1.4-2.5-0.2-4.2-0.1-9.6c0-3.2,0.6-3.2,0.6-7.1c0.1-3.4-0.3-5.8-0.4-6.5
			c-0.7-6.3,5.6-15.5,10.5-20.5c10.1-10.4,23.5-11.9,32.3-13c12.1-1.5,25.2-3.1,37,5.3c13.4,9.5,16,25.4,16.6,29.3
			c1.6,9.8-0.3,17.9-1.6,22.4c1.6,1.8,6.7,7.9,7.1,17.3c0.3,7.3-2.3,12.7-3.6,15c-0.1,0.2-1.1,1.8-3,2c-1.2,0.2-2.2-0.3-2.5-0.5
			c-0.9,3.6-2.7,8.8-6,14.4c-2.5,4.3-8.4,13.9-20.3,19.9c-3,1.5-10.1,5-19.8,4.9c-21.2-0.3-34.2-17.7-36.6-21.3
			c-4.7-6.6-6.8-13.1-7.9-17.4c-1.1,0.1-3.4,0.2-5.3-1.3c-1.5-1.1-2.1-2.7-2.6-4.9c-1.3-4.9-2-7.6-1.9-11.9
			c0.2-4.9,0.3-9.9,3.8-13.3C417.7,236.1,418.7,236.3,419.6,234.6z"/>
		<path class="st22" d="M563.6,382L370,381.9c0.6-2.3,1.4-5.6,2.5-9.6c2-7.3,3-11,4.3-14.4c2.1-5.5,3.5-9.1,6.6-13.3
			c1-1.3,4.9-6.2,11.9-10c5.6-3,10.4-3.9,14.5-4.6c5.3-0.9,13.9-1.7,24.6,0.4c2.5,4.8,6,10.5,10.8,16.3c7.6,9.2,15.6,15.5,21.8,19.5
			c0.8-0.4,17.4-14.7,18-15.3c6.9-6.9,11.4-14.1,14.6-19.8c1.2-0.2,2.7-0.4,4.6-0.6c0,0,4.2-0.5,8-0.6c4.7-0.2,11.7-0.4,19,1.9
			c3.5,1.1,13.5,4.8,20,14.4c2,3,3.5,7,6.4,15.1c2.2,6.1,3.7,11.3,4.8,14.9c0.3,1.2,0.7,2.4,1,3.6C563.6,380.5,563.6,382,563.6,382z
			"/>
		<path class="st22" d="M500,292c-1.5,1.9-5.5,6.2-6.1,17.6c-0.6,10.3,1.6,15.3,5.3,21.6c-2.7,4.9-7.5,12.4-13.3,18.6
			c-1,1.1-13.2,13.3-18.8,16.4c-5.9-3.5-11.9-8.8-19.5-16.8c-6.9-7.2-10-13.5-13.2-19.1c6-12.8,5.1-17,4.6-21.9
			c-0.4-4.2-1.8-9.5-2.1-10.8c-1.1-5.8-3.9-7.3-5.6-9.6C467.8,329.6,500,292,500,292z"/>
		<path class="st22" d="M516,228.4c-0.2-2.9-3.7-9.4-8.5-13.1c-3.2-2.5-6.8-2.8-11.3-3c-15.1-0.8-20.7-0.1-25.8-0.5
			c-6.1-0.5-14.6-3-24.5-11.8c-0.4,1.1-1.3,3.6-0.8,6.8c0.7,4.3,3.4,6.8,4.3,7.5c-1.2-0.7-8.9-3.6-16-1.9c-7.5,1.9-9,5.1-10.1,7.4
			c-1.4,2.8-3.3,6.3-3.5,8"/>
	</g>
	<g id="Layer_2">
		<path class="st23" d="M369,380.5l-0.5-0.5v-0.8v-0.1c2.4-8.2,4.9-16.8,7.6-24.9c5.5-17.7,20.8-28.3,41.2-28.3
			c1.5,0,3.1,0.1,4.6,0.2l3,0.2c1.5,0.1,3,0.2,4.5,0.3c1.4,0.1,2.9,0.1,4.5,0.2h0.5l0.2-0.5c1.8-3.5,7-16.3,0.3-34.3l-0.1-0.1
			l-0.1-0.1c-5.9-6.6-10.4-14.5-13.5-23.4l-0.2-0.5h-0.8c-5,0-8.9-8-8.9-18.1c0-8.7,2.7-15.8,6.8-17.7l0.5-0.2v-1
			c-0.4-3.2-0.1-6.4,0.2-9.5c0.3-2.9,0.5-5.8,0.3-8.7c-0.8-11.4,13.4-30.8,20.6-33.1c0.5-0.1,1.1-0.3,1.6-0.5s1.1-0.4,1.6-0.5
			c10.8-3.5,17.1-4.2,24.2-4.2c7.3,0,18.3,0.7,29.2,4.2c0.7,0.2,1.3,0.4,1.9,0.6c0.4,0.2,0.8,0.3,1.3,0.4
			c0.8,0.5,15.6,10.2,18.2,33.1c-0.5,6.2-1.3,12.2-2,18.1l0,0v1l0.4,0.2c4.1,2.1,6.8,9,6.8,17.7c0,10.2-3.9,18.1-8.9,18.1h-0.8
			l-0.2,0.5c-2.5,7.1-5.7,13.3-9.6,18.5l-3.2,4l-1.6,1.6l-0.1,0.2c-7.2,19-1.2,31.7,0,34l0.2,0.4h0.5c3,0,5.6-0.2,8.3-0.4l0.7-0.1
			l3.2-0.2c1.5-0.1,3.1-0.2,4.6-0.2c20.3,0,35.7,10.6,41.2,28.3c1,3.4,2.1,6.8,3.1,10.2c1.5,4.9,3.1,9.9,4.5,14.9v0.8l-0.3,0.3H369
			V380.5z M417.9,327.1c-19.5,0-34.3,10-39.5,26.9c-2.5,7.6-4.8,15.4-7,22.9l-0.3,1h192l-0.3-1c-1.3-4.4-2.6-8.7-4-13
			c-1-3.2-2-6.5-3-9.7c-5.1-16.6-20.1-26.9-39.1-26.9c-1.5,0-3.1,0.1-4.6,0.2l-3.2,0.2c-1.3,0.1-2.5,0.2-3.7,0.3
			c-1.2,0.1-2.5,0.1-3.8,0.3H501l-0.2,0.3c-5.3,8.9-11.6,17.1-18.8,24.3c-6.9,6.7-12.1,10.1-13.8,11.3c-0.1,0.1-0.2,0.2-0.3,0.2
			h-0.3l-0.2,0.2c0,0-0.1,0-0.2,0c-0.2,0-0.4,0-0.4,0l-0.1-0.1h-0.1l-0.2-0.1c-4.3-2.7-19.3-13.1-32.9-36l-0.2-0.3h-0.4
			c-1.4-0.1-2.7-0.2-3.9-0.3c-1.2-0.1-2.5-0.1-3.8-0.2l-3-0.2C420.6,327.1,419.2,327.1,417.9,327.1z M435.4,327.9l0.3,0.5
			c4.4,7.3,9.5,14,15.1,19.8l3.3,3.3c6.8,6.6,11.4,9.6,12.6,10.3l0.5,0.3l0.8-0.6c2-1.4,6.5-4.6,12.2-10.3l3-3
			c6.2-6.8,10.8-12.9,14.6-19.3l0.3-0.5l-0.4-0.4c-0.1-0.1-0.2-0.2-0.3-0.3v-0.1l-0.1-0.2c-1.2-2.1-7-13.4-2.7-30.3l0.6-2.3
			l-1.9,1.5c-7.6,6.2-17,9.5-26.4,9.5s-18.3-3.3-26.7-9.8l-1.8-1.4l0.6,2.3c4.5,17.8-2.3,29.5-2.8,30.4L435.4,327.9z M423.3,265.7
			c2.7,9,7.1,16.8,13.1,23.3l0.1,0.1l0.1,0.1c0.3,0.2,0.5,0.3,0.6,0.6l0.1,0.1l0.1,0.1c8.5,8.8,18.9,13.4,30,13.4
			c10.8,0,20.9-4.4,29.2-12.7l3.5-3.5c5.2-6.5,9-13.8,11.4-21.7c0.2-0.4,0.4-0.7,0.6-0.8c0.1-0.1,0.3-0.1,0.4-0.1s0.3,0,0.4,0.1
			c0.6,0.3,1,0.3,1.4,0.3c3.3,0,6.8-6.4,6.8-16c0-8.4-2.9-14.6-5.7-15.7l-0.2-0.1l-0.3,0.1c-0.1,0-0.1,0-0.2,0
			c-0.4,0-0.8-0.3-0.8-0.7v-0.1v-0.1c-0.1-0.8-3-20.7-10.7-21.6c-5.7-0.6-17.6-0.8-26.7-0.8c-3.5,0-6,0-6.6,0h-0.3
			c-0.1,0-0.3,0-0.5,0c-2.5,0-11.3-0.7-21-9.3l-0.9-0.8l-0.4,1.1c-0.8,2.1-1.4,6.1,3,9.4c0.2,0.2,0.4,0.4,0.4,0.6
			c0,0.1,0,0.4-0.1,0.6c-0.3,0.4-0.8,0.7-1.2,0.7c-0.1,0-0.1,0-0.2,0c-4.5-1.2-9.3-1.8-13.1-1.8c-3.8,0-6.3,0.7-7.5,2.1
			c-3.1,3.6-5.9,12.7-7.6,19.8v0.1v0.1c0,0.5-0.6,0.7-0.9,0.7h-0.1h-0.1c-3.3,1.2-5.8,7.8-5.8,15.7c0,9.6,3.5,16,6.8,16
			c0.3,0,0.8,0,1.3-0.5h0.1h0.1c0.1,0.1,0.3,0.1,0.5,0.2C422.5,265,422.9,265.3,423.3,265.7z M467,175.7
			c-10.6,0.3-15.3,1.5-23.7,4.3c-0.5,0.1-1.1,0.3-1.6,0.5s-1.1,0.4-1.6,0.5c-6.4,1.9-19.8,20.4-19,30.7c0.1,1.4,0,3.1-0.4,4.7
			c-0.5,1.9-0.9,3.5-0.7,5.6l1.1,0.2c1.5-4.3,3.2-8.6,5.3-10.9c1.6-2,4.8-3,9.5-3c2.4,0,5,0.3,7.9,0.8l1.6,0.3l-0.7-1.4
			c-2-4-0.6-8.1,1.2-10.4v-0.1v-0.1c0.1-0.3,0.4-0.3,0.5-0.3c0.5,0,0.7,0,0.9,0.3c9.7,9.5,18.8,10.2,21.3,10.2c0.3,0,0.5,0,0.5,0
			h0.7c1.2,0,3.6,0,6.6,0c8.9,0,20.7,0.1,26.5,0.8c4.1,0.6,7.5,4.7,10,12.4l1.6-0.2c0.1-1.5,0.3-2.9,0.4-4.4
			c0.1-1.4,0.3-2.9,0.4-4.4v-0.1v-0.1c-1.2-8.7-4.9-20.9-15.8-29.9c-0.2-0.2-0.4-0.3-0.4-0.4c0,0-1.2-0.5-1.6-0.7
			c-0.6-0.2-1.3-0.5-2.1-0.6C487.4,177.3,477.3,175.7,467,175.7L467,175.7L467,175.7z"/>
		<path class="st24" d="M637.8,381.9H297.7c-15.6,0-28.4-12.8-28.4-28.4V172.3c0-15.6,12.8-28.4,28.4-28.4h340.1
			c15.6,0,28.4,12.8,28.4,28.4v181.2C666.2,369.1,653.4,381.9,637.8,381.9z"/>
		<path class="st24" d="M642.3,382.5H293.1c-11.6,0-23.9,5.6-27.5,12.6l-33.4,65.1c-5.1,9.9,2.4,18.4,16.9,18.4h437.3
			c14.5,0,22-8.5,16.9-18.4l-33.4-65.1C666.2,388.1,653.9,382.5,642.3,382.5z"/>
		<line class="st25" x1="741.7" y1="44.8" x2="741.7" y2="44.8"/>
	</g>
	<g id="Layer_4">
		<line class="st17" x1="304" y1="415.8" x2="348.6" y2="415.8"/>
		<line class="st17" x1="324" y1="448.8" x2="368.6" y2="448.8"/>
		<line class="st17" x1="555" y1="448.8" x2="599.6" y2="448.8"/>
		<line class="st17" x1="397.8" y1="415.4" x2="443.6" y2="415.4"/>
		<line class="st17" x1="492" y1="415.9" x2="537.4" y2="415.9"/>
		<line class="st17" x1="586.4" y1="415.5" x2="632" y2="415.5"/>
		<line class="st17" x1="411.5" y1="449.4" x2="524.6" y2="449.4"/>
	</g>
</g>
</svg>
