<?xml version="1.0" encoding="utf-8"?>
<!-- Generator: Adobe Illustrator 16.0.0, SVG Export Plug-In . SVG Version: 6.00 Build 0)  -->
<!DOCTYPE svg PUBLIC "-//W3C//DTD SVG 1.1//EN" "http://www.w3.org/Graphics/SVG/1.1/DTD/svg11.dtd">
<svg version="1.1" xmlns="http://www.w3.org/2000/svg" xmlns:xlink="http://www.w3.org/1999/xlink" x="0px" y="0px" width="77px"
	 height="35px" viewBox="0 0 77 35" enable-background="new 0 0 77 35" xml:space="preserve">
<g id="Layer_2">
</g>
<g id="Layer_1">
	<g>
		<path fill-rule="evenodd" clip-rule="evenodd" fill="#FFFFFF" d="M66.739,21.689c-0.721,0.995-1.63,1.781-2.726,2.358
			c-1.098,0.577-2.294,0.966-3.593,1.168c-1.298,0.202-2.524,0.304-3.678,0.304h-0.779c-0.23,0-0.461-0.015-0.692-0.044v0.26
			c0,0.663,0.108,1.24,0.325,1.73c0.216,0.491,0.49,0.895,0.822,1.211c0.331,0.319,0.706,0.557,1.125,0.715
			c0.418,0.159,0.829,0.237,1.233,0.237c1.182,0,2.192-0.273,3.028-0.821c0.837-0.548,1.543-1.197,2.121-1.947
			c1.472,0.75,2.206,1.659,2.206,2.727c0,0.605-0.173,1.125-0.52,1.558c-0.346,0.433-0.72,0.794-1.124,1.081
			c-0.635,0.433-1.449,0.838-2.445,1.212C61.049,33.813,59.729,34,58.085,34c-1.588,0-2.914-0.237-3.981-0.714
			c-1.067-0.476-1.933-1.11-2.596-1.904c-0.665-0.793-1.141-1.709-1.429-2.747c-0.288-1.039-0.433-2.121-0.433-3.246
			c0-1.76,0.274-3.439,0.822-5.041c0.548-1.601,1.326-2.992,2.337-4.176c1.009-1.183,2.25-2.127,3.722-2.834
			c1.471-0.707,3.144-1.061,5.019-1.061c1.011,0,1.904,0.145,2.684,0.433c0.778,0.289,1.435,0.678,1.97,1.168
			c0.532,0.491,0.937,1.068,1.211,1.731c0.273,0.664,0.411,1.385,0.411,2.164C67.821,19.389,67.46,20.693,66.739,21.689
			 M62.152,17.188c-0.289-0.36-0.794-0.541-1.514-0.541c-1.242,0-2.288,0.491-3.138,1.472c-0.852,0.981-1.465,2.279-1.84,3.895
			c0.26,0.029,0.482,0.043,0.671,0.043h0.628c0.663,0,1.327-0.072,1.99-0.216s1.269-0.368,1.817-0.671
			c0.548-0.303,0.988-0.678,1.32-1.125c0.331-0.447,0.497-0.974,0.497-1.58C62.585,17.975,62.44,17.55,62.152,17.188 M48.867,30.43
			c0.684,1.244,1.327,2.481,2.077,2.973c-0.961,0.003-3.551,0-3.78,0c-1.349,0-2.682,0.015-3.857-1.493
			c-0.674-1.019-4.305-8.115-4.571-8.699l-1.593,9.547c-0.052,0.356-0.291,0.648-0.649,0.648h-4.593
			c-0.358,0-0.649-0.291-0.649-0.648l5.011-29.925c0.346-0.057,1.931-0.161,2.22-0.161c1.153,0,1.976,0.281,2.466,0.843
			c0.491,0.563,0.664,1.144,0.664,1.98c0,0.173-0.074,0.974-0.104,1.147l-2.427,14.506c0.184-0.355,6.064-7.183,6.064-7.183
			c0.519-0.577,1.03-0.98,1.535-1.212c0.506-0.23,1.104-0.37,1.797-0.346c0.75,0,1.377,0.145,1.882,0.433
			c0.504,0.289,0.974,0.664,1.407,1.125l-7.4,8.179C44.367,22.144,48.035,29.078,48.867,30.43 M29.742,9.291
			c-0.924,0-1.63-0.288-2.12-0.865c-0.492-0.577-0.736-1.255-0.736-2.034c0-1.211,0.346-2.135,1.039-2.77
			c0.692-0.634,1.514-0.952,2.466-0.952c0.923,0,1.629,0.289,2.12,0.865c0.49,0.577,0.735,1.298,0.735,2.164
			c0,1.125-0.346,2.005-1.038,2.64C31.516,8.974,30.694,9.291,29.742,9.291 M28.357,12.71c1.182,0,2.026,0.281,2.531,0.844
			c0.505,0.563,0.818,1.205,0.758,2.099c-0.012,0.173-0.124,0.865-0.152,1.039l-2.701,16.065c-0.059,0.347-0.291,0.648-0.649,0.648
			h-4.544c-0.358,0-0.649-0.291-0.649-0.648l3.323-19.866C26.619,12.833,28.068,12.71,28.357,12.71 M22.268,21.152l-1.941,11.604
			c-0.053,0.35-0.291,0.649-0.649,0.649l-4.53-0.001c-0.358,0-0.664-0.299-0.664-0.656l2.066-12.345
			c0.006-0.053,0.014-0.107,0.02-0.159c0.028-0.288,0.103-0.583,0.103-0.872c0-0.662-0.152-1.225-0.455-1.687
			c-0.303-0.462-0.916-0.692-1.839-0.692c-0.923,0-1.731,0.389-2.423,1.168c-0.573,0.645-0.976,1.439-1.212,2.381L8.681,32.759
			c-0.061,0.353-0.291,0.648-0.648,0.648l-4.568-0.002c-0.358,0-0.649-0.291-0.649-0.648L7.831,2.834
			c0.346-0.058,1.673-0.163,1.962-0.163c1.183,0,2.065,0.307,2.583,0.857c0.864,0.918,0.75,2.445,0.736,2.619
			c-0.015,0.173-0.037,0.346-0.065,0.519l-1.342,8.044c0.664-0.664,1.392-1.242,2.286-1.718c0.894-0.476,2.019-0.714,3.375-0.714
			c1.298,0,2.351,0.289,3.159,0.865c0.808,0.578,1.37,1.313,1.688,2.208c0.289,0.837,0.433,1.76,0.433,2.77
			c0,0.52-0.065,1.028-0.124,1.532C22.464,20.156,22.354,20.662,22.268,21.152"/>
		<path fill-rule="evenodd" clip-rule="evenodd" fill="#FFFFFF" d="M67.313,6.414c-0.551,0-1.09,0.068-1.609,0.2v0
			c-0.849-3.198-3.654-5.301-6.974-5.546c-4.036-0.297-6.459,3.808-6.483,4.206c-3.526-1.943-7.554,0.85-7.399,5.679h0.252
			c0.218-5.216,4.859-6.16,6.857-4.909c-0.291,0.82-0.465,1.675-0.465,2.601c0,0.347,0.023,0.691,0.065,1.027h0.097
			c0.025-1.227,0.288-2.382,0.734-3.409c0.101-0.231,0.212-0.458,0.331-0.674l0,0c1.194-2.187,3.278-3.635,5.648-3.635
			c2.844,0,5.275,2.088,6.253,5.036v0c0.127,0.379,0.229,0.774,0.305,1.181c0.321-0.15,0.654-0.27,0.997-0.355
			c0.432-0.11,0.881-0.167,1.339-0.167c3.829,0,6.934,4.009,6.934,8.954c0,3.305-1.385,6.188-3.447,7.738v0.256
			c0.041-0.022,0.081-0.048,0.12-0.072c2.563-1.579,4.317-4.811,4.317-8.54C75.185,10.698,71.66,6.414,67.313,6.414"/>
	</g>
</g>
</svg>
